<svg width="304" height="120" viewBox="0 0 304 120" fill="none" xmlns="http://www.w3.org/2000/svg">
<rect width="304" height="120" rx="6" fill="#313235"/>
<path d="M23.0871 75.1405C21.9783 75.1405 20.9564 74.8742 20.0216 74.3415C19.0867 73.8089 18.342 73.0805 17.7876 72.1565C17.2441 71.2217 16.9723 70.1835 16.9723 69.0421C16.9723 67.9007 17.2441 66.8679 17.7876 65.9439C18.342 65.0091 19.0867 64.2753 20.0216 63.7426C20.9564 63.21 21.9783 62.9436 23.0871 62.9436C23.9676 62.9436 24.7884 63.1012 25.5493 63.4165C26.3102 63.7317 26.9462 64.172 27.4571 64.7373L26.1852 66.0092C25.8048 65.5852 25.3482 65.2591 24.8155 65.0308C24.2937 64.8025 23.7122 64.6884 23.0708 64.6884C22.3207 64.6884 21.6195 64.8677 20.9673 65.2265C20.3151 65.5852 19.7933 66.0961 19.4019 66.7592C19.0106 67.4223 18.8149 68.1833 18.8149 69.0421C18.8149 69.9009 19.0106 70.6618 19.4019 71.3249C19.7933 71.988 20.3151 72.499 20.9673 72.8577C21.6195 73.2164 22.3261 73.3958 23.0871 73.3958C23.7828 73.3958 24.3644 73.2925 24.8318 73.086C25.2993 72.8794 25.7178 72.6022 26.0874 72.2544C26.3266 72.0152 26.5277 71.7163 26.6907 71.3575C26.8647 70.9988 26.9788 70.6075 27.0332 70.1835H23.0708V68.5529H28.7616C28.8159 68.8573 28.8431 69.1725 28.8431 69.4986C28.8431 70.2379 28.729 70.9499 28.5007 71.6347C28.2724 72.3087 27.9082 72.8957 27.4082 73.3958C26.3102 74.559 24.8699 75.1405 23.0871 75.1405ZM34.4753 75.1405C33.6383 75.1405 32.8882 74.9503 32.2251 74.5698C31.562 74.1785 31.0456 73.6458 30.676 72.9718C30.3064 72.2979 30.1216 71.5478 30.1216 70.7216C30.1216 69.8954 30.3064 69.1454 30.676 68.4714C31.0456 67.7974 31.562 67.2702 32.2251 66.8897C32.8882 66.4983 33.6383 66.3027 34.4753 66.3027C35.3124 66.3027 36.0624 66.4983 36.7256 66.8897C37.3887 67.281 37.905 67.8137 38.2746 68.4877C38.6442 69.1617 38.829 69.9063 38.829 70.7216C38.829 71.5478 38.6442 72.2979 38.2746 72.9718C37.905 73.6458 37.3887 74.1785 36.7256 74.5698C36.0624 74.9503 35.3124 75.1405 34.4753 75.1405ZM34.4753 73.4936C34.9319 73.4936 35.3559 73.3849 35.7472 73.1675C36.1385 72.9392 36.4484 72.6185 36.6766 72.2054C36.9158 71.7815 37.0354 71.2869 37.0354 70.7216C37.0354 70.1563 36.9158 69.6671 36.6766 69.2541C36.4484 68.841 36.1385 68.5257 35.7472 68.3083C35.3559 68.08 34.9319 67.9659 34.4753 67.9659C34.0188 67.9659 33.5948 68.08 33.2035 68.3083C32.8121 68.5257 32.4969 68.841 32.2577 69.2541C32.0294 69.6671 31.9153 70.1563 31.9153 70.7216C31.9153 71.2869 32.0294 71.7815 32.2577 72.2054C32.4969 72.6185 32.8121 72.9392 33.2035 73.1675C33.5948 73.3849 34.0188 73.4936 34.4753 73.4936ZM44.38 75.1405C43.5429 75.1405 42.7928 74.9503 42.1297 74.5698C41.4666 74.1785 40.9503 73.6458 40.5807 72.9718C40.2111 72.2979 40.0263 71.5478 40.0263 70.7216C40.0263 69.8954 40.2111 69.1454 40.5807 68.4714C40.9503 67.7974 41.4666 67.2702 42.1297 66.8897C42.7928 66.4983 43.5429 66.3027 44.38 66.3027C45.217 66.3027 45.9671 66.4983 46.6302 66.8897C47.2933 67.281 47.8097 67.8137 48.1793 68.4877C48.5489 69.1617 48.7337 69.9063 48.7337 70.7216C48.7337 71.5478 48.5489 72.2979 48.1793 72.9718C47.8097 73.6458 47.2933 74.1785 46.6302 74.5698C45.9671 74.9503 45.217 75.1405 44.38 75.1405ZM44.38 73.4936C44.8365 73.4936 45.2605 73.3849 45.6518 73.1675C46.0432 72.9392 46.353 72.6185 46.5813 72.2054C46.8204 71.7815 46.94 71.2869 46.94 70.7216C46.94 70.1563 46.8204 69.6671 46.5813 69.2541C46.353 68.841 46.0432 68.5257 45.6518 68.3083C45.2605 68.08 44.8365 67.9659 44.38 67.9659C43.9234 67.9659 43.4994 68.08 43.1081 68.3083C42.7167 68.5257 42.4015 68.841 42.1623 69.2541C41.9341 69.6671 41.8199 70.1563 41.8199 70.7216C41.8199 71.2869 41.9341 71.7815 42.1623 72.2054C42.4015 72.6185 42.7167 72.9392 43.1081 73.1675C43.4994 73.3849 43.9234 73.4936 44.38 73.4936ZM54.1378 78.6626C53.116 78.6626 52.2681 78.4289 51.5941 77.9615C50.931 77.494 50.4853 76.9396 50.257 76.2983L51.9365 75.5971C52.1105 76.0319 52.3877 76.3798 52.7681 76.6407C53.1595 76.9125 53.6161 77.0483 54.1378 77.0483C54.8988 77.0483 55.4912 76.8201 55.9152 76.3635C56.35 75.9178 56.5674 75.2873 56.5674 74.472V73.7056H56.4696C56.1978 74.0969 55.8337 74.4068 55.3771 74.635C54.9314 74.8525 54.4151 74.9612 53.828 74.9612C53.1323 74.9612 52.4855 74.7818 51.8876 74.4231C51.2897 74.0643 50.8114 73.5589 50.4527 72.9066C50.1048 72.2435 49.9309 71.488 49.9309 70.6401C49.9309 69.7922 50.1048 69.0421 50.4527 68.3898C50.8114 67.7267 51.2897 67.2158 51.8876 66.8571C52.4855 66.4875 53.1323 66.3027 53.828 66.3027C54.4042 66.3027 54.9205 66.4168 55.3771 66.6451C55.8337 66.8734 56.1978 67.1832 56.4696 67.5745H56.5674V66.5636H58.2796V74.4231C58.2796 75.3253 58.1057 76.0917 57.7578 76.7222C57.4099 77.3636 56.9207 77.8473 56.2902 78.1735C55.6706 78.4996 54.9532 78.6626 54.1378 78.6626ZM54.1542 73.3306C54.589 73.3306 54.9912 73.2273 55.3608 73.0208C55.7304 72.8033 56.0239 72.4935 56.2413 72.0913C56.4587 71.6782 56.5674 71.1945 56.5674 70.6401C56.5674 69.7922 56.3337 69.1345 55.8663 68.667C55.4097 68.1887 54.839 67.9496 54.1542 67.9496C53.7085 67.9496 53.3008 68.0583 52.9312 68.2757C52.5616 68.4822 52.2681 68.7866 52.0507 69.1888C51.8333 69.591 51.7246 70.0748 51.7246 70.6401C51.7246 71.2053 51.8333 71.6891 52.0507 72.0913C52.2681 72.4935 52.5616 72.8033 52.9312 73.0208C53.3008 73.2273 53.7085 73.3306 54.1542 73.3306ZM60.3876 63.2045H62.1813V74.8796H60.3876V63.2045ZM68.0087 75.1405C67.1934 75.1405 66.4596 74.9503 65.8074 74.5698C65.166 74.1894 64.6605 73.6676 64.2909 73.0044C63.9322 72.3305 63.7528 71.5749 63.7528 70.7379C63.7528 69.9443 63.9267 69.2106 64.2746 68.5366C64.6333 67.8517 65.1279 67.3082 65.7584 66.906C66.3889 66.5038 67.1064 66.3027 67.9108 66.3027C68.7479 66.3027 69.4708 66.4875 70.0795 66.8571C70.6992 67.2267 71.1666 67.7322 71.4819 68.3735C71.808 69.0149 71.971 69.7378 71.971 70.5422C71.971 70.6944 71.9547 70.8847 71.9221 71.1129H65.5465C65.6117 71.8848 65.8835 72.4827 66.3618 72.9066C66.8509 73.3197 67.4162 73.5262 68.0576 73.5262C68.5685 73.5262 69.0088 73.4121 69.3784 73.1838C69.7589 72.9447 70.0632 72.624 70.2915 72.2218L71.808 72.9392C71.4166 73.6241 70.9057 74.1622 70.2752 74.5535C69.6447 74.9449 68.8892 75.1405 68.0087 75.1405ZM70.1448 69.7432C70.123 69.4497 70.0306 69.1617 69.8676 68.879C69.7045 68.5855 69.4545 68.3409 69.1175 68.1452C68.7914 67.9496 68.3892 67.8517 67.9108 67.8517C67.3347 67.8517 66.8455 68.0257 66.4433 68.3735C66.052 68.7105 65.7802 69.1671 65.628 69.7432H70.1448ZM77.7197 63.2045H81.4538C82.6604 63.2045 83.7149 63.4491 84.6171 63.9383C85.5194 64.4275 86.2097 65.1178 86.688 66.0092C87.1772 66.8897 87.4218 67.9007 87.4218 69.0421C87.4218 70.1835 87.1772 71.1999 86.688 72.0913C86.2097 72.9718 85.5194 73.6567 84.6171 74.1459C83.7149 74.635 82.6604 74.8796 81.4538 74.8796H77.7197V63.2045ZM81.4212 73.1349C82.7256 73.1349 83.742 72.7762 84.4704 72.0587C85.2096 71.3304 85.5792 70.3248 85.5792 69.0421C85.5792 67.7702 85.2096 66.7701 84.4704 66.0418C83.742 65.3134 82.7256 64.9493 81.4212 64.9493H79.546V73.1349H81.4212ZM92.7703 75.1405C91.955 75.1405 91.2212 74.9503 90.569 74.5698C89.9276 74.1894 89.4221 73.6676 89.0525 73.0044C88.6938 72.3305 88.5144 71.5749 88.5144 70.7379C88.5144 69.9443 88.6883 69.2106 89.0362 68.5366C89.3949 67.8517 89.8895 67.3082 90.52 66.906C91.1505 66.5038 91.868 66.3027 92.6724 66.3027C93.5095 66.3027 94.2324 66.4875 94.8411 66.8571C95.4608 67.2267 95.9282 67.7322 96.2435 68.3735C96.5696 69.0149 96.7326 69.7378 96.7326 70.5422C96.7326 70.6944 96.7163 70.8847 96.6837 71.1129H90.3081C90.3733 71.8848 90.6451 72.4827 91.1234 72.9066C91.6125 73.3197 92.1778 73.5262 92.8192 73.5262C93.3301 73.5262 93.7704 73.4121 94.14 73.1838C94.5205 72.9447 94.8248 72.624 95.0531 72.2218L96.5696 72.9392C96.1782 73.6241 95.6673 74.1622 95.0368 74.5535C94.4063 74.9449 93.6508 75.1405 92.7703 75.1405ZM94.9064 69.7432C94.8846 69.4497 94.7922 69.1617 94.6292 68.879C94.4661 68.5855 94.2161 68.3409 93.8791 68.1452C93.553 67.9496 93.1507 67.8517 92.6724 67.8517C92.0963 67.8517 91.6071 68.0257 91.2049 68.3735C90.8136 68.7105 90.5418 69.1671 90.3896 69.7432H94.9064ZM97.2774 66.5636H99.283L101.582 72.5642H101.647L103.995 66.5636H105.952L102.495 74.8796H100.702L97.2774 66.5636ZM110.669 75.1405C109.853 75.1405 109.12 74.9503 108.467 74.5698C107.826 74.1894 107.321 73.6676 106.951 73.0044C106.592 72.3305 106.413 71.5749 106.413 70.7379C106.413 69.9443 106.587 69.2106 106.935 68.5366C107.293 67.8517 107.788 67.3082 108.418 66.906C109.049 66.5038 109.766 66.3027 110.571 66.3027C111.408 66.3027 112.131 66.4875 112.74 66.8571C113.359 67.2267 113.827 67.7322 114.142 68.3735C114.468 69.0149 114.631 69.7378 114.631 70.5422C114.631 70.6944 114.615 70.8847 114.582 71.1129H108.206C108.272 71.8848 108.543 72.4827 109.022 72.9066C109.511 73.3197 110.076 73.5262 110.718 73.5262C111.229 73.5262 111.669 73.4121 112.038 73.1838C112.419 72.9447 112.723 72.624 112.952 72.2218L114.468 72.9392C114.077 73.6241 113.566 74.1622 112.935 74.5535C112.305 74.9449 111.549 75.1405 110.669 75.1405ZM112.805 69.7432C112.783 69.4497 112.691 69.1617 112.528 68.879C112.365 68.5855 112.114 68.3409 111.777 68.1452C111.451 67.9496 111.049 67.8517 110.571 67.8517C109.995 67.8517 109.506 68.0257 109.103 68.3735C108.712 68.7105 108.44 69.1671 108.288 69.7432H112.805ZM116.264 63.2045H118.058V74.8796H116.264V63.2045ZM123.983 75.1405C123.146 75.1405 122.396 74.9503 121.733 74.5698C121.07 74.1785 120.554 73.6458 120.184 72.9718C119.814 72.2979 119.63 71.5478 119.63 70.7216C119.63 69.8954 119.814 69.1454 120.184 68.4714C120.554 67.7974 121.07 67.2702 121.733 66.8897C122.396 66.4983 123.146 66.3027 123.983 66.3027C124.82 66.3027 125.57 66.4983 126.234 66.8897C126.897 67.281 127.413 67.8137 127.783 68.4877C128.152 69.1617 128.337 69.9063 128.337 70.7216C128.337 71.5478 128.152 72.2979 127.783 72.9718C127.413 73.6458 126.897 74.1785 126.234 74.5698C125.57 74.9503 124.82 75.1405 123.983 75.1405ZM123.983 73.4936C124.44 73.4936 124.864 73.3849 125.255 73.1675C125.647 72.9392 125.956 72.6185 126.185 72.2054C126.424 71.7815 126.543 71.2869 126.543 70.7216C126.543 70.1563 126.424 69.6671 126.185 69.2541C125.956 68.841 125.647 68.5257 125.255 68.3083C124.864 68.08 124.44 67.9659 123.983 67.9659C123.527 67.9659 123.103 68.08 122.711 68.3083C122.32 68.5257 122.005 68.841 121.766 69.2541C121.537 69.6671 121.423 70.1563 121.423 70.7216C121.423 71.2869 121.537 71.7815 121.766 72.2054C122.005 72.6185 122.32 72.9392 122.711 73.1675C123.103 73.3849 123.527 73.4936 123.983 73.4936ZM129.846 66.5636H131.558V67.6561H131.64C131.879 67.2756 132.232 66.9549 132.7 66.694C133.167 66.4331 133.694 66.3027 134.281 66.3027C135.031 66.3027 135.711 66.4929 136.319 66.8734C136.928 67.2539 137.407 67.7811 137.754 68.4551C138.113 69.1182 138.293 69.8737 138.293 70.7216C138.293 71.5695 138.113 72.3305 137.754 73.0044C137.407 73.6676 136.928 74.1894 136.319 74.5698C135.711 74.9503 135.031 75.1405 134.281 75.1405C133.694 75.1405 133.167 75.0101 132.7 74.7492C132.232 74.4883 131.879 74.173 131.64 73.8034H131.558L131.64 74.9612V78.4017H129.846V66.5636ZM134.02 73.4936C134.455 73.4936 134.863 73.3795 135.243 73.1512C135.624 72.9229 135.928 72.5968 136.156 72.1728C136.385 71.7489 136.499 71.2651 136.499 70.7216C136.499 70.1781 136.385 69.6998 136.156 69.2867C135.928 68.8627 135.624 68.5366 135.243 68.3083C134.863 68.08 134.455 67.9659 134.02 67.9659C133.586 67.9659 133.178 68.08 132.797 68.3083C132.428 68.5366 132.129 68.8627 131.901 69.2867C131.672 69.6998 131.558 70.1781 131.558 70.7216C131.558 71.2651 131.672 71.7489 131.901 72.1728C132.129 72.5968 132.428 72.9229 132.797 73.1512C133.178 73.3795 133.586 73.4936 134.02 73.4936ZM143.727 75.1405C142.911 75.1405 142.178 74.9503 141.525 74.5698C140.884 74.1894 140.378 73.6676 140.009 73.0044C139.65 72.3305 139.471 71.5749 139.471 70.7379C139.471 69.9443 139.645 69.2106 139.993 68.5366C140.351 67.8517 140.846 67.3082 141.476 66.906C142.107 66.5038 142.824 66.3027 143.629 66.3027C144.466 66.3027 145.189 66.4875 145.797 66.8571C146.417 67.2267 146.885 67.7322 147.2 68.3735C147.526 69.0149 147.689 69.7378 147.689 70.5422C147.689 70.6944 147.673 70.8847 147.64 71.1129H141.264C141.33 71.8848 141.601 72.4827 142.08 72.9066C142.569 73.3197 143.134 73.5262 143.776 73.5262C144.286 73.5262 144.727 73.4121 145.096 73.1838C145.477 72.9447 145.781 72.624 146.009 72.2218L147.526 72.9392C147.135 73.6241 146.624 74.1622 145.993 74.5535C145.363 74.9449 144.607 75.1405 143.727 75.1405ZM145.863 69.7432C145.841 69.4497 145.749 69.1617 145.586 68.879C145.422 68.5855 145.172 68.3409 144.835 68.1452C144.509 67.9496 144.107 67.8517 143.629 67.8517C143.053 67.8517 142.563 68.0257 142.161 68.3735C141.77 68.7105 141.498 69.1671 141.346 69.7432H145.863ZM149.322 66.5636H151.035V67.7865H151.116C151.301 67.3626 151.622 67.0147 152.078 66.7429C152.535 66.4603 153.018 66.319 153.529 66.319C153.932 66.319 154.269 66.3733 154.54 66.482V68.3409C154.062 68.167 153.633 68.08 153.252 68.08C152.839 68.08 152.469 68.1887 152.143 68.4061C151.828 68.6236 151.578 68.9171 151.393 69.2867C151.208 69.6454 151.116 70.0422 151.116 70.477V74.8796H149.322V66.5636ZM162.912 75.1405C161.944 75.1405 161.075 74.8579 160.303 74.2926C159.531 73.7273 158.998 72.9338 158.705 71.9119L160.433 71.2108C160.607 71.8522 160.912 72.3794 161.346 72.7925C161.792 73.1947 162.325 73.3958 162.944 73.3958C163.521 73.3958 164.01 73.249 164.412 72.9555C164.814 72.6511 165.015 72.2381 165.015 71.7163C165.015 71.238 164.836 70.8466 164.477 70.5422C164.129 70.227 163.515 69.9117 162.635 69.5965L161.901 69.3356C161.118 69.0638 160.46 68.6725 159.928 68.1616C159.395 67.6506 159.129 66.9766 159.129 66.1396C159.129 65.5635 159.286 65.0308 159.602 64.5416C159.917 64.0524 160.352 63.6665 160.906 63.3839C161.471 63.0904 162.107 62.9436 162.814 62.9436C163.836 62.9436 164.651 63.1936 165.26 63.6937C165.869 64.1829 166.276 64.7373 166.483 65.3569L164.836 66.0581C164.716 65.6885 164.488 65.3624 164.151 65.0797C163.814 64.7971 163.379 64.6558 162.847 64.6558C162.314 64.6558 161.863 64.7916 161.493 65.0634C161.134 65.3352 160.955 65.683 160.955 66.107C160.955 66.5092 161.118 66.8408 161.444 67.1017C161.77 67.3626 162.281 67.6126 162.977 67.8517L163.711 68.0963C164.711 68.4442 165.483 68.9008 166.026 69.466C166.581 70.0204 166.858 70.7651 166.858 71.7C166.858 72.4609 166.662 73.1023 166.271 73.6241C165.88 74.135 165.379 74.5155 164.771 74.7655C164.173 75.0155 163.553 75.1405 162.912 75.1405ZM171.648 75.0101C171.278 75.0101 170.93 74.9503 170.604 74.8307C170.278 74.7111 170.012 74.5535 169.805 74.3578C169.338 73.8904 169.104 73.2545 169.104 72.45V68.1452H167.653V66.5636H169.104V64.2155H170.898V66.5636H172.92V68.1452H170.898V72.0587C170.898 72.5044 170.985 72.8196 171.159 73.0044C171.322 73.2219 171.604 73.3306 172.007 73.3306C172.191 73.3306 172.354 73.3088 172.496 73.2653C172.637 73.211 172.789 73.1295 172.952 73.0208V74.7655C172.594 74.9286 172.159 75.0101 171.648 75.0101ZM177.658 75.1405C176.647 75.1405 175.876 74.8416 175.343 74.2437C174.821 73.6349 174.56 72.7925 174.56 71.7163V66.5636H176.354V71.4717C176.354 72.1457 176.511 72.6511 176.827 72.9881C177.153 73.3251 177.577 73.4936 178.099 73.4936C178.523 73.4936 178.898 73.3849 179.224 73.1675C179.55 72.9392 179.8 72.6403 179.974 72.2707C180.148 71.9011 180.235 71.5043 180.235 71.0803V66.5636H182.028V74.8796H180.333V73.8034H180.235C180.006 74.1948 179.653 74.5155 179.175 74.7655C178.696 75.0155 178.191 75.1405 177.658 75.1405ZM187.591 75.1405C186.841 75.1405 186.162 74.9503 185.553 74.5698C184.944 74.1894 184.46 73.6676 184.102 73.0044C183.754 72.3305 183.58 71.5695 183.58 70.7216C183.58 69.8737 183.754 69.1182 184.102 68.4551C184.46 67.7811 184.944 67.2539 185.553 66.8734C186.162 66.4929 186.841 66.3027 187.591 66.3027C188.178 66.3027 188.705 66.4331 189.173 66.694C189.64 66.9549 189.994 67.2756 190.233 67.6561H190.314L190.233 66.482V63.2045H192.026V74.8796H190.314V73.8034H190.233C189.994 74.173 189.64 74.4883 189.173 74.7492C188.705 75.0101 188.178 75.1405 187.591 75.1405ZM187.852 73.4936C188.287 73.4936 188.689 73.3795 189.059 73.1512C189.439 72.9229 189.744 72.5968 189.972 72.1728C190.2 71.7489 190.314 71.2651 190.314 70.7216C190.314 70.1781 190.2 69.6998 189.972 69.2867C189.744 68.8627 189.439 68.5366 189.059 68.3083C188.689 68.08 188.287 67.9659 187.852 67.9659C187.417 67.9659 187.01 68.08 186.629 68.3083C186.249 68.5366 185.944 68.8627 185.716 69.2867C185.488 69.6998 185.374 70.1781 185.374 70.7216C185.374 71.2651 185.488 71.7489 185.716 72.1728C185.944 72.5968 186.249 72.9229 186.629 73.1512C187.01 73.3795 187.417 73.4936 187.852 73.4936ZM197.836 75.1405C197.021 75.1405 196.287 74.9503 195.635 74.5698C194.993 74.1894 194.488 73.6676 194.118 73.0044C193.759 72.3305 193.58 71.5749 193.58 70.7379C193.58 69.9443 193.754 69.2106 194.102 68.5366C194.461 67.8517 194.955 67.3082 195.586 66.906C196.216 66.5038 196.934 66.3027 197.738 66.3027C198.575 66.3027 199.298 66.4875 199.907 66.8571C200.526 67.2267 200.994 67.7322 201.309 68.3735C201.635 69.0149 201.798 69.7378 201.798 70.5422C201.798 70.6944 201.782 70.8847 201.749 71.1129H195.374C195.439 71.8848 195.711 72.4827 196.189 72.9066C196.678 73.3197 197.243 73.5262 197.885 73.5262C198.396 73.5262 198.836 73.4121 199.206 73.1838C199.586 72.9447 199.89 72.624 200.119 72.2218L201.635 72.9392C201.244 73.6241 200.733 74.1622 200.102 74.5535C199.472 74.9449 198.716 75.1405 197.836 75.1405ZM199.972 69.7432C199.95 69.4497 199.858 69.1617 199.695 68.879C199.532 68.5855 199.282 68.3409 198.945 68.1452C198.619 67.9496 198.216 67.8517 197.738 67.8517C197.162 67.8517 196.673 68.0257 196.271 68.3735C195.879 68.7105 195.607 69.1671 195.455 69.7432H199.972ZM203.432 66.5636H205.144V67.6561H205.225C205.464 67.2647 205.818 66.944 206.285 66.694C206.764 66.4331 207.269 66.3027 207.802 66.3027C208.813 66.3027 209.579 66.6016 210.101 67.1995C210.633 67.7865 210.9 68.5909 210.9 69.6128V74.8796H209.106V69.8574C209.106 69.2051 208.943 68.7268 208.617 68.4225C208.302 68.1181 207.861 67.9659 207.296 67.9659C206.894 67.9659 206.535 68.08 206.22 68.3083C205.905 68.5257 205.66 68.8192 205.486 69.1888C205.312 69.5584 205.225 69.9552 205.225 70.3792V74.8796H203.432V66.5636ZM215.916 75.0101C215.547 75.0101 215.199 74.9503 214.873 74.8307C214.547 74.7111 214.28 74.5535 214.074 74.3578C213.606 73.8904 213.372 73.2545 213.372 72.45V68.1452H211.921V66.5636H213.372V64.2155H215.166V66.5636H217.188V68.1452H215.166V72.0587C215.166 72.5044 215.253 72.8196 215.427 73.0044C215.59 73.2219 215.873 73.3306 216.275 73.3306C216.46 73.3306 216.623 73.3088 216.764 73.2653C216.905 73.211 217.058 73.1295 217.221 73.0208V74.7655C216.862 74.9286 216.427 75.0101 215.916 75.0101ZM228.202 75.1405C227.071 75.1405 226.039 74.8742 225.104 74.3415C224.169 73.8089 223.435 73.0751 222.902 72.1402C222.37 71.2053 222.103 70.1726 222.103 69.0421C222.103 67.9115 222.37 66.8788 222.902 65.9439C223.435 65.0091 224.169 64.2753 225.104 63.7426C226.039 63.21 227.071 62.9436 228.202 62.9436C229.082 62.9436 229.881 63.1067 230.599 63.4328C231.327 63.7589 231.969 64.2318 232.523 64.8514L231.219 66.107C230.816 65.6287 230.371 65.2754 229.881 65.0471C229.392 64.8079 228.832 64.6884 228.202 64.6884C227.419 64.6884 226.702 64.8677 226.05 65.2265C225.408 65.5852 224.897 66.0961 224.517 66.7592C224.136 67.4115 223.946 68.1724 223.946 69.0421C223.946 69.9117 224.136 70.6781 224.517 71.3412C224.897 71.9935 225.408 72.499 226.05 72.8577C226.702 73.2164 227.419 73.3958 228.202 73.3958C229.506 73.3958 230.615 72.8523 231.528 71.7652L232.849 73.0371C232.284 73.7002 231.604 74.2165 230.811 74.5861C230.017 74.9557 229.148 75.1405 228.202 75.1405ZM234.435 63.2045H236.229V74.8796H234.435V63.2045ZM241.37 75.1405C240.359 75.1405 239.587 74.8416 239.054 74.2437C238.532 73.6349 238.272 72.7925 238.272 71.7163V66.5636H240.065V71.4717C240.065 72.1457 240.223 72.6511 240.538 72.9881C240.864 73.3251 241.288 73.4936 241.81 73.4936C242.234 73.4936 242.609 73.3849 242.935 73.1675C243.261 72.9392 243.511 72.6403 243.685 72.2707C243.859 71.9011 243.946 71.5043 243.946 71.0803V66.5636H245.74V74.8796H244.044V73.8034H243.946C243.718 74.1948 243.364 74.5155 242.886 74.7655C242.408 75.0155 241.902 75.1405 241.37 75.1405ZM252.263 75.1405C251.676 75.1405 251.148 75.0101 250.681 74.7492C250.213 74.4883 249.86 74.173 249.621 73.8034H249.54V74.8796H247.827V63.2045H249.621V66.482L249.54 67.6561H249.621C249.86 67.2756 250.213 66.9549 250.681 66.694C251.148 66.4331 251.676 66.3027 252.263 66.3027C253.013 66.3027 253.692 66.4929 254.301 66.8734C254.91 67.2539 255.388 67.7811 255.736 68.4551C256.095 69.1182 256.274 69.8737 256.274 70.7216C256.274 71.5695 256.095 72.3305 255.736 73.0044C255.388 73.6676 254.91 74.1894 254.301 74.5698C253.692 74.9503 253.013 75.1405 252.263 75.1405ZM252.002 73.4936C252.437 73.4936 252.844 73.3795 253.225 73.1512C253.605 72.9229 253.91 72.5968 254.138 72.1728C254.366 71.7489 254.48 71.2651 254.48 70.7216C254.48 70.1781 254.366 69.6998 254.138 69.2867C253.91 68.8627 253.605 68.5366 253.225 68.3083C252.844 68.08 252.437 67.9659 252.002 67.9659C251.567 67.9659 251.159 68.08 250.779 68.3083C250.409 68.5366 250.11 68.8627 249.882 69.2867C249.654 69.6998 249.54 70.1781 249.54 70.7216C249.54 71.2651 249.654 71.7489 249.882 72.1728C250.11 72.5968 250.409 72.9229 250.779 73.1512C251.159 73.3795 251.567 73.4936 252.002 73.4936ZM260.86 75.1405C259.904 75.1405 259.121 74.934 258.512 74.5209C257.904 74.0969 257.474 73.5589 257.224 72.9066L258.822 72.2054C259.018 72.6403 259.29 72.9718 259.638 73.2001C259.996 73.4284 260.404 73.5425 260.86 73.5425C261.306 73.5425 261.681 73.4664 261.986 73.3143C262.29 73.1512 262.442 72.912 262.442 72.5968C262.442 72.2924 262.312 72.0533 262.051 71.8793C261.79 71.7054 261.388 71.5532 260.844 71.4228L259.849 71.1782C259.186 71.0151 258.637 70.727 258.203 70.314C257.768 69.9009 257.55 69.3791 257.55 68.7486C257.55 68.2594 257.692 67.83 257.974 67.4604C258.268 67.0908 258.659 66.8082 259.148 66.6125C259.638 66.4059 260.17 66.3027 260.746 66.3027C261.518 66.3027 262.198 66.4603 262.785 66.7755C263.372 67.0799 263.796 67.5256 264.056 68.1126L262.491 68.7975C262.176 68.1561 261.6 67.8354 260.763 67.8354C260.36 67.8354 260.023 67.917 259.752 68.08C259.48 68.2431 259.344 68.4551 259.344 68.716C259.344 68.966 259.447 69.1725 259.654 69.3356C259.86 69.4878 260.165 69.6182 260.567 69.7269L261.79 70.0367C262.605 70.2433 263.219 70.5585 263.632 70.9825C264.056 71.3956 264.268 71.9065 264.268 72.5153C264.268 73.0371 264.116 73.4991 263.812 73.9013C263.518 74.2926 263.111 74.597 262.589 74.8144C262.067 75.0318 261.491 75.1405 260.86 75.1405Z" fill="white"/>
<rect width="23.3115" height="7.81905" rx="3.90953" transform="matrix(-0.866025 0.5 0.5 0.866025 174.504 27.7881)" fill="#FBBC04"/>
<rect width="23.3115" height="7.81905" rx="3.90953" transform="matrix(0.866025 -0.5 -0.5 -0.866025 131.371 38.4272)" fill="#EA4335"/>
<rect x="131.041" y="27.7871" width="23.3115" height="7.81905" rx="3.90953" transform="rotate(30 131.041 27.7871)" fill="#4285F4"/>
<rect x="174.504" y="38.4272" width="23.3115" height="7.81905" rx="3.64648" transform="rotate(-150 174.504 38.4272)" fill="#0F9D58"/>
<path d="M47.123 85C47.0762 84.6042 46.8861 84.2969 46.5527 84.0781C46.2194 83.8594 45.8105 83.75 45.3262 83.75C44.972 83.75 44.6621 83.8073 44.3965 83.9219C44.1335 84.0365 43.9277 84.194 43.7793 84.3945C43.6335 84.5951 43.5605 84.8229 43.5605 85.0781C43.5605 85.2917 43.6113 85.4753 43.7129 85.6289C43.8171 85.7799 43.9499 85.9062 44.1113 86.0078C44.2728 86.1068 44.4421 86.1888 44.6191 86.2539C44.7962 86.3164 44.959 86.3672 45.1074 86.4062L45.9199 86.625C46.1283 86.6797 46.36 86.7552 46.6152 86.8516C46.873 86.9479 47.1191 87.0794 47.3535 87.2461C47.5905 87.4102 47.7858 87.6211 47.9395 87.8789C48.0931 88.1367 48.1699 88.4531 48.1699 88.8281C48.1699 89.2604 48.0566 89.651 47.8301 90C47.6061 90.349 47.278 90.6263 46.8457 90.832C46.416 91.0378 45.8939 91.1406 45.2793 91.1406C44.7064 91.1406 44.2103 91.0482 43.791 90.8633C43.3743 90.6784 43.0462 90.4206 42.8066 90.0898C42.5697 89.7591 42.4355 89.375 42.4043 88.9375H43.4043C43.4303 89.2396 43.5319 89.4896 43.709 89.6875C43.8887 89.8828 44.1152 90.0286 44.3887 90.125C44.6647 90.2187 44.9616 90.2656 45.2793 90.2656C45.6491 90.2656 45.9811 90.2057 46.2754 90.0859C46.5697 89.9635 46.8027 89.7943 46.9746 89.5781C47.1465 89.3594 47.2324 89.1042 47.2324 88.8125C47.2324 88.5469 47.1582 88.3307 47.0098 88.1641C46.8613 87.9974 46.666 87.862 46.4238 87.7578C46.1816 87.6536 45.9199 87.5625 45.6387 87.4844L44.6543 87.2031C44.0293 87.0234 43.5345 86.7669 43.1699 86.4336C42.8053 86.1003 42.623 85.6641 42.623 85.125C42.623 84.6771 42.7441 84.2865 42.9863 83.9531C43.2311 83.6172 43.5592 83.3568 43.9707 83.1719C44.3848 82.9844 44.847 82.8906 45.3574 82.8906C45.873 82.8906 46.3314 82.9831 46.7324 83.168C47.1335 83.3503 47.4512 83.6003 47.6855 83.918C47.9225 84.2357 48.0475 84.5964 48.0605 85H47.123ZM50.2314 93.25C50.0752 93.25 49.9359 93.237 49.8135 93.2109C49.6911 93.1875 49.6064 93.1641 49.5596 93.1406L49.7939 92.3281C50.0179 92.3854 50.2158 92.4063 50.3877 92.3906C50.5596 92.375 50.7119 92.2982 50.8447 92.1602C50.9801 92.0247 51.1038 91.8047 51.2158 91.5L51.3877 91.0313L49.1689 85H50.1689L51.8252 89.7812H51.8877L53.5439 85H54.5439L51.9971 91.875C51.8825 92.1849 51.7406 92.4414 51.5713 92.6445C51.402 92.8503 51.2054 93.0026 50.9814 93.1016C50.7601 93.2005 50.5101 93.25 50.2314 93.25ZM55.7607 91V85H56.6514V85.9375H56.7295C56.8545 85.6172 57.0563 85.3685 57.335 85.1914C57.6136 85.0117 57.9482 84.9219 58.3389 84.9219C58.7347 84.9219 59.0641 85.0117 59.3271 85.1914C59.5928 85.3685 59.7998 85.6172 59.9482 85.9375H60.0107C60.1644 85.6276 60.3949 85.3815 60.7021 85.1992C61.0094 85.0143 61.3779 84.9219 61.8076 84.9219C62.3441 84.9219 62.7829 85.0898 63.124 85.4258C63.4652 85.7591 63.6357 86.2786 63.6357 86.9844V91H62.7139V86.9844C62.7139 86.5417 62.5928 86.2253 62.3506 86.0352C62.1084 85.8451 61.8232 85.75 61.4951 85.75C61.0732 85.75 60.7464 85.8776 60.5146 86.1328C60.2829 86.3854 60.167 86.7057 60.167 87.0937V91H59.2295V86.8906C59.2295 86.5495 59.1188 86.2747 58.8975 86.0664C58.6761 85.8555 58.391 85.75 58.042 85.75C57.8024 85.75 57.5785 85.8138 57.3701 85.9414C57.1644 86.069 56.9977 86.2461 56.8701 86.4727C56.7451 86.6966 56.6826 86.9557 56.6826 87.25V91H55.7607ZM65.4463 91V83H66.3682V85.9531H66.4463C66.514 85.849 66.6077 85.7161 66.7275 85.5547C66.8499 85.3906 67.0244 85.2448 67.251 85.1172C67.4801 84.987 67.79 84.9219 68.1807 84.9219C68.6859 84.9219 69.1312 85.0482 69.5166 85.3008C69.902 85.5534 70.2028 85.9115 70.4189 86.375C70.6351 86.8385 70.7432 87.3854 70.7432 88.0156C70.7432 88.651 70.6351 89.2018 70.4189 89.668C70.2028 90.1315 69.9033 90.4909 69.5205 90.7461C69.1377 90.9987 68.6963 91.125 68.1963 91.125C67.8109 91.125 67.5023 91.0612 67.2705 90.9336C67.0387 90.8034 66.8604 90.6562 66.7354 90.4922C66.6104 90.3255 66.514 90.1875 66.4463 90.0781H66.3369V91H65.4463ZM66.3525 88C66.3525 88.4531 66.4189 88.8529 66.5518 89.1992C66.6846 89.543 66.8786 89.8125 67.1338 90.0078C67.389 90.2005 67.7015 90.2969 68.0713 90.2969C68.4567 90.2969 68.7783 90.1953 69.0361 89.9922C69.2965 89.7865 69.4919 89.5104 69.6221 89.1641C69.7549 88.8151 69.8213 88.4271 69.8213 88C69.8213 87.5781 69.7562 87.1979 69.626 86.8594C69.4984 86.5182 69.3044 86.2487 69.0439 86.0508C68.7861 85.8503 68.4619 85.75 68.0713 85.75C67.6963 85.75 67.3812 85.8451 67.126 86.0352C66.8708 86.2227 66.6781 86.4857 66.5479 86.8242C66.4176 87.1602 66.3525 87.5521 66.3525 88ZM72.1533 91V85H73.0752V91H72.1533ZM72.6221 84C72.4424 84 72.2874 83.9388 72.1572 83.8164C72.0296 83.694 71.9658 83.5469 71.9658 83.375C71.9658 83.2031 72.0296 83.056 72.1572 82.9336C72.2874 82.8112 72.4424 82.75 72.6221 82.75C72.8018 82.75 72.9554 82.8112 73.083 82.9336C73.2132 83.056 73.2783 83.2031 73.2783 83.375C73.2783 83.5469 73.2132 83.694 73.083 83.8164C72.9554 83.9388 72.8018 84 72.6221 84ZM77.2012 91.125C76.6595 91.125 76.1842 90.9961 75.7754 90.7383C75.3691 90.4805 75.0514 90.1198 74.8223 89.6562C74.5957 89.1927 74.4824 88.651 74.4824 88.0312C74.4824 87.4062 74.5957 86.8607 74.8223 86.3945C75.0514 85.9284 75.3691 85.5664 75.7754 85.3086C76.1842 85.0508 76.6595 84.9219 77.2012 84.9219C77.7428 84.9219 78.2168 85.0508 78.623 85.3086C79.0319 85.5664 79.3496 85.9284 79.5762 86.3945C79.8053 86.8607 79.9199 87.4062 79.9199 88.0312C79.9199 88.651 79.8053 89.1927 79.5762 89.6562C79.3496 90.1198 79.0319 90.4805 78.623 90.7383C78.2168 90.9961 77.7428 91.125 77.2012 91.125ZM77.2012 90.2969C77.6126 90.2969 77.9512 90.1914 78.2168 89.9805C78.4824 89.7695 78.679 89.4922 78.8066 89.1484C78.9342 88.8047 78.998 88.4323 78.998 88.0312C78.998 87.6302 78.9342 87.2565 78.8066 86.9102C78.679 86.5638 78.4824 86.2839 78.2168 86.0703C77.9512 85.8568 77.6126 85.75 77.2012 85.75C76.7897 85.75 76.4512 85.8568 76.1855 86.0703C75.9199 86.2839 75.7233 86.5638 75.5957 86.9102C75.4681 87.2565 75.4043 87.6302 75.4043 88.0312C75.4043 88.4323 75.4681 88.8047 75.5957 89.1484C75.7233 89.4922 75.9199 89.7695 76.1855 89.9805C76.4512 90.1914 76.7897 90.2969 77.2012 90.2969ZM85.5771 86.3437L84.749 86.5781C84.6969 86.4401 84.6201 86.306 84.5186 86.1758C84.4196 86.043 84.2842 85.9336 84.1123 85.8477C83.9404 85.7617 83.7204 85.7187 83.4521 85.7187C83.085 85.7187 82.779 85.8034 82.5342 85.9727C82.292 86.1393 82.1709 86.3516 82.1709 86.6094C82.1709 86.8385 82.2542 87.0195 82.4209 87.1523C82.5876 87.2852 82.848 87.3958 83.2021 87.4844L84.0928 87.7031C84.6292 87.8333 85.029 88.0326 85.292 88.3008C85.555 88.5664 85.6865 88.9089 85.6865 89.3281C85.6865 89.6719 85.5876 89.9792 85.3896 90.25C85.1943 90.5208 84.9209 90.7344 84.5693 90.8906C84.2178 91.0469 83.8089 91.125 83.3428 91.125C82.7308 91.125 82.2243 90.9922 81.8232 90.7266C81.4222 90.4609 81.1683 90.0729 81.0615 89.5625L81.9365 89.3437C82.0199 89.6667 82.1774 89.9089 82.4092 90.0703C82.6436 90.2318 82.9495 90.3125 83.3271 90.3125C83.7568 90.3125 84.098 90.2214 84.3506 90.0391C84.6058 89.8542 84.7334 89.6328 84.7334 89.375C84.7334 89.1667 84.6605 88.9922 84.5146 88.8516C84.3688 88.7083 84.1449 88.6016 83.8428 88.5312L82.8428 88.2969C82.2933 88.1667 81.8896 87.9648 81.6318 87.6914C81.3766 87.4154 81.249 87.0703 81.249 86.6562C81.249 86.3177 81.3441 86.0182 81.5342 85.7578C81.7269 85.4974 81.9886 85.293 82.3193 85.1445C82.6527 84.9961 83.0303 84.9219 83.4521 84.9219C84.0459 84.9219 84.512 85.0521 84.8506 85.3125C85.1917 85.5729 85.4339 85.9167 85.5771 86.3437ZM87.0742 91V85H87.9961V91H87.0742ZM87.543 84C87.3633 84 87.2083 83.9388 87.0781 83.8164C86.9505 83.694 86.8867 83.5469 86.8867 83.375C86.8867 83.2031 86.9505 83.056 87.0781 82.9336C87.2083 82.8112 87.3633 82.75 87.543 82.75C87.7227 82.75 87.8763 82.8112 88.0039 82.9336C88.1341 83.056 88.1992 83.2031 88.1992 83.375C88.1992 83.5469 88.1341 83.694 88.0039 83.8164C87.8763 83.9388 87.7227 84 87.543 84ZM93.9346 86.3437L93.1064 86.5781C93.0544 86.4401 92.9775 86.306 92.876 86.1758C92.777 86.043 92.6416 85.9336 92.4697 85.8477C92.2979 85.7617 92.0778 85.7187 91.8096 85.7187C91.4424 85.7187 91.1364 85.8034 90.8916 85.9727C90.6494 86.1393 90.5283 86.3516 90.5283 86.6094C90.5283 86.8385 90.6117 87.0195 90.7783 87.1523C90.945 87.2852 91.2054 87.3958 91.5596 87.4844L92.4502 87.7031C92.9867 87.8333 93.3864 88.0326 93.6494 88.3008C93.9124 88.5664 94.0439 88.9089 94.0439 89.3281C94.0439 89.6719 93.945 89.9792 93.7471 90.25C93.5518 90.5208 93.2783 90.7344 92.9268 90.8906C92.5752 91.0469 92.1663 91.125 91.7002 91.125C91.0882 91.125 90.5817 90.9922 90.1807 90.7266C89.7796 90.4609 89.5257 90.0729 89.4189 89.5625L90.2939 89.3437C90.3773 89.6667 90.5348 89.9089 90.7666 90.0703C91.001 90.2318 91.307 90.3125 91.6846 90.3125C92.1143 90.3125 92.4554 90.2214 92.708 90.0391C92.9632 89.8542 93.0908 89.6328 93.0908 89.375C93.0908 89.1667 93.0179 88.9922 92.8721 88.8516C92.7262 88.7083 92.5023 88.6016 92.2002 88.5312L91.2002 88.2969C90.6507 88.1667 90.2471 87.9648 89.9893 87.6914C89.734 87.4154 89.6064 87.0703 89.6064 86.6562C89.6064 86.3177 89.7015 86.0182 89.8916 85.7578C90.0843 85.4974 90.346 85.293 90.6768 85.1445C91.0101 84.9961 91.3877 84.9219 91.8096 84.9219C92.4033 84.9219 92.8695 85.0521 93.208 85.3125C93.5492 85.5729 93.7913 85.9167 93.9346 86.3437ZM99.6191 83V91H98.6504V83H99.6191ZM102.358 87.3906V91H101.437V85H102.327V85.9375H102.405C102.546 85.6328 102.759 85.388 103.046 85.2031C103.332 85.0156 103.702 84.9219 104.155 84.9219C104.562 84.9219 104.917 85.0052 105.222 85.1719C105.526 85.3359 105.763 85.5859 105.933 85.9219C106.102 86.2552 106.187 86.6771 106.187 87.1875V91H105.265V87.25C105.265 86.7786 105.142 86.4115 104.897 86.1484C104.653 85.8828 104.317 85.75 103.89 85.75C103.595 85.75 103.332 85.8138 103.101 85.9414C102.871 86.069 102.69 86.2552 102.558 86.5C102.425 86.7448 102.358 87.0417 102.358 87.3906ZM112.121 86.3437L111.293 86.5781C111.241 86.4401 111.164 86.306 111.063 86.1758C110.964 86.043 110.828 85.9336 110.656 85.8477C110.484 85.7617 110.264 85.7187 109.996 85.7187C109.629 85.7187 109.323 85.8034 109.078 85.9727C108.836 86.1393 108.715 86.3516 108.715 86.6094C108.715 86.8385 108.798 87.0195 108.965 87.1523C109.132 87.2852 109.392 87.3958 109.746 87.4844L110.637 87.7031C111.173 87.8333 111.573 88.0326 111.836 88.3008C112.099 88.5664 112.23 88.9089 112.23 89.3281C112.23 89.6719 112.132 89.9792 111.934 90.25C111.738 90.5208 111.465 90.7344 111.113 90.8906C110.762 91.0469 110.353 91.125 109.887 91.125C109.275 91.125 108.768 90.9922 108.367 90.7266C107.966 90.4609 107.712 90.0729 107.605 89.5625L108.48 89.3437C108.564 89.6667 108.721 89.9089 108.953 90.0703C109.188 90.2318 109.493 90.3125 109.871 90.3125C110.301 90.3125 110.642 90.2214 110.895 90.0391C111.15 89.8542 111.277 89.6328 111.277 89.375C111.277 89.1667 111.204 88.9922 111.059 88.8516C110.913 88.7083 110.689 88.6016 110.387 88.5312L109.387 88.2969C108.837 88.1667 108.434 87.9648 108.176 87.6914C107.921 87.4154 107.793 87.0703 107.793 86.6562C107.793 86.3177 107.888 86.0182 108.078 85.7578C108.271 85.4974 108.533 85.293 108.863 85.1445C109.197 84.9961 109.574 84.9219 109.996 84.9219C110.59 84.9219 111.056 85.0521 111.395 85.3125C111.736 85.5729 111.978 85.9167 112.121 86.3437ZM116.228 85V85.7812H113.118V85H116.228ZM114.024 83.5625H114.946V89.2812C114.946 89.5417 114.984 89.737 115.06 89.8672C115.138 89.9948 115.237 90.0807 115.356 90.125C115.479 90.1667 115.608 90.1875 115.743 90.1875C115.845 90.1875 115.928 90.1823 115.993 90.1719C116.058 90.1589 116.11 90.1484 116.149 90.1406L116.337 90.9687C116.274 90.9922 116.187 91.0156 116.075 91.0391C115.963 91.0651 115.821 91.0781 115.649 91.0781C115.389 91.0781 115.134 91.0221 114.884 90.9102C114.636 90.7982 114.431 90.6276 114.267 90.3984C114.105 90.1693 114.024 89.8802 114.024 89.5312V83.5625ZM117.614 91V85H118.536V91H117.614ZM118.083 84C117.903 84 117.748 83.9388 117.618 83.8164C117.491 83.694 117.427 83.5469 117.427 83.375C117.427 83.2031 117.491 83.056 117.618 82.9336C117.748 82.8112 117.903 82.75 118.083 82.75C118.263 82.75 118.416 82.8112 118.544 82.9336C118.674 83.056 118.739 83.2031 118.739 83.375C118.739 83.5469 118.674 83.694 118.544 83.8164C118.416 83.9388 118.263 84 118.083 84ZM122.834 85V85.7812H119.725V85H122.834ZM120.631 83.5625H121.553V89.2812C121.553 89.5417 121.59 89.737 121.666 89.8672C121.744 89.9948 121.843 90.0807 121.963 90.125C122.085 90.1667 122.214 90.1875 122.35 90.1875C122.451 90.1875 122.535 90.1823 122.6 90.1719C122.665 90.1589 122.717 90.1484 122.756 90.1406L122.943 90.9687C122.881 90.9922 122.794 91.0156 122.682 91.0391C122.57 91.0651 122.428 91.0781 122.256 91.0781C121.995 91.0781 121.74 91.0221 121.49 90.9102C121.243 90.7982 121.037 90.6276 120.873 90.3984C120.712 90.1693 120.631 89.8802 120.631 89.5312V83.5625ZM128.002 88.5469V85H128.924V91H128.002V89.9844H127.939C127.799 90.2891 127.58 90.5482 127.283 90.7617C126.986 90.9727 126.611 91.0781 126.158 91.0781C125.783 91.0781 125.45 90.9961 125.158 90.832C124.867 90.6654 124.637 90.4154 124.471 90.082C124.304 89.7461 124.221 89.3229 124.221 88.8125V85H125.143V88.75C125.143 89.1875 125.265 89.5365 125.51 89.7969C125.757 90.0573 126.072 90.1875 126.455 90.1875C126.684 90.1875 126.917 90.1289 127.154 90.0117C127.394 89.8945 127.594 89.7148 127.756 89.4727C127.92 89.2305 128.002 88.9219 128.002 88.5469ZM133.222 85V85.7812H130.112V85H133.222ZM131.019 83.5625H131.94V89.2812C131.94 89.5417 131.978 89.737 132.054 89.8672C132.132 89.9948 132.231 90.0807 132.351 90.125C132.473 90.1667 132.602 90.1875 132.737 90.1875C132.839 90.1875 132.922 90.1823 132.987 90.1719C133.052 90.1589 133.104 90.1484 133.144 90.1406L133.331 90.9687C133.269 90.9922 133.181 91.0156 133.069 91.0391C132.957 91.0651 132.815 91.0781 132.644 91.0781C132.383 91.0781 132.128 91.0221 131.878 90.9102C131.631 90.7982 131.425 90.6276 131.261 90.3984C131.099 90.1693 131.019 89.8802 131.019 89.5312V83.5625ZM137.06 91.125C136.481 91.125 135.983 90.9974 135.563 90.7422C135.147 90.4844 134.825 90.125 134.599 89.6641C134.375 89.2005 134.263 88.6615 134.263 88.0469C134.263 87.4323 134.375 86.8906 134.599 86.4219C134.825 85.9505 135.14 85.5833 135.544 85.3203C135.95 85.0547 136.424 84.9219 136.966 84.9219C137.278 84.9219 137.587 84.974 137.892 85.0781C138.196 85.1823 138.474 85.3516 138.724 85.5859C138.974 85.8177 139.173 86.125 139.321 86.5078C139.47 86.8906 139.544 87.362 139.544 87.9219V88.3125H134.919V87.5156H138.606C138.606 87.1771 138.539 86.875 138.403 86.6094C138.271 86.3437 138.08 86.1341 137.833 85.9805C137.588 85.8268 137.299 85.75 136.966 85.75C136.599 85.75 136.281 85.8411 136.013 86.0234C135.747 86.2031 135.543 86.4375 135.399 86.7266C135.256 87.0156 135.185 87.3255 135.185 87.6562V88.1875C135.185 88.6406 135.263 89.0247 135.419 89.3398C135.578 89.6523 135.798 89.8906 136.079 90.0547C136.36 90.2161 136.687 90.2969 137.06 90.2969C137.302 90.2969 137.521 90.263 137.716 90.1953C137.914 90.125 138.084 90.0208 138.228 89.8828C138.371 89.7422 138.481 89.5677 138.56 89.3594L139.45 89.6094C139.356 89.9115 139.199 90.1771 138.978 90.4062C138.756 90.6328 138.483 90.8099 138.157 90.9375C137.832 91.0625 137.466 91.125 137.06 91.125ZM146.478 91.125C145.936 91.125 145.461 90.9961 145.052 90.7383C144.646 90.4805 144.328 90.1198 144.099 89.6562C143.872 89.1927 143.759 88.651 143.759 88.0312C143.759 87.4062 143.872 86.8607 144.099 86.3945C144.328 85.9284 144.646 85.5664 145.052 85.3086C145.461 85.0508 145.936 84.9219 146.478 84.9219C147.019 84.9219 147.493 85.0508 147.899 85.3086C148.308 85.5664 148.626 85.9284 148.853 86.3945C149.082 86.8607 149.196 87.4062 149.196 88.0312C149.196 88.651 149.082 89.1927 148.853 89.6562C148.626 90.1198 148.308 90.4805 147.899 90.7383C147.493 90.9961 147.019 91.125 146.478 91.125ZM146.478 90.2969C146.889 90.2969 147.228 90.1914 147.493 89.9805C147.759 89.7695 147.955 89.4922 148.083 89.1484C148.211 88.8047 148.274 88.4323 148.274 88.0312C148.274 87.6302 148.211 87.2565 148.083 86.9102C147.955 86.5638 147.759 86.2839 147.493 86.0703C147.228 85.8568 146.889 85.75 146.478 85.75C146.066 85.75 145.728 85.8568 145.462 86.0703C145.196 86.2839 145 86.5638 144.872 86.9102C144.744 87.2565 144.681 87.6302 144.681 88.0312C144.681 88.4323 144.744 88.8047 144.872 89.1484C145 89.4922 145.196 89.7695 145.462 89.9805C145.728 90.1914 146.066 90.2969 146.478 90.2969ZM153.275 85V85.7812H150.041V85H153.275ZM151.01 91V84.1719C151.01 83.8281 151.09 83.5417 151.252 83.3125C151.413 83.0833 151.623 82.9115 151.881 82.7969C152.139 82.6823 152.411 82.625 152.697 82.625C152.924 82.625 153.109 82.6432 153.252 82.6797C153.395 82.7161 153.502 82.75 153.572 82.7812L153.307 83.5781C153.26 83.5625 153.195 83.543 153.111 83.5195C153.031 83.4961 152.924 83.4844 152.791 83.4844C152.486 83.4844 152.266 83.5612 152.131 83.7148C151.998 83.8685 151.932 84.0937 151.932 84.3906V91H151.01ZM157.349 83.8594V83H163.349V83.8594H160.833V91H159.864V83.8594H157.349ZM166.364 91.125C165.786 91.125 165.287 90.9974 164.868 90.7422C164.451 90.4844 164.13 90.125 163.903 89.6641C163.679 89.2005 163.567 88.6615 163.567 88.0469C163.567 87.4323 163.679 86.8906 163.903 86.4219C164.13 85.9505 164.445 85.5833 164.849 85.3203C165.255 85.0547 165.729 84.9219 166.271 84.9219C166.583 84.9219 166.892 84.974 167.196 85.0781C167.501 85.1823 167.778 85.3516 168.028 85.5859C168.278 85.8177 168.478 86.125 168.626 86.5078C168.774 86.8906 168.849 87.362 168.849 87.9219V88.3125H164.224V87.5156H167.911C167.911 87.1771 167.843 86.875 167.708 86.6094C167.575 86.3437 167.385 86.1341 167.138 85.9805C166.893 85.8268 166.604 85.75 166.271 85.75C165.903 85.75 165.586 85.8411 165.317 86.0234C165.052 86.2031 164.847 86.4375 164.704 86.7266C164.561 87.0156 164.489 87.3255 164.489 87.6562V88.1875C164.489 88.6406 164.567 89.0247 164.724 89.3398C164.882 89.6523 165.103 89.8906 165.384 90.0547C165.665 90.2161 165.992 90.2969 166.364 90.2969C166.606 90.2969 166.825 90.263 167.021 90.1953C167.218 90.125 167.389 90.0208 167.532 89.8828C167.675 89.7422 167.786 89.5677 167.864 89.3594L168.755 89.6094C168.661 89.9115 168.504 90.1771 168.282 90.4062C168.061 90.6328 167.787 90.8099 167.462 90.9375C167.136 91.0625 166.771 91.125 166.364 91.125ZM172.688 91.125C172.126 91.125 171.642 90.9922 171.235 90.7266C170.829 90.4609 170.517 90.0951 170.298 89.6289C170.079 89.1628 169.97 88.6302 169.97 88.0312C169.97 87.4219 170.082 86.8841 170.306 86.418C170.532 85.9492 170.847 85.5833 171.251 85.3203C171.657 85.0547 172.131 84.9219 172.673 84.9219C173.095 84.9219 173.475 85 173.813 85.1562C174.152 85.3125 174.429 85.5312 174.646 85.8125C174.862 86.0937 174.996 86.4219 175.048 86.7969H174.126C174.056 86.5234 173.899 86.2812 173.657 86.0703C173.418 85.8568 173.095 85.75 172.688 85.75C172.329 85.75 172.014 85.8437 171.743 86.0312C171.475 86.2161 171.265 86.4779 171.114 86.8164C170.966 87.1523 170.892 87.5469 170.892 88C170.892 88.4635 170.965 88.8672 171.11 89.2109C171.259 89.5547 171.467 89.8216 171.735 90.0117C172.006 90.2018 172.324 90.2969 172.688 90.2969C172.928 90.2969 173.146 90.2552 173.341 90.1719C173.536 90.0885 173.701 89.9688 173.837 89.8125C173.972 89.6562 174.069 89.4687 174.126 89.25H175.048C174.996 89.6042 174.867 89.9232 174.661 90.207C174.458 90.4883 174.188 90.7122 173.853 90.8789C173.519 91.043 173.131 91.125 172.688 91.125ZM177.317 87.3906V91H176.396V83H177.317V85.9375H177.396C177.536 85.6276 177.747 85.3815 178.028 85.1992C178.312 85.0143 178.69 84.9219 179.161 84.9219C179.57 84.9219 179.928 85.0039 180.235 85.168C180.543 85.3294 180.781 85.5781 180.95 85.9141C181.122 86.2474 181.208 86.6719 181.208 87.1875V91H180.286V87.25C180.286 86.7734 180.162 86.4049 179.915 86.1445C179.67 85.8815 179.33 85.75 178.896 85.75C178.593 85.75 178.323 85.8138 178.083 85.9414C177.846 86.069 177.659 86.2552 177.521 86.5C177.385 86.7448 177.317 87.0417 177.317 87.3906ZM183.816 87.3906V91H182.895V85H183.785V85.9375H183.863C184.004 85.6328 184.217 85.388 184.504 85.2031C184.79 85.0156 185.16 84.9219 185.613 84.9219C186.02 84.9219 186.375 85.0052 186.68 85.1719C186.984 85.3359 187.221 85.5859 187.391 85.9219C187.56 86.2552 187.645 86.6771 187.645 87.1875V91H186.723V87.25C186.723 86.7786 186.6 86.4115 186.355 86.1484C186.111 85.8828 185.775 85.75 185.348 85.75C185.053 85.75 184.79 85.8138 184.559 85.9414C184.329 86.069 184.148 86.2552 184.016 86.5C183.883 86.7448 183.816 87.0417 183.816 87.3906ZM191.767 91.125C191.225 91.125 190.75 90.9961 190.341 90.7383C189.935 90.4805 189.617 90.1198 189.388 89.6562C189.161 89.1927 189.048 88.651 189.048 88.0312C189.048 87.4062 189.161 86.8607 189.388 86.3945C189.617 85.9284 189.935 85.5664 190.341 85.3086C190.75 85.0508 191.225 84.9219 191.767 84.9219C192.308 84.9219 192.782 85.0508 193.188 85.3086C193.597 85.5664 193.915 85.9284 194.142 86.3945C194.371 86.8607 194.485 87.4062 194.485 88.0312C194.485 88.651 194.371 89.1927 194.142 89.6562C193.915 90.1198 193.597 90.4805 193.188 90.7383C192.782 90.9961 192.308 91.125 191.767 91.125ZM191.767 90.2969C192.178 90.2969 192.517 90.1914 192.782 89.9805C193.048 89.7695 193.244 89.4922 193.372 89.1484C193.5 88.8047 193.563 88.4323 193.563 88.0312C193.563 87.6302 193.5 87.2565 193.372 86.9102C193.244 86.5638 193.048 86.2839 192.782 86.0703C192.517 85.8568 192.178 85.75 191.767 85.75C191.355 85.75 191.017 85.8568 190.751 86.0703C190.485 86.2839 190.289 86.5638 190.161 86.9102C190.034 87.2565 189.97 87.6302 189.97 88.0312C189.97 88.4323 190.034 88.8047 190.161 89.1484C190.289 89.4922 190.485 89.7695 190.751 89.9805C191.017 90.1914 191.355 90.2969 191.767 90.2969ZM196.814 83V91H195.893V83H196.814ZM200.94 91.125C200.399 91.125 199.924 90.9961 199.515 90.7383C199.108 90.4805 198.791 90.1198 198.562 89.6562C198.335 89.1927 198.222 88.651 198.222 88.0312C198.222 87.4062 198.335 86.8607 198.562 86.3945C198.791 85.9284 199.108 85.5664 199.515 85.3086C199.924 85.0508 200.399 84.9219 200.94 84.9219C201.482 84.9219 201.956 85.0508 202.362 85.3086C202.771 85.5664 203.089 85.9284 203.315 86.3945C203.545 86.8607 203.659 87.4062 203.659 88.0312C203.659 88.651 203.545 89.1927 203.315 89.6562C203.089 90.1198 202.771 90.4805 202.362 90.7383C201.956 90.9961 201.482 91.125 200.94 91.125ZM200.94 90.2969C201.352 90.2969 201.69 90.1914 201.956 89.9805C202.222 89.7695 202.418 89.4922 202.546 89.1484C202.674 88.8047 202.737 88.4323 202.737 88.0312C202.737 87.6302 202.674 87.2565 202.546 86.9102C202.418 86.5638 202.222 86.2839 201.956 86.0703C201.69 85.8568 201.352 85.75 200.94 85.75C200.529 85.75 200.19 85.8568 199.925 86.0703C199.659 86.2839 199.463 86.5638 199.335 86.9102C199.207 87.2565 199.144 87.6302 199.144 88.0312C199.144 88.4323 199.207 88.8047 199.335 89.1484C199.463 89.4922 199.659 89.7695 199.925 89.9805C200.19 90.1914 200.529 90.2969 200.94 90.2969ZM207.488 93.375C207.043 93.375 206.66 93.3177 206.34 93.2031C206.02 93.0911 205.753 92.9427 205.539 92.7578C205.328 92.5755 205.16 92.3802 205.035 92.1719L205.77 91.6563C205.853 91.7656 205.958 91.8906 206.086 92.0312C206.214 92.1745 206.388 92.2982 206.609 92.4023C206.833 92.5091 207.126 92.5625 207.488 92.5625C207.973 92.5625 208.372 92.4453 208.688 92.2109C209.003 91.9766 209.16 91.6094 209.16 91.1094V89.8906H209.082C209.014 90 208.918 90.1354 208.793 90.2969C208.671 90.4557 208.493 90.5977 208.262 90.7227C208.033 90.8451 207.723 90.9062 207.332 90.9062C206.848 90.9062 206.413 90.7917 206.027 90.5625C205.645 90.3333 205.341 90 205.117 89.5625C204.896 89.125 204.785 88.5937 204.785 87.9687C204.785 87.3542 204.893 86.819 205.109 86.3633C205.326 85.9049 205.626 85.5508 206.012 85.3008C206.397 85.0482 206.842 84.9219 207.348 84.9219C207.738 84.9219 208.048 84.987 208.277 85.1172C208.509 85.2448 208.686 85.3906 208.809 85.5547C208.934 85.7161 209.03 85.849 209.098 85.9531H209.191V85H210.082V91.1719C210.082 91.6875 209.965 92.1068 209.73 92.4297C209.499 92.7552 209.186 92.9935 208.793 93.1445C208.402 93.2982 207.967 93.375 207.488 93.375ZM207.457 90.0781C207.827 90.0781 208.139 89.9935 208.395 89.8242C208.65 89.6549 208.844 89.4115 208.977 89.0938C209.109 88.776 209.176 88.3958 209.176 87.9531C209.176 87.5208 209.111 87.1393 208.98 86.8086C208.85 86.4779 208.658 86.2187 208.402 86.0312C208.147 85.8437 207.832 85.75 207.457 85.75C207.066 85.75 206.741 85.849 206.48 86.0469C206.223 86.2448 206.029 86.5104 205.898 86.8438C205.771 87.1771 205.707 87.5469 205.707 87.9531C205.707 88.3698 205.772 88.7383 205.902 89.0586C206.035 89.3763 206.23 89.6263 206.488 89.8086C206.749 89.9883 207.072 90.0781 207.457 90.0781ZM212.363 93.25C212.207 93.25 212.068 93.237 211.945 93.2109C211.823 93.1875 211.738 93.1641 211.691 93.1406L211.926 92.3281C212.15 92.3854 212.348 92.4063 212.52 92.3906C212.691 92.375 212.844 92.2982 212.977 92.1602C213.112 92.0247 213.236 91.8047 213.348 91.5L213.52 91.0313L211.301 85H212.301L213.957 89.7812H214.02L215.676 85H216.676L214.129 91.875C214.014 92.1849 213.872 92.4414 213.703 92.6445C213.534 92.8503 213.337 93.0026 213.113 93.1016C212.892 93.2005 212.642 93.25 212.363 93.25ZM218.892 89.9062L218.829 90.3281C218.785 90.625 218.717 90.9427 218.626 91.2813C218.537 91.6198 218.445 91.9388 218.349 92.2383C218.252 92.5378 218.173 92.776 218.11 92.9531H217.407C217.441 92.7865 217.485 92.5664 217.54 92.293C217.595 92.0195 217.649 91.7135 217.704 91.375C217.761 91.0391 217.808 90.6953 217.845 90.3437L217.892 89.9062H218.892ZM230.162 83V91H229.225L224.865 84.7187H224.787V91H223.818V83H224.756L229.131 89.2969H229.209V83H230.162ZM233.741 91.1406C233.361 91.1406 233.016 91.069 232.706 90.9258C232.396 90.7799 232.15 90.5703 231.968 90.2969C231.785 90.0208 231.694 89.6875 231.694 89.2969C231.694 88.9531 231.762 88.6745 231.897 88.4609C232.033 88.2448 232.214 88.0755 232.44 87.9531C232.667 87.8307 232.917 87.7396 233.19 87.6797C233.466 87.6172 233.744 87.5677 234.022 87.5313C234.387 87.4844 234.683 87.4492 234.909 87.4258C235.138 87.3997 235.305 87.3568 235.409 87.2969C235.516 87.237 235.569 87.1328 235.569 86.9844V86.9531C235.569 86.5677 235.464 86.2682 235.253 86.0547C235.045 85.8411 234.728 85.7344 234.304 85.7344C233.864 85.7344 233.519 85.8307 233.269 86.0234C233.019 86.2161 232.843 86.4219 232.741 86.6406L231.866 86.3281C232.022 85.9635 232.231 85.6797 232.491 85.4766C232.754 85.2708 233.041 85.1276 233.351 85.0469C233.663 84.9635 233.97 84.9219 234.272 84.9219C234.465 84.9219 234.687 84.9453 234.937 84.9922C235.189 85.0365 235.433 85.1289 235.667 85.2695C235.904 85.4102 236.101 85.6224 236.257 85.9062C236.413 86.1901 236.491 86.5703 236.491 87.0469V91H235.569V90.1875H235.522C235.46 90.3177 235.356 90.457 235.21 90.6055C235.064 90.7539 234.87 90.8802 234.628 90.9844C234.386 91.0885 234.09 91.1406 233.741 91.1406ZM233.882 90.3125C234.246 90.3125 234.554 90.2409 234.804 90.0977C235.056 89.9544 235.246 89.7695 235.374 89.543C235.504 89.3164 235.569 89.0781 235.569 88.8281V87.9844C235.53 88.0312 235.444 88.0742 235.312 88.1133C235.181 88.1497 235.03 88.1823 234.858 88.2109C234.689 88.237 234.524 88.2604 234.362 88.2812C234.203 88.2995 234.075 88.3151 233.976 88.3281C233.736 88.3594 233.512 88.4102 233.304 88.4805C233.098 88.5482 232.931 88.651 232.804 88.7891C232.679 88.9245 232.616 89.1094 232.616 89.3437C232.616 89.6641 232.735 89.9062 232.972 90.0703C233.211 90.2318 233.515 90.3125 233.882 90.3125ZM240.596 93.375C240.15 93.375 239.768 93.3177 239.447 93.2031C239.127 93.0911 238.86 92.9427 238.646 92.7578C238.436 92.5755 238.268 92.3802 238.143 92.1719L238.877 91.6563C238.96 91.7656 239.066 91.8906 239.193 92.0312C239.321 92.1745 239.495 92.2982 239.717 92.4023C239.941 92.5091 240.234 92.5625 240.596 92.5625C241.08 92.5625 241.48 92.4453 241.795 92.2109C242.11 91.9766 242.268 91.6094 242.268 91.1094V89.8906H242.189C242.122 90 242.025 90.1354 241.9 90.2969C241.778 90.4557 241.601 90.5977 241.369 90.7227C241.14 90.8451 240.83 90.9062 240.439 90.9062C239.955 90.9062 239.52 90.7917 239.135 90.5625C238.752 90.3333 238.449 90 238.225 89.5625C238.003 89.125 237.893 88.5937 237.893 87.9687C237.893 87.3542 238.001 86.819 238.217 86.3633C238.433 85.9049 238.734 85.5508 239.119 85.3008C239.505 85.0482 239.95 84.9219 240.455 84.9219C240.846 84.9219 241.156 84.987 241.385 85.1172C241.617 85.2448 241.794 85.3906 241.916 85.5547C242.041 85.7161 242.137 85.849 242.205 85.9531H242.299V85H243.189V91.1719C243.189 91.6875 243.072 92.1068 242.838 92.4297C242.606 92.7552 242.294 92.9935 241.9 93.1445C241.51 93.2982 241.075 93.375 240.596 93.375ZM240.564 90.0781C240.934 90.0781 241.247 89.9935 241.502 89.8242C241.757 89.6549 241.951 89.4115 242.084 89.0938C242.217 88.776 242.283 88.3958 242.283 87.9531C242.283 87.5208 242.218 87.1393 242.088 86.8086C241.958 86.4779 241.765 86.2187 241.51 86.0312C241.255 85.8437 240.939 85.75 240.564 85.75C240.174 85.75 239.848 85.849 239.588 86.0469C239.33 86.2448 239.136 86.5104 239.006 86.8438C238.878 87.1771 238.814 87.5469 238.814 87.9531C238.814 88.3698 238.88 88.7383 239.01 89.0586C239.143 89.3763 239.338 89.6263 239.596 89.8086C239.856 89.9883 240.179 90.0781 240.564 90.0781ZM244.877 93.25V85H245.768V85.9531H245.877C245.945 85.849 246.038 85.7161 246.158 85.5547C246.281 85.3906 246.455 85.2448 246.682 85.1172C246.911 84.987 247.221 84.9219 247.611 84.9219C248.117 84.9219 248.562 85.0482 248.947 85.3008C249.333 85.5534 249.633 85.9115 249.85 86.375C250.066 86.8385 250.174 87.3854 250.174 88.0156C250.174 88.651 250.066 89.2018 249.85 89.668C249.633 90.1315 249.334 90.4909 248.951 90.7461C248.568 90.9987 248.127 91.125 247.627 91.125C247.242 91.125 246.933 91.0612 246.701 90.9336C246.469 90.8034 246.291 90.6562 246.166 90.4922C246.041 90.3255 245.945 90.1875 245.877 90.0781H245.799V93.25H244.877ZM245.783 88C245.783 88.4531 245.85 88.8529 245.982 89.1992C246.115 89.543 246.309 89.8125 246.564 90.0078C246.82 90.2005 247.132 90.2969 247.502 90.2969C247.887 90.2969 248.209 90.1953 248.467 89.9922C248.727 89.7865 248.923 89.5104 249.053 89.1641C249.186 88.8151 249.252 88.4271 249.252 88C249.252 87.5781 249.187 87.1979 249.057 86.8594C248.929 86.5182 248.735 86.2487 248.475 86.0508C248.217 85.8503 247.893 85.75 247.502 85.75C247.127 85.75 246.812 85.8451 246.557 86.0352C246.301 86.2227 246.109 86.4857 245.979 86.8242C245.848 87.1602 245.783 87.5521 245.783 88ZM255.361 88.5469V85H256.283V91H255.361V89.9844H255.299C255.158 90.2891 254.939 90.5482 254.643 90.7617C254.346 90.9727 253.971 91.0781 253.518 91.0781C253.143 91.0781 252.809 90.9961 252.518 90.832C252.226 90.6654 251.997 90.4154 251.83 90.082C251.663 89.7461 251.58 89.3229 251.58 88.8125V85H252.502V88.75C252.502 89.1875 252.624 89.5365 252.869 89.7969C253.117 90.0573 253.432 90.1875 253.814 90.1875C254.044 90.1875 254.277 90.1289 254.514 90.0117C254.753 89.8945 254.954 89.7148 255.115 89.4727C255.279 89.2305 255.361 88.9219 255.361 88.5469ZM257.972 91V85H258.862V85.9062H258.925C259.034 85.6094 259.232 85.3685 259.519 85.1836C259.805 84.9987 260.128 84.9062 260.487 84.9062C260.555 84.9062 260.64 84.9076 260.741 84.9102C260.843 84.9128 260.92 84.9167 260.972 84.9219V85.8594C260.94 85.8516 260.869 85.8398 260.757 85.8242C260.647 85.806 260.532 85.7969 260.409 85.7969C260.118 85.7969 259.857 85.8581 259.628 85.9805C259.401 86.1003 259.222 86.2669 259.089 86.4805C258.959 86.6914 258.894 86.9323 258.894 87.2031V91H257.972Z" fill="white"/>
</svg>
