<svg width="304" height="120" viewBox="0 0 304 120" fill="none" xmlns="http://www.w3.org/2000/svg">
<rect width="304" height="120" rx="6" fill="#313235"/>
<path d="M23.0871 75.1405C21.9783 75.1405 20.9564 74.8742 20.0216 74.3415C19.0867 73.8089 18.342 73.0805 17.7876 72.1565C17.2441 71.2217 16.9723 70.1835 16.9723 69.0421C16.9723 67.9007 17.2441 66.8679 17.7876 65.9439C18.342 65.0091 19.0867 64.2753 20.0216 63.7426C20.9564 63.21 21.9783 62.9436 23.0871 62.9436C23.9676 62.9436 24.7884 63.1012 25.5493 63.4165C26.3102 63.7317 26.9462 64.172 27.4571 64.7373L26.1852 66.0092C25.8048 65.5852 25.3482 65.2591 24.8155 65.0308C24.2937 64.8025 23.7122 64.6884 23.0708 64.6884C22.3207 64.6884 21.6195 64.8677 20.9673 65.2265C20.3151 65.5852 19.7933 66.0961 19.4019 66.7592C19.0106 67.4223 18.8149 68.1833 18.8149 69.0421C18.8149 69.9009 19.0106 70.6618 19.4019 71.3249C19.7933 71.988 20.3151 72.499 20.9673 72.8577C21.6195 73.2164 22.3261 73.3958 23.0871 73.3958C23.7828 73.3958 24.3644 73.2925 24.8318 73.086C25.2993 72.8794 25.7178 72.6022 26.0874 72.2544C26.3266 72.0152 26.5277 71.7163 26.6907 71.3575C26.8647 70.9988 26.9788 70.6075 27.0332 70.1835H23.0708V68.5529H28.7616C28.8159 68.8573 28.8431 69.1725 28.8431 69.4986C28.8431 70.2379 28.729 70.9499 28.5007 71.6347C28.2724 72.3087 27.9082 72.8957 27.4082 73.3958C26.3102 74.559 24.8699 75.1405 23.0871 75.1405ZM34.4753 75.1405C33.6383 75.1405 32.8882 74.9503 32.2251 74.5698C31.562 74.1785 31.0456 73.6458 30.676 72.9718C30.3064 72.2979 30.1216 71.5478 30.1216 70.7216C30.1216 69.8954 30.3064 69.1454 30.676 68.4714C31.0456 67.7974 31.562 67.2702 32.2251 66.8897C32.8882 66.4983 33.6383 66.3027 34.4753 66.3027C35.3124 66.3027 36.0624 66.4983 36.7256 66.8897C37.3887 67.281 37.905 67.8137 38.2746 68.4877C38.6442 69.1617 38.829 69.9063 38.829 70.7216C38.829 71.5478 38.6442 72.2979 38.2746 72.9718C37.905 73.6458 37.3887 74.1785 36.7256 74.5698C36.0624 74.9503 35.3124 75.1405 34.4753 75.1405ZM34.4753 73.4936C34.9319 73.4936 35.3559 73.3849 35.7472 73.1675C36.1385 72.9392 36.4484 72.6185 36.6766 72.2054C36.9158 71.7815 37.0354 71.2869 37.0354 70.7216C37.0354 70.1563 36.9158 69.6671 36.6766 69.2541C36.4484 68.841 36.1385 68.5257 35.7472 68.3083C35.3559 68.08 34.9319 67.9659 34.4753 67.9659C34.0188 67.9659 33.5948 68.08 33.2035 68.3083C32.8121 68.5257 32.4969 68.841 32.2577 69.2541C32.0294 69.6671 31.9153 70.1563 31.9153 70.7216C31.9153 71.2869 32.0294 71.7815 32.2577 72.2054C32.4969 72.6185 32.8121 72.9392 33.2035 73.1675C33.5948 73.3849 34.0188 73.4936 34.4753 73.4936ZM44.38 75.1405C43.5429 75.1405 42.7928 74.9503 42.1297 74.5698C41.4666 74.1785 40.9503 73.6458 40.5807 72.9718C40.2111 72.2979 40.0263 71.5478 40.0263 70.7216C40.0263 69.8954 40.2111 69.1454 40.5807 68.4714C40.9503 67.7974 41.4666 67.2702 42.1297 66.8897C42.7928 66.4983 43.5429 66.3027 44.38 66.3027C45.217 66.3027 45.9671 66.4983 46.6302 66.8897C47.2933 67.281 47.8097 67.8137 48.1793 68.4877C48.5489 69.1617 48.7337 69.9063 48.7337 70.7216C48.7337 71.5478 48.5489 72.2979 48.1793 72.9718C47.8097 73.6458 47.2933 74.1785 46.6302 74.5698C45.9671 74.9503 45.217 75.1405 44.38 75.1405ZM44.38 73.4936C44.8365 73.4936 45.2605 73.3849 45.6518 73.1675C46.0432 72.9392 46.353 72.6185 46.5813 72.2054C46.8204 71.7815 46.94 71.2869 46.94 70.7216C46.94 70.1563 46.8204 69.6671 46.5813 69.2541C46.353 68.841 46.0432 68.5257 45.6518 68.3083C45.2605 68.08 44.8365 67.9659 44.38 67.9659C43.9234 67.9659 43.4994 68.08 43.1081 68.3083C42.7167 68.5257 42.4015 68.841 42.1623 69.2541C41.9341 69.6671 41.8199 70.1563 41.8199 70.7216C41.8199 71.2869 41.9341 71.7815 42.1623 72.2054C42.4015 72.6185 42.7167 72.9392 43.1081 73.1675C43.4994 73.3849 43.9234 73.4936 44.38 73.4936ZM54.1378 78.6626C53.116 78.6626 52.2681 78.4289 51.5941 77.9615C50.931 77.494 50.4853 76.9396 50.257 76.2983L51.9365 75.5971C52.1105 76.0319 52.3877 76.3798 52.7681 76.6407C53.1595 76.9125 53.6161 77.0483 54.1378 77.0483C54.8988 77.0483 55.4912 76.8201 55.9152 76.3635C56.35 75.9178 56.5674 75.2873 56.5674 74.472V73.7056H56.4696C56.1978 74.0969 55.8337 74.4068 55.3771 74.635C54.9314 74.8525 54.4151 74.9612 53.828 74.9612C53.1323 74.9612 52.4855 74.7818 51.8876 74.4231C51.2897 74.0643 50.8114 73.5589 50.4527 72.9066C50.1048 72.2435 49.9309 71.488 49.9309 70.6401C49.9309 69.7922 50.1048 69.0421 50.4527 68.3898C50.8114 67.7267 51.2897 67.2158 51.8876 66.8571C52.4855 66.4875 53.1323 66.3027 53.828 66.3027C54.4042 66.3027 54.9205 66.4168 55.3771 66.6451C55.8337 66.8734 56.1978 67.1832 56.4696 67.5745H56.5674V66.5636H58.2796V74.4231C58.2796 75.3253 58.1057 76.0917 57.7578 76.7222C57.4099 77.3636 56.9207 77.8473 56.2902 78.1735C55.6706 78.4996 54.9532 78.6626 54.1378 78.6626ZM54.1542 73.3306C54.589 73.3306 54.9912 73.2273 55.3608 73.0208C55.7304 72.8033 56.0239 72.4935 56.2413 72.0913C56.4587 71.6782 56.5674 71.1945 56.5674 70.6401C56.5674 69.7922 56.3337 69.1345 55.8663 68.667C55.4097 68.1887 54.839 67.9496 54.1542 67.9496C53.7085 67.9496 53.3008 68.0583 52.9312 68.2757C52.5616 68.4822 52.2681 68.7866 52.0507 69.1888C51.8333 69.591 51.7246 70.0748 51.7246 70.6401C51.7246 71.2053 51.8333 71.6891 52.0507 72.0913C52.2681 72.4935 52.5616 72.8033 52.9312 73.0208C53.3008 73.2273 53.7085 73.3306 54.1542 73.3306ZM60.3876 63.2045H62.1813V74.8796H60.3876V63.2045ZM68.0087 75.1405C67.1934 75.1405 66.4596 74.9503 65.8074 74.5698C65.166 74.1894 64.6605 73.6676 64.2909 73.0044C63.9322 72.3305 63.7528 71.5749 63.7528 70.7379C63.7528 69.9443 63.9267 69.2106 64.2746 68.5366C64.6333 67.8517 65.1279 67.3082 65.7584 66.906C66.3889 66.5038 67.1064 66.3027 67.9108 66.3027C68.7479 66.3027 69.4708 66.4875 70.0795 66.8571C70.6992 67.2267 71.1666 67.7322 71.4819 68.3735C71.808 69.0149 71.971 69.7378 71.971 70.5422C71.971 70.6944 71.9547 70.8847 71.9221 71.1129H65.5465C65.6117 71.8848 65.8835 72.4827 66.3618 72.9066C66.8509 73.3197 67.4162 73.5262 68.0576 73.5262C68.5685 73.5262 69.0088 73.4121 69.3784 73.1838C69.7589 72.9447 70.0632 72.624 70.2915 72.2218L71.808 72.9392C71.4166 73.6241 70.9057 74.1622 70.2752 74.5535C69.6447 74.9449 68.8892 75.1405 68.0087 75.1405ZM70.1448 69.7432C70.123 69.4497 70.0306 69.1617 69.8676 68.879C69.7045 68.5855 69.4545 68.3409 69.1175 68.1452C68.7914 67.9496 68.3892 67.8517 67.9108 67.8517C67.3347 67.8517 66.8455 68.0257 66.4433 68.3735C66.052 68.7105 65.7802 69.1671 65.628 69.7432H70.1448ZM77.7197 63.2045H81.4538C82.6604 63.2045 83.7149 63.4491 84.6171 63.9383C85.5194 64.4275 86.2097 65.1178 86.688 66.0092C87.1772 66.8897 87.4218 67.9007 87.4218 69.0421C87.4218 70.1835 87.1772 71.1999 86.688 72.0913C86.2097 72.9718 85.5194 73.6567 84.6171 74.1459C83.7149 74.635 82.6604 74.8796 81.4538 74.8796H77.7197V63.2045ZM81.4212 73.1349C82.7256 73.1349 83.742 72.7762 84.4704 72.0587C85.2096 71.3304 85.5792 70.3248 85.5792 69.0421C85.5792 67.7702 85.2096 66.7701 84.4704 66.0418C83.742 65.3134 82.7256 64.9493 81.4212 64.9493H79.546V73.1349H81.4212ZM92.7703 75.1405C91.955 75.1405 91.2212 74.9503 90.569 74.5698C89.9276 74.1894 89.4221 73.6676 89.0525 73.0044C88.6938 72.3305 88.5144 71.5749 88.5144 70.7379C88.5144 69.9443 88.6883 69.2106 89.0362 68.5366C89.3949 67.8517 89.8895 67.3082 90.52 66.906C91.1505 66.5038 91.868 66.3027 92.6724 66.3027C93.5095 66.3027 94.2324 66.4875 94.8411 66.8571C95.4608 67.2267 95.9282 67.7322 96.2435 68.3735C96.5696 69.0149 96.7326 69.7378 96.7326 70.5422C96.7326 70.6944 96.7163 70.8847 96.6837 71.1129H90.3081C90.3733 71.8848 90.6451 72.4827 91.1234 72.9066C91.6125 73.3197 92.1778 73.5262 92.8192 73.5262C93.3301 73.5262 93.7704 73.4121 94.14 73.1838C94.5205 72.9447 94.8248 72.624 95.0531 72.2218L96.5696 72.9392C96.1782 73.6241 95.6673 74.1622 95.0368 74.5535C94.4063 74.9449 93.6508 75.1405 92.7703 75.1405ZM94.9064 69.7432C94.8846 69.4497 94.7922 69.1617 94.6292 68.879C94.4661 68.5855 94.2161 68.3409 93.8791 68.1452C93.553 67.9496 93.1507 67.8517 92.6724 67.8517C92.0963 67.8517 91.6071 68.0257 91.2049 68.3735C90.8136 68.7105 90.5418 69.1671 90.3896 69.7432H94.9064ZM97.2774 66.5636H99.283L101.582 72.5642H101.647L103.995 66.5636H105.952L102.495 74.8796H100.702L97.2774 66.5636ZM110.669 75.1405C109.853 75.1405 109.12 74.9503 108.467 74.5698C107.826 74.1894 107.321 73.6676 106.951 73.0044C106.592 72.3305 106.413 71.5749 106.413 70.7379C106.413 69.9443 106.587 69.2106 106.935 68.5366C107.293 67.8517 107.788 67.3082 108.418 66.906C109.049 66.5038 109.766 66.3027 110.571 66.3027C111.408 66.3027 112.131 66.4875 112.74 66.8571C113.359 67.2267 113.827 67.7322 114.142 68.3735C114.468 69.0149 114.631 69.7378 114.631 70.5422C114.631 70.6944 114.615 70.8847 114.582 71.1129H108.206C108.272 71.8848 108.543 72.4827 109.022 72.9066C109.511 73.3197 110.076 73.5262 110.718 73.5262C111.229 73.5262 111.669 73.4121 112.038 73.1838C112.419 72.9447 112.723 72.624 112.952 72.2218L114.468 72.9392C114.077 73.6241 113.566 74.1622 112.935 74.5535C112.305 74.9449 111.549 75.1405 110.669 75.1405ZM112.805 69.7432C112.783 69.4497 112.691 69.1617 112.528 68.879C112.365 68.5855 112.114 68.3409 111.777 68.1452C111.451 67.9496 111.049 67.8517 110.571 67.8517C109.995 67.8517 109.506 68.0257 109.103 68.3735C108.712 68.7105 108.44 69.1671 108.288 69.7432H112.805ZM116.264 63.2045H118.058V74.8796H116.264V63.2045ZM123.983 75.1405C123.146 75.1405 122.396 74.9503 121.733 74.5698C121.07 74.1785 120.554 73.6458 120.184 72.9718C119.814 72.2979 119.63 71.5478 119.63 70.7216C119.63 69.8954 119.814 69.1454 120.184 68.4714C120.554 67.7974 121.07 67.2702 121.733 66.8897C122.396 66.4983 123.146 66.3027 123.983 66.3027C124.82 66.3027 125.57 66.4983 126.234 66.8897C126.897 67.281 127.413 67.8137 127.783 68.4877C128.152 69.1617 128.337 69.9063 128.337 70.7216C128.337 71.5478 128.152 72.2979 127.783 72.9718C127.413 73.6458 126.897 74.1785 126.234 74.5698C125.57 74.9503 124.82 75.1405 123.983 75.1405ZM123.983 73.4936C124.44 73.4936 124.864 73.3849 125.255 73.1675C125.647 72.9392 125.956 72.6185 126.185 72.2054C126.424 71.7815 126.543 71.2869 126.543 70.7216C126.543 70.1563 126.424 69.6671 126.185 69.2541C125.956 68.841 125.647 68.5257 125.255 68.3083C124.864 68.08 124.44 67.9659 123.983 67.9659C123.527 67.9659 123.103 68.08 122.711 68.3083C122.32 68.5257 122.005 68.841 121.766 69.2541C121.537 69.6671 121.423 70.1563 121.423 70.7216C121.423 71.2869 121.537 71.7815 121.766 72.2054C122.005 72.6185 122.32 72.9392 122.711 73.1675C123.103 73.3849 123.527 73.4936 123.983 73.4936ZM129.846 66.5636H131.558V67.6561H131.64C131.879 67.2756 132.232 66.9549 132.7 66.694C133.167 66.4331 133.694 66.3027 134.281 66.3027C135.031 66.3027 135.711 66.4929 136.319 66.8734C136.928 67.2539 137.407 67.7811 137.754 68.4551C138.113 69.1182 138.293 69.8737 138.293 70.7216C138.293 71.5695 138.113 72.3305 137.754 73.0044C137.407 73.6676 136.928 74.1894 136.319 74.5698C135.711 74.9503 135.031 75.1405 134.281 75.1405C133.694 75.1405 133.167 75.0101 132.7 74.7492C132.232 74.4883 131.879 74.173 131.64 73.8034H131.558L131.64 74.9612V78.4017H129.846V66.5636ZM134.02 73.4936C134.455 73.4936 134.863 73.3795 135.243 73.1512C135.624 72.9229 135.928 72.5968 136.156 72.1728C136.385 71.7489 136.499 71.2651 136.499 70.7216C136.499 70.1781 136.385 69.6998 136.156 69.2867C135.928 68.8627 135.624 68.5366 135.243 68.3083C134.863 68.08 134.455 67.9659 134.02 67.9659C133.586 67.9659 133.178 68.08 132.797 68.3083C132.428 68.5366 132.129 68.8627 131.901 69.2867C131.672 69.6998 131.558 70.1781 131.558 70.7216C131.558 71.2651 131.672 71.7489 131.901 72.1728C132.129 72.5968 132.428 72.9229 132.797 73.1512C133.178 73.3795 133.586 73.4936 134.02 73.4936ZM143.727 75.1405C142.911 75.1405 142.178 74.9503 141.525 74.5698C140.884 74.1894 140.378 73.6676 140.009 73.0044C139.65 72.3305 139.471 71.5749 139.471 70.7379C139.471 69.9443 139.645 69.2106 139.993 68.5366C140.351 67.8517 140.846 67.3082 141.476 66.906C142.107 66.5038 142.824 66.3027 143.629 66.3027C144.466 66.3027 145.189 66.4875 145.797 66.8571C146.417 67.2267 146.885 67.7322 147.2 68.3735C147.526 69.0149 147.689 69.7378 147.689 70.5422C147.689 70.6944 147.673 70.8847 147.64 71.1129H141.264C141.33 71.8848 141.601 72.4827 142.08 72.9066C142.569 73.3197 143.134 73.5262 143.776 73.5262C144.286 73.5262 144.727 73.4121 145.096 73.1838C145.477 72.9447 145.781 72.624 146.009 72.2218L147.526 72.9392C147.135 73.6241 146.624 74.1622 145.993 74.5535C145.363 74.9449 144.607 75.1405 143.727 75.1405ZM145.863 69.7432C145.841 69.4497 145.749 69.1617 145.586 68.879C145.422 68.5855 145.172 68.3409 144.835 68.1452C144.509 67.9496 144.107 67.8517 143.629 67.8517C143.053 67.8517 142.563 68.0257 142.161 68.3735C141.77 68.7105 141.498 69.1671 141.346 69.7432H145.863ZM149.322 66.5636H151.035V67.7865H151.116C151.301 67.3626 151.622 67.0147 152.078 66.7429C152.535 66.4603 153.018 66.319 153.529 66.319C153.932 66.319 154.269 66.3733 154.54 66.482V68.3409C154.062 68.167 153.633 68.08 153.252 68.08C152.839 68.08 152.469 68.1887 152.143 68.4061C151.828 68.6236 151.578 68.9171 151.393 69.2867C151.208 69.6454 151.116 70.0422 151.116 70.477V74.8796H149.322V66.5636ZM162.912 75.1405C161.944 75.1405 161.075 74.8579 160.303 74.2926C159.531 73.7273 158.998 72.9338 158.705 71.9119L160.433 71.2108C160.607 71.8522 160.912 72.3794 161.346 72.7925C161.792 73.1947 162.325 73.3958 162.944 73.3958C163.521 73.3958 164.01 73.249 164.412 72.9555C164.814 72.6511 165.015 72.2381 165.015 71.7163C165.015 71.238 164.836 70.8466 164.477 70.5422C164.129 70.227 163.515 69.9117 162.635 69.5965L161.901 69.3356C161.118 69.0638 160.46 68.6725 159.928 68.1616C159.395 67.6506 159.129 66.9766 159.129 66.1396C159.129 65.5635 159.286 65.0308 159.602 64.5416C159.917 64.0524 160.352 63.6665 160.906 63.3839C161.471 63.0904 162.107 62.9436 162.814 62.9436C163.836 62.9436 164.651 63.1936 165.26 63.6937C165.869 64.1829 166.276 64.7373 166.483 65.3569L164.836 66.0581C164.716 65.6885 164.488 65.3624 164.151 65.0797C163.814 64.7971 163.379 64.6558 162.847 64.6558C162.314 64.6558 161.863 64.7916 161.493 65.0634C161.134 65.3352 160.955 65.683 160.955 66.107C160.955 66.5092 161.118 66.8408 161.444 67.1017C161.77 67.3626 162.281 67.6126 162.977 67.8517L163.711 68.0963C164.711 68.4442 165.483 68.9008 166.026 69.466C166.581 70.0204 166.858 70.7651 166.858 71.7C166.858 72.4609 166.662 73.1023 166.271 73.6241C165.88 74.135 165.379 74.5155 164.771 74.7655C164.173 75.0155 163.553 75.1405 162.912 75.1405ZM171.648 75.0101C171.278 75.0101 170.93 74.9503 170.604 74.8307C170.278 74.7111 170.012 74.5535 169.805 74.3578C169.338 73.8904 169.104 73.2545 169.104 72.45V68.1452H167.653V66.5636H169.104V64.2155H170.898V66.5636H172.92V68.1452H170.898V72.0587C170.898 72.5044 170.985 72.8196 171.159 73.0044C171.322 73.2219 171.604 73.3306 172.007 73.3306C172.191 73.3306 172.354 73.3088 172.496 73.2653C172.637 73.211 172.789 73.1295 172.952 73.0208V74.7655C172.594 74.9286 172.159 75.0101 171.648 75.0101ZM177.658 75.1405C176.647 75.1405 175.876 74.8416 175.343 74.2437C174.821 73.6349 174.56 72.7925 174.56 71.7163V66.5636H176.354V71.4717C176.354 72.1457 176.511 72.6511 176.827 72.9881C177.153 73.3251 177.577 73.4936 178.099 73.4936C178.523 73.4936 178.898 73.3849 179.224 73.1675C179.55 72.9392 179.8 72.6403 179.974 72.2707C180.148 71.9011 180.235 71.5043 180.235 71.0803V66.5636H182.028V74.8796H180.333V73.8034H180.235C180.006 74.1948 179.653 74.5155 179.175 74.7655C178.696 75.0155 178.191 75.1405 177.658 75.1405ZM187.591 75.1405C186.841 75.1405 186.162 74.9503 185.553 74.5698C184.944 74.1894 184.46 73.6676 184.102 73.0044C183.754 72.3305 183.58 71.5695 183.58 70.7216C183.58 69.8737 183.754 69.1182 184.102 68.4551C184.46 67.7811 184.944 67.2539 185.553 66.8734C186.162 66.4929 186.841 66.3027 187.591 66.3027C188.178 66.3027 188.705 66.4331 189.173 66.694C189.64 66.9549 189.994 67.2756 190.233 67.6561H190.314L190.233 66.482V63.2045H192.026V74.8796H190.314V73.8034H190.233C189.994 74.173 189.64 74.4883 189.173 74.7492C188.705 75.0101 188.178 75.1405 187.591 75.1405ZM187.852 73.4936C188.287 73.4936 188.689 73.3795 189.059 73.1512C189.439 72.9229 189.744 72.5968 189.972 72.1728C190.2 71.7489 190.314 71.2651 190.314 70.7216C190.314 70.1781 190.2 69.6998 189.972 69.2867C189.744 68.8627 189.439 68.5366 189.059 68.3083C188.689 68.08 188.287 67.9659 187.852 67.9659C187.417 67.9659 187.01 68.08 186.629 68.3083C186.249 68.5366 185.944 68.8627 185.716 69.2867C185.488 69.6998 185.374 70.1781 185.374 70.7216C185.374 71.2651 185.488 71.7489 185.716 72.1728C185.944 72.5968 186.249 72.9229 186.629 73.1512C187.01 73.3795 187.417 73.4936 187.852 73.4936ZM197.836 75.1405C197.021 75.1405 196.287 74.9503 195.635 74.5698C194.993 74.1894 194.488 73.6676 194.118 73.0044C193.759 72.3305 193.58 71.5749 193.58 70.7379C193.58 69.9443 193.754 69.2106 194.102 68.5366C194.461 67.8517 194.955 67.3082 195.586 66.906C196.216 66.5038 196.934 66.3027 197.738 66.3027C198.575 66.3027 199.298 66.4875 199.907 66.8571C200.526 67.2267 200.994 67.7322 201.309 68.3735C201.635 69.0149 201.798 69.7378 201.798 70.5422C201.798 70.6944 201.782 70.8847 201.749 71.1129H195.374C195.439 71.8848 195.711 72.4827 196.189 72.9066C196.678 73.3197 197.243 73.5262 197.885 73.5262C198.396 73.5262 198.836 73.4121 199.206 73.1838C199.586 72.9447 199.89 72.624 200.119 72.2218L201.635 72.9392C201.244 73.6241 200.733 74.1622 200.102 74.5535C199.472 74.9449 198.716 75.1405 197.836 75.1405ZM199.972 69.7432C199.95 69.4497 199.858 69.1617 199.695 68.879C199.532 68.5855 199.282 68.3409 198.945 68.1452C198.619 67.9496 198.216 67.8517 197.738 67.8517C197.162 67.8517 196.673 68.0257 196.271 68.3735C195.879 68.7105 195.607 69.1671 195.455 69.7432H199.972ZM203.432 66.5636H205.144V67.6561H205.225C205.464 67.2647 205.818 66.944 206.285 66.694C206.764 66.4331 207.269 66.3027 207.802 66.3027C208.813 66.3027 209.579 66.6016 210.101 67.1995C210.633 67.7865 210.9 68.5909 210.9 69.6128V74.8796H209.106V69.8574C209.106 69.2051 208.943 68.7268 208.617 68.4225C208.302 68.1181 207.861 67.9659 207.296 67.9659C206.894 67.9659 206.535 68.08 206.22 68.3083C205.905 68.5257 205.66 68.8192 205.486 69.1888C205.312 69.5584 205.225 69.9552 205.225 70.3792V74.8796H203.432V66.5636ZM215.916 75.0101C215.547 75.0101 215.199 74.9503 214.873 74.8307C214.547 74.7111 214.28 74.5535 214.074 74.3578C213.606 73.8904 213.372 73.2545 213.372 72.45V68.1452H211.921V66.5636H213.372V64.2155H215.166V66.5636H217.188V68.1452H215.166V72.0587C215.166 72.5044 215.253 72.8196 215.427 73.0044C215.59 73.2219 215.873 73.3306 216.275 73.3306C216.46 73.3306 216.623 73.3088 216.764 73.2653C216.905 73.211 217.058 73.1295 217.221 73.0208V74.7655C216.862 74.9286 216.427 75.0101 215.916 75.0101ZM228.202 75.1405C227.071 75.1405 226.039 74.8742 225.104 74.3415C224.169 73.8089 223.435 73.0751 222.902 72.1402C222.37 71.2053 222.103 70.1726 222.103 69.0421C222.103 67.9115 222.37 66.8788 222.902 65.9439C223.435 65.0091 224.169 64.2753 225.104 63.7426C226.039 63.21 227.071 62.9436 228.202 62.9436C229.082 62.9436 229.881 63.1067 230.599 63.4328C231.327 63.7589 231.969 64.2318 232.523 64.8514L231.219 66.107C230.816 65.6287 230.371 65.2754 229.881 65.0471C229.392 64.8079 228.832 64.6884 228.202 64.6884C227.419 64.6884 226.702 64.8677 226.05 65.2265C225.408 65.5852 224.897 66.0961 224.517 66.7592C224.136 67.4115 223.946 68.1724 223.946 69.0421C223.946 69.9117 224.136 70.6781 224.517 71.3412C224.897 71.9935 225.408 72.499 226.05 72.8577C226.702 73.2164 227.419 73.3958 228.202 73.3958C229.506 73.3958 230.615 72.8523 231.528 71.7652L232.849 73.0371C232.284 73.7002 231.604 74.2165 230.811 74.5861C230.017 74.9557 229.148 75.1405 228.202 75.1405ZM234.435 63.2045H236.229V74.8796H234.435V63.2045ZM241.37 75.1405C240.359 75.1405 239.587 74.8416 239.054 74.2437C238.532 73.6349 238.272 72.7925 238.272 71.7163V66.5636H240.065V71.4717C240.065 72.1457 240.223 72.6511 240.538 72.9881C240.864 73.3251 241.288 73.4936 241.81 73.4936C242.234 73.4936 242.609 73.3849 242.935 73.1675C243.261 72.9392 243.511 72.6403 243.685 72.2707C243.859 71.9011 243.946 71.5043 243.946 71.0803V66.5636H245.74V74.8796H244.044V73.8034H243.946C243.718 74.1948 243.364 74.5155 242.886 74.7655C242.408 75.0155 241.902 75.1405 241.37 75.1405ZM252.263 75.1405C251.676 75.1405 251.148 75.0101 250.681 74.7492C250.213 74.4883 249.86 74.173 249.621 73.8034H249.54V74.8796H247.827V63.2045H249.621V66.482L249.54 67.6561H249.621C249.86 67.2756 250.213 66.9549 250.681 66.694C251.148 66.4331 251.676 66.3027 252.263 66.3027C253.013 66.3027 253.692 66.4929 254.301 66.8734C254.91 67.2539 255.388 67.7811 255.736 68.4551C256.095 69.1182 256.274 69.8737 256.274 70.7216C256.274 71.5695 256.095 72.3305 255.736 73.0044C255.388 73.6676 254.91 74.1894 254.301 74.5698C253.692 74.9503 253.013 75.1405 252.263 75.1405ZM252.002 73.4936C252.437 73.4936 252.844 73.3795 253.225 73.1512C253.605 72.9229 253.91 72.5968 254.138 72.1728C254.366 71.7489 254.48 71.2651 254.48 70.7216C254.48 70.1781 254.366 69.6998 254.138 69.2867C253.91 68.8627 253.605 68.5366 253.225 68.3083C252.844 68.08 252.437 67.9659 252.002 67.9659C251.567 67.9659 251.159 68.08 250.779 68.3083C250.409 68.5366 250.11 68.8627 249.882 69.2867C249.654 69.6998 249.54 70.1781 249.54 70.7216C249.54 71.2651 249.654 71.7489 249.882 72.1728C250.11 72.5968 250.409 72.9229 250.779 73.1512C251.159 73.3795 251.567 73.4936 252.002 73.4936ZM260.86 75.1405C259.904 75.1405 259.121 74.934 258.512 74.5209C257.904 74.0969 257.474 73.5589 257.224 72.9066L258.822 72.2054C259.018 72.6403 259.29 72.9718 259.638 73.2001C259.996 73.4284 260.404 73.5425 260.86 73.5425C261.306 73.5425 261.681 73.4664 261.986 73.3143C262.29 73.1512 262.442 72.912 262.442 72.5968C262.442 72.2924 262.312 72.0533 262.051 71.8793C261.79 71.7054 261.388 71.5532 260.844 71.4228L259.849 71.1782C259.186 71.0151 258.637 70.727 258.203 70.314C257.768 69.9009 257.55 69.3791 257.55 68.7486C257.55 68.2594 257.692 67.83 257.974 67.4604C258.268 67.0908 258.659 66.8082 259.148 66.6125C259.638 66.4059 260.17 66.3027 260.746 66.3027C261.518 66.3027 262.198 66.4603 262.785 66.7755C263.372 67.0799 263.796 67.5256 264.056 68.1126L262.491 68.7975C262.176 68.1561 261.6 67.8354 260.763 67.8354C260.36 67.8354 260.023 67.917 259.752 68.08C259.48 68.2431 259.344 68.4551 259.344 68.716C259.344 68.966 259.447 69.1725 259.654 69.3356C259.86 69.4878 260.165 69.6182 260.567 69.7269L261.79 70.0367C262.605 70.2433 263.219 70.5585 263.632 70.9825C264.056 71.3956 264.268 71.9065 264.268 72.5153C264.268 73.0371 264.116 73.4991 263.812 73.9013C263.518 74.2926 263.111 74.597 262.589 74.8144C262.067 75.0318 261.491 75.1405 260.86 75.1405Z" fill="white"/>
<rect width="23.3115" height="7.81905" rx="3.90953" transform="matrix(-0.866025 0.5 0.5 0.866025 174.504 27.7881)" fill="#FBBC04"/>
<rect width="23.3115" height="7.81905" rx="3.90953" transform="matrix(0.866025 -0.5 -0.5 -0.866025 131.371 38.4272)" fill="#EA4335"/>
<rect x="131.041" y="27.7871" width="23.3115" height="7.81905" rx="3.90953" transform="rotate(30 131.041 27.7871)" fill="#4285F4"/>
<rect x="174.504" y="38.4272" width="23.3115" height="7.81905" rx="3.64648" transform="rotate(-150 174.504 38.4272)" fill="#0F9D58"/>
<path d="M23.8787 96.8024C23.0707 96.8024 22.3267 96.6064 21.6467 96.2144C20.9667 95.8224 20.4267 95.2824 20.0267 94.5944C19.6267 93.9064 19.4267 93.1464 19.4267 92.3144C19.4267 91.4824 19.6267 90.7224 20.0267 90.0344C20.4267 89.3464 20.9667 88.8064 21.6467 88.4144C22.3267 88.0224 23.0707 87.8264 23.8787 87.8264C24.5107 87.8264 25.1027 87.9384 25.6547 88.1624C26.2147 88.3864 26.6747 88.7024 27.0347 89.1104L26.3027 89.8424C26.0307 89.5064 25.6827 89.2504 25.2587 89.0744C24.8347 88.8904 24.3787 88.7984 23.8907 88.7984C23.2827 88.7984 22.7147 88.9464 22.1867 89.2424C21.6667 89.5304 21.2467 89.9424 20.9267 90.4784C20.6147 91.0064 20.4587 91.6184 20.4587 92.3144C20.4587 93.0104 20.6147 93.6264 20.9267 94.1624C21.2467 94.6904 21.6707 95.1024 22.1987 95.3984C22.7267 95.6864 23.2907 95.8304 23.8907 95.8304C24.4667 95.8304 24.9467 95.7424 25.3307 95.5664C25.7227 95.3824 26.0587 95.1424 26.3387 94.8464C26.5467 94.6224 26.7147 94.3544 26.8427 94.0424C26.9707 93.7224 27.0507 93.3704 27.0827 92.9864H23.9027V92.0384H28.0307C28.0707 92.2624 28.0907 92.4704 28.0907 92.6624C28.0907 93.1904 28.0067 93.7064 27.8387 94.2104C27.6707 94.7064 27.4027 95.1424 27.0347 95.5184C26.2427 96.3744 25.1907 96.8024 23.8787 96.8024ZM32.1658 96.8024C31.5658 96.8024 31.0258 96.6584 30.5458 96.3704C30.0658 96.0824 29.6898 95.6904 29.4178 95.1944C29.1538 94.6984 29.0218 94.1504 29.0218 93.5504C29.0218 92.9504 29.1538 92.4024 29.4178 91.9064C29.6898 91.4104 30.0658 91.0184 30.5458 90.7304C31.0258 90.4424 31.5658 90.2984 32.1658 90.2984C32.7658 90.2984 33.3058 90.4424 33.7858 90.7304C34.2658 91.0184 34.6378 91.4104 34.9018 91.9064C35.1738 92.4024 35.3098 92.9504 35.3098 93.5504C35.3098 94.1504 35.1738 94.6984 34.9018 95.1944C34.6378 95.6904 34.2658 96.0824 33.7858 96.3704C33.3058 96.6584 32.7658 96.8024 32.1658 96.8024ZM32.1658 95.8784C32.5418 95.8784 32.8898 95.7864 33.2098 95.6024C33.5378 95.4104 33.7978 95.1384 33.9898 94.7864C34.1898 94.4344 34.2898 94.0224 34.2898 93.5504C34.2898 93.0784 34.1898 92.6664 33.9898 92.3144C33.7978 91.9624 33.5378 91.6944 33.2098 91.5104C32.8898 91.3184 32.5418 91.2224 32.1658 91.2224C31.7898 91.2224 31.4378 91.3184 31.1098 91.5104C30.7818 91.6944 30.5178 91.9624 30.3178 92.3144C30.1258 92.6664 30.0298 93.0784 30.0298 93.5504C30.0298 94.0224 30.1258 94.4344 30.3178 94.7864C30.5178 95.1384 30.7818 95.4104 31.1098 95.6024C31.4378 95.7864 31.7898 95.8784 32.1658 95.8784ZM35.6465 90.4904H36.7385L38.6345 95.4104H38.6585L40.5785 90.4904H41.6465L39.1505 96.6104H38.1185L35.6465 90.4904ZM45.0308 96.8024C44.4468 96.8024 43.9228 96.6624 43.4588 96.3824C42.9948 96.1024 42.6308 95.7184 42.3668 95.2304C42.1108 94.7344 41.9828 94.1784 41.9828 93.5624C41.9828 92.9704 42.1028 92.4264 42.3428 91.9304C42.5908 91.4344 42.9388 91.0384 43.3868 90.7424C43.8348 90.4464 44.3548 90.2984 44.9468 90.2984C45.5468 90.2984 46.0668 90.4344 46.5068 90.7064C46.9468 90.9704 47.2828 91.3384 47.5148 91.8104C47.7548 92.2824 47.8748 92.8224 47.8748 93.4304C47.8748 93.5504 47.8628 93.6544 47.8388 93.7424H43.0028C43.0268 94.2064 43.1388 94.5984 43.3388 94.9184C43.5388 95.2384 43.7908 95.4784 44.0948 95.6384C44.4068 95.7984 44.7308 95.8784 45.0668 95.8784C45.8508 95.8784 46.4548 95.5104 46.8788 94.7744L47.7428 95.1944C47.4788 95.6904 47.1188 96.0824 46.6628 96.3704C46.2148 96.6584 45.6708 96.8024 45.0308 96.8024ZM46.7948 92.9024C46.7788 92.6464 46.7068 92.3904 46.5788 92.1344C46.4508 91.8784 46.2468 91.6624 45.9668 91.4864C45.6948 91.3104 45.3508 91.2224 44.9348 91.2224C44.4548 91.2224 44.0468 91.3784 43.7108 91.6904C43.3828 91.9944 43.1668 92.3984 43.0628 92.9024H46.7948ZM49.0685 90.4904H50.0405V91.4744H50.0885C50.2085 91.1384 50.4405 90.8624 50.7845 90.6464C51.1285 90.4224 51.4885 90.3104 51.8645 90.3104C52.1445 90.3104 52.3845 90.3504 52.5845 90.4304V91.5344C52.3285 91.4064 52.0405 91.3424 51.7205 91.3424C51.4245 91.3424 51.1525 91.4264 50.9045 91.5944C50.6565 91.7624 50.4565 91.9904 50.3045 92.2784C50.1605 92.5584 50.0885 92.8624 50.0885 93.1904V96.6104H49.0685V90.4904ZM53.5685 90.4904H54.5405V91.3904H54.5885C54.7565 91.0864 55.0245 90.8304 55.3925 90.6224C55.7605 90.4064 56.1525 90.2984 56.5685 90.2984C57.3045 90.2984 57.8645 90.5144 58.2485 90.9464C58.6405 91.3704 58.8365 91.9504 58.8365 92.6864V96.6104H57.8165V92.8424C57.8165 92.2744 57.6805 91.8624 57.4085 91.6064C57.1365 91.3504 56.7645 91.2224 56.2925 91.2224C55.9645 91.2224 55.6685 91.3144 55.4045 91.4984C55.1485 91.6824 54.9485 91.9264 54.8045 92.2304C54.6605 92.5264 54.5885 92.8384 54.5885 93.1664V96.6104H53.5685V90.4904ZM60.2951 90.4904H61.2671V91.3904H61.3151C61.4911 91.0784 61.7551 90.8184 62.1071 90.6104C62.4591 90.4024 62.8311 90.2984 63.2231 90.2984C63.6711 90.2984 64.0591 90.4064 64.3871 90.6224C64.7231 90.8384 64.9631 91.1264 65.1071 91.4864C65.3231 91.1264 65.6071 90.8384 65.9591 90.6224C66.3191 90.4064 66.7351 90.2984 67.2071 90.2984C67.9111 90.2984 68.4391 90.5144 68.7911 90.9464C69.1511 91.3704 69.3311 91.9504 69.3311 92.6864V96.6104H68.3231V92.8424C68.3231 92.2744 68.2071 91.8624 67.9751 91.6064C67.7431 91.3504 67.3991 91.2224 66.9431 91.2224C66.6391 91.2224 66.3631 91.3104 66.1151 91.4864C65.8671 91.6624 65.6711 91.8984 65.5271 92.1944C65.3911 92.4904 65.3231 92.8104 65.3231 93.1544V96.6104H64.3031V92.8544C64.3031 92.2784 64.1871 91.8624 63.9551 91.6064C63.7231 91.3504 63.3831 91.2224 62.9351 91.2224C62.6311 91.2224 62.3551 91.3144 62.1071 91.4984C61.8591 91.6744 61.6631 91.9144 61.5191 92.2184C61.3831 92.5144 61.3151 92.8344 61.3151 93.1784V96.6104H60.2951V90.4904ZM73.5191 96.8024C72.9351 96.8024 72.4111 96.6624 71.9471 96.3824C71.4831 96.1024 71.1191 95.7184 70.8551 95.2304C70.5991 94.7344 70.4711 94.1784 70.4711 93.5624C70.4711 92.9704 70.5911 92.4264 70.8311 91.9304C71.0791 91.4344 71.4271 91.0384 71.8751 90.7424C72.3231 90.4464 72.8431 90.2984 73.4351 90.2984C74.0351 90.2984 74.5551 90.4344 74.9951 90.7064C75.4351 90.9704 75.7711 91.3384 76.0031 91.8104C76.2431 92.2824 76.3631 92.8224 76.3631 93.4304C76.3631 93.5504 76.3511 93.6544 76.3271 93.7424H71.4911C71.5151 94.2064 71.6271 94.5984 71.8271 94.9184C72.0271 95.2384 72.2791 95.4784 72.5831 95.6384C72.8951 95.7984 73.2191 95.8784 73.5551 95.8784C74.3391 95.8784 74.9431 95.5104 75.3671 94.7744L76.2311 95.1944C75.9671 95.6904 75.6071 96.0824 75.1511 96.3704C74.7031 96.6584 74.1591 96.8024 73.5191 96.8024ZM75.2831 92.9024C75.2671 92.6464 75.1951 92.3904 75.0671 92.1344C74.9391 91.8784 74.7351 91.6624 74.4551 91.4864C74.1831 91.3104 73.8391 91.2224 73.4231 91.2224C72.9431 91.2224 72.5351 91.3784 72.1991 91.6904C71.8711 91.9944 71.6551 92.3984 71.5511 92.9024H75.2831ZM77.5568 90.4904H78.5288V91.3904H78.5768C78.7448 91.0864 79.0128 90.8304 79.3808 90.6224C79.7488 90.4064 80.1408 90.2984 80.5568 90.2984C81.2928 90.2984 81.8528 90.5144 82.2368 90.9464C82.6288 91.3704 82.8248 91.9504 82.8248 92.6864V96.6104H81.8048V92.8424C81.8048 92.2744 81.6688 91.8624 81.3968 91.6064C81.1248 91.3504 80.7528 91.2224 80.2808 91.2224C79.9528 91.2224 79.6568 91.3144 79.3928 91.4984C79.1368 91.6824 78.9368 91.9264 78.7928 92.2304C78.6488 92.5264 78.5768 92.8384 78.5768 93.1664V96.6104H77.5568V90.4904ZM86.3307 96.7064C86.0827 96.7064 85.8507 96.6664 85.6347 96.5864C85.4267 96.5064 85.2507 96.3984 85.1067 96.2624C84.9467 96.1104 84.8267 95.9344 84.7467 95.7344C84.6667 95.5344 84.6267 95.2904 84.6267 95.0024V91.4144H83.5587V90.4904H84.6267V88.7624H85.6467V90.4904H87.1347V91.4144H85.6467V94.7504C85.6467 95.0864 85.7107 95.3344 85.8387 95.4944C85.9907 95.6704 86.2107 95.7584 86.4987 95.7584C86.7307 95.7584 86.9547 95.6904 87.1707 95.5544V96.5504C87.0507 96.6064 86.9267 96.6464 86.7987 96.6704C86.6787 96.6944 86.5227 96.7064 86.3307 96.7064ZM95.1639 96.8024C94.3319 96.8024 93.5759 96.6064 92.8959 96.2144C92.2159 95.8224 91.6799 95.2864 91.2879 94.6064C90.9039 93.9184 90.7119 93.1544 90.7119 92.3144C90.7119 91.4744 90.9039 90.7144 91.2879 90.0344C91.6799 89.3464 92.2159 88.8064 92.8959 88.4144C93.5759 88.0224 94.3319 87.8264 95.1639 87.8264C95.8039 87.8264 96.3879 87.9504 96.9159 88.1984C97.4519 88.4384 97.9159 88.7824 98.3079 89.2304L97.5759 89.9384C97.2479 89.5464 96.8879 89.2584 96.4959 89.0744C96.1119 88.8904 95.6679 88.7984 95.1639 88.7984C94.5399 88.7984 93.9679 88.9464 93.4479 89.2424C92.9279 89.5304 92.5119 89.9424 92.1999 90.4784C91.8959 91.0064 91.7439 91.6184 91.7439 92.3144C91.7439 93.0104 91.8959 93.6264 92.1999 94.1624C92.5119 94.6904 92.9279 95.1024 93.4479 95.3984C93.9679 95.6864 94.5399 95.8304 95.1639 95.8304C96.2039 95.8304 97.0879 95.4024 97.8159 94.5464L98.5599 95.2664C98.1599 95.7384 97.6679 96.1144 97.0839 96.3944C96.4999 96.6664 95.8599 96.8024 95.1639 96.8024ZM102.408 96.8024C101.808 96.8024 101.268 96.6584 100.788 96.3704C100.308 96.0824 99.932 95.6904 99.66 95.1944C99.396 94.6984 99.264 94.1504 99.264 93.5504C99.264 92.9504 99.396 92.4024 99.66 91.9064C99.932 91.4104 100.308 91.0184 100.788 90.7304C101.268 90.4424 101.808 90.2984 102.408 90.2984C103.008 90.2984 103.548 90.4424 104.028 90.7304C104.508 91.0184 104.88 91.4104 105.144 91.9064C105.416 92.4024 105.552 92.9504 105.552 93.5504C105.552 94.1504 105.416 94.6984 105.144 95.1944C104.88 95.6904 104.508 96.0824 104.028 96.3704C103.548 96.6584 103.008 96.8024 102.408 96.8024ZM102.408 95.8784C102.784 95.8784 103.132 95.7864 103.452 95.6024C103.78 95.4104 104.04 95.1384 104.232 94.7864C104.432 94.4344 104.532 94.0224 104.532 93.5504C104.532 93.0784 104.432 92.6664 104.232 92.3144C104.04 91.9624 103.78 91.6944 103.452 91.5104C103.132 91.3184 102.784 91.2224 102.408 91.2224C102.032 91.2224 101.68 91.3184 101.352 91.5104C101.024 91.6944 100.76 91.9624 100.56 92.3144C100.368 92.6664 100.272 93.0784 100.272 93.5504C100.272 94.0224 100.368 94.4344 100.56 94.7864C100.76 95.1384 101.024 95.4104 101.352 95.6024C101.68 95.7864 102.032 95.8784 102.408 95.8784ZM106.678 88.0184H107.698V96.6104H106.678V88.0184ZM109.209 88.0184H110.229V96.6104H109.209V88.0184ZM114.406 96.8024C113.822 96.8024 113.298 96.6624 112.834 96.3824C112.37 96.1024 112.006 95.7184 111.742 95.2304C111.486 94.7344 111.358 94.1784 111.358 93.5624C111.358 92.9704 111.478 92.4264 111.718 91.9304C111.966 91.4344 112.314 91.0384 112.762 90.7424C113.21 90.4464 113.73 90.2984 114.322 90.2984C114.922 90.2984 115.442 90.4344 115.882 90.7064C116.322 90.9704 116.658 91.3384 116.89 91.8104C117.13 92.2824 117.25 92.8224 117.25 93.4304C117.25 93.5504 117.238 93.6544 117.214 93.7424H112.378C112.402 94.2064 112.514 94.5984 112.714 94.9184C112.914 95.2384 113.166 95.4784 113.47 95.6384C113.782 95.7984 114.106 95.8784 114.442 95.8784C115.226 95.8784 115.83 95.5104 116.254 94.7744L117.118 95.1944C116.854 95.6904 116.494 96.0824 116.038 96.3704C115.59 96.6584 115.046 96.8024 114.406 96.8024ZM116.17 92.9024C116.154 92.6464 116.082 92.3904 115.954 92.1344C115.826 91.8784 115.622 91.6624 115.342 91.4864C115.07 91.3104 114.726 91.2224 114.31 91.2224C113.83 91.2224 113.422 91.3784 113.086 91.6904C112.758 91.9944 112.542 92.3984 112.438 92.9024H116.17ZM121.19 99.3944C120.47 99.3944 119.874 99.2264 119.402 98.8904C118.938 98.5544 118.626 98.1504 118.466 97.6784L119.39 97.2824C119.526 97.6344 119.75 97.9184 120.062 98.1344C120.382 98.3584 120.758 98.4704 121.19 98.4704C121.822 98.4704 122.31 98.2864 122.654 97.9184C123.006 97.5504 123.182 97.0304 123.182 96.3584V95.6744H123.134C122.934 95.9864 122.65 96.2424 122.282 96.4424C121.922 96.6344 121.51 96.7304 121.046 96.7304C120.518 96.7304 120.034 96.5944 119.594 96.3224C119.162 96.0504 118.818 95.6704 118.562 95.1824C118.306 94.6944 118.178 94.1384 118.178 93.5144C118.178 92.8984 118.306 92.3464 118.562 91.8584C118.818 91.3624 119.162 90.9784 119.594 90.7064C120.034 90.4344 120.518 90.2984 121.046 90.2984C121.51 90.2984 121.922 90.3984 122.282 90.5984C122.65 90.7904 122.934 91.0464 123.134 91.3664H123.182V90.4904H124.154V96.3704C124.154 97.3544 123.882 98.1024 123.338 98.6144C122.794 99.1344 122.078 99.3944 121.19 99.3944ZM121.19 95.8064C121.558 95.8064 121.89 95.7144 122.186 95.5304C122.49 95.3464 122.73 95.0824 122.906 94.7384C123.09 94.3944 123.182 93.9864 123.182 93.5144C123.182 93.0344 123.09 92.6224 122.906 92.2784C122.73 91.9344 122.49 91.6744 122.186 91.4984C121.89 91.3144 121.558 91.2224 121.19 91.2224C120.822 91.2224 120.486 91.3144 120.182 91.4984C119.878 91.6824 119.634 91.9464 119.45 92.2904C119.274 92.6344 119.186 93.0424 119.186 93.5144C119.186 93.9864 119.274 94.3984 119.45 94.7504C119.634 95.0944 119.878 95.3584 120.182 95.5424C120.486 95.7184 120.822 95.8064 121.19 95.8064ZM128.328 96.8024C127.744 96.8024 127.22 96.6624 126.756 96.3824C126.292 96.1024 125.928 95.7184 125.664 95.2304C125.408 94.7344 125.28 94.1784 125.28 93.5624C125.28 92.9704 125.4 92.4264 125.64 91.9304C125.888 91.4344 126.236 91.0384 126.684 90.7424C127.132 90.4464 127.652 90.2984 128.244 90.2984C128.844 90.2984 129.364 90.4344 129.804 90.7064C130.244 90.9704 130.58 91.3384 130.812 91.8104C131.052 92.2824 131.172 92.8224 131.172 93.4304C131.172 93.5504 131.16 93.6544 131.136 93.7424H126.3C126.324 94.2064 126.436 94.5984 126.636 94.9184C126.836 95.2384 127.088 95.4784 127.392 95.6384C127.704 95.7984 128.028 95.8784 128.364 95.8784C129.148 95.8784 129.752 95.5104 130.176 94.7744L131.04 95.1944C130.776 95.6904 130.416 96.0824 129.96 96.3704C129.512 96.6584 128.968 96.8024 128.328 96.8024ZM130.092 92.9024C130.076 92.6464 130.004 92.3904 129.876 92.1344C129.748 91.8784 129.544 91.6624 129.264 91.4864C128.992 91.3104 128.648 91.2224 128.232 91.2224C127.752 91.2224 127.344 91.3784 127.008 91.6904C126.68 91.9944 126.464 92.3984 126.36 92.9024H130.092ZM139.108 96.8024C138.284 96.8024 137.536 96.6024 136.864 96.2024C136.192 95.8024 135.664 95.2624 135.28 94.5824C134.896 93.8944 134.704 93.1384 134.704 92.3144C134.704 91.4984 134.896 90.7464 135.28 90.0584C135.664 89.3704 136.192 88.8264 136.864 88.4264C137.536 88.0264 138.284 87.8264 139.108 87.8264C139.932 87.8264 140.68 88.0264 141.352 88.4264C142.024 88.8264 142.552 89.3704 142.936 90.0584C143.328 90.7464 143.524 91.4984 143.524 92.3144C143.524 93.1384 143.332 93.8944 142.948 94.5824C142.564 95.2624 142.032 95.8024 141.352 96.2024C140.68 96.6024 139.932 96.8024 139.108 96.8024ZM139.108 95.8304C139.724 95.8304 140.288 95.6824 140.8 95.3864C141.32 95.0824 141.728 94.6664 142.024 94.1384C142.328 93.6024 142.48 92.9944 142.48 92.3144C142.48 91.6344 142.328 91.0304 142.024 90.5024C141.728 89.9664 141.32 89.5504 140.8 89.2544C140.288 88.9504 139.724 88.7984 139.108 88.7984C138.492 88.7984 137.928 88.9504 137.416 89.2544C136.904 89.5504 136.496 89.9664 136.192 90.5024C135.888 91.0384 135.736 91.6424 135.736 92.3144C135.736 92.9864 135.888 93.5904 136.192 94.1264C136.496 94.6624 136.904 95.0824 137.416 95.3864C137.928 95.6824 138.492 95.8304 139.108 95.8304ZM145.53 91.4144H144.402V90.4904H145.53V89.8304C145.53 89.4464 145.618 89.1104 145.794 88.8224C145.97 88.5344 146.206 88.3144 146.502 88.1624C146.798 88.0024 147.126 87.9224 147.486 87.9224C147.83 87.9224 148.13 87.9704 148.386 88.0664V89.0624C148.242 89.0064 148.106 88.9624 147.978 88.9304C147.85 88.8904 147.698 88.8704 147.522 88.8704C147.258 88.8704 147.03 88.9664 146.838 89.1584C146.646 89.3424 146.55 89.6024 146.55 89.9384V90.4904H148.122V91.4144H146.55V96.6104H145.53V91.4144ZM152.362 88.0184H157.33V88.9904H153.37V91.8344H156.946V92.7944H153.37V95.6384H157.33V96.6104H152.362V88.0184ZM158.651 90.4904H159.623V91.3904H159.671C159.839 91.0864 160.107 90.8304 160.475 90.6224C160.843 90.4064 161.235 90.2984 161.651 90.2984C162.387 90.2984 162.947 90.5144 163.331 90.9464C163.723 91.3704 163.919 91.9504 163.919 92.6864V96.6104H162.899V92.8424C162.899 92.2744 162.763 91.8624 162.491 91.6064C162.219 91.3504 161.847 91.2224 161.375 91.2224C161.047 91.2224 160.751 91.3144 160.487 91.4984C160.231 91.6824 160.031 91.9264 159.887 92.2304C159.743 92.5264 159.671 92.8384 159.671 93.1664V96.6104H158.651V90.4904ZM168.007 99.3944C167.287 99.3944 166.691 99.2264 166.219 98.8904C165.755 98.5544 165.443 98.1504 165.283 97.6784L166.207 97.2824C166.343 97.6344 166.567 97.9184 166.879 98.1344C167.199 98.3584 167.575 98.4704 168.007 98.4704C168.639 98.4704 169.127 98.2864 169.471 97.9184C169.823 97.5504 169.999 97.0304 169.999 96.3584V95.6744H169.951C169.751 95.9864 169.467 96.2424 169.099 96.4424C168.739 96.6344 168.327 96.7304 167.863 96.7304C167.335 96.7304 166.851 96.5944 166.411 96.3224C165.979 96.0504 165.635 95.6704 165.379 95.1824C165.123 94.6944 164.995 94.1384 164.995 93.5144C164.995 92.8984 165.123 92.3464 165.379 91.8584C165.635 91.3624 165.979 90.9784 166.411 90.7064C166.851 90.4344 167.335 90.2984 167.863 90.2984C168.327 90.2984 168.739 90.3984 169.099 90.5984C169.467 90.7904 169.751 91.0464 169.951 91.3664H169.999V90.4904H170.971V96.3704C170.971 97.3544 170.699 98.1024 170.155 98.6144C169.611 99.1344 168.895 99.3944 168.007 99.3944ZM168.007 95.8064C168.375 95.8064 168.707 95.7144 169.003 95.5304C169.307 95.3464 169.547 95.0824 169.723 94.7384C169.907 94.3944 169.999 93.9864 169.999 93.5144C169.999 93.0344 169.907 92.6224 169.723 92.2784C169.547 91.9344 169.307 91.6744 169.003 91.4984C168.707 91.3144 168.375 91.2224 168.007 91.2224C167.639 91.2224 167.303 91.3144 166.999 91.4984C166.695 91.6824 166.451 91.9464 166.267 92.2904C166.091 92.6344 166.003 93.0424 166.003 93.5144C166.003 93.9864 166.091 94.3984 166.267 94.7504C166.451 95.0944 166.695 95.3584 166.999 95.5424C167.303 95.7184 167.639 95.8064 168.007 95.8064ZM173.079 89.3624C172.879 89.3624 172.707 89.2904 172.563 89.1464C172.419 89.0024 172.347 88.8304 172.347 88.6304C172.347 88.4304 172.419 88.2624 172.563 88.1264C172.707 87.9824 172.879 87.9104 173.079 87.9104C173.279 87.9104 173.451 87.9824 173.595 88.1264C173.739 88.2624 173.811 88.4304 173.811 88.6304C173.811 88.8304 173.739 89.0024 173.595 89.1464C173.459 89.2904 173.287 89.3624 173.079 89.3624ZM172.575 90.4904H173.583V96.6104H172.575V90.4904ZM175.186 90.4904H176.158V91.3904H176.206C176.374 91.0864 176.642 90.8304 177.01 90.6224C177.378 90.4064 177.77 90.2984 178.186 90.2984C178.922 90.2984 179.482 90.5144 179.866 90.9464C180.258 91.3704 180.454 91.9504 180.454 92.6864V96.6104H179.434V92.8424C179.434 92.2744 179.298 91.8624 179.026 91.6064C178.754 91.3504 178.382 91.2224 177.91 91.2224C177.582 91.2224 177.286 91.3144 177.022 91.4984C176.766 91.6824 176.566 91.9264 176.422 92.2304C176.278 92.5264 176.206 92.8384 176.206 93.1664V96.6104H175.186V90.4904ZM184.636 96.8024C184.052 96.8024 183.528 96.6624 183.064 96.3824C182.6 96.1024 182.236 95.7184 181.972 95.2304C181.716 94.7344 181.588 94.1784 181.588 93.5624C181.588 92.9704 181.708 92.4264 181.948 91.9304C182.196 91.4344 182.544 91.0384 182.992 90.7424C183.44 90.4464 183.96 90.2984 184.552 90.2984C185.152 90.2984 185.672 90.4344 186.112 90.7064C186.552 90.9704 186.888 91.3384 187.12 91.8104C187.36 92.2824 187.48 92.8224 187.48 93.4304C187.48 93.5504 187.468 93.6544 187.444 93.7424H182.608C182.632 94.2064 182.744 94.5984 182.944 94.9184C183.144 95.2384 183.396 95.4784 183.7 95.6384C184.012 95.7984 184.336 95.8784 184.672 95.8784C185.456 95.8784 186.06 95.5104 186.484 94.7744L187.348 95.1944C187.084 95.6904 186.724 96.0824 186.268 96.3704C185.82 96.6584 185.276 96.8024 184.636 96.8024ZM186.4 92.9024C186.384 92.6464 186.312 92.3904 186.184 92.1344C186.056 91.8784 185.852 91.6624 185.572 91.4864C185.3 91.3104 184.956 91.2224 184.54 91.2224C184.06 91.2224 183.652 91.3784 183.316 91.6904C182.988 91.9944 182.772 92.3984 182.668 92.9024H186.4ZM191.457 96.8024C190.873 96.8024 190.349 96.6624 189.885 96.3824C189.421 96.1024 189.057 95.7184 188.793 95.2304C188.537 94.7344 188.409 94.1784 188.409 93.5624C188.409 92.9704 188.529 92.4264 188.769 91.9304C189.017 91.4344 189.365 91.0384 189.813 90.7424C190.261 90.4464 190.781 90.2984 191.373 90.2984C191.973 90.2984 192.493 90.4344 192.933 90.7064C193.373 90.9704 193.709 91.3384 193.941 91.8104C194.181 92.2824 194.301 92.8224 194.301 93.4304C194.301 93.5504 194.289 93.6544 194.265 93.7424H189.429C189.453 94.2064 189.565 94.5984 189.765 94.9184C189.965 95.2384 190.217 95.4784 190.521 95.6384C190.833 95.7984 191.157 95.8784 191.493 95.8784C192.277 95.8784 192.881 95.5104 193.305 94.7744L194.169 95.1944C193.905 95.6904 193.545 96.0824 193.089 96.3704C192.641 96.6584 192.097 96.8024 191.457 96.8024ZM193.221 92.9024C193.205 92.6464 193.133 92.3904 193.005 92.1344C192.877 91.8784 192.673 91.6624 192.393 91.4864C192.121 91.3104 191.777 91.2224 191.361 91.2224C190.881 91.2224 190.473 91.3784 190.137 91.6904C189.809 91.9944 189.593 92.3984 189.489 92.9024H193.221ZM195.494 90.4904H196.466V91.4744H196.514C196.634 91.1384 196.866 90.8624 197.21 90.6464C197.554 90.4224 197.914 90.3104 198.29 90.3104C198.57 90.3104 198.81 90.3504 199.01 90.4304V91.5344C198.754 91.4064 198.466 91.3424 198.146 91.3424C197.85 91.3424 197.578 91.4264 197.33 91.5944C197.082 91.7624 196.882 91.9904 196.73 92.2784C196.586 92.5584 196.514 92.8624 196.514 93.1904V96.6104H195.494V90.4904ZM200.594 89.3624C200.394 89.3624 200.222 89.2904 200.078 89.1464C199.934 89.0024 199.862 88.8304 199.862 88.6304C199.862 88.4304 199.934 88.2624 200.078 88.1264C200.222 87.9824 200.394 87.9104 200.594 87.9104C200.794 87.9104 200.966 87.9824 201.11 88.1264C201.254 88.2624 201.326 88.4304 201.326 88.6304C201.326 88.8304 201.254 89.0024 201.11 89.1464C200.974 89.2904 200.802 89.3624 200.594 89.3624ZM200.09 90.4904H201.098V96.6104H200.09V90.4904ZM202.701 90.4904H203.673V91.3904H203.721C203.889 91.0864 204.157 90.8304 204.525 90.6224C204.893 90.4064 205.285 90.2984 205.701 90.2984C206.437 90.2984 206.997 90.5144 207.381 90.9464C207.773 91.3704 207.969 91.9504 207.969 92.6864V96.6104H206.949V92.8424C206.949 92.2744 206.813 91.8624 206.541 91.6064C206.269 91.3504 205.897 91.2224 205.425 91.2224C205.097 91.2224 204.801 91.3144 204.537 91.4984C204.281 91.6824 204.081 91.9264 203.937 92.2304C203.793 92.5264 203.721 92.8384 203.721 93.1664V96.6104H202.701V90.4904ZM212.057 99.3944C211.337 99.3944 210.741 99.2264 210.269 98.8904C209.805 98.5544 209.493 98.1504 209.333 97.6784L210.257 97.2824C210.393 97.6344 210.617 97.9184 210.929 98.1344C211.249 98.3584 211.625 98.4704 212.057 98.4704C212.689 98.4704 213.177 98.2864 213.521 97.9184C213.873 97.5504 214.049 97.0304 214.049 96.3584V95.6744H214.001C213.801 95.9864 213.517 96.2424 213.149 96.4424C212.789 96.6344 212.377 96.7304 211.913 96.7304C211.385 96.7304 210.901 96.5944 210.461 96.3224C210.029 96.0504 209.685 95.6704 209.429 95.1824C209.173 94.6944 209.045 94.1384 209.045 93.5144C209.045 92.8984 209.173 92.3464 209.429 91.8584C209.685 91.3624 210.029 90.9784 210.461 90.7064C210.901 90.4344 211.385 90.2984 211.913 90.2984C212.377 90.2984 212.789 90.3984 213.149 90.5984C213.517 90.7904 213.801 91.0464 214.001 91.3664H214.049V90.4904H215.021V96.3704C215.021 97.3544 214.749 98.1024 214.205 98.6144C213.661 99.1344 212.945 99.3944 212.057 99.3944ZM212.057 95.8064C212.425 95.8064 212.757 95.7144 213.053 95.5304C213.357 95.3464 213.597 95.0824 213.773 94.7384C213.957 94.3944 214.049 93.9864 214.049 93.5144C214.049 93.0344 213.957 92.6224 213.773 92.2784C213.597 91.9344 213.357 91.6744 213.053 91.4984C212.757 91.3144 212.425 91.2224 212.057 91.2224C211.689 91.2224 211.353 91.3144 211.049 91.4984C210.745 91.6824 210.501 91.9464 210.317 92.2904C210.141 92.6344 210.053 93.0424 210.053 93.5144C210.053 93.9864 210.141 94.3984 210.317 94.7504C210.501 95.0944 210.745 95.3584 211.049 95.5424C211.353 95.7184 211.689 95.8064 212.057 95.8064ZM219.523 88.0184H220.771L225.079 94.8584H225.127L225.079 93.2024V88.0184H226.099V96.6104H225.043L220.531 89.4464H220.483L220.531 91.1024V96.6104H219.523V88.0184ZM229.595 96.8024C229.147 96.8024 228.747 96.7144 228.395 96.5384C228.043 96.3624 227.771 96.1224 227.579 95.8184C227.387 95.5064 227.291 95.1544 227.291 94.7624C227.291 94.1144 227.535 93.6104 228.023 93.2504C228.511 92.8824 229.127 92.6984 229.871 92.6984C230.239 92.6984 230.579 92.7384 230.891 92.8184C231.211 92.8984 231.455 92.9904 231.623 93.0944V92.7224C231.623 92.2664 231.463 91.9024 231.143 91.6304C230.823 91.3504 230.419 91.2104 229.931 91.2104C229.587 91.2104 229.271 91.2864 228.983 91.4384C228.695 91.5824 228.467 91.7864 228.299 92.0504L227.531 91.4744C227.771 91.1064 228.099 90.8184 228.515 90.6104C228.939 90.4024 229.407 90.2984 229.919 90.2984C230.751 90.2984 231.403 90.5184 231.875 90.9584C232.355 91.3904 232.595 91.9824 232.595 92.7344V96.6104H231.623V95.7344H231.575C231.399 96.0304 231.135 96.2824 230.783 96.4904C230.431 96.6984 230.035 96.8024 229.595 96.8024ZM229.691 95.9024C230.035 95.9024 230.355 95.8144 230.651 95.6384C230.947 95.4624 231.183 95.2264 231.359 94.9304C231.535 94.6344 231.623 94.3104 231.623 93.9584C231.431 93.8304 231.195 93.7264 230.915 93.6464C230.635 93.5664 230.339 93.5264 230.027 93.5264C229.467 93.5264 229.043 93.6424 228.755 93.8744C228.475 94.1064 228.335 94.4064 228.335 94.7744C228.335 95.1104 228.463 95.3824 228.719 95.5904C228.975 95.7984 229.299 95.9024 229.691 95.9024ZM236.643 99.3944C235.923 99.3944 235.327 99.2264 234.855 98.8904C234.391 98.5544 234.079 98.1504 233.919 97.6784L234.843 97.2824C234.979 97.6344 235.203 97.9184 235.515 98.1344C235.835 98.3584 236.211 98.4704 236.643 98.4704C237.275 98.4704 237.763 98.2864 238.107 97.9184C238.459 97.5504 238.635 97.0304 238.635 96.3584V95.6744H238.587C238.387 95.9864 238.103 96.2424 237.735 96.4424C237.375 96.6344 236.963 96.7304 236.499 96.7304C235.971 96.7304 235.487 96.5944 235.047 96.3224C234.615 96.0504 234.271 95.6704 234.015 95.1824C233.759 94.6944 233.631 94.1384 233.631 93.5144C233.631 92.8984 233.759 92.3464 234.015 91.8584C234.271 91.3624 234.615 90.9784 235.047 90.7064C235.487 90.4344 235.971 90.2984 236.499 90.2984C236.963 90.2984 237.375 90.3984 237.735 90.5984C238.103 90.7904 238.387 91.0464 238.587 91.3664H238.635V90.4904H239.607V96.3704C239.607 97.3544 239.335 98.1024 238.791 98.6144C238.247 99.1344 237.531 99.3944 236.643 99.3944ZM236.643 95.8064C237.011 95.8064 237.343 95.7144 237.639 95.5304C237.943 95.3464 238.183 95.0824 238.359 94.7384C238.543 94.3944 238.635 93.9864 238.635 93.5144C238.635 93.0344 238.543 92.6224 238.359 92.2784C238.183 91.9344 237.943 91.6744 237.639 91.4984C237.343 91.3144 237.011 91.2224 236.643 91.2224C236.275 91.2224 235.939 91.3144 235.635 91.4984C235.331 91.6824 235.087 91.9464 234.903 92.2904C234.727 92.6344 234.639 93.0424 234.639 93.5144C234.639 93.9864 234.727 94.3984 234.903 94.7504C235.087 95.0944 235.331 95.3584 235.635 95.5424C235.939 95.7184 236.275 95.8064 236.643 95.8064ZM241.067 90.4904H242.039V91.4024H242.087C242.271 91.0904 242.547 90.8304 242.915 90.6224C243.291 90.4064 243.711 90.2984 244.175 90.2984C244.719 90.2984 245.215 90.4384 245.663 90.7184C246.111 90.9984 246.463 91.3864 246.719 91.8824C246.975 92.3784 247.103 92.9344 247.103 93.5504C247.103 94.1744 246.975 94.7344 246.719 95.2304C246.463 95.7184 246.111 96.1024 245.663 96.3824C245.215 96.6624 244.719 96.8024 244.175 96.8024C243.711 96.8024 243.291 96.6984 242.915 96.4904C242.547 96.2744 242.271 96.0144 242.087 95.7104H242.039L242.087 96.5504V99.2024H241.067V90.4904ZM244.055 95.8784C244.407 95.8784 244.739 95.7824 245.051 95.5904C245.363 95.3984 245.611 95.1264 245.795 94.7744C245.987 94.4144 246.083 94.0064 246.083 93.5504C246.083 93.0944 245.987 92.6904 245.795 92.3384C245.611 91.9784 245.363 91.7024 245.051 91.5104C244.739 91.3184 244.407 91.2224 244.055 91.2224C243.703 91.2224 243.371 91.3184 243.059 91.5104C242.747 91.7024 242.499 91.9744 242.315 92.3264C242.131 92.6784 242.039 93.0864 242.039 93.5504C242.039 94.0144 242.131 94.4224 242.315 94.7744C242.499 95.1264 242.747 95.3984 243.059 95.5904C243.371 95.7824 243.703 95.8784 244.055 95.8784ZM250.449 96.8024C249.713 96.8024 249.149 96.5864 248.757 96.1544C248.373 95.7224 248.181 95.1184 248.181 94.3424V90.4904H249.201V94.1864C249.201 94.7704 249.333 95.1984 249.597 95.4704C249.861 95.7424 250.217 95.8784 250.665 95.8784C251.009 95.8784 251.313 95.7864 251.577 95.6024C251.849 95.4184 252.057 95.1784 252.201 94.8824C252.353 94.5864 252.429 94.2744 252.429 93.9464V90.4904H253.449V96.6104H252.477V95.7224H252.429C252.261 96.0264 251.993 96.2824 251.625 96.4904C251.257 96.6984 250.865 96.8024 250.449 96.8024ZM254.955 90.4904H255.927V91.4744H255.975C256.095 91.1384 256.327 90.8624 256.671 90.6464C257.015 90.4224 257.375 90.3104 257.751 90.3104C258.031 90.3104 258.271 90.3504 258.471 90.4304V91.5344C258.215 91.4064 257.927 91.3424 257.607 91.3424C257.311 91.3424 257.039 91.4264 256.791 91.5944C256.543 91.7624 256.343 91.9904 256.191 92.2784C256.047 92.5584 255.975 92.8624 255.975 93.1904V96.6104H254.955V90.4904Z" fill="white"/>
</svg>
