<svg width="304" height="120" viewBox="0 0 304 120" fill="none" xmlns="http://www.w3.org/2000/svg">
<rect width="304" height="120" rx="6" fill="#313235"/>
<path d="M23.0871 75.1405C21.9783 75.1405 20.9564 74.8742 20.0216 74.3415C19.0867 73.8089 18.342 73.0805 17.7876 72.1565C17.2441 71.2217 16.9723 70.1835 16.9723 69.0421C16.9723 67.9007 17.2441 66.8679 17.7876 65.9439C18.342 65.0091 19.0867 64.2753 20.0216 63.7426C20.9564 63.21 21.9783 62.9436 23.0871 62.9436C23.9676 62.9436 24.7884 63.1012 25.5493 63.4165C26.3102 63.7317 26.9462 64.172 27.4571 64.7373L26.1852 66.0092C25.8048 65.5852 25.3482 65.2591 24.8155 65.0308C24.2937 64.8025 23.7122 64.6884 23.0708 64.6884C22.3207 64.6884 21.6195 64.8677 20.9673 65.2265C20.3151 65.5852 19.7933 66.0961 19.4019 66.7592C19.0106 67.4223 18.8149 68.1833 18.8149 69.0421C18.8149 69.9009 19.0106 70.6618 19.4019 71.3249C19.7933 71.988 20.3151 72.499 20.9673 72.8577C21.6195 73.2164 22.3261 73.3958 23.0871 73.3958C23.7828 73.3958 24.3644 73.2925 24.8318 73.086C25.2993 72.8794 25.7178 72.6022 26.0874 72.2544C26.3266 72.0152 26.5277 71.7163 26.6907 71.3575C26.8647 70.9988 26.9788 70.6075 27.0332 70.1835H23.0708V68.5529H28.7616C28.8159 68.8573 28.8431 69.1725 28.8431 69.4986C28.8431 70.2379 28.729 70.9499 28.5007 71.6347C28.2724 72.3087 27.9082 72.8957 27.4082 73.3958C26.3102 74.559 24.8699 75.1405 23.0871 75.1405ZM34.4753 75.1405C33.6383 75.1405 32.8882 74.9503 32.2251 74.5698C31.562 74.1785 31.0456 73.6458 30.676 72.9718C30.3064 72.2979 30.1216 71.5478 30.1216 70.7216C30.1216 69.8954 30.3064 69.1454 30.676 68.4714C31.0456 67.7974 31.562 67.2702 32.2251 66.8897C32.8882 66.4983 33.6383 66.3027 34.4753 66.3027C35.3124 66.3027 36.0624 66.4983 36.7256 66.8897C37.3887 67.281 37.905 67.8137 38.2746 68.4877C38.6442 69.1617 38.829 69.9063 38.829 70.7216C38.829 71.5478 38.6442 72.2979 38.2746 72.9718C37.905 73.6458 37.3887 74.1785 36.7256 74.5698C36.0624 74.9503 35.3124 75.1405 34.4753 75.1405ZM34.4753 73.4936C34.9319 73.4936 35.3559 73.3849 35.7472 73.1675C36.1385 72.9392 36.4484 72.6185 36.6766 72.2054C36.9158 71.7815 37.0354 71.2869 37.0354 70.7216C37.0354 70.1563 36.9158 69.6671 36.6766 69.2541C36.4484 68.841 36.1385 68.5257 35.7472 68.3083C35.3559 68.08 34.9319 67.9659 34.4753 67.9659C34.0188 67.9659 33.5948 68.08 33.2035 68.3083C32.8121 68.5257 32.4969 68.841 32.2577 69.2541C32.0294 69.6671 31.9153 70.1563 31.9153 70.7216C31.9153 71.2869 32.0294 71.7815 32.2577 72.2054C32.4969 72.6185 32.8121 72.9392 33.2035 73.1675C33.5948 73.3849 34.0188 73.4936 34.4753 73.4936ZM44.38 75.1405C43.5429 75.1405 42.7928 74.9503 42.1297 74.5698C41.4666 74.1785 40.9503 73.6458 40.5807 72.9718C40.2111 72.2979 40.0263 71.5478 40.0263 70.7216C40.0263 69.8954 40.2111 69.1454 40.5807 68.4714C40.9503 67.7974 41.4666 67.2702 42.1297 66.8897C42.7928 66.4983 43.5429 66.3027 44.38 66.3027C45.217 66.3027 45.9671 66.4983 46.6302 66.8897C47.2933 67.281 47.8097 67.8137 48.1793 68.4877C48.5489 69.1617 48.7337 69.9063 48.7337 70.7216C48.7337 71.5478 48.5489 72.2979 48.1793 72.9718C47.8097 73.6458 47.2933 74.1785 46.6302 74.5698C45.9671 74.9503 45.217 75.1405 44.38 75.1405ZM44.38 73.4936C44.8365 73.4936 45.2605 73.3849 45.6518 73.1675C46.0432 72.9392 46.353 72.6185 46.5813 72.2054C46.8204 71.7815 46.94 71.2869 46.94 70.7216C46.94 70.1563 46.8204 69.6671 46.5813 69.2541C46.353 68.841 46.0432 68.5257 45.6518 68.3083C45.2605 68.08 44.8365 67.9659 44.38 67.9659C43.9234 67.9659 43.4994 68.08 43.1081 68.3083C42.7167 68.5257 42.4015 68.841 42.1623 69.2541C41.9341 69.6671 41.8199 70.1563 41.8199 70.7216C41.8199 71.2869 41.9341 71.7815 42.1623 72.2054C42.4015 72.6185 42.7167 72.9392 43.1081 73.1675C43.4994 73.3849 43.9234 73.4936 44.38 73.4936ZM54.1378 78.6626C53.116 78.6626 52.2681 78.4289 51.5941 77.9615C50.931 77.494 50.4853 76.9396 50.257 76.2983L51.9365 75.5971C52.1105 76.0319 52.3877 76.3798 52.7681 76.6407C53.1595 76.9125 53.6161 77.0483 54.1378 77.0483C54.8988 77.0483 55.4912 76.8201 55.9152 76.3635C56.35 75.9178 56.5674 75.2873 56.5674 74.472V73.7056H56.4696C56.1978 74.0969 55.8337 74.4068 55.3771 74.635C54.9314 74.8525 54.4151 74.9612 53.828 74.9612C53.1323 74.9612 52.4855 74.7818 51.8876 74.4231C51.2897 74.0643 50.8114 73.5589 50.4527 72.9066C50.1048 72.2435 49.9309 71.488 49.9309 70.6401C49.9309 69.7922 50.1048 69.0421 50.4527 68.3898C50.8114 67.7267 51.2897 67.2158 51.8876 66.8571C52.4855 66.4875 53.1323 66.3027 53.828 66.3027C54.4042 66.3027 54.9205 66.4168 55.3771 66.6451C55.8337 66.8734 56.1978 67.1832 56.4696 67.5745H56.5674V66.5636H58.2796V74.4231C58.2796 75.3253 58.1057 76.0917 57.7578 76.7222C57.4099 77.3636 56.9207 77.8473 56.2902 78.1735C55.6706 78.4996 54.9532 78.6626 54.1378 78.6626ZM54.1542 73.3306C54.589 73.3306 54.9912 73.2273 55.3608 73.0208C55.7304 72.8033 56.0239 72.4935 56.2413 72.0913C56.4587 71.6782 56.5674 71.1945 56.5674 70.6401C56.5674 69.7922 56.3337 69.1345 55.8663 68.667C55.4097 68.1887 54.839 67.9496 54.1542 67.9496C53.7085 67.9496 53.3008 68.0583 52.9312 68.2757C52.5616 68.4822 52.2681 68.7866 52.0507 69.1888C51.8333 69.591 51.7246 70.0748 51.7246 70.6401C51.7246 71.2053 51.8333 71.6891 52.0507 72.0913C52.2681 72.4935 52.5616 72.8033 52.9312 73.0208C53.3008 73.2273 53.7085 73.3306 54.1542 73.3306ZM60.3876 63.2045H62.1813V74.8796H60.3876V63.2045ZM68.0087 75.1405C67.1934 75.1405 66.4596 74.9503 65.8074 74.5698C65.166 74.1894 64.6605 73.6676 64.2909 73.0044C63.9322 72.3305 63.7528 71.5749 63.7528 70.7379C63.7528 69.9443 63.9267 69.2106 64.2746 68.5366C64.6333 67.8517 65.1279 67.3082 65.7584 66.906C66.3889 66.5038 67.1064 66.3027 67.9108 66.3027C68.7479 66.3027 69.4708 66.4875 70.0795 66.8571C70.6992 67.2267 71.1666 67.7322 71.4819 68.3735C71.808 69.0149 71.971 69.7378 71.971 70.5422C71.971 70.6944 71.9547 70.8847 71.9221 71.1129H65.5465C65.6117 71.8848 65.8835 72.4827 66.3618 72.9066C66.8509 73.3197 67.4162 73.5262 68.0576 73.5262C68.5685 73.5262 69.0088 73.4121 69.3784 73.1838C69.7589 72.9447 70.0632 72.624 70.2915 72.2218L71.808 72.9392C71.4166 73.6241 70.9057 74.1622 70.2752 74.5535C69.6447 74.9449 68.8892 75.1405 68.0087 75.1405ZM70.1448 69.7432C70.123 69.4497 70.0306 69.1617 69.8676 68.879C69.7045 68.5855 69.4545 68.3409 69.1175 68.1452C68.7914 67.9496 68.3892 67.8517 67.9108 67.8517C67.3347 67.8517 66.8455 68.0257 66.4433 68.3735C66.052 68.7105 65.7802 69.1671 65.628 69.7432H70.1448ZM77.7197 63.2045H81.4538C82.6604 63.2045 83.7149 63.4491 84.6171 63.9383C85.5194 64.4275 86.2097 65.1178 86.688 66.0092C87.1772 66.8897 87.4218 67.9007 87.4218 69.0421C87.4218 70.1835 87.1772 71.1999 86.688 72.0913C86.2097 72.9718 85.5194 73.6567 84.6171 74.1459C83.7149 74.635 82.6604 74.8796 81.4538 74.8796H77.7197V63.2045ZM81.4212 73.1349C82.7256 73.1349 83.742 72.7762 84.4704 72.0587C85.2096 71.3304 85.5792 70.3248 85.5792 69.0421C85.5792 67.7702 85.2096 66.7701 84.4704 66.0418C83.742 65.3134 82.7256 64.9493 81.4212 64.9493H79.546V73.1349H81.4212ZM92.7703 75.1405C91.955 75.1405 91.2212 74.9503 90.569 74.5698C89.9276 74.1894 89.4221 73.6676 89.0525 73.0044C88.6938 72.3305 88.5144 71.5749 88.5144 70.7379C88.5144 69.9443 88.6883 69.2106 89.0362 68.5366C89.3949 67.8517 89.8895 67.3082 90.52 66.906C91.1505 66.5038 91.868 66.3027 92.6724 66.3027C93.5095 66.3027 94.2324 66.4875 94.8411 66.8571C95.4608 67.2267 95.9282 67.7322 96.2435 68.3735C96.5696 69.0149 96.7326 69.7378 96.7326 70.5422C96.7326 70.6944 96.7163 70.8847 96.6837 71.1129H90.3081C90.3733 71.8848 90.6451 72.4827 91.1234 72.9066C91.6125 73.3197 92.1778 73.5262 92.8192 73.5262C93.3301 73.5262 93.7704 73.4121 94.14 73.1838C94.5205 72.9447 94.8248 72.624 95.0531 72.2218L96.5696 72.9392C96.1782 73.6241 95.6673 74.1622 95.0368 74.5535C94.4063 74.9449 93.6508 75.1405 92.7703 75.1405ZM94.9064 69.7432C94.8846 69.4497 94.7922 69.1617 94.6292 68.879C94.4661 68.5855 94.2161 68.3409 93.8791 68.1452C93.553 67.9496 93.1507 67.8517 92.6724 67.8517C92.0963 67.8517 91.6071 68.0257 91.2049 68.3735C90.8136 68.7105 90.5418 69.1671 90.3896 69.7432H94.9064ZM97.2774 66.5636H99.283L101.582 72.5642H101.647L103.995 66.5636H105.952L102.495 74.8796H100.702L97.2774 66.5636ZM110.669 75.1405C109.853 75.1405 109.12 74.9503 108.467 74.5698C107.826 74.1894 107.321 73.6676 106.951 73.0044C106.592 72.3305 106.413 71.5749 106.413 70.7379C106.413 69.9443 106.587 69.2106 106.935 68.5366C107.293 67.8517 107.788 67.3082 108.418 66.906C109.049 66.5038 109.766 66.3027 110.571 66.3027C111.408 66.3027 112.131 66.4875 112.74 66.8571C113.359 67.2267 113.827 67.7322 114.142 68.3735C114.468 69.0149 114.631 69.7378 114.631 70.5422C114.631 70.6944 114.615 70.8847 114.582 71.1129H108.206C108.272 71.8848 108.543 72.4827 109.022 72.9066C109.511 73.3197 110.076 73.5262 110.718 73.5262C111.229 73.5262 111.669 73.4121 112.038 73.1838C112.419 72.9447 112.723 72.624 112.952 72.2218L114.468 72.9392C114.077 73.6241 113.566 74.1622 112.935 74.5535C112.305 74.9449 111.549 75.1405 110.669 75.1405ZM112.805 69.7432C112.783 69.4497 112.691 69.1617 112.528 68.879C112.365 68.5855 112.114 68.3409 111.777 68.1452C111.451 67.9496 111.049 67.8517 110.571 67.8517C109.995 67.8517 109.506 68.0257 109.103 68.3735C108.712 68.7105 108.44 69.1671 108.288 69.7432H112.805ZM116.264 63.2045H118.058V74.8796H116.264V63.2045ZM123.983 75.1405C123.146 75.1405 122.396 74.9503 121.733 74.5698C121.07 74.1785 120.554 73.6458 120.184 72.9718C119.814 72.2979 119.63 71.5478 119.63 70.7216C119.63 69.8954 119.814 69.1454 120.184 68.4714C120.554 67.7974 121.07 67.2702 121.733 66.8897C122.396 66.4983 123.146 66.3027 123.983 66.3027C124.82 66.3027 125.57 66.4983 126.234 66.8897C126.897 67.281 127.413 67.8137 127.783 68.4877C128.152 69.1617 128.337 69.9063 128.337 70.7216C128.337 71.5478 128.152 72.2979 127.783 72.9718C127.413 73.6458 126.897 74.1785 126.234 74.5698C125.57 74.9503 124.82 75.1405 123.983 75.1405ZM123.983 73.4936C124.44 73.4936 124.864 73.3849 125.255 73.1675C125.647 72.9392 125.956 72.6185 126.185 72.2054C126.424 71.7815 126.543 71.2869 126.543 70.7216C126.543 70.1563 126.424 69.6671 126.185 69.2541C125.956 68.841 125.647 68.5257 125.255 68.3083C124.864 68.08 124.44 67.9659 123.983 67.9659C123.527 67.9659 123.103 68.08 122.711 68.3083C122.32 68.5257 122.005 68.841 121.766 69.2541C121.537 69.6671 121.423 70.1563 121.423 70.7216C121.423 71.2869 121.537 71.7815 121.766 72.2054C122.005 72.6185 122.32 72.9392 122.711 73.1675C123.103 73.3849 123.527 73.4936 123.983 73.4936ZM129.846 66.5636H131.558V67.6561H131.64C131.879 67.2756 132.232 66.9549 132.7 66.694C133.167 66.4331 133.694 66.3027 134.281 66.3027C135.031 66.3027 135.711 66.4929 136.319 66.8734C136.928 67.2539 137.407 67.7811 137.754 68.4551C138.113 69.1182 138.293 69.8737 138.293 70.7216C138.293 71.5695 138.113 72.3305 137.754 73.0044C137.407 73.6676 136.928 74.1894 136.319 74.5698C135.711 74.9503 135.031 75.1405 134.281 75.1405C133.694 75.1405 133.167 75.0101 132.7 74.7492C132.232 74.4883 131.879 74.173 131.64 73.8034H131.558L131.64 74.9612V78.4017H129.846V66.5636ZM134.02 73.4936C134.455 73.4936 134.863 73.3795 135.243 73.1512C135.624 72.9229 135.928 72.5968 136.156 72.1728C136.385 71.7489 136.499 71.2651 136.499 70.7216C136.499 70.1781 136.385 69.6998 136.156 69.2867C135.928 68.8627 135.624 68.5366 135.243 68.3083C134.863 68.08 134.455 67.9659 134.02 67.9659C133.586 67.9659 133.178 68.08 132.797 68.3083C132.428 68.5366 132.129 68.8627 131.901 69.2867C131.672 69.6998 131.558 70.1781 131.558 70.7216C131.558 71.2651 131.672 71.7489 131.901 72.1728C132.129 72.5968 132.428 72.9229 132.797 73.1512C133.178 73.3795 133.586 73.4936 134.02 73.4936ZM143.727 75.1405C142.911 75.1405 142.178 74.9503 141.525 74.5698C140.884 74.1894 140.378 73.6676 140.009 73.0044C139.65 72.3305 139.471 71.5749 139.471 70.7379C139.471 69.9443 139.645 69.2106 139.993 68.5366C140.351 67.8517 140.846 67.3082 141.476 66.906C142.107 66.5038 142.824 66.3027 143.629 66.3027C144.466 66.3027 145.189 66.4875 145.797 66.8571C146.417 67.2267 146.885 67.7322 147.2 68.3735C147.526 69.0149 147.689 69.7378 147.689 70.5422C147.689 70.6944 147.673 70.8847 147.64 71.1129H141.264C141.33 71.8848 141.601 72.4827 142.08 72.9066C142.569 73.3197 143.134 73.5262 143.776 73.5262C144.286 73.5262 144.727 73.4121 145.096 73.1838C145.477 72.9447 145.781 72.624 146.009 72.2218L147.526 72.9392C147.135 73.6241 146.624 74.1622 145.993 74.5535C145.363 74.9449 144.607 75.1405 143.727 75.1405ZM145.863 69.7432C145.841 69.4497 145.749 69.1617 145.586 68.879C145.422 68.5855 145.172 68.3409 144.835 68.1452C144.509 67.9496 144.107 67.8517 143.629 67.8517C143.053 67.8517 142.563 68.0257 142.161 68.3735C141.77 68.7105 141.498 69.1671 141.346 69.7432H145.863ZM149.322 66.5636H151.035V67.7865H151.116C151.301 67.3626 151.622 67.0147 152.078 66.7429C152.535 66.4603 153.018 66.319 153.529 66.319C153.932 66.319 154.269 66.3733 154.54 66.482V68.3409C154.062 68.167 153.633 68.08 153.252 68.08C152.839 68.08 152.469 68.1887 152.143 68.4061C151.828 68.6236 151.578 68.9171 151.393 69.2867C151.208 69.6454 151.116 70.0422 151.116 70.477V74.8796H149.322V66.5636ZM162.912 75.1405C161.944 75.1405 161.075 74.8579 160.303 74.2926C159.531 73.7273 158.998 72.9338 158.705 71.9119L160.433 71.2108C160.607 71.8522 160.912 72.3794 161.346 72.7925C161.792 73.1947 162.325 73.3958 162.944 73.3958C163.521 73.3958 164.01 73.249 164.412 72.9555C164.814 72.6511 165.015 72.2381 165.015 71.7163C165.015 71.238 164.836 70.8466 164.477 70.5422C164.129 70.227 163.515 69.9117 162.635 69.5965L161.901 69.3356C161.118 69.0638 160.46 68.6725 159.928 68.1616C159.395 67.6506 159.129 66.9766 159.129 66.1396C159.129 65.5635 159.286 65.0308 159.602 64.5416C159.917 64.0524 160.352 63.6665 160.906 63.3839C161.471 63.0904 162.107 62.9436 162.814 62.9436C163.836 62.9436 164.651 63.1936 165.26 63.6937C165.869 64.1829 166.276 64.7373 166.483 65.3569L164.836 66.0581C164.716 65.6885 164.488 65.3624 164.151 65.0797C163.814 64.7971 163.379 64.6558 162.847 64.6558C162.314 64.6558 161.863 64.7916 161.493 65.0634C161.134 65.3352 160.955 65.683 160.955 66.107C160.955 66.5092 161.118 66.8408 161.444 67.1017C161.77 67.3626 162.281 67.6126 162.977 67.8517L163.711 68.0963C164.711 68.4442 165.483 68.9008 166.026 69.466C166.581 70.0204 166.858 70.7651 166.858 71.7C166.858 72.4609 166.662 73.1023 166.271 73.6241C165.88 74.135 165.379 74.5155 164.771 74.7655C164.173 75.0155 163.553 75.1405 162.912 75.1405ZM171.648 75.0101C171.278 75.0101 170.93 74.9503 170.604 74.8307C170.278 74.7111 170.012 74.5535 169.805 74.3578C169.338 73.8904 169.104 73.2545 169.104 72.45V68.1452H167.653V66.5636H169.104V64.2155H170.898V66.5636H172.92V68.1452H170.898V72.0587C170.898 72.5044 170.985 72.8196 171.159 73.0044C171.322 73.2219 171.604 73.3306 172.007 73.3306C172.191 73.3306 172.354 73.3088 172.496 73.2653C172.637 73.211 172.789 73.1295 172.952 73.0208V74.7655C172.594 74.9286 172.159 75.0101 171.648 75.0101ZM177.658 75.1405C176.647 75.1405 175.876 74.8416 175.343 74.2437C174.821 73.6349 174.56 72.7925 174.56 71.7163V66.5636H176.354V71.4717C176.354 72.1457 176.511 72.6511 176.827 72.9881C177.153 73.3251 177.577 73.4936 178.099 73.4936C178.523 73.4936 178.898 73.3849 179.224 73.1675C179.55 72.9392 179.8 72.6403 179.974 72.2707C180.148 71.9011 180.235 71.5043 180.235 71.0803V66.5636H182.028V74.8796H180.333V73.8034H180.235C180.006 74.1948 179.653 74.5155 179.175 74.7655C178.696 75.0155 178.191 75.1405 177.658 75.1405ZM187.591 75.1405C186.841 75.1405 186.162 74.9503 185.553 74.5698C184.944 74.1894 184.46 73.6676 184.102 73.0044C183.754 72.3305 183.58 71.5695 183.58 70.7216C183.58 69.8737 183.754 69.1182 184.102 68.4551C184.46 67.7811 184.944 67.2539 185.553 66.8734C186.162 66.4929 186.841 66.3027 187.591 66.3027C188.178 66.3027 188.705 66.4331 189.173 66.694C189.64 66.9549 189.994 67.2756 190.233 67.6561H190.314L190.233 66.482V63.2045H192.026V74.8796H190.314V73.8034H190.233C189.994 74.173 189.64 74.4883 189.173 74.7492C188.705 75.0101 188.178 75.1405 187.591 75.1405ZM187.852 73.4936C188.287 73.4936 188.689 73.3795 189.059 73.1512C189.439 72.9229 189.744 72.5968 189.972 72.1728C190.2 71.7489 190.314 71.2651 190.314 70.7216C190.314 70.1781 190.2 69.6998 189.972 69.2867C189.744 68.8627 189.439 68.5366 189.059 68.3083C188.689 68.08 188.287 67.9659 187.852 67.9659C187.417 67.9659 187.01 68.08 186.629 68.3083C186.249 68.5366 185.944 68.8627 185.716 69.2867C185.488 69.6998 185.374 70.1781 185.374 70.7216C185.374 71.2651 185.488 71.7489 185.716 72.1728C185.944 72.5968 186.249 72.9229 186.629 73.1512C187.01 73.3795 187.417 73.4936 187.852 73.4936ZM197.836 75.1405C197.021 75.1405 196.287 74.9503 195.635 74.5698C194.993 74.1894 194.488 73.6676 194.118 73.0044C193.759 72.3305 193.58 71.5749 193.58 70.7379C193.58 69.9443 193.754 69.2106 194.102 68.5366C194.461 67.8517 194.955 67.3082 195.586 66.906C196.216 66.5038 196.934 66.3027 197.738 66.3027C198.575 66.3027 199.298 66.4875 199.907 66.8571C200.526 67.2267 200.994 67.7322 201.309 68.3735C201.635 69.0149 201.798 69.7378 201.798 70.5422C201.798 70.6944 201.782 70.8847 201.749 71.1129H195.374C195.439 71.8848 195.711 72.4827 196.189 72.9066C196.678 73.3197 197.243 73.5262 197.885 73.5262C198.396 73.5262 198.836 73.4121 199.206 73.1838C199.586 72.9447 199.89 72.624 200.119 72.2218L201.635 72.9392C201.244 73.6241 200.733 74.1622 200.102 74.5535C199.472 74.9449 198.716 75.1405 197.836 75.1405ZM199.972 69.7432C199.95 69.4497 199.858 69.1617 199.695 68.879C199.532 68.5855 199.282 68.3409 198.945 68.1452C198.619 67.9496 198.216 67.8517 197.738 67.8517C197.162 67.8517 196.673 68.0257 196.271 68.3735C195.879 68.7105 195.607 69.1671 195.455 69.7432H199.972ZM203.432 66.5636H205.144V67.6561H205.225C205.464 67.2647 205.818 66.944 206.285 66.694C206.764 66.4331 207.269 66.3027 207.802 66.3027C208.813 66.3027 209.579 66.6016 210.101 67.1995C210.633 67.7865 210.9 68.5909 210.9 69.6128V74.8796H209.106V69.8574C209.106 69.2051 208.943 68.7268 208.617 68.4225C208.302 68.1181 207.861 67.9659 207.296 67.9659C206.894 67.9659 206.535 68.08 206.22 68.3083C205.905 68.5257 205.66 68.8192 205.486 69.1888C205.312 69.5584 205.225 69.9552 205.225 70.3792V74.8796H203.432V66.5636ZM215.916 75.0101C215.547 75.0101 215.199 74.9503 214.873 74.8307C214.547 74.7111 214.28 74.5535 214.074 74.3578C213.606 73.8904 213.372 73.2545 213.372 72.45V68.1452H211.921V66.5636H213.372V64.2155H215.166V66.5636H217.188V68.1452H215.166V72.0587C215.166 72.5044 215.253 72.8196 215.427 73.0044C215.59 73.2219 215.873 73.3306 216.275 73.3306C216.46 73.3306 216.623 73.3088 216.764 73.2653C216.905 73.211 217.058 73.1295 217.221 73.0208V74.7655C216.862 74.9286 216.427 75.0101 215.916 75.0101ZM228.202 75.1405C227.071 75.1405 226.039 74.8742 225.104 74.3415C224.169 73.8089 223.435 73.0751 222.902 72.1402C222.37 71.2053 222.103 70.1726 222.103 69.0421C222.103 67.9115 222.37 66.8788 222.902 65.9439C223.435 65.0091 224.169 64.2753 225.104 63.7426C226.039 63.21 227.071 62.9436 228.202 62.9436C229.082 62.9436 229.881 63.1067 230.599 63.4328C231.327 63.7589 231.969 64.2318 232.523 64.8514L231.219 66.107C230.816 65.6287 230.371 65.2754 229.881 65.0471C229.392 64.8079 228.832 64.6884 228.202 64.6884C227.419 64.6884 226.702 64.8677 226.05 65.2265C225.408 65.5852 224.897 66.0961 224.517 66.7592C224.136 67.4115 223.946 68.1724 223.946 69.0421C223.946 69.9117 224.136 70.6781 224.517 71.3412C224.897 71.9935 225.408 72.499 226.05 72.8577C226.702 73.2164 227.419 73.3958 228.202 73.3958C229.506 73.3958 230.615 72.8523 231.528 71.7652L232.849 73.0371C232.284 73.7002 231.604 74.2165 230.811 74.5861C230.017 74.9557 229.148 75.1405 228.202 75.1405ZM234.435 63.2045H236.229V74.8796H234.435V63.2045ZM241.37 75.1405C240.359 75.1405 239.587 74.8416 239.054 74.2437C238.532 73.6349 238.272 72.7925 238.272 71.7163V66.5636H240.065V71.4717C240.065 72.1457 240.223 72.6511 240.538 72.9881C240.864 73.3251 241.288 73.4936 241.81 73.4936C242.234 73.4936 242.609 73.3849 242.935 73.1675C243.261 72.9392 243.511 72.6403 243.685 72.2707C243.859 71.9011 243.946 71.5043 243.946 71.0803V66.5636H245.74V74.8796H244.044V73.8034H243.946C243.718 74.1948 243.364 74.5155 242.886 74.7655C242.408 75.0155 241.902 75.1405 241.37 75.1405ZM252.263 75.1405C251.676 75.1405 251.148 75.0101 250.681 74.7492C250.213 74.4883 249.86 74.173 249.621 73.8034H249.54V74.8796H247.827V63.2045H249.621V66.482L249.54 67.6561H249.621C249.86 67.2756 250.213 66.9549 250.681 66.694C251.148 66.4331 251.676 66.3027 252.263 66.3027C253.013 66.3027 253.692 66.4929 254.301 66.8734C254.91 67.2539 255.388 67.7811 255.736 68.4551C256.095 69.1182 256.274 69.8737 256.274 70.7216C256.274 71.5695 256.095 72.3305 255.736 73.0044C255.388 73.6676 254.91 74.1894 254.301 74.5698C253.692 74.9503 253.013 75.1405 252.263 75.1405ZM252.002 73.4936C252.437 73.4936 252.844 73.3795 253.225 73.1512C253.605 72.9229 253.91 72.5968 254.138 72.1728C254.366 71.7489 254.48 71.2651 254.48 70.7216C254.48 70.1781 254.366 69.6998 254.138 69.2867C253.91 68.8627 253.605 68.5366 253.225 68.3083C252.844 68.08 252.437 67.9659 252.002 67.9659C251.567 67.9659 251.159 68.08 250.779 68.3083C250.409 68.5366 250.11 68.8627 249.882 69.2867C249.654 69.6998 249.54 70.1781 249.54 70.7216C249.54 71.2651 249.654 71.7489 249.882 72.1728C250.11 72.5968 250.409 72.9229 250.779 73.1512C251.159 73.3795 251.567 73.4936 252.002 73.4936ZM260.86 75.1405C259.904 75.1405 259.121 74.934 258.512 74.5209C257.904 74.0969 257.474 73.5589 257.224 72.9066L258.822 72.2054C259.018 72.6403 259.29 72.9718 259.638 73.2001C259.996 73.4284 260.404 73.5425 260.86 73.5425C261.306 73.5425 261.681 73.4664 261.986 73.3143C262.29 73.1512 262.442 72.912 262.442 72.5968C262.442 72.2924 262.312 72.0533 262.051 71.8793C261.79 71.7054 261.388 71.5532 260.844 71.4228L259.849 71.1782C259.186 71.0151 258.637 70.727 258.203 70.314C257.768 69.9009 257.55 69.3791 257.55 68.7486C257.55 68.2594 257.692 67.83 257.974 67.4604C258.268 67.0908 258.659 66.8082 259.148 66.6125C259.638 66.4059 260.17 66.3027 260.746 66.3027C261.518 66.3027 262.198 66.4603 262.785 66.7755C263.372 67.0799 263.796 67.5256 264.056 68.1126L262.491 68.7975C262.176 68.1561 261.6 67.8354 260.763 67.8354C260.36 67.8354 260.023 67.917 259.752 68.08C259.48 68.2431 259.344 68.4551 259.344 68.716C259.344 68.966 259.447 69.1725 259.654 69.3356C259.86 69.4878 260.165 69.6182 260.567 69.7269L261.79 70.0367C262.605 70.2433 263.219 70.5585 263.632 70.9825C264.056 71.3956 264.268 71.9065 264.268 72.5153C264.268 73.0371 264.116 73.4991 263.812 73.9013C263.518 74.2926 263.111 74.597 262.589 74.8144C262.067 75.0318 261.491 75.1405 260.86 75.1405Z" fill="white"/>
<rect width="23.3115" height="7.81905" rx="3.90953" transform="matrix(-0.866025 0.5 0.5 0.866025 174.504 27.7881)" fill="#FBBC04"/>
<rect width="23.3115" height="7.81905" rx="3.90953" transform="matrix(0.866025 -0.5 -0.5 -0.866025 131.371 38.4272)" fill="#EA4335"/>
<rect x="131.041" y="27.7871" width="23.3115" height="7.81905" rx="3.90953" transform="rotate(30 131.041 27.7871)" fill="#4285F4"/>
<rect x="174.504" y="38.4272" width="23.3115" height="7.81905" rx="3.64648" transform="rotate(-150 174.504 38.4272)" fill="#0F9D58"/>
<path d="M12.9641 95.7704C12.4041 95.7704 11.8907 95.6004 11.4241 95.2604C10.9574 94.9204 10.6374 94.4437 10.4641 93.8304L11.2741 93.5004C11.3874 93.927 11.5974 94.277 11.9041 94.5504C12.2107 94.8237 12.5707 94.9604 12.9841 94.9604C13.3974 94.9604 13.7474 94.8504 14.0341 94.6304C14.3207 94.4037 14.4641 94.097 14.4641 93.7104C14.4641 93.377 14.3407 93.1037 14.0941 92.8904C13.8541 92.6704 13.4574 92.467 12.9041 92.2804L12.4541 92.1204C11.9474 91.9404 11.5341 91.7037 11.2141 91.4104C10.8941 91.117 10.7341 90.7104 10.7341 90.1904C10.7341 89.8504 10.8274 89.537 11.0141 89.2504C11.2007 88.957 11.4607 88.7237 11.7941 88.5504C12.1274 88.377 12.5007 88.2904 12.9141 88.2904C13.3274 88.2904 13.6874 88.367 13.9941 88.5204C14.3007 88.6737 14.5441 88.8604 14.7241 89.0804C14.9107 89.3004 15.0407 89.517 15.1141 89.7304L14.3141 90.0704C14.2474 89.8237 14.0941 89.6004 13.8541 89.4004C13.6207 89.2004 13.3107 89.1004 12.9241 89.1004C12.5574 89.1004 12.2441 89.2037 11.9841 89.4104C11.7241 89.617 11.5941 89.877 11.5941 90.1904C11.5941 90.4704 11.7041 90.7004 11.9241 90.8804C12.1441 91.0537 12.4774 91.217 12.9241 91.3704L13.3941 91.5304C14.0007 91.7504 14.4741 92.027 14.8141 92.3604C15.1541 92.687 15.3241 93.1337 15.3241 93.7004C15.3241 94.1604 15.2041 94.547 14.9641 94.8604C14.7307 95.1737 14.4341 95.4037 14.0741 95.5504C13.7141 95.697 13.3441 95.7704 12.9641 95.7704ZM18.1056 95.6904C17.899 95.6904 17.7056 95.657 17.5256 95.5904C17.3523 95.5237 17.2056 95.4337 17.0856 95.3204C16.9523 95.1937 16.8523 95.047 16.7856 94.8804C16.719 94.7137 16.6856 94.5104 16.6856 94.2704V91.2804H15.7956V90.5104H16.6856V89.0704H17.5356V90.5104H18.7756V91.2804H17.5356V94.0604C17.5356 94.3404 17.589 94.547 17.6956 94.6804C17.8223 94.827 18.0056 94.9004 18.2456 94.9004C18.439 94.9004 18.6256 94.8437 18.8056 94.7304V95.5604C18.7056 95.607 18.6023 95.6404 18.4956 95.6604C18.3956 95.6804 18.2656 95.6904 18.1056 95.6904ZM20.3677 95.6704C20.1877 95.6704 20.0344 95.6104 19.9077 95.4904C19.7877 95.3637 19.7277 95.2104 19.7277 95.0304C19.7277 94.857 19.7877 94.7104 19.9077 94.5904C20.0344 94.4637 20.1877 94.4004 20.3677 94.4004C20.5411 94.4004 20.6877 94.4637 20.8077 94.5904C20.9344 94.7104 20.9977 94.857 20.9977 95.0304C20.9977 95.2104 20.9344 95.3637 20.8077 95.4904C20.6877 95.6104 20.5411 95.6704 20.3677 95.6704ZM23.6244 88.4504H24.5644L26.3344 93.6404L26.5744 94.3504H26.6144L26.8644 93.6404L28.7144 88.4504H29.6544L27.0344 95.6104H26.1544L23.6244 88.4504ZM30.7179 89.5704C30.5512 89.5704 30.4079 89.5104 30.2879 89.3904C30.1679 89.2704 30.1079 89.127 30.1079 88.9604C30.1079 88.7937 30.1679 88.6537 30.2879 88.5404C30.4079 88.4204 30.5512 88.3604 30.7179 88.3604C30.8846 88.3604 31.0279 88.4204 31.1479 88.5404C31.2679 88.6537 31.3279 88.7937 31.3279 88.9604C31.3279 89.127 31.2679 89.2704 31.1479 89.3904C31.0346 89.5104 30.8912 89.5704 30.7179 89.5704ZM30.2979 90.5104H31.1379V95.6104H30.2979V90.5104ZM32.4738 90.5104H33.2838V91.2604H33.3238C33.4638 91.007 33.6871 90.7937 33.9938 90.6204C34.3004 90.4404 34.6271 90.3504 34.9738 90.3504C35.5871 90.3504 36.0538 90.5304 36.3738 90.8904C36.7004 91.2437 36.8638 91.727 36.8638 92.3404V95.6104H36.0138V92.4704C36.0138 91.997 35.9004 91.6537 35.6738 91.4404C35.4471 91.227 35.1371 91.1204 34.7438 91.1204C34.4704 91.1204 34.2238 91.197 34.0038 91.3504C33.7904 91.5037 33.6238 91.707 33.5038 91.9604C33.3838 92.207 33.3238 92.467 33.3238 92.7404V95.6104H32.4738V90.5104ZM40.3892 95.7704C39.8959 95.7704 39.4526 95.6537 39.0592 95.4204C38.6659 95.1804 38.3592 94.857 38.1392 94.4504C37.9192 94.037 37.8092 93.5737 37.8092 93.0604C37.8092 92.547 37.9192 92.0837 38.1392 91.6704C38.3592 91.257 38.6659 90.9337 39.0592 90.7004C39.4526 90.467 39.8959 90.3504 40.3892 90.3504C40.9426 90.3504 41.4059 90.4804 41.7792 90.7404C42.1592 90.9937 42.4292 91.3337 42.5892 91.7604L41.8192 92.0804C41.6926 91.767 41.5026 91.5304 41.2492 91.3704C41.0026 91.2037 40.7026 91.1204 40.3492 91.1204C40.0492 91.1204 39.7692 91.2037 39.5092 91.3704C39.2492 91.5304 39.0392 91.757 38.8792 92.0504C38.7259 92.3437 38.6492 92.6804 38.6492 93.0604C38.6492 93.4404 38.7259 93.777 38.8792 94.0704C39.0392 94.3637 39.2492 94.5937 39.5092 94.7604C39.7692 94.9204 40.0492 95.0004 40.3492 95.0004C40.7092 95.0004 41.0192 94.917 41.2792 94.7504C41.5392 94.5837 41.7326 94.347 41.8592 94.0404L42.6192 94.3604C42.4459 94.7804 42.1659 95.1204 41.7792 95.3804C41.3992 95.6404 40.9359 95.7704 40.3892 95.7704ZM45.7594 95.7704C45.2727 95.7704 44.836 95.6537 44.4494 95.4204C44.0627 95.187 43.7594 94.867 43.5394 94.4604C43.326 94.047 43.2194 93.5837 43.2194 93.0704C43.2194 92.577 43.3194 92.1237 43.5194 91.7104C43.726 91.297 44.016 90.967 44.3894 90.7204C44.7627 90.4737 45.196 90.3504 45.6894 90.3504C46.1894 90.3504 46.6227 90.4637 46.9894 90.6904C47.356 90.9104 47.636 91.217 47.8294 91.6104C48.0294 92.0037 48.1294 92.4537 48.1294 92.9604C48.1294 93.0604 48.1194 93.147 48.0994 93.2204H44.0694C44.0894 93.607 44.1827 93.9337 44.3494 94.2004C44.516 94.467 44.726 94.667 44.9794 94.8004C45.2394 94.9337 45.5094 95.0004 45.7894 95.0004C46.4427 95.0004 46.946 94.6937 47.2994 94.0804L48.0194 94.4304C47.7994 94.8437 47.4994 95.1704 47.1194 95.4104C46.746 95.6504 46.2927 95.7704 45.7594 95.7704ZM47.2294 92.5204C47.216 92.307 47.156 92.0937 47.0494 91.8804C46.9427 91.667 46.7727 91.487 46.5394 91.3404C46.3127 91.1937 46.026 91.1204 45.6794 91.1204C45.2794 91.1204 44.9394 91.2504 44.6594 91.5104C44.386 91.7637 44.206 92.1004 44.1194 92.5204H47.2294ZM49.1241 90.5104H49.9341V91.2604H49.9741C50.1141 91.007 50.3375 90.7937 50.6441 90.6204C50.9508 90.4404 51.2775 90.3504 51.6241 90.3504C52.2375 90.3504 52.7041 90.5304 53.0241 90.8904C53.3508 91.2437 53.5141 91.727 53.5141 92.3404V95.6104H52.6641V92.4704C52.6641 91.997 52.5508 91.6537 52.3241 91.4404C52.0975 91.227 51.7875 91.1204 51.3941 91.1204C51.1208 91.1204 50.8741 91.197 50.6541 91.3504C50.4408 91.5037 50.2741 91.707 50.1541 91.9604C50.0341 92.207 49.9741 92.467 49.9741 92.7404V95.6104H49.1241V90.5104ZM56.4357 95.6904C56.229 95.6904 56.0357 95.657 55.8557 95.5904C55.6824 95.5237 55.5357 95.4337 55.4157 95.3204C55.2824 95.1937 55.1824 95.047 55.1157 94.8804C55.049 94.7137 55.0157 94.5104 55.0157 94.2704V91.2804H54.1257V90.5104H55.0157V89.0704H55.8657V90.5104H57.1057V91.2804H55.8657V94.0604C55.8657 94.3404 55.919 94.547 56.0257 94.6804C56.1524 94.827 56.3357 94.9004 56.5757 94.9004C56.769 94.9004 56.9557 94.8437 57.1357 94.7304V95.5604C57.0357 95.607 56.9324 95.6404 56.8257 95.6604C56.7257 95.6804 56.5957 95.6904 56.4357 95.6904ZM60.632 88.4504H63.042C63.442 88.4504 63.812 88.5404 64.152 88.7204C64.492 88.9004 64.762 89.1537 64.962 89.4804C65.1687 89.8004 65.272 90.1637 65.272 90.5704C65.272 90.977 65.1687 91.3437 64.962 91.6704C64.762 91.9904 64.492 92.2404 64.152 92.4204C63.812 92.6004 63.442 92.6904 63.042 92.6904H61.472V95.6104H60.632V88.4504ZM63.062 91.8804C63.3287 91.8804 63.562 91.817 63.762 91.6904C63.9687 91.5637 64.1287 91.4004 64.242 91.2004C64.3554 91.0004 64.412 90.7904 64.412 90.5704C64.412 90.3504 64.3554 90.1404 64.242 89.9404C64.1287 89.7404 63.9687 89.577 63.762 89.4504C63.562 89.3237 63.3287 89.2604 63.062 89.2604H61.472V91.8804H63.062ZM67.6584 95.7704C67.2851 95.7704 66.9518 95.697 66.6584 95.5504C66.3651 95.4037 66.1384 95.2037 65.9784 94.9504C65.8184 94.6904 65.7384 94.397 65.7384 94.0704C65.7384 93.5304 65.9418 93.1104 66.3484 92.8104C66.7551 92.5037 67.2684 92.3504 67.8884 92.3504C68.1951 92.3504 68.4784 92.3837 68.7384 92.4504C69.0051 92.517 69.2084 92.5937 69.3484 92.6804V92.3704C69.3484 91.9904 69.2151 91.687 68.9484 91.4604C68.6818 91.227 68.3451 91.1104 67.9384 91.1104C67.6518 91.1104 67.3884 91.1737 67.1484 91.3004C66.9084 91.4204 66.7184 91.5904 66.5784 91.8104L65.9384 91.3304C66.1384 91.0237 66.4118 90.7837 66.7584 90.6104C67.1118 90.437 67.5018 90.3504 67.9284 90.3504C68.6218 90.3504 69.1651 90.5337 69.5584 90.9004C69.9584 91.2604 70.1584 91.7537 70.1584 92.3804V95.6104H69.3484V94.8804H69.3084C69.1618 95.127 68.9418 95.337 68.6484 95.5104C68.3551 95.6837 68.0251 95.7704 67.6584 95.7704ZM67.7384 95.0204C68.0251 95.0204 68.2918 94.947 68.5384 94.8004C68.7851 94.6537 68.9818 94.457 69.1284 94.2104C69.2751 93.9637 69.3484 93.6937 69.3484 93.4004C69.1884 93.2937 68.9918 93.207 68.7584 93.1404C68.5251 93.0737 68.2784 93.0404 68.0184 93.0404C67.5518 93.0404 67.1984 93.137 66.9584 93.3304C66.7251 93.5237 66.6084 93.7737 66.6084 94.0804C66.6084 94.3604 66.7151 94.587 66.9284 94.7604C67.1418 94.9337 67.4118 95.0204 67.7384 95.0204ZM71.3409 88.4504H72.1909V95.6104H71.3409V88.4504ZM73.4503 88.4504H74.3003V95.6104H73.4503V88.4504ZM77.8609 95.7704C77.3609 95.7704 76.9109 95.6504 76.5109 95.4104C76.1109 95.1704 75.7975 94.8437 75.5709 94.4304C75.3509 94.017 75.2409 93.5604 75.2409 93.0604C75.2409 92.5604 75.3509 92.1037 75.5709 91.6904C75.7975 91.277 76.1109 90.9504 76.5109 90.7104C76.9109 90.4704 77.3609 90.3504 77.8609 90.3504C78.3609 90.3504 78.8109 90.4704 79.2109 90.7104C79.6109 90.9504 79.9209 91.277 80.1409 91.6904C80.3675 92.1037 80.4809 92.5604 80.4809 93.0604C80.4809 93.5604 80.3675 94.017 80.1409 94.4304C79.9209 94.8437 79.6109 95.1704 79.2109 95.4104C78.8109 95.6504 78.3609 95.7704 77.8609 95.7704ZM77.8609 95.0004C78.1742 95.0004 78.4642 94.9237 78.7309 94.7704C79.0042 94.6104 79.2209 94.3837 79.3809 94.0904C79.5475 93.797 79.6309 93.4537 79.6309 93.0604C79.6309 92.667 79.5475 92.3237 79.3809 92.0304C79.2209 91.737 79.0042 91.5137 78.7309 91.3604C78.4642 91.2004 78.1742 91.1204 77.8609 91.1204C77.5475 91.1204 77.2542 91.2004 76.9809 91.3604C76.7075 91.5137 76.4875 91.737 76.3209 92.0304C76.1609 92.3237 76.0809 92.667 76.0809 93.0604C76.0809 93.4537 76.1609 93.797 76.3209 94.0904C76.4875 94.3837 76.7075 94.6104 76.9809 94.7704C77.2542 94.9237 77.5475 95.0004 77.8609 95.0004ZM83.2814 95.6904C83.0747 95.6904 82.8814 95.657 82.7014 95.5904C82.5281 95.5237 82.3814 95.4337 82.2614 95.3204C82.1281 95.1937 82.0281 95.047 81.9614 94.8804C81.8947 94.7137 81.8614 94.5104 81.8614 94.2704V91.2804H80.9714V90.5104H81.8614V89.0704H82.7114V90.5104H83.9514V91.2804H82.7114V94.0604C82.7114 94.3404 82.7647 94.547 82.8714 94.6804C82.9981 94.827 83.1814 94.9004 83.4214 94.9004C83.6147 94.9004 83.8014 94.8437 83.9814 94.7304V95.5604C83.8814 95.607 83.7781 95.6404 83.6714 95.6604C83.5714 95.6804 83.4414 95.6904 83.2814 95.6904ZM85.5323 89.5704C85.3657 89.5704 85.2223 89.5104 85.1023 89.3904C84.9823 89.2704 84.9223 89.127 84.9223 88.9604C84.9223 88.7937 84.9823 88.6537 85.1023 88.5404C85.2223 88.4204 85.3657 88.3604 85.5323 88.3604C85.699 88.3604 85.8423 88.4204 85.9623 88.5404C86.0823 88.6537 86.1423 88.7937 86.1423 88.9604C86.1423 89.127 86.0823 89.2704 85.9623 89.3904C85.849 89.5104 85.7057 89.5704 85.5323 89.5704ZM85.1123 90.5104H85.9523V95.6104H85.1123V90.5104ZM92.9471 95.7704C92.2538 95.7704 91.6238 95.607 91.0571 95.2804C90.4904 94.9537 90.0438 94.507 89.7171 93.9404C89.3971 93.367 89.2371 92.7304 89.2371 92.0304C89.2371 91.3304 89.3971 90.697 89.7171 90.1304C90.0438 89.557 90.4904 89.107 91.0571 88.7804C91.6238 88.4537 92.2538 88.2904 92.9471 88.2904C93.4804 88.2904 93.9671 88.3937 94.4071 88.6004C94.8538 88.8004 95.2404 89.087 95.5671 89.4604L94.9571 90.0504C94.6838 89.7237 94.3838 89.4837 94.0571 89.3304C93.7371 89.177 93.3671 89.1004 92.9471 89.1004C92.4271 89.1004 91.9504 89.2237 91.5171 89.4704C91.0838 89.7104 90.7371 90.0537 90.4771 90.5004C90.2238 90.9404 90.0971 91.4504 90.0971 92.0304C90.0971 92.6104 90.2238 93.1237 90.4771 93.5704C90.7371 94.0104 91.0838 94.3537 91.5171 94.6004C91.9504 94.8404 92.4271 94.9604 92.9471 94.9604C93.8138 94.9604 94.5504 94.6037 95.1571 93.8904L95.7771 94.4904C95.4438 94.8837 95.0338 95.197 94.5471 95.4304C94.0604 95.657 93.5271 95.7704 92.9471 95.7704ZM98.9839 95.7704C98.4839 95.7704 98.0339 95.6504 97.6339 95.4104C97.2339 95.1704 96.9206 94.8437 96.6939 94.4304C96.4739 94.017 96.3639 93.5604 96.3639 93.0604C96.3639 92.5604 96.4739 92.1037 96.6939 91.6904C96.9206 91.277 97.2339 90.9504 97.6339 90.7104C98.0339 90.4704 98.4839 90.3504 98.9839 90.3504C99.4839 90.3504 99.9339 90.4704 100.334 90.7104C100.734 90.9504 101.044 91.277 101.264 91.6904C101.491 92.1037 101.604 92.5604 101.604 93.0604C101.604 93.5604 101.491 94.017 101.264 94.4304C101.044 94.8437 100.734 95.1704 100.334 95.4104C99.9339 95.6504 99.4839 95.7704 98.9839 95.7704ZM98.9839 95.0004C99.2972 95.0004 99.5872 94.9237 99.8539 94.7704C100.127 94.6104 100.344 94.3837 100.504 94.0904C100.671 93.797 100.754 93.4537 100.754 93.0604C100.754 92.667 100.671 92.3237 100.504 92.0304C100.344 91.737 100.127 91.5137 99.8539 91.3604C99.5872 91.2004 99.2972 91.1204 98.9839 91.1204C98.6706 91.1204 98.3772 91.2004 98.1039 91.3604C97.8306 91.5137 97.6106 91.737 97.4439 92.0304C97.2839 92.3237 97.2039 92.667 97.2039 93.0604C97.2039 93.4537 97.2839 93.797 97.4439 94.0904C97.6106 94.3837 97.8306 94.6104 98.1039 94.7704C98.3772 94.9237 98.6706 95.0004 98.9839 95.0004ZM102.542 88.4504H103.392V95.6104H102.542V88.4504ZM104.651 88.4504H105.501V95.6104H104.651V88.4504ZM108.982 95.7704C108.495 95.7704 108.059 95.6537 107.672 95.4204C107.285 95.187 106.982 94.867 106.762 94.4604C106.549 94.047 106.442 93.5837 106.442 93.0704C106.442 92.577 106.542 92.1237 106.742 91.7104C106.949 91.297 107.239 90.967 107.612 90.7204C107.985 90.4737 108.419 90.3504 108.912 90.3504C109.412 90.3504 109.845 90.4637 110.212 90.6904C110.579 90.9104 110.859 91.217 111.052 91.6104C111.252 92.0037 111.352 92.4537 111.352 92.9604C111.352 93.0604 111.342 93.147 111.322 93.2204H107.292C107.312 93.607 107.405 93.9337 107.572 94.2004C107.739 94.467 107.949 94.667 108.202 94.8004C108.462 94.9337 108.732 95.0004 109.012 95.0004C109.665 95.0004 110.169 94.6937 110.522 94.0804L111.242 94.4304C111.022 94.8437 110.722 95.1704 110.342 95.4104C109.969 95.6504 109.515 95.7704 108.982 95.7704ZM110.452 92.5204C110.439 92.307 110.379 92.0937 110.272 91.8804C110.165 91.667 109.995 91.487 109.762 91.3404C109.535 91.1937 109.249 91.1204 108.902 91.1204C108.502 91.1204 108.162 91.2504 107.882 91.5104C107.609 91.7637 107.429 92.1004 107.342 92.5204H110.452ZM114.636 97.9304C114.036 97.9304 113.539 97.7904 113.146 97.5104C112.759 97.2304 112.499 96.8937 112.366 96.5004L113.136 96.1704C113.249 96.4637 113.436 96.7004 113.696 96.8804C113.962 97.067 114.276 97.1604 114.636 97.1604C115.162 97.1604 115.569 97.007 115.856 96.7004C116.149 96.3937 116.296 95.9604 116.296 95.4004V94.8304H116.256C116.089 95.0904 115.852 95.3037 115.546 95.4704C115.246 95.6304 114.902 95.7104 114.516 95.7104C114.076 95.7104 113.672 95.597 113.306 95.3704C112.946 95.1437 112.659 94.827 112.446 94.4204C112.232 94.0137 112.126 93.5504 112.126 93.0304C112.126 92.517 112.232 92.057 112.446 91.6504C112.659 91.237 112.946 90.917 113.306 90.6904C113.672 90.4637 114.076 90.3504 114.516 90.3504C114.902 90.3504 115.246 90.4337 115.546 90.6004C115.852 90.7604 116.089 90.9737 116.256 91.2404H116.296V90.5104H117.106V95.4104C117.106 96.2304 116.879 96.8537 116.426 97.2804C115.972 97.7137 115.376 97.9304 114.636 97.9304ZM114.636 94.9404C114.942 94.9404 115.219 94.8637 115.466 94.7104C115.719 94.557 115.919 94.337 116.066 94.0504C116.219 93.7637 116.296 93.4237 116.296 93.0304C116.296 92.6304 116.219 92.287 116.066 92.0004C115.919 91.7137 115.719 91.497 115.466 91.3504C115.219 91.197 114.942 91.1204 114.636 91.1204C114.329 91.1204 114.049 91.197 113.796 91.3504C113.542 91.5037 113.339 91.7237 113.186 92.0104C113.039 92.297 112.966 92.637 112.966 93.0304C112.966 93.4237 113.039 93.767 113.186 94.0604C113.339 94.347 113.542 94.567 113.796 94.7204C114.049 94.867 114.329 94.9404 114.636 94.9404ZM120.584 95.7704C120.097 95.7704 119.66 95.6537 119.274 95.4204C118.887 95.187 118.584 94.867 118.364 94.4604C118.15 94.047 118.044 93.5837 118.044 93.0704C118.044 92.577 118.144 92.1237 118.344 91.7104C118.55 91.297 118.84 90.967 119.214 90.7204C119.587 90.4737 120.02 90.3504 120.514 90.3504C121.014 90.3504 121.447 90.4637 121.814 90.6904C122.18 90.9104 122.46 91.217 122.654 91.6104C122.854 92.0037 122.954 92.4537 122.954 92.9604C122.954 93.0604 122.944 93.147 122.924 93.2204H118.894C118.914 93.607 119.007 93.9337 119.174 94.2004C119.34 94.467 119.55 94.667 119.804 94.8004C120.064 94.9337 120.334 95.0004 120.614 95.0004C121.267 95.0004 121.77 94.6937 122.124 94.0804L122.844 94.4304C122.624 94.8437 122.324 95.1704 121.944 95.4104C121.57 95.6504 121.117 95.7704 120.584 95.7704ZM122.054 92.5204C122.04 92.307 121.98 92.0937 121.874 91.8804C121.767 91.667 121.597 91.487 121.364 91.3404C121.137 91.1937 120.85 91.1204 120.504 91.1204C120.104 91.1204 119.764 91.2504 119.484 91.5104C119.21 91.7637 119.03 92.1004 118.944 92.5204H122.054ZM128.623 95.7704C128.123 95.7704 127.673 95.6504 127.273 95.4104C126.873 95.1704 126.559 94.8437 126.333 94.4304C126.113 94.017 126.003 93.5604 126.003 93.0604C126.003 92.5604 126.113 92.1037 126.333 91.6904C126.559 91.277 126.873 90.9504 127.273 90.7104C127.673 90.4704 128.123 90.3504 128.623 90.3504C129.123 90.3504 129.573 90.4704 129.973 90.7104C130.373 90.9504 130.683 91.277 130.903 91.6904C131.129 92.1037 131.243 92.5604 131.243 93.0604C131.243 93.5604 131.129 94.017 130.903 94.4304C130.683 94.8437 130.373 95.1704 129.973 95.4104C129.573 95.6504 129.123 95.7704 128.623 95.7704ZM128.623 95.0004C128.936 95.0004 129.226 94.9237 129.493 94.7704C129.766 94.6104 129.983 94.3837 130.143 94.0904C130.309 93.797 130.393 93.4537 130.393 93.0604C130.393 92.667 130.309 92.3237 130.143 92.0304C129.983 91.737 129.766 91.5137 129.493 91.3604C129.226 91.2004 128.936 91.1204 128.623 91.1204C128.309 91.1204 128.016 91.2004 127.743 91.3604C127.469 91.5137 127.249 91.737 127.083 92.0304C126.923 92.3237 126.843 92.667 126.843 93.0604C126.843 93.4537 126.923 93.797 127.083 94.0904C127.249 94.3837 127.469 94.6104 127.743 94.7704C128.016 94.9237 128.309 95.0004 128.623 95.0004ZM132.673 91.2804H131.733V90.5104H132.673V89.9604C132.673 89.6404 132.746 89.3604 132.893 89.1204C133.04 88.8804 133.236 88.697 133.483 88.5704C133.73 88.437 134.003 88.3704 134.303 88.3704C134.59 88.3704 134.84 88.4104 135.053 88.4904V89.3204C134.933 89.2737 134.82 89.237 134.713 89.2104C134.606 89.177 134.48 89.1604 134.333 89.1604C134.113 89.1604 133.923 89.2404 133.763 89.4004C133.603 89.5537 133.523 89.7704 133.523 90.0504V90.5104H134.833V91.2804H133.523V95.6104H132.673V91.2804ZM138.366 88.4504H142.506V89.2604H139.206V91.6304H142.186V92.4304H139.206V94.8004H142.506V95.6104H138.366V88.4504ZM143.607 90.5104H144.417V91.2604H144.457C144.597 91.007 144.82 90.7937 145.127 90.6204C145.433 90.4404 145.76 90.3504 146.107 90.3504C146.72 90.3504 147.187 90.5304 147.507 90.8904C147.833 91.2437 147.997 91.727 147.997 92.3404V95.6104H147.147V92.4704C147.147 91.997 147.033 91.6537 146.807 91.4404C146.58 91.227 146.27 91.1204 145.877 91.1204C145.603 91.1204 145.357 91.197 145.137 91.3504C144.923 91.5037 144.757 91.707 144.637 91.9604C144.517 92.207 144.457 92.467 144.457 92.7404V95.6104H143.607V90.5104ZM151.403 97.9304C150.803 97.9304 150.307 97.7904 149.913 97.5104C149.527 97.2304 149.267 96.8937 149.133 96.5004L149.903 96.1704C150.017 96.4637 150.203 96.7004 150.463 96.8804C150.73 97.067 151.043 97.1604 151.403 97.1604C151.93 97.1604 152.337 97.007 152.623 96.7004C152.917 96.3937 153.063 95.9604 153.063 95.4004V94.8304H153.023C152.857 95.0904 152.62 95.3037 152.313 95.4704C152.013 95.6304 151.67 95.7104 151.283 95.7104C150.843 95.7104 150.44 95.597 150.073 95.3704C149.713 95.1437 149.427 94.827 149.213 94.4204C149 94.0137 148.893 93.5504 148.893 93.0304C148.893 92.517 149 92.057 149.213 91.6504C149.427 91.237 149.713 90.917 150.073 90.6904C150.44 90.4637 150.843 90.3504 151.283 90.3504C151.67 90.3504 152.013 90.4337 152.313 90.6004C152.62 90.7604 152.857 90.9737 153.023 91.2404H153.063V90.5104H153.873V95.4104C153.873 96.2304 153.647 96.8537 153.193 97.2804C152.74 97.7137 152.143 97.9304 151.403 97.9304ZM151.403 94.9404C151.71 94.9404 151.987 94.8637 152.233 94.7104C152.487 94.557 152.687 94.337 152.833 94.0504C152.987 93.7637 153.063 93.4237 153.063 93.0304C153.063 92.6304 152.987 92.287 152.833 92.0004C152.687 91.7137 152.487 91.497 152.233 91.3504C151.987 91.197 151.71 91.1204 151.403 91.1204C151.097 91.1204 150.817 91.197 150.563 91.3504C150.31 91.5037 150.107 91.7237 149.953 92.0104C149.807 92.297 149.733 92.637 149.733 93.0304C149.733 93.4237 149.807 93.767 149.953 94.0604C150.107 94.347 150.31 94.567 150.563 94.7204C150.817 94.867 151.097 94.9404 151.403 94.9404ZM155.63 89.5704C155.463 89.5704 155.32 89.5104 155.2 89.3904C155.08 89.2704 155.02 89.127 155.02 88.9604C155.02 88.7937 155.08 88.6537 155.2 88.5404C155.32 88.4204 155.463 88.3604 155.63 88.3604C155.797 88.3604 155.94 88.4204 156.06 88.5404C156.18 88.6537 156.24 88.7937 156.24 88.9604C156.24 89.127 156.18 89.2704 156.06 89.3904C155.947 89.5104 155.803 89.5704 155.63 89.5704ZM155.21 90.5104H156.05V95.6104H155.21V90.5104ZM157.386 90.5104H158.196V91.2604H158.236C158.376 91.007 158.599 90.7937 158.906 90.6204C159.213 90.4404 159.539 90.3504 159.886 90.3504C160.499 90.3504 160.966 90.5304 161.286 90.8904C161.613 91.2437 161.776 91.727 161.776 92.3404V95.6104H160.926V92.4704C160.926 91.997 160.813 91.6537 160.586 91.4404C160.359 91.227 160.049 91.1204 159.656 91.1204C159.383 91.1204 159.136 91.197 158.916 91.3504C158.703 91.5037 158.536 91.707 158.416 91.9604C158.296 92.207 158.236 92.467 158.236 92.7404V95.6104H157.386V90.5104ZM165.261 95.7704C164.775 95.7704 164.338 95.6537 163.951 95.4204C163.565 95.187 163.261 94.867 163.041 94.4604C162.828 94.047 162.721 93.5837 162.721 93.0704C162.721 92.577 162.821 92.1237 163.021 91.7104C163.228 91.297 163.518 90.967 163.891 90.7204C164.265 90.4737 164.698 90.3504 165.191 90.3504C165.691 90.3504 166.125 90.4637 166.491 90.6904C166.858 90.9104 167.138 91.217 167.331 91.6104C167.531 92.0037 167.631 92.4537 167.631 92.9604C167.631 93.0604 167.621 93.147 167.601 93.2204H163.571C163.591 93.607 163.685 93.9337 163.851 94.2004C164.018 94.467 164.228 94.667 164.481 94.8004C164.741 94.9337 165.011 95.0004 165.291 95.0004C165.945 95.0004 166.448 94.6937 166.801 94.0804L167.521 94.4304C167.301 94.8437 167.001 95.1704 166.621 95.4104C166.248 95.6504 165.795 95.7704 165.261 95.7704ZM166.731 92.5204C166.718 92.307 166.658 92.0937 166.551 91.8804C166.445 91.667 166.275 91.487 166.041 91.3404C165.815 91.1937 165.528 91.1204 165.181 91.1204C164.781 91.1204 164.441 91.2504 164.161 91.5104C163.888 91.7637 163.708 92.1004 163.621 92.5204H166.731ZM170.945 95.7704C170.458 95.7704 170.022 95.6537 169.635 95.4204C169.248 95.187 168.945 94.867 168.725 94.4604C168.512 94.047 168.405 93.5837 168.405 93.0704C168.405 92.577 168.505 92.1237 168.705 91.7104C168.912 91.297 169.202 90.967 169.575 90.7204C169.948 90.4737 170.382 90.3504 170.875 90.3504C171.375 90.3504 171.808 90.4637 172.175 90.6904C172.542 90.9104 172.822 91.217 173.015 91.6104C173.215 92.0037 173.315 92.4537 173.315 92.9604C173.315 93.0604 173.305 93.147 173.285 93.2204H169.255C169.275 93.607 169.368 93.9337 169.535 94.2004C169.702 94.467 169.912 94.667 170.165 94.8004C170.425 94.9337 170.695 95.0004 170.975 95.0004C171.628 95.0004 172.132 94.6937 172.485 94.0804L173.205 94.4304C172.985 94.8437 172.685 95.1704 172.305 95.4104C171.932 95.6504 171.478 95.7704 170.945 95.7704ZM172.415 92.5204C172.402 92.307 172.342 92.0937 172.235 91.8804C172.128 91.667 171.958 91.487 171.725 91.3404C171.498 91.1937 171.212 91.1204 170.865 91.1204C170.465 91.1204 170.125 91.2504 169.845 91.5104C169.572 91.7637 169.392 92.1004 169.305 92.5204H172.415ZM174.31 90.5104H175.12V91.3304H175.16C175.26 91.0504 175.453 90.8204 175.74 90.6404C176.026 90.4537 176.326 90.3604 176.64 90.3604C176.873 90.3604 177.073 90.3937 177.24 90.4604V91.3804C177.026 91.2737 176.786 91.2204 176.52 91.2204C176.273 91.2204 176.046 91.2904 175.84 91.4304C175.633 91.5704 175.466 91.7604 175.34 92.0004C175.22 92.2337 175.16 92.487 175.16 92.7604V95.6104H174.31V90.5104ZM178.56 89.5704C178.393 89.5704 178.25 89.5104 178.13 89.3904C178.01 89.2704 177.95 89.127 177.95 88.9604C177.95 88.7937 178.01 88.6537 178.13 88.5404C178.25 88.4204 178.393 88.3604 178.56 88.3604C178.726 88.3604 178.87 88.4204 178.99 88.5404C179.11 88.6537 179.17 88.7937 179.17 88.9604C179.17 89.127 179.11 89.2704 178.99 89.3904C178.876 89.5104 178.733 89.5704 178.56 89.5704ZM178.14 90.5104H178.98V95.6104H178.14V90.5104ZM180.316 90.5104H181.126V91.2604H181.166C181.306 91.007 181.529 90.7937 181.836 90.6204C182.142 90.4404 182.469 90.3504 182.816 90.3504C183.429 90.3504 183.896 90.5304 184.216 90.8904C184.542 91.2437 184.706 91.727 184.706 92.3404V95.6104H183.856V92.4704C183.856 91.997 183.742 91.6537 183.516 91.4404C183.289 91.227 182.979 91.1204 182.586 91.1204C182.312 91.1204 182.066 91.197 181.846 91.3504C181.632 91.5037 181.466 91.707 181.346 91.9604C181.226 92.207 181.166 92.467 181.166 92.7404V95.6104H180.316V90.5104ZM188.112 97.9304C187.512 97.9304 187.016 97.7904 186.622 97.5104C186.236 97.2304 185.976 96.8937 185.842 96.5004L186.612 96.1704C186.726 96.4637 186.912 96.7004 187.172 96.8804C187.439 97.067 187.752 97.1604 188.112 97.1604C188.639 97.1604 189.046 97.007 189.332 96.7004C189.626 96.3937 189.772 95.9604 189.772 95.4004V94.8304H189.732C189.566 95.0904 189.329 95.3037 189.022 95.4704C188.722 95.6304 188.379 95.7104 187.992 95.7104C187.552 95.7104 187.149 95.597 186.782 95.3704C186.422 95.1437 186.136 94.827 185.922 94.4204C185.709 94.0137 185.602 93.5504 185.602 93.0304C185.602 92.517 185.709 92.057 185.922 91.6504C186.136 91.237 186.422 90.917 186.782 90.6904C187.149 90.4637 187.552 90.3504 187.992 90.3504C188.379 90.3504 188.722 90.4337 189.022 90.6004C189.329 90.7604 189.566 90.9737 189.732 91.2404H189.772V90.5104H190.582V95.4104C190.582 96.2304 190.356 96.8537 189.902 97.2804C189.449 97.7137 188.852 97.9304 188.112 97.9304ZM188.112 94.9404C188.419 94.9404 188.696 94.8637 188.942 94.7104C189.196 94.557 189.396 94.337 189.542 94.0504C189.696 93.7637 189.772 93.4237 189.772 93.0304C189.772 92.6304 189.696 92.287 189.542 92.0004C189.396 91.7137 189.196 91.497 188.942 91.3504C188.696 91.197 188.419 91.1204 188.112 91.1204C187.806 91.1204 187.526 91.197 187.272 91.3504C187.019 91.5037 186.816 91.7237 186.662 92.0104C186.516 92.297 186.442 92.637 186.442 93.0304C186.442 93.4237 186.516 93.767 186.662 94.0604C186.816 94.347 187.019 94.567 187.272 94.7204C187.526 94.867 187.806 94.9404 188.112 94.9404ZM195.793 95.7704C195.42 95.7704 195.087 95.697 194.793 95.5504C194.5 95.4037 194.273 95.2037 194.113 94.9504C193.953 94.6904 193.873 94.397 193.873 94.0704C193.873 93.5304 194.077 93.1104 194.483 92.8104C194.89 92.5037 195.403 92.3504 196.023 92.3504C196.33 92.3504 196.613 92.3837 196.873 92.4504C197.14 92.517 197.343 92.5937 197.483 92.6804V92.3704C197.483 91.9904 197.35 91.687 197.083 91.4604C196.817 91.227 196.48 91.1104 196.073 91.1104C195.787 91.1104 195.523 91.1737 195.283 91.3004C195.043 91.4204 194.853 91.5904 194.713 91.8104L194.073 91.3304C194.273 91.0237 194.547 90.7837 194.893 90.6104C195.247 90.437 195.637 90.3504 196.063 90.3504C196.757 90.3504 197.3 90.5337 197.693 90.9004C198.093 91.2604 198.293 91.7537 198.293 92.3804V95.6104H197.483V94.8804H197.443C197.297 95.127 197.077 95.337 196.783 95.5104C196.49 95.6837 196.16 95.7704 195.793 95.7704ZM195.873 95.0204C196.16 95.0204 196.427 94.947 196.673 94.8004C196.92 94.6537 197.117 94.457 197.263 94.2104C197.41 93.9637 197.483 93.6937 197.483 93.4004C197.323 93.2937 197.127 93.207 196.893 93.1404C196.66 93.0737 196.413 93.0404 196.153 93.0404C195.687 93.0404 195.333 93.137 195.093 93.3304C194.86 93.5237 194.743 93.7737 194.743 94.0804C194.743 94.3604 194.85 94.587 195.063 94.7604C195.277 94.9337 195.547 95.0204 195.873 95.0204ZM199.476 90.5104H200.286V91.2604H200.326C200.466 91.007 200.689 90.7937 200.996 90.6204C201.302 90.4404 201.629 90.3504 201.976 90.3504C202.589 90.3504 203.056 90.5304 203.376 90.8904C203.702 91.2437 203.866 91.727 203.866 92.3404V95.6104H203.016V92.4704C203.016 91.997 202.902 91.6537 202.676 91.4404C202.449 91.227 202.139 91.1204 201.746 91.1204C201.472 91.1204 201.226 91.197 201.006 91.3504C200.792 91.5037 200.626 91.707 200.506 91.9604C200.386 92.207 200.326 92.467 200.326 92.7404V95.6104H199.476V90.5104ZM207.241 95.7704C206.788 95.7704 206.375 95.6537 206.001 95.4204C205.635 95.187 205.345 94.867 205.131 94.4604C204.918 94.047 204.811 93.5804 204.811 93.0604C204.811 92.547 204.918 92.0837 205.131 91.6704C205.345 91.257 205.635 90.9337 206.001 90.7004C206.375 90.467 206.788 90.3504 207.241 90.3504C207.635 90.3504 207.985 90.4404 208.291 90.6204C208.598 90.7937 208.831 91.0104 208.991 91.2704H209.031L208.991 90.5604V88.4504H209.841V95.6104H209.031V94.8604H208.991C208.831 95.1137 208.598 95.3304 208.291 95.5104C207.985 95.6837 207.635 95.7704 207.241 95.7704ZM207.341 95.0004C207.641 95.0004 207.918 94.9204 208.171 94.7604C208.431 94.6004 208.638 94.3737 208.791 94.0804C208.951 93.787 209.031 93.447 209.031 93.0604C209.031 92.6737 208.951 92.3337 208.791 92.0404C208.638 91.747 208.431 91.5204 208.171 91.3604C207.918 91.2004 207.641 91.1204 207.341 91.1204C207.048 91.1204 206.771 91.2004 206.511 91.3604C206.251 91.5204 206.041 91.7504 205.881 92.0504C205.728 92.3437 205.651 92.6804 205.651 93.0604C205.651 93.4404 205.728 93.7804 205.881 94.0804C206.041 94.3737 206.251 94.6004 206.511 94.7604C206.771 94.9204 207.048 95.0004 207.341 95.0004ZM214.661 89.2604H212.651V88.4504H217.511V89.2604H215.511V95.6104H214.661V89.2604ZM219.88 95.7704C219.394 95.7704 218.957 95.6537 218.57 95.4204C218.184 95.187 217.88 94.867 217.66 94.4604C217.447 94.047 217.34 93.5837 217.34 93.0704C217.34 92.577 217.44 92.1237 217.64 91.7104C217.847 91.297 218.137 90.967 218.51 90.7204C218.884 90.4737 219.317 90.3504 219.81 90.3504C220.31 90.3504 220.744 90.4637 221.11 90.6904C221.477 90.9104 221.757 91.217 221.95 91.6104C222.15 92.0037 222.25 92.4537 222.25 92.9604C222.25 93.0604 222.24 93.147 222.22 93.2204H218.19C218.21 93.607 218.304 93.9337 218.47 94.2004C218.637 94.467 218.847 94.667 219.1 94.8004C219.36 94.9337 219.63 95.0004 219.91 95.0004C220.564 95.0004 221.067 94.6937 221.42 94.0804L222.14 94.4304C221.92 94.8437 221.62 95.1704 221.24 95.4104C220.867 95.6504 220.414 95.7704 219.88 95.7704ZM221.35 92.5204C221.337 92.307 221.277 92.0937 221.17 91.8804C221.064 91.667 220.894 91.487 220.66 91.3404C220.434 91.1937 220.147 91.1204 219.8 91.1204C219.4 91.1204 219.06 91.2504 218.78 91.5104C218.507 91.7637 218.327 92.1004 218.24 92.5204H221.35ZM225.604 95.7704C225.111 95.7704 224.667 95.6537 224.274 95.4204C223.881 95.1804 223.574 94.857 223.354 94.4504C223.134 94.037 223.024 93.5737 223.024 93.0604C223.024 92.547 223.134 92.0837 223.354 91.6704C223.574 91.257 223.881 90.9337 224.274 90.7004C224.667 90.467 225.111 90.3504 225.604 90.3504C226.157 90.3504 226.621 90.4804 226.994 90.7404C227.374 90.9937 227.644 91.3337 227.804 91.7604L227.034 92.0804C226.907 91.767 226.717 91.5304 226.464 91.3704C226.217 91.2037 225.917 91.1204 225.564 91.1204C225.264 91.1204 224.984 91.2037 224.724 91.3704C224.464 91.5304 224.254 91.757 224.094 92.0504C223.941 92.3437 223.864 92.6804 223.864 93.0604C223.864 93.4404 223.941 93.777 224.094 94.0704C224.254 94.3637 224.464 94.5937 224.724 94.7604C224.984 94.9204 225.264 95.0004 225.564 95.0004C225.924 95.0004 226.234 94.917 226.494 94.7504C226.754 94.5837 226.947 94.347 227.074 94.0404L227.834 94.3604C227.661 94.7804 227.381 95.1204 226.994 95.3804C226.614 95.6404 226.151 95.7704 225.604 95.7704ZM228.753 88.4504H229.603V90.5604L229.563 91.2604H229.603C229.743 91.0004 229.963 90.7837 230.263 90.6104C230.57 90.437 230.903 90.3504 231.263 90.3504C231.883 90.3504 232.356 90.5337 232.683 90.9004C233.01 91.2604 233.173 91.7404 233.173 92.3404V95.6104H232.323V92.4704C232.323 92.0104 232.206 91.6704 231.973 91.4504C231.74 91.2304 231.436 91.1204 231.063 91.1204C230.796 91.1204 230.55 91.2004 230.323 91.3604C230.103 91.5204 229.926 91.727 229.793 91.9804C229.666 92.2337 229.603 92.497 229.603 92.7704V95.6104H228.753V88.4504ZM234.398 90.5104H235.208V91.2604H235.248C235.388 91.007 235.611 90.7937 235.918 90.6204C236.224 90.4404 236.551 90.3504 236.898 90.3504C237.511 90.3504 237.978 90.5304 238.298 90.8904C238.624 91.2437 238.788 91.727 238.788 92.3404V95.6104H237.938V92.4704C237.938 91.997 237.824 91.6537 237.598 91.4404C237.371 91.227 237.061 91.1204 236.668 91.1204C236.394 91.1204 236.148 91.197 235.928 91.3504C235.714 91.5037 235.548 91.707 235.428 91.9604C235.308 92.207 235.248 92.467 235.248 92.7404V95.6104H234.398V90.5104ZM242.353 95.7704C241.853 95.7704 241.403 95.6504 241.003 95.4104C240.603 95.1704 240.29 94.8437 240.063 94.4304C239.843 94.017 239.733 93.5604 239.733 93.0604C239.733 92.5604 239.843 92.1037 240.063 91.6904C240.29 91.277 240.603 90.9504 241.003 90.7104C241.403 90.4704 241.853 90.3504 242.353 90.3504C242.853 90.3504 243.303 90.4704 243.703 90.7104C244.103 90.9504 244.413 91.277 244.633 91.6904C244.86 92.1037 244.973 92.5604 244.973 93.0604C244.973 93.5604 244.86 94.017 244.633 94.4304C244.413 94.8437 244.103 95.1704 243.703 95.4104C243.303 95.6504 242.853 95.7704 242.353 95.7704ZM242.353 95.0004C242.666 95.0004 242.956 94.9237 243.223 94.7704C243.496 94.6104 243.713 94.3837 243.873 94.0904C244.04 93.797 244.123 93.4537 244.123 93.0604C244.123 92.667 244.04 92.3237 243.873 92.0304C243.713 91.737 243.496 91.5137 243.223 91.3604C242.956 91.2004 242.666 91.1204 242.353 91.1204C242.04 91.1204 241.746 91.2004 241.473 91.3604C241.2 91.5137 240.98 91.737 240.813 92.0304C240.653 92.3237 240.573 92.667 240.573 93.0604C240.573 93.4537 240.653 93.797 240.813 94.0904C240.98 94.3837 241.2 94.6104 241.473 94.7704C241.746 94.9237 242.04 95.0004 242.353 95.0004ZM245.911 88.4504H246.761V95.6104H245.911V88.4504ZM250.322 95.7704C249.822 95.7704 249.372 95.6504 248.972 95.4104C248.572 95.1704 248.258 94.8437 248.032 94.4304C247.812 94.017 247.702 93.5604 247.702 93.0604C247.702 92.5604 247.812 92.1037 248.032 91.6904C248.258 91.277 248.572 90.9504 248.972 90.7104C249.372 90.4704 249.822 90.3504 250.322 90.3504C250.822 90.3504 251.272 90.4704 251.672 90.7104C252.072 90.9504 252.382 91.277 252.602 91.6904C252.828 92.1037 252.942 92.5604 252.942 93.0604C252.942 93.5604 252.828 94.017 252.602 94.4304C252.382 94.8437 252.072 95.1704 251.672 95.4104C251.272 95.6504 250.822 95.7704 250.322 95.7704ZM250.322 95.0004C250.635 95.0004 250.925 94.9237 251.192 94.7704C251.465 94.6104 251.682 94.3837 251.842 94.0904C252.008 93.797 252.092 93.4537 252.092 93.0604C252.092 92.667 252.008 92.3237 251.842 92.0304C251.682 91.737 251.465 91.5137 251.192 91.3604C250.925 91.2004 250.635 91.1204 250.322 91.1204C250.008 91.1204 249.715 91.2004 249.442 91.3604C249.168 91.5137 248.948 91.737 248.782 92.0304C248.622 92.3237 248.542 92.667 248.542 93.0604C248.542 93.4537 248.622 93.797 248.782 94.0904C248.948 94.3837 249.168 94.6104 249.442 94.7704C249.715 94.9237 250.008 95.0004 250.322 95.0004ZM256.169 97.9304C255.569 97.9304 255.072 97.7904 254.679 97.5104C254.292 97.2304 254.032 96.8937 253.899 96.5004L254.669 96.1704C254.782 96.4637 254.969 96.7004 255.229 96.8804C255.495 97.067 255.809 97.1604 256.169 97.1604C256.695 97.1604 257.102 97.007 257.389 96.7004C257.682 96.3937 257.829 95.9604 257.829 95.4004V94.8304H257.789C257.622 95.0904 257.385 95.3037 257.079 95.4704C256.779 95.6304 256.435 95.7104 256.049 95.7104C255.609 95.7104 255.205 95.597 254.839 95.3704C254.479 95.1437 254.192 94.827 253.979 94.4204C253.765 94.0137 253.659 93.5504 253.659 93.0304C253.659 92.517 253.765 92.057 253.979 91.6504C254.192 91.237 254.479 90.917 254.839 90.6904C255.205 90.4637 255.609 90.3504 256.049 90.3504C256.435 90.3504 256.779 90.4337 257.079 90.6004C257.385 90.7604 257.622 90.9737 257.789 91.2404H257.829V90.5104H258.639V95.4104C258.639 96.2304 258.412 96.8537 257.959 97.2804C257.505 97.7137 256.909 97.9304 256.169 97.9304ZM256.169 94.9404C256.475 94.9404 256.752 94.8637 256.999 94.7104C257.252 94.557 257.452 94.337 257.599 94.0504C257.752 93.7637 257.829 93.4237 257.829 93.0304C257.829 92.6304 257.752 92.287 257.599 92.0004C257.452 91.7137 257.252 91.497 256.999 91.3504C256.752 91.197 256.475 91.1204 256.169 91.1204C255.862 91.1204 255.582 91.197 255.329 91.3504C255.075 91.5037 254.872 91.7237 254.719 92.0104C254.572 92.297 254.499 92.637 254.499 93.0304C254.499 93.4237 254.572 93.767 254.719 94.0604C254.872 94.347 255.075 94.567 255.329 94.7204C255.582 94.867 255.862 94.9404 256.169 94.9404ZM261.456 95.2904L259.346 90.5104H260.266L261.866 94.3004H261.886L263.426 90.5104H264.346L261.196 97.7704H260.316L261.456 95.2904Z" fill="white"/>
</svg>
