<svg width="304" height="120" viewBox="0 0 304 120" fill="none" xmlns="http://www.w3.org/2000/svg">
<rect width="304" height="120" rx="6" fill="#313235"/>
<path d="M23.0871 75.1405C21.9783 75.1405 20.9564 74.8742 20.0216 74.3415C19.0867 73.8089 18.342 73.0805 17.7876 72.1565C17.2441 71.2217 16.9723 70.1835 16.9723 69.0421C16.9723 67.9007 17.2441 66.8679 17.7876 65.9439C18.342 65.0091 19.0867 64.2753 20.0216 63.7426C20.9564 63.21 21.9783 62.9436 23.0871 62.9436C23.9676 62.9436 24.7884 63.1012 25.5493 63.4165C26.3102 63.7317 26.9462 64.172 27.4571 64.7373L26.1852 66.0092C25.8048 65.5852 25.3482 65.2591 24.8155 65.0308C24.2937 64.8025 23.7122 64.6884 23.0708 64.6884C22.3207 64.6884 21.6195 64.8677 20.9673 65.2265C20.3151 65.5852 19.7933 66.0961 19.4019 66.7592C19.0106 67.4223 18.8149 68.1833 18.8149 69.0421C18.8149 69.9009 19.0106 70.6618 19.4019 71.3249C19.7933 71.988 20.3151 72.499 20.9673 72.8577C21.6195 73.2164 22.3261 73.3958 23.0871 73.3958C23.7828 73.3958 24.3644 73.2925 24.8318 73.086C25.2993 72.8794 25.7178 72.6022 26.0874 72.2544C26.3266 72.0152 26.5277 71.7163 26.6907 71.3575C26.8647 70.9988 26.9788 70.6075 27.0332 70.1835H23.0708V68.5529H28.7616C28.8159 68.8573 28.8431 69.1725 28.8431 69.4986C28.8431 70.2379 28.729 70.9499 28.5007 71.6347C28.2724 72.3087 27.9082 72.8957 27.4082 73.3958C26.3102 74.559 24.8699 75.1405 23.0871 75.1405ZM34.4753 75.1405C33.6383 75.1405 32.8882 74.9503 32.2251 74.5698C31.562 74.1785 31.0456 73.6458 30.676 72.9718C30.3064 72.2979 30.1216 71.5478 30.1216 70.7216C30.1216 69.8954 30.3064 69.1454 30.676 68.4714C31.0456 67.7974 31.562 67.2702 32.2251 66.8897C32.8882 66.4983 33.6383 66.3027 34.4753 66.3027C35.3124 66.3027 36.0624 66.4983 36.7256 66.8897C37.3887 67.281 37.905 67.8137 38.2746 68.4877C38.6442 69.1617 38.829 69.9063 38.829 70.7216C38.829 71.5478 38.6442 72.2979 38.2746 72.9718C37.905 73.6458 37.3887 74.1785 36.7256 74.5698C36.0624 74.9503 35.3124 75.1405 34.4753 75.1405ZM34.4753 73.4936C34.9319 73.4936 35.3559 73.3849 35.7472 73.1675C36.1385 72.9392 36.4484 72.6185 36.6766 72.2054C36.9158 71.7815 37.0354 71.2869 37.0354 70.7216C37.0354 70.1563 36.9158 69.6671 36.6766 69.2541C36.4484 68.841 36.1385 68.5257 35.7472 68.3083C35.3559 68.08 34.9319 67.9659 34.4753 67.9659C34.0188 67.9659 33.5948 68.08 33.2035 68.3083C32.8121 68.5257 32.4969 68.841 32.2577 69.2541C32.0294 69.6671 31.9153 70.1563 31.9153 70.7216C31.9153 71.2869 32.0294 71.7815 32.2577 72.2054C32.4969 72.6185 32.8121 72.9392 33.2035 73.1675C33.5948 73.3849 34.0188 73.4936 34.4753 73.4936ZM44.38 75.1405C43.5429 75.1405 42.7928 74.9503 42.1297 74.5698C41.4666 74.1785 40.9503 73.6458 40.5807 72.9718C40.2111 72.2979 40.0263 71.5478 40.0263 70.7216C40.0263 69.8954 40.2111 69.1454 40.5807 68.4714C40.9503 67.7974 41.4666 67.2702 42.1297 66.8897C42.7928 66.4983 43.5429 66.3027 44.38 66.3027C45.217 66.3027 45.9671 66.4983 46.6302 66.8897C47.2933 67.281 47.8097 67.8137 48.1793 68.4877C48.5489 69.1617 48.7337 69.9063 48.7337 70.7216C48.7337 71.5478 48.5489 72.2979 48.1793 72.9718C47.8097 73.6458 47.2933 74.1785 46.6302 74.5698C45.9671 74.9503 45.217 75.1405 44.38 75.1405ZM44.38 73.4936C44.8365 73.4936 45.2605 73.3849 45.6518 73.1675C46.0432 72.9392 46.353 72.6185 46.5813 72.2054C46.8204 71.7815 46.94 71.2869 46.94 70.7216C46.94 70.1563 46.8204 69.6671 46.5813 69.2541C46.353 68.841 46.0432 68.5257 45.6518 68.3083C45.2605 68.08 44.8365 67.9659 44.38 67.9659C43.9234 67.9659 43.4994 68.08 43.1081 68.3083C42.7167 68.5257 42.4015 68.841 42.1623 69.2541C41.9341 69.6671 41.8199 70.1563 41.8199 70.7216C41.8199 71.2869 41.9341 71.7815 42.1623 72.2054C42.4015 72.6185 42.7167 72.9392 43.1081 73.1675C43.4994 73.3849 43.9234 73.4936 44.38 73.4936ZM54.1378 78.6626C53.116 78.6626 52.2681 78.4289 51.5941 77.9615C50.931 77.494 50.4853 76.9396 50.257 76.2983L51.9365 75.5971C52.1105 76.0319 52.3877 76.3798 52.7681 76.6407C53.1595 76.9125 53.6161 77.0483 54.1378 77.0483C54.8988 77.0483 55.4912 76.8201 55.9152 76.3635C56.35 75.9178 56.5674 75.2873 56.5674 74.472V73.7056H56.4696C56.1978 74.0969 55.8337 74.4068 55.3771 74.635C54.9314 74.8525 54.4151 74.9612 53.828 74.9612C53.1323 74.9612 52.4855 74.7818 51.8876 74.4231C51.2897 74.0643 50.8114 73.5589 50.4527 72.9066C50.1048 72.2435 49.9309 71.488 49.9309 70.6401C49.9309 69.7922 50.1048 69.0421 50.4527 68.3898C50.8114 67.7267 51.2897 67.2158 51.8876 66.8571C52.4855 66.4875 53.1323 66.3027 53.828 66.3027C54.4042 66.3027 54.9205 66.4168 55.3771 66.6451C55.8337 66.8734 56.1978 67.1832 56.4696 67.5745H56.5674V66.5636H58.2796V74.4231C58.2796 75.3253 58.1057 76.0917 57.7578 76.7222C57.4099 77.3636 56.9207 77.8473 56.2902 78.1735C55.6706 78.4996 54.9532 78.6626 54.1378 78.6626ZM54.1542 73.3306C54.589 73.3306 54.9912 73.2273 55.3608 73.0208C55.7304 72.8033 56.0239 72.4935 56.2413 72.0913C56.4587 71.6782 56.5674 71.1945 56.5674 70.6401C56.5674 69.7922 56.3337 69.1345 55.8663 68.667C55.4097 68.1887 54.839 67.9496 54.1542 67.9496C53.7085 67.9496 53.3008 68.0583 52.9312 68.2757C52.5616 68.4822 52.2681 68.7866 52.0507 69.1888C51.8333 69.591 51.7246 70.0748 51.7246 70.6401C51.7246 71.2053 51.8333 71.6891 52.0507 72.0913C52.2681 72.4935 52.5616 72.8033 52.9312 73.0208C53.3008 73.2273 53.7085 73.3306 54.1542 73.3306ZM60.3876 63.2045H62.1813V74.8796H60.3876V63.2045ZM68.0087 75.1405C67.1934 75.1405 66.4596 74.9503 65.8074 74.5698C65.166 74.1894 64.6605 73.6676 64.2909 73.0044C63.9322 72.3305 63.7528 71.5749 63.7528 70.7379C63.7528 69.9443 63.9267 69.2106 64.2746 68.5366C64.6333 67.8517 65.1279 67.3082 65.7584 66.906C66.3889 66.5038 67.1064 66.3027 67.9108 66.3027C68.7479 66.3027 69.4708 66.4875 70.0795 66.8571C70.6992 67.2267 71.1666 67.7322 71.4819 68.3735C71.808 69.0149 71.971 69.7378 71.971 70.5422C71.971 70.6944 71.9547 70.8847 71.9221 71.1129H65.5465C65.6117 71.8848 65.8835 72.4827 66.3618 72.9066C66.8509 73.3197 67.4162 73.5262 68.0576 73.5262C68.5685 73.5262 69.0088 73.4121 69.3784 73.1838C69.7589 72.9447 70.0632 72.624 70.2915 72.2218L71.808 72.9392C71.4166 73.6241 70.9057 74.1622 70.2752 74.5535C69.6447 74.9449 68.8892 75.1405 68.0087 75.1405ZM70.1448 69.7432C70.123 69.4497 70.0306 69.1617 69.8676 68.879C69.7045 68.5855 69.4545 68.3409 69.1175 68.1452C68.7914 67.9496 68.3892 67.8517 67.9108 67.8517C67.3347 67.8517 66.8455 68.0257 66.4433 68.3735C66.052 68.7105 65.7802 69.1671 65.628 69.7432H70.1448ZM77.7197 63.2045H81.4538C82.6604 63.2045 83.7149 63.4491 84.6171 63.9383C85.5194 64.4275 86.2097 65.1178 86.688 66.0092C87.1772 66.8897 87.4218 67.9007 87.4218 69.0421C87.4218 70.1835 87.1772 71.1999 86.688 72.0913C86.2097 72.9718 85.5194 73.6567 84.6171 74.1459C83.7149 74.635 82.6604 74.8796 81.4538 74.8796H77.7197V63.2045ZM81.4212 73.1349C82.7256 73.1349 83.742 72.7762 84.4704 72.0587C85.2096 71.3304 85.5792 70.3248 85.5792 69.0421C85.5792 67.7702 85.2096 66.7701 84.4704 66.0418C83.742 65.3134 82.7256 64.9493 81.4212 64.9493H79.546V73.1349H81.4212ZM92.7703 75.1405C91.955 75.1405 91.2212 74.9503 90.569 74.5698C89.9276 74.1894 89.4221 73.6676 89.0525 73.0044C88.6938 72.3305 88.5144 71.5749 88.5144 70.7379C88.5144 69.9443 88.6883 69.2106 89.0362 68.5366C89.3949 67.8517 89.8895 67.3082 90.52 66.906C91.1505 66.5038 91.868 66.3027 92.6724 66.3027C93.5095 66.3027 94.2324 66.4875 94.8411 66.8571C95.4608 67.2267 95.9282 67.7322 96.2435 68.3735C96.5696 69.0149 96.7326 69.7378 96.7326 70.5422C96.7326 70.6944 96.7163 70.8847 96.6837 71.1129H90.3081C90.3733 71.8848 90.6451 72.4827 91.1234 72.9066C91.6125 73.3197 92.1778 73.5262 92.8192 73.5262C93.3301 73.5262 93.7704 73.4121 94.14 73.1838C94.5205 72.9447 94.8248 72.624 95.0531 72.2218L96.5696 72.9392C96.1782 73.6241 95.6673 74.1622 95.0368 74.5535C94.4063 74.9449 93.6508 75.1405 92.7703 75.1405ZM94.9064 69.7432C94.8846 69.4497 94.7922 69.1617 94.6292 68.879C94.4661 68.5855 94.2161 68.3409 93.8791 68.1452C93.553 67.9496 93.1507 67.8517 92.6724 67.8517C92.0963 67.8517 91.6071 68.0257 91.2049 68.3735C90.8136 68.7105 90.5418 69.1671 90.3896 69.7432H94.9064ZM97.2774 66.5636H99.283L101.582 72.5642H101.647L103.995 66.5636H105.952L102.495 74.8796H100.702L97.2774 66.5636ZM110.669 75.1405C109.853 75.1405 109.12 74.9503 108.467 74.5698C107.826 74.1894 107.321 73.6676 106.951 73.0044C106.592 72.3305 106.413 71.5749 106.413 70.7379C106.413 69.9443 106.587 69.2106 106.935 68.5366C107.293 67.8517 107.788 67.3082 108.418 66.906C109.049 66.5038 109.766 66.3027 110.571 66.3027C111.408 66.3027 112.131 66.4875 112.74 66.8571C113.359 67.2267 113.827 67.7322 114.142 68.3735C114.468 69.0149 114.631 69.7378 114.631 70.5422C114.631 70.6944 114.615 70.8847 114.582 71.1129H108.206C108.272 71.8848 108.543 72.4827 109.022 72.9066C109.511 73.3197 110.076 73.5262 110.718 73.5262C111.229 73.5262 111.669 73.4121 112.038 73.1838C112.419 72.9447 112.723 72.624 112.952 72.2218L114.468 72.9392C114.077 73.6241 113.566 74.1622 112.935 74.5535C112.305 74.9449 111.549 75.1405 110.669 75.1405ZM112.805 69.7432C112.783 69.4497 112.691 69.1617 112.528 68.879C112.365 68.5855 112.114 68.3409 111.777 68.1452C111.451 67.9496 111.049 67.8517 110.571 67.8517C109.995 67.8517 109.506 68.0257 109.103 68.3735C108.712 68.7105 108.44 69.1671 108.288 69.7432H112.805ZM116.264 63.2045H118.058V74.8796H116.264V63.2045ZM123.983 75.1405C123.146 75.1405 122.396 74.9503 121.733 74.5698C121.07 74.1785 120.554 73.6458 120.184 72.9718C119.814 72.2979 119.63 71.5478 119.63 70.7216C119.63 69.8954 119.814 69.1454 120.184 68.4714C120.554 67.7974 121.07 67.2702 121.733 66.8897C122.396 66.4983 123.146 66.3027 123.983 66.3027C124.82 66.3027 125.57 66.4983 126.234 66.8897C126.897 67.281 127.413 67.8137 127.783 68.4877C128.152 69.1617 128.337 69.9063 128.337 70.7216C128.337 71.5478 128.152 72.2979 127.783 72.9718C127.413 73.6458 126.897 74.1785 126.234 74.5698C125.57 74.9503 124.82 75.1405 123.983 75.1405ZM123.983 73.4936C124.44 73.4936 124.864 73.3849 125.255 73.1675C125.647 72.9392 125.956 72.6185 126.185 72.2054C126.424 71.7815 126.543 71.2869 126.543 70.7216C126.543 70.1563 126.424 69.6671 126.185 69.2541C125.956 68.841 125.647 68.5257 125.255 68.3083C124.864 68.08 124.44 67.9659 123.983 67.9659C123.527 67.9659 123.103 68.08 122.711 68.3083C122.32 68.5257 122.005 68.841 121.766 69.2541C121.537 69.6671 121.423 70.1563 121.423 70.7216C121.423 71.2869 121.537 71.7815 121.766 72.2054C122.005 72.6185 122.32 72.9392 122.711 73.1675C123.103 73.3849 123.527 73.4936 123.983 73.4936ZM129.846 66.5636H131.558V67.6561H131.64C131.879 67.2756 132.232 66.9549 132.7 66.694C133.167 66.4331 133.694 66.3027 134.281 66.3027C135.031 66.3027 135.711 66.4929 136.319 66.8734C136.928 67.2539 137.407 67.7811 137.754 68.4551C138.113 69.1182 138.293 69.8737 138.293 70.7216C138.293 71.5695 138.113 72.3305 137.754 73.0044C137.407 73.6676 136.928 74.1894 136.319 74.5698C135.711 74.9503 135.031 75.1405 134.281 75.1405C133.694 75.1405 133.167 75.0101 132.7 74.7492C132.232 74.4883 131.879 74.173 131.64 73.8034H131.558L131.64 74.9612V78.4017H129.846V66.5636ZM134.02 73.4936C134.455 73.4936 134.863 73.3795 135.243 73.1512C135.624 72.9229 135.928 72.5968 136.156 72.1728C136.385 71.7489 136.499 71.2651 136.499 70.7216C136.499 70.1781 136.385 69.6998 136.156 69.2867C135.928 68.8627 135.624 68.5366 135.243 68.3083C134.863 68.08 134.455 67.9659 134.02 67.9659C133.586 67.9659 133.178 68.08 132.797 68.3083C132.428 68.5366 132.129 68.8627 131.901 69.2867C131.672 69.6998 131.558 70.1781 131.558 70.7216C131.558 71.2651 131.672 71.7489 131.901 72.1728C132.129 72.5968 132.428 72.9229 132.797 73.1512C133.178 73.3795 133.586 73.4936 134.02 73.4936ZM143.727 75.1405C142.911 75.1405 142.178 74.9503 141.525 74.5698C140.884 74.1894 140.378 73.6676 140.009 73.0044C139.65 72.3305 139.471 71.5749 139.471 70.7379C139.471 69.9443 139.645 69.2106 139.993 68.5366C140.351 67.8517 140.846 67.3082 141.476 66.906C142.107 66.5038 142.824 66.3027 143.629 66.3027C144.466 66.3027 145.189 66.4875 145.797 66.8571C146.417 67.2267 146.885 67.7322 147.2 68.3735C147.526 69.0149 147.689 69.7378 147.689 70.5422C147.689 70.6944 147.673 70.8847 147.64 71.1129H141.264C141.33 71.8848 141.601 72.4827 142.08 72.9066C142.569 73.3197 143.134 73.5262 143.776 73.5262C144.286 73.5262 144.727 73.4121 145.096 73.1838C145.477 72.9447 145.781 72.624 146.009 72.2218L147.526 72.9392C147.135 73.6241 146.624 74.1622 145.993 74.5535C145.363 74.9449 144.607 75.1405 143.727 75.1405ZM145.863 69.7432C145.841 69.4497 145.749 69.1617 145.586 68.879C145.422 68.5855 145.172 68.3409 144.835 68.1452C144.509 67.9496 144.107 67.8517 143.629 67.8517C143.053 67.8517 142.563 68.0257 142.161 68.3735C141.77 68.7105 141.498 69.1671 141.346 69.7432H145.863ZM149.322 66.5636H151.035V67.7865H151.116C151.301 67.3626 151.622 67.0147 152.078 66.7429C152.535 66.4603 153.018 66.319 153.529 66.319C153.932 66.319 154.269 66.3733 154.54 66.482V68.3409C154.062 68.167 153.633 68.08 153.252 68.08C152.839 68.08 152.469 68.1887 152.143 68.4061C151.828 68.6236 151.578 68.9171 151.393 69.2867C151.208 69.6454 151.116 70.0422 151.116 70.477V74.8796H149.322V66.5636ZM162.912 75.1405C161.944 75.1405 161.075 74.8579 160.303 74.2926C159.531 73.7273 158.998 72.9338 158.705 71.9119L160.433 71.2108C160.607 71.8522 160.912 72.3794 161.346 72.7925C161.792 73.1947 162.325 73.3958 162.944 73.3958C163.521 73.3958 164.01 73.249 164.412 72.9555C164.814 72.6511 165.015 72.2381 165.015 71.7163C165.015 71.238 164.836 70.8466 164.477 70.5422C164.129 70.227 163.515 69.9117 162.635 69.5965L161.901 69.3356C161.118 69.0638 160.46 68.6725 159.928 68.1616C159.395 67.6506 159.129 66.9766 159.129 66.1396C159.129 65.5635 159.286 65.0308 159.602 64.5416C159.917 64.0524 160.352 63.6665 160.906 63.3839C161.471 63.0904 162.107 62.9436 162.814 62.9436C163.836 62.9436 164.651 63.1936 165.26 63.6937C165.869 64.1829 166.276 64.7373 166.483 65.3569L164.836 66.0581C164.716 65.6885 164.488 65.3624 164.151 65.0797C163.814 64.7971 163.379 64.6558 162.847 64.6558C162.314 64.6558 161.863 64.7916 161.493 65.0634C161.134 65.3352 160.955 65.683 160.955 66.107C160.955 66.5092 161.118 66.8408 161.444 67.1017C161.77 67.3626 162.281 67.6126 162.977 67.8517L163.711 68.0963C164.711 68.4442 165.483 68.9008 166.026 69.466C166.581 70.0204 166.858 70.7651 166.858 71.7C166.858 72.4609 166.662 73.1023 166.271 73.6241C165.88 74.135 165.379 74.5155 164.771 74.7655C164.173 75.0155 163.553 75.1405 162.912 75.1405ZM171.648 75.0101C171.278 75.0101 170.93 74.9503 170.604 74.8307C170.278 74.7111 170.012 74.5535 169.805 74.3578C169.338 73.8904 169.104 73.2545 169.104 72.45V68.1452H167.653V66.5636H169.104V64.2155H170.898V66.5636H172.92V68.1452H170.898V72.0587C170.898 72.5044 170.985 72.8196 171.159 73.0044C171.322 73.2219 171.604 73.3306 172.007 73.3306C172.191 73.3306 172.354 73.3088 172.496 73.2653C172.637 73.211 172.789 73.1295 172.952 73.0208V74.7655C172.594 74.9286 172.159 75.0101 171.648 75.0101ZM177.658 75.1405C176.647 75.1405 175.876 74.8416 175.343 74.2437C174.821 73.6349 174.56 72.7925 174.56 71.7163V66.5636H176.354V71.4717C176.354 72.1457 176.511 72.6511 176.827 72.9881C177.153 73.3251 177.577 73.4936 178.099 73.4936C178.523 73.4936 178.898 73.3849 179.224 73.1675C179.55 72.9392 179.8 72.6403 179.974 72.2707C180.148 71.9011 180.235 71.5043 180.235 71.0803V66.5636H182.028V74.8796H180.333V73.8034H180.235C180.006 74.1948 179.653 74.5155 179.175 74.7655C178.696 75.0155 178.191 75.1405 177.658 75.1405ZM187.591 75.1405C186.841 75.1405 186.162 74.9503 185.553 74.5698C184.944 74.1894 184.46 73.6676 184.102 73.0044C183.754 72.3305 183.58 71.5695 183.58 70.7216C183.58 69.8737 183.754 69.1182 184.102 68.4551C184.46 67.7811 184.944 67.2539 185.553 66.8734C186.162 66.4929 186.841 66.3027 187.591 66.3027C188.178 66.3027 188.705 66.4331 189.173 66.694C189.64 66.9549 189.994 67.2756 190.233 67.6561H190.314L190.233 66.482V63.2045H192.026V74.8796H190.314V73.8034H190.233C189.994 74.173 189.64 74.4883 189.173 74.7492C188.705 75.0101 188.178 75.1405 187.591 75.1405ZM187.852 73.4936C188.287 73.4936 188.689 73.3795 189.059 73.1512C189.439 72.9229 189.744 72.5968 189.972 72.1728C190.2 71.7489 190.314 71.2651 190.314 70.7216C190.314 70.1781 190.2 69.6998 189.972 69.2867C189.744 68.8627 189.439 68.5366 189.059 68.3083C188.689 68.08 188.287 67.9659 187.852 67.9659C187.417 67.9659 187.01 68.08 186.629 68.3083C186.249 68.5366 185.944 68.8627 185.716 69.2867C185.488 69.6998 185.374 70.1781 185.374 70.7216C185.374 71.2651 185.488 71.7489 185.716 72.1728C185.944 72.5968 186.249 72.9229 186.629 73.1512C187.01 73.3795 187.417 73.4936 187.852 73.4936ZM197.836 75.1405C197.021 75.1405 196.287 74.9503 195.635 74.5698C194.993 74.1894 194.488 73.6676 194.118 73.0044C193.759 72.3305 193.58 71.5749 193.58 70.7379C193.58 69.9443 193.754 69.2106 194.102 68.5366C194.461 67.8517 194.955 67.3082 195.586 66.906C196.216 66.5038 196.934 66.3027 197.738 66.3027C198.575 66.3027 199.298 66.4875 199.907 66.8571C200.526 67.2267 200.994 67.7322 201.309 68.3735C201.635 69.0149 201.798 69.7378 201.798 70.5422C201.798 70.6944 201.782 70.8847 201.749 71.1129H195.374C195.439 71.8848 195.711 72.4827 196.189 72.9066C196.678 73.3197 197.243 73.5262 197.885 73.5262C198.396 73.5262 198.836 73.4121 199.206 73.1838C199.586 72.9447 199.89 72.624 200.119 72.2218L201.635 72.9392C201.244 73.6241 200.733 74.1622 200.102 74.5535C199.472 74.9449 198.716 75.1405 197.836 75.1405ZM199.972 69.7432C199.95 69.4497 199.858 69.1617 199.695 68.879C199.532 68.5855 199.282 68.3409 198.945 68.1452C198.619 67.9496 198.216 67.8517 197.738 67.8517C197.162 67.8517 196.673 68.0257 196.271 68.3735C195.879 68.7105 195.607 69.1671 195.455 69.7432H199.972ZM203.432 66.5636H205.144V67.6561H205.225C205.464 67.2647 205.818 66.944 206.285 66.694C206.764 66.4331 207.269 66.3027 207.802 66.3027C208.813 66.3027 209.579 66.6016 210.101 67.1995C210.633 67.7865 210.9 68.5909 210.9 69.6128V74.8796H209.106V69.8574C209.106 69.2051 208.943 68.7268 208.617 68.4225C208.302 68.1181 207.861 67.9659 207.296 67.9659C206.894 67.9659 206.535 68.08 206.22 68.3083C205.905 68.5257 205.66 68.8192 205.486 69.1888C205.312 69.5584 205.225 69.9552 205.225 70.3792V74.8796H203.432V66.5636ZM215.916 75.0101C215.547 75.0101 215.199 74.9503 214.873 74.8307C214.547 74.7111 214.28 74.5535 214.074 74.3578C213.606 73.8904 213.372 73.2545 213.372 72.45V68.1452H211.921V66.5636H213.372V64.2155H215.166V66.5636H217.188V68.1452H215.166V72.0587C215.166 72.5044 215.253 72.8196 215.427 73.0044C215.59 73.2219 215.873 73.3306 216.275 73.3306C216.46 73.3306 216.623 73.3088 216.764 73.2653C216.905 73.211 217.058 73.1295 217.221 73.0208V74.7655C216.862 74.9286 216.427 75.0101 215.916 75.0101ZM228.202 75.1405C227.071 75.1405 226.039 74.8742 225.104 74.3415C224.169 73.8089 223.435 73.0751 222.902 72.1402C222.37 71.2053 222.103 70.1726 222.103 69.0421C222.103 67.9115 222.37 66.8788 222.902 65.9439C223.435 65.0091 224.169 64.2753 225.104 63.7426C226.039 63.21 227.071 62.9436 228.202 62.9436C229.082 62.9436 229.881 63.1067 230.599 63.4328C231.327 63.7589 231.969 64.2318 232.523 64.8514L231.219 66.107C230.816 65.6287 230.371 65.2754 229.881 65.0471C229.392 64.8079 228.832 64.6884 228.202 64.6884C227.419 64.6884 226.702 64.8677 226.05 65.2265C225.408 65.5852 224.897 66.0961 224.517 66.7592C224.136 67.4115 223.946 68.1724 223.946 69.0421C223.946 69.9117 224.136 70.6781 224.517 71.3412C224.897 71.9935 225.408 72.499 226.05 72.8577C226.702 73.2164 227.419 73.3958 228.202 73.3958C229.506 73.3958 230.615 72.8523 231.528 71.7652L232.849 73.0371C232.284 73.7002 231.604 74.2165 230.811 74.5861C230.017 74.9557 229.148 75.1405 228.202 75.1405ZM234.435 63.2045H236.229V74.8796H234.435V63.2045ZM241.37 75.1405C240.359 75.1405 239.587 74.8416 239.054 74.2437C238.532 73.6349 238.272 72.7925 238.272 71.7163V66.5636H240.065V71.4717C240.065 72.1457 240.223 72.6511 240.538 72.9881C240.864 73.3251 241.288 73.4936 241.81 73.4936C242.234 73.4936 242.609 73.3849 242.935 73.1675C243.261 72.9392 243.511 72.6403 243.685 72.2707C243.859 71.9011 243.946 71.5043 243.946 71.0803V66.5636H245.74V74.8796H244.044V73.8034H243.946C243.718 74.1948 243.364 74.5155 242.886 74.7655C242.408 75.0155 241.902 75.1405 241.37 75.1405ZM252.263 75.1405C251.676 75.1405 251.148 75.0101 250.681 74.7492C250.213 74.4883 249.86 74.173 249.621 73.8034H249.54V74.8796H247.827V63.2045H249.621V66.482L249.54 67.6561H249.621C249.86 67.2756 250.213 66.9549 250.681 66.694C251.148 66.4331 251.676 66.3027 252.263 66.3027C253.013 66.3027 253.692 66.4929 254.301 66.8734C254.91 67.2539 255.388 67.7811 255.736 68.4551C256.095 69.1182 256.274 69.8737 256.274 70.7216C256.274 71.5695 256.095 72.3305 255.736 73.0044C255.388 73.6676 254.91 74.1894 254.301 74.5698C253.692 74.9503 253.013 75.1405 252.263 75.1405ZM252.002 73.4936C252.437 73.4936 252.844 73.3795 253.225 73.1512C253.605 72.9229 253.91 72.5968 254.138 72.1728C254.366 71.7489 254.48 71.2651 254.48 70.7216C254.48 70.1781 254.366 69.6998 254.138 69.2867C253.91 68.8627 253.605 68.5366 253.225 68.3083C252.844 68.08 252.437 67.9659 252.002 67.9659C251.567 67.9659 251.159 68.08 250.779 68.3083C250.409 68.5366 250.11 68.8627 249.882 69.2867C249.654 69.6998 249.54 70.1781 249.54 70.7216C249.54 71.2651 249.654 71.7489 249.882 72.1728C250.11 72.5968 250.409 72.9229 250.779 73.1512C251.159 73.3795 251.567 73.4936 252.002 73.4936ZM260.86 75.1405C259.904 75.1405 259.121 74.934 258.512 74.5209C257.904 74.0969 257.474 73.5589 257.224 72.9066L258.822 72.2054C259.018 72.6403 259.29 72.9718 259.638 73.2001C259.996 73.4284 260.404 73.5425 260.86 73.5425C261.306 73.5425 261.681 73.4664 261.986 73.3143C262.29 73.1512 262.442 72.912 262.442 72.5968C262.442 72.2924 262.312 72.0533 262.051 71.8793C261.79 71.7054 261.388 71.5532 260.844 71.4228L259.849 71.1782C259.186 71.0151 258.637 70.727 258.203 70.314C257.768 69.9009 257.55 69.3791 257.55 68.7486C257.55 68.2594 257.692 67.83 257.974 67.4604C258.268 67.0908 258.659 66.8082 259.148 66.6125C259.638 66.4059 260.17 66.3027 260.746 66.3027C261.518 66.3027 262.198 66.4603 262.785 66.7755C263.372 67.0799 263.796 67.5256 264.056 68.1126L262.491 68.7975C262.176 68.1561 261.6 67.8354 260.763 67.8354C260.36 67.8354 260.023 67.917 259.752 68.08C259.48 68.2431 259.344 68.4551 259.344 68.716C259.344 68.966 259.447 69.1725 259.654 69.3356C259.86 69.4878 260.165 69.6182 260.567 69.7269L261.79 70.0367C262.605 70.2433 263.219 70.5585 263.632 70.9825C264.056 71.3956 264.268 71.9065 264.268 72.5153C264.268 73.0371 264.116 73.4991 263.812 73.9013C263.518 74.2926 263.111 74.597 262.589 74.8144C262.067 75.0318 261.491 75.1405 260.86 75.1405Z" fill="white"/>
<rect width="23.3115" height="7.81905" rx="3.90953" transform="matrix(-0.866025 0.5 0.5 0.866025 174.504 27.7881)" fill="#FBBC04"/>
<rect width="23.3115" height="7.81905" rx="3.90953" transform="matrix(0.866025 -0.5 -0.5 -0.866025 131.371 38.4272)" fill="#EA4335"/>
<rect x="131.041" y="27.7871" width="23.3115" height="7.81905" rx="3.90953" transform="rotate(30 131.041 27.7871)" fill="#4285F4"/>
<rect x="174.504" y="38.4272" width="23.3115" height="7.81905" rx="3.64648" transform="rotate(-150 174.504 38.4272)" fill="#0F9D58"/>
<path d="M11.679 96.7864C10.9164 96.7864 10.2234 96.6067 9.60003 96.2474C8.97669 95.888 8.48536 95.3967 8.12603 94.7734C7.77403 94.1427 7.59803 93.4424 7.59803 92.6724C7.59803 91.9024 7.77403 91.2057 8.12603 90.5824C8.48536 89.9517 8.97669 89.4567 9.60003 89.0974C10.2234 88.738 10.9164 88.5584 11.679 88.5584C12.2657 88.5584 12.801 88.672 13.285 88.8994C13.7764 89.1194 14.2017 89.4347 14.561 89.8454L13.89 90.4944C13.5894 90.135 13.2594 89.871 12.9 89.7024C12.548 89.5337 12.141 89.4494 11.679 89.4494C11.107 89.4494 10.5827 89.585 10.106 89.8564C9.62936 90.1204 9.24803 90.498 8.96203 90.9894C8.68336 91.4734 8.54403 92.0344 8.54403 92.6724C8.54403 93.3104 8.68336 93.875 8.96203 94.3664C9.24803 94.8504 9.62936 95.228 10.106 95.4994C10.5827 95.7634 11.107 95.8954 11.679 95.8954C12.6324 95.8954 13.4427 95.503 14.11 94.7184L14.792 95.3784C14.4254 95.811 13.9744 96.1557 13.439 96.4124C12.9037 96.6617 12.317 96.7864 11.679 96.7864ZM17.8232 96.7864C17.1485 96.7864 16.6315 96.5884 16.2722 96.1924C15.9202 95.7964 15.7442 95.2427 15.7442 94.5314V91.0004H16.6792V94.3884C16.6792 94.9237 16.8002 95.316 17.0422 95.5654C17.2842 95.8147 17.6105 95.9394 18.0212 95.9394C18.3365 95.9394 18.6152 95.855 18.8572 95.6864C19.1065 95.5177 19.2972 95.2977 19.4292 95.0264C19.5685 94.755 19.6382 94.469 19.6382 94.1684V91.0004H20.5732V96.6104H19.6822V95.7964H19.6382C19.4842 96.075 19.2385 96.3097 18.9012 96.5004C18.5639 96.691 18.2045 96.7864 17.8232 96.7864ZM21.9542 91.0004H22.8452V91.8254H22.8892C23.0506 91.5394 23.2926 91.301 23.6152 91.1104C23.9379 90.9197 24.2789 90.8244 24.6382 90.8244C25.0489 90.8244 25.4046 90.9234 25.7052 91.1214C26.0132 91.3194 26.2332 91.5834 26.3652 91.9134C26.5632 91.5834 26.8236 91.3194 27.1462 91.1214C27.4762 90.9234 27.8576 90.8244 28.2902 90.8244C28.9356 90.8244 29.4196 91.0224 29.7422 91.4184C30.0722 91.807 30.2372 92.3387 30.2372 93.0134V96.6104H29.3132V93.1564C29.3132 92.6357 29.2069 92.258 28.9942 92.0234C28.7816 91.7887 28.4662 91.6714 28.0482 91.6714C27.7696 91.6714 27.5166 91.752 27.2892 91.9134C27.0619 92.0747 26.8822 92.291 26.7502 92.5624C26.6256 92.8337 26.5632 93.127 26.5632 93.4424V96.6104H25.6282V93.1674C25.6282 92.6394 25.5219 92.258 25.3092 92.0234C25.0966 91.7887 24.7849 91.6714 24.3742 91.6714C24.0956 91.6714 23.8426 91.7557 23.6152 91.9244C23.3879 92.0857 23.2082 92.3057 23.0762 92.5844C22.9516 92.8557 22.8892 93.149 22.8892 93.4644V96.6104H21.9542V91.0004ZM31.5792 91.0004H32.4702V91.8254H32.5142C32.6756 91.5394 32.9176 91.301 33.2402 91.1104C33.5629 90.9197 33.9039 90.8244 34.2632 90.8244C34.6739 90.8244 35.0296 90.9234 35.3302 91.1214C35.6382 91.3194 35.8582 91.5834 35.9902 91.9134C36.1882 91.5834 36.4486 91.3194 36.7712 91.1214C37.1012 90.9234 37.4826 90.8244 37.9152 90.8244C38.5606 90.8244 39.0446 91.0224 39.3672 91.4184C39.6972 91.807 39.8622 92.3387 39.8622 93.0134V96.6104H38.9382V93.1564C38.9382 92.6357 38.8319 92.258 38.6192 92.0234C38.4066 91.7887 38.0912 91.6714 37.6732 91.6714C37.3946 91.6714 37.1416 91.752 36.9142 91.9134C36.6869 92.0747 36.5072 92.291 36.3752 92.5624C36.2506 92.8337 36.1882 93.127 36.1882 93.4424V96.6104H35.2532V93.1674C35.2532 92.6394 35.1469 92.258 34.9342 92.0234C34.7216 91.7887 34.4099 91.6714 33.9992 91.6714C33.7206 91.6714 33.4676 91.7557 33.2402 91.9244C33.0129 92.0857 32.8332 92.3057 32.7012 92.5844C32.5766 92.8557 32.5142 93.149 32.5142 93.4644V96.6104H31.5792V91.0004ZM41.7542 89.9664C41.5709 89.9664 41.4132 89.9004 41.2812 89.7684C41.1492 89.6364 41.0832 89.4787 41.0832 89.2954C41.0832 89.112 41.1492 88.958 41.2812 88.8334C41.4132 88.7014 41.5709 88.6354 41.7542 88.6354C41.9376 88.6354 42.0952 88.7014 42.2272 88.8334C42.3592 88.958 42.4252 89.112 42.4252 89.2954C42.4252 89.4787 42.3592 89.6364 42.2272 89.7684C42.1026 89.9004 41.9449 89.9664 41.7542 89.9664ZM41.2922 91.0004H42.2162V96.6104H41.2922V91.0004ZM43.6857 91.0004H44.5767V91.8254H44.6207C44.7747 91.5467 45.0203 91.312 45.3577 91.1214C45.695 90.9234 46.0543 90.8244 46.4357 90.8244C47.1103 90.8244 47.6237 91.0224 47.9757 91.4184C48.335 91.807 48.5147 92.3387 48.5147 93.0134V96.6104H47.5797V93.1564C47.5797 92.6357 47.455 92.258 47.2057 92.0234C46.9563 91.7887 46.6153 91.6714 46.1827 91.6714C45.882 91.6714 45.6107 91.7557 45.3687 91.9244C45.134 92.093 44.9507 92.3167 44.8187 92.5954C44.6867 92.8667 44.6207 93.1527 44.6207 93.4534V96.6104H43.6857V91.0004ZM51.756 96.7864C51.1546 96.7864 50.6523 96.647 50.249 96.3684C49.8456 96.0824 49.5596 95.7194 49.391 95.2794L50.227 94.9054C50.3663 95.2427 50.5716 95.503 50.843 95.6864C51.1216 95.8697 51.426 95.9614 51.756 95.9614C52.108 95.9614 52.4086 95.8917 52.658 95.7524C52.9073 95.6057 53.032 95.4004 53.032 95.1364C53.032 94.9017 52.933 94.7147 52.735 94.5754C52.537 94.4287 52.2253 94.304 51.8 94.2014L51.118 94.0254C50.6706 93.9154 50.304 93.7284 50.018 93.4644C49.732 93.2004 49.589 92.8594 49.589 92.4414C49.589 92.1187 49.6843 91.8364 49.875 91.5944C50.073 91.345 50.3333 91.1544 50.656 91.0224C50.9786 90.8904 51.327 90.8244 51.701 90.8244C52.1923 90.8244 52.6286 90.9307 53.01 91.1434C53.3986 91.356 53.6736 91.653 53.835 92.0344L53.021 92.4084C52.7716 91.9097 52.328 91.6604 51.69 91.6604C51.382 91.6604 51.1106 91.7337 50.876 91.8804C50.6486 92.0197 50.535 92.1994 50.535 92.4194C50.535 92.6247 50.6156 92.7934 50.777 92.9254C50.9383 93.05 51.1803 93.1527 51.503 93.2334L52.317 93.4424C52.867 93.5817 53.2813 93.7907 53.56 94.0694C53.8386 94.3407 53.978 94.6744 53.978 95.0704C53.978 95.415 53.879 95.7194 53.681 95.9834C53.483 96.24 53.2153 96.438 52.878 96.5774C52.5406 96.7167 52.1666 96.7864 51.756 96.7864ZM61.222 96.7864C60.4593 96.7864 59.7663 96.6067 59.143 96.2474C58.5197 95.888 58.0283 95.3967 57.669 94.7734C57.317 94.1427 57.141 93.4424 57.141 92.6724C57.141 91.9024 57.317 91.2057 57.669 90.5824C58.0283 89.9517 58.5197 89.4567 59.143 89.0974C59.7663 88.738 60.4593 88.5584 61.222 88.5584C61.8087 88.5584 62.344 88.672 62.828 88.8994C63.3193 89.1194 63.7447 89.4347 64.104 89.8454L63.433 90.4944C63.1323 90.135 62.8023 89.871 62.443 89.7024C62.091 89.5337 61.684 89.4494 61.222 89.4494C60.65 89.4494 60.1257 89.585 59.649 89.8564C59.1723 90.1204 58.791 90.498 58.505 90.9894C58.2263 91.4734 58.087 92.0344 58.087 92.6724C58.087 93.3104 58.2263 93.875 58.505 94.3664C58.791 94.8504 59.1723 95.228 59.649 95.4994C60.1257 95.7634 60.65 95.8954 61.222 95.8954C62.1753 95.8954 62.9857 95.503 63.653 94.7184L64.335 95.3784C63.9683 95.811 63.5173 96.1557 62.982 96.4124C62.4467 96.6617 61.86 96.7864 61.222 96.7864ZM67.8625 96.7864C67.3125 96.7864 66.8175 96.6544 66.3775 96.3904C65.9375 96.1264 65.5928 95.767 65.3435 95.3124C65.1015 94.8577 64.9805 94.3554 64.9805 93.8054C64.9805 93.2554 65.1015 92.753 65.3435 92.2984C65.5928 91.8437 65.9375 91.4844 66.3775 91.2204C66.8175 90.9564 67.3125 90.8244 67.8625 90.8244C68.4125 90.8244 68.9075 90.9564 69.3475 91.2204C69.7875 91.4844 70.1285 91.8437 70.3705 92.2984C70.6198 92.753 70.7445 93.2554 70.7445 93.8054C70.7445 94.3554 70.6198 94.8577 70.3705 95.3124C70.1285 95.767 69.7875 96.1264 69.3475 96.3904C68.9075 96.6544 68.4125 96.7864 67.8625 96.7864ZM67.8625 95.9394C68.2071 95.9394 68.5261 95.855 68.8195 95.6864C69.1201 95.5104 69.3585 95.261 69.5345 94.9384C69.7178 94.6157 69.8095 94.238 69.8095 93.8054C69.8095 93.3727 69.7178 92.995 69.5345 92.6724C69.3585 92.3497 69.1201 92.104 68.8195 91.9354C68.5261 91.7594 68.2071 91.6714 67.8625 91.6714C67.5178 91.6714 67.1951 91.7594 66.8945 91.9354C66.5938 92.104 66.3518 92.3497 66.1685 92.6724C65.9925 92.995 65.9045 93.3727 65.9045 93.8054C65.9045 94.238 65.9925 94.6157 66.1685 94.9384C66.3518 95.261 66.5938 95.5104 66.8945 95.6864C67.1951 95.855 67.5178 95.9394 67.8625 95.9394ZM71.7765 88.7344H72.7115V96.6104H71.7765V88.7344ZM74.0968 88.7344H75.0318V96.6104H74.0968V88.7344ZM78.8604 96.7864C78.3251 96.7864 77.8447 96.658 77.4194 96.4014C76.9941 96.1447 76.6604 95.7927 76.4184 95.3454C76.1837 94.8907 76.0664 94.381 76.0664 93.8164C76.0664 93.2737 76.1764 92.775 76.3964 92.3204C76.6237 91.8657 76.9427 91.5027 77.3534 91.2314C77.7641 90.96 78.2407 90.8244 78.7834 90.8244C79.3334 90.8244 79.8101 90.949 80.2134 91.1984C80.6167 91.4404 80.9247 91.7777 81.1374 92.2104C81.3574 92.643 81.4674 93.138 81.4674 93.6954C81.4674 93.8054 81.4564 93.9007 81.4344 93.9814H77.0014C77.0234 94.4067 77.1261 94.766 77.3094 95.0594C77.4927 95.3527 77.7237 95.5727 78.0024 95.7194C78.2884 95.866 78.5854 95.9394 78.8934 95.9394C79.6121 95.9394 80.1657 95.602 80.5544 94.9274L81.3464 95.3124C81.1044 95.767 80.7744 96.1264 80.3564 96.3904C79.9457 96.6544 79.4471 96.7864 78.8604 96.7864ZM80.4774 93.2114C80.4627 92.9767 80.3967 92.742 80.2794 92.5074C80.1621 92.2727 79.9751 92.0747 79.7184 91.9134C79.4691 91.752 79.1537 91.6714 78.7724 91.6714C78.3324 91.6714 77.9584 91.8144 77.6504 92.1004C77.3497 92.379 77.1517 92.7494 77.0564 93.2114H80.4774ZM85.0794 99.1624C84.4194 99.1624 83.873 99.0084 83.4404 98.7004C83.015 98.3924 82.729 98.022 82.5824 97.5894L83.4294 97.2264C83.554 97.549 83.7594 97.8094 84.0454 98.0074C84.3387 98.2127 84.6834 98.3154 85.0794 98.3154C85.6587 98.3154 86.106 98.1467 86.4214 97.8094C86.744 97.472 86.9054 96.9954 86.9054 96.3794V95.7524H86.8614C86.678 96.0384 86.4177 96.273 86.0804 96.4564C85.7504 96.6324 85.3727 96.7204 84.9474 96.7204C84.4634 96.7204 84.0197 96.5957 83.6164 96.3464C83.2204 96.097 82.905 95.7487 82.6704 95.3014C82.4357 94.854 82.3184 94.3444 82.3184 93.7724C82.3184 93.2077 82.4357 92.7017 82.6704 92.2544C82.905 91.7997 83.2204 91.4477 83.6164 91.1984C84.0197 90.949 84.4634 90.8244 84.9474 90.8244C85.3727 90.8244 85.7504 90.916 86.0804 91.0994C86.4177 91.2754 86.678 91.51 86.8614 91.8034H86.9054V91.0004H87.7964V96.3904C87.7964 97.2924 87.547 97.978 87.0484 98.4474C86.5497 98.924 85.8934 99.1624 85.0794 99.1624ZM85.0794 95.8734C85.4167 95.8734 85.721 95.789 85.9924 95.6204C86.271 95.4517 86.491 95.2097 86.6524 94.8944C86.821 94.579 86.9054 94.205 86.9054 93.7724C86.9054 93.3324 86.821 92.9547 86.6524 92.6394C86.491 92.324 86.271 92.0857 85.9924 91.9244C85.721 91.7557 85.4167 91.6714 85.0794 91.6714C84.742 91.6714 84.434 91.7557 84.1554 91.9244C83.8767 92.093 83.653 92.335 83.4844 92.6504C83.323 92.9657 83.2424 93.3397 83.2424 93.7724C83.2424 94.205 83.323 94.5827 83.4844 94.9054C83.653 95.2207 83.8767 95.4627 84.1554 95.6314C84.434 95.7927 84.742 95.8734 85.0794 95.8734ZM91.6221 96.7864C91.0868 96.7864 90.6065 96.658 90.1811 96.4014C89.7558 96.1447 89.4221 95.7927 89.1801 95.3454C88.9455 94.8907 88.8281 94.381 88.8281 93.8164C88.8281 93.2737 88.9381 92.775 89.1581 92.3204C89.3855 91.8657 89.7045 91.5027 90.1151 91.2314C90.5258 90.96 91.0025 90.8244 91.5451 90.8244C92.0951 90.8244 92.5718 90.949 92.9751 91.1984C93.3785 91.4404 93.6865 91.7777 93.8991 92.2104C94.1191 92.643 94.2291 93.138 94.2291 93.6954C94.2291 93.8054 94.2181 93.9007 94.1961 93.9814H89.7631C89.7851 94.4067 89.8878 94.766 90.0711 95.0594C90.2545 95.3527 90.4855 95.5727 90.7641 95.7194C91.0501 95.866 91.3471 95.9394 91.6551 95.9394C92.3738 95.9394 92.9275 95.602 93.3161 94.9274L94.1081 95.3124C93.8661 95.767 93.5361 96.1264 93.1181 96.3904C92.7075 96.6544 92.2088 96.7864 91.6221 96.7864ZM93.2391 93.2114C93.2245 92.9767 93.1585 92.742 93.0411 92.5074C92.9238 92.2727 92.7368 92.0747 92.4801 91.9134C92.2308 91.752 91.9155 91.6714 91.5341 91.6714C91.0941 91.6714 90.7201 91.8144 90.4121 92.1004C90.1115 92.379 89.9135 92.7494 89.8181 93.2114H93.2391ZM100.465 96.7864C99.915 96.7864 99.42 96.6544 98.98 96.3904C98.54 96.1264 98.1953 95.767 97.946 95.3124C97.704 94.8577 97.583 94.3554 97.583 93.8054C97.583 93.2554 97.704 92.753 97.946 92.2984C98.1953 91.8437 98.54 91.4844 98.98 91.2204C99.42 90.9564 99.915 90.8244 100.465 90.8244C101.015 90.8244 101.51 90.9564 101.95 91.2204C102.39 91.4844 102.731 91.8437 102.973 92.2984C103.222 92.753 103.347 93.2554 103.347 93.8054C103.347 94.3554 103.222 94.8577 102.973 95.3124C102.731 95.767 102.39 96.1264 101.95 96.3904C101.51 96.6544 101.015 96.7864 100.465 96.7864ZM100.465 95.9394C100.81 95.9394 101.129 95.855 101.422 95.6864C101.723 95.5104 101.961 95.261 102.137 94.9384C102.32 94.6157 102.412 94.238 102.412 93.8054C102.412 93.3727 102.32 92.995 102.137 92.6724C101.961 92.3497 101.723 92.104 101.422 91.9354C101.129 91.7594 100.81 91.6714 100.465 91.6714C100.12 91.6714 99.7977 91.7594 99.497 91.9354C99.1963 92.104 98.9543 92.3497 98.771 92.6724C98.595 92.995 98.507 93.3727 98.507 93.8054C98.507 94.238 98.595 94.6157 98.771 94.9384C98.9543 95.261 99.1963 95.5104 99.497 95.6864C99.7977 95.855 100.12 95.9394 100.465 95.9394ZM104.921 91.8474H103.887V91.0004H104.921V90.3954C104.921 90.0434 105.001 89.7354 105.163 89.4714C105.324 89.2074 105.54 89.0057 105.812 88.8664C106.083 88.7197 106.384 88.6464 106.714 88.6464C107.029 88.6464 107.304 88.6904 107.539 88.7784V89.6914C107.407 89.64 107.282 89.5997 107.165 89.5704C107.047 89.5337 106.908 89.5154 106.747 89.5154C106.505 89.5154 106.296 89.6034 106.12 89.7794C105.944 89.948 105.856 90.1864 105.856 90.4944V91.0004H107.297V91.8474H105.856V96.6104H104.921V91.8474ZM111.183 88.7344H115.737V89.6254H112.107V92.2324H115.385V93.1124H112.107V95.7194H115.737V96.6104H111.183V88.7344ZM116.947 91.0004H117.838V91.8254H117.882C118.036 91.5467 118.282 91.312 118.619 91.1214C118.957 90.9234 119.316 90.8244 119.697 90.8244C120.372 90.8244 120.885 91.0224 121.237 91.4184C121.597 91.807 121.776 92.3387 121.776 93.0134V96.6104H120.841V93.1564C120.841 92.6357 120.717 92.258 120.467 92.0234C120.218 91.7887 119.877 91.6714 119.444 91.6714C119.144 91.6714 118.872 91.7557 118.63 91.9244C118.396 92.093 118.212 92.3167 118.08 92.5954C117.948 92.8667 117.882 93.1527 117.882 93.4534V96.6104H116.947V91.0004ZM125.524 99.1624C124.864 99.1624 124.317 99.0084 123.885 98.7004C123.459 98.3924 123.173 98.022 123.027 97.5894L123.874 97.2264C123.998 97.549 124.204 97.8094 124.49 98.0074C124.783 98.2127 125.128 98.3154 125.524 98.3154C126.103 98.3154 126.55 98.1467 126.866 97.8094C127.188 97.472 127.35 96.9954 127.35 96.3794V95.7524H127.306C127.122 96.0384 126.862 96.273 126.525 96.4564C126.195 96.6324 125.817 96.7204 125.392 96.7204C124.908 96.7204 124.464 96.5957 124.061 96.3464C123.665 96.097 123.349 95.7487 123.115 95.3014C122.88 94.854 122.763 94.3444 122.763 93.7724C122.763 93.2077 122.88 92.7017 123.115 92.2544C123.349 91.7997 123.665 91.4477 124.061 91.1984C124.464 90.949 124.908 90.8244 125.392 90.8244C125.817 90.8244 126.195 90.916 126.525 91.0994C126.862 91.2754 127.122 91.51 127.306 91.8034H127.35V91.0004H128.241V96.3904C128.241 97.2924 127.991 97.978 127.493 98.4474C126.994 98.924 126.338 99.1624 125.524 99.1624ZM125.524 95.8734C125.861 95.8734 126.165 95.789 126.437 95.6204C126.715 95.4517 126.935 95.2097 127.097 94.8944C127.265 94.579 127.35 94.205 127.35 93.7724C127.35 93.3324 127.265 92.9547 127.097 92.6394C126.935 92.324 126.715 92.0857 126.437 91.9244C126.165 91.7557 125.861 91.6714 125.524 91.6714C125.186 91.6714 124.878 91.7557 124.6 91.9244C124.321 92.093 124.097 92.335 123.929 92.6504C123.767 92.9657 123.687 93.3397 123.687 93.7724C123.687 94.205 123.767 94.5827 123.929 94.9054C124.097 95.2207 124.321 95.4627 124.6 95.6314C124.878 95.7927 125.186 95.8734 125.524 95.8734ZM130.173 89.9664C129.99 89.9664 129.832 89.9004 129.7 89.7684C129.568 89.6364 129.502 89.4787 129.502 89.2954C129.502 89.112 129.568 88.958 129.7 88.8334C129.832 88.7014 129.99 88.6354 130.173 88.6354C130.357 88.6354 130.514 88.7014 130.646 88.8334C130.778 88.958 130.844 89.112 130.844 89.2954C130.844 89.4787 130.778 89.6364 130.646 89.7684C130.522 89.9004 130.364 89.9664 130.173 89.9664ZM129.711 91.0004H130.635V96.6104H129.711V91.0004ZM132.105 91.0004H132.996V91.8254H133.04C133.194 91.5467 133.439 91.312 133.777 91.1214C134.114 90.9234 134.473 90.8244 134.855 90.8244C135.529 90.8244 136.043 91.0224 136.395 91.4184C136.754 91.807 136.934 92.3387 136.934 93.0134V96.6104H135.999V93.1564C135.999 92.6357 135.874 92.258 135.625 92.0234C135.375 91.7887 135.034 91.6714 134.602 91.6714C134.301 91.6714 134.03 91.7557 133.788 91.9244C133.553 92.093 133.37 92.3167 133.238 92.5954C133.106 92.8667 133.04 93.1527 133.04 93.4534V96.6104H132.105V91.0004ZM140.768 96.7864C140.232 96.7864 139.752 96.658 139.327 96.4014C138.901 96.1447 138.568 95.7927 138.326 95.3454C138.091 94.8907 137.974 94.381 137.974 93.8164C137.974 93.2737 138.084 92.775 138.304 92.3204C138.531 91.8657 138.85 91.5027 139.261 91.2314C139.671 90.96 140.148 90.8244 140.691 90.8244C141.241 90.8244 141.717 90.949 142.121 91.1984C142.524 91.4404 142.832 91.7777 143.045 92.2104C143.265 92.643 143.375 93.138 143.375 93.6954C143.375 93.8054 143.364 93.9007 143.342 93.9814H138.909C138.931 94.4067 139.033 94.766 139.217 95.0594C139.4 95.3527 139.631 95.5727 139.91 95.7194C140.196 95.866 140.493 95.9394 140.801 95.9394C141.519 95.9394 142.073 95.602 142.462 94.9274L143.254 95.3124C143.012 95.767 142.682 96.1264 142.264 96.3904C141.853 96.6544 141.354 96.7864 140.768 96.7864ZM142.385 93.2114C142.37 92.9767 142.304 92.742 142.187 92.5074C142.069 92.2727 141.882 92.0747 141.626 91.9134C141.376 91.752 141.061 91.6714 140.68 91.6714C140.24 91.6714 139.866 91.8144 139.558 92.1004C139.257 92.379 139.059 92.7494 138.964 93.2114H142.385ZM147.02 96.7864C146.484 96.7864 146.004 96.658 145.579 96.4014C145.153 96.1447 144.82 95.7927 144.578 95.3454C144.343 94.8907 144.226 94.381 144.226 93.8164C144.226 93.2737 144.336 92.775 144.556 92.3204C144.783 91.8657 145.102 91.5027 145.513 91.2314C145.923 90.96 146.4 90.8244 146.943 90.8244C147.493 90.8244 147.969 90.949 148.373 91.1984C148.776 91.4404 149.084 91.7777 149.297 92.2104C149.517 92.643 149.627 93.138 149.627 93.6954C149.627 93.8054 149.616 93.9007 149.594 93.9814H145.161C145.183 94.4067 145.285 94.766 145.469 95.0594C145.652 95.3527 145.883 95.5727 146.162 95.7194C146.448 95.866 146.745 95.9394 147.053 95.9394C147.771 95.9394 148.325 95.602 148.714 94.9274L149.506 95.3124C149.264 95.767 148.934 96.1264 148.516 96.3904C148.105 96.6544 147.606 96.7864 147.02 96.7864ZM148.637 93.2114C148.622 92.9767 148.556 92.742 148.439 92.5074C148.321 92.2727 148.134 92.0747 147.878 91.9134C147.628 91.752 147.313 91.6714 146.932 91.6714C146.492 91.6714 146.118 91.8144 145.81 92.1004C145.509 92.379 145.311 92.7494 145.216 93.2114H148.637ZM150.721 91.0004H151.612V91.9024H151.656C151.766 91.5944 151.978 91.3414 152.294 91.1434C152.609 90.938 152.939 90.8354 153.284 90.8354C153.54 90.8354 153.76 90.872 153.944 90.9454V91.9574C153.709 91.84 153.445 91.7814 153.152 91.7814C152.88 91.7814 152.631 91.8584 152.404 92.0124C152.176 92.1664 151.993 92.3754 151.854 92.6394C151.722 92.896 151.656 93.1747 151.656 93.4754V96.6104H150.721V91.0004ZM155.396 89.9664C155.212 89.9664 155.055 89.9004 154.923 89.7684C154.791 89.6364 154.725 89.4787 154.725 89.2954C154.725 89.112 154.791 88.958 154.923 88.8334C155.055 88.7014 155.212 88.6354 155.396 88.6354C155.579 88.6354 155.737 88.7014 155.869 88.8334C156.001 88.958 156.067 89.112 156.067 89.2954C156.067 89.4787 156.001 89.6364 155.869 89.7684C155.744 89.9004 155.586 89.9664 155.396 89.9664ZM154.934 91.0004H155.858V96.6104H154.934V91.0004ZM157.327 91.0004H158.218V91.8254H158.262C158.416 91.5467 158.662 91.312 158.999 91.1214C159.337 90.9234 159.696 90.8244 160.077 90.8244C160.752 90.8244 161.265 91.0224 161.617 91.4184C161.977 91.807 162.156 92.3387 162.156 93.0134V96.6104H161.221V93.1564C161.221 92.6357 161.097 92.258 160.847 92.0234C160.598 91.7887 160.257 91.6714 159.824 91.6714C159.524 91.6714 159.252 91.7557 159.01 91.9244C158.776 92.093 158.592 92.3167 158.46 92.5954C158.328 92.8667 158.262 93.1527 158.262 93.4534V96.6104H157.327V91.0004ZM165.904 99.1624C165.244 99.1624 164.697 99.0084 164.265 98.7004C163.839 98.3924 163.553 98.022 163.407 97.5894L164.254 97.2264C164.378 97.549 164.584 97.8094 164.87 98.0074C165.163 98.2127 165.508 98.3154 165.904 98.3154C166.483 98.3154 166.93 98.1467 167.246 97.8094C167.568 97.472 167.73 96.9954 167.73 96.3794V95.7524H167.686C167.502 96.0384 167.242 96.273 166.905 96.4564C166.575 96.6324 166.197 96.7204 165.772 96.7204C165.288 96.7204 164.844 96.5957 164.441 96.3464C164.045 96.097 163.729 95.7487 163.495 95.3014C163.26 94.854 163.143 94.3444 163.143 93.7724C163.143 93.2077 163.26 92.7017 163.495 92.2544C163.729 91.7997 164.045 91.4477 164.441 91.1984C164.844 90.949 165.288 90.8244 165.772 90.8244C166.197 90.8244 166.575 90.916 166.905 91.0994C167.242 91.2754 167.502 91.51 167.686 91.8034H167.73V91.0004H168.621V96.3904C168.621 97.2924 168.371 97.978 167.873 98.4474C167.374 98.924 166.718 99.1624 165.904 99.1624ZM165.904 95.8734C166.241 95.8734 166.545 95.789 166.817 95.6204C167.095 95.4517 167.315 95.2097 167.477 94.8944C167.645 94.579 167.73 94.205 167.73 93.7724C167.73 93.3324 167.645 92.9547 167.477 92.6394C167.315 92.324 167.095 92.0857 166.817 91.9244C166.545 91.7557 166.241 91.6714 165.904 91.6714C165.566 91.6714 165.258 91.7557 164.98 91.9244C164.701 92.093 164.477 92.335 164.309 92.6504C164.147 92.9657 164.067 93.3397 164.067 93.7724C164.067 94.205 164.147 94.5827 164.309 94.9054C164.477 95.2207 164.701 95.4627 164.98 95.6314C165.258 95.7927 165.566 95.8734 165.904 95.8734ZM172.994 91.8474H171.96V91.0004H172.994V90.3954C172.994 90.0434 173.075 89.7354 173.236 89.4714C173.397 89.2074 173.614 89.0057 173.885 88.8664C174.156 88.7197 174.457 88.6464 174.787 88.6464C175.102 88.6464 175.377 88.6904 175.612 88.7784V89.6914C175.48 89.64 175.355 89.5997 175.238 89.5704C175.121 89.5337 174.981 89.5154 174.82 89.5154C174.578 89.5154 174.369 89.6034 174.193 89.7794C174.017 89.948 173.929 90.1864 173.929 90.4944V91.0004H175.37V91.8474H173.929V96.6104H172.994V91.8474ZM178.754 96.7864C178.204 96.7864 177.709 96.6544 177.269 96.3904C176.829 96.1264 176.484 95.767 176.235 95.3124C175.993 94.8577 175.872 94.3554 175.872 93.8054C175.872 93.2554 175.993 92.753 176.235 92.2984C176.484 91.8437 176.829 91.4844 177.269 91.2204C177.709 90.9564 178.204 90.8244 178.754 90.8244C179.304 90.8244 179.799 90.9564 180.239 91.2204C180.679 91.4844 181.02 91.8437 181.262 92.2984C181.511 92.753 181.636 93.2554 181.636 93.8054C181.636 94.3554 181.511 94.8577 181.262 95.3124C181.02 95.767 180.679 96.1264 180.239 96.3904C179.799 96.6544 179.304 96.7864 178.754 96.7864ZM178.754 95.9394C179.099 95.9394 179.418 95.855 179.711 95.6864C180.012 95.5104 180.25 95.261 180.426 94.9384C180.609 94.6157 180.701 94.238 180.701 93.8054C180.701 93.3727 180.609 92.995 180.426 92.6724C180.25 92.3497 180.012 92.104 179.711 91.9354C179.418 91.7594 179.099 91.6714 178.754 91.6714C178.409 91.6714 178.087 91.7594 177.786 91.9354C177.485 92.104 177.243 92.3497 177.06 92.6724C176.884 92.995 176.796 93.3727 176.796 93.8054C176.796 94.238 176.884 94.6157 177.06 94.9384C177.243 95.261 177.485 95.5104 177.786 95.6864C178.087 95.855 178.409 95.9394 178.754 95.9394ZM182.614 91.0004H183.505V91.9024H183.549C183.659 91.5944 183.872 91.3414 184.187 91.1434C184.503 90.938 184.833 90.8354 185.177 90.8354C185.434 90.8354 185.654 90.872 185.837 90.9454V91.9574C185.603 91.84 185.339 91.7814 185.045 91.7814C184.774 91.7814 184.525 91.8584 184.297 92.0124C184.07 92.1664 183.887 92.3754 183.747 92.6394C183.615 92.896 183.549 93.1747 183.549 93.4754V96.6104H182.614V91.0004ZM188.68 91.0004H189.637L190.979 95.4334H190.99L192.398 91.0004H193.366L194.785 95.4224H194.796L196.127 91.0004H197.073L195.258 96.6104H194.312L192.86 92.1334L191.419 96.6104H190.484L188.68 91.0004ZM200.324 96.7864C199.774 96.7864 199.279 96.6544 198.839 96.3904C198.399 96.1264 198.055 95.767 197.805 95.3124C197.563 94.8577 197.442 94.3554 197.442 93.8054C197.442 93.2554 197.563 92.753 197.805 92.2984C198.055 91.8437 198.399 91.4844 198.839 91.2204C199.279 90.9564 199.774 90.8244 200.324 90.8244C200.874 90.8244 201.369 90.9564 201.809 91.2204C202.249 91.4844 202.59 91.8437 202.832 92.2984C203.082 92.753 203.206 93.2554 203.206 93.8054C203.206 94.3554 203.082 94.8577 202.832 95.3124C202.59 95.767 202.249 96.1264 201.809 96.3904C201.369 96.6544 200.874 96.7864 200.324 96.7864ZM200.324 95.9394C200.669 95.9394 200.988 95.855 201.281 95.6864C201.582 95.5104 201.82 95.261 201.996 94.9384C202.18 94.6157 202.271 94.238 202.271 93.8054C202.271 93.3727 202.18 92.995 201.996 92.6724C201.82 92.3497 201.582 92.104 201.281 91.9354C200.988 91.7594 200.669 91.6714 200.324 91.6714C199.98 91.6714 199.657 91.7594 199.356 91.9354C199.056 92.104 198.814 92.3497 198.63 92.6724C198.454 92.995 198.366 93.3727 198.366 93.8054C198.366 94.238 198.454 94.6157 198.63 94.9384C198.814 95.261 199.056 95.5104 199.356 95.6864C199.657 95.855 199.98 95.9394 200.324 95.9394ZM204.185 91.0004H205.076V91.8254H205.12C205.281 91.5394 205.523 91.301 205.846 91.1104C206.168 90.9197 206.509 90.8244 206.869 90.8244C207.279 90.8244 207.635 90.9234 207.936 91.1214C208.244 91.3194 208.464 91.5834 208.596 91.9134C208.794 91.5834 209.054 91.3194 209.377 91.1214C209.707 90.9234 210.088 90.8244 210.521 90.8244C211.166 90.8244 211.65 91.0224 211.973 91.4184C212.303 91.807 212.468 92.3387 212.468 93.0134V96.6104H211.544V93.1564C211.544 92.6357 211.437 92.258 211.225 92.0234C211.012 91.7887 210.697 91.6714 210.279 91.6714C210 91.6714 209.747 91.752 209.52 91.9134C209.292 92.0747 209.113 92.291 208.981 92.5624C208.856 92.8337 208.794 93.127 208.794 93.4424V96.6104H207.859V93.1674C207.859 92.6394 207.752 92.258 207.54 92.0234C207.327 91.7887 207.015 91.6714 206.605 91.6714C206.326 91.6714 206.073 91.7557 205.846 91.9244C205.618 92.0857 205.439 92.3057 205.307 92.5844C205.182 92.8557 205.12 93.149 205.12 93.4644V96.6104H204.185V91.0004ZM216.307 96.7864C215.771 96.7864 215.291 96.658 214.866 96.4014C214.44 96.1447 214.107 95.7927 213.865 95.3454C213.63 94.8907 213.513 94.381 213.513 93.8164C213.513 93.2737 213.623 92.775 213.843 92.3204C214.07 91.8657 214.389 91.5027 214.8 91.2314C215.21 90.96 215.687 90.8244 216.23 90.8244C216.78 90.8244 217.256 90.949 217.66 91.1984C218.063 91.4404 218.371 91.7777 218.584 92.2104C218.804 92.643 218.914 93.138 218.914 93.6954C218.914 93.8054 218.903 93.9007 218.881 93.9814H214.448C214.47 94.4067 214.572 94.766 214.756 95.0594C214.939 95.3527 215.17 95.5727 215.449 95.7194C215.735 95.866 216.032 95.9394 216.34 95.9394C217.058 95.9394 217.612 95.602 218.001 94.9274L218.793 95.3124C218.551 95.767 218.221 96.1264 217.803 96.3904C217.392 96.6544 216.893 96.7864 216.307 96.7864ZM217.924 93.2114C217.909 92.9767 217.843 92.742 217.726 92.5074C217.608 92.2727 217.421 92.0747 217.165 91.9134C216.915 91.752 216.6 91.6714 216.219 91.6714C215.779 91.6714 215.405 91.8144 215.097 92.1004C214.796 92.379 214.598 92.7494 214.503 93.2114H217.924ZM220.008 91.0004H220.899V91.8254H220.943C221.097 91.5467 221.343 91.312 221.68 91.1214C222.017 90.9234 222.377 90.8244 222.758 90.8244C223.433 90.8244 223.946 91.0224 224.298 91.4184C224.657 91.807 224.837 92.3387 224.837 93.0134V96.6104H223.902V93.1564C223.902 92.6357 223.777 92.258 223.528 92.0234C223.279 91.7887 222.938 91.6714 222.505 91.6714C222.204 91.6714 221.933 91.7557 221.691 91.9244C221.456 92.093 221.273 92.3167 221.141 92.5954C221.009 92.8667 220.943 93.1527 220.943 93.4534V96.6104H220.008V91.0004ZM226.042 97.5234L226.625 96.6104C226.493 96.5884 226.376 96.5187 226.273 96.4014C226.17 96.284 226.119 96.141 226.119 95.9724C226.119 95.7817 226.185 95.6204 226.317 95.4884C226.456 95.349 226.625 95.2794 226.823 95.2794C227.021 95.2794 227.186 95.349 227.318 95.4884C227.457 95.6204 227.527 95.7817 227.527 95.9724C227.527 96.097 227.501 96.218 227.45 96.3354C227.399 96.4454 227.322 96.5737 227.219 96.7204L226.493 97.8204L226.042 97.5234ZM231.571 88.7344H232.715L236.664 95.0044H236.708L236.664 93.4864V88.7344H237.599V96.6104H236.631L232.495 90.0434H232.451L232.495 91.5614V96.6104H231.571V88.7344ZM240.804 96.7864C240.393 96.7864 240.027 96.7057 239.704 96.5444C239.381 96.383 239.132 96.163 238.956 95.8844C238.78 95.5984 238.692 95.2757 238.692 94.9164C238.692 94.3224 238.916 93.8604 239.363 93.5304C239.81 93.193 240.375 93.0244 241.057 93.0244C241.394 93.0244 241.706 93.061 241.992 93.1344C242.285 93.2077 242.509 93.292 242.663 93.3874V93.0464C242.663 92.6284 242.516 92.2947 242.223 92.0454C241.93 91.7887 241.559 91.6604 241.112 91.6604C240.797 91.6604 240.507 91.73 240.243 91.8694C239.979 92.0014 239.77 92.1884 239.616 92.4304L238.912 91.9024C239.132 91.565 239.433 91.301 239.814 91.1104C240.203 90.9197 240.632 90.8244 241.101 90.8244C241.864 90.8244 242.461 91.026 242.894 91.4294C243.334 91.8254 243.554 92.368 243.554 93.0574V96.6104H242.663V95.8074H242.619C242.458 96.0787 242.216 96.3097 241.893 96.5004C241.57 96.691 241.207 96.7864 240.804 96.7864ZM240.892 95.9614C241.207 95.9614 241.501 95.8807 241.772 95.7194C242.043 95.558 242.26 95.3417 242.421 95.0704C242.582 94.799 242.663 94.502 242.663 94.1794C242.487 94.062 242.271 93.9667 242.014 93.8934C241.757 93.82 241.486 93.7834 241.2 93.7834C240.687 93.7834 240.298 93.8897 240.034 94.1024C239.777 94.315 239.649 94.59 239.649 94.9274C239.649 95.2354 239.766 95.4847 240.001 95.6754C240.236 95.866 240.533 95.9614 240.892 95.9614ZM247.265 99.1624C246.605 99.1624 246.059 99.0084 245.626 98.7004C245.201 98.3924 244.915 98.022 244.768 97.5894L245.615 97.2264C245.74 97.549 245.945 97.8094 246.231 98.0074C246.524 98.2127 246.869 98.3154 247.265 98.3154C247.844 98.3154 248.292 98.1467 248.607 97.8094C248.93 97.472 249.091 96.9954 249.091 96.3794V95.7524H249.047C248.864 96.0384 248.603 96.273 248.266 96.4564C247.936 96.6324 247.558 96.7204 247.133 96.7204C246.649 96.7204 246.205 96.5957 245.802 96.3464C245.406 96.097 245.091 95.7487 244.856 95.3014C244.621 94.854 244.504 94.3444 244.504 93.7724C244.504 93.2077 244.621 92.7017 244.856 92.2544C245.091 91.7997 245.406 91.4477 245.802 91.1984C246.205 90.949 246.649 90.8244 247.133 90.8244C247.558 90.8244 247.936 90.916 248.266 91.0994C248.603 91.2754 248.864 91.51 249.047 91.8034H249.091V91.0004H249.982V96.3904C249.982 97.2924 249.733 97.978 249.234 98.4474C248.735 98.924 248.079 99.1624 247.265 99.1624ZM247.265 95.8734C247.602 95.8734 247.907 95.789 248.178 95.6204C248.457 95.4517 248.677 95.2097 248.838 94.8944C249.007 94.579 249.091 94.205 249.091 93.7724C249.091 93.3324 249.007 92.9547 248.838 92.6394C248.677 92.324 248.457 92.0857 248.178 91.9244C247.907 91.7557 247.602 91.6714 247.265 91.6714C246.928 91.6714 246.62 91.7557 246.341 91.9244C246.062 92.093 245.839 92.335 245.67 92.6504C245.509 92.9657 245.428 93.3397 245.428 93.7724C245.428 94.205 245.509 94.5827 245.67 94.9054C245.839 95.2207 246.062 95.4627 246.341 95.6314C246.62 95.7927 246.928 95.8734 247.265 95.8734ZM251.32 91.0004H252.211V91.8364H252.255C252.424 91.5504 252.677 91.312 253.014 91.1214C253.359 90.9234 253.744 90.8244 254.169 90.8244C254.668 90.8244 255.123 90.9527 255.533 91.2094C255.944 91.466 256.267 91.8217 256.501 92.2764C256.736 92.731 256.853 93.2407 256.853 93.8054C256.853 94.3774 256.736 94.8907 256.501 95.3454C256.267 95.7927 255.944 96.1447 255.533 96.4014C255.123 96.658 254.668 96.7864 254.169 96.7864C253.744 96.7864 253.359 96.691 253.014 96.5004C252.677 96.3024 252.424 96.064 252.255 95.7854H252.211L252.255 96.5554V98.9864H251.32V91.0004ZM254.059 95.9394C254.382 95.9394 254.686 95.8514 254.972 95.6754C255.258 95.4994 255.486 95.25 255.654 94.9274C255.83 94.5974 255.918 94.2234 255.918 93.8054C255.918 93.3874 255.83 93.017 255.654 92.6944C255.486 92.3644 255.258 92.1114 254.972 91.9354C254.686 91.7594 254.382 91.6714 254.059 91.6714C253.737 91.6714 253.432 91.7594 253.146 91.9354C252.86 92.1114 252.633 92.3607 252.464 92.6834C252.296 93.006 252.211 93.38 252.211 93.8054C252.211 94.2307 252.296 94.6047 252.464 94.9274C252.633 95.25 252.86 95.4994 253.146 95.6754C253.432 95.8514 253.737 95.9394 254.059 95.9394ZM259.92 96.7864C259.245 96.7864 258.728 96.5884 258.369 96.1924C258.017 95.7964 257.841 95.2427 257.841 94.5314V91.0004H258.776V94.3884C258.776 94.9237 258.897 95.316 259.139 95.5654C259.381 95.8147 259.707 95.9394 260.118 95.9394C260.433 95.9394 260.712 95.855 260.954 95.6864C261.203 95.5177 261.394 95.2977 261.526 95.0264C261.665 94.755 261.735 94.469 261.735 94.1684V91.0004H262.67V96.6104H261.779V95.7964H261.735C261.581 96.075 261.335 96.3097 260.998 96.5004C260.661 96.691 260.301 96.7864 259.92 96.7864ZM264.051 91.0004H264.942V91.9024H264.986C265.096 91.5944 265.309 91.3414 265.624 91.1434C265.939 90.938 266.269 90.8354 266.614 90.8354C266.871 90.8354 267.091 90.872 267.274 90.9454V91.9574C267.039 91.84 266.775 91.7814 266.482 91.7814C266.211 91.7814 265.961 91.8584 265.734 92.0124C265.507 92.1664 265.323 92.3754 265.184 92.6394C265.052 92.896 264.986 93.1747 264.986 93.4754V96.6104H264.051V91.0004Z" fill="white"/>
</svg>
