<svg width="304" height="120" viewBox="0 0 304 120" fill="none" xmlns="http://www.w3.org/2000/svg">
<rect width="304" height="120" rx="6" fill="#313235"/>
<path d="M23.0871 75.1405C21.9783 75.1405 20.9564 74.8742 20.0216 74.3415C19.0867 73.8089 18.342 73.0805 17.7876 72.1565C17.2441 71.2217 16.9723 70.1835 16.9723 69.0421C16.9723 67.9007 17.2441 66.8679 17.7876 65.9439C18.342 65.0091 19.0867 64.2753 20.0216 63.7426C20.9564 63.21 21.9783 62.9436 23.0871 62.9436C23.9676 62.9436 24.7884 63.1012 25.5493 63.4165C26.3102 63.7317 26.9462 64.172 27.4571 64.7373L26.1852 66.0092C25.8048 65.5852 25.3482 65.2591 24.8155 65.0308C24.2937 64.8025 23.7122 64.6884 23.0708 64.6884C22.3207 64.6884 21.6195 64.8677 20.9673 65.2265C20.3151 65.5852 19.7933 66.0961 19.4019 66.7592C19.0106 67.4223 18.8149 68.1833 18.8149 69.0421C18.8149 69.9009 19.0106 70.6618 19.4019 71.3249C19.7933 71.988 20.3151 72.499 20.9673 72.8577C21.6195 73.2164 22.3261 73.3958 23.0871 73.3958C23.7828 73.3958 24.3644 73.2925 24.8318 73.086C25.2993 72.8794 25.7178 72.6022 26.0874 72.2544C26.3266 72.0152 26.5277 71.7163 26.6907 71.3575C26.8647 70.9988 26.9788 70.6075 27.0332 70.1835H23.0708V68.5529H28.7616C28.8159 68.8573 28.8431 69.1725 28.8431 69.4986C28.8431 70.2379 28.729 70.9499 28.5007 71.6347C28.2724 72.3087 27.9082 72.8957 27.4082 73.3958C26.3102 74.559 24.8699 75.1405 23.0871 75.1405ZM34.4753 75.1405C33.6383 75.1405 32.8882 74.9503 32.2251 74.5698C31.562 74.1785 31.0456 73.6458 30.676 72.9718C30.3064 72.2979 30.1216 71.5478 30.1216 70.7216C30.1216 69.8954 30.3064 69.1454 30.676 68.4714C31.0456 67.7974 31.562 67.2702 32.2251 66.8897C32.8882 66.4983 33.6383 66.3027 34.4753 66.3027C35.3124 66.3027 36.0624 66.4983 36.7256 66.8897C37.3887 67.281 37.905 67.8137 38.2746 68.4877C38.6442 69.1617 38.829 69.9063 38.829 70.7216C38.829 71.5478 38.6442 72.2979 38.2746 72.9718C37.905 73.6458 37.3887 74.1785 36.7256 74.5698C36.0624 74.9503 35.3124 75.1405 34.4753 75.1405ZM34.4753 73.4936C34.9319 73.4936 35.3559 73.3849 35.7472 73.1675C36.1385 72.9392 36.4484 72.6185 36.6766 72.2054C36.9158 71.7815 37.0354 71.2869 37.0354 70.7216C37.0354 70.1563 36.9158 69.6671 36.6766 69.2541C36.4484 68.841 36.1385 68.5257 35.7472 68.3083C35.3559 68.08 34.9319 67.9659 34.4753 67.9659C34.0188 67.9659 33.5948 68.08 33.2035 68.3083C32.8121 68.5257 32.4969 68.841 32.2577 69.2541C32.0294 69.6671 31.9153 70.1563 31.9153 70.7216C31.9153 71.2869 32.0294 71.7815 32.2577 72.2054C32.4969 72.6185 32.8121 72.9392 33.2035 73.1675C33.5948 73.3849 34.0188 73.4936 34.4753 73.4936ZM44.38 75.1405C43.5429 75.1405 42.7928 74.9503 42.1297 74.5698C41.4666 74.1785 40.9503 73.6458 40.5807 72.9718C40.2111 72.2979 40.0263 71.5478 40.0263 70.7216C40.0263 69.8954 40.2111 69.1454 40.5807 68.4714C40.9503 67.7974 41.4666 67.2702 42.1297 66.8897C42.7928 66.4983 43.5429 66.3027 44.38 66.3027C45.217 66.3027 45.9671 66.4983 46.6302 66.8897C47.2933 67.281 47.8097 67.8137 48.1793 68.4877C48.5489 69.1617 48.7337 69.9063 48.7337 70.7216C48.7337 71.5478 48.5489 72.2979 48.1793 72.9718C47.8097 73.6458 47.2933 74.1785 46.6302 74.5698C45.9671 74.9503 45.217 75.1405 44.38 75.1405ZM44.38 73.4936C44.8365 73.4936 45.2605 73.3849 45.6518 73.1675C46.0432 72.9392 46.353 72.6185 46.5813 72.2054C46.8204 71.7815 46.94 71.2869 46.94 70.7216C46.94 70.1563 46.8204 69.6671 46.5813 69.2541C46.353 68.841 46.0432 68.5257 45.6518 68.3083C45.2605 68.08 44.8365 67.9659 44.38 67.9659C43.9234 67.9659 43.4994 68.08 43.1081 68.3083C42.7167 68.5257 42.4015 68.841 42.1623 69.2541C41.9341 69.6671 41.8199 70.1563 41.8199 70.7216C41.8199 71.2869 41.9341 71.7815 42.1623 72.2054C42.4015 72.6185 42.7167 72.9392 43.1081 73.1675C43.4994 73.3849 43.9234 73.4936 44.38 73.4936ZM54.1378 78.6626C53.116 78.6626 52.2681 78.4289 51.5941 77.9615C50.931 77.494 50.4853 76.9396 50.257 76.2983L51.9365 75.5971C52.1105 76.0319 52.3877 76.3798 52.7681 76.6407C53.1595 76.9125 53.6161 77.0483 54.1378 77.0483C54.8988 77.0483 55.4912 76.8201 55.9152 76.3635C56.35 75.9178 56.5674 75.2873 56.5674 74.472V73.7056H56.4696C56.1978 74.0969 55.8337 74.4068 55.3771 74.635C54.9314 74.8525 54.4151 74.9612 53.828 74.9612C53.1323 74.9612 52.4855 74.7818 51.8876 74.4231C51.2897 74.0643 50.8114 73.5589 50.4527 72.9066C50.1048 72.2435 49.9309 71.488 49.9309 70.6401C49.9309 69.7922 50.1048 69.0421 50.4527 68.3898C50.8114 67.7267 51.2897 67.2158 51.8876 66.8571C52.4855 66.4875 53.1323 66.3027 53.828 66.3027C54.4042 66.3027 54.9205 66.4168 55.3771 66.6451C55.8337 66.8734 56.1978 67.1832 56.4696 67.5745H56.5674V66.5636H58.2796V74.4231C58.2796 75.3253 58.1057 76.0917 57.7578 76.7222C57.4099 77.3636 56.9207 77.8473 56.2902 78.1735C55.6706 78.4996 54.9532 78.6626 54.1378 78.6626ZM54.1542 73.3306C54.589 73.3306 54.9912 73.2273 55.3608 73.0208C55.7304 72.8033 56.0239 72.4935 56.2413 72.0913C56.4587 71.6782 56.5674 71.1945 56.5674 70.6401C56.5674 69.7922 56.3337 69.1345 55.8663 68.667C55.4097 68.1887 54.839 67.9496 54.1542 67.9496C53.7085 67.9496 53.3008 68.0583 52.9312 68.2757C52.5616 68.4822 52.2681 68.7866 52.0507 69.1888C51.8333 69.591 51.7246 70.0748 51.7246 70.6401C51.7246 71.2053 51.8333 71.6891 52.0507 72.0913C52.2681 72.4935 52.5616 72.8033 52.9312 73.0208C53.3008 73.2273 53.7085 73.3306 54.1542 73.3306ZM60.3876 63.2045H62.1813V74.8796H60.3876V63.2045ZM68.0087 75.1405C67.1934 75.1405 66.4596 74.9503 65.8074 74.5698C65.166 74.1894 64.6605 73.6676 64.2909 73.0044C63.9322 72.3305 63.7528 71.5749 63.7528 70.7379C63.7528 69.9443 63.9267 69.2106 64.2746 68.5366C64.6333 67.8517 65.1279 67.3082 65.7584 66.906C66.3889 66.5038 67.1064 66.3027 67.9108 66.3027C68.7479 66.3027 69.4708 66.4875 70.0795 66.8571C70.6992 67.2267 71.1666 67.7322 71.4819 68.3735C71.808 69.0149 71.971 69.7378 71.971 70.5422C71.971 70.6944 71.9547 70.8847 71.9221 71.1129H65.5465C65.6117 71.8848 65.8835 72.4827 66.3618 72.9066C66.8509 73.3197 67.4162 73.5262 68.0576 73.5262C68.5685 73.5262 69.0088 73.4121 69.3784 73.1838C69.7589 72.9447 70.0632 72.624 70.2915 72.2218L71.808 72.9392C71.4166 73.6241 70.9057 74.1622 70.2752 74.5535C69.6447 74.9449 68.8892 75.1405 68.0087 75.1405ZM70.1448 69.7432C70.123 69.4497 70.0306 69.1617 69.8676 68.879C69.7045 68.5855 69.4545 68.3409 69.1175 68.1452C68.7914 67.9496 68.3892 67.8517 67.9108 67.8517C67.3347 67.8517 66.8455 68.0257 66.4433 68.3735C66.052 68.7105 65.7802 69.1671 65.628 69.7432H70.1448ZM77.7197 63.2045H81.4538C82.6604 63.2045 83.7149 63.4491 84.6171 63.9383C85.5194 64.4275 86.2097 65.1178 86.688 66.0092C87.1772 66.8897 87.4218 67.9007 87.4218 69.0421C87.4218 70.1835 87.1772 71.1999 86.688 72.0913C86.2097 72.9718 85.5194 73.6567 84.6171 74.1459C83.7149 74.635 82.6604 74.8796 81.4538 74.8796H77.7197V63.2045ZM81.4212 73.1349C82.7256 73.1349 83.742 72.7762 84.4704 72.0587C85.2096 71.3304 85.5792 70.3248 85.5792 69.0421C85.5792 67.7702 85.2096 66.7701 84.4704 66.0418C83.742 65.3134 82.7256 64.9493 81.4212 64.9493H79.546V73.1349H81.4212ZM92.7703 75.1405C91.955 75.1405 91.2212 74.9503 90.569 74.5698C89.9276 74.1894 89.4221 73.6676 89.0525 73.0044C88.6938 72.3305 88.5144 71.5749 88.5144 70.7379C88.5144 69.9443 88.6883 69.2106 89.0362 68.5366C89.3949 67.8517 89.8895 67.3082 90.52 66.906C91.1505 66.5038 91.868 66.3027 92.6724 66.3027C93.5095 66.3027 94.2324 66.4875 94.8411 66.8571C95.4608 67.2267 95.9282 67.7322 96.2435 68.3735C96.5696 69.0149 96.7326 69.7378 96.7326 70.5422C96.7326 70.6944 96.7163 70.8847 96.6837 71.1129H90.3081C90.3733 71.8848 90.6451 72.4827 91.1234 72.9066C91.6125 73.3197 92.1778 73.5262 92.8192 73.5262C93.3301 73.5262 93.7704 73.4121 94.14 73.1838C94.5205 72.9447 94.8248 72.624 95.0531 72.2218L96.5696 72.9392C96.1782 73.6241 95.6673 74.1622 95.0368 74.5535C94.4063 74.9449 93.6508 75.1405 92.7703 75.1405ZM94.9064 69.7432C94.8846 69.4497 94.7922 69.1617 94.6292 68.879C94.4661 68.5855 94.2161 68.3409 93.8791 68.1452C93.553 67.9496 93.1507 67.8517 92.6724 67.8517C92.0963 67.8517 91.6071 68.0257 91.2049 68.3735C90.8136 68.7105 90.5418 69.1671 90.3896 69.7432H94.9064ZM97.2774 66.5636H99.283L101.582 72.5642H101.647L103.995 66.5636H105.952L102.495 74.8796H100.702L97.2774 66.5636ZM110.669 75.1405C109.853 75.1405 109.12 74.9503 108.467 74.5698C107.826 74.1894 107.321 73.6676 106.951 73.0044C106.592 72.3305 106.413 71.5749 106.413 70.7379C106.413 69.9443 106.587 69.2106 106.935 68.5366C107.293 67.8517 107.788 67.3082 108.418 66.906C109.049 66.5038 109.766 66.3027 110.571 66.3027C111.408 66.3027 112.131 66.4875 112.74 66.8571C113.359 67.2267 113.827 67.7322 114.142 68.3735C114.468 69.0149 114.631 69.7378 114.631 70.5422C114.631 70.6944 114.615 70.8847 114.582 71.1129H108.206C108.272 71.8848 108.543 72.4827 109.022 72.9066C109.511 73.3197 110.076 73.5262 110.718 73.5262C111.229 73.5262 111.669 73.4121 112.038 73.1838C112.419 72.9447 112.723 72.624 112.952 72.2218L114.468 72.9392C114.077 73.6241 113.566 74.1622 112.935 74.5535C112.305 74.9449 111.549 75.1405 110.669 75.1405ZM112.805 69.7432C112.783 69.4497 112.691 69.1617 112.528 68.879C112.365 68.5855 112.114 68.3409 111.777 68.1452C111.451 67.9496 111.049 67.8517 110.571 67.8517C109.995 67.8517 109.506 68.0257 109.103 68.3735C108.712 68.7105 108.44 69.1671 108.288 69.7432H112.805ZM116.264 63.2045H118.058V74.8796H116.264V63.2045ZM123.983 75.1405C123.146 75.1405 122.396 74.9503 121.733 74.5698C121.07 74.1785 120.554 73.6458 120.184 72.9718C119.814 72.2979 119.63 71.5478 119.63 70.7216C119.63 69.8954 119.814 69.1454 120.184 68.4714C120.554 67.7974 121.07 67.2702 121.733 66.8897C122.396 66.4983 123.146 66.3027 123.983 66.3027C124.82 66.3027 125.57 66.4983 126.234 66.8897C126.897 67.281 127.413 67.8137 127.783 68.4877C128.152 69.1617 128.337 69.9063 128.337 70.7216C128.337 71.5478 128.152 72.2979 127.783 72.9718C127.413 73.6458 126.897 74.1785 126.234 74.5698C125.57 74.9503 124.82 75.1405 123.983 75.1405ZM123.983 73.4936C124.44 73.4936 124.864 73.3849 125.255 73.1675C125.647 72.9392 125.956 72.6185 126.185 72.2054C126.424 71.7815 126.543 71.2869 126.543 70.7216C126.543 70.1563 126.424 69.6671 126.185 69.2541C125.956 68.841 125.647 68.5257 125.255 68.3083C124.864 68.08 124.44 67.9659 123.983 67.9659C123.527 67.9659 123.103 68.08 122.711 68.3083C122.32 68.5257 122.005 68.841 121.766 69.2541C121.537 69.6671 121.423 70.1563 121.423 70.7216C121.423 71.2869 121.537 71.7815 121.766 72.2054C122.005 72.6185 122.32 72.9392 122.711 73.1675C123.103 73.3849 123.527 73.4936 123.983 73.4936ZM129.846 66.5636H131.558V67.6561H131.64C131.879 67.2756 132.232 66.9549 132.7 66.694C133.167 66.4331 133.694 66.3027 134.281 66.3027C135.031 66.3027 135.711 66.4929 136.319 66.8734C136.928 67.2539 137.407 67.7811 137.754 68.4551C138.113 69.1182 138.293 69.8737 138.293 70.7216C138.293 71.5695 138.113 72.3305 137.754 73.0044C137.407 73.6676 136.928 74.1894 136.319 74.5698C135.711 74.9503 135.031 75.1405 134.281 75.1405C133.694 75.1405 133.167 75.0101 132.7 74.7492C132.232 74.4883 131.879 74.173 131.64 73.8034H131.558L131.64 74.9612V78.4017H129.846V66.5636ZM134.02 73.4936C134.455 73.4936 134.863 73.3795 135.243 73.1512C135.624 72.9229 135.928 72.5968 136.156 72.1728C136.385 71.7489 136.499 71.2651 136.499 70.7216C136.499 70.1781 136.385 69.6998 136.156 69.2867C135.928 68.8627 135.624 68.5366 135.243 68.3083C134.863 68.08 134.455 67.9659 134.02 67.9659C133.586 67.9659 133.178 68.08 132.797 68.3083C132.428 68.5366 132.129 68.8627 131.901 69.2867C131.672 69.6998 131.558 70.1781 131.558 70.7216C131.558 71.2651 131.672 71.7489 131.901 72.1728C132.129 72.5968 132.428 72.9229 132.797 73.1512C133.178 73.3795 133.586 73.4936 134.02 73.4936ZM143.727 75.1405C142.911 75.1405 142.178 74.9503 141.525 74.5698C140.884 74.1894 140.378 73.6676 140.009 73.0044C139.65 72.3305 139.471 71.5749 139.471 70.7379C139.471 69.9443 139.645 69.2106 139.993 68.5366C140.351 67.8517 140.846 67.3082 141.476 66.906C142.107 66.5038 142.824 66.3027 143.629 66.3027C144.466 66.3027 145.189 66.4875 145.797 66.8571C146.417 67.2267 146.885 67.7322 147.2 68.3735C147.526 69.0149 147.689 69.7378 147.689 70.5422C147.689 70.6944 147.673 70.8847 147.64 71.1129H141.264C141.33 71.8848 141.601 72.4827 142.08 72.9066C142.569 73.3197 143.134 73.5262 143.776 73.5262C144.286 73.5262 144.727 73.4121 145.096 73.1838C145.477 72.9447 145.781 72.624 146.009 72.2218L147.526 72.9392C147.135 73.6241 146.624 74.1622 145.993 74.5535C145.363 74.9449 144.607 75.1405 143.727 75.1405ZM145.863 69.7432C145.841 69.4497 145.749 69.1617 145.586 68.879C145.422 68.5855 145.172 68.3409 144.835 68.1452C144.509 67.9496 144.107 67.8517 143.629 67.8517C143.053 67.8517 142.563 68.0257 142.161 68.3735C141.77 68.7105 141.498 69.1671 141.346 69.7432H145.863ZM149.322 66.5636H151.035V67.7865H151.116C151.301 67.3626 151.622 67.0147 152.078 66.7429C152.535 66.4603 153.018 66.319 153.529 66.319C153.932 66.319 154.269 66.3733 154.54 66.482V68.3409C154.062 68.167 153.633 68.08 153.252 68.08C152.839 68.08 152.469 68.1887 152.143 68.4061C151.828 68.6236 151.578 68.9171 151.393 69.2867C151.208 69.6454 151.116 70.0422 151.116 70.477V74.8796H149.322V66.5636ZM162.912 75.1405C161.944 75.1405 161.075 74.8579 160.303 74.2926C159.531 73.7273 158.998 72.9338 158.705 71.9119L160.433 71.2108C160.607 71.8522 160.912 72.3794 161.346 72.7925C161.792 73.1947 162.325 73.3958 162.944 73.3958C163.521 73.3958 164.01 73.249 164.412 72.9555C164.814 72.6511 165.015 72.2381 165.015 71.7163C165.015 71.238 164.836 70.8466 164.477 70.5422C164.129 70.227 163.515 69.9117 162.635 69.5965L161.901 69.3356C161.118 69.0638 160.46 68.6725 159.928 68.1616C159.395 67.6506 159.129 66.9766 159.129 66.1396C159.129 65.5635 159.286 65.0308 159.602 64.5416C159.917 64.0524 160.352 63.6665 160.906 63.3839C161.471 63.0904 162.107 62.9436 162.814 62.9436C163.836 62.9436 164.651 63.1936 165.26 63.6937C165.869 64.1829 166.276 64.7373 166.483 65.3569L164.836 66.0581C164.716 65.6885 164.488 65.3624 164.151 65.0797C163.814 64.7971 163.379 64.6558 162.847 64.6558C162.314 64.6558 161.863 64.7916 161.493 65.0634C161.134 65.3352 160.955 65.683 160.955 66.107C160.955 66.5092 161.118 66.8408 161.444 67.1017C161.77 67.3626 162.281 67.6126 162.977 67.8517L163.711 68.0963C164.711 68.4442 165.483 68.9008 166.026 69.466C166.581 70.0204 166.858 70.7651 166.858 71.7C166.858 72.4609 166.662 73.1023 166.271 73.6241C165.88 74.135 165.379 74.5155 164.771 74.7655C164.173 75.0155 163.553 75.1405 162.912 75.1405ZM171.648 75.0101C171.278 75.0101 170.93 74.9503 170.604 74.8307C170.278 74.7111 170.012 74.5535 169.805 74.3578C169.338 73.8904 169.104 73.2545 169.104 72.45V68.1452H167.653V66.5636H169.104V64.2155H170.898V66.5636H172.92V68.1452H170.898V72.0587C170.898 72.5044 170.985 72.8196 171.159 73.0044C171.322 73.2219 171.604 73.3306 172.007 73.3306C172.191 73.3306 172.354 73.3088 172.496 73.2653C172.637 73.211 172.789 73.1295 172.952 73.0208V74.7655C172.594 74.9286 172.159 75.0101 171.648 75.0101ZM177.658 75.1405C176.647 75.1405 175.876 74.8416 175.343 74.2437C174.821 73.6349 174.56 72.7925 174.56 71.7163V66.5636H176.354V71.4717C176.354 72.1457 176.511 72.6511 176.827 72.9881C177.153 73.3251 177.577 73.4936 178.099 73.4936C178.523 73.4936 178.898 73.3849 179.224 73.1675C179.55 72.9392 179.8 72.6403 179.974 72.2707C180.148 71.9011 180.235 71.5043 180.235 71.0803V66.5636H182.028V74.8796H180.333V73.8034H180.235C180.006 74.1948 179.653 74.5155 179.175 74.7655C178.696 75.0155 178.191 75.1405 177.658 75.1405ZM187.591 75.1405C186.841 75.1405 186.162 74.9503 185.553 74.5698C184.944 74.1894 184.46 73.6676 184.102 73.0044C183.754 72.3305 183.58 71.5695 183.58 70.7216C183.58 69.8737 183.754 69.1182 184.102 68.4551C184.46 67.7811 184.944 67.2539 185.553 66.8734C186.162 66.4929 186.841 66.3027 187.591 66.3027C188.178 66.3027 188.705 66.4331 189.173 66.694C189.64 66.9549 189.994 67.2756 190.233 67.6561H190.314L190.233 66.482V63.2045H192.026V74.8796H190.314V73.8034H190.233C189.994 74.173 189.64 74.4883 189.173 74.7492C188.705 75.0101 188.178 75.1405 187.591 75.1405ZM187.852 73.4936C188.287 73.4936 188.689 73.3795 189.059 73.1512C189.439 72.9229 189.744 72.5968 189.972 72.1728C190.2 71.7489 190.314 71.2651 190.314 70.7216C190.314 70.1781 190.2 69.6998 189.972 69.2867C189.744 68.8627 189.439 68.5366 189.059 68.3083C188.689 68.08 188.287 67.9659 187.852 67.9659C187.417 67.9659 187.01 68.08 186.629 68.3083C186.249 68.5366 185.944 68.8627 185.716 69.2867C185.488 69.6998 185.374 70.1781 185.374 70.7216C185.374 71.2651 185.488 71.7489 185.716 72.1728C185.944 72.5968 186.249 72.9229 186.629 73.1512C187.01 73.3795 187.417 73.4936 187.852 73.4936ZM197.836 75.1405C197.021 75.1405 196.287 74.9503 195.635 74.5698C194.993 74.1894 194.488 73.6676 194.118 73.0044C193.759 72.3305 193.58 71.5749 193.58 70.7379C193.58 69.9443 193.754 69.2106 194.102 68.5366C194.461 67.8517 194.955 67.3082 195.586 66.906C196.216 66.5038 196.934 66.3027 197.738 66.3027C198.575 66.3027 199.298 66.4875 199.907 66.8571C200.526 67.2267 200.994 67.7322 201.309 68.3735C201.635 69.0149 201.798 69.7378 201.798 70.5422C201.798 70.6944 201.782 70.8847 201.749 71.1129H195.374C195.439 71.8848 195.711 72.4827 196.189 72.9066C196.678 73.3197 197.243 73.5262 197.885 73.5262C198.396 73.5262 198.836 73.4121 199.206 73.1838C199.586 72.9447 199.89 72.624 200.119 72.2218L201.635 72.9392C201.244 73.6241 200.733 74.1622 200.102 74.5535C199.472 74.9449 198.716 75.1405 197.836 75.1405ZM199.972 69.7432C199.95 69.4497 199.858 69.1617 199.695 68.879C199.532 68.5855 199.282 68.3409 198.945 68.1452C198.619 67.9496 198.216 67.8517 197.738 67.8517C197.162 67.8517 196.673 68.0257 196.271 68.3735C195.879 68.7105 195.607 69.1671 195.455 69.7432H199.972ZM203.432 66.5636H205.144V67.6561H205.225C205.464 67.2647 205.818 66.944 206.285 66.694C206.764 66.4331 207.269 66.3027 207.802 66.3027C208.813 66.3027 209.579 66.6016 210.101 67.1995C210.633 67.7865 210.9 68.5909 210.9 69.6128V74.8796H209.106V69.8574C209.106 69.2051 208.943 68.7268 208.617 68.4225C208.302 68.1181 207.861 67.9659 207.296 67.9659C206.894 67.9659 206.535 68.08 206.22 68.3083C205.905 68.5257 205.66 68.8192 205.486 69.1888C205.312 69.5584 205.225 69.9552 205.225 70.3792V74.8796H203.432V66.5636ZM215.916 75.0101C215.547 75.0101 215.199 74.9503 214.873 74.8307C214.547 74.7111 214.28 74.5535 214.074 74.3578C213.606 73.8904 213.372 73.2545 213.372 72.45V68.1452H211.921V66.5636H213.372V64.2155H215.166V66.5636H217.188V68.1452H215.166V72.0587C215.166 72.5044 215.253 72.8196 215.427 73.0044C215.59 73.2219 215.873 73.3306 216.275 73.3306C216.46 73.3306 216.623 73.3088 216.764 73.2653C216.905 73.211 217.058 73.1295 217.221 73.0208V74.7655C216.862 74.9286 216.427 75.0101 215.916 75.0101ZM228.202 75.1405C227.071 75.1405 226.039 74.8742 225.104 74.3415C224.169 73.8089 223.435 73.0751 222.902 72.1402C222.37 71.2053 222.103 70.1726 222.103 69.0421C222.103 67.9115 222.37 66.8788 222.902 65.9439C223.435 65.0091 224.169 64.2753 225.104 63.7426C226.039 63.21 227.071 62.9436 228.202 62.9436C229.082 62.9436 229.881 63.1067 230.599 63.4328C231.327 63.7589 231.969 64.2318 232.523 64.8514L231.219 66.107C230.816 65.6287 230.371 65.2754 229.881 65.0471C229.392 64.8079 228.832 64.6884 228.202 64.6884C227.419 64.6884 226.702 64.8677 226.05 65.2265C225.408 65.5852 224.897 66.0961 224.517 66.7592C224.136 67.4115 223.946 68.1724 223.946 69.0421C223.946 69.9117 224.136 70.6781 224.517 71.3412C224.897 71.9935 225.408 72.499 226.05 72.8577C226.702 73.2164 227.419 73.3958 228.202 73.3958C229.506 73.3958 230.615 72.8523 231.528 71.7652L232.849 73.0371C232.284 73.7002 231.604 74.2165 230.811 74.5861C230.017 74.9557 229.148 75.1405 228.202 75.1405ZM234.435 63.2045H236.229V74.8796H234.435V63.2045ZM241.37 75.1405C240.359 75.1405 239.587 74.8416 239.054 74.2437C238.532 73.6349 238.272 72.7925 238.272 71.7163V66.5636H240.065V71.4717C240.065 72.1457 240.223 72.6511 240.538 72.9881C240.864 73.3251 241.288 73.4936 241.81 73.4936C242.234 73.4936 242.609 73.3849 242.935 73.1675C243.261 72.9392 243.511 72.6403 243.685 72.2707C243.859 71.9011 243.946 71.5043 243.946 71.0803V66.5636H245.74V74.8796H244.044V73.8034H243.946C243.718 74.1948 243.364 74.5155 242.886 74.7655C242.408 75.0155 241.902 75.1405 241.37 75.1405ZM252.263 75.1405C251.676 75.1405 251.148 75.0101 250.681 74.7492C250.213 74.4883 249.86 74.173 249.621 73.8034H249.54V74.8796H247.827V63.2045H249.621V66.482L249.54 67.6561H249.621C249.86 67.2756 250.213 66.9549 250.681 66.694C251.148 66.4331 251.676 66.3027 252.263 66.3027C253.013 66.3027 253.692 66.4929 254.301 66.8734C254.91 67.2539 255.388 67.7811 255.736 68.4551C256.095 69.1182 256.274 69.8737 256.274 70.7216C256.274 71.5695 256.095 72.3305 255.736 73.0044C255.388 73.6676 254.91 74.1894 254.301 74.5698C253.692 74.9503 253.013 75.1405 252.263 75.1405ZM252.002 73.4936C252.437 73.4936 252.844 73.3795 253.225 73.1512C253.605 72.9229 253.91 72.5968 254.138 72.1728C254.366 71.7489 254.48 71.2651 254.48 70.7216C254.48 70.1781 254.366 69.6998 254.138 69.2867C253.91 68.8627 253.605 68.5366 253.225 68.3083C252.844 68.08 252.437 67.9659 252.002 67.9659C251.567 67.9659 251.159 68.08 250.779 68.3083C250.409 68.5366 250.11 68.8627 249.882 69.2867C249.654 69.6998 249.54 70.1781 249.54 70.7216C249.54 71.2651 249.654 71.7489 249.882 72.1728C250.11 72.5968 250.409 72.9229 250.779 73.1512C251.159 73.3795 251.567 73.4936 252.002 73.4936ZM260.86 75.1405C259.904 75.1405 259.121 74.934 258.512 74.5209C257.904 74.0969 257.474 73.5589 257.224 72.9066L258.822 72.2054C259.018 72.6403 259.29 72.9718 259.638 73.2001C259.996 73.4284 260.404 73.5425 260.86 73.5425C261.306 73.5425 261.681 73.4664 261.986 73.3143C262.29 73.1512 262.442 72.912 262.442 72.5968C262.442 72.2924 262.312 72.0533 262.051 71.8793C261.79 71.7054 261.388 71.5532 260.844 71.4228L259.849 71.1782C259.186 71.0151 258.637 70.727 258.203 70.314C257.768 69.9009 257.55 69.3791 257.55 68.7486C257.55 68.2594 257.692 67.83 257.974 67.4604C258.268 67.0908 258.659 66.8082 259.148 66.6125C259.638 66.4059 260.17 66.3027 260.746 66.3027C261.518 66.3027 262.198 66.4603 262.785 66.7755C263.372 67.0799 263.796 67.5256 264.056 68.1126L262.491 68.7975C262.176 68.1561 261.6 67.8354 260.763 67.8354C260.36 67.8354 260.023 67.917 259.752 68.08C259.48 68.2431 259.344 68.4551 259.344 68.716C259.344 68.966 259.447 69.1725 259.654 69.3356C259.86 69.4878 260.165 69.6182 260.567 69.7269L261.79 70.0367C262.605 70.2433 263.219 70.5585 263.632 70.9825C264.056 71.3956 264.268 71.9065 264.268 72.5153C264.268 73.0371 264.116 73.4991 263.812 73.9013C263.518 74.2926 263.111 74.597 262.589 74.8144C262.067 75.0318 261.491 75.1405 260.86 75.1405Z" fill="white"/>
<rect width="23.3115" height="7.81905" rx="3.90953" transform="matrix(-0.866025 0.5 0.5 0.866025 174.504 27.7881)" fill="#FBBC04"/>
<rect width="23.3115" height="7.81905" rx="3.90953" transform="matrix(0.866025 -0.5 -0.5 -0.866025 131.371 38.4272)" fill="#EA4335"/>
<rect x="131.041" y="27.7871" width="23.3115" height="7.81905" rx="3.90953" transform="rotate(30 131.041 27.7871)" fill="#4285F4"/>
<rect x="174.504" y="38.4272" width="23.3115" height="7.81905" rx="3.64648" transform="rotate(-150 174.504 38.4272)" fill="#0F9D58"/>
<path d="M21.9171 96.8024C21.2851 96.8024 20.7331 96.6304 20.2611 96.2864C19.7891 95.9344 19.4571 95.4424 19.2651 94.8104L20.2251 94.4144C20.5131 95.3584 21.0771 95.8304 21.9171 95.8304C22.3891 95.8304 22.7651 95.6664 23.0451 95.3384C23.3331 95.0104 23.4771 94.5784 23.4771 94.0424V88.0184H24.4971V93.9584C24.4971 94.5584 24.3851 95.0744 24.1611 95.5064C23.9451 95.9304 23.6411 96.2544 23.2491 96.4784C22.8651 96.6944 22.4211 96.8024 21.9171 96.8024ZM26.2764 88.0184H28.8684C29.7484 88.0184 30.5164 88.2024 31.1724 88.5704C31.8284 88.9304 32.3324 89.4344 32.6844 90.0824C33.0364 90.7304 33.2124 91.4744 33.2124 92.3144C33.2124 93.1544 33.0364 93.8984 32.6844 94.5464C32.3324 95.1944 31.8284 95.7024 31.1724 96.0704C30.5164 96.4304 29.7484 96.6104 28.8684 96.6104H26.2764V88.0184ZM28.8684 95.6384C29.8844 95.6384 30.6884 95.3464 31.2804 94.7624C31.8804 94.1784 32.1804 93.3624 32.1804 92.3144C32.1804 91.2664 31.8804 90.4504 31.2804 89.8664C30.6884 89.2824 29.8844 88.9904 28.8684 88.9904H27.2844V95.6384H28.8684ZM41.3006 96.8024C40.4686 96.8024 39.7126 96.6064 39.0326 96.2144C38.3526 95.8224 37.8166 95.2864 37.4246 94.6064C37.0406 93.9184 36.8486 93.1544 36.8486 92.3144C36.8486 91.4744 37.0406 90.7144 37.4246 90.0344C37.8166 89.3464 38.3526 88.8064 39.0326 88.4144C39.7126 88.0224 40.4686 87.8264 41.3006 87.8264C41.9406 87.8264 42.5246 87.9504 43.0526 88.1984C43.5886 88.4384 44.0526 88.7824 44.4446 89.2304L43.7126 89.9384C43.3846 89.5464 43.0246 89.2584 42.6326 89.0744C42.2486 88.8904 41.8046 88.7984 41.3006 88.7984C40.6766 88.7984 40.1046 88.9464 39.5846 89.2424C39.0646 89.5304 38.6486 89.9424 38.3366 90.4784C38.0326 91.0064 37.8806 91.6184 37.8806 92.3144C37.8806 93.0104 38.0326 93.6264 38.3366 94.1624C38.6486 94.6904 39.0646 95.1024 39.5846 95.3984C40.1046 95.6864 40.6766 95.8304 41.3006 95.8304C42.3406 95.8304 43.2246 95.4024 43.9526 94.5464L44.6966 95.2664C44.2966 95.7384 43.8046 96.1144 43.2206 96.3944C42.6366 96.6664 41.9966 96.8024 41.3006 96.8024ZM48.5448 96.8024C47.9448 96.8024 47.4048 96.6584 46.9248 96.3704C46.4448 96.0824 46.0688 95.6904 45.7968 95.1944C45.5328 94.6984 45.4008 94.1504 45.4008 93.5504C45.4008 92.9504 45.5328 92.4024 45.7968 91.9064C46.0688 91.4104 46.4448 91.0184 46.9248 90.7304C47.4048 90.4424 47.9448 90.2984 48.5448 90.2984C49.1448 90.2984 49.6848 90.4424 50.1648 90.7304C50.6448 91.0184 51.0168 91.4104 51.2808 91.9064C51.5528 92.4024 51.6888 92.9504 51.6888 93.5504C51.6888 94.1504 51.5528 94.6984 51.2808 95.1944C51.0168 95.6904 50.6448 96.0824 50.1648 96.3704C49.6848 96.6584 49.1448 96.8024 48.5448 96.8024ZM48.5448 95.8784C48.9208 95.8784 49.2688 95.7864 49.5888 95.6024C49.9168 95.4104 50.1768 95.1384 50.3688 94.7864C50.5688 94.4344 50.6688 94.0224 50.6688 93.5504C50.6688 93.0784 50.5688 92.6664 50.3688 92.3144C50.1768 91.9624 49.9168 91.6944 49.5888 91.5104C49.2688 91.3184 48.9208 91.2224 48.5448 91.2224C48.1688 91.2224 47.8168 91.3184 47.4888 91.5104C47.1608 91.6944 46.8968 91.9624 46.6968 92.3144C46.5048 92.6664 46.4088 93.0784 46.4088 93.5504C46.4088 94.0224 46.5048 94.4344 46.6968 94.7864C46.8968 95.1384 47.1608 95.4104 47.4888 95.6024C47.8168 95.7864 48.1688 95.8784 48.5448 95.8784ZM52.8146 88.0184H53.8346V96.6104H52.8146V88.0184ZM55.3458 88.0184H56.3658V96.6104H55.3458V88.0184ZM60.5425 96.8024C59.9585 96.8024 59.4345 96.6624 58.9705 96.3824C58.5065 96.1024 58.1425 95.7184 57.8785 95.2304C57.6225 94.7344 57.4945 94.1784 57.4945 93.5624C57.4945 92.9704 57.6145 92.4264 57.8545 91.9304C58.1025 91.4344 58.4505 91.0384 58.8985 90.7424C59.3465 90.4464 59.8665 90.2984 60.4585 90.2984C61.0585 90.2984 61.5785 90.4344 62.0185 90.7064C62.4585 90.9704 62.7945 91.3384 63.0265 91.8104C63.2665 92.2824 63.3865 92.8224 63.3865 93.4304C63.3865 93.5504 63.3745 93.6544 63.3505 93.7424H58.5145C58.5385 94.2064 58.6505 94.5984 58.8505 94.9184C59.0505 95.2384 59.3025 95.4784 59.6065 95.6384C59.9185 95.7984 60.2425 95.8784 60.5785 95.8784C61.3625 95.8784 61.9665 95.5104 62.3905 94.7744L63.2545 95.1944C62.9905 95.6904 62.6305 96.0824 62.1745 96.3704C61.7265 96.6584 61.1825 96.8024 60.5425 96.8024ZM62.3065 92.9024C62.2905 92.6464 62.2185 92.3904 62.0905 92.1344C61.9625 91.8784 61.7585 91.6624 61.4785 91.4864C61.2065 91.3104 60.8625 91.2224 60.4465 91.2224C59.9665 91.2224 59.5585 91.3784 59.2225 91.6904C58.8945 91.9944 58.6785 92.3984 58.5745 92.9024H62.3065ZM67.3268 99.3944C66.6068 99.3944 66.0108 99.2264 65.5388 98.8904C65.0748 98.5544 64.7628 98.1504 64.6028 97.6784L65.5268 97.2824C65.6628 97.6344 65.8868 97.9184 66.1988 98.1344C66.5188 98.3584 66.8948 98.4704 67.3268 98.4704C67.9588 98.4704 68.4468 98.2864 68.7908 97.9184C69.1428 97.5504 69.3188 97.0304 69.3188 96.3584V95.6744H69.2708C69.0708 95.9864 68.7868 96.2424 68.4188 96.4424C68.0588 96.6344 67.6468 96.7304 67.1828 96.7304C66.6548 96.7304 66.1708 96.5944 65.7308 96.3224C65.2988 96.0504 64.9548 95.6704 64.6988 95.1824C64.4428 94.6944 64.3148 94.1384 64.3148 93.5144C64.3148 92.8984 64.4428 92.3464 64.6988 91.8584C64.9548 91.3624 65.2988 90.9784 65.7308 90.7064C66.1708 90.4344 66.6548 90.2984 67.1828 90.2984C67.6468 90.2984 68.0588 90.3984 68.4188 90.5984C68.7868 90.7904 69.0708 91.0464 69.2708 91.3664H69.3188V90.4904H70.2908V96.3704C70.2908 97.3544 70.0188 98.1024 69.4748 98.6144C68.9308 99.1344 68.2148 99.3944 67.3268 99.3944ZM67.3268 95.8064C67.6948 95.8064 68.0268 95.7144 68.3228 95.5304C68.6268 95.3464 68.8668 95.0824 69.0428 94.7384C69.2268 94.3944 69.3188 93.9864 69.3188 93.5144C69.3188 93.0344 69.2268 92.6224 69.0428 92.2784C68.8668 91.9344 68.6268 91.6744 68.3228 91.4984C68.0268 91.3144 67.6948 91.2224 67.3268 91.2224C66.9588 91.2224 66.6228 91.3144 66.3188 91.4984C66.0148 91.6824 65.7708 91.9464 65.5868 92.2904C65.4108 92.6344 65.3228 93.0424 65.3228 93.5144C65.3228 93.9864 65.4108 94.3984 65.5868 94.7504C65.7708 95.0944 66.0148 95.3584 66.3188 95.5424C66.6228 95.7184 66.9588 95.8064 67.3268 95.8064ZM74.4644 96.8024C73.8804 96.8024 73.3564 96.6624 72.8924 96.3824C72.4284 96.1024 72.0644 95.7184 71.8004 95.2304C71.5444 94.7344 71.4164 94.1784 71.4164 93.5624C71.4164 92.9704 71.5364 92.4264 71.7764 91.9304C72.0244 91.4344 72.3724 91.0384 72.8204 90.7424C73.2684 90.4464 73.7884 90.2984 74.3804 90.2984C74.9804 90.2984 75.5004 90.4344 75.9404 90.7064C76.3804 90.9704 76.7164 91.3384 76.9484 91.8104C77.1884 92.2824 77.3084 92.8224 77.3084 93.4304C77.3084 93.5504 77.2964 93.6544 77.2724 93.7424H72.4364C72.4604 94.2064 72.5724 94.5984 72.7724 94.9184C72.9724 95.2384 73.2244 95.4784 73.5284 95.6384C73.8404 95.7984 74.1644 95.8784 74.5004 95.8784C75.2844 95.8784 75.8884 95.5104 76.3124 94.7744L77.1764 95.1944C76.9124 95.6904 76.5524 96.0824 76.0964 96.3704C75.6484 96.6584 75.1044 96.8024 74.4644 96.8024ZM76.2284 92.9024C76.2124 92.6464 76.1404 92.3904 76.0124 92.1344C75.8844 91.8784 75.6804 91.6624 75.4004 91.4864C75.1284 91.3104 74.7844 91.2224 74.3684 91.2224C73.8884 91.2224 73.4804 91.3784 73.1444 91.6904C72.8164 91.9944 72.6004 92.3984 72.4964 92.9024H76.2284ZM84.1112 96.8024C83.5112 96.8024 82.9712 96.6584 82.4912 96.3704C82.0112 96.0824 81.6352 95.6904 81.3632 95.1944C81.0992 94.6984 80.9672 94.1504 80.9672 93.5504C80.9672 92.9504 81.0992 92.4024 81.3632 91.9064C81.6352 91.4104 82.0112 91.0184 82.4912 90.7304C82.9712 90.4424 83.5112 90.2984 84.1112 90.2984C84.7112 90.2984 85.2512 90.4424 85.7312 90.7304C86.2112 91.0184 86.5832 91.4104 86.8472 91.9064C87.1192 92.4024 87.2552 92.9504 87.2552 93.5504C87.2552 94.1504 87.1192 94.6984 86.8472 95.1944C86.5832 95.6904 86.2112 96.0824 85.7312 96.3704C85.2512 96.6584 84.7112 96.8024 84.1112 96.8024ZM84.1112 95.8784C84.4872 95.8784 84.8352 95.7864 85.1552 95.6024C85.4832 95.4104 85.7432 95.1384 85.9352 94.7864C86.1352 94.4344 86.2352 94.0224 86.2352 93.5504C86.2352 93.0784 86.1352 92.6664 85.9352 92.3144C85.7432 91.9624 85.4832 91.6944 85.1552 91.5104C84.8352 91.3184 84.4872 91.2224 84.1112 91.2224C83.7352 91.2224 83.3832 91.3184 83.0552 91.5104C82.7272 91.6944 82.4632 91.9624 82.2632 92.3144C82.0712 92.6664 81.9752 93.0784 81.9752 93.5504C81.9752 94.0224 82.0712 94.4344 82.2632 94.7864C82.4632 95.1384 82.7272 95.4104 83.0552 95.6024C83.3832 95.7864 83.7352 95.8784 84.1112 95.8784ZM88.9718 91.4144H87.8438V90.4904H88.9718V89.8304C88.9718 89.4464 89.0598 89.1104 89.2358 88.8224C89.4118 88.5344 89.6478 88.3144 89.9438 88.1624C90.2398 88.0024 90.5678 87.9224 90.9278 87.9224C91.2718 87.9224 91.5718 87.9704 91.8278 88.0664V89.0624C91.6838 89.0064 91.5478 88.9624 91.4198 88.9304C91.2918 88.8904 91.1398 88.8704 90.9638 88.8704C90.6998 88.8704 90.4718 88.9664 90.2798 89.1584C90.0878 89.3424 89.9918 89.6024 89.9918 89.9384V90.4904H91.5638V91.4144H89.9918V96.6104H88.9718V91.4144ZM95.8038 88.0184H100.772V88.9904H96.8118V91.8344H100.388V92.7944H96.8118V95.6384H100.772V96.6104H95.8038V88.0184ZM102.092 90.4904H103.064V91.3904H103.112C103.28 91.0864 103.548 90.8304 103.916 90.6224C104.284 90.4064 104.676 90.2984 105.092 90.2984C105.828 90.2984 106.388 90.5144 106.772 90.9464C107.164 91.3704 107.36 91.9504 107.36 92.6864V96.6104H106.34V92.8424C106.34 92.2744 106.204 91.8624 105.932 91.6064C105.66 91.3504 105.288 91.2224 104.816 91.2224C104.488 91.2224 104.192 91.3144 103.928 91.4984C103.672 91.6824 103.472 91.9264 103.328 92.2304C103.184 92.5264 103.112 92.8384 103.112 93.1664V96.6104H102.092V90.4904ZM111.448 99.3944C110.728 99.3944 110.132 99.2264 109.66 98.8904C109.196 98.5544 108.884 98.1504 108.724 97.6784L109.648 97.2824C109.784 97.6344 110.008 97.9184 110.32 98.1344C110.64 98.3584 111.016 98.4704 111.448 98.4704C112.08 98.4704 112.568 98.2864 112.912 97.9184C113.264 97.5504 113.44 97.0304 113.44 96.3584V95.6744H113.392C113.192 95.9864 112.908 96.2424 112.54 96.4424C112.18 96.6344 111.768 96.7304 111.304 96.7304C110.776 96.7304 110.292 96.5944 109.852 96.3224C109.42 96.0504 109.076 95.6704 108.82 95.1824C108.564 94.6944 108.436 94.1384 108.436 93.5144C108.436 92.8984 108.564 92.3464 108.82 91.8584C109.076 91.3624 109.42 90.9784 109.852 90.7064C110.292 90.4344 110.776 90.2984 111.304 90.2984C111.768 90.2984 112.18 90.3984 112.54 90.5984C112.908 90.7904 113.192 91.0464 113.392 91.3664H113.44V90.4904H114.412V96.3704C114.412 97.3544 114.14 98.1024 113.596 98.6144C113.052 99.1344 112.336 99.3944 111.448 99.3944ZM111.448 95.8064C111.816 95.8064 112.148 95.7144 112.444 95.5304C112.748 95.3464 112.988 95.0824 113.164 94.7384C113.348 94.3944 113.44 93.9864 113.44 93.5144C113.44 93.0344 113.348 92.6224 113.164 92.2784C112.988 91.9344 112.748 91.6744 112.444 91.4984C112.148 91.3144 111.816 91.2224 111.448 91.2224C111.08 91.2224 110.744 91.3144 110.44 91.4984C110.136 91.6824 109.892 91.9464 109.708 92.2904C109.532 92.6344 109.444 93.0424 109.444 93.5144C109.444 93.9864 109.532 94.3984 109.708 94.7504C109.892 95.0944 110.136 95.3584 110.44 95.5424C110.744 95.7184 111.08 95.8064 111.448 95.8064ZM116.52 89.3624C116.32 89.3624 116.148 89.2904 116.004 89.1464C115.86 89.0024 115.788 88.8304 115.788 88.6304C115.788 88.4304 115.86 88.2624 116.004 88.1264C116.148 87.9824 116.32 87.9104 116.52 87.9104C116.72 87.9104 116.892 87.9824 117.036 88.1264C117.18 88.2624 117.252 88.4304 117.252 88.6304C117.252 88.8304 117.18 89.0024 117.036 89.1464C116.9 89.2904 116.728 89.3624 116.52 89.3624ZM116.016 90.4904H117.024V96.6104H116.016V90.4904ZM118.627 90.4904H119.599V91.3904H119.647C119.815 91.0864 120.083 90.8304 120.451 90.6224C120.819 90.4064 121.211 90.2984 121.627 90.2984C122.363 90.2984 122.923 90.5144 123.307 90.9464C123.699 91.3704 123.895 91.9504 123.895 92.6864V96.6104H122.875V92.8424C122.875 92.2744 122.739 91.8624 122.467 91.6064C122.195 91.3504 121.823 91.2224 121.351 91.2224C121.023 91.2224 120.727 91.3144 120.463 91.4984C120.207 91.6824 120.007 91.9264 119.863 92.2304C119.719 92.5264 119.647 92.8384 119.647 93.1664V96.6104H118.627V90.4904ZM128.078 96.8024C127.494 96.8024 126.97 96.6624 126.506 96.3824C126.042 96.1024 125.678 95.7184 125.414 95.2304C125.158 94.7344 125.03 94.1784 125.03 93.5624C125.03 92.9704 125.15 92.4264 125.39 91.9304C125.638 91.4344 125.986 91.0384 126.434 90.7424C126.882 90.4464 127.402 90.2984 127.994 90.2984C128.594 90.2984 129.114 90.4344 129.554 90.7064C129.994 90.9704 130.33 91.3384 130.562 91.8104C130.802 92.2824 130.922 92.8224 130.922 93.4304C130.922 93.5504 130.91 93.6544 130.886 93.7424H126.05C126.074 94.2064 126.186 94.5984 126.386 94.9184C126.586 95.2384 126.838 95.4784 127.142 95.6384C127.454 95.7984 127.778 95.8784 128.114 95.8784C128.898 95.8784 129.502 95.5104 129.926 94.7744L130.79 95.1944C130.526 95.6904 130.166 96.0824 129.71 96.3704C129.262 96.6584 128.718 96.8024 128.078 96.8024ZM129.842 92.9024C129.826 92.6464 129.754 92.3904 129.626 92.1344C129.498 91.8784 129.294 91.6624 129.014 91.4864C128.742 91.3104 128.398 91.2224 127.982 91.2224C127.502 91.2224 127.094 91.3784 126.758 91.6904C126.43 91.9944 126.214 92.3984 126.11 92.9024H129.842ZM134.898 96.8024C134.314 96.8024 133.79 96.6624 133.326 96.3824C132.862 96.1024 132.498 95.7184 132.234 95.2304C131.978 94.7344 131.85 94.1784 131.85 93.5624C131.85 92.9704 131.97 92.4264 132.21 91.9304C132.458 91.4344 132.806 91.0384 133.254 90.7424C133.702 90.4464 134.222 90.2984 134.814 90.2984C135.414 90.2984 135.934 90.4344 136.374 90.7064C136.814 90.9704 137.15 91.3384 137.382 91.8104C137.622 92.2824 137.742 92.8224 137.742 93.4304C137.742 93.5504 137.73 93.6544 137.706 93.7424H132.87C132.894 94.2064 133.006 94.5984 133.206 94.9184C133.406 95.2384 133.658 95.4784 133.962 95.6384C134.274 95.7984 134.598 95.8784 134.934 95.8784C135.718 95.8784 136.322 95.5104 136.746 94.7744L137.61 95.1944C137.346 95.6904 136.986 96.0824 136.53 96.3704C136.082 96.6584 135.538 96.8024 134.898 96.8024ZM136.662 92.9024C136.646 92.6464 136.574 92.3904 136.446 92.1344C136.318 91.8784 136.114 91.6624 135.834 91.4864C135.562 91.3104 135.218 91.2224 134.802 91.2224C134.322 91.2224 133.914 91.3784 133.578 91.6904C133.25 91.9944 133.034 92.3984 132.93 92.9024H136.662ZM138.936 90.4904H139.908V91.4744H139.956C140.076 91.1384 140.308 90.8624 140.652 90.6464C140.996 90.4224 141.356 90.3104 141.732 90.3104C142.012 90.3104 142.252 90.3504 142.452 90.4304V91.5344C142.196 91.4064 141.908 91.3424 141.588 91.3424C141.292 91.3424 141.02 91.4264 140.772 91.5944C140.524 91.7624 140.324 91.9904 140.172 92.2784C140.028 92.5584 139.956 92.8624 139.956 93.1904V96.6104H138.936V90.4904ZM144.036 89.3624C143.836 89.3624 143.664 89.2904 143.52 89.1464C143.376 89.0024 143.304 88.8304 143.304 88.6304C143.304 88.4304 143.376 88.2624 143.52 88.1264C143.664 87.9824 143.836 87.9104 144.036 87.9104C144.236 87.9104 144.408 87.9824 144.552 88.1264C144.696 88.2624 144.768 88.4304 144.768 88.6304C144.768 88.8304 144.696 89.0024 144.552 89.1464C144.416 89.2904 144.244 89.3624 144.036 89.3624ZM143.532 90.4904H144.54V96.6104H143.532V90.4904ZM146.143 90.4904H147.115V91.3904H147.163C147.331 91.0864 147.599 90.8304 147.967 90.6224C148.335 90.4064 148.727 90.2984 149.143 90.2984C149.879 90.2984 150.439 90.5144 150.823 90.9464C151.215 91.3704 151.411 91.9504 151.411 92.6864V96.6104H150.391V92.8424C150.391 92.2744 150.255 91.8624 149.983 91.6064C149.711 91.3504 149.339 91.2224 148.867 91.2224C148.539 91.2224 148.243 91.3144 147.979 91.4984C147.723 91.6824 147.523 91.9264 147.379 92.2304C147.235 92.5264 147.163 92.8384 147.163 93.1664V96.6104H146.143V90.4904ZM155.499 99.3944C154.779 99.3944 154.183 99.2264 153.711 98.8904C153.247 98.5544 152.935 98.1504 152.775 97.6784L153.699 97.2824C153.835 97.6344 154.059 97.9184 154.371 98.1344C154.691 98.3584 155.067 98.4704 155.499 98.4704C156.131 98.4704 156.619 98.2864 156.963 97.9184C157.315 97.5504 157.491 97.0304 157.491 96.3584V95.6744H157.443C157.243 95.9864 156.959 96.2424 156.591 96.4424C156.231 96.6344 155.819 96.7304 155.355 96.7304C154.827 96.7304 154.343 96.5944 153.903 96.3224C153.471 96.0504 153.127 95.6704 152.871 95.1824C152.615 94.6944 152.487 94.1384 152.487 93.5144C152.487 92.8984 152.615 92.3464 152.871 91.8584C153.127 91.3624 153.471 90.9784 153.903 90.7064C154.343 90.4344 154.827 90.2984 155.355 90.2984C155.819 90.2984 156.231 90.3984 156.591 90.5984C156.959 90.7904 157.243 91.0464 157.443 91.3664H157.491V90.4904H158.463V96.3704C158.463 97.3544 158.191 98.1024 157.647 98.6144C157.103 99.1344 156.387 99.3944 155.499 99.3944ZM155.499 95.8064C155.867 95.8064 156.199 95.7144 156.495 95.5304C156.799 95.3464 157.039 95.0824 157.215 94.7384C157.399 94.3944 157.491 93.9864 157.491 93.5144C157.491 93.0344 157.399 92.6224 157.215 92.2784C157.039 91.9344 156.799 91.6744 156.495 91.4984C156.199 91.3144 155.867 91.2224 155.499 91.2224C155.131 91.2224 154.795 91.3144 154.491 91.4984C154.187 91.6824 153.943 91.9464 153.759 92.2904C153.583 92.6344 153.495 93.0424 153.495 93.5144C153.495 93.9864 153.583 94.3984 153.759 94.7504C153.943 95.0944 154.187 95.3584 154.491 95.5424C154.795 95.7184 155.131 95.8064 155.499 95.8064ZM164.716 96.8024C164.268 96.8024 163.868 96.7144 163.516 96.5384C163.164 96.3624 162.892 96.1224 162.7 95.8184C162.508 95.5064 162.412 95.1544 162.412 94.7624C162.412 94.1144 162.656 93.6104 163.144 93.2504C163.632 92.8824 164.248 92.6984 164.992 92.6984C165.36 92.6984 165.7 92.7384 166.012 92.8184C166.332 92.8984 166.576 92.9904 166.744 93.0944V92.7224C166.744 92.2664 166.584 91.9024 166.264 91.6304C165.944 91.3504 165.54 91.2104 165.052 91.2104C164.708 91.2104 164.392 91.2864 164.104 91.4384C163.816 91.5824 163.588 91.7864 163.42 92.0504L162.652 91.4744C162.892 91.1064 163.22 90.8184 163.636 90.6104C164.06 90.4024 164.528 90.2984 165.04 90.2984C165.872 90.2984 166.524 90.5184 166.996 90.9584C167.476 91.3904 167.716 91.9824 167.716 92.7344V96.6104H166.744V95.7344H166.696C166.52 96.0304 166.256 96.2824 165.904 96.4904C165.552 96.6984 165.156 96.8024 164.716 96.8024ZM164.812 95.9024C165.156 95.9024 165.476 95.8144 165.772 95.6384C166.068 95.4624 166.304 95.2264 166.48 94.9304C166.656 94.6344 166.744 94.3104 166.744 93.9584C166.552 93.8304 166.316 93.7264 166.036 93.6464C165.756 93.5664 165.46 93.5264 165.148 93.5264C164.588 93.5264 164.164 93.6424 163.876 93.8744C163.596 94.1064 163.456 94.4064 163.456 94.7744C163.456 95.1104 163.584 95.3824 163.84 95.5904C164.096 95.7984 164.42 95.9024 164.812 95.9024ZM169.135 90.4904H170.107V91.3904H170.155C170.323 91.0864 170.591 90.8304 170.959 90.6224C171.327 90.4064 171.719 90.2984 172.135 90.2984C172.871 90.2984 173.431 90.5144 173.815 90.9464C174.207 91.3704 174.403 91.9504 174.403 92.6864V96.6104H173.383V92.8424C173.383 92.2744 173.247 91.8624 172.975 91.6064C172.703 91.3504 172.331 91.2224 171.859 91.2224C171.531 91.2224 171.235 91.3144 170.971 91.4984C170.715 91.6824 170.515 91.9264 170.371 92.2304C170.227 92.5264 170.155 92.8384 170.155 93.1664V96.6104H169.135V90.4904ZM178.453 96.8024C177.909 96.8024 177.413 96.6624 176.965 96.3824C176.525 96.1024 176.177 95.7184 175.921 95.2304C175.665 94.7344 175.537 94.1744 175.537 93.5504C175.537 92.9344 175.665 92.3784 175.921 91.8824C176.177 91.3864 176.525 90.9984 176.965 90.7184C177.413 90.4384 177.909 90.2984 178.453 90.2984C178.925 90.2984 179.345 90.4064 179.713 90.6224C180.081 90.8304 180.361 91.0904 180.553 91.4024H180.601L180.553 90.5504V88.0184H181.573V96.6104H180.601V95.7104H180.553C180.361 96.0144 180.081 96.2744 179.713 96.4904C179.345 96.6984 178.925 96.8024 178.453 96.8024ZM178.573 95.8784C178.933 95.8784 179.265 95.7824 179.569 95.5904C179.881 95.3984 180.129 95.1264 180.313 94.7744C180.505 94.4224 180.601 94.0144 180.601 93.5504C180.601 93.0864 180.505 92.6784 180.313 92.3264C180.129 91.9744 179.881 91.7024 179.569 91.5104C179.265 91.3184 178.933 91.2224 178.573 91.2224C178.221 91.2224 177.889 91.3184 177.577 91.5104C177.265 91.7024 177.013 91.9784 176.821 92.3384C176.637 92.6904 176.545 93.0944 176.545 93.5504C176.545 94.0064 176.637 94.4144 176.821 94.7744C177.013 95.1264 177.265 95.3984 177.577 95.5904C177.889 95.7824 178.221 95.8784 178.573 95.8784ZM186.073 88.0184H187.549L190.285 95.0624H190.333L193.069 88.0184H194.545V96.6104H193.537V91.1504L193.585 89.5184H193.537L190.729 96.6104H189.889L187.081 89.5184H187.033L187.081 91.1504V96.6104H186.073V88.0184ZM198.044 96.8024C197.596 96.8024 197.196 96.7144 196.844 96.5384C196.492 96.3624 196.22 96.1224 196.028 95.8184C195.836 95.5064 195.74 95.1544 195.74 94.7624C195.74 94.1144 195.984 93.6104 196.472 93.2504C196.96 92.8824 197.576 92.6984 198.32 92.6984C198.688 92.6984 199.028 92.7384 199.34 92.8184C199.66 92.8984 199.904 92.9904 200.072 93.0944V92.7224C200.072 92.2664 199.912 91.9024 199.592 91.6304C199.272 91.3504 198.868 91.2104 198.38 91.2104C198.036 91.2104 197.72 91.2864 197.432 91.4384C197.144 91.5824 196.916 91.7864 196.748 92.0504L195.98 91.4744C196.22 91.1064 196.548 90.8184 196.964 90.6104C197.388 90.4024 197.856 90.2984 198.368 90.2984C199.2 90.2984 199.852 90.5184 200.324 90.9584C200.804 91.3904 201.044 91.9824 201.044 92.7344V96.6104H200.072V95.7344H200.024C199.848 96.0304 199.584 96.2824 199.232 96.4904C198.88 96.6984 198.484 96.8024 198.044 96.8024ZM198.14 95.9024C198.484 95.9024 198.804 95.8144 199.1 95.6384C199.396 95.4624 199.632 95.2264 199.808 94.9304C199.984 94.6344 200.072 94.3104 200.072 93.9584C199.88 93.8304 199.644 93.7264 199.364 93.6464C199.084 93.5664 198.788 93.5264 198.476 93.5264C197.916 93.5264 197.492 93.6424 197.204 93.8744C196.924 94.1064 196.784 94.4064 196.784 94.7744C196.784 95.1104 196.912 95.3824 197.168 95.5904C197.424 95.7984 197.748 95.9024 198.14 95.9024ZM202.463 90.4904H203.435V91.3904H203.483C203.651 91.0864 203.919 90.8304 204.287 90.6224C204.655 90.4064 205.047 90.2984 205.463 90.2984C206.199 90.2984 206.759 90.5144 207.143 90.9464C207.535 91.3704 207.731 91.9504 207.731 92.6864V96.6104H206.711V92.8424C206.711 92.2744 206.575 91.8624 206.303 91.6064C206.031 91.3504 205.659 91.2224 205.187 91.2224C204.859 91.2224 204.563 91.3144 204.299 91.4984C204.043 91.6824 203.843 91.9264 203.699 92.2304C203.555 92.5264 203.483 92.8384 203.483 93.1664V96.6104H202.463V90.4904ZM211.087 96.8024C210.639 96.8024 210.239 96.7144 209.887 96.5384C209.535 96.3624 209.263 96.1224 209.071 95.8184C208.879 95.5064 208.783 95.1544 208.783 94.7624C208.783 94.1144 209.027 93.6104 209.515 93.2504C210.003 92.8824 210.619 92.6984 211.363 92.6984C211.731 92.6984 212.071 92.7384 212.383 92.8184C212.703 92.8984 212.947 92.9904 213.115 93.0944V92.7224C213.115 92.2664 212.955 91.9024 212.635 91.6304C212.315 91.3504 211.911 91.2104 211.423 91.2104C211.079 91.2104 210.763 91.2864 210.475 91.4384C210.187 91.5824 209.959 91.7864 209.791 92.0504L209.023 91.4744C209.263 91.1064 209.591 90.8184 210.007 90.6104C210.431 90.4024 210.899 90.2984 211.411 90.2984C212.243 90.2984 212.895 90.5184 213.367 90.9584C213.847 91.3904 214.087 91.9824 214.087 92.7344V96.6104H213.115V95.7344H213.067C212.891 96.0304 212.627 96.2824 212.275 96.4904C211.923 96.6984 211.527 96.8024 211.087 96.8024ZM211.183 95.9024C211.527 95.9024 211.847 95.8144 212.143 95.6384C212.439 95.4624 212.675 95.2264 212.851 94.9304C213.027 94.6344 213.115 94.3104 213.115 93.9584C212.923 93.8304 212.687 93.7264 212.407 93.6464C212.127 93.5664 211.831 93.5264 211.519 93.5264C210.959 93.5264 210.535 93.6424 210.247 93.8744C209.967 94.1064 209.827 94.4064 209.827 94.7744C209.827 95.1104 209.955 95.3824 210.211 95.5904C210.467 95.7984 210.791 95.9024 211.183 95.9024ZM218.135 99.3944C217.415 99.3944 216.819 99.2264 216.347 98.8904C215.883 98.5544 215.571 98.1504 215.411 97.6784L216.335 97.2824C216.471 97.6344 216.695 97.9184 217.007 98.1344C217.327 98.3584 217.703 98.4704 218.135 98.4704C218.767 98.4704 219.255 98.2864 219.599 97.9184C219.951 97.5504 220.127 97.0304 220.127 96.3584V95.6744H220.079C219.879 95.9864 219.595 96.2424 219.227 96.4424C218.867 96.6344 218.455 96.7304 217.991 96.7304C217.463 96.7304 216.979 96.5944 216.539 96.3224C216.107 96.0504 215.763 95.6704 215.507 95.1824C215.251 94.6944 215.123 94.1384 215.123 93.5144C215.123 92.8984 215.251 92.3464 215.507 91.8584C215.763 91.3624 216.107 90.9784 216.539 90.7064C216.979 90.4344 217.463 90.2984 217.991 90.2984C218.455 90.2984 218.867 90.3984 219.227 90.5984C219.595 90.7904 219.879 91.0464 220.079 91.3664H220.127V90.4904H221.099V96.3704C221.099 97.3544 220.827 98.1024 220.283 98.6144C219.739 99.1344 219.023 99.3944 218.135 99.3944ZM218.135 95.8064C218.503 95.8064 218.835 95.7144 219.131 95.5304C219.435 95.3464 219.675 95.0824 219.851 94.7384C220.035 94.3944 220.127 93.9864 220.127 93.5144C220.127 93.0344 220.035 92.6224 219.851 92.2784C219.675 91.9344 219.435 91.6744 219.131 91.4984C218.835 91.3144 218.503 91.2224 218.135 91.2224C217.767 91.2224 217.431 91.3144 217.127 91.4984C216.823 91.6824 216.579 91.9464 216.395 92.2904C216.219 92.6344 216.131 93.0424 216.131 93.5144C216.131 93.9864 216.219 94.3984 216.395 94.7504C216.579 95.0944 216.823 95.3584 217.127 95.5424C217.431 95.7184 217.767 95.8064 218.135 95.8064ZM225.273 96.8024C224.689 96.8024 224.165 96.6624 223.701 96.3824C223.237 96.1024 222.873 95.7184 222.609 95.2304C222.353 94.7344 222.225 94.1784 222.225 93.5624C222.225 92.9704 222.345 92.4264 222.585 91.9304C222.833 91.4344 223.181 91.0384 223.629 90.7424C224.077 90.4464 224.597 90.2984 225.189 90.2984C225.789 90.2984 226.309 90.4344 226.749 90.7064C227.189 90.9704 227.525 91.3384 227.757 91.8104C227.997 92.2824 228.117 92.8224 228.117 93.4304C228.117 93.5504 228.105 93.6544 228.081 93.7424H223.245C223.269 94.2064 223.381 94.5984 223.581 94.9184C223.781 95.2384 224.033 95.4784 224.337 95.6384C224.649 95.7984 224.973 95.8784 225.309 95.8784C226.093 95.8784 226.697 95.5104 227.121 94.7744L227.985 95.1944C227.721 95.6904 227.361 96.0824 226.905 96.3704C226.457 96.6584 225.913 96.8024 225.273 96.8024ZM227.037 92.9024C227.021 92.6464 226.949 92.3904 226.821 92.1344C226.693 91.8784 226.489 91.6624 226.209 91.4864C225.937 91.3104 225.593 91.2224 225.177 91.2224C224.697 91.2224 224.289 91.3784 223.953 91.6904C223.625 91.9944 223.409 92.3984 223.305 92.9024H227.037ZM229.311 90.4904H230.283V91.3904H230.331C230.507 91.0784 230.771 90.8184 231.123 90.6104C231.475 90.4024 231.847 90.2984 232.239 90.2984C232.687 90.2984 233.075 90.4064 233.403 90.6224C233.739 90.8384 233.979 91.1264 234.123 91.4864C234.339 91.1264 234.623 90.8384 234.975 90.6224C235.335 90.4064 235.751 90.2984 236.223 90.2984C236.927 90.2984 237.455 90.5144 237.807 90.9464C238.167 91.3704 238.347 91.9504 238.347 92.6864V96.6104H237.339V92.8424C237.339 92.2744 237.223 91.8624 236.991 91.6064C236.759 91.3504 236.415 91.2224 235.959 91.2224C235.655 91.2224 235.379 91.3104 235.131 91.4864C234.883 91.6624 234.687 91.8984 234.543 92.1944C234.407 92.4904 234.339 92.8104 234.339 93.1544V96.6104H233.319V92.8544C233.319 92.2784 233.203 91.8624 232.971 91.6064C232.739 91.3504 232.399 91.2224 231.951 91.2224C231.647 91.2224 231.371 91.3144 231.123 91.4984C230.875 91.6744 230.679 91.9144 230.535 92.2184C230.399 92.5144 230.331 92.8344 230.331 93.1784V96.6104H229.311V90.4904ZM242.535 96.8024C241.951 96.8024 241.427 96.6624 240.963 96.3824C240.499 96.1024 240.135 95.7184 239.871 95.2304C239.615 94.7344 239.487 94.1784 239.487 93.5624C239.487 92.9704 239.607 92.4264 239.847 91.9304C240.095 91.4344 240.443 91.0384 240.891 90.7424C241.339 90.4464 241.859 90.2984 242.451 90.2984C243.051 90.2984 243.571 90.4344 244.011 90.7064C244.451 90.9704 244.787 91.3384 245.019 91.8104C245.259 92.2824 245.379 92.8224 245.379 93.4304C245.379 93.5504 245.367 93.6544 245.343 93.7424H240.507C240.531 94.2064 240.643 94.5984 240.843 94.9184C241.043 95.2384 241.295 95.4784 241.599 95.6384C241.911 95.7984 242.235 95.8784 242.571 95.8784C243.355 95.8784 243.959 95.5104 244.383 94.7744L245.247 95.1944C244.983 95.6904 244.623 96.0824 244.167 96.3704C243.719 96.6584 243.175 96.8024 242.535 96.8024ZM244.299 92.9024C244.283 92.6464 244.211 92.3904 244.083 92.1344C243.955 91.8784 243.751 91.6624 243.471 91.4864C243.199 91.3104 242.855 91.2224 242.439 91.2224C241.959 91.2224 241.551 91.3784 241.215 91.6904C240.887 91.9944 240.671 92.3984 240.567 92.9024H244.299ZM246.572 90.4904H247.544V91.3904H247.592C247.76 91.0864 248.028 90.8304 248.396 90.6224C248.764 90.4064 249.156 90.2984 249.572 90.2984C250.308 90.2984 250.868 90.5144 251.252 90.9464C251.644 91.3704 251.84 91.9504 251.84 92.6864V96.6104H250.82V92.8424C250.82 92.2744 250.684 91.8624 250.412 91.6064C250.14 91.3504 249.768 91.2224 249.296 91.2224C248.968 91.2224 248.672 91.3144 248.408 91.4984C248.152 91.6824 247.952 91.9264 247.808 92.2304C247.664 92.5264 247.592 92.8384 247.592 93.1664V96.6104H246.572V90.4904ZM255.346 96.7064C255.098 96.7064 254.866 96.6664 254.65 96.5864C254.442 96.5064 254.266 96.3984 254.122 96.2624C253.962 96.1104 253.842 95.9344 253.762 95.7344C253.682 95.5344 253.642 95.2904 253.642 95.0024V91.4144H252.574V90.4904H253.642V88.7624H254.662V90.4904H256.15V91.4144H254.662V94.7504C254.662 95.0864 254.726 95.3344 254.854 95.4944C255.006 95.6704 255.226 95.7584 255.514 95.7584C255.746 95.7584 255.97 95.6904 256.186 95.5544V96.5504C256.066 96.6064 255.942 96.6464 255.814 96.6704C255.694 96.6944 255.538 96.7064 255.346 96.7064Z" fill="white"/>
</svg>
