<svg width="304" height="120" viewBox="0 0 304 120" fill="none" xmlns="http://www.w3.org/2000/svg">
<rect width="304" height="120" rx="6" fill="#313235"/>
<path d="M23.0871 75.1405C21.9783 75.1405 20.9564 74.8742 20.0216 74.3415C19.0867 73.8089 18.342 73.0805 17.7876 72.1565C17.2441 71.2217 16.9723 70.1835 16.9723 69.0421C16.9723 67.9007 17.2441 66.8679 17.7876 65.9439C18.342 65.0091 19.0867 64.2753 20.0216 63.7426C20.9564 63.21 21.9783 62.9436 23.0871 62.9436C23.9676 62.9436 24.7884 63.1012 25.5493 63.4165C26.3102 63.7317 26.9462 64.172 27.4571 64.7373L26.1852 66.0092C25.8048 65.5852 25.3482 65.2591 24.8155 65.0308C24.2937 64.8025 23.7122 64.6884 23.0708 64.6884C22.3207 64.6884 21.6195 64.8677 20.9673 65.2265C20.3151 65.5852 19.7933 66.0961 19.4019 66.7592C19.0106 67.4223 18.8149 68.1833 18.8149 69.0421C18.8149 69.9009 19.0106 70.6618 19.4019 71.3249C19.7933 71.988 20.3151 72.499 20.9673 72.8577C21.6195 73.2164 22.3261 73.3958 23.0871 73.3958C23.7828 73.3958 24.3644 73.2925 24.8318 73.086C25.2993 72.8794 25.7178 72.6022 26.0874 72.2544C26.3266 72.0152 26.5277 71.7163 26.6907 71.3575C26.8647 70.9988 26.9788 70.6075 27.0332 70.1835H23.0708V68.5529H28.7616C28.8159 68.8573 28.8431 69.1725 28.8431 69.4986C28.8431 70.2379 28.729 70.9499 28.5007 71.6347C28.2724 72.3087 27.9082 72.8957 27.4082 73.3958C26.3102 74.559 24.8699 75.1405 23.0871 75.1405ZM34.4753 75.1405C33.6383 75.1405 32.8882 74.9503 32.2251 74.5698C31.562 74.1785 31.0456 73.6458 30.676 72.9718C30.3064 72.2979 30.1216 71.5478 30.1216 70.7216C30.1216 69.8954 30.3064 69.1454 30.676 68.4714C31.0456 67.7974 31.562 67.2702 32.2251 66.8897C32.8882 66.4983 33.6383 66.3027 34.4753 66.3027C35.3124 66.3027 36.0624 66.4983 36.7256 66.8897C37.3887 67.281 37.905 67.8137 38.2746 68.4877C38.6442 69.1617 38.829 69.9063 38.829 70.7216C38.829 71.5478 38.6442 72.2979 38.2746 72.9718C37.905 73.6458 37.3887 74.1785 36.7256 74.5698C36.0624 74.9503 35.3124 75.1405 34.4753 75.1405ZM34.4753 73.4936C34.9319 73.4936 35.3559 73.3849 35.7472 73.1675C36.1385 72.9392 36.4484 72.6185 36.6766 72.2054C36.9158 71.7815 37.0354 71.2869 37.0354 70.7216C37.0354 70.1563 36.9158 69.6671 36.6766 69.2541C36.4484 68.841 36.1385 68.5257 35.7472 68.3083C35.3559 68.08 34.9319 67.9659 34.4753 67.9659C34.0188 67.9659 33.5948 68.08 33.2035 68.3083C32.8121 68.5257 32.4969 68.841 32.2577 69.2541C32.0294 69.6671 31.9153 70.1563 31.9153 70.7216C31.9153 71.2869 32.0294 71.7815 32.2577 72.2054C32.4969 72.6185 32.8121 72.9392 33.2035 73.1675C33.5948 73.3849 34.0188 73.4936 34.4753 73.4936ZM44.38 75.1405C43.5429 75.1405 42.7928 74.9503 42.1297 74.5698C41.4666 74.1785 40.9503 73.6458 40.5807 72.9718C40.2111 72.2979 40.0263 71.5478 40.0263 70.7216C40.0263 69.8954 40.2111 69.1454 40.5807 68.4714C40.9503 67.7974 41.4666 67.2702 42.1297 66.8897C42.7928 66.4983 43.5429 66.3027 44.38 66.3027C45.217 66.3027 45.9671 66.4983 46.6302 66.8897C47.2933 67.281 47.8097 67.8137 48.1793 68.4877C48.5489 69.1617 48.7337 69.9063 48.7337 70.7216C48.7337 71.5478 48.5489 72.2979 48.1793 72.9718C47.8097 73.6458 47.2933 74.1785 46.6302 74.5698C45.9671 74.9503 45.217 75.1405 44.38 75.1405ZM44.38 73.4936C44.8365 73.4936 45.2605 73.3849 45.6518 73.1675C46.0432 72.9392 46.353 72.6185 46.5813 72.2054C46.8204 71.7815 46.94 71.2869 46.94 70.7216C46.94 70.1563 46.8204 69.6671 46.5813 69.2541C46.353 68.841 46.0432 68.5257 45.6518 68.3083C45.2605 68.08 44.8365 67.9659 44.38 67.9659C43.9234 67.9659 43.4994 68.08 43.1081 68.3083C42.7167 68.5257 42.4015 68.841 42.1623 69.2541C41.9341 69.6671 41.8199 70.1563 41.8199 70.7216C41.8199 71.2869 41.9341 71.7815 42.1623 72.2054C42.4015 72.6185 42.7167 72.9392 43.1081 73.1675C43.4994 73.3849 43.9234 73.4936 44.38 73.4936ZM54.1378 78.6626C53.116 78.6626 52.2681 78.4289 51.5941 77.9615C50.931 77.494 50.4853 76.9396 50.257 76.2983L51.9365 75.5971C52.1105 76.0319 52.3877 76.3798 52.7681 76.6407C53.1595 76.9125 53.6161 77.0483 54.1378 77.0483C54.8988 77.0483 55.4912 76.8201 55.9152 76.3635C56.35 75.9178 56.5674 75.2873 56.5674 74.472V73.7056H56.4696C56.1978 74.0969 55.8337 74.4068 55.3771 74.635C54.9314 74.8525 54.4151 74.9612 53.828 74.9612C53.1323 74.9612 52.4855 74.7818 51.8876 74.4231C51.2897 74.0643 50.8114 73.5589 50.4527 72.9066C50.1048 72.2435 49.9309 71.488 49.9309 70.6401C49.9309 69.7922 50.1048 69.0421 50.4527 68.3898C50.8114 67.7267 51.2897 67.2158 51.8876 66.8571C52.4855 66.4875 53.1323 66.3027 53.828 66.3027C54.4042 66.3027 54.9205 66.4168 55.3771 66.6451C55.8337 66.8734 56.1978 67.1832 56.4696 67.5745H56.5674V66.5636H58.2796V74.4231C58.2796 75.3253 58.1057 76.0917 57.7578 76.7222C57.4099 77.3636 56.9207 77.8473 56.2902 78.1735C55.6706 78.4996 54.9532 78.6626 54.1378 78.6626ZM54.1542 73.3306C54.589 73.3306 54.9912 73.2273 55.3608 73.0208C55.7304 72.8033 56.0239 72.4935 56.2413 72.0913C56.4587 71.6782 56.5674 71.1945 56.5674 70.6401C56.5674 69.7922 56.3337 69.1345 55.8663 68.667C55.4097 68.1887 54.839 67.9496 54.1542 67.9496C53.7085 67.9496 53.3008 68.0583 52.9312 68.2757C52.5616 68.4822 52.2681 68.7866 52.0507 69.1888C51.8333 69.591 51.7246 70.0748 51.7246 70.6401C51.7246 71.2053 51.8333 71.6891 52.0507 72.0913C52.2681 72.4935 52.5616 72.8033 52.9312 73.0208C53.3008 73.2273 53.7085 73.3306 54.1542 73.3306ZM60.3876 63.2045H62.1813V74.8796H60.3876V63.2045ZM68.0087 75.1405C67.1934 75.1405 66.4596 74.9503 65.8074 74.5698C65.166 74.1894 64.6605 73.6676 64.2909 73.0044C63.9322 72.3305 63.7528 71.5749 63.7528 70.7379C63.7528 69.9443 63.9267 69.2106 64.2746 68.5366C64.6333 67.8517 65.1279 67.3082 65.7584 66.906C66.3889 66.5038 67.1064 66.3027 67.9108 66.3027C68.7479 66.3027 69.4708 66.4875 70.0795 66.8571C70.6992 67.2267 71.1666 67.7322 71.4819 68.3735C71.808 69.0149 71.971 69.7378 71.971 70.5422C71.971 70.6944 71.9547 70.8847 71.9221 71.1129H65.5465C65.6117 71.8848 65.8835 72.4827 66.3618 72.9066C66.8509 73.3197 67.4162 73.5262 68.0576 73.5262C68.5685 73.5262 69.0088 73.4121 69.3784 73.1838C69.7589 72.9447 70.0632 72.624 70.2915 72.2218L71.808 72.9392C71.4166 73.6241 70.9057 74.1622 70.2752 74.5535C69.6447 74.9449 68.8892 75.1405 68.0087 75.1405ZM70.1448 69.7432C70.123 69.4497 70.0306 69.1617 69.8676 68.879C69.7045 68.5855 69.4545 68.3409 69.1175 68.1452C68.7914 67.9496 68.3892 67.8517 67.9108 67.8517C67.3347 67.8517 66.8455 68.0257 66.4433 68.3735C66.052 68.7105 65.7802 69.1671 65.628 69.7432H70.1448ZM77.7197 63.2045H81.4538C82.6604 63.2045 83.7149 63.4491 84.6171 63.9383C85.5194 64.4275 86.2097 65.1178 86.688 66.0092C87.1772 66.8897 87.4218 67.9007 87.4218 69.0421C87.4218 70.1835 87.1772 71.1999 86.688 72.0913C86.2097 72.9718 85.5194 73.6567 84.6171 74.1459C83.7149 74.635 82.6604 74.8796 81.4538 74.8796H77.7197V63.2045ZM81.4212 73.1349C82.7256 73.1349 83.742 72.7762 84.4704 72.0587C85.2096 71.3304 85.5792 70.3248 85.5792 69.0421C85.5792 67.7702 85.2096 66.7701 84.4704 66.0418C83.742 65.3134 82.7256 64.9493 81.4212 64.9493H79.546V73.1349H81.4212ZM92.7703 75.1405C91.955 75.1405 91.2212 74.9503 90.569 74.5698C89.9276 74.1894 89.4221 73.6676 89.0525 73.0044C88.6938 72.3305 88.5144 71.5749 88.5144 70.7379C88.5144 69.9443 88.6883 69.2106 89.0362 68.5366C89.3949 67.8517 89.8895 67.3082 90.52 66.906C91.1505 66.5038 91.868 66.3027 92.6724 66.3027C93.5095 66.3027 94.2324 66.4875 94.8411 66.8571C95.4608 67.2267 95.9282 67.7322 96.2435 68.3735C96.5696 69.0149 96.7326 69.7378 96.7326 70.5422C96.7326 70.6944 96.7163 70.8847 96.6837 71.1129H90.3081C90.3733 71.8848 90.6451 72.4827 91.1234 72.9066C91.6125 73.3197 92.1778 73.5262 92.8192 73.5262C93.3301 73.5262 93.7704 73.4121 94.14 73.1838C94.5205 72.9447 94.8248 72.624 95.0531 72.2218L96.5696 72.9392C96.1782 73.6241 95.6673 74.1622 95.0368 74.5535C94.4063 74.9449 93.6508 75.1405 92.7703 75.1405ZM94.9064 69.7432C94.8846 69.4497 94.7922 69.1617 94.6292 68.879C94.4661 68.5855 94.2161 68.3409 93.8791 68.1452C93.553 67.9496 93.1507 67.8517 92.6724 67.8517C92.0963 67.8517 91.6071 68.0257 91.2049 68.3735C90.8136 68.7105 90.5418 69.1671 90.3896 69.7432H94.9064ZM97.2774 66.5636H99.283L101.582 72.5642H101.647L103.995 66.5636H105.952L102.495 74.8796H100.702L97.2774 66.5636ZM110.669 75.1405C109.853 75.1405 109.12 74.9503 108.467 74.5698C107.826 74.1894 107.321 73.6676 106.951 73.0044C106.592 72.3305 106.413 71.5749 106.413 70.7379C106.413 69.9443 106.587 69.2106 106.935 68.5366C107.293 67.8517 107.788 67.3082 108.418 66.906C109.049 66.5038 109.766 66.3027 110.571 66.3027C111.408 66.3027 112.131 66.4875 112.74 66.8571C113.359 67.2267 113.827 67.7322 114.142 68.3735C114.468 69.0149 114.631 69.7378 114.631 70.5422C114.631 70.6944 114.615 70.8847 114.582 71.1129H108.206C108.272 71.8848 108.543 72.4827 109.022 72.9066C109.511 73.3197 110.076 73.5262 110.718 73.5262C111.229 73.5262 111.669 73.4121 112.038 73.1838C112.419 72.9447 112.723 72.624 112.952 72.2218L114.468 72.9392C114.077 73.6241 113.566 74.1622 112.935 74.5535C112.305 74.9449 111.549 75.1405 110.669 75.1405ZM112.805 69.7432C112.783 69.4497 112.691 69.1617 112.528 68.879C112.365 68.5855 112.114 68.3409 111.777 68.1452C111.451 67.9496 111.049 67.8517 110.571 67.8517C109.995 67.8517 109.506 68.0257 109.103 68.3735C108.712 68.7105 108.44 69.1671 108.288 69.7432H112.805ZM116.264 63.2045H118.058V74.8796H116.264V63.2045ZM123.983 75.1405C123.146 75.1405 122.396 74.9503 121.733 74.5698C121.07 74.1785 120.554 73.6458 120.184 72.9718C119.814 72.2979 119.63 71.5478 119.63 70.7216C119.63 69.8954 119.814 69.1454 120.184 68.4714C120.554 67.7974 121.07 67.2702 121.733 66.8897C122.396 66.4983 123.146 66.3027 123.983 66.3027C124.82 66.3027 125.57 66.4983 126.234 66.8897C126.897 67.281 127.413 67.8137 127.783 68.4877C128.152 69.1617 128.337 69.9063 128.337 70.7216C128.337 71.5478 128.152 72.2979 127.783 72.9718C127.413 73.6458 126.897 74.1785 126.234 74.5698C125.57 74.9503 124.82 75.1405 123.983 75.1405ZM123.983 73.4936C124.44 73.4936 124.864 73.3849 125.255 73.1675C125.647 72.9392 125.956 72.6185 126.185 72.2054C126.424 71.7815 126.543 71.2869 126.543 70.7216C126.543 70.1563 126.424 69.6671 126.185 69.2541C125.956 68.841 125.647 68.5257 125.255 68.3083C124.864 68.08 124.44 67.9659 123.983 67.9659C123.527 67.9659 123.103 68.08 122.711 68.3083C122.32 68.5257 122.005 68.841 121.766 69.2541C121.537 69.6671 121.423 70.1563 121.423 70.7216C121.423 71.2869 121.537 71.7815 121.766 72.2054C122.005 72.6185 122.32 72.9392 122.711 73.1675C123.103 73.3849 123.527 73.4936 123.983 73.4936ZM129.846 66.5636H131.558V67.6561H131.64C131.879 67.2756 132.232 66.9549 132.7 66.694C133.167 66.4331 133.694 66.3027 134.281 66.3027C135.031 66.3027 135.711 66.4929 136.319 66.8734C136.928 67.2539 137.407 67.7811 137.754 68.4551C138.113 69.1182 138.293 69.8737 138.293 70.7216C138.293 71.5695 138.113 72.3305 137.754 73.0044C137.407 73.6676 136.928 74.1894 136.319 74.5698C135.711 74.9503 135.031 75.1405 134.281 75.1405C133.694 75.1405 133.167 75.0101 132.7 74.7492C132.232 74.4883 131.879 74.173 131.64 73.8034H131.558L131.64 74.9612V78.4017H129.846V66.5636ZM134.02 73.4936C134.455 73.4936 134.863 73.3795 135.243 73.1512C135.624 72.9229 135.928 72.5968 136.156 72.1728C136.385 71.7489 136.499 71.2651 136.499 70.7216C136.499 70.1781 136.385 69.6998 136.156 69.2867C135.928 68.8627 135.624 68.5366 135.243 68.3083C134.863 68.08 134.455 67.9659 134.02 67.9659C133.586 67.9659 133.178 68.08 132.797 68.3083C132.428 68.5366 132.129 68.8627 131.901 69.2867C131.672 69.6998 131.558 70.1781 131.558 70.7216C131.558 71.2651 131.672 71.7489 131.901 72.1728C132.129 72.5968 132.428 72.9229 132.797 73.1512C133.178 73.3795 133.586 73.4936 134.02 73.4936ZM143.727 75.1405C142.911 75.1405 142.178 74.9503 141.525 74.5698C140.884 74.1894 140.378 73.6676 140.009 73.0044C139.65 72.3305 139.471 71.5749 139.471 70.7379C139.471 69.9443 139.645 69.2106 139.993 68.5366C140.351 67.8517 140.846 67.3082 141.476 66.906C142.107 66.5038 142.824 66.3027 143.629 66.3027C144.466 66.3027 145.189 66.4875 145.797 66.8571C146.417 67.2267 146.885 67.7322 147.2 68.3735C147.526 69.0149 147.689 69.7378 147.689 70.5422C147.689 70.6944 147.673 70.8847 147.64 71.1129H141.264C141.33 71.8848 141.601 72.4827 142.08 72.9066C142.569 73.3197 143.134 73.5262 143.776 73.5262C144.286 73.5262 144.727 73.4121 145.096 73.1838C145.477 72.9447 145.781 72.624 146.009 72.2218L147.526 72.9392C147.135 73.6241 146.624 74.1622 145.993 74.5535C145.363 74.9449 144.607 75.1405 143.727 75.1405ZM145.863 69.7432C145.841 69.4497 145.749 69.1617 145.586 68.879C145.422 68.5855 145.172 68.3409 144.835 68.1452C144.509 67.9496 144.107 67.8517 143.629 67.8517C143.053 67.8517 142.563 68.0257 142.161 68.3735C141.77 68.7105 141.498 69.1671 141.346 69.7432H145.863ZM149.322 66.5636H151.035V67.7865H151.116C151.301 67.3626 151.622 67.0147 152.078 66.7429C152.535 66.4603 153.018 66.319 153.529 66.319C153.932 66.319 154.269 66.3733 154.54 66.482V68.3409C154.062 68.167 153.633 68.08 153.252 68.08C152.839 68.08 152.469 68.1887 152.143 68.4061C151.828 68.6236 151.578 68.9171 151.393 69.2867C151.208 69.6454 151.116 70.0422 151.116 70.477V74.8796H149.322V66.5636ZM162.912 75.1405C161.944 75.1405 161.075 74.8579 160.303 74.2926C159.531 73.7273 158.998 72.9338 158.705 71.9119L160.433 71.2108C160.607 71.8522 160.912 72.3794 161.346 72.7925C161.792 73.1947 162.325 73.3958 162.944 73.3958C163.521 73.3958 164.01 73.249 164.412 72.9555C164.814 72.6511 165.015 72.2381 165.015 71.7163C165.015 71.238 164.836 70.8466 164.477 70.5422C164.129 70.227 163.515 69.9117 162.635 69.5965L161.901 69.3356C161.118 69.0638 160.46 68.6725 159.928 68.1616C159.395 67.6506 159.129 66.9766 159.129 66.1396C159.129 65.5635 159.286 65.0308 159.602 64.5416C159.917 64.0524 160.352 63.6665 160.906 63.3839C161.471 63.0904 162.107 62.9436 162.814 62.9436C163.836 62.9436 164.651 63.1936 165.26 63.6937C165.869 64.1829 166.276 64.7373 166.483 65.3569L164.836 66.0581C164.716 65.6885 164.488 65.3624 164.151 65.0797C163.814 64.7971 163.379 64.6558 162.847 64.6558C162.314 64.6558 161.863 64.7916 161.493 65.0634C161.134 65.3352 160.955 65.683 160.955 66.107C160.955 66.5092 161.118 66.8408 161.444 67.1017C161.77 67.3626 162.281 67.6126 162.977 67.8517L163.711 68.0963C164.711 68.4442 165.483 68.9008 166.026 69.466C166.581 70.0204 166.858 70.7651 166.858 71.7C166.858 72.4609 166.662 73.1023 166.271 73.6241C165.88 74.135 165.379 74.5155 164.771 74.7655C164.173 75.0155 163.553 75.1405 162.912 75.1405ZM171.648 75.0101C171.278 75.0101 170.93 74.9503 170.604 74.8307C170.278 74.7111 170.012 74.5535 169.805 74.3578C169.338 73.8904 169.104 73.2545 169.104 72.45V68.1452H167.653V66.5636H169.104V64.2155H170.898V66.5636H172.92V68.1452H170.898V72.0587C170.898 72.5044 170.985 72.8196 171.159 73.0044C171.322 73.2219 171.604 73.3306 172.007 73.3306C172.191 73.3306 172.354 73.3088 172.496 73.2653C172.637 73.211 172.789 73.1295 172.952 73.0208V74.7655C172.594 74.9286 172.159 75.0101 171.648 75.0101ZM177.658 75.1405C176.647 75.1405 175.876 74.8416 175.343 74.2437C174.821 73.6349 174.56 72.7925 174.56 71.7163V66.5636H176.354V71.4717C176.354 72.1457 176.511 72.6511 176.827 72.9881C177.153 73.3251 177.577 73.4936 178.099 73.4936C178.523 73.4936 178.898 73.3849 179.224 73.1675C179.55 72.9392 179.8 72.6403 179.974 72.2707C180.148 71.9011 180.235 71.5043 180.235 71.0803V66.5636H182.028V74.8796H180.333V73.8034H180.235C180.006 74.1948 179.653 74.5155 179.175 74.7655C178.696 75.0155 178.191 75.1405 177.658 75.1405ZM187.591 75.1405C186.841 75.1405 186.162 74.9503 185.553 74.5698C184.944 74.1894 184.46 73.6676 184.102 73.0044C183.754 72.3305 183.58 71.5695 183.58 70.7216C183.58 69.8737 183.754 69.1182 184.102 68.4551C184.46 67.7811 184.944 67.2539 185.553 66.8734C186.162 66.4929 186.841 66.3027 187.591 66.3027C188.178 66.3027 188.705 66.4331 189.173 66.694C189.64 66.9549 189.994 67.2756 190.233 67.6561H190.314L190.233 66.482V63.2045H192.026V74.8796H190.314V73.8034H190.233C189.994 74.173 189.64 74.4883 189.173 74.7492C188.705 75.0101 188.178 75.1405 187.591 75.1405ZM187.852 73.4936C188.287 73.4936 188.689 73.3795 189.059 73.1512C189.439 72.9229 189.744 72.5968 189.972 72.1728C190.2 71.7489 190.314 71.2651 190.314 70.7216C190.314 70.1781 190.2 69.6998 189.972 69.2867C189.744 68.8627 189.439 68.5366 189.059 68.3083C188.689 68.08 188.287 67.9659 187.852 67.9659C187.417 67.9659 187.01 68.08 186.629 68.3083C186.249 68.5366 185.944 68.8627 185.716 69.2867C185.488 69.6998 185.374 70.1781 185.374 70.7216C185.374 71.2651 185.488 71.7489 185.716 72.1728C185.944 72.5968 186.249 72.9229 186.629 73.1512C187.01 73.3795 187.417 73.4936 187.852 73.4936ZM197.836 75.1405C197.021 75.1405 196.287 74.9503 195.635 74.5698C194.993 74.1894 194.488 73.6676 194.118 73.0044C193.759 72.3305 193.58 71.5749 193.58 70.7379C193.58 69.9443 193.754 69.2106 194.102 68.5366C194.461 67.8517 194.955 67.3082 195.586 66.906C196.216 66.5038 196.934 66.3027 197.738 66.3027C198.575 66.3027 199.298 66.4875 199.907 66.8571C200.526 67.2267 200.994 67.7322 201.309 68.3735C201.635 69.0149 201.798 69.7378 201.798 70.5422C201.798 70.6944 201.782 70.8847 201.749 71.1129H195.374C195.439 71.8848 195.711 72.4827 196.189 72.9066C196.678 73.3197 197.243 73.5262 197.885 73.5262C198.396 73.5262 198.836 73.4121 199.206 73.1838C199.586 72.9447 199.89 72.624 200.119 72.2218L201.635 72.9392C201.244 73.6241 200.733 74.1622 200.102 74.5535C199.472 74.9449 198.716 75.1405 197.836 75.1405ZM199.972 69.7432C199.95 69.4497 199.858 69.1617 199.695 68.879C199.532 68.5855 199.282 68.3409 198.945 68.1452C198.619 67.9496 198.216 67.8517 197.738 67.8517C197.162 67.8517 196.673 68.0257 196.271 68.3735C195.879 68.7105 195.607 69.1671 195.455 69.7432H199.972ZM203.432 66.5636H205.144V67.6561H205.225C205.464 67.2647 205.818 66.944 206.285 66.694C206.764 66.4331 207.269 66.3027 207.802 66.3027C208.813 66.3027 209.579 66.6016 210.101 67.1995C210.633 67.7865 210.9 68.5909 210.9 69.6128V74.8796H209.106V69.8574C209.106 69.2051 208.943 68.7268 208.617 68.4225C208.302 68.1181 207.861 67.9659 207.296 67.9659C206.894 67.9659 206.535 68.08 206.22 68.3083C205.905 68.5257 205.66 68.8192 205.486 69.1888C205.312 69.5584 205.225 69.9552 205.225 70.3792V74.8796H203.432V66.5636ZM215.916 75.0101C215.547 75.0101 215.199 74.9503 214.873 74.8307C214.547 74.7111 214.28 74.5535 214.074 74.3578C213.606 73.8904 213.372 73.2545 213.372 72.45V68.1452H211.921V66.5636H213.372V64.2155H215.166V66.5636H217.188V68.1452H215.166V72.0587C215.166 72.5044 215.253 72.8196 215.427 73.0044C215.59 73.2219 215.873 73.3306 216.275 73.3306C216.46 73.3306 216.623 73.3088 216.764 73.2653C216.905 73.211 217.058 73.1295 217.221 73.0208V74.7655C216.862 74.9286 216.427 75.0101 215.916 75.0101ZM228.202 75.1405C227.071 75.1405 226.039 74.8742 225.104 74.3415C224.169 73.8089 223.435 73.0751 222.902 72.1402C222.37 71.2053 222.103 70.1726 222.103 69.0421C222.103 67.9115 222.37 66.8788 222.902 65.9439C223.435 65.0091 224.169 64.2753 225.104 63.7426C226.039 63.21 227.071 62.9436 228.202 62.9436C229.082 62.9436 229.881 63.1067 230.599 63.4328C231.327 63.7589 231.969 64.2318 232.523 64.8514L231.219 66.107C230.816 65.6287 230.371 65.2754 229.881 65.0471C229.392 64.8079 228.832 64.6884 228.202 64.6884C227.419 64.6884 226.702 64.8677 226.05 65.2265C225.408 65.5852 224.897 66.0961 224.517 66.7592C224.136 67.4115 223.946 68.1724 223.946 69.0421C223.946 69.9117 224.136 70.6781 224.517 71.3412C224.897 71.9935 225.408 72.499 226.05 72.8577C226.702 73.2164 227.419 73.3958 228.202 73.3958C229.506 73.3958 230.615 72.8523 231.528 71.7652L232.849 73.0371C232.284 73.7002 231.604 74.2165 230.811 74.5861C230.017 74.9557 229.148 75.1405 228.202 75.1405ZM234.435 63.2045H236.229V74.8796H234.435V63.2045ZM241.37 75.1405C240.359 75.1405 239.587 74.8416 239.054 74.2437C238.532 73.6349 238.272 72.7925 238.272 71.7163V66.5636H240.065V71.4717C240.065 72.1457 240.223 72.6511 240.538 72.9881C240.864 73.3251 241.288 73.4936 241.81 73.4936C242.234 73.4936 242.609 73.3849 242.935 73.1675C243.261 72.9392 243.511 72.6403 243.685 72.2707C243.859 71.9011 243.946 71.5043 243.946 71.0803V66.5636H245.74V74.8796H244.044V73.8034H243.946C243.718 74.1948 243.364 74.5155 242.886 74.7655C242.408 75.0155 241.902 75.1405 241.37 75.1405ZM252.263 75.1405C251.676 75.1405 251.148 75.0101 250.681 74.7492C250.213 74.4883 249.86 74.173 249.621 73.8034H249.54V74.8796H247.827V63.2045H249.621V66.482L249.54 67.6561H249.621C249.86 67.2756 250.213 66.9549 250.681 66.694C251.148 66.4331 251.676 66.3027 252.263 66.3027C253.013 66.3027 253.692 66.4929 254.301 66.8734C254.91 67.2539 255.388 67.7811 255.736 68.4551C256.095 69.1182 256.274 69.8737 256.274 70.7216C256.274 71.5695 256.095 72.3305 255.736 73.0044C255.388 73.6676 254.91 74.1894 254.301 74.5698C253.692 74.9503 253.013 75.1405 252.263 75.1405ZM252.002 73.4936C252.437 73.4936 252.844 73.3795 253.225 73.1512C253.605 72.9229 253.91 72.5968 254.138 72.1728C254.366 71.7489 254.48 71.2651 254.48 70.7216C254.48 70.1781 254.366 69.6998 254.138 69.2867C253.91 68.8627 253.605 68.5366 253.225 68.3083C252.844 68.08 252.437 67.9659 252.002 67.9659C251.567 67.9659 251.159 68.08 250.779 68.3083C250.409 68.5366 250.11 68.8627 249.882 69.2867C249.654 69.6998 249.54 70.1781 249.54 70.7216C249.54 71.2651 249.654 71.7489 249.882 72.1728C250.11 72.5968 250.409 72.9229 250.779 73.1512C251.159 73.3795 251.567 73.4936 252.002 73.4936ZM260.86 75.1405C259.904 75.1405 259.121 74.934 258.512 74.5209C257.904 74.0969 257.474 73.5589 257.224 72.9066L258.822 72.2054C259.018 72.6403 259.29 72.9718 259.638 73.2001C259.996 73.4284 260.404 73.5425 260.86 73.5425C261.306 73.5425 261.681 73.4664 261.986 73.3143C262.29 73.1512 262.442 72.912 262.442 72.5968C262.442 72.2924 262.312 72.0533 262.051 71.8793C261.79 71.7054 261.388 71.5532 260.844 71.4228L259.849 71.1782C259.186 71.0151 258.637 70.727 258.203 70.314C257.768 69.9009 257.55 69.3791 257.55 68.7486C257.55 68.2594 257.692 67.83 257.974 67.4604C258.268 67.0908 258.659 66.8082 259.148 66.6125C259.638 66.4059 260.17 66.3027 260.746 66.3027C261.518 66.3027 262.198 66.4603 262.785 66.7755C263.372 67.0799 263.796 67.5256 264.056 68.1126L262.491 68.7975C262.176 68.1561 261.6 67.8354 260.763 67.8354C260.36 67.8354 260.023 67.917 259.752 68.08C259.48 68.2431 259.344 68.4551 259.344 68.716C259.344 68.966 259.447 69.1725 259.654 69.3356C259.86 69.4878 260.165 69.6182 260.567 69.7269L261.79 70.0367C262.605 70.2433 263.219 70.5585 263.632 70.9825C264.056 71.3956 264.268 71.9065 264.268 72.5153C264.268 73.0371 264.116 73.4991 263.812 73.9013C263.518 74.2926 263.111 74.597 262.589 74.8144C262.067 75.0318 261.491 75.1405 260.86 75.1405Z" fill="white"/>
<rect width="23.3115" height="7.81905" rx="3.90953" transform="matrix(-0.866025 0.5 0.5 0.866025 174.504 27.7881)" fill="#FBBC04"/>
<rect width="23.3115" height="7.81905" rx="3.90953" transform="matrix(0.866025 -0.5 -0.5 -0.866025 131.371 38.4272)" fill="#EA4335"/>
<rect x="131.041" y="27.7871" width="23.3115" height="7.81905" rx="3.90953" transform="rotate(30 131.041 27.7871)" fill="#4285F4"/>
<rect x="174.504" y="38.4272" width="23.3115" height="7.81905" rx="3.64648" transform="rotate(-150 174.504 38.4272)" fill="#0F9D58"/>
<path d="M43.3389 91V83H46.042C46.6696 83 47.1826 83.1133 47.5811 83.3398C47.9821 83.5638 48.279 83.8672 48.4717 84.25C48.6644 84.6328 48.7607 85.0599 48.7607 85.5312C48.7607 86.0026 48.6644 86.431 48.4717 86.8164C48.2816 87.2018 47.9873 87.5091 47.5889 87.7383C47.1904 87.9648 46.68 88.0781 46.0576 88.0781H44.1201V87.2188H46.0264C46.4561 87.2188 46.8011 87.1445 47.0615 86.9961C47.3219 86.8477 47.5107 86.6471 47.6279 86.3945C47.7477 86.1393 47.8076 85.8516 47.8076 85.5312C47.8076 85.2109 47.7477 84.9245 47.6279 84.6719C47.5107 84.4193 47.3206 84.2214 47.0576 84.0781C46.7946 83.9323 46.4456 83.8594 46.0107 83.8594H44.3076V91H43.3389ZM50.4922 91.0625C50.2995 91.0625 50.1341 90.9935 49.9961 90.8555C49.8581 90.7174 49.7891 90.5521 49.7891 90.3594C49.7891 90.1667 49.8581 90.0013 49.9961 89.8633C50.1341 89.7253 50.2995 89.6562 50.4922 89.6562C50.6849 89.6562 50.8503 89.7253 50.9883 89.8633C51.1263 90.0013 51.1953 90.1667 51.1953 90.3594C51.1953 90.487 51.1628 90.6042 51.0977 90.7109C51.0352 90.8177 50.9505 90.9036 50.8438 90.9687C50.7396 91.0313 50.6224 91.0625 50.4922 91.0625ZM56.0684 91V83H58.7715C59.3965 83 59.9095 83.1068 60.3105 83.3203C60.7116 83.5312 61.0085 83.8216 61.2012 84.1914C61.3939 84.5612 61.4902 84.9818 61.4902 85.4531C61.4902 85.9245 61.3939 86.3424 61.2012 86.707C61.0085 87.0716 60.7129 87.3581 60.3145 87.5664C59.916 87.7721 59.4069 87.875 58.7871 87.875H56.5996V87H58.7559C59.1829 87 59.5267 86.9375 59.7871 86.8125C60.0501 86.6875 60.2402 86.5104 60.3574 86.2812C60.4772 86.0495 60.5371 85.7734 60.5371 85.4531C60.5371 85.1328 60.4772 84.8529 60.3574 84.6133C60.2376 84.3737 60.0462 84.1888 59.7832 84.0586C59.5202 83.9258 59.1725 83.8594 58.7402 83.8594H57.0371V91H56.0684ZM59.834 87.4062L61.8027 91H60.6777L58.7402 87.4062H59.834ZM63.6514 91.0625C63.4587 91.0625 63.2933 90.9935 63.1553 90.8555C63.0173 90.7174 62.9482 90.5521 62.9482 90.3594C62.9482 90.1667 63.0173 90.0013 63.1553 89.8633C63.2933 89.7253 63.4587 89.6562 63.6514 89.6562C63.8441 89.6562 64.0094 89.7253 64.1475 89.8633C64.2855 90.0013 64.3545 90.1667 64.3545 90.3594C64.3545 90.487 64.3219 90.6042 64.2568 90.7109C64.1943 90.8177 64.1097 90.9036 64.0029 90.9687C63.8988 91.0313 63.7816 91.0625 63.6514 91.0625ZM69.2275 91V83H71.9307C72.5583 83 73.0713 83.1133 73.4697 83.3398C73.8708 83.5638 74.1676 83.8672 74.3604 84.25C74.5531 84.6328 74.6494 85.0599 74.6494 85.5312C74.6494 86.0026 74.5531 86.431 74.3604 86.8164C74.1702 87.2018 73.876 87.5091 73.4775 87.7383C73.0791 87.9648 72.5687 88.0781 71.9463 88.0781H70.0088V87.2188H71.915C72.3447 87.2188 72.6898 87.1445 72.9502 86.9961C73.2106 86.8477 73.3994 86.6471 73.5166 86.3945C73.6364 86.1393 73.6963 85.8516 73.6963 85.5312C73.6963 85.2109 73.6364 84.9245 73.5166 84.6719C73.3994 84.4193 73.2093 84.2214 72.9463 84.0781C72.6833 83.9323 72.3343 83.8594 71.8994 83.8594H70.1963V91H69.2275ZM78.458 91.125C77.9163 91.125 77.4411 90.9961 77.0322 90.7383C76.626 90.4805 76.3083 90.1198 76.0791 89.6562C75.8525 89.1927 75.7393 88.651 75.7393 88.0312C75.7393 87.4062 75.8525 86.8607 76.0791 86.3945C76.3083 85.9284 76.626 85.5664 77.0322 85.3086C77.4411 85.0508 77.9163 84.9219 78.458 84.9219C78.9997 84.9219 79.4736 85.0508 79.8799 85.3086C80.2887 85.5664 80.6064 85.9284 80.833 86.3945C81.0622 86.8607 81.1768 87.4062 81.1768 88.0312C81.1768 88.651 81.0622 89.1927 80.833 89.6562C80.6064 90.1198 80.2887 90.4805 79.8799 90.7383C79.4736 90.9961 78.9997 91.125 78.458 91.125ZM78.458 90.2969C78.8695 90.2969 79.208 90.1914 79.4736 89.9805C79.7393 89.7695 79.9359 89.4922 80.0635 89.1484C80.1911 88.8047 80.2549 88.4323 80.2549 88.0312C80.2549 87.6302 80.1911 87.2565 80.0635 86.9102C79.9359 86.5638 79.7393 86.2839 79.4736 86.0703C79.208 85.8568 78.8695 85.75 78.458 85.75C78.0465 85.75 77.708 85.8568 77.4424 86.0703C77.1768 86.2839 76.9801 86.5638 76.8525 86.9102C76.7249 87.2565 76.6611 87.6302 76.6611 88.0312C76.6611 88.4323 76.7249 88.8047 76.8525 89.1484C76.9801 89.4922 77.1768 89.7695 77.4424 89.9805C77.708 90.1914 78.0465 90.2969 78.458 90.2969ZM85.1934 85V85.7812H82.084V85H85.1934ZM82.9902 83.5625H83.9121V89.2812C83.9121 89.5417 83.9499 89.737 84.0254 89.8672C84.1035 89.9948 84.2025 90.0807 84.3223 90.125C84.4447 90.1667 84.5736 90.1875 84.709 90.1875C84.8105 90.1875 84.8939 90.1823 84.959 90.1719C85.0241 90.1589 85.0762 90.1484 85.1152 90.1406L85.3027 90.9687C85.2402 90.9922 85.153 91.0156 85.041 91.0391C84.929 91.0651 84.7871 91.0781 84.6152 91.0781C84.3548 91.0781 84.0996 91.0221 83.8496 90.9102C83.6022 90.7982 83.3965 90.6276 83.2324 90.3984C83.071 90.1693 82.9902 89.8802 82.9902 89.5312V83.5625ZM89.0313 91.125C88.4531 91.125 87.9544 90.9974 87.5352 90.7422C87.1185 90.4844 86.7969 90.125 86.5703 89.6641C86.3464 89.2005 86.2344 88.6615 86.2344 88.0469C86.2344 87.4323 86.3464 86.8906 86.5703 86.4219C86.7969 85.9505 87.112 85.5833 87.5156 85.3203C87.9219 85.0547 88.3958 84.9219 88.9375 84.9219C89.25 84.9219 89.5586 84.974 89.8633 85.0781C90.168 85.1823 90.4453 85.3516 90.6953 85.5859C90.9453 85.8177 91.1445 86.125 91.293 86.5078C91.4414 86.8906 91.5156 87.362 91.5156 87.9219V88.3125H86.8906V87.5156H90.5781C90.5781 87.1771 90.5104 86.875 90.375 86.6094C90.2422 86.3437 90.0521 86.1341 89.8047 85.9805C89.5599 85.8268 89.2708 85.75 88.9375 85.75C88.5703 85.75 88.2526 85.8411 87.9844 86.0234C87.7188 86.2031 87.5143 86.4375 87.3711 86.7266C87.2279 87.0156 87.1563 87.3255 87.1563 87.6562V88.1875C87.1563 88.6406 87.2344 89.0247 87.3906 89.3398C87.5495 89.6523 87.7695 89.8906 88.0508 90.0547C88.332 90.2161 88.6589 90.2969 89.0313 90.2969C89.2734 90.2969 89.4922 90.263 89.6875 90.1953C89.8854 90.125 90.056 90.0208 90.1992 89.8828C90.3424 89.7422 90.4531 89.5677 90.5313 89.3594L91.4219 89.6094C91.3281 89.9115 91.1706 90.1771 90.9492 90.4062C90.7279 90.6328 90.4544 90.8099 90.1289 90.9375C89.8034 91.0625 89.4375 91.125 89.0313 91.125ZM96.1367 91V83H98.8398C99.4674 83 99.9805 83.1133 100.379 83.3398C100.78 83.5638 101.077 83.8672 101.27 84.25C101.462 84.6328 101.559 85.0599 101.559 85.5312C101.559 86.0026 101.462 86.431 101.27 86.8164C101.079 87.2018 100.785 87.5091 100.387 87.7383C99.9883 87.9648 99.4779 88.0781 98.8555 88.0781H96.918V87.2188H98.8242C99.2539 87.2188 99.599 87.1445 99.8594 86.9961C100.12 86.8477 100.309 86.6471 100.426 86.3945C100.546 86.1393 100.605 85.8516 100.605 85.5312C100.605 85.2109 100.546 84.9245 100.426 84.6719C100.309 84.4193 100.118 84.2214 99.8555 84.0781C99.5924 83.9323 99.2435 83.8594 98.8086 83.8594H97.1055V91H96.1367ZM104.76 91.1406C104.38 91.1406 104.035 91.069 103.725 90.9258C103.415 90.7799 103.169 90.5703 102.986 90.2969C102.804 90.0208 102.713 89.6875 102.713 89.2969C102.713 88.9531 102.781 88.6745 102.916 88.4609C103.051 88.2448 103.232 88.0755 103.459 87.9531C103.686 87.8307 103.936 87.7396 104.209 87.6797C104.485 87.6172 104.762 87.5677 105.041 87.5313C105.406 87.4844 105.701 87.4492 105.928 87.4258C106.157 87.3997 106.324 87.3568 106.428 87.2969C106.535 87.237 106.588 87.1328 106.588 86.9844V86.9531C106.588 86.5677 106.482 86.2682 106.271 86.0547C106.063 85.8411 105.747 85.7344 105.322 85.7344C104.882 85.7344 104.537 85.8307 104.287 86.0234C104.037 86.2161 103.861 86.4219 103.76 86.6406L102.885 86.3281C103.041 85.9635 103.249 85.6797 103.51 85.4766C103.773 85.2708 104.059 85.1276 104.369 85.0469C104.682 84.9635 104.989 84.9219 105.291 84.9219C105.484 84.9219 105.705 84.9453 105.955 84.9922C106.208 85.0365 106.451 85.1289 106.686 85.2695C106.923 85.4102 107.119 85.6224 107.275 85.9062C107.432 86.1901 107.51 86.5703 107.51 87.0469V91H106.588V90.1875H106.541C106.479 90.3177 106.374 90.457 106.229 90.6055C106.083 90.7539 105.889 90.8802 105.646 90.9844C105.404 91.0885 105.109 91.1406 104.76 91.1406ZM104.9 90.3125C105.265 90.3125 105.572 90.2409 105.822 90.0977C106.075 89.9544 106.265 89.7695 106.393 89.543C106.523 89.3164 106.588 89.0781 106.588 88.8281V87.9844C106.549 88.0312 106.463 88.0742 106.33 88.1133C106.2 88.1497 106.049 88.1823 105.877 88.2109C105.708 88.237 105.542 88.2604 105.381 88.2812C105.222 88.2995 105.093 88.3151 104.994 88.3281C104.755 88.3594 104.531 88.4102 104.322 88.4805C104.117 88.5482 103.95 88.651 103.822 88.7891C103.697 88.9245 103.635 89.1094 103.635 89.3437C103.635 89.6641 103.753 89.9062 103.99 90.0703C104.23 90.2318 104.533 90.3125 104.9 90.3125ZM111.802 85V85.7812H108.692V85H111.802ZM109.599 83.5625H110.521V89.2812C110.521 89.5417 110.558 89.737 110.634 89.8672C110.712 89.9948 110.811 90.0807 110.931 90.125C111.053 90.1667 111.182 90.1875 111.317 90.1875C111.419 90.1875 111.502 90.1823 111.567 90.1719C111.632 90.1589 111.685 90.1484 111.724 90.1406L111.911 90.9687C111.849 90.9922 111.761 91.0156 111.649 91.0391C111.537 91.0651 111.396 91.0781 111.224 91.0781C110.963 91.0781 110.708 91.0221 110.458 90.9102C110.211 90.7982 110.005 90.6276 109.841 90.3984C109.679 90.1693 109.599 89.8802 109.599 89.5312V83.5625ZM113.188 91V85H114.11V91H113.188ZM113.657 84C113.478 84 113.323 83.9388 113.192 83.8164C113.065 83.694 113.001 83.5469 113.001 83.375C113.001 83.2031 113.065 83.056 113.192 82.9336C113.323 82.8112 113.478 82.75 113.657 82.75C113.837 82.75 113.991 82.8112 114.118 82.9336C114.248 83.056 114.313 83.2031 114.313 83.375C114.313 83.5469 114.248 83.694 114.118 83.8164C113.991 83.9388 113.837 84 113.657 84ZM116.721 83V91H115.799V83H116.721ZM128.065 85.5H127.097C127.039 85.2214 126.939 84.9766 126.796 84.7656C126.655 84.5547 126.483 84.3776 126.28 84.2344C126.08 84.0885 125.857 83.9792 125.612 83.9062C125.368 83.8333 125.112 83.7969 124.847 83.7969C124.362 83.7969 123.924 83.9193 123.53 84.1641C123.14 84.4089 122.828 84.7695 122.597 85.2461C122.368 85.7227 122.253 86.3073 122.253 87C122.253 87.6927 122.368 88.2773 122.597 88.7539C122.828 89.2305 123.14 89.5911 123.53 89.8359C123.924 90.0807 124.362 90.2031 124.847 90.2031C125.112 90.2031 125.368 90.1667 125.612 90.0937C125.857 90.0208 126.08 89.9128 126.28 89.7695C126.483 89.6237 126.655 89.4453 126.796 89.2344C126.939 89.0208 127.039 88.776 127.097 88.5H128.065C127.993 88.9089 127.86 89.2747 127.667 89.5977C127.474 89.9206 127.235 90.1953 126.948 90.4219C126.662 90.6458 126.34 90.8164 125.983 90.9336C125.629 91.0508 125.25 91.1094 124.847 91.1094C124.164 91.1094 123.558 90.9427 123.026 90.6094C122.495 90.276 122.077 89.8021 121.772 89.1875C121.468 88.5729 121.315 87.8437 121.315 87C121.315 86.1562 121.468 85.4271 121.772 84.8125C122.077 84.1979 122.495 83.724 123.026 83.3906C123.558 83.0573 124.164 82.8906 124.847 82.8906C125.25 82.8906 125.629 82.9492 125.983 83.0664C126.34 83.1836 126.662 83.3555 126.948 83.582C127.235 83.806 127.474 84.0794 127.667 84.4023C127.86 84.7227 127.993 85.0885 128.065 85.5ZM131.943 91.125C131.402 91.125 130.926 90.9961 130.518 90.7383C130.111 90.4805 129.794 90.1198 129.564 89.6562C129.338 89.1927 129.225 88.651 129.225 88.0312C129.225 87.4062 129.338 86.8607 129.564 86.3945C129.794 85.9284 130.111 85.5664 130.518 85.3086C130.926 85.0508 131.402 84.9219 131.943 84.9219C132.485 84.9219 132.959 85.0508 133.365 85.3086C133.774 85.5664 134.092 85.9284 134.318 86.3945C134.548 86.8607 134.662 87.4062 134.662 88.0312C134.662 88.651 134.548 89.1927 134.318 89.6562C134.092 90.1198 133.774 90.4805 133.365 90.7383C132.959 90.9961 132.485 91.125 131.943 91.125ZM131.943 90.2969C132.355 90.2969 132.693 90.1914 132.959 89.9805C133.225 89.7695 133.421 89.4922 133.549 89.1484C133.676 88.8047 133.74 88.4323 133.74 88.0312C133.74 87.6302 133.676 87.2565 133.549 86.9102C133.421 86.5638 133.225 86.2839 132.959 86.0703C132.693 85.8568 132.355 85.75 131.943 85.75C131.532 85.75 131.193 85.8568 130.928 86.0703C130.662 86.2839 130.465 86.5638 130.338 86.9102C130.21 87.2565 130.146 87.6302 130.146 88.0312C130.146 88.4323 130.21 88.8047 130.338 89.1484C130.465 89.4922 130.662 89.7695 130.928 89.9805C131.193 90.1914 131.532 90.2969 131.943 90.2969ZM136.991 83V91H136.069V83H136.991ZM139.602 83V91H138.68V83H139.602ZM143.806 91.125C143.228 91.125 142.729 90.9974 142.31 90.7422C141.893 90.4844 141.571 90.125 141.345 89.6641C141.121 89.2005 141.009 88.6615 141.009 88.0469C141.009 87.4323 141.121 86.8906 141.345 86.4219C141.571 85.9505 141.886 85.5833 142.29 85.3203C142.696 85.0547 143.17 84.9219 143.712 84.9219C144.024 84.9219 144.333 84.974 144.638 85.0781C144.942 85.1823 145.22 85.3516 145.47 85.5859C145.72 85.8177 145.919 86.125 146.067 86.5078C146.216 86.8906 146.29 87.362 146.29 87.9219V88.3125H141.665V87.5156H145.353C145.353 87.1771 145.285 86.875 145.149 86.6094C145.017 86.3437 144.826 86.1341 144.579 85.9805C144.334 85.8268 144.045 85.75 143.712 85.75C143.345 85.75 143.027 85.8411 142.759 86.0234C142.493 86.2031 142.289 86.4375 142.146 86.7266C142.002 87.0156 141.931 87.3255 141.931 87.6562V88.1875C141.931 88.6406 142.009 89.0247 142.165 89.3398C142.324 89.6523 142.544 89.8906 142.825 90.0547C143.106 90.2161 143.433 90.2969 143.806 90.2969C144.048 90.2969 144.267 90.263 144.462 90.1953C144.66 90.125 144.83 90.0208 144.974 89.8828C145.117 89.7422 145.228 89.5677 145.306 89.3594L146.196 89.6094C146.103 89.9115 145.945 90.1771 145.724 90.4062C145.502 90.6328 145.229 90.8099 144.903 90.9375C144.578 91.0625 144.212 91.125 143.806 91.125ZM150.114 93.375C149.669 93.375 149.286 93.3177 148.966 93.2031C148.646 93.0911 148.379 92.9427 148.165 92.7578C147.954 92.5755 147.786 92.3802 147.661 92.1719L148.396 91.6563C148.479 91.7656 148.584 91.8906 148.712 92.0312C148.84 92.1745 149.014 92.2982 149.235 92.4023C149.459 92.5091 149.752 92.5625 150.114 92.5625C150.599 92.5625 150.998 92.4453 151.313 92.2109C151.629 91.9766 151.786 91.6094 151.786 91.1094V89.8906H151.708C151.64 90 151.544 90.1354 151.419 90.2969C151.297 90.4557 151.119 90.5977 150.888 90.7227C150.659 90.8451 150.349 90.9062 149.958 90.9062C149.474 90.9062 149.039 90.7917 148.653 90.5625C148.271 90.3333 147.967 90 147.743 89.5625C147.522 89.125 147.411 88.5937 147.411 87.9687C147.411 87.3542 147.519 86.819 147.735 86.3633C147.951 85.9049 148.252 85.5508 148.638 85.3008C149.023 85.0482 149.468 84.9219 149.974 84.9219C150.364 84.9219 150.674 84.987 150.903 85.1172C151.135 85.2448 151.312 85.3906 151.435 85.5547C151.56 85.7161 151.656 85.849 151.724 85.9531H151.817V85H152.708V91.1719C152.708 91.6875 152.591 92.1068 152.356 92.4297C152.125 92.7552 151.812 92.9935 151.419 93.1445C151.028 93.2982 150.593 93.375 150.114 93.375ZM150.083 90.0781C150.453 90.0781 150.765 89.9935 151.021 89.8242C151.276 89.6549 151.47 89.4115 151.603 89.0938C151.735 88.776 151.802 88.3958 151.802 87.9531C151.802 87.5208 151.737 87.1393 151.606 86.8086C151.476 86.4779 151.284 86.2187 151.028 86.0312C150.773 85.8437 150.458 85.75 150.083 85.75C149.692 85.75 149.367 85.849 149.106 86.0469C148.849 86.2448 148.655 86.5104 148.524 86.8438C148.397 87.1771 148.333 87.5469 148.333 87.9531C148.333 88.3698 148.398 88.7383 148.528 89.0586C148.661 89.3763 148.856 89.6263 149.114 89.8086C149.375 89.9883 149.698 90.0781 150.083 90.0781ZM156.911 91.125C156.333 91.125 155.834 90.9974 155.415 90.7422C154.998 90.4844 154.677 90.125 154.45 89.6641C154.226 89.2005 154.114 88.6615 154.114 88.0469C154.114 87.4323 154.226 86.8906 154.45 86.4219C154.677 85.9505 154.992 85.5833 155.396 85.3203C155.802 85.0547 156.276 84.9219 156.817 84.9219C157.13 84.9219 157.438 84.974 157.743 85.0781C158.048 85.1823 158.325 85.3516 158.575 85.5859C158.825 85.8177 159.024 86.125 159.173 86.5078C159.321 86.8906 159.396 87.362 159.396 87.9219V88.3125H154.771V87.5156H158.458C158.458 87.1771 158.39 86.875 158.255 86.6094C158.122 86.3437 157.932 86.1341 157.685 85.9805C157.44 85.8268 157.151 85.75 156.817 85.75C156.45 85.75 156.132 85.8411 155.864 86.0234C155.599 86.2031 155.394 86.4375 155.251 86.7266C155.108 87.0156 155.036 87.3255 155.036 87.6562V88.1875C155.036 88.6406 155.114 89.0247 155.271 89.3398C155.429 89.6523 155.649 89.8906 155.931 90.0547C156.212 90.2161 156.539 90.2969 156.911 90.2969C157.153 90.2969 157.372 90.263 157.567 90.1953C157.765 90.125 157.936 90.0208 158.079 89.8828C158.222 89.7422 158.333 89.5677 158.411 89.3594L159.302 89.6094C159.208 89.9115 159.05 90.1771 158.829 90.4062C158.608 90.6328 158.334 90.8099 158.009 90.9375C157.683 91.0625 157.317 91.125 156.911 91.125ZM166.329 91.125C165.787 91.125 165.312 90.9961 164.903 90.7383C164.497 90.4805 164.179 90.1198 163.95 89.6562C163.724 89.1927 163.61 88.651 163.61 88.0312C163.61 87.4062 163.724 86.8607 163.95 86.3945C164.179 85.9284 164.497 85.5664 164.903 85.3086C165.312 85.0508 165.787 84.9219 166.329 84.9219C166.871 84.9219 167.345 85.0508 167.751 85.3086C168.16 85.5664 168.478 85.9284 168.704 86.3945C168.933 86.8607 169.048 87.4062 169.048 88.0312C169.048 88.651 168.933 89.1927 168.704 89.6562C168.478 90.1198 168.16 90.4805 167.751 90.7383C167.345 90.9961 166.871 91.125 166.329 91.125ZM166.329 90.2969C166.741 90.2969 167.079 90.1914 167.345 89.9805C167.61 89.7695 167.807 89.4922 167.935 89.1484C168.062 88.8047 168.126 88.4323 168.126 88.0312C168.126 87.6302 168.062 87.2565 167.935 86.9102C167.807 86.5638 167.61 86.2839 167.345 86.0703C167.079 85.8568 166.741 85.75 166.329 85.75C165.918 85.75 165.579 85.8568 165.313 86.0703C165.048 86.2839 164.851 86.5638 164.724 86.9102C164.596 87.2565 164.532 87.6302 164.532 88.0312C164.532 88.4323 164.596 88.8047 164.724 89.1484C164.851 89.4922 165.048 89.7695 165.313 89.9805C165.579 90.1914 165.918 90.2969 166.329 90.2969ZM173.127 85V85.7812H169.893V85H173.127ZM170.861 91V84.1719C170.861 83.8281 170.942 83.5417 171.104 83.3125C171.265 83.0833 171.475 82.9115 171.732 82.7969C171.99 82.6823 172.262 82.625 172.549 82.625C172.775 82.625 172.96 82.6432 173.104 82.6797C173.247 82.7161 173.354 82.75 173.424 82.7812L173.158 83.5781C173.111 83.5625 173.046 83.543 172.963 83.5195C172.882 83.4961 172.775 83.4844 172.643 83.4844C172.338 83.4844 172.118 83.5612 171.982 83.7148C171.85 83.8685 171.783 84.0937 171.783 84.3906V91H170.861ZM177.638 91V83H182.466V83.8594H178.606V86.5625H182.216V87.4219H178.606V90.1406H182.528V91H177.638ZM185.009 87.3906V91H184.087V85H184.978V85.9375H185.056C185.196 85.6328 185.41 85.388 185.696 85.2031C185.983 85.0156 186.353 84.9219 186.806 84.9219C187.212 84.9219 187.567 85.0052 187.872 85.1719C188.177 85.3359 188.414 85.5859 188.583 85.9219C188.752 86.2552 188.837 86.6771 188.837 87.1875V91H187.915V87.25C187.915 86.7786 187.793 86.4115 187.548 86.1484C187.303 85.8828 186.967 85.75 186.54 85.75C186.246 85.75 185.983 85.8138 185.751 85.9414C185.522 86.069 185.341 86.2552 185.208 86.5C185.075 86.7448 185.009 87.0417 185.009 87.3906ZM192.943 93.375C192.498 93.375 192.115 93.3177 191.795 93.2031C191.475 93.0911 191.208 92.9427 190.994 92.7578C190.783 92.5755 190.615 92.3802 190.49 92.1719L191.225 91.6563C191.308 91.7656 191.413 91.8906 191.541 92.0312C191.669 92.1745 191.843 92.2982 192.064 92.4023C192.288 92.5091 192.581 92.5625 192.943 92.5625C193.428 92.5625 193.827 92.4453 194.143 92.2109C194.458 91.9766 194.615 91.6094 194.615 91.1094V89.8906H194.537C194.469 90 194.373 90.1354 194.248 90.2969C194.126 90.4557 193.949 90.5977 193.717 90.7227C193.488 90.8451 193.178 90.9062 192.787 90.9062C192.303 90.9062 191.868 90.7917 191.482 90.5625C191.1 90.3333 190.796 90 190.572 89.5625C190.351 89.125 190.24 88.5937 190.24 87.9687C190.24 87.3542 190.348 86.819 190.564 86.3633C190.781 85.9049 191.081 85.5508 191.467 85.3008C191.852 85.0482 192.298 84.9219 192.803 84.9219C193.193 84.9219 193.503 84.987 193.732 85.1172C193.964 85.2448 194.141 85.3906 194.264 85.5547C194.389 85.7161 194.485 85.849 194.553 85.9531H194.646V85H195.537V91.1719C195.537 91.6875 195.42 92.1068 195.186 92.4297C194.954 92.7552 194.641 92.9935 194.248 93.1445C193.857 93.2982 193.423 93.375 192.943 93.375ZM192.912 90.0781C193.282 90.0781 193.594 89.9935 193.85 89.8242C194.105 89.6549 194.299 89.4115 194.432 89.0938C194.564 88.776 194.631 88.3958 194.631 87.9531C194.631 87.5208 194.566 87.1393 194.436 86.8086C194.305 86.4779 194.113 86.2187 193.857 86.0312C193.602 85.8437 193.287 85.75 192.912 85.75C192.521 85.75 192.196 85.849 191.936 86.0469C191.678 86.2448 191.484 86.5104 191.354 86.8438C191.226 87.1771 191.162 87.5469 191.162 87.9531C191.162 88.3698 191.227 88.7383 191.357 89.0586C191.49 89.3763 191.686 89.6263 191.943 89.8086C192.204 89.9883 192.527 90.0781 192.912 90.0781ZM197.225 91V85H198.146V91H197.225ZM197.693 84C197.514 84 197.359 83.9388 197.229 83.8164C197.101 83.694 197.037 83.5469 197.037 83.375C197.037 83.2031 197.101 83.056 197.229 82.9336C197.359 82.8112 197.514 82.75 197.693 82.75C197.873 82.75 198.027 82.8112 198.154 82.9336C198.285 83.056 198.35 83.2031 198.35 83.375C198.35 83.5469 198.285 83.694 198.154 83.8164C198.027 83.9388 197.873 84 197.693 84ZM200.757 87.3906V91H199.835V85H200.726V85.9375H200.804C200.944 85.6328 201.158 85.388 201.444 85.2031C201.731 85.0156 202.101 84.9219 202.554 84.9219C202.96 84.9219 203.315 85.0052 203.62 85.1719C203.925 85.3359 204.162 85.5859 204.331 85.9219C204.5 86.2552 204.585 86.6771 204.585 87.1875V91H203.663V87.25C203.663 86.7786 203.541 86.4115 203.296 86.1484C203.051 85.8828 202.715 85.75 202.288 85.75C201.994 85.75 201.731 85.8138 201.499 85.9414C201.27 86.069 201.089 86.2552 200.956 86.5C200.823 86.7448 200.757 87.0417 200.757 87.3906ZM208.785 91.125C208.207 91.125 207.708 90.9974 207.289 90.7422C206.872 90.4844 206.551 90.125 206.324 89.6641C206.1 89.2005 205.988 88.6615 205.988 88.0469C205.988 87.4323 206.1 86.8906 206.324 86.4219C206.551 85.9505 206.866 85.5833 207.27 85.3203C207.676 85.0547 208.15 84.9219 208.691 84.9219C209.004 84.9219 209.313 84.974 209.617 85.0781C209.922 85.1823 210.199 85.3516 210.449 85.5859C210.699 85.8177 210.898 86.125 211.047 86.5078C211.195 86.8906 211.27 87.362 211.27 87.9219V88.3125H206.645V87.5156H210.332C210.332 87.1771 210.264 86.875 210.129 86.6094C209.996 86.3437 209.806 86.1341 209.559 85.9805C209.314 85.8268 209.025 85.75 208.691 85.75C208.324 85.75 208.007 85.8411 207.738 86.0234C207.473 86.2031 207.268 86.4375 207.125 86.7266C206.982 87.0156 206.91 87.3255 206.91 87.6562V88.1875C206.91 88.6406 206.988 89.0247 207.145 89.3398C207.303 89.6523 207.523 89.8906 207.805 90.0547C208.086 90.2161 208.413 90.2969 208.785 90.2969C209.027 90.2969 209.246 90.263 209.441 90.1953C209.639 90.125 209.81 90.0208 209.953 89.8828C210.096 89.7422 210.207 89.5677 210.285 89.3594L211.176 89.6094C211.082 89.9115 210.924 90.1771 210.703 90.4062C210.482 90.6328 210.208 90.8099 209.883 90.9375C209.557 91.0625 209.191 91.125 208.785 91.125ZM215.188 91.125C214.609 91.125 214.111 90.9974 213.691 90.7422C213.275 90.4844 212.953 90.125 212.727 89.6641C212.503 89.2005 212.391 88.6615 212.391 88.0469C212.391 87.4323 212.503 86.8906 212.727 86.4219C212.953 85.9505 213.268 85.5833 213.672 85.3203C214.078 85.0547 214.552 84.9219 215.094 84.9219C215.406 84.9219 215.715 84.974 216.02 85.0781C216.324 85.1823 216.602 85.3516 216.852 85.5859C217.102 85.8177 217.301 86.125 217.449 86.5078C217.598 86.8906 217.672 87.362 217.672 87.9219V88.3125H213.047V87.5156H216.734C216.734 87.1771 216.667 86.875 216.531 86.6094C216.398 86.3437 216.208 86.1341 215.961 85.9805C215.716 85.8268 215.427 85.75 215.094 85.75C214.727 85.75 214.409 85.8411 214.141 86.0234C213.875 86.2031 213.671 86.4375 213.527 86.7266C213.384 87.0156 213.313 87.3255 213.313 87.6562V88.1875C213.313 88.6406 213.391 89.0247 213.547 89.3398C213.706 89.6523 213.926 89.8906 214.207 90.0547C214.488 90.2161 214.815 90.2969 215.188 90.2969C215.43 90.2969 215.648 90.263 215.844 90.1953C216.042 90.125 216.212 90.0208 216.355 89.8828C216.499 89.7422 216.609 89.5677 216.688 89.3594L217.578 89.6094C217.484 89.9115 217.327 90.1771 217.105 90.4062C216.884 90.6328 216.611 90.8099 216.285 90.9375C215.96 91.0625 215.594 91.125 215.188 91.125ZM219.074 91V85H219.965V85.9062H220.027C220.137 85.6094 220.335 85.3685 220.621 85.1836C220.908 84.9987 221.23 84.9062 221.59 84.9062C221.658 84.9062 221.742 84.9076 221.844 84.9102C221.945 84.9128 222.022 84.9167 222.074 84.9219V85.8594C222.043 85.8516 221.971 85.8398 221.859 85.8242C221.75 85.806 221.634 85.7969 221.512 85.7969C221.22 85.7969 220.96 85.8581 220.73 85.9805C220.504 86.1003 220.324 86.2669 220.191 86.4805C220.061 86.6914 219.996 86.9323 219.996 87.2031V91H219.074ZM223.167 91V85H224.089V91H223.167ZM223.636 84C223.456 84 223.301 83.9388 223.171 83.8164C223.043 83.694 222.979 83.5469 222.979 83.375C222.979 83.2031 223.043 83.056 223.171 82.9336C223.301 82.8112 223.456 82.75 223.636 82.75C223.815 82.75 223.969 82.8112 224.097 82.9336C224.227 83.056 224.292 83.2031 224.292 83.375C224.292 83.5469 224.227 83.694 224.097 83.8164C223.969 83.9388 223.815 84 223.636 84ZM226.699 87.3906V91H225.777V85H226.668V85.9375H226.746C226.887 85.6328 227.1 85.388 227.387 85.2031C227.673 85.0156 228.043 84.9219 228.496 84.9219C228.902 84.9219 229.258 85.0052 229.563 85.1719C229.867 85.3359 230.104 85.5859 230.273 85.9219C230.443 86.2552 230.527 86.6771 230.527 87.1875V91H229.605V87.25C229.605 86.7786 229.483 86.4115 229.238 86.1484C228.993 85.8828 228.658 85.75 228.23 85.75C227.936 85.75 227.673 85.8138 227.441 85.9414C227.212 86.069 227.031 86.2552 226.898 86.5C226.766 86.7448 226.699 87.0417 226.699 87.3906ZM234.634 93.375C234.188 93.375 233.806 93.3177 233.485 93.2031C233.165 93.0911 232.898 92.9427 232.685 92.7578C232.474 92.5755 232.306 92.3802 232.181 92.1719L232.915 91.6563C232.998 91.7656 233.104 91.8906 233.231 92.0312C233.359 92.1745 233.534 92.2982 233.755 92.4023C233.979 92.5091 234.272 92.5625 234.634 92.5625C235.118 92.5625 235.518 92.4453 235.833 92.2109C236.148 91.9766 236.306 91.6094 236.306 91.1094V89.8906H236.228C236.16 90 236.063 90.1354 235.938 90.2969C235.816 90.4557 235.639 90.5977 235.407 90.7227C235.178 90.8451 234.868 90.9062 234.478 90.9062C233.993 90.9062 233.558 90.7917 233.173 90.5625C232.79 90.3333 232.487 90 232.263 89.5625C232.041 89.125 231.931 88.5937 231.931 87.9687C231.931 87.3542 232.039 86.819 232.255 86.3633C232.471 85.9049 232.772 85.5508 233.157 85.3008C233.543 85.0482 233.988 84.9219 234.493 84.9219C234.884 84.9219 235.194 84.987 235.423 85.1172C235.655 85.2448 235.832 85.3906 235.954 85.5547C236.079 85.7161 236.175 85.849 236.243 85.9531H236.337V85H237.228V91.1719C237.228 91.6875 237.11 92.1068 236.876 92.4297C236.644 92.7552 236.332 92.9935 235.938 93.1445C235.548 93.2982 235.113 93.375 234.634 93.375ZM234.603 90.0781C234.972 90.0781 235.285 89.9935 235.54 89.8242C235.795 89.6549 235.989 89.4115 236.122 89.0938C236.255 88.776 236.321 88.3958 236.321 87.9531C236.321 87.5208 236.256 87.1393 236.126 86.8086C235.996 86.4779 235.803 86.2187 235.548 86.0312C235.293 85.8437 234.978 85.75 234.603 85.75C234.212 85.75 233.886 85.849 233.626 86.0469C233.368 86.2448 233.174 86.5104 233.044 86.8438C232.916 87.1771 232.853 87.5469 232.853 87.9531C232.853 88.3698 232.918 88.7383 233.048 89.0586C233.181 89.3763 233.376 89.6263 233.634 89.8086C233.894 89.9883 234.217 90.0781 234.603 90.0781ZM243.774 91.1406C243.394 91.1406 243.049 91.069 242.739 90.9258C242.429 90.7799 242.183 90.5703 242.001 90.2969C241.819 90.0208 241.728 89.6875 241.728 89.2969C241.728 88.9531 241.795 88.6745 241.931 88.4609C242.066 88.2448 242.247 88.0755 242.474 87.9531C242.7 87.8307 242.95 87.7396 243.224 87.6797C243.5 87.6172 243.777 87.5677 244.056 87.5313C244.42 87.4844 244.716 87.4492 244.942 87.4258C245.172 87.3997 245.338 87.3568 245.442 87.2969C245.549 87.237 245.603 87.1328 245.603 86.9844V86.9531C245.603 86.5677 245.497 86.2682 245.286 86.0547C245.078 85.8411 244.761 85.7344 244.337 85.7344C243.897 85.7344 243.552 85.8307 243.302 86.0234C243.052 86.2161 242.876 86.4219 242.774 86.6406L241.899 86.3281C242.056 85.9635 242.264 85.6797 242.524 85.4766C242.787 85.2708 243.074 85.1276 243.384 85.0469C243.696 84.9635 244.004 84.9219 244.306 84.9219C244.498 84.9219 244.72 84.9453 244.97 84.9922C245.222 85.0365 245.466 85.1289 245.7 85.2695C245.937 85.4102 246.134 85.6224 246.29 85.9062C246.446 86.1901 246.524 86.5703 246.524 87.0469V91H245.603V90.1875H245.556C245.493 90.3177 245.389 90.457 245.243 90.6055C245.097 90.7539 244.903 90.8802 244.661 90.9844C244.419 91.0885 244.123 91.1406 243.774 91.1406ZM243.915 90.3125C244.28 90.3125 244.587 90.2409 244.837 90.0977C245.09 89.9544 245.28 89.7695 245.407 89.543C245.537 89.3164 245.603 89.0781 245.603 88.8281V87.9844C245.563 88.0312 245.478 88.0742 245.345 88.1133C245.215 88.1497 245.063 88.1823 244.892 88.2109C244.722 88.237 244.557 88.2604 244.396 88.2812C244.237 88.2995 244.108 88.3151 244.009 88.3281C243.769 88.3594 243.545 88.4102 243.337 88.4805C243.131 88.5482 242.965 88.651 242.837 88.7891C242.712 88.9245 242.649 89.1094 242.649 89.3437C242.649 89.6641 242.768 89.9062 243.005 90.0703C243.244 90.2318 243.548 90.3125 243.915 90.3125ZM249.129 87.3906V91H248.207V85H249.098V85.9375H249.176C249.316 85.6328 249.53 85.388 249.816 85.2031C250.103 85.0156 250.473 84.9219 250.926 84.9219C251.332 84.9219 251.688 85.0052 251.992 85.1719C252.297 85.3359 252.534 85.5859 252.703 85.9219C252.872 86.2552 252.957 86.6771 252.957 87.1875V91H252.035V87.25C252.035 86.7786 251.913 86.4115 251.668 86.1484C251.423 85.8828 251.087 85.75 250.66 85.75C250.366 85.75 250.103 85.8138 249.871 85.9414C249.642 86.069 249.461 86.2552 249.328 86.5C249.195 86.7448 249.129 87.0417 249.129 87.3906ZM256.907 91.125C256.407 91.125 255.966 90.9987 255.583 90.7461C255.2 90.4909 254.901 90.1315 254.685 89.668C254.468 89.2018 254.36 88.651 254.36 88.0156C254.36 87.3854 254.468 86.8385 254.685 86.375C254.901 85.9115 255.201 85.5534 255.587 85.3008C255.972 85.0482 256.418 84.9219 256.923 84.9219C257.313 84.9219 257.622 84.987 257.849 85.1172C258.078 85.2448 258.252 85.3906 258.372 85.5547C258.494 85.7161 258.59 85.849 258.657 85.9531H258.735V83H259.657V91H258.767V90.0781H258.657C258.59 90.1875 258.493 90.3255 258.368 90.4922C258.243 90.6562 258.065 90.8034 257.833 90.9336C257.601 91.0612 257.293 91.125 256.907 91.125ZM257.032 90.2969C257.402 90.2969 257.715 90.2005 257.97 90.0078C258.225 89.8125 258.419 89.543 258.552 89.1992C258.685 88.8529 258.751 88.4531 258.751 88C258.751 87.5521 258.686 87.1602 258.556 86.8242C258.425 86.4857 258.233 86.2227 257.978 86.0352C257.722 85.8451 257.407 85.75 257.032 85.75C256.642 85.75 256.316 85.8503 256.056 86.0508C255.798 86.2487 255.604 86.5182 255.474 86.8594C255.346 87.1979 255.282 87.5781 255.282 88C255.282 88.4271 255.347 88.8151 255.478 89.1641C255.61 89.5104 255.806 89.7865 256.063 89.9922C256.324 90.1953 256.647 90.2969 257.032 90.2969ZM92.4146 96H93.5708L96.2896 102.641H96.3833L99.1021 96H100.258V104H99.3521V97.9219H99.2739L96.7739 104H95.8989L93.3989 97.9219H93.3208V104H92.4146V96ZM103.841 104.141C103.461 104.141 103.116 104.069 102.806 103.926C102.496 103.78 102.25 103.57 102.068 103.297C101.886 103.021 101.794 102.687 101.794 102.297C101.794 101.953 101.862 101.674 101.998 101.461C102.133 101.245 102.314 101.076 102.541 100.953C102.767 100.831 103.017 100.74 103.291 100.68C103.567 100.617 103.844 100.568 104.123 100.531C104.487 100.484 104.783 100.449 105.009 100.426C105.238 100.4 105.405 100.357 105.509 100.297C105.616 100.237 105.669 100.133 105.669 99.9844V99.9531C105.669 99.5677 105.564 99.2682 105.353 99.0547C105.145 98.8411 104.828 98.7344 104.404 98.7344C103.964 98.7344 103.619 98.8307 103.369 99.0234C103.119 99.2161 102.943 99.4219 102.841 99.6406L101.966 99.3281C102.123 98.9635 102.331 98.6797 102.591 98.4766C102.854 98.2708 103.141 98.1276 103.451 98.0469C103.763 97.9635 104.07 97.9219 104.373 97.9219C104.565 97.9219 104.787 97.9453 105.037 97.9922C105.289 98.0365 105.533 98.1289 105.767 98.2695C106.004 98.4102 106.201 98.6224 106.357 98.9062C106.513 99.1901 106.591 99.5703 106.591 100.047V104H105.669V103.187H105.623C105.56 103.318 105.456 103.457 105.31 103.605C105.164 103.754 104.97 103.88 104.728 103.984C104.486 104.089 104.19 104.141 103.841 104.141ZM103.982 103.312C104.347 103.312 104.654 103.241 104.904 103.098C105.156 102.954 105.347 102.77 105.474 102.543C105.604 102.316 105.669 102.078 105.669 101.828V100.984C105.63 101.031 105.544 101.074 105.412 101.113C105.281 101.15 105.13 101.182 104.958 101.211C104.789 101.237 104.624 101.26 104.462 101.281C104.304 101.299 104.175 101.315 104.076 101.328C103.836 101.359 103.612 101.41 103.404 101.48C103.198 101.548 103.031 101.651 102.904 101.789C102.779 101.924 102.716 102.109 102.716 102.344C102.716 102.664 102.835 102.906 103.072 103.07C103.311 103.232 103.615 103.312 103.982 103.312ZM109.196 100.391V104H108.274V98H109.165V98.9375H109.243C109.383 98.6328 109.597 98.388 109.883 98.2031C110.17 98.0156 110.54 97.9219 110.993 97.9219C111.399 97.9219 111.754 98.0052 112.059 98.1719C112.364 98.3359 112.601 98.5859 112.77 98.9219C112.939 99.2552 113.024 99.6771 113.024 100.188V104H112.102V100.25C112.102 99.7786 111.98 99.4115 111.735 99.1484C111.49 98.8828 111.154 98.75 110.727 98.75C110.433 98.75 110.17 98.8138 109.938 98.9414C109.709 99.069 109.528 99.2552 109.395 99.5C109.262 99.7448 109.196 100.042 109.196 100.391ZM116.474 104.141C116.094 104.141 115.749 104.069 115.439 103.926C115.129 103.78 114.883 103.57 114.701 103.297C114.518 103.021 114.427 102.687 114.427 102.297C114.427 101.953 114.495 101.674 114.63 101.461C114.766 101.245 114.947 101.076 115.173 100.953C115.4 100.831 115.65 100.74 115.923 100.68C116.199 100.617 116.477 100.568 116.755 100.531C117.12 100.484 117.416 100.449 117.642 100.426C117.871 100.4 118.038 100.357 118.142 100.297C118.249 100.237 118.302 100.133 118.302 99.9844V99.9531C118.302 99.5677 118.197 99.2682 117.986 99.0547C117.778 98.8411 117.461 98.7344 117.037 98.7344C116.597 98.7344 116.251 98.8307 116.001 99.0234C115.751 99.2161 115.576 99.4219 115.474 99.6406L114.599 99.3281C114.755 98.9635 114.964 98.6797 115.224 98.4766C115.487 98.2708 115.774 98.1276 116.083 98.0469C116.396 97.9635 116.703 97.9219 117.005 97.9219C117.198 97.9219 117.419 97.9453 117.669 97.9922C117.922 98.0365 118.166 98.1289 118.4 98.2695C118.637 98.4102 118.833 98.6224 118.99 98.9062C119.146 99.1901 119.224 99.5703 119.224 100.047V104H118.302V103.187H118.255C118.193 103.318 118.089 103.457 117.943 103.605C117.797 103.754 117.603 103.88 117.361 103.984C117.119 104.089 116.823 104.141 116.474 104.141ZM116.615 103.312C116.979 103.312 117.287 103.241 117.537 103.098C117.789 102.954 117.979 102.77 118.107 102.543C118.237 102.316 118.302 102.078 118.302 101.828V100.984C118.263 101.031 118.177 101.074 118.044 101.113C117.914 101.15 117.763 101.182 117.591 101.211C117.422 101.237 117.257 101.26 117.095 101.281C116.936 101.299 116.807 101.315 116.708 101.328C116.469 101.359 116.245 101.41 116.037 101.48C115.831 101.548 115.664 101.651 115.537 101.789C115.412 101.924 115.349 102.109 115.349 102.344C115.349 102.664 115.468 102.906 115.705 103.07C115.944 103.232 116.248 103.312 116.615 103.312ZM123.329 106.375C122.883 106.375 122.5 106.318 122.18 106.203C121.86 106.091 121.593 105.943 121.379 105.758C121.168 105.576 121 105.38 120.875 105.172L121.61 104.656C121.693 104.766 121.799 104.891 121.926 105.031C122.054 105.174 122.228 105.298 122.45 105.402C122.674 105.509 122.967 105.562 123.329 105.562C123.813 105.562 124.213 105.445 124.528 105.211C124.843 104.977 125 104.609 125 104.109V102.891H124.922C124.855 103 124.758 103.135 124.633 103.297C124.511 103.456 124.334 103.598 124.102 103.723C123.873 103.845 123.563 103.906 123.172 103.906C122.688 103.906 122.253 103.792 121.868 103.563C121.485 103.333 121.181 103 120.958 102.562C120.736 102.125 120.625 101.594 120.625 100.969C120.625 100.354 120.734 99.819 120.95 99.3633C121.166 98.9049 121.467 98.5508 121.852 98.3008C122.237 98.0482 122.683 97.9219 123.188 97.9219C123.579 97.9219 123.889 97.987 124.118 98.1172C124.349 98.2448 124.527 98.3906 124.649 98.5547C124.774 98.7161 124.87 98.849 124.938 98.9531H125.032V98H125.922V104.172C125.922 104.688 125.805 105.107 125.571 105.43C125.339 105.755 125.027 105.993 124.633 106.145C124.243 106.298 123.808 106.375 123.329 106.375ZM123.297 103.078C123.667 103.078 123.98 102.993 124.235 102.824C124.49 102.655 124.684 102.411 124.817 102.094C124.95 101.776 125.016 101.396 125.016 100.953C125.016 100.521 124.951 100.139 124.821 99.8086C124.691 99.4779 124.498 99.2187 124.243 99.0312C123.987 98.8437 123.672 98.75 123.297 98.75C122.907 98.75 122.581 98.849 122.321 99.0469C122.063 99.2448 121.869 99.5104 121.739 99.8438C121.611 100.177 121.547 100.547 121.547 100.953C121.547 101.37 121.612 101.738 121.743 102.059C121.875 102.376 122.071 102.626 122.329 102.809C122.589 102.988 122.912 103.078 123.297 103.078ZM130.125 104.125C129.547 104.125 129.049 103.997 128.629 103.742C128.213 103.484 127.891 103.125 127.665 102.664C127.441 102.201 127.329 101.661 127.329 101.047C127.329 100.432 127.441 99.8906 127.665 99.4219C127.891 98.9505 128.206 98.5833 128.61 98.3203C129.016 98.0547 129.49 97.9219 130.032 97.9219C130.344 97.9219 130.653 97.974 130.958 98.0781C131.262 98.1823 131.54 98.3516 131.79 98.5859C132.04 98.8177 132.239 99.125 132.387 99.5078C132.536 99.8906 132.61 100.362 132.61 100.922V101.312H127.985V100.516H131.672C131.672 100.177 131.605 99.875 131.469 99.6094C131.336 99.3437 131.146 99.1341 130.899 98.9805C130.654 98.8268 130.365 98.75 130.032 98.75C129.665 98.75 129.347 98.8411 129.079 99.0234C128.813 99.2031 128.609 99.4375 128.465 99.7266C128.322 100.016 128.25 100.326 128.25 100.656V101.188C128.25 101.641 128.329 102.025 128.485 102.34C128.644 102.652 128.864 102.891 129.145 103.055C129.426 103.216 129.753 103.297 130.125 103.297C130.368 103.297 130.586 103.263 130.782 103.195C130.98 103.125 131.15 103.021 131.293 102.883C131.437 102.742 131.547 102.568 131.625 102.359L132.516 102.609C132.422 102.911 132.265 103.177 132.043 103.406C131.822 103.633 131.549 103.81 131.223 103.937C130.898 104.063 130.532 104.125 130.125 104.125ZM134.012 104V98H134.903V98.9375H134.981C135.106 98.6172 135.308 98.3685 135.586 98.1914C135.865 98.0117 136.2 97.9219 136.59 97.9219C136.986 97.9219 137.316 98.0117 137.579 98.1914C137.844 98.3685 138.051 98.6172 138.2 98.9375H138.262C138.416 98.6276 138.646 98.3815 138.954 98.1992C139.261 98.0143 139.629 97.9219 140.059 97.9219C140.596 97.9219 141.034 98.0898 141.375 98.4258C141.717 98.7591 141.887 99.2786 141.887 99.9844V104H140.965V99.9844C140.965 99.5417 140.844 99.2253 140.602 99.0352C140.36 98.8451 140.075 98.75 139.747 98.75C139.325 98.75 138.998 98.8776 138.766 99.1328C138.534 99.3854 138.418 99.7057 138.418 100.094V104H137.481V99.8906C137.481 99.5495 137.37 99.2747 137.149 99.0664C136.928 98.8555 136.642 98.75 136.293 98.75C136.054 98.75 135.83 98.8138 135.622 98.9414C135.416 99.069 135.249 99.2461 135.122 99.4727C134.997 99.6966 134.934 99.9557 134.934 100.25V104H134.012ZM146.088 104.125C145.51 104.125 145.012 103.997 144.592 103.742C144.176 103.484 143.854 103.125 143.627 102.664C143.403 102.201 143.292 101.661 143.292 101.047C143.292 100.432 143.403 99.8906 143.627 99.4219C143.854 98.9505 144.169 98.5833 144.573 98.3203C144.979 98.0547 145.453 97.9219 145.995 97.9219C146.307 97.9219 146.616 97.974 146.92 98.0781C147.225 98.1823 147.502 98.3516 147.752 98.5859C148.002 98.8177 148.202 99.125 148.35 99.5078C148.499 99.8906 148.573 100.362 148.573 100.922V101.312H143.948V100.516H147.635C147.635 100.177 147.568 99.875 147.432 99.6094C147.299 99.3437 147.109 99.1341 146.862 98.9805C146.617 98.8268 146.328 98.75 145.995 98.75C145.627 98.75 145.31 98.8411 145.042 99.0234C144.776 99.2031 144.571 99.4375 144.428 99.7266C144.285 100.016 144.213 100.326 144.213 100.656V101.188C144.213 101.641 144.292 102.025 144.448 102.34C144.607 102.652 144.827 102.891 145.108 103.055C145.389 103.216 145.716 103.297 146.088 103.297C146.331 103.297 146.549 103.263 146.745 103.195C146.943 103.125 147.113 103.021 147.256 102.883C147.4 102.742 147.51 102.568 147.588 102.359L148.479 102.609C148.385 102.911 148.228 103.177 148.006 103.406C147.785 103.633 147.512 103.81 147.186 103.937C146.861 104.063 146.495 104.125 146.088 104.125ZM150.897 100.391V104H149.975V98H150.866V98.9375H150.944C151.084 98.6328 151.298 98.388 151.584 98.2031C151.871 98.0156 152.241 97.9219 152.694 97.9219C153.1 97.9219 153.456 98.0052 153.76 98.1719C154.065 98.3359 154.302 98.5859 154.471 98.9219C154.64 99.2552 154.725 99.6771 154.725 100.188V104H153.803V100.25C153.803 99.7786 153.681 99.4115 153.436 99.1484C153.191 98.8828 152.855 98.75 152.428 98.75C152.134 98.75 151.871 98.8138 151.639 98.9414C151.41 99.069 151.229 99.2552 151.096 99.5C150.963 99.7448 150.897 100.042 150.897 100.391ZM159.019 98V98.7812H155.91V98H159.019ZM156.816 96.5625H157.738V102.281C157.738 102.542 157.776 102.737 157.851 102.867C157.929 102.995 158.028 103.081 158.148 103.125C158.27 103.167 158.399 103.187 158.535 103.187C158.636 103.187 158.72 103.182 158.785 103.172C158.85 103.159 158.902 103.148 158.941 103.141L159.128 103.969C159.066 103.992 158.979 104.016 158.867 104.039C158.755 104.065 158.613 104.078 158.441 104.078C158.181 104.078 157.925 104.022 157.675 103.91C157.428 103.798 157.222 103.628 157.058 103.398C156.897 103.169 156.816 102.88 156.816 102.531V96.5625ZM161.781 102.906L161.718 103.328C161.674 103.625 161.606 103.943 161.515 104.281C161.427 104.62 161.334 104.939 161.238 105.238C161.141 105.538 161.062 105.776 161 105.953H160.296C160.33 105.786 160.375 105.566 160.429 105.293C160.484 105.02 160.539 104.714 160.593 104.375C160.651 104.039 160.697 103.695 160.734 103.344L160.781 102.906H161.781ZM167.036 104H166.02L168.958 96H169.958L172.895 104H171.879L169.489 97.2656H169.426L167.036 104ZM167.411 100.875H171.504V101.734H167.411V100.875ZM174.016 104V98H174.907V98.9375H174.985C175.11 98.6172 175.312 98.3685 175.59 98.1914C175.869 98.0117 176.204 97.9219 176.594 97.9219C176.99 97.9219 177.319 98.0117 177.583 98.1914C177.848 98.3685 178.055 98.6172 178.204 98.9375H178.266C178.42 98.6276 178.65 98.3815 178.958 98.1992C179.265 98.0143 179.633 97.9219 180.063 97.9219C180.599 97.9219 181.038 98.0898 181.379 98.4258C181.721 98.7591 181.891 99.2786 181.891 99.9844V104H180.969V99.9844C180.969 99.5417 180.848 99.2253 180.606 99.0352C180.364 98.8451 180.079 98.75 179.75 98.75C179.329 98.75 179.002 98.8776 178.77 99.1328C178.538 99.3854 178.422 99.7057 178.422 100.094V104H177.485V99.8906C177.485 99.5495 177.374 99.2747 177.153 99.0664C176.931 98.8555 176.646 98.75 176.297 98.75C176.058 98.75 175.834 98.8138 175.625 98.9414C175.42 99.069 175.253 99.2461 175.125 99.4727C175 99.6966 174.938 99.9557 174.938 100.25V104H174.016ZM183.577 104V98H184.467V98.9062H184.53C184.639 98.6094 184.837 98.3685 185.124 98.1836C185.41 97.9987 185.733 97.9062 186.092 97.9062C186.16 97.9062 186.245 97.9076 186.346 97.9102C186.448 97.9128 186.525 97.9167 186.577 97.9219V98.8594C186.545 98.8516 186.474 98.8398 186.362 98.8242C186.252 98.806 186.137 98.7969 186.014 98.7969C185.722 98.7969 185.462 98.8581 185.233 98.9805C185.006 99.1003 184.827 99.2669 184.694 99.4805C184.564 99.6914 184.499 99.9323 184.499 100.203V104H183.577ZM189.435 104.141C189.055 104.141 188.71 104.069 188.4 103.926C188.09 103.78 187.844 103.57 187.662 103.297C187.479 103.021 187.388 102.687 187.388 102.297C187.388 101.953 187.456 101.674 187.591 101.461C187.727 101.245 187.908 101.076 188.134 100.953C188.361 100.831 188.611 100.74 188.884 100.68C189.16 100.617 189.438 100.568 189.716 100.531C190.081 100.484 190.376 100.449 190.603 100.426C190.832 100.4 190.999 100.357 191.103 100.297C191.21 100.237 191.263 100.133 191.263 99.9844V99.9531C191.263 99.5677 191.158 99.2682 190.947 99.0547C190.738 98.8411 190.422 98.7344 189.998 98.7344C189.557 98.7344 189.212 98.8307 188.962 99.0234C188.712 99.2161 188.537 99.4219 188.435 99.6406L187.56 99.3281C187.716 98.9635 187.925 98.6797 188.185 98.4766C188.448 98.2708 188.735 98.1276 189.044 98.0469C189.357 97.9635 189.664 97.9219 189.966 97.9219C190.159 97.9219 190.38 97.9453 190.63 97.9922C190.883 98.0365 191.126 98.1289 191.361 98.2695C191.598 98.4102 191.794 98.6224 191.951 98.9062C192.107 99.1901 192.185 99.5703 192.185 100.047V104H191.263V103.187H191.216C191.154 103.318 191.05 103.457 190.904 103.605C190.758 103.754 190.564 103.88 190.322 103.984C190.08 104.089 189.784 104.141 189.435 104.141ZM189.576 103.312C189.94 103.312 190.248 103.241 190.498 103.098C190.75 102.954 190.94 102.77 191.068 102.543C191.198 102.316 191.263 102.078 191.263 101.828V100.984C191.224 101.031 191.138 101.074 191.005 101.113C190.875 101.15 190.724 101.182 190.552 101.211C190.383 101.237 190.218 101.26 190.056 101.281C189.897 101.299 189.768 101.315 189.669 101.328C189.43 101.359 189.206 101.41 188.998 101.48C188.792 101.548 188.625 101.651 188.498 101.789C188.373 101.924 188.31 102.109 188.31 102.344C188.31 102.664 188.429 102.906 188.666 103.07C188.905 103.232 189.208 103.312 189.576 103.312ZM198.559 98L196.34 104H195.403L193.184 98H194.184L195.84 102.781H195.903L197.559 98H198.559ZM201.359 104.141C200.979 104.141 200.634 104.069 200.324 103.926C200.014 103.78 199.768 103.57 199.585 103.297C199.403 103.021 199.312 102.687 199.312 102.297C199.312 101.953 199.38 101.674 199.515 101.461C199.651 101.245 199.832 101.076 200.058 100.953C200.285 100.831 200.535 100.74 200.808 100.68C201.084 100.617 201.361 100.568 201.64 100.531C202.005 100.484 202.3 100.449 202.527 100.426C202.756 100.4 202.923 100.357 203.027 100.297C203.134 100.237 203.187 100.133 203.187 99.9844V99.9531C203.187 99.5677 203.082 99.2682 202.871 99.0547C202.662 98.8411 202.346 98.7344 201.921 98.7344C201.481 98.7344 201.136 98.8307 200.886 99.0234C200.636 99.2161 200.46 99.4219 200.359 99.6406L199.484 99.3281C199.64 98.9635 199.848 98.6797 200.109 98.4766C200.372 98.2708 200.658 98.1276 200.968 98.0469C201.281 97.9635 201.588 97.9219 201.89 97.9219C202.083 97.9219 202.304 97.9453 202.554 97.9922C202.807 98.0365 203.05 98.1289 203.285 98.2695C203.522 98.4102 203.718 98.6224 203.875 98.9062C204.031 99.1901 204.109 99.5703 204.109 100.047V104H203.187V103.187H203.14C203.078 103.318 202.973 103.457 202.828 103.605C202.682 103.754 202.488 103.88 202.246 103.984C202.003 104.089 201.708 104.141 201.359 104.141ZM201.5 103.312C201.864 103.312 202.171 103.241 202.421 103.098C202.674 102.954 202.864 102.77 202.992 102.543C203.122 102.316 203.187 102.078 203.187 101.828V100.984C203.148 101.031 203.062 101.074 202.929 101.113C202.799 101.15 202.648 101.182 202.476 101.211C202.307 101.237 202.141 101.26 201.98 101.281C201.821 101.299 201.692 101.315 201.593 101.328C201.354 101.359 201.13 101.41 200.921 101.48C200.716 101.548 200.549 101.651 200.421 101.789C200.296 101.924 200.234 102.109 200.234 102.344C200.234 102.664 200.352 102.906 200.589 103.07C200.829 103.232 201.132 103.312 201.5 103.312ZM208.401 98V98.7812H205.292V98H208.401ZM206.198 96.5625H207.12V102.281C207.12 102.542 207.157 102.737 207.233 102.867C207.311 102.995 207.41 103.081 207.53 103.125C207.652 103.167 207.781 103.187 207.917 103.187C208.018 103.187 208.101 103.182 208.167 103.172C208.232 103.159 208.284 103.148 208.323 103.141L208.51 103.969C208.448 103.992 208.361 104.016 208.249 104.039C208.137 104.065 207.995 104.078 207.823 104.078C207.562 104.078 207.307 104.022 207.057 103.91C206.81 103.798 206.604 103.628 206.44 103.398C206.278 103.169 206.198 102.88 206.198 102.531V96.5625ZM209.788 104V98H210.709V104H209.788ZM210.256 97C210.077 97 209.922 96.9388 209.792 96.8164C209.664 96.694 209.6 96.5469 209.6 96.375C209.6 96.2031 209.664 96.056 209.792 95.9336C209.922 95.8112 210.077 95.75 210.256 95.75C210.436 95.75 210.59 95.8112 210.717 95.9336C210.847 96.056 210.913 96.2031 210.913 96.375C210.913 96.5469 210.847 96.694 210.717 96.8164C210.59 96.9388 210.436 97 210.256 97Z" fill="white"/>
</svg>
