<svg width="304" height="120" viewBox="0 0 304 120" fill="none" xmlns="http://www.w3.org/2000/svg">
<rect width="304" height="120" rx="6" fill="#313235"/>
<path d="M23.0871 75.1405C21.9783 75.1405 20.9564 74.8742 20.0216 74.3415C19.0867 73.8089 18.342 73.0805 17.7876 72.1565C17.2441 71.2217 16.9723 70.1835 16.9723 69.0421C16.9723 67.9007 17.2441 66.8679 17.7876 65.9439C18.342 65.0091 19.0867 64.2753 20.0216 63.7426C20.9564 63.21 21.9783 62.9436 23.0871 62.9436C23.9676 62.9436 24.7884 63.1012 25.5493 63.4165C26.3102 63.7317 26.9462 64.172 27.4571 64.7373L26.1852 66.0092C25.8048 65.5852 25.3482 65.2591 24.8155 65.0308C24.2937 64.8025 23.7122 64.6884 23.0708 64.6884C22.3207 64.6884 21.6195 64.8677 20.9673 65.2265C20.3151 65.5852 19.7933 66.0961 19.4019 66.7592C19.0106 67.4223 18.8149 68.1833 18.8149 69.0421C18.8149 69.9009 19.0106 70.6618 19.4019 71.3249C19.7933 71.988 20.3151 72.499 20.9673 72.8577C21.6195 73.2164 22.3261 73.3958 23.0871 73.3958C23.7828 73.3958 24.3644 73.2925 24.8318 73.086C25.2993 72.8794 25.7178 72.6022 26.0874 72.2544C26.3266 72.0152 26.5277 71.7163 26.6907 71.3575C26.8647 70.9988 26.9788 70.6075 27.0332 70.1835H23.0708V68.5529H28.7616C28.8159 68.8573 28.8431 69.1725 28.8431 69.4986C28.8431 70.2379 28.729 70.9499 28.5007 71.6347C28.2724 72.3087 27.9082 72.8957 27.4082 73.3958C26.3102 74.559 24.8699 75.1405 23.0871 75.1405ZM34.4753 75.1405C33.6383 75.1405 32.8882 74.9503 32.2251 74.5698C31.562 74.1785 31.0456 73.6458 30.676 72.9718C30.3064 72.2979 30.1216 71.5478 30.1216 70.7216C30.1216 69.8954 30.3064 69.1454 30.676 68.4714C31.0456 67.7974 31.562 67.2702 32.2251 66.8897C32.8882 66.4983 33.6383 66.3027 34.4753 66.3027C35.3124 66.3027 36.0624 66.4983 36.7256 66.8897C37.3887 67.281 37.905 67.8137 38.2746 68.4877C38.6442 69.1617 38.829 69.9063 38.829 70.7216C38.829 71.5478 38.6442 72.2979 38.2746 72.9718C37.905 73.6458 37.3887 74.1785 36.7256 74.5698C36.0624 74.9503 35.3124 75.1405 34.4753 75.1405ZM34.4753 73.4936C34.9319 73.4936 35.3559 73.3849 35.7472 73.1675C36.1385 72.9392 36.4484 72.6185 36.6766 72.2054C36.9158 71.7815 37.0354 71.2869 37.0354 70.7216C37.0354 70.1563 36.9158 69.6671 36.6766 69.2541C36.4484 68.841 36.1385 68.5257 35.7472 68.3083C35.3559 68.08 34.9319 67.9659 34.4753 67.9659C34.0188 67.9659 33.5948 68.08 33.2035 68.3083C32.8121 68.5257 32.4969 68.841 32.2577 69.2541C32.0294 69.6671 31.9153 70.1563 31.9153 70.7216C31.9153 71.2869 32.0294 71.7815 32.2577 72.2054C32.4969 72.6185 32.8121 72.9392 33.2035 73.1675C33.5948 73.3849 34.0188 73.4936 34.4753 73.4936ZM44.38 75.1405C43.5429 75.1405 42.7928 74.9503 42.1297 74.5698C41.4666 74.1785 40.9503 73.6458 40.5807 72.9718C40.2111 72.2979 40.0263 71.5478 40.0263 70.7216C40.0263 69.8954 40.2111 69.1454 40.5807 68.4714C40.9503 67.7974 41.4666 67.2702 42.1297 66.8897C42.7928 66.4983 43.5429 66.3027 44.38 66.3027C45.217 66.3027 45.9671 66.4983 46.6302 66.8897C47.2933 67.281 47.8097 67.8137 48.1793 68.4877C48.5489 69.1617 48.7337 69.9063 48.7337 70.7216C48.7337 71.5478 48.5489 72.2979 48.1793 72.9718C47.8097 73.6458 47.2933 74.1785 46.6302 74.5698C45.9671 74.9503 45.217 75.1405 44.38 75.1405ZM44.38 73.4936C44.8365 73.4936 45.2605 73.3849 45.6518 73.1675C46.0432 72.9392 46.353 72.6185 46.5813 72.2054C46.8204 71.7815 46.94 71.2869 46.94 70.7216C46.94 70.1563 46.8204 69.6671 46.5813 69.2541C46.353 68.841 46.0432 68.5257 45.6518 68.3083C45.2605 68.08 44.8365 67.9659 44.38 67.9659C43.9234 67.9659 43.4994 68.08 43.1081 68.3083C42.7167 68.5257 42.4015 68.841 42.1623 69.2541C41.9341 69.6671 41.8199 70.1563 41.8199 70.7216C41.8199 71.2869 41.9341 71.7815 42.1623 72.2054C42.4015 72.6185 42.7167 72.9392 43.1081 73.1675C43.4994 73.3849 43.9234 73.4936 44.38 73.4936ZM54.1378 78.6626C53.116 78.6626 52.2681 78.4289 51.5941 77.9615C50.931 77.494 50.4853 76.9396 50.257 76.2983L51.9365 75.5971C52.1105 76.0319 52.3877 76.3798 52.7681 76.6407C53.1595 76.9125 53.6161 77.0483 54.1378 77.0483C54.8988 77.0483 55.4912 76.8201 55.9152 76.3635C56.35 75.9178 56.5674 75.2873 56.5674 74.472V73.7056H56.4696C56.1978 74.0969 55.8337 74.4068 55.3771 74.635C54.9314 74.8525 54.4151 74.9612 53.828 74.9612C53.1323 74.9612 52.4855 74.7818 51.8876 74.4231C51.2897 74.0643 50.8114 73.5589 50.4527 72.9066C50.1048 72.2435 49.9309 71.488 49.9309 70.6401C49.9309 69.7922 50.1048 69.0421 50.4527 68.3898C50.8114 67.7267 51.2897 67.2158 51.8876 66.8571C52.4855 66.4875 53.1323 66.3027 53.828 66.3027C54.4042 66.3027 54.9205 66.4168 55.3771 66.6451C55.8337 66.8734 56.1978 67.1832 56.4696 67.5745H56.5674V66.5636H58.2796V74.4231C58.2796 75.3253 58.1057 76.0917 57.7578 76.7222C57.4099 77.3636 56.9207 77.8473 56.2902 78.1735C55.6706 78.4996 54.9532 78.6626 54.1378 78.6626ZM54.1542 73.3306C54.589 73.3306 54.9912 73.2273 55.3608 73.0208C55.7304 72.8033 56.0239 72.4935 56.2413 72.0913C56.4587 71.6782 56.5674 71.1945 56.5674 70.6401C56.5674 69.7922 56.3337 69.1345 55.8663 68.667C55.4097 68.1887 54.839 67.9496 54.1542 67.9496C53.7085 67.9496 53.3008 68.0583 52.9312 68.2757C52.5616 68.4822 52.2681 68.7866 52.0507 69.1888C51.8333 69.591 51.7246 70.0748 51.7246 70.6401C51.7246 71.2053 51.8333 71.6891 52.0507 72.0913C52.2681 72.4935 52.5616 72.8033 52.9312 73.0208C53.3008 73.2273 53.7085 73.3306 54.1542 73.3306ZM60.3876 63.2045H62.1813V74.8796H60.3876V63.2045ZM68.0087 75.1405C67.1934 75.1405 66.4596 74.9503 65.8074 74.5698C65.166 74.1894 64.6605 73.6676 64.2909 73.0044C63.9322 72.3305 63.7528 71.5749 63.7528 70.7379C63.7528 69.9443 63.9267 69.2106 64.2746 68.5366C64.6333 67.8517 65.1279 67.3082 65.7584 66.906C66.3889 66.5038 67.1064 66.3027 67.9108 66.3027C68.7479 66.3027 69.4708 66.4875 70.0795 66.8571C70.6992 67.2267 71.1666 67.7322 71.4819 68.3735C71.808 69.0149 71.971 69.7378 71.971 70.5422C71.971 70.6944 71.9547 70.8847 71.9221 71.1129H65.5465C65.6117 71.8848 65.8835 72.4827 66.3618 72.9066C66.8509 73.3197 67.4162 73.5262 68.0576 73.5262C68.5685 73.5262 69.0088 73.4121 69.3784 73.1838C69.7589 72.9447 70.0632 72.624 70.2915 72.2218L71.808 72.9392C71.4166 73.6241 70.9057 74.1622 70.2752 74.5535C69.6447 74.9449 68.8892 75.1405 68.0087 75.1405ZM70.1448 69.7432C70.123 69.4497 70.0306 69.1617 69.8676 68.879C69.7045 68.5855 69.4545 68.3409 69.1175 68.1452C68.7914 67.9496 68.3892 67.8517 67.9108 67.8517C67.3347 67.8517 66.8455 68.0257 66.4433 68.3735C66.052 68.7105 65.7802 69.1671 65.628 69.7432H70.1448ZM77.7197 63.2045H81.4538C82.6604 63.2045 83.7149 63.4491 84.6171 63.9383C85.5194 64.4275 86.2097 65.1178 86.688 66.0092C87.1772 66.8897 87.4218 67.9007 87.4218 69.0421C87.4218 70.1835 87.1772 71.1999 86.688 72.0913C86.2097 72.9718 85.5194 73.6567 84.6171 74.1459C83.7149 74.635 82.6604 74.8796 81.4538 74.8796H77.7197V63.2045ZM81.4212 73.1349C82.7256 73.1349 83.742 72.7762 84.4704 72.0587C85.2096 71.3304 85.5792 70.3248 85.5792 69.0421C85.5792 67.7702 85.2096 66.7701 84.4704 66.0418C83.742 65.3134 82.7256 64.9493 81.4212 64.9493H79.546V73.1349H81.4212ZM92.7703 75.1405C91.955 75.1405 91.2212 74.9503 90.569 74.5698C89.9276 74.1894 89.4221 73.6676 89.0525 73.0044C88.6938 72.3305 88.5144 71.5749 88.5144 70.7379C88.5144 69.9443 88.6883 69.2106 89.0362 68.5366C89.3949 67.8517 89.8895 67.3082 90.52 66.906C91.1505 66.5038 91.868 66.3027 92.6724 66.3027C93.5095 66.3027 94.2324 66.4875 94.8411 66.8571C95.4608 67.2267 95.9282 67.7322 96.2435 68.3735C96.5696 69.0149 96.7326 69.7378 96.7326 70.5422C96.7326 70.6944 96.7163 70.8847 96.6837 71.1129H90.3081C90.3733 71.8848 90.6451 72.4827 91.1234 72.9066C91.6125 73.3197 92.1778 73.5262 92.8192 73.5262C93.3301 73.5262 93.7704 73.4121 94.14 73.1838C94.5205 72.9447 94.8248 72.624 95.0531 72.2218L96.5696 72.9392C96.1782 73.6241 95.6673 74.1622 95.0368 74.5535C94.4063 74.9449 93.6508 75.1405 92.7703 75.1405ZM94.9064 69.7432C94.8846 69.4497 94.7922 69.1617 94.6292 68.879C94.4661 68.5855 94.2161 68.3409 93.8791 68.1452C93.553 67.9496 93.1507 67.8517 92.6724 67.8517C92.0963 67.8517 91.6071 68.0257 91.2049 68.3735C90.8136 68.7105 90.5418 69.1671 90.3896 69.7432H94.9064ZM97.2774 66.5636H99.283L101.582 72.5642H101.647L103.995 66.5636H105.952L102.495 74.8796H100.702L97.2774 66.5636ZM110.669 75.1405C109.853 75.1405 109.12 74.9503 108.467 74.5698C107.826 74.1894 107.321 73.6676 106.951 73.0044C106.592 72.3305 106.413 71.5749 106.413 70.7379C106.413 69.9443 106.587 69.2106 106.935 68.5366C107.293 67.8517 107.788 67.3082 108.418 66.906C109.049 66.5038 109.766 66.3027 110.571 66.3027C111.408 66.3027 112.131 66.4875 112.74 66.8571C113.359 67.2267 113.827 67.7322 114.142 68.3735C114.468 69.0149 114.631 69.7378 114.631 70.5422C114.631 70.6944 114.615 70.8847 114.582 71.1129H108.206C108.272 71.8848 108.543 72.4827 109.022 72.9066C109.511 73.3197 110.076 73.5262 110.718 73.5262C111.229 73.5262 111.669 73.4121 112.038 73.1838C112.419 72.9447 112.723 72.624 112.952 72.2218L114.468 72.9392C114.077 73.6241 113.566 74.1622 112.935 74.5535C112.305 74.9449 111.549 75.1405 110.669 75.1405ZM112.805 69.7432C112.783 69.4497 112.691 69.1617 112.528 68.879C112.365 68.5855 112.114 68.3409 111.777 68.1452C111.451 67.9496 111.049 67.8517 110.571 67.8517C109.995 67.8517 109.506 68.0257 109.103 68.3735C108.712 68.7105 108.44 69.1671 108.288 69.7432H112.805ZM116.264 63.2045H118.058V74.8796H116.264V63.2045ZM123.983 75.1405C123.146 75.1405 122.396 74.9503 121.733 74.5698C121.07 74.1785 120.554 73.6458 120.184 72.9718C119.814 72.2979 119.63 71.5478 119.63 70.7216C119.63 69.8954 119.814 69.1454 120.184 68.4714C120.554 67.7974 121.07 67.2702 121.733 66.8897C122.396 66.4983 123.146 66.3027 123.983 66.3027C124.82 66.3027 125.57 66.4983 126.234 66.8897C126.897 67.281 127.413 67.8137 127.783 68.4877C128.152 69.1617 128.337 69.9063 128.337 70.7216C128.337 71.5478 128.152 72.2979 127.783 72.9718C127.413 73.6458 126.897 74.1785 126.234 74.5698C125.57 74.9503 124.82 75.1405 123.983 75.1405ZM123.983 73.4936C124.44 73.4936 124.864 73.3849 125.255 73.1675C125.647 72.9392 125.956 72.6185 126.185 72.2054C126.424 71.7815 126.543 71.2869 126.543 70.7216C126.543 70.1563 126.424 69.6671 126.185 69.2541C125.956 68.841 125.647 68.5257 125.255 68.3083C124.864 68.08 124.44 67.9659 123.983 67.9659C123.527 67.9659 123.103 68.08 122.711 68.3083C122.32 68.5257 122.005 68.841 121.766 69.2541C121.537 69.6671 121.423 70.1563 121.423 70.7216C121.423 71.2869 121.537 71.7815 121.766 72.2054C122.005 72.6185 122.32 72.9392 122.711 73.1675C123.103 73.3849 123.527 73.4936 123.983 73.4936ZM129.846 66.5636H131.558V67.6561H131.64C131.879 67.2756 132.232 66.9549 132.7 66.694C133.167 66.4331 133.694 66.3027 134.281 66.3027C135.031 66.3027 135.711 66.4929 136.319 66.8734C136.928 67.2539 137.407 67.7811 137.754 68.4551C138.113 69.1182 138.293 69.8737 138.293 70.7216C138.293 71.5695 138.113 72.3305 137.754 73.0044C137.407 73.6676 136.928 74.1894 136.319 74.5698C135.711 74.9503 135.031 75.1405 134.281 75.1405C133.694 75.1405 133.167 75.0101 132.7 74.7492C132.232 74.4883 131.879 74.173 131.64 73.8034H131.558L131.64 74.9612V78.4017H129.846V66.5636ZM134.02 73.4936C134.455 73.4936 134.863 73.3795 135.243 73.1512C135.624 72.9229 135.928 72.5968 136.156 72.1728C136.385 71.7489 136.499 71.2651 136.499 70.7216C136.499 70.1781 136.385 69.6998 136.156 69.2867C135.928 68.8627 135.624 68.5366 135.243 68.3083C134.863 68.08 134.455 67.9659 134.02 67.9659C133.586 67.9659 133.178 68.08 132.797 68.3083C132.428 68.5366 132.129 68.8627 131.901 69.2867C131.672 69.6998 131.558 70.1781 131.558 70.7216C131.558 71.2651 131.672 71.7489 131.901 72.1728C132.129 72.5968 132.428 72.9229 132.797 73.1512C133.178 73.3795 133.586 73.4936 134.02 73.4936ZM143.727 75.1405C142.911 75.1405 142.178 74.9503 141.525 74.5698C140.884 74.1894 140.378 73.6676 140.009 73.0044C139.65 72.3305 139.471 71.5749 139.471 70.7379C139.471 69.9443 139.645 69.2106 139.993 68.5366C140.351 67.8517 140.846 67.3082 141.476 66.906C142.107 66.5038 142.824 66.3027 143.629 66.3027C144.466 66.3027 145.189 66.4875 145.797 66.8571C146.417 67.2267 146.885 67.7322 147.2 68.3735C147.526 69.0149 147.689 69.7378 147.689 70.5422C147.689 70.6944 147.673 70.8847 147.64 71.1129H141.264C141.33 71.8848 141.601 72.4827 142.08 72.9066C142.569 73.3197 143.134 73.5262 143.776 73.5262C144.286 73.5262 144.727 73.4121 145.096 73.1838C145.477 72.9447 145.781 72.624 146.009 72.2218L147.526 72.9392C147.135 73.6241 146.624 74.1622 145.993 74.5535C145.363 74.9449 144.607 75.1405 143.727 75.1405ZM145.863 69.7432C145.841 69.4497 145.749 69.1617 145.586 68.879C145.422 68.5855 145.172 68.3409 144.835 68.1452C144.509 67.9496 144.107 67.8517 143.629 67.8517C143.053 67.8517 142.563 68.0257 142.161 68.3735C141.77 68.7105 141.498 69.1671 141.346 69.7432H145.863ZM149.322 66.5636H151.035V67.7865H151.116C151.301 67.3626 151.622 67.0147 152.078 66.7429C152.535 66.4603 153.018 66.319 153.529 66.319C153.932 66.319 154.269 66.3733 154.54 66.482V68.3409C154.062 68.167 153.633 68.08 153.252 68.08C152.839 68.08 152.469 68.1887 152.143 68.4061C151.828 68.6236 151.578 68.9171 151.393 69.2867C151.208 69.6454 151.116 70.0422 151.116 70.477V74.8796H149.322V66.5636ZM162.912 75.1405C161.944 75.1405 161.075 74.8579 160.303 74.2926C159.531 73.7273 158.998 72.9338 158.705 71.9119L160.433 71.2108C160.607 71.8522 160.912 72.3794 161.346 72.7925C161.792 73.1947 162.325 73.3958 162.944 73.3958C163.521 73.3958 164.01 73.249 164.412 72.9555C164.814 72.6511 165.015 72.2381 165.015 71.7163C165.015 71.238 164.836 70.8466 164.477 70.5422C164.129 70.227 163.515 69.9117 162.635 69.5965L161.901 69.3356C161.118 69.0638 160.46 68.6725 159.928 68.1616C159.395 67.6506 159.129 66.9766 159.129 66.1396C159.129 65.5635 159.286 65.0308 159.602 64.5416C159.917 64.0524 160.352 63.6665 160.906 63.3839C161.471 63.0904 162.107 62.9436 162.814 62.9436C163.836 62.9436 164.651 63.1936 165.26 63.6937C165.869 64.1829 166.276 64.7373 166.483 65.3569L164.836 66.0581C164.716 65.6885 164.488 65.3624 164.151 65.0797C163.814 64.7971 163.379 64.6558 162.847 64.6558C162.314 64.6558 161.863 64.7916 161.493 65.0634C161.134 65.3352 160.955 65.683 160.955 66.107C160.955 66.5092 161.118 66.8408 161.444 67.1017C161.77 67.3626 162.281 67.6126 162.977 67.8517L163.711 68.0963C164.711 68.4442 165.483 68.9008 166.026 69.466C166.581 70.0204 166.858 70.7651 166.858 71.7C166.858 72.4609 166.662 73.1023 166.271 73.6241C165.88 74.135 165.379 74.5155 164.771 74.7655C164.173 75.0155 163.553 75.1405 162.912 75.1405ZM171.648 75.0101C171.278 75.0101 170.93 74.9503 170.604 74.8307C170.278 74.7111 170.012 74.5535 169.805 74.3578C169.338 73.8904 169.104 73.2545 169.104 72.45V68.1452H167.653V66.5636H169.104V64.2155H170.898V66.5636H172.92V68.1452H170.898V72.0587C170.898 72.5044 170.985 72.8196 171.159 73.0044C171.322 73.2219 171.604 73.3306 172.007 73.3306C172.191 73.3306 172.354 73.3088 172.496 73.2653C172.637 73.211 172.789 73.1295 172.952 73.0208V74.7655C172.594 74.9286 172.159 75.0101 171.648 75.0101ZM177.658 75.1405C176.647 75.1405 175.876 74.8416 175.343 74.2437C174.821 73.6349 174.56 72.7925 174.56 71.7163V66.5636H176.354V71.4717C176.354 72.1457 176.511 72.6511 176.827 72.9881C177.153 73.3251 177.577 73.4936 178.099 73.4936C178.523 73.4936 178.898 73.3849 179.224 73.1675C179.55 72.9392 179.8 72.6403 179.974 72.2707C180.148 71.9011 180.235 71.5043 180.235 71.0803V66.5636H182.028V74.8796H180.333V73.8034H180.235C180.006 74.1948 179.653 74.5155 179.175 74.7655C178.696 75.0155 178.191 75.1405 177.658 75.1405ZM187.591 75.1405C186.841 75.1405 186.162 74.9503 185.553 74.5698C184.944 74.1894 184.46 73.6676 184.102 73.0044C183.754 72.3305 183.58 71.5695 183.58 70.7216C183.58 69.8737 183.754 69.1182 184.102 68.4551C184.46 67.7811 184.944 67.2539 185.553 66.8734C186.162 66.4929 186.841 66.3027 187.591 66.3027C188.178 66.3027 188.705 66.4331 189.173 66.694C189.64 66.9549 189.994 67.2756 190.233 67.6561H190.314L190.233 66.482V63.2045H192.026V74.8796H190.314V73.8034H190.233C189.994 74.173 189.64 74.4883 189.173 74.7492C188.705 75.0101 188.178 75.1405 187.591 75.1405ZM187.852 73.4936C188.287 73.4936 188.689 73.3795 189.059 73.1512C189.439 72.9229 189.744 72.5968 189.972 72.1728C190.2 71.7489 190.314 71.2651 190.314 70.7216C190.314 70.1781 190.2 69.6998 189.972 69.2867C189.744 68.8627 189.439 68.5366 189.059 68.3083C188.689 68.08 188.287 67.9659 187.852 67.9659C187.417 67.9659 187.01 68.08 186.629 68.3083C186.249 68.5366 185.944 68.8627 185.716 69.2867C185.488 69.6998 185.374 70.1781 185.374 70.7216C185.374 71.2651 185.488 71.7489 185.716 72.1728C185.944 72.5968 186.249 72.9229 186.629 73.1512C187.01 73.3795 187.417 73.4936 187.852 73.4936ZM197.836 75.1405C197.021 75.1405 196.287 74.9503 195.635 74.5698C194.993 74.1894 194.488 73.6676 194.118 73.0044C193.759 72.3305 193.58 71.5749 193.58 70.7379C193.58 69.9443 193.754 69.2106 194.102 68.5366C194.461 67.8517 194.955 67.3082 195.586 66.906C196.216 66.5038 196.934 66.3027 197.738 66.3027C198.575 66.3027 199.298 66.4875 199.907 66.8571C200.526 67.2267 200.994 67.7322 201.309 68.3735C201.635 69.0149 201.798 69.7378 201.798 70.5422C201.798 70.6944 201.782 70.8847 201.749 71.1129H195.374C195.439 71.8848 195.711 72.4827 196.189 72.9066C196.678 73.3197 197.243 73.5262 197.885 73.5262C198.396 73.5262 198.836 73.4121 199.206 73.1838C199.586 72.9447 199.89 72.624 200.119 72.2218L201.635 72.9392C201.244 73.6241 200.733 74.1622 200.102 74.5535C199.472 74.9449 198.716 75.1405 197.836 75.1405ZM199.972 69.7432C199.95 69.4497 199.858 69.1617 199.695 68.879C199.532 68.5855 199.282 68.3409 198.945 68.1452C198.619 67.9496 198.216 67.8517 197.738 67.8517C197.162 67.8517 196.673 68.0257 196.271 68.3735C195.879 68.7105 195.607 69.1671 195.455 69.7432H199.972ZM203.432 66.5636H205.144V67.6561H205.225C205.464 67.2647 205.818 66.944 206.285 66.694C206.764 66.4331 207.269 66.3027 207.802 66.3027C208.813 66.3027 209.579 66.6016 210.101 67.1995C210.633 67.7865 210.9 68.5909 210.9 69.6128V74.8796H209.106V69.8574C209.106 69.2051 208.943 68.7268 208.617 68.4225C208.302 68.1181 207.861 67.9659 207.296 67.9659C206.894 67.9659 206.535 68.08 206.22 68.3083C205.905 68.5257 205.66 68.8192 205.486 69.1888C205.312 69.5584 205.225 69.9552 205.225 70.3792V74.8796H203.432V66.5636ZM215.916 75.0101C215.547 75.0101 215.199 74.9503 214.873 74.8307C214.547 74.7111 214.28 74.5535 214.074 74.3578C213.606 73.8904 213.372 73.2545 213.372 72.45V68.1452H211.921V66.5636H213.372V64.2155H215.166V66.5636H217.188V68.1452H215.166V72.0587C215.166 72.5044 215.253 72.8196 215.427 73.0044C215.59 73.2219 215.873 73.3306 216.275 73.3306C216.46 73.3306 216.623 73.3088 216.764 73.2653C216.905 73.211 217.058 73.1295 217.221 73.0208V74.7655C216.862 74.9286 216.427 75.0101 215.916 75.0101ZM228.202 75.1405C227.071 75.1405 226.039 74.8742 225.104 74.3415C224.169 73.8089 223.435 73.0751 222.902 72.1402C222.37 71.2053 222.103 70.1726 222.103 69.0421C222.103 67.9115 222.37 66.8788 222.902 65.9439C223.435 65.0091 224.169 64.2753 225.104 63.7426C226.039 63.21 227.071 62.9436 228.202 62.9436C229.082 62.9436 229.881 63.1067 230.599 63.4328C231.327 63.7589 231.969 64.2318 232.523 64.8514L231.219 66.107C230.816 65.6287 230.371 65.2754 229.881 65.0471C229.392 64.8079 228.832 64.6884 228.202 64.6884C227.419 64.6884 226.702 64.8677 226.05 65.2265C225.408 65.5852 224.897 66.0961 224.517 66.7592C224.136 67.4115 223.946 68.1724 223.946 69.0421C223.946 69.9117 224.136 70.6781 224.517 71.3412C224.897 71.9935 225.408 72.499 226.05 72.8577C226.702 73.2164 227.419 73.3958 228.202 73.3958C229.506 73.3958 230.615 72.8523 231.528 71.7652L232.849 73.0371C232.284 73.7002 231.604 74.2165 230.811 74.5861C230.017 74.9557 229.148 75.1405 228.202 75.1405ZM234.435 63.2045H236.229V74.8796H234.435V63.2045ZM241.37 75.1405C240.359 75.1405 239.587 74.8416 239.054 74.2437C238.532 73.6349 238.272 72.7925 238.272 71.7163V66.5636H240.065V71.4717C240.065 72.1457 240.223 72.6511 240.538 72.9881C240.864 73.3251 241.288 73.4936 241.81 73.4936C242.234 73.4936 242.609 73.3849 242.935 73.1675C243.261 72.9392 243.511 72.6403 243.685 72.2707C243.859 71.9011 243.946 71.5043 243.946 71.0803V66.5636H245.74V74.8796H244.044V73.8034H243.946C243.718 74.1948 243.364 74.5155 242.886 74.7655C242.408 75.0155 241.902 75.1405 241.37 75.1405ZM252.263 75.1405C251.676 75.1405 251.148 75.0101 250.681 74.7492C250.213 74.4883 249.86 74.173 249.621 73.8034H249.54V74.8796H247.827V63.2045H249.621V66.482L249.54 67.6561H249.621C249.86 67.2756 250.213 66.9549 250.681 66.694C251.148 66.4331 251.676 66.3027 252.263 66.3027C253.013 66.3027 253.692 66.4929 254.301 66.8734C254.91 67.2539 255.388 67.7811 255.736 68.4551C256.095 69.1182 256.274 69.8737 256.274 70.7216C256.274 71.5695 256.095 72.3305 255.736 73.0044C255.388 73.6676 254.91 74.1894 254.301 74.5698C253.692 74.9503 253.013 75.1405 252.263 75.1405ZM252.002 73.4936C252.437 73.4936 252.844 73.3795 253.225 73.1512C253.605 72.9229 253.91 72.5968 254.138 72.1728C254.366 71.7489 254.48 71.2651 254.48 70.7216C254.48 70.1781 254.366 69.6998 254.138 69.2867C253.91 68.8627 253.605 68.5366 253.225 68.3083C252.844 68.08 252.437 67.9659 252.002 67.9659C251.567 67.9659 251.159 68.08 250.779 68.3083C250.409 68.5366 250.11 68.8627 249.882 69.2867C249.654 69.6998 249.54 70.1781 249.54 70.7216C249.54 71.2651 249.654 71.7489 249.882 72.1728C250.11 72.5968 250.409 72.9229 250.779 73.1512C251.159 73.3795 251.567 73.4936 252.002 73.4936ZM260.86 75.1405C259.904 75.1405 259.121 74.934 258.512 74.5209C257.904 74.0969 257.474 73.5589 257.224 72.9066L258.822 72.2054C259.018 72.6403 259.29 72.9718 259.638 73.2001C259.996 73.4284 260.404 73.5425 260.86 73.5425C261.306 73.5425 261.681 73.4664 261.986 73.3143C262.29 73.1512 262.442 72.912 262.442 72.5968C262.442 72.2924 262.312 72.0533 262.051 71.8793C261.79 71.7054 261.388 71.5532 260.844 71.4228L259.849 71.1782C259.186 71.0151 258.637 70.727 258.203 70.314C257.768 69.9009 257.55 69.3791 257.55 68.7486C257.55 68.2594 257.692 67.83 257.974 67.4604C258.268 67.0908 258.659 66.8082 259.148 66.6125C259.638 66.4059 260.17 66.3027 260.746 66.3027C261.518 66.3027 262.198 66.4603 262.785 66.7755C263.372 67.0799 263.796 67.5256 264.056 68.1126L262.491 68.7975C262.176 68.1561 261.6 67.8354 260.763 67.8354C260.36 67.8354 260.023 67.917 259.752 68.08C259.48 68.2431 259.344 68.4551 259.344 68.716C259.344 68.966 259.447 69.1725 259.654 69.3356C259.86 69.4878 260.165 69.6182 260.567 69.7269L261.79 70.0367C262.605 70.2433 263.219 70.5585 263.632 70.9825C264.056 71.3956 264.268 71.9065 264.268 72.5153C264.268 73.0371 264.116 73.4991 263.812 73.9013C263.518 74.2926 263.111 74.597 262.589 74.8144C262.067 75.0318 261.491 75.1405 260.86 75.1405Z" fill="white"/>
<rect width="23.3115" height="7.81905" rx="3.90953" transform="matrix(-0.866025 0.5 0.5 0.866025 174.504 27.7881)" fill="#FBBC04"/>
<rect width="23.3115" height="7.81905" rx="3.90953" transform="matrix(0.866025 -0.5 -0.5 -0.866025 131.371 38.4272)" fill="#EA4335"/>
<rect x="131.041" y="27.7871" width="23.3115" height="7.81905" rx="3.90953" transform="rotate(30 131.041 27.7871)" fill="#4285F4"/>
<rect x="174.504" y="38.4272" width="23.3115" height="7.81905" rx="3.64648" transform="rotate(-150 174.504 38.4272)" fill="#0F9D58"/>
<path d="M13.2964 91H10.8276V83H13.4058C14.1818 83 14.8459 83.1602 15.3979 83.4805C15.95 83.7982 16.3732 84.2552 16.6675 84.8516C16.9618 85.4453 17.1089 86.1562 17.1089 86.9844C17.1089 87.8177 16.9604 88.5352 16.6636 89.1367C16.3667 89.7357 15.9344 90.1966 15.3667 90.5195C14.799 90.8398 14.1089 91 13.2964 91ZM11.7964 90.1406H13.2339C13.8953 90.1406 14.4435 90.013 14.8784 89.7578C15.3133 89.5026 15.6375 89.1393 15.8511 88.668C16.0646 88.1966 16.1714 87.6354 16.1714 86.9844C16.1714 86.3385 16.0659 85.7826 15.855 85.3164C15.644 84.8477 15.3289 84.4883 14.9097 84.2383C14.4904 83.9857 13.9683 83.8594 13.3433 83.8594H11.7964V90.1406ZM20.3745 91.1406C19.9943 91.1406 19.6493 91.069 19.3394 90.9258C19.0295 90.7799 18.7834 90.5703 18.6011 90.2969C18.4188 90.0208 18.3276 89.6875 18.3276 89.2969C18.3276 88.9531 18.3953 88.6745 18.5308 88.4609C18.6662 88.2448 18.8472 88.0755 19.0737 87.9531C19.3003 87.8307 19.5503 87.7396 19.8237 87.6797C20.0998 87.6172 20.3771 87.5677 20.6558 87.5313C21.0203 87.4844 21.3159 87.4492 21.5425 87.4258C21.7716 87.3997 21.9383 87.3568 22.0425 87.2969C22.1493 87.237 22.2026 87.1328 22.2026 86.9844V86.9531C22.2026 86.5677 22.0972 86.2682 21.8862 86.0547C21.6779 85.8411 21.3615 85.7344 20.937 85.7344C20.4969 85.7344 20.1519 85.8307 19.9019 86.0234C19.6519 86.2161 19.4761 86.4219 19.3745 86.6406L18.4995 86.3281C18.6558 85.9635 18.8641 85.6797 19.1245 85.4766C19.3875 85.2708 19.674 85.1276 19.9839 85.0469C20.2964 84.9635 20.6037 84.9219 20.9058 84.9219C21.0985 84.9219 21.3198 84.9453 21.5698 84.9922C21.8224 85.0365 22.0659 85.1289 22.3003 85.2695C22.5373 85.4102 22.7339 85.6224 22.8901 85.9062C23.0464 86.1901 23.1245 86.5703 23.1245 87.0469V91H22.2026V90.1875H22.1558C22.0933 90.3177 21.9891 90.457 21.8433 90.6055C21.6974 90.7539 21.5034 90.8802 21.2612 90.9844C21.019 91.0885 20.7235 91.1406 20.3745 91.1406ZM20.5151 90.3125C20.8797 90.3125 21.187 90.2409 21.437 90.0977C21.6896 89.9544 21.8797 89.7695 22.0073 89.543C22.1375 89.3164 22.2026 89.0781 22.2026 88.8281V87.9844C22.1636 88.0312 22.0776 88.0742 21.9448 88.1133C21.8146 88.1497 21.6636 88.1823 21.4917 88.2109C21.3224 88.237 21.1571 88.2604 20.9956 88.2812C20.8368 88.2995 20.7078 88.3151 20.6089 88.3281C20.3693 88.3594 20.1453 88.4102 19.937 88.4805C19.7313 88.5482 19.5646 88.651 19.437 88.7891C19.312 88.9245 19.2495 89.1094 19.2495 89.3437C19.2495 89.6641 19.368 89.9062 19.605 90.0703C19.8446 90.2318 20.1479 90.3125 20.5151 90.3125ZM27.4165 85V85.7812H24.3071V85H27.4165ZM25.2134 83.5625H26.1353V89.2812C26.1353 89.5417 26.173 89.737 26.2485 89.8672C26.3267 89.9948 26.4256 90.0807 26.5454 90.125C26.6678 90.1667 26.7967 90.1875 26.9321 90.1875C27.0337 90.1875 27.117 90.1823 27.1821 90.1719C27.2472 90.1589 27.2993 90.1484 27.3384 90.1406L27.5259 90.9687C27.4634 90.9922 27.3761 91.0156 27.2642 91.0391C27.1522 91.0651 27.0103 91.0781 26.8384 91.0781C26.578 91.0781 26.3228 91.0221 26.0728 90.9102C25.8254 90.7982 25.6196 90.6276 25.4556 90.3984C25.2941 90.1693 25.2134 89.8802 25.2134 89.5312V83.5625ZM31.4126 85V85.7812H28.3032V85H31.4126ZM29.2095 83.5625H30.1313V89.2812C30.1313 89.5417 30.1691 89.737 30.2446 89.8672C30.3228 89.9948 30.4217 90.0807 30.5415 90.125C30.6639 90.1667 30.7928 90.1875 30.9282 90.1875C31.0298 90.1875 31.1131 90.1823 31.1782 90.1719C31.2433 90.1589 31.2954 90.1484 31.3345 90.1406L31.522 90.9687C31.4595 90.9922 31.3722 91.0156 31.2603 91.0391C31.1483 91.0651 31.0063 91.0781 30.8345 91.0781C30.5741 91.0781 30.3188 91.0221 30.0688 90.9102C29.8215 90.7982 29.6157 90.6276 29.4517 90.3984C29.2902 90.1693 29.2095 89.8802 29.2095 89.5312V83.5625ZM34.5649 91.1406C34.1847 91.1406 33.8397 91.069 33.5298 90.9258C33.2199 90.7799 32.9738 90.5703 32.7915 90.2969C32.6092 90.0208 32.5181 89.6875 32.5181 89.2969C32.5181 88.9531 32.5858 88.6745 32.7212 88.4609C32.8566 88.2448 33.0376 88.0755 33.2642 87.9531C33.4907 87.8307 33.7407 87.7396 34.0142 87.6797C34.2902 87.6172 34.5675 87.5677 34.8462 87.5313C35.2108 87.4844 35.5063 87.4492 35.7329 87.4258C35.9621 87.3997 36.1287 87.3568 36.2329 87.2969C36.3397 87.237 36.3931 87.1328 36.3931 86.9844V86.9531C36.3931 86.5677 36.2876 86.2682 36.0767 86.0547C35.8683 85.8411 35.5519 85.7344 35.1274 85.7344C34.6873 85.7344 34.3423 85.8307 34.0923 86.0234C33.8423 86.2161 33.6665 86.4219 33.5649 86.6406L32.6899 86.3281C32.8462 85.9635 33.0545 85.6797 33.3149 85.4766C33.578 85.2708 33.8644 85.1276 34.1743 85.0469C34.4868 84.9635 34.7941 84.9219 35.0962 84.9219C35.2889 84.9219 35.5103 84.9453 35.7603 84.9922C36.0129 85.0365 36.2563 85.1289 36.4907 85.2695C36.7277 85.4102 36.9243 85.6224 37.0806 85.9062C37.2368 86.1901 37.3149 86.5703 37.3149 87.0469V91H36.3931V90.1875H36.3462C36.2837 90.3177 36.1795 90.457 36.0337 90.6055C35.8879 90.7539 35.6938 90.8802 35.4517 90.9844C35.2095 91.0885 34.9139 91.1406 34.5649 91.1406ZM34.7056 90.3125C35.0701 90.3125 35.3774 90.2409 35.6274 90.0977C35.88 89.9544 36.0701 89.7695 36.1978 89.543C36.328 89.3164 36.3931 89.0781 36.3931 88.8281V87.9844C36.354 88.0312 36.2681 88.0742 36.1353 88.1133C36.005 88.1497 35.854 88.1823 35.6821 88.2109C35.5129 88.237 35.3475 88.2604 35.186 88.2812C35.0272 88.2995 34.8983 88.3151 34.7993 88.3281C34.5597 88.3594 34.3358 88.4102 34.1274 88.4805C33.9217 88.5482 33.755 88.651 33.6274 88.7891C33.5024 88.9245 33.4399 89.1094 33.4399 89.3437C33.4399 89.6641 33.5584 89.9062 33.7954 90.0703C34.035 90.2318 34.3384 90.3125 34.7056 90.3125ZM42.2163 83H43.3726L46.0913 89.6406H46.1851L48.9038 83H50.0601V91H49.1538V84.9219H49.0757L46.5757 91H45.7007L43.2007 84.9219H43.1226V91H42.2163V83ZM54.3931 91.125C53.8149 91.125 53.3162 90.9974 52.897 90.7422C52.4803 90.4844 52.1587 90.125 51.9321 89.6641C51.7082 89.2005 51.5962 88.6615 51.5962 88.0469C51.5962 87.4323 51.7082 86.8906 51.9321 86.4219C52.1587 85.9505 52.4738 85.5833 52.8774 85.3203C53.2837 85.0547 53.7576 84.9219 54.2993 84.9219C54.6118 84.9219 54.9204 84.974 55.2251 85.0781C55.5298 85.1823 55.8071 85.3516 56.0571 85.5859C56.3071 85.8177 56.5063 86.125 56.6548 86.5078C56.8032 86.8906 56.8774 87.362 56.8774 87.9219V88.3125H52.2524V87.5156H55.9399C55.9399 87.1771 55.8722 86.875 55.7368 86.6094C55.604 86.3437 55.4139 86.1341 55.1665 85.9805C54.9217 85.8268 54.6326 85.75 54.2993 85.75C53.9321 85.75 53.6144 85.8411 53.3462 86.0234C53.0806 86.2031 52.8761 86.4375 52.7329 86.7266C52.5897 87.0156 52.5181 87.3255 52.5181 87.6562V88.1875C52.5181 88.6406 52.5962 89.0247 52.7524 89.3398C52.9113 89.6523 53.1313 89.8906 53.4126 90.0547C53.6938 90.2161 54.0207 90.2969 54.3931 90.2969C54.6353 90.2969 54.854 90.263 55.0493 90.1953C55.2472 90.125 55.4178 90.0208 55.561 89.8828C55.7043 89.7422 55.8149 89.5677 55.8931 89.3594L56.7837 89.6094C56.6899 89.9115 56.5324 90.1771 56.311 90.4062C56.0897 90.6328 55.8162 90.8099 55.4907 90.9375C55.1652 91.0625 54.7993 91.125 54.3931 91.125ZM60.7017 93.375C60.2563 93.375 59.8735 93.3177 59.5532 93.2031C59.2329 93.0911 58.966 92.9427 58.7524 92.7578C58.5415 92.5755 58.3735 92.3802 58.2485 92.1719L58.9829 91.6563C59.0662 91.7656 59.1717 91.8906 59.2993 92.0312C59.4269 92.1745 59.6014 92.2982 59.8228 92.4023C60.0467 92.5091 60.3397 92.5625 60.7017 92.5625C61.186 92.5625 61.5858 92.4453 61.9009 92.2109C62.216 91.9766 62.3735 91.6094 62.3735 91.1094V89.8906H62.2954C62.2277 90 62.1313 90.1354 62.0063 90.2969C61.884 90.4557 61.7069 90.5977 61.4751 90.7227C61.2459 90.8451 60.936 90.9062 60.5454 90.9062C60.061 90.9062 59.6261 90.7917 59.2407 90.5625C58.8579 90.3333 58.5545 90 58.3306 89.5625C58.1092 89.125 57.9985 88.5937 57.9985 87.9687C57.9985 87.3542 58.1066 86.819 58.3228 86.3633C58.5389 85.9049 58.8397 85.5508 59.2251 85.3008C59.6105 85.0482 60.0558 84.9219 60.561 84.9219C60.9517 84.9219 61.2616 84.987 61.4907 85.1172C61.7225 85.2448 61.8996 85.3906 62.022 85.5547C62.147 85.7161 62.2433 85.849 62.311 85.9531H62.4048V85H63.2954V91.1719C63.2954 91.6875 63.1782 92.1068 62.9438 92.4297C62.7121 92.7552 62.3996 92.9935 62.0063 93.1445C61.6157 93.2982 61.1808 93.375 60.7017 93.375ZM60.6704 90.0781C61.0402 90.0781 61.3527 89.9935 61.6079 89.8242C61.8631 89.6549 62.0571 89.4115 62.1899 89.0938C62.3228 88.776 62.3892 88.3958 62.3892 87.9531C62.3892 87.5208 62.3241 87.1393 62.1938 86.8086C62.0636 86.4779 61.8709 86.2187 61.6157 86.0312C61.3605 85.8437 61.0454 85.75 60.6704 85.75C60.2798 85.75 59.9543 85.849 59.6938 86.0469C59.436 86.2448 59.242 86.5104 59.1118 86.8438C58.9842 87.1771 58.9204 87.5469 58.9204 87.9531C58.9204 88.3698 58.9855 88.7383 59.1157 89.0586C59.2485 89.3763 59.4438 89.6263 59.7017 89.8086C59.9621 89.9883 60.285 90.0781 60.6704 90.0781ZM65.9048 87.3906V91H64.9829V83H65.9048V85.9375H65.9829C66.1235 85.6276 66.3345 85.3815 66.6157 85.1992C66.8996 85.0143 67.2772 84.9219 67.7485 84.9219C68.1574 84.9219 68.5155 85.0039 68.8228 85.168C69.13 85.3294 69.3683 85.5781 69.5376 85.9141C69.7095 86.2474 69.7954 86.6719 69.7954 87.1875V91H68.8735V87.25C68.8735 86.7734 68.7498 86.4049 68.5024 86.1445C68.2576 85.8815 67.9178 85.75 67.4829 85.75C67.1808 85.75 66.91 85.8138 66.6704 85.9414C66.4334 86.069 66.2459 86.2552 66.1079 86.5C65.9725 86.7448 65.9048 87.0417 65.9048 87.3906ZM73.9976 91.125C73.4194 91.125 72.9207 90.9974 72.5015 90.7422C72.0848 90.4844 71.7632 90.125 71.5366 89.6641C71.3127 89.2005 71.2007 88.6615 71.2007 88.0469C71.2007 87.4323 71.3127 86.8906 71.5366 86.4219C71.7632 85.9505 72.0783 85.5833 72.4819 85.3203C72.8882 85.0547 73.3621 84.9219 73.9038 84.9219C74.2163 84.9219 74.5249 84.974 74.8296 85.0781C75.1343 85.1823 75.4116 85.3516 75.6616 85.5859C75.9116 85.8177 76.1108 86.125 76.2593 86.5078C76.4077 86.8906 76.4819 87.362 76.4819 87.9219V88.3125H71.8569V87.5156H75.5444C75.5444 87.1771 75.4767 86.875 75.3413 86.6094C75.2085 86.3437 75.0184 86.1341 74.771 85.9805C74.5262 85.8268 74.2371 85.75 73.9038 85.75C73.5366 85.75 73.2189 85.8411 72.9507 86.0234C72.6851 86.2031 72.4806 86.4375 72.3374 86.7266C72.1942 87.0156 72.1226 87.3255 72.1226 87.6562V88.1875C72.1226 88.6406 72.2007 89.0247 72.3569 89.3398C72.5158 89.6523 72.7358 89.8906 73.0171 90.0547C73.2983 90.2161 73.6252 90.2969 73.9976 90.2969C74.2397 90.2969 74.4585 90.263 74.6538 90.1953C74.8517 90.125 75.0223 90.0208 75.1655 89.8828C75.3088 89.7422 75.4194 89.5677 75.4976 89.3594L76.3882 89.6094C76.2944 89.9115 76.1369 90.1771 75.9155 90.4062C75.6942 90.6328 75.4207 90.8099 75.0952 90.9375C74.7697 91.0625 74.4038 91.125 73.9976 91.125ZM82.0718 83V91H81.103V83H82.0718ZM84.811 87.3906V91H83.8892V85H84.7798V85.9375H84.8579C84.9985 85.6328 85.2121 85.388 85.4985 85.2031C85.785 85.0156 86.1548 84.9219 86.6079 84.9219C87.0142 84.9219 87.3696 85.0052 87.6743 85.1719C87.979 85.3359 88.216 85.5859 88.3853 85.9219C88.5545 86.2552 88.6392 86.6771 88.6392 87.1875V91H87.7173V87.25C87.7173 86.7786 87.5949 86.4115 87.3501 86.1484C87.1053 85.8828 86.7694 85.75 86.3423 85.75C86.048 85.75 85.785 85.8138 85.5532 85.9414C85.3241 86.069 85.1431 86.2552 85.0103 86.5C84.8774 86.7448 84.811 87.0417 84.811 87.3906ZM94.5737 86.3437L93.7456 86.5781C93.6935 86.4401 93.6167 86.306 93.5151 86.1758C93.4162 86.043 93.2808 85.9336 93.1089 85.8477C92.937 85.7617 92.717 85.7187 92.4487 85.7187C92.0815 85.7187 91.7756 85.8034 91.5308 85.9727C91.2886 86.1393 91.1675 86.3516 91.1675 86.6094C91.1675 86.8385 91.2508 87.0195 91.4175 87.1523C91.5841 87.2852 91.8446 87.3958 92.1987 87.4844L93.0894 87.7031C93.6258 87.8333 94.0256 88.0326 94.2886 88.3008C94.5516 88.5664 94.6831 88.9089 94.6831 89.3281C94.6831 89.6719 94.5841 89.9792 94.3862 90.25C94.1909 90.5208 93.9175 90.7344 93.5659 90.8906C93.2144 91.0469 92.8055 91.125 92.3394 91.125C91.7274 91.125 91.2209 90.9922 90.8198 90.7266C90.4188 90.4609 90.1649 90.0729 90.0581 89.5625L90.9331 89.3437C91.0164 89.6667 91.174 89.9089 91.4058 90.0703C91.6401 90.2318 91.9461 90.3125 92.3237 90.3125C92.7534 90.3125 93.0946 90.2214 93.3472 90.0391C93.6024 89.8542 93.73 89.6328 93.73 89.375C93.73 89.1667 93.6571 88.9922 93.5112 88.8516C93.3654 88.7083 93.1414 88.6016 92.8394 88.5312L91.8394 88.2969C91.2899 88.1667 90.8862 87.9648 90.6284 87.6914C90.3732 87.4154 90.2456 87.0703 90.2456 86.6562C90.2456 86.3177 90.3407 86.0182 90.5308 85.7578C90.7235 85.4974 90.9852 85.293 91.3159 85.1445C91.6493 84.9961 92.0269 84.9219 92.4487 84.9219C93.0425 84.9219 93.5086 85.0521 93.8472 85.3125C94.1883 85.5729 94.4305 85.9167 94.5737 86.3437ZM98.6802 85V85.7812H95.5708V85H98.6802ZM96.4771 83.5625H97.3989V89.2812C97.3989 89.5417 97.4367 89.737 97.5122 89.8672C97.5903 89.9948 97.6893 90.0807 97.8091 90.125C97.9315 90.1667 98.0604 90.1875 98.1958 90.1875C98.2974 90.1875 98.3807 90.1823 98.4458 90.1719C98.5109 90.1589 98.563 90.1484 98.6021 90.1406L98.7896 90.9687C98.7271 90.9922 98.6398 91.0156 98.5278 91.0391C98.4159 91.0651 98.2739 91.0781 98.1021 91.0781C97.8416 91.0781 97.5864 91.0221 97.3364 90.9102C97.089 90.7982 96.8833 90.6276 96.7192 90.3984C96.5578 90.1693 96.4771 89.8802 96.4771 89.5312V83.5625ZM100.067 91V85H100.989V91H100.067ZM100.536 84C100.356 84 100.201 83.9388 100.071 83.8164C99.9432 83.694 99.8794 83.5469 99.8794 83.375C99.8794 83.2031 99.9432 83.056 100.071 82.9336C100.201 82.8112 100.356 82.75 100.536 82.75C100.715 82.75 100.869 82.8112 100.997 82.9336C101.127 83.056 101.192 83.2031 101.192 83.375C101.192 83.5469 101.127 83.694 100.997 83.8164C100.869 83.9388 100.715 84 100.536 84ZM105.287 85V85.7812H102.177V85H105.287ZM103.083 83.5625H104.005V89.2812C104.005 89.5417 104.043 89.737 104.119 89.8672C104.197 89.9948 104.296 90.0807 104.416 90.125C104.538 90.1667 104.667 90.1875 104.802 90.1875C104.904 90.1875 104.987 90.1823 105.052 90.1719C105.117 90.1589 105.169 90.1484 105.208 90.1406L105.396 90.9687C105.333 90.9922 105.246 91.0156 105.134 91.0391C105.022 91.0651 104.88 91.0781 104.708 91.0781C104.448 91.0781 104.193 91.0221 103.943 90.9102C103.695 90.7982 103.49 90.6276 103.326 90.3984C103.164 90.1693 103.083 89.8802 103.083 89.5312V83.5625ZM110.455 88.5469V85H111.376V91H110.455V89.9844H110.392C110.251 90.2891 110.033 90.5482 109.736 90.7617C109.439 90.9727 109.064 91.0781 108.611 91.0781C108.236 91.0781 107.903 90.9961 107.611 90.832C107.319 90.6654 107.09 90.4154 106.923 90.082C106.757 89.7461 106.673 89.3229 106.673 88.8125V85H107.595V88.75C107.595 89.1875 107.718 89.5365 107.962 89.7969C108.21 90.0573 108.525 90.1875 108.908 90.1875C109.137 90.1875 109.37 90.1289 109.607 90.0117C109.847 89.8945 110.047 89.7148 110.208 89.4727C110.373 89.2305 110.455 88.9219 110.455 88.5469ZM115.674 85V85.7812H112.565V85H115.674ZM113.471 83.5625H114.393V89.2812C114.393 89.5417 114.431 89.737 114.506 89.8672C114.584 89.9948 114.683 90.0807 114.803 90.125C114.926 90.1667 115.055 90.1875 115.19 90.1875C115.292 90.1875 115.375 90.1823 115.44 90.1719C115.505 90.1589 115.557 90.1484 115.596 90.1406L115.784 90.9687C115.721 90.9922 115.634 91.0156 115.522 91.0391C115.41 91.0651 115.268 91.0781 115.096 91.0781C114.836 91.0781 114.581 91.0221 114.331 90.9102C114.083 90.7982 113.877 90.6276 113.713 90.3984C113.552 90.1693 113.471 89.8802 113.471 89.5312V83.5625ZM119.512 91.125C118.934 91.125 118.435 90.9974 118.016 90.7422C117.599 90.4844 117.278 90.125 117.051 89.6641C116.827 89.2005 116.715 88.6615 116.715 88.0469C116.715 87.4323 116.827 86.8906 117.051 86.4219C117.278 85.9505 117.593 85.5833 117.997 85.3203C118.403 85.0547 118.877 84.9219 119.418 84.9219C119.731 84.9219 120.04 84.974 120.344 85.0781C120.649 85.1823 120.926 85.3516 121.176 85.5859C121.426 85.8177 121.625 86.125 121.774 86.5078C121.922 86.8906 121.997 87.362 121.997 87.9219V88.3125H117.372V87.5156H121.059C121.059 87.1771 120.991 86.875 120.856 86.6094C120.723 86.3437 120.533 86.1341 120.286 85.9805C120.041 85.8268 119.752 85.75 119.418 85.75C119.051 85.75 118.734 85.8411 118.465 86.0234C118.2 86.2031 117.995 86.4375 117.852 86.7266C117.709 87.0156 117.637 87.3255 117.637 87.6562V88.1875C117.637 88.6406 117.715 89.0247 117.872 89.3398C118.03 89.6523 118.25 89.8906 118.532 90.0547C118.813 90.2161 119.14 90.2969 119.512 90.2969C119.754 90.2969 119.973 90.263 120.168 90.1953C120.366 90.125 120.537 90.0208 120.68 89.8828C120.823 89.7422 120.934 89.5677 121.012 89.3594L121.903 89.6094C121.809 89.9115 121.652 90.1771 121.43 90.4062C121.209 90.6328 120.935 90.8099 120.61 90.9375C120.284 91.0625 119.918 91.125 119.512 91.125ZM128.93 91.125C128.389 91.125 127.913 90.9961 127.504 90.7383C127.098 90.4805 126.78 90.1198 126.551 89.6562C126.325 89.1927 126.211 88.651 126.211 88.0312C126.211 87.4062 126.325 86.8607 126.551 86.3945C126.78 85.9284 127.098 85.5664 127.504 85.3086C127.913 85.0508 128.389 84.9219 128.93 84.9219C129.472 84.9219 129.946 85.0508 130.352 85.3086C130.761 85.5664 131.079 85.9284 131.305 86.3945C131.534 86.8607 131.649 87.4062 131.649 88.0312C131.649 88.651 131.534 89.1927 131.305 89.6562C131.079 90.1198 130.761 90.4805 130.352 90.7383C129.946 90.9961 129.472 91.125 128.93 91.125ZM128.93 90.2969C129.342 90.2969 129.68 90.1914 129.946 89.9805C130.211 89.7695 130.408 89.4922 130.536 89.1484C130.663 88.8047 130.727 88.4323 130.727 88.0312C130.727 87.6302 130.663 87.2565 130.536 86.9102C130.408 86.5638 130.211 86.2839 129.946 86.0703C129.68 85.8568 129.342 85.75 128.93 85.75C128.519 85.75 128.18 85.8568 127.915 86.0703C127.649 86.2839 127.452 86.5638 127.325 86.9102C127.197 87.2565 127.133 87.6302 127.133 88.0312C127.133 88.4323 127.197 88.8047 127.325 89.1484C127.452 89.4922 127.649 89.7695 127.915 89.9805C128.18 90.1914 128.519 90.2969 128.93 90.2969ZM135.728 85V85.7812H132.494V85H135.728ZM133.462 91V84.1719C133.462 83.8281 133.543 83.5417 133.705 83.3125C133.866 83.0833 134.076 82.9115 134.333 82.7969C134.591 82.6823 134.863 82.625 135.15 82.625C135.376 82.625 135.561 82.6432 135.705 82.6797C135.848 82.7161 135.955 82.75 136.025 82.7812L135.759 83.5781C135.712 83.5625 135.647 83.543 135.564 83.5195C135.483 83.4961 135.376 83.4844 135.244 83.4844C134.939 83.4844 134.719 83.5612 134.583 83.7148C134.451 83.8685 134.384 84.0937 134.384 84.3906V91H133.462ZM140.239 91V83H141.208V86.5625H145.473V83H146.442V91H145.473V87.4219H141.208V91H140.239ZM148.256 91V85H149.178V91H148.256ZM148.725 84C148.545 84 148.39 83.9388 148.26 83.8164C148.133 83.694 148.069 83.5469 148.069 83.375C148.069 83.2031 148.133 83.056 148.26 82.9336C148.39 82.8112 148.545 82.75 148.725 82.75C148.905 82.75 149.058 82.8112 149.186 82.9336C149.316 83.056 149.381 83.2031 149.381 83.375C149.381 83.5469 149.316 83.694 149.186 83.8164C149.058 83.9388 148.905 84 148.725 84ZM153.289 93.375C152.843 93.375 152.46 93.3177 152.14 93.2031C151.82 93.0911 151.553 92.9427 151.339 92.7578C151.128 92.5755 150.96 92.3802 150.835 92.1719L151.57 91.6563C151.653 91.7656 151.759 91.8906 151.886 92.0312C152.014 92.1745 152.188 92.2982 152.41 92.4023C152.634 92.5091 152.927 92.5625 153.289 92.5625C153.773 92.5625 154.173 92.4453 154.488 92.2109C154.803 91.9766 154.96 91.6094 154.96 91.1094V89.8906H154.882C154.815 90 154.718 90.1354 154.593 90.2969C154.471 90.4557 154.294 90.5977 154.062 90.7227C153.833 90.8451 153.523 90.9062 153.132 90.9062C152.648 90.9062 152.213 90.7917 151.828 90.5625C151.445 90.3333 151.141 90 150.917 89.5625C150.696 89.125 150.585 88.5937 150.585 87.9687C150.585 87.3542 150.694 86.819 150.91 86.3633C151.126 85.9049 151.427 85.5508 151.812 85.3008C152.197 85.0482 152.643 84.9219 153.148 84.9219C153.539 84.9219 153.848 84.987 154.078 85.1172C154.309 85.2448 154.486 85.3906 154.609 85.5547C154.734 85.7161 154.83 85.849 154.898 85.9531H154.992V85H155.882V91.1719C155.882 91.6875 155.765 92.1068 155.531 92.4297C155.299 92.7552 154.986 92.9935 154.593 93.1445C154.203 93.2982 153.768 93.375 153.289 93.375ZM153.257 90.0781C153.627 90.0781 153.94 89.9935 154.195 89.8242C154.45 89.6549 154.644 89.4115 154.777 89.0938C154.91 88.776 154.976 88.3958 154.976 87.9531C154.976 87.5208 154.911 87.1393 154.781 86.8086C154.651 86.4779 154.458 86.2187 154.203 86.0312C153.947 85.8437 153.632 85.75 153.257 85.75C152.867 85.75 152.541 85.849 152.281 86.0469C152.023 86.2448 151.829 86.5104 151.699 86.8438C151.571 87.1771 151.507 87.5469 151.507 87.9531C151.507 88.3698 151.572 88.7383 151.703 89.0586C151.835 89.3763 152.031 89.6263 152.289 89.8086C152.549 89.9883 152.872 90.0781 153.257 90.0781ZM158.492 87.3906V91H157.57V83H158.492V85.9375H158.57C158.71 85.6276 158.921 85.3815 159.203 85.1992C159.486 85.0143 159.864 84.9219 160.335 84.9219C160.744 84.9219 161.102 85.0039 161.41 85.168C161.717 85.3294 161.955 85.5781 162.125 85.9141C162.296 86.2474 162.382 86.6719 162.382 87.1875V91H161.46V87.25C161.46 86.7734 161.337 86.4049 161.089 86.1445C160.845 85.8815 160.505 85.75 160.07 85.75C159.768 85.75 159.497 85.8138 159.257 85.9414C159.02 86.069 158.833 86.2552 158.695 86.5C158.559 86.7448 158.492 87.0417 158.492 87.3906ZM166.584 91.125C166.006 91.125 165.508 90.9974 165.088 90.7422C164.672 90.4844 164.35 90.125 164.124 89.6641C163.9 89.2005 163.788 88.6615 163.788 88.0469C163.788 87.4323 163.9 86.8906 164.124 86.4219C164.35 85.9505 164.665 85.5833 165.069 85.3203C165.475 85.0547 165.949 84.9219 166.491 84.9219C166.803 84.9219 167.112 84.974 167.417 85.0781C167.721 85.1823 167.999 85.3516 168.249 85.5859C168.499 85.8177 168.698 86.125 168.846 86.5078C168.995 86.8906 169.069 87.362 169.069 87.9219V88.3125H164.444V87.5156H168.131C168.131 87.1771 168.064 86.875 167.928 86.6094C167.795 86.3437 167.605 86.1341 167.358 85.9805C167.113 85.8268 166.824 85.75 166.491 85.75C166.124 85.75 165.806 85.8411 165.538 86.0234C165.272 86.2031 165.068 86.4375 164.924 86.7266C164.781 87.0156 164.709 87.3255 164.709 87.6562V88.1875C164.709 88.6406 164.788 89.0247 164.944 89.3398C165.103 89.6523 165.323 89.8906 165.604 90.0547C165.885 90.2161 166.212 90.2969 166.584 90.2969C166.827 90.2969 167.045 90.263 167.241 90.1953C167.439 90.125 167.609 90.0208 167.752 89.8828C167.896 89.7422 168.006 89.5677 168.084 89.3594L168.975 89.6094C168.881 89.9115 168.724 90.1771 168.502 90.4062C168.281 90.6328 168.008 90.8099 167.682 90.9375C167.357 91.0625 166.991 91.125 166.584 91.125ZM170.471 91V85H171.362V85.9062H171.424C171.534 85.6094 171.732 85.3685 172.018 85.1836C172.305 84.9987 172.627 84.9062 172.987 84.9062C173.055 84.9062 173.139 84.9076 173.241 84.9102C173.342 84.9128 173.419 84.9167 173.471 84.9219V85.8594C173.44 85.8516 173.368 85.8398 173.256 85.8242C173.147 85.806 173.031 85.7969 172.909 85.7969C172.617 85.7969 172.357 85.8581 172.127 85.9805C171.901 86.1003 171.721 86.2669 171.588 86.4805C171.458 86.6914 171.393 86.9323 171.393 87.2031V91H170.471ZM177.783 91V83H182.611V83.8594H178.751V86.5625H182.361V87.4219H178.751V90.1406H182.673V91H177.783ZM186.498 91.125C185.998 91.125 185.556 90.9987 185.173 90.7461C184.791 90.4909 184.491 90.1315 184.275 89.668C184.059 89.2018 183.951 88.651 183.951 88.0156C183.951 87.3854 184.059 86.8385 184.275 86.375C184.491 85.9115 184.792 85.5534 185.177 85.3008C185.563 85.0482 186.008 84.9219 186.513 84.9219C186.904 84.9219 187.212 84.987 187.439 85.1172C187.668 85.2448 187.843 85.3906 187.962 85.5547C188.085 85.7161 188.18 85.849 188.248 85.9531H188.326V83H189.248V91H188.357V90.0781H188.248C188.18 90.1875 188.083 90.3255 187.958 90.4922C187.833 90.6562 187.655 90.8034 187.423 90.9336C187.192 91.0612 186.883 91.125 186.498 91.125ZM186.623 90.2969C186.992 90.2969 187.305 90.2005 187.56 90.0078C187.815 89.8125 188.009 89.543 188.142 89.1992C188.275 88.8529 188.341 88.4531 188.341 88C188.341 87.5521 188.276 87.1602 188.146 86.8242C188.016 86.4857 187.823 86.2227 187.568 86.0352C187.313 85.8451 186.998 85.75 186.623 85.75C186.232 85.75 185.906 85.8503 185.646 86.0508C185.388 86.2487 185.194 86.5182 185.064 86.8594C184.936 87.1979 184.873 87.5781 184.873 88C184.873 88.4271 184.938 88.8151 185.068 89.1641C185.201 89.5104 185.396 89.7865 185.654 89.9922C185.914 90.1953 186.237 90.2969 186.623 90.2969ZM194.845 88.5469V85H195.767V91H194.845V89.9844H194.783C194.642 90.2891 194.423 90.5482 194.126 90.7617C193.83 90.9727 193.455 91.0781 193.001 91.0781C192.626 91.0781 192.293 90.9961 192.001 90.832C191.71 90.6654 191.481 90.4154 191.314 90.082C191.147 89.7461 191.064 89.3229 191.064 88.8125V85H191.986V88.75C191.986 89.1875 192.108 89.5365 192.353 89.7969C192.6 90.0573 192.916 90.1875 193.298 90.1875C193.528 90.1875 193.761 90.1289 193.998 90.0117C194.237 89.8945 194.438 89.7148 194.599 89.4727C194.763 89.2305 194.845 88.9219 194.845 88.5469ZM199.893 91.125C199.331 91.125 198.846 90.9922 198.44 90.7266C198.034 90.4609 197.721 90.0951 197.502 89.6289C197.284 89.1628 197.174 88.6302 197.174 88.0312C197.174 87.4219 197.286 86.8841 197.51 86.418C197.737 85.9492 198.052 85.5833 198.456 85.3203C198.862 85.0547 199.336 84.9219 199.877 84.9219C200.299 84.9219 200.68 85 201.018 85.1562C201.357 85.3125 201.634 85.5312 201.85 85.8125C202.066 86.0937 202.2 86.4219 202.252 86.7969H201.331C201.26 86.5234 201.104 86.2812 200.862 86.0703C200.622 85.8568 200.299 85.75 199.893 85.75C199.534 85.75 199.219 85.8437 198.948 86.0312C198.68 86.2161 198.47 86.4779 198.319 86.8164C198.17 87.1523 198.096 87.5469 198.096 88C198.096 88.4635 198.169 88.8672 198.315 89.2109C198.463 89.5547 198.672 89.8216 198.94 90.0117C199.211 90.2018 199.528 90.2969 199.893 90.2969C200.133 90.2969 200.35 90.2552 200.545 90.1719C200.741 90.0885 200.906 89.9688 201.042 89.8125C201.177 89.6562 201.273 89.4687 201.331 89.25H202.252C202.2 89.6042 202.071 89.9232 201.866 90.207C201.663 90.4883 201.393 90.7122 201.057 90.8789C200.724 91.043 200.336 91.125 199.893 91.125ZM205.366 91.1406C204.986 91.1406 204.64 91.069 204.331 90.9258C204.021 90.7799 203.775 90.5703 203.592 90.2969C203.41 90.0208 203.319 89.6875 203.319 89.2969C203.319 88.9531 203.387 88.6745 203.522 88.4609C203.657 88.2448 203.838 88.0755 204.065 87.9531C204.292 87.8307 204.542 87.7396 204.815 87.6797C205.091 87.6172 205.368 87.5677 205.647 87.5313C206.012 87.4844 206.307 87.4492 206.534 87.4258C206.763 87.3997 206.93 87.3568 207.034 87.2969C207.14 87.237 207.194 87.1328 207.194 86.9844V86.9531C207.194 86.5677 207.088 86.2682 206.877 86.0547C206.669 85.8411 206.353 85.7344 205.928 85.7344C205.488 85.7344 205.143 85.8307 204.893 86.0234C204.643 86.2161 204.467 86.4219 204.366 86.6406L203.491 86.3281C203.647 85.9635 203.855 85.6797 204.116 85.4766C204.379 85.2708 204.665 85.1276 204.975 85.0469C205.288 84.9635 205.595 84.9219 205.897 84.9219C206.09 84.9219 206.311 84.9453 206.561 84.9922C206.814 85.0365 207.057 85.1289 207.292 85.2695C207.528 85.4102 207.725 85.6224 207.881 85.9062C208.038 86.1901 208.116 86.5703 208.116 87.0469V91H207.194V90.1875H207.147C207.084 90.3177 206.98 90.457 206.834 90.6055C206.689 90.7539 206.495 90.8802 206.252 90.9844C206.01 91.0885 205.715 91.1406 205.366 91.1406ZM205.506 90.3125C205.871 90.3125 206.178 90.2409 206.428 90.0977C206.681 89.9544 206.871 89.7695 206.999 89.543C207.129 89.3164 207.194 89.0781 207.194 88.8281V87.9844C207.155 88.0312 207.069 88.0742 206.936 88.1133C206.806 88.1497 206.655 88.1823 206.483 88.2109C206.314 88.237 206.148 88.2604 205.987 88.2812C205.828 88.2995 205.699 88.3151 205.6 88.3281C205.361 88.3594 205.137 88.4102 204.928 88.4805C204.722 88.5482 204.556 88.651 204.428 88.7891C204.303 88.9245 204.241 89.1094 204.241 89.3437C204.241 89.6641 204.359 89.9062 204.596 90.0703C204.836 90.2318 205.139 90.3125 205.506 90.3125ZM212.408 85V85.7812H209.298V85H212.408ZM210.205 83.5625H211.126V89.2812C211.126 89.5417 211.164 89.737 211.24 89.8672C211.318 89.9948 211.417 90.0807 211.537 90.125C211.659 90.1667 211.788 90.1875 211.923 90.1875C212.025 90.1875 212.108 90.1823 212.173 90.1719C212.238 90.1589 212.291 90.1484 212.33 90.1406L212.517 90.9687C212.455 90.9922 212.367 91.0156 212.255 91.0391C212.143 91.0651 212.001 91.0781 211.83 91.0781C211.569 91.0781 211.314 91.0221 211.064 90.9102C210.817 90.7982 210.611 90.6276 210.447 90.3984C210.285 90.1693 210.205 89.8802 210.205 89.5312V83.5625ZM213.794 91V85H214.716V91H213.794ZM214.263 84C214.083 84 213.929 83.9388 213.798 83.8164C213.671 83.694 213.607 83.5469 213.607 83.375C213.607 83.2031 213.671 83.056 213.798 82.9336C213.929 82.8112 214.083 82.75 214.263 82.75C214.443 82.75 214.597 82.8112 214.724 82.9336C214.854 83.056 214.919 83.2031 214.919 83.375C214.919 83.5469 214.854 83.694 214.724 83.8164C214.597 83.9388 214.443 84 214.263 84ZM218.842 91.125C218.301 91.125 217.825 90.9961 217.417 90.7383C217.01 90.4805 216.693 90.1198 216.463 89.6562C216.237 89.1927 216.124 88.651 216.124 88.0312C216.124 87.4062 216.237 86.8607 216.463 86.3945C216.693 85.9284 217.01 85.5664 217.417 85.3086C217.825 85.0508 218.301 84.9219 218.842 84.9219C219.384 84.9219 219.858 85.0508 220.264 85.3086C220.673 85.5664 220.991 85.9284 221.217 86.3945C221.446 86.8607 221.561 87.4062 221.561 88.0312C221.561 88.651 221.446 89.1927 221.217 89.6562C220.991 90.1198 220.673 90.4805 220.264 90.7383C219.858 90.9961 219.384 91.125 218.842 91.125ZM218.842 90.2969C219.254 90.2969 219.592 90.1914 219.858 89.9805C220.124 89.7695 220.32 89.4922 220.448 89.1484C220.575 88.8047 220.639 88.4323 220.639 88.0312C220.639 87.6302 220.575 87.2565 220.448 86.9102C220.32 86.5638 220.124 86.2839 219.858 86.0703C219.592 85.8568 219.254 85.75 218.842 85.75C218.431 85.75 218.092 85.8568 217.827 86.0703C217.561 86.2839 217.364 86.5638 217.237 86.9102C217.109 87.2565 217.045 87.6302 217.045 88.0312C217.045 88.4323 217.109 88.8047 217.237 89.1484C217.364 89.4922 217.561 89.7695 217.827 89.9805C218.092 90.1914 218.431 90.2969 218.842 90.2969ZM223.89 87.3906V91H222.968V85H223.859V85.9375H223.937C224.078 85.6328 224.291 85.388 224.578 85.2031C224.864 85.0156 225.234 84.9219 225.687 84.9219C226.093 84.9219 226.449 85.0052 226.753 85.1719C227.058 85.3359 227.295 85.5859 227.464 85.9219C227.634 86.2552 227.718 86.6771 227.718 87.1875V91H226.796V87.25C226.796 86.7786 226.674 86.4115 226.429 86.1484C226.184 85.8828 225.848 85.75 225.421 85.75C225.127 85.75 224.864 85.8138 224.632 85.9414C224.403 86.069 224.222 86.2552 224.089 86.5C223.957 86.7448 223.89 87.0417 223.89 87.3906ZM234.762 91.1094C234.236 91.1094 233.783 91.013 233.403 90.8203C233.023 90.6276 232.73 90.3633 232.524 90.0273C232.318 89.6914 232.215 89.3073 232.215 88.875C232.215 88.5417 232.286 88.2461 232.426 87.9883C232.569 87.7279 232.766 87.487 233.016 87.2656C233.269 87.0417 233.559 86.8177 233.887 86.5937L235.043 85.7344C235.27 85.5859 235.451 85.4271 235.586 85.2578C235.724 85.0885 235.793 84.8672 235.793 84.5937C235.793 84.3906 235.704 84.194 235.524 84.0039C235.347 83.8138 235.114 83.7188 234.825 83.7188C234.622 83.7188 234.442 83.7708 234.286 83.875C234.132 83.9766 234.011 84.1068 233.922 84.2656C233.836 84.4219 233.793 84.5833 233.793 84.75C233.793 84.9375 233.844 85.1276 233.946 85.3203C234.05 85.5104 234.181 85.7057 234.34 85.9062C234.502 86.1042 234.668 86.3073 234.84 86.5156L238.512 91H237.403L234.372 87.3437C234.09 87.0052 233.835 86.6979 233.606 86.4219C233.377 86.1458 233.194 85.8737 233.059 85.6055C232.924 85.3372 232.856 85.0469 232.856 84.7344C232.856 84.375 232.935 84.0599 233.094 83.7891C233.256 83.5156 233.481 83.3034 233.77 83.1523C234.062 82.9987 234.403 82.9219 234.793 82.9219C235.194 82.9219 235.54 83 235.829 83.1562C236.118 83.3099 236.34 83.5143 236.497 83.7695C236.653 84.0221 236.731 84.2969 236.731 84.5937C236.731 84.9766 236.636 85.3086 236.446 85.5898C236.256 85.8711 235.997 86.1328 235.668 86.375L234.075 87.5625C233.715 87.8281 233.472 88.0859 233.344 88.3359C233.217 88.5859 233.153 88.7656 233.153 88.875C233.153 89.125 233.218 89.3581 233.348 89.5742C233.478 89.7904 233.662 89.9648 233.899 90.0977C234.136 90.2305 234.413 90.2969 234.731 90.2969C235.033 90.2969 235.327 90.2331 235.614 90.1055C235.9 89.9753 236.159 89.7878 236.391 89.543C236.625 89.2982 236.81 89.0039 236.946 88.6602C237.084 88.3164 237.153 87.9297 237.153 87.5H238.043C238.043 88.0312 237.982 88.4648 237.86 88.8008C237.737 89.1367 237.599 89.3997 237.446 89.5898C237.292 89.7799 237.168 89.9219 237.075 90.0156C237.043 90.0547 237.015 90.0937 236.989 90.1328C236.963 90.1719 236.934 90.2109 236.903 90.25C236.645 90.5391 236.319 90.7552 235.926 90.8984C235.533 91.0391 235.145 91.1094 234.762 91.1094ZM242.751 91V83H245.455C246.08 83 246.593 83.1068 246.994 83.3203C247.395 83.5312 247.692 83.8216 247.884 84.1914C248.077 84.5612 248.173 84.9818 248.173 85.4531C248.173 85.9245 248.077 86.3424 247.884 86.707C247.692 87.0716 247.396 87.3581 246.998 87.5664C246.599 87.7721 246.09 87.875 245.47 87.875H243.283V87H245.439C245.866 87 246.21 86.9375 246.47 86.8125C246.733 86.6875 246.923 86.5104 247.041 86.2812C247.16 86.0495 247.22 85.7734 247.22 85.4531C247.22 85.1328 247.16 84.8529 247.041 84.6133C246.921 84.3737 246.729 84.1888 246.466 84.0586C246.203 83.9258 245.856 83.8594 245.423 83.8594H243.72V91H242.751ZM246.517 87.4062L248.486 91H247.361L245.423 87.4062H246.517ZM252.114 91.125C251.536 91.125 251.037 90.9974 250.618 90.7422C250.201 90.4844 249.879 90.125 249.653 89.6641C249.429 89.2005 249.317 88.6615 249.317 88.0469C249.317 87.4323 249.429 86.8906 249.653 86.4219C249.879 85.9505 250.194 85.5833 250.598 85.3203C251.004 85.0547 251.478 84.9219 252.02 84.9219C252.333 84.9219 252.641 84.974 252.946 85.0781C253.25 85.1823 253.528 85.3516 253.778 85.5859C254.028 85.8177 254.227 86.125 254.375 86.5078C254.524 86.8906 254.598 87.362 254.598 87.9219V88.3125H249.973V87.5156H253.661C253.661 87.1771 253.593 86.875 253.458 86.6094C253.325 86.3437 253.135 86.1341 252.887 85.9805C252.642 85.8268 252.353 85.75 252.02 85.75C251.653 85.75 251.335 85.8411 251.067 86.0234C250.801 86.2031 250.597 86.4375 250.454 86.7266C250.31 87.0156 250.239 87.3255 250.239 87.6562V88.1875C250.239 88.6406 250.317 89.0247 250.473 89.3398C250.632 89.6523 250.852 89.8906 251.133 90.0547C251.415 90.2161 251.741 90.2969 252.114 90.2969C252.356 90.2969 252.575 90.263 252.77 90.1953C252.968 90.125 253.139 90.0208 253.282 89.8828C253.425 89.7422 253.536 89.5677 253.614 89.3594L254.504 89.6094C254.411 89.9115 254.253 90.1771 254.032 90.4062C253.81 90.6328 253.537 90.8099 253.211 90.9375C252.886 91.0625 252.52 91.125 252.114 91.125ZM260.25 86.3437L259.422 86.5781C259.37 86.4401 259.293 86.306 259.192 86.1758C259.093 86.043 258.958 85.9336 258.786 85.8477C258.614 85.7617 258.394 85.7187 258.125 85.7187C257.758 85.7187 257.452 85.8034 257.208 85.9727C256.965 86.1393 256.844 86.3516 256.844 86.6094C256.844 86.8385 256.928 87.0195 257.094 87.1523C257.261 87.2852 257.521 87.3958 257.875 87.4844L258.766 87.7031C259.303 87.8333 259.702 88.0326 259.965 88.3008C260.228 88.5664 260.36 88.9089 260.36 89.3281C260.36 89.6719 260.261 89.9792 260.063 90.25C259.868 90.5208 259.594 90.7344 259.243 90.8906C258.891 91.0469 258.482 91.125 258.016 91.125C257.404 91.125 256.898 90.9922 256.497 90.7266C256.096 90.4609 255.842 90.0729 255.735 89.5625L256.61 89.3437C256.693 89.6667 256.851 89.9089 257.083 90.0703C257.317 90.2318 257.623 90.3125 258 90.3125C258.43 90.3125 258.771 90.2214 259.024 90.0391C259.279 89.8542 259.407 89.6328 259.407 89.375C259.407 89.1667 259.334 88.9922 259.188 88.8516C259.042 88.7083 258.818 88.6016 258.516 88.5312L257.516 88.2969C256.967 88.1667 256.563 87.9648 256.305 87.6914C256.05 87.4154 255.922 87.0703 255.922 86.6562C255.922 86.3177 256.017 86.0182 256.208 85.7578C256.4 85.4974 256.662 85.293 256.993 85.1445C257.326 84.9961 257.704 84.9219 258.125 84.9219C258.719 84.9219 259.185 85.0521 259.524 85.3125C259.865 85.5729 260.107 85.9167 260.25 86.3437ZM264.263 91.125C263.685 91.125 263.186 90.9974 262.767 90.7422C262.35 90.4844 262.029 90.125 261.802 89.6641C261.578 89.2005 261.466 88.6615 261.466 88.0469C261.466 87.4323 261.578 86.8906 261.802 86.4219C262.029 85.9505 262.344 85.5833 262.748 85.3203C263.154 85.0547 263.628 84.9219 264.169 84.9219C264.482 84.9219 264.791 84.974 265.095 85.0781C265.4 85.1823 265.677 85.3516 265.927 85.5859C266.177 85.8177 266.376 86.125 266.525 86.5078C266.673 86.8906 266.748 87.362 266.748 87.9219V88.3125H262.123V87.5156H265.81C265.81 87.1771 265.742 86.875 265.607 86.6094C265.474 86.3437 265.284 86.1341 265.037 85.9805C264.792 85.8268 264.503 85.75 264.169 85.75C263.802 85.75 263.485 85.8411 263.216 86.0234C262.951 86.2031 262.746 86.4375 262.603 86.7266C262.46 87.0156 262.388 87.3255 262.388 87.6562V88.1875C262.388 88.6406 262.466 89.0247 262.623 89.3398C262.781 89.6523 263.001 89.8906 263.283 90.0547C263.564 90.2161 263.891 90.2969 264.263 90.2969C264.505 90.2969 264.724 90.263 264.919 90.1953C265.117 90.125 265.288 90.0208 265.431 89.8828C265.574 89.7422 265.685 89.5677 265.763 89.3594L266.654 89.6094C266.56 89.9115 266.403 90.1771 266.181 90.4062C265.96 90.6328 265.686 90.8099 265.361 90.9375C265.035 91.0625 264.669 91.125 264.263 91.125ZM269.916 91.1406C269.535 91.1406 269.19 91.069 268.88 90.9258C268.57 90.7799 268.324 90.5703 268.142 90.2969C267.96 90.0208 267.869 89.6875 267.869 89.2969C267.869 88.9531 267.936 88.6745 268.072 88.4609C268.207 88.2448 268.388 88.0755 268.615 87.9531C268.841 87.8307 269.091 87.7396 269.365 87.6797C269.641 87.6172 269.918 87.5677 270.197 87.5313C270.561 87.4844 270.857 87.4492 271.083 87.4258C271.313 87.3997 271.479 87.3568 271.583 87.2969C271.69 87.237 271.744 87.1328 271.744 86.9844V86.9531C271.744 86.5677 271.638 86.2682 271.427 86.0547C271.219 85.8411 270.903 85.7344 270.478 85.7344C270.038 85.7344 269.693 85.8307 269.443 86.0234C269.193 86.2161 269.017 86.4219 268.916 86.6406L268.041 86.3281C268.197 85.9635 268.405 85.6797 268.666 85.4766C268.929 85.2708 269.215 85.1276 269.525 85.0469C269.837 84.9635 270.145 84.9219 270.447 84.9219C270.639 84.9219 270.861 84.9453 271.111 84.9922C271.363 85.0365 271.607 85.1289 271.841 85.2695C272.078 85.4102 272.275 85.6224 272.431 85.9062C272.587 86.1901 272.666 86.5703 272.666 87.0469V91H271.744V90.1875H271.697C271.634 90.3177 271.53 90.457 271.384 90.6055C271.238 90.7539 271.044 90.8802 270.802 90.9844C270.56 91.0885 270.264 91.1406 269.916 91.1406ZM270.056 90.3125C270.421 90.3125 270.728 90.2409 270.978 90.0977C271.231 89.9544 271.421 89.7695 271.548 89.543C271.679 89.3164 271.744 89.0781 271.744 88.8281V87.9844C271.705 88.0312 271.619 88.0742 271.486 88.1133C271.356 88.1497 271.205 88.1823 271.033 88.2109C270.863 88.237 270.698 88.2604 270.537 88.2812C270.378 88.2995 270.249 88.3151 270.15 88.3281C269.91 88.3594 269.686 88.4102 269.478 88.4805C269.272 88.5482 269.106 88.651 268.978 88.7891C268.853 88.9245 268.791 89.1094 268.791 89.3437C268.791 89.6641 268.909 89.9062 269.146 90.0703C269.386 90.2318 269.689 90.3125 270.056 90.3125ZM274.348 91V85H275.239V85.9062H275.301C275.411 85.6094 275.609 85.3685 275.895 85.1836C276.181 84.9987 276.504 84.9062 276.864 84.9062C276.931 84.9062 277.016 84.9076 277.118 84.9102C277.219 84.9128 277.296 84.9167 277.348 84.9219V85.8594C277.317 85.8516 277.245 85.8398 277.133 85.8242C277.024 85.806 276.908 85.7969 276.786 85.7969C276.494 85.7969 276.234 85.8581 276.004 85.9805C275.778 86.1003 275.598 86.2669 275.465 86.4805C275.335 86.6914 275.27 86.9323 275.27 87.2031V91H274.348ZM280.696 91.125C280.133 91.125 279.649 90.9922 279.243 90.7266C278.836 90.4609 278.524 90.0951 278.305 89.6289C278.086 89.1628 277.977 88.6302 277.977 88.0312C277.977 87.4219 278.089 86.8841 278.313 86.418C278.54 85.9492 278.855 85.5833 279.258 85.3203C279.665 85.0547 280.139 84.9219 280.68 84.9219C281.102 84.9219 281.482 85 281.821 85.1562C282.159 85.3125 282.437 85.5312 282.653 85.8125C282.869 86.0937 283.003 86.4219 283.055 86.7969H282.133C282.063 86.5234 281.907 86.2812 281.665 86.0703C281.425 85.8568 281.102 85.75 280.696 85.75C280.336 85.75 280.021 85.8437 279.75 86.0312C279.482 86.2161 279.273 86.4779 279.122 86.8164C278.973 87.1523 278.899 87.5469 278.899 88C278.899 88.4635 278.972 88.8672 279.118 89.2109C279.266 89.5547 279.474 89.8216 279.743 90.0117C280.014 90.2018 280.331 90.2969 280.696 90.2969C280.935 90.2969 281.153 90.2552 281.348 90.1719C281.543 90.0885 281.709 89.9688 281.844 89.8125C281.98 89.6562 282.076 89.4687 282.133 89.25H283.055C283.003 89.6042 282.874 89.9232 282.668 90.207C282.465 90.4883 282.196 90.7122 281.86 90.8789C281.527 91.043 281.139 91.125 280.696 91.125ZM285.325 87.3906V91H284.403V83H285.325V85.9375H285.403C285.543 85.6276 285.754 85.3815 286.036 85.1992C286.319 85.0143 286.697 84.9219 287.168 84.9219C287.577 84.9219 287.935 85.0039 288.243 85.168C288.55 85.3294 288.788 85.5781 288.958 85.9141C289.129 86.2474 289.215 86.6719 289.215 87.1875V91H288.293V87.25C288.293 86.7734 288.17 86.4049 287.922 86.1445C287.678 85.8815 287.338 85.75 286.903 85.75C286.601 85.75 286.33 85.8138 286.09 85.9414C285.853 86.069 285.666 86.2552 285.528 86.5C285.392 86.7448 285.325 87.0417 285.325 87.3906ZM292.277 89.9062L292.214 90.3281C292.17 90.625 292.102 90.9427 292.011 91.2813C291.923 91.6198 291.83 91.9388 291.734 92.2383C291.638 92.5378 291.558 92.776 291.496 92.9531H290.792C290.826 92.7865 290.871 92.5664 290.925 92.293C290.98 92.0195 291.035 91.7135 291.089 91.375C291.147 91.0391 291.194 90.6953 291.23 90.3437L291.277 89.9062H292.277ZM134.162 104L131.974 96H132.958L134.63 102.516H134.708L136.412 96H137.505L139.208 102.516H139.287L140.958 96H141.943L139.755 104H138.755L136.99 97.625H136.927L135.162 104H134.162ZM144.232 104.141C143.852 104.141 143.507 104.069 143.197 103.926C142.887 103.78 142.641 103.57 142.458 103.297C142.276 103.021 142.185 102.687 142.185 102.297C142.185 101.953 142.253 101.674 142.388 101.461C142.524 101.245 142.705 101.076 142.931 100.953C143.158 100.831 143.408 100.74 143.681 100.68C143.957 100.617 144.235 100.568 144.513 100.531C144.878 100.484 145.173 100.449 145.4 100.426C145.629 100.4 145.796 100.357 145.9 100.297C146.007 100.237 146.06 100.133 146.06 99.9844V99.9531C146.06 99.5677 145.955 99.2682 145.744 99.0547C145.535 98.8411 145.219 98.7344 144.794 98.7344C144.354 98.7344 144.009 98.8307 143.759 99.0234C143.509 99.2161 143.333 99.4219 143.232 99.6406L142.357 99.3281C142.513 98.9635 142.722 98.6797 142.982 98.4766C143.245 98.2708 143.531 98.1276 143.841 98.0469C144.154 97.9635 144.461 97.9219 144.763 97.9219C144.956 97.9219 145.177 97.9453 145.427 97.9922C145.68 98.0365 145.923 98.1289 146.158 98.2695C146.395 98.4102 146.591 98.6224 146.748 98.9062C146.904 99.1901 146.982 99.5703 146.982 100.047V104H146.06V103.187H146.013C145.951 103.318 145.847 103.457 145.701 103.605C145.555 103.754 145.361 103.88 145.119 103.984C144.876 104.089 144.581 104.141 144.232 104.141ZM144.373 103.312C144.737 103.312 145.044 103.241 145.294 103.098C145.547 102.954 145.737 102.77 145.865 102.543C145.995 102.316 146.06 102.078 146.06 101.828V100.984C146.021 101.031 145.935 101.074 145.802 101.113C145.672 101.15 145.521 101.182 145.349 101.211C145.18 101.237 145.014 101.26 144.853 101.281C144.694 101.299 144.565 101.315 144.466 101.328C144.227 101.359 144.003 101.41 143.794 101.48C143.589 101.548 143.422 101.651 143.294 101.789C143.169 101.924 143.107 102.109 143.107 102.344C143.107 102.664 143.225 102.906 143.462 103.07C143.702 103.232 144.005 103.312 144.373 103.312ZM148.665 104V98H149.555V98.9062H149.618C149.727 98.6094 149.925 98.3685 150.211 98.1836C150.498 97.9987 150.821 97.9062 151.18 97.9062C151.248 97.9062 151.333 97.9076 151.434 97.9102C151.536 97.9128 151.612 97.9167 151.665 97.9219V98.8594C151.633 98.8516 151.562 98.8398 151.45 98.8242C151.34 98.806 151.224 98.7969 151.102 98.7969C150.81 98.7969 150.55 98.8581 150.321 98.9805C150.094 99.1003 149.915 99.2669 149.782 99.4805C149.652 99.6914 149.586 99.9323 149.586 100.203V104H148.665ZM154.84 104.125C154.34 104.125 153.899 103.999 153.516 103.746C153.133 103.491 152.834 103.132 152.618 102.668C152.402 102.202 152.293 101.651 152.293 101.016C152.293 100.385 152.402 99.8385 152.618 99.375C152.834 98.9115 153.135 98.5534 153.52 98.3008C153.905 98.0482 154.351 97.9219 154.856 97.9219C155.247 97.9219 155.555 97.987 155.782 98.1172C156.011 98.2448 156.185 98.3906 156.305 98.5547C156.428 98.7161 156.523 98.849 156.59 98.9531H156.668V96H157.59V104H156.7V103.078H156.59C156.523 103.187 156.426 103.326 156.301 103.492C156.176 103.656 155.998 103.803 155.766 103.934C155.534 104.061 155.226 104.125 154.84 104.125ZM154.965 103.297C155.335 103.297 155.648 103.201 155.903 103.008C156.158 102.812 156.352 102.543 156.485 102.199C156.618 101.853 156.684 101.453 156.684 101C156.684 100.552 156.619 100.16 156.489 99.8242C156.359 99.4857 156.166 99.2227 155.911 99.0352C155.655 98.8451 155.34 98.75 154.965 98.75C154.575 98.75 154.249 98.8503 153.989 99.0508C153.731 99.2487 153.537 99.5182 153.407 99.8594C153.279 100.198 153.215 100.578 153.215 101C153.215 101.427 153.28 101.815 153.411 102.164C153.543 102.51 153.739 102.786 153.997 102.992C154.257 103.195 154.58 103.297 154.965 103.297ZM160.329 100.391V104H159.407V96H160.329V98.9375H160.407C160.547 98.6276 160.758 98.3815 161.04 98.1992C161.323 98.0143 161.701 97.9219 162.172 97.9219C162.581 97.9219 162.939 98.0039 163.247 98.168C163.554 98.3294 163.792 98.5781 163.961 98.9141C164.133 99.2474 164.219 99.6719 164.219 100.188V104H163.297V100.25C163.297 99.7734 163.174 99.4049 162.926 99.1445C162.681 98.8815 162.342 98.75 161.907 98.75C161.605 98.75 161.334 98.8138 161.094 98.9414C160.857 99.069 160.67 99.2552 160.532 99.5C160.396 99.7448 160.329 100.042 160.329 100.391ZM167.671 104.141C167.291 104.141 166.946 104.069 166.636 103.926C166.326 103.78 166.08 103.57 165.898 103.297C165.716 103.021 165.625 102.687 165.625 102.297C165.625 101.953 165.692 101.674 165.828 101.461C165.963 101.245 166.144 101.076 166.371 100.953C166.597 100.831 166.847 100.74 167.121 100.68C167.397 100.617 167.674 100.568 167.953 100.531C168.317 100.484 168.613 100.449 168.839 100.426C169.069 100.4 169.235 100.357 169.339 100.297C169.446 100.237 169.5 100.133 169.5 99.9844V99.9531C169.5 99.5677 169.394 99.2682 169.183 99.0547C168.975 98.8411 168.658 98.7344 168.234 98.7344C167.794 98.7344 167.449 98.8307 167.199 99.0234C166.949 99.2161 166.773 99.4219 166.671 99.6406L165.796 99.3281C165.953 98.9635 166.161 98.6797 166.421 98.4766C166.684 98.2708 166.971 98.1276 167.281 98.0469C167.593 97.9635 167.901 97.9219 168.203 97.9219C168.395 97.9219 168.617 97.9453 168.867 97.9922C169.119 98.0365 169.363 98.1289 169.597 98.2695C169.834 98.4102 170.031 98.6224 170.187 98.9062C170.343 99.1901 170.421 99.5703 170.421 100.047V104H169.5V103.187H169.453C169.39 103.318 169.286 103.457 169.14 103.605C168.994 103.754 168.8 103.88 168.558 103.984C168.316 104.089 168.02 104.141 167.671 104.141ZM167.812 103.312C168.177 103.312 168.484 103.241 168.734 103.098C168.986 102.954 169.177 102.77 169.304 102.543C169.434 102.316 169.5 102.078 169.5 101.828V100.984C169.46 101.031 169.375 101.074 169.242 101.113C169.111 101.15 168.96 101.182 168.789 101.211C168.619 101.237 168.454 101.26 168.292 101.281C168.134 101.299 168.005 101.315 167.906 101.328C167.666 101.359 167.442 101.41 167.234 101.48C167.028 101.548 166.861 101.651 166.734 101.789C166.609 101.924 166.546 102.109 166.546 102.344C166.546 102.664 166.665 102.906 166.902 103.07C167.141 103.232 167.445 103.312 167.812 103.312Z" fill="white"/>
</svg>
