<svg width="304" height="120" viewBox="0 0 304 120" fill="none" xmlns="http://www.w3.org/2000/svg">
<rect width="304" height="120" rx="6" fill="#313235"/>
<path d="M23.0871 75.1405C21.9783 75.1405 20.9564 74.8742 20.0216 74.3415C19.0867 73.8089 18.342 73.0805 17.7876 72.1565C17.2441 71.2217 16.9723 70.1835 16.9723 69.0421C16.9723 67.9007 17.2441 66.8679 17.7876 65.9439C18.342 65.0091 19.0867 64.2753 20.0216 63.7426C20.9564 63.21 21.9783 62.9436 23.0871 62.9436C23.9676 62.9436 24.7884 63.1012 25.5493 63.4165C26.3102 63.7317 26.9462 64.172 27.4571 64.7373L26.1852 66.0092C25.8048 65.5852 25.3482 65.2591 24.8155 65.0308C24.2937 64.8025 23.7122 64.6884 23.0708 64.6884C22.3207 64.6884 21.6195 64.8677 20.9673 65.2265C20.3151 65.5852 19.7933 66.0961 19.4019 66.7592C19.0106 67.4223 18.8149 68.1833 18.8149 69.0421C18.8149 69.9009 19.0106 70.6618 19.4019 71.3249C19.7933 71.988 20.3151 72.499 20.9673 72.8577C21.6195 73.2164 22.3261 73.3958 23.0871 73.3958C23.7828 73.3958 24.3644 73.2925 24.8318 73.086C25.2993 72.8794 25.7178 72.6022 26.0874 72.2544C26.3266 72.0152 26.5277 71.7163 26.6907 71.3575C26.8647 70.9988 26.9788 70.6075 27.0332 70.1835H23.0708V68.5529H28.7616C28.8159 68.8573 28.8431 69.1725 28.8431 69.4986C28.8431 70.2379 28.729 70.9499 28.5007 71.6347C28.2724 72.3087 27.9082 72.8957 27.4082 73.3958C26.3102 74.559 24.8699 75.1405 23.0871 75.1405ZM34.4753 75.1405C33.6383 75.1405 32.8882 74.9503 32.2251 74.5698C31.562 74.1785 31.0456 73.6458 30.676 72.9718C30.3064 72.2979 30.1216 71.5478 30.1216 70.7216C30.1216 69.8954 30.3064 69.1454 30.676 68.4714C31.0456 67.7974 31.562 67.2702 32.2251 66.8897C32.8882 66.4983 33.6383 66.3027 34.4753 66.3027C35.3124 66.3027 36.0624 66.4983 36.7256 66.8897C37.3887 67.281 37.905 67.8137 38.2746 68.4877C38.6442 69.1617 38.829 69.9063 38.829 70.7216C38.829 71.5478 38.6442 72.2979 38.2746 72.9718C37.905 73.6458 37.3887 74.1785 36.7256 74.5698C36.0624 74.9503 35.3124 75.1405 34.4753 75.1405ZM34.4753 73.4936C34.9319 73.4936 35.3559 73.3849 35.7472 73.1675C36.1385 72.9392 36.4484 72.6185 36.6766 72.2054C36.9158 71.7815 37.0354 71.2869 37.0354 70.7216C37.0354 70.1563 36.9158 69.6671 36.6766 69.2541C36.4484 68.841 36.1385 68.5257 35.7472 68.3083C35.3559 68.08 34.9319 67.9659 34.4753 67.9659C34.0188 67.9659 33.5948 68.08 33.2035 68.3083C32.8121 68.5257 32.4969 68.841 32.2577 69.2541C32.0294 69.6671 31.9153 70.1563 31.9153 70.7216C31.9153 71.2869 32.0294 71.7815 32.2577 72.2054C32.4969 72.6185 32.8121 72.9392 33.2035 73.1675C33.5948 73.3849 34.0188 73.4936 34.4753 73.4936ZM44.38 75.1405C43.5429 75.1405 42.7928 74.9503 42.1297 74.5698C41.4666 74.1785 40.9503 73.6458 40.5807 72.9718C40.2111 72.2979 40.0263 71.5478 40.0263 70.7216C40.0263 69.8954 40.2111 69.1454 40.5807 68.4714C40.9503 67.7974 41.4666 67.2702 42.1297 66.8897C42.7928 66.4983 43.5429 66.3027 44.38 66.3027C45.217 66.3027 45.9671 66.4983 46.6302 66.8897C47.2933 67.281 47.8097 67.8137 48.1793 68.4877C48.5489 69.1617 48.7337 69.9063 48.7337 70.7216C48.7337 71.5478 48.5489 72.2979 48.1793 72.9718C47.8097 73.6458 47.2933 74.1785 46.6302 74.5698C45.9671 74.9503 45.217 75.1405 44.38 75.1405ZM44.38 73.4936C44.8365 73.4936 45.2605 73.3849 45.6518 73.1675C46.0432 72.9392 46.353 72.6185 46.5813 72.2054C46.8204 71.7815 46.94 71.2869 46.94 70.7216C46.94 70.1563 46.8204 69.6671 46.5813 69.2541C46.353 68.841 46.0432 68.5257 45.6518 68.3083C45.2605 68.08 44.8365 67.9659 44.38 67.9659C43.9234 67.9659 43.4994 68.08 43.1081 68.3083C42.7167 68.5257 42.4015 68.841 42.1623 69.2541C41.9341 69.6671 41.8199 70.1563 41.8199 70.7216C41.8199 71.2869 41.9341 71.7815 42.1623 72.2054C42.4015 72.6185 42.7167 72.9392 43.1081 73.1675C43.4994 73.3849 43.9234 73.4936 44.38 73.4936ZM54.1378 78.6626C53.116 78.6626 52.2681 78.4289 51.5941 77.9615C50.931 77.494 50.4853 76.9396 50.257 76.2983L51.9365 75.5971C52.1105 76.0319 52.3877 76.3798 52.7681 76.6407C53.1595 76.9125 53.6161 77.0483 54.1378 77.0483C54.8988 77.0483 55.4912 76.8201 55.9152 76.3635C56.35 75.9178 56.5674 75.2873 56.5674 74.472V73.7056H56.4696C56.1978 74.0969 55.8337 74.4068 55.3771 74.635C54.9314 74.8525 54.4151 74.9612 53.828 74.9612C53.1323 74.9612 52.4855 74.7818 51.8876 74.4231C51.2897 74.0643 50.8114 73.5589 50.4527 72.9066C50.1048 72.2435 49.9309 71.488 49.9309 70.6401C49.9309 69.7922 50.1048 69.0421 50.4527 68.3898C50.8114 67.7267 51.2897 67.2158 51.8876 66.8571C52.4855 66.4875 53.1323 66.3027 53.828 66.3027C54.4042 66.3027 54.9205 66.4168 55.3771 66.6451C55.8337 66.8734 56.1978 67.1832 56.4696 67.5745H56.5674V66.5636H58.2796V74.4231C58.2796 75.3253 58.1057 76.0917 57.7578 76.7222C57.4099 77.3636 56.9207 77.8473 56.2902 78.1735C55.6706 78.4996 54.9532 78.6626 54.1378 78.6626ZM54.1542 73.3306C54.589 73.3306 54.9912 73.2273 55.3608 73.0208C55.7304 72.8033 56.0239 72.4935 56.2413 72.0913C56.4587 71.6782 56.5674 71.1945 56.5674 70.6401C56.5674 69.7922 56.3337 69.1345 55.8663 68.667C55.4097 68.1887 54.839 67.9496 54.1542 67.9496C53.7085 67.9496 53.3008 68.0583 52.9312 68.2757C52.5616 68.4822 52.2681 68.7866 52.0507 69.1888C51.8333 69.591 51.7246 70.0748 51.7246 70.6401C51.7246 71.2053 51.8333 71.6891 52.0507 72.0913C52.2681 72.4935 52.5616 72.8033 52.9312 73.0208C53.3008 73.2273 53.7085 73.3306 54.1542 73.3306ZM60.3876 63.2045H62.1813V74.8796H60.3876V63.2045ZM68.0087 75.1405C67.1934 75.1405 66.4596 74.9503 65.8074 74.5698C65.166 74.1894 64.6605 73.6676 64.2909 73.0044C63.9322 72.3305 63.7528 71.5749 63.7528 70.7379C63.7528 69.9443 63.9267 69.2106 64.2746 68.5366C64.6333 67.8517 65.1279 67.3082 65.7584 66.906C66.3889 66.5038 67.1064 66.3027 67.9108 66.3027C68.7479 66.3027 69.4708 66.4875 70.0795 66.8571C70.6992 67.2267 71.1666 67.7322 71.4819 68.3735C71.808 69.0149 71.971 69.7378 71.971 70.5422C71.971 70.6944 71.9547 70.8847 71.9221 71.1129H65.5465C65.6117 71.8848 65.8835 72.4827 66.3618 72.9066C66.8509 73.3197 67.4162 73.5262 68.0576 73.5262C68.5685 73.5262 69.0088 73.4121 69.3784 73.1838C69.7589 72.9447 70.0632 72.624 70.2915 72.2218L71.808 72.9392C71.4166 73.6241 70.9057 74.1622 70.2752 74.5535C69.6447 74.9449 68.8892 75.1405 68.0087 75.1405ZM70.1448 69.7432C70.123 69.4497 70.0306 69.1617 69.8676 68.879C69.7045 68.5855 69.4545 68.3409 69.1175 68.1452C68.7914 67.9496 68.3892 67.8517 67.9108 67.8517C67.3347 67.8517 66.8455 68.0257 66.4433 68.3735C66.052 68.7105 65.7802 69.1671 65.628 69.7432H70.1448ZM77.7197 63.2045H81.4538C82.6604 63.2045 83.7149 63.4491 84.6171 63.9383C85.5194 64.4275 86.2097 65.1178 86.688 66.0092C87.1772 66.8897 87.4218 67.9007 87.4218 69.0421C87.4218 70.1835 87.1772 71.1999 86.688 72.0913C86.2097 72.9718 85.5194 73.6567 84.6171 74.1459C83.7149 74.635 82.6604 74.8796 81.4538 74.8796H77.7197V63.2045ZM81.4212 73.1349C82.7256 73.1349 83.742 72.7762 84.4704 72.0587C85.2096 71.3304 85.5792 70.3248 85.5792 69.0421C85.5792 67.7702 85.2096 66.7701 84.4704 66.0418C83.742 65.3134 82.7256 64.9493 81.4212 64.9493H79.546V73.1349H81.4212ZM92.7703 75.1405C91.955 75.1405 91.2212 74.9503 90.569 74.5698C89.9276 74.1894 89.4221 73.6676 89.0525 73.0044C88.6938 72.3305 88.5144 71.5749 88.5144 70.7379C88.5144 69.9443 88.6883 69.2106 89.0362 68.5366C89.3949 67.8517 89.8895 67.3082 90.52 66.906C91.1505 66.5038 91.868 66.3027 92.6724 66.3027C93.5095 66.3027 94.2324 66.4875 94.8411 66.8571C95.4608 67.2267 95.9282 67.7322 96.2435 68.3735C96.5696 69.0149 96.7326 69.7378 96.7326 70.5422C96.7326 70.6944 96.7163 70.8847 96.6837 71.1129H90.3081C90.3733 71.8848 90.6451 72.4827 91.1234 72.9066C91.6125 73.3197 92.1778 73.5262 92.8192 73.5262C93.3301 73.5262 93.7704 73.4121 94.14 73.1838C94.5205 72.9447 94.8248 72.624 95.0531 72.2218L96.5696 72.9392C96.1782 73.6241 95.6673 74.1622 95.0368 74.5535C94.4063 74.9449 93.6508 75.1405 92.7703 75.1405ZM94.9064 69.7432C94.8846 69.4497 94.7922 69.1617 94.6292 68.879C94.4661 68.5855 94.2161 68.3409 93.8791 68.1452C93.553 67.9496 93.1507 67.8517 92.6724 67.8517C92.0963 67.8517 91.6071 68.0257 91.2049 68.3735C90.8136 68.7105 90.5418 69.1671 90.3896 69.7432H94.9064ZM97.2774 66.5636H99.283L101.582 72.5642H101.647L103.995 66.5636H105.952L102.495 74.8796H100.702L97.2774 66.5636ZM110.669 75.1405C109.853 75.1405 109.12 74.9503 108.467 74.5698C107.826 74.1894 107.321 73.6676 106.951 73.0044C106.592 72.3305 106.413 71.5749 106.413 70.7379C106.413 69.9443 106.587 69.2106 106.935 68.5366C107.293 67.8517 107.788 67.3082 108.418 66.906C109.049 66.5038 109.766 66.3027 110.571 66.3027C111.408 66.3027 112.131 66.4875 112.74 66.8571C113.359 67.2267 113.827 67.7322 114.142 68.3735C114.468 69.0149 114.631 69.7378 114.631 70.5422C114.631 70.6944 114.615 70.8847 114.582 71.1129H108.206C108.272 71.8848 108.543 72.4827 109.022 72.9066C109.511 73.3197 110.076 73.5262 110.718 73.5262C111.229 73.5262 111.669 73.4121 112.038 73.1838C112.419 72.9447 112.723 72.624 112.952 72.2218L114.468 72.9392C114.077 73.6241 113.566 74.1622 112.935 74.5535C112.305 74.9449 111.549 75.1405 110.669 75.1405ZM112.805 69.7432C112.783 69.4497 112.691 69.1617 112.528 68.879C112.365 68.5855 112.114 68.3409 111.777 68.1452C111.451 67.9496 111.049 67.8517 110.571 67.8517C109.995 67.8517 109.506 68.0257 109.103 68.3735C108.712 68.7105 108.44 69.1671 108.288 69.7432H112.805ZM116.264 63.2045H118.058V74.8796H116.264V63.2045ZM123.983 75.1405C123.146 75.1405 122.396 74.9503 121.733 74.5698C121.07 74.1785 120.554 73.6458 120.184 72.9718C119.814 72.2979 119.63 71.5478 119.63 70.7216C119.63 69.8954 119.814 69.1454 120.184 68.4714C120.554 67.7974 121.07 67.2702 121.733 66.8897C122.396 66.4983 123.146 66.3027 123.983 66.3027C124.82 66.3027 125.57 66.4983 126.234 66.8897C126.897 67.281 127.413 67.8137 127.783 68.4877C128.152 69.1617 128.337 69.9063 128.337 70.7216C128.337 71.5478 128.152 72.2979 127.783 72.9718C127.413 73.6458 126.897 74.1785 126.234 74.5698C125.57 74.9503 124.82 75.1405 123.983 75.1405ZM123.983 73.4936C124.44 73.4936 124.864 73.3849 125.255 73.1675C125.647 72.9392 125.956 72.6185 126.185 72.2054C126.424 71.7815 126.543 71.2869 126.543 70.7216C126.543 70.1563 126.424 69.6671 126.185 69.2541C125.956 68.841 125.647 68.5257 125.255 68.3083C124.864 68.08 124.44 67.9659 123.983 67.9659C123.527 67.9659 123.103 68.08 122.711 68.3083C122.32 68.5257 122.005 68.841 121.766 69.2541C121.537 69.6671 121.423 70.1563 121.423 70.7216C121.423 71.2869 121.537 71.7815 121.766 72.2054C122.005 72.6185 122.32 72.9392 122.711 73.1675C123.103 73.3849 123.527 73.4936 123.983 73.4936ZM129.846 66.5636H131.558V67.6561H131.64C131.879 67.2756 132.232 66.9549 132.7 66.694C133.167 66.4331 133.694 66.3027 134.281 66.3027C135.031 66.3027 135.711 66.4929 136.319 66.8734C136.928 67.2539 137.407 67.7811 137.754 68.4551C138.113 69.1182 138.293 69.8737 138.293 70.7216C138.293 71.5695 138.113 72.3305 137.754 73.0044C137.407 73.6676 136.928 74.1894 136.319 74.5698C135.711 74.9503 135.031 75.1405 134.281 75.1405C133.694 75.1405 133.167 75.0101 132.7 74.7492C132.232 74.4883 131.879 74.173 131.64 73.8034H131.558L131.64 74.9612V78.4017H129.846V66.5636ZM134.02 73.4936C134.455 73.4936 134.863 73.3795 135.243 73.1512C135.624 72.9229 135.928 72.5968 136.156 72.1728C136.385 71.7489 136.499 71.2651 136.499 70.7216C136.499 70.1781 136.385 69.6998 136.156 69.2867C135.928 68.8627 135.624 68.5366 135.243 68.3083C134.863 68.08 134.455 67.9659 134.02 67.9659C133.586 67.9659 133.178 68.08 132.797 68.3083C132.428 68.5366 132.129 68.8627 131.901 69.2867C131.672 69.6998 131.558 70.1781 131.558 70.7216C131.558 71.2651 131.672 71.7489 131.901 72.1728C132.129 72.5968 132.428 72.9229 132.797 73.1512C133.178 73.3795 133.586 73.4936 134.02 73.4936ZM143.727 75.1405C142.911 75.1405 142.178 74.9503 141.525 74.5698C140.884 74.1894 140.378 73.6676 140.009 73.0044C139.65 72.3305 139.471 71.5749 139.471 70.7379C139.471 69.9443 139.645 69.2106 139.993 68.5366C140.351 67.8517 140.846 67.3082 141.476 66.906C142.107 66.5038 142.824 66.3027 143.629 66.3027C144.466 66.3027 145.189 66.4875 145.797 66.8571C146.417 67.2267 146.885 67.7322 147.2 68.3735C147.526 69.0149 147.689 69.7378 147.689 70.5422C147.689 70.6944 147.673 70.8847 147.64 71.1129H141.264C141.33 71.8848 141.601 72.4827 142.08 72.9066C142.569 73.3197 143.134 73.5262 143.776 73.5262C144.286 73.5262 144.727 73.4121 145.096 73.1838C145.477 72.9447 145.781 72.624 146.009 72.2218L147.526 72.9392C147.135 73.6241 146.624 74.1622 145.993 74.5535C145.363 74.9449 144.607 75.1405 143.727 75.1405ZM145.863 69.7432C145.841 69.4497 145.749 69.1617 145.586 68.879C145.422 68.5855 145.172 68.3409 144.835 68.1452C144.509 67.9496 144.107 67.8517 143.629 67.8517C143.053 67.8517 142.563 68.0257 142.161 68.3735C141.77 68.7105 141.498 69.1671 141.346 69.7432H145.863ZM149.322 66.5636H151.035V67.7865H151.116C151.301 67.3626 151.622 67.0147 152.078 66.7429C152.535 66.4603 153.018 66.319 153.529 66.319C153.932 66.319 154.269 66.3733 154.54 66.482V68.3409C154.062 68.167 153.633 68.08 153.252 68.08C152.839 68.08 152.469 68.1887 152.143 68.4061C151.828 68.6236 151.578 68.9171 151.393 69.2867C151.208 69.6454 151.116 70.0422 151.116 70.477V74.8796H149.322V66.5636ZM162.912 75.1405C161.944 75.1405 161.075 74.8579 160.303 74.2926C159.531 73.7273 158.998 72.9338 158.705 71.9119L160.433 71.2108C160.607 71.8522 160.912 72.3794 161.346 72.7925C161.792 73.1947 162.325 73.3958 162.944 73.3958C163.521 73.3958 164.01 73.249 164.412 72.9555C164.814 72.6511 165.015 72.2381 165.015 71.7163C165.015 71.238 164.836 70.8466 164.477 70.5422C164.129 70.227 163.515 69.9117 162.635 69.5965L161.901 69.3356C161.118 69.0638 160.46 68.6725 159.928 68.1616C159.395 67.6506 159.129 66.9766 159.129 66.1396C159.129 65.5635 159.286 65.0308 159.602 64.5416C159.917 64.0524 160.352 63.6665 160.906 63.3839C161.471 63.0904 162.107 62.9436 162.814 62.9436C163.836 62.9436 164.651 63.1936 165.26 63.6937C165.869 64.1829 166.276 64.7373 166.483 65.3569L164.836 66.0581C164.716 65.6885 164.488 65.3624 164.151 65.0797C163.814 64.7971 163.379 64.6558 162.847 64.6558C162.314 64.6558 161.863 64.7916 161.493 65.0634C161.134 65.3352 160.955 65.683 160.955 66.107C160.955 66.5092 161.118 66.8408 161.444 67.1017C161.77 67.3626 162.281 67.6126 162.977 67.8517L163.711 68.0963C164.711 68.4442 165.483 68.9008 166.026 69.466C166.581 70.0204 166.858 70.7651 166.858 71.7C166.858 72.4609 166.662 73.1023 166.271 73.6241C165.88 74.135 165.379 74.5155 164.771 74.7655C164.173 75.0155 163.553 75.1405 162.912 75.1405ZM171.648 75.0101C171.278 75.0101 170.93 74.9503 170.604 74.8307C170.278 74.7111 170.012 74.5535 169.805 74.3578C169.338 73.8904 169.104 73.2545 169.104 72.45V68.1452H167.653V66.5636H169.104V64.2155H170.898V66.5636H172.92V68.1452H170.898V72.0587C170.898 72.5044 170.985 72.8196 171.159 73.0044C171.322 73.2219 171.604 73.3306 172.007 73.3306C172.191 73.3306 172.354 73.3088 172.496 73.2653C172.637 73.211 172.789 73.1295 172.952 73.0208V74.7655C172.594 74.9286 172.159 75.0101 171.648 75.0101ZM177.658 75.1405C176.647 75.1405 175.876 74.8416 175.343 74.2437C174.821 73.6349 174.56 72.7925 174.56 71.7163V66.5636H176.354V71.4717C176.354 72.1457 176.511 72.6511 176.827 72.9881C177.153 73.3251 177.577 73.4936 178.099 73.4936C178.523 73.4936 178.898 73.3849 179.224 73.1675C179.55 72.9392 179.8 72.6403 179.974 72.2707C180.148 71.9011 180.235 71.5043 180.235 71.0803V66.5636H182.028V74.8796H180.333V73.8034H180.235C180.006 74.1948 179.653 74.5155 179.175 74.7655C178.696 75.0155 178.191 75.1405 177.658 75.1405ZM187.591 75.1405C186.841 75.1405 186.162 74.9503 185.553 74.5698C184.944 74.1894 184.46 73.6676 184.102 73.0044C183.754 72.3305 183.58 71.5695 183.58 70.7216C183.58 69.8737 183.754 69.1182 184.102 68.4551C184.46 67.7811 184.944 67.2539 185.553 66.8734C186.162 66.4929 186.841 66.3027 187.591 66.3027C188.178 66.3027 188.705 66.4331 189.173 66.694C189.64 66.9549 189.994 67.2756 190.233 67.6561H190.314L190.233 66.482V63.2045H192.026V74.8796H190.314V73.8034H190.233C189.994 74.173 189.64 74.4883 189.173 74.7492C188.705 75.0101 188.178 75.1405 187.591 75.1405ZM187.852 73.4936C188.287 73.4936 188.689 73.3795 189.059 73.1512C189.439 72.9229 189.744 72.5968 189.972 72.1728C190.2 71.7489 190.314 71.2651 190.314 70.7216C190.314 70.1781 190.2 69.6998 189.972 69.2867C189.744 68.8627 189.439 68.5366 189.059 68.3083C188.689 68.08 188.287 67.9659 187.852 67.9659C187.417 67.9659 187.01 68.08 186.629 68.3083C186.249 68.5366 185.944 68.8627 185.716 69.2867C185.488 69.6998 185.374 70.1781 185.374 70.7216C185.374 71.2651 185.488 71.7489 185.716 72.1728C185.944 72.5968 186.249 72.9229 186.629 73.1512C187.01 73.3795 187.417 73.4936 187.852 73.4936ZM197.836 75.1405C197.021 75.1405 196.287 74.9503 195.635 74.5698C194.993 74.1894 194.488 73.6676 194.118 73.0044C193.759 72.3305 193.58 71.5749 193.58 70.7379C193.58 69.9443 193.754 69.2106 194.102 68.5366C194.461 67.8517 194.955 67.3082 195.586 66.906C196.216 66.5038 196.934 66.3027 197.738 66.3027C198.575 66.3027 199.298 66.4875 199.907 66.8571C200.526 67.2267 200.994 67.7322 201.309 68.3735C201.635 69.0149 201.798 69.7378 201.798 70.5422C201.798 70.6944 201.782 70.8847 201.749 71.1129H195.374C195.439 71.8848 195.711 72.4827 196.189 72.9066C196.678 73.3197 197.243 73.5262 197.885 73.5262C198.396 73.5262 198.836 73.4121 199.206 73.1838C199.586 72.9447 199.89 72.624 200.119 72.2218L201.635 72.9392C201.244 73.6241 200.733 74.1622 200.102 74.5535C199.472 74.9449 198.716 75.1405 197.836 75.1405ZM199.972 69.7432C199.95 69.4497 199.858 69.1617 199.695 68.879C199.532 68.5855 199.282 68.3409 198.945 68.1452C198.619 67.9496 198.216 67.8517 197.738 67.8517C197.162 67.8517 196.673 68.0257 196.271 68.3735C195.879 68.7105 195.607 69.1671 195.455 69.7432H199.972ZM203.432 66.5636H205.144V67.6561H205.225C205.464 67.2647 205.818 66.944 206.285 66.694C206.764 66.4331 207.269 66.3027 207.802 66.3027C208.813 66.3027 209.579 66.6016 210.101 67.1995C210.633 67.7865 210.9 68.5909 210.9 69.6128V74.8796H209.106V69.8574C209.106 69.2051 208.943 68.7268 208.617 68.4225C208.302 68.1181 207.861 67.9659 207.296 67.9659C206.894 67.9659 206.535 68.08 206.22 68.3083C205.905 68.5257 205.66 68.8192 205.486 69.1888C205.312 69.5584 205.225 69.9552 205.225 70.3792V74.8796H203.432V66.5636ZM215.916 75.0101C215.547 75.0101 215.199 74.9503 214.873 74.8307C214.547 74.7111 214.28 74.5535 214.074 74.3578C213.606 73.8904 213.372 73.2545 213.372 72.45V68.1452H211.921V66.5636H213.372V64.2155H215.166V66.5636H217.188V68.1452H215.166V72.0587C215.166 72.5044 215.253 72.8196 215.427 73.0044C215.59 73.2219 215.873 73.3306 216.275 73.3306C216.46 73.3306 216.623 73.3088 216.764 73.2653C216.905 73.211 217.058 73.1295 217.221 73.0208V74.7655C216.862 74.9286 216.427 75.0101 215.916 75.0101ZM228.202 75.1405C227.071 75.1405 226.039 74.8742 225.104 74.3415C224.169 73.8089 223.435 73.0751 222.902 72.1402C222.37 71.2053 222.103 70.1726 222.103 69.0421C222.103 67.9115 222.37 66.8788 222.902 65.9439C223.435 65.0091 224.169 64.2753 225.104 63.7426C226.039 63.21 227.071 62.9436 228.202 62.9436C229.082 62.9436 229.881 63.1067 230.599 63.4328C231.327 63.7589 231.969 64.2318 232.523 64.8514L231.219 66.107C230.816 65.6287 230.371 65.2754 229.881 65.0471C229.392 64.8079 228.832 64.6884 228.202 64.6884C227.419 64.6884 226.702 64.8677 226.05 65.2265C225.408 65.5852 224.897 66.0961 224.517 66.7592C224.136 67.4115 223.946 68.1724 223.946 69.0421C223.946 69.9117 224.136 70.6781 224.517 71.3412C224.897 71.9935 225.408 72.499 226.05 72.8577C226.702 73.2164 227.419 73.3958 228.202 73.3958C229.506 73.3958 230.615 72.8523 231.528 71.7652L232.849 73.0371C232.284 73.7002 231.604 74.2165 230.811 74.5861C230.017 74.9557 229.148 75.1405 228.202 75.1405ZM234.435 63.2045H236.229V74.8796H234.435V63.2045ZM241.37 75.1405C240.359 75.1405 239.587 74.8416 239.054 74.2437C238.532 73.6349 238.272 72.7925 238.272 71.7163V66.5636H240.065V71.4717C240.065 72.1457 240.223 72.6511 240.538 72.9881C240.864 73.3251 241.288 73.4936 241.81 73.4936C242.234 73.4936 242.609 73.3849 242.935 73.1675C243.261 72.9392 243.511 72.6403 243.685 72.2707C243.859 71.9011 243.946 71.5043 243.946 71.0803V66.5636H245.74V74.8796H244.044V73.8034H243.946C243.718 74.1948 243.364 74.5155 242.886 74.7655C242.408 75.0155 241.902 75.1405 241.37 75.1405ZM252.263 75.1405C251.676 75.1405 251.148 75.0101 250.681 74.7492C250.213 74.4883 249.86 74.173 249.621 73.8034H249.54V74.8796H247.827V63.2045H249.621V66.482L249.54 67.6561H249.621C249.86 67.2756 250.213 66.9549 250.681 66.694C251.148 66.4331 251.676 66.3027 252.263 66.3027C253.013 66.3027 253.692 66.4929 254.301 66.8734C254.91 67.2539 255.388 67.7811 255.736 68.4551C256.095 69.1182 256.274 69.8737 256.274 70.7216C256.274 71.5695 256.095 72.3305 255.736 73.0044C255.388 73.6676 254.91 74.1894 254.301 74.5698C253.692 74.9503 253.013 75.1405 252.263 75.1405ZM252.002 73.4936C252.437 73.4936 252.844 73.3795 253.225 73.1512C253.605 72.9229 253.91 72.5968 254.138 72.1728C254.366 71.7489 254.48 71.2651 254.48 70.7216C254.48 70.1781 254.366 69.6998 254.138 69.2867C253.91 68.8627 253.605 68.5366 253.225 68.3083C252.844 68.08 252.437 67.9659 252.002 67.9659C251.567 67.9659 251.159 68.08 250.779 68.3083C250.409 68.5366 250.11 68.8627 249.882 69.2867C249.654 69.6998 249.54 70.1781 249.54 70.7216C249.54 71.2651 249.654 71.7489 249.882 72.1728C250.11 72.5968 250.409 72.9229 250.779 73.1512C251.159 73.3795 251.567 73.4936 252.002 73.4936ZM260.86 75.1405C259.904 75.1405 259.121 74.934 258.512 74.5209C257.904 74.0969 257.474 73.5589 257.224 72.9066L258.822 72.2054C259.018 72.6403 259.29 72.9718 259.638 73.2001C259.996 73.4284 260.404 73.5425 260.86 73.5425C261.306 73.5425 261.681 73.4664 261.986 73.3143C262.29 73.1512 262.442 72.912 262.442 72.5968C262.442 72.2924 262.312 72.0533 262.051 71.8793C261.79 71.7054 261.388 71.5532 260.844 71.4228L259.849 71.1782C259.186 71.0151 258.637 70.727 258.203 70.314C257.768 69.9009 257.55 69.3791 257.55 68.7486C257.55 68.2594 257.692 67.83 257.974 67.4604C258.268 67.0908 258.659 66.8082 259.148 66.6125C259.638 66.4059 260.17 66.3027 260.746 66.3027C261.518 66.3027 262.198 66.4603 262.785 66.7755C263.372 67.0799 263.796 67.5256 264.056 68.1126L262.491 68.7975C262.176 68.1561 261.6 67.8354 260.763 67.8354C260.36 67.8354 260.023 67.917 259.752 68.08C259.48 68.2431 259.344 68.4551 259.344 68.716C259.344 68.966 259.447 69.1725 259.654 69.3356C259.86 69.4878 260.165 69.6182 260.567 69.7269L261.79 70.0367C262.605 70.2433 263.219 70.5585 263.632 70.9825C264.056 71.3956 264.268 71.9065 264.268 72.5153C264.268 73.0371 264.116 73.4991 263.812 73.9013C263.518 74.2926 263.111 74.597 262.589 74.8144C262.067 75.0318 261.491 75.1405 260.86 75.1405Z" fill="white"/>
<rect width="23.3115" height="7.81905" rx="3.90953" transform="matrix(-0.866025 0.5 0.5 0.866025 174.504 27.7881)" fill="#FBBC04"/>
<rect width="23.3115" height="7.81905" rx="3.90953" transform="matrix(0.866025 -0.5 -0.5 -0.866025 131.371 38.4272)" fill="#EA4335"/>
<rect x="131.041" y="27.7871" width="23.3115" height="7.81905" rx="3.90953" transform="rotate(30 131.041 27.7871)" fill="#4285F4"/>
<rect x="174.504" y="38.4272" width="23.3115" height="7.81905" rx="3.64648" transform="rotate(-150 174.504 38.4272)" fill="#0F9D58"/>
<path d="M56.1919 91V83H58.9888C59.5461 83 60.0057 83.0964 60.3677 83.2891C60.7297 83.4792 60.9992 83.7357 61.1763 84.0586C61.3534 84.3789 61.4419 84.7344 61.4419 85.125C61.4419 85.4687 61.3807 85.7526 61.2583 85.9766C61.1385 86.2005 60.9797 86.3776 60.7817 86.5078C60.5864 86.638 60.3742 86.7344 60.145 86.7969V86.875C60.3898 86.8906 60.6359 86.9766 60.8833 87.1328C61.1307 87.2891 61.3377 87.513 61.5044 87.8047C61.6711 88.0964 61.7544 88.4531 61.7544 88.875C61.7544 89.276 61.6632 89.6367 61.481 89.957C61.2987 90.2773 61.0109 90.5312 60.6177 90.7187C60.2244 90.9062 59.7127 91 59.0825 91H56.1919ZM57.1606 90.1406H59.0825C59.7153 90.1406 60.1646 90.0182 60.4302 89.7734C60.6984 89.526 60.8325 89.2266 60.8325 88.875C60.8325 88.6042 60.7635 88.3542 60.6255 88.125C60.4875 87.8932 60.2909 87.7083 60.0356 87.5703C59.7804 87.4297 59.4784 87.3594 59.1294 87.3594H57.1606V90.1406ZM57.1606 86.5156H58.9575C59.2492 86.5156 59.5122 86.4583 59.7466 86.3437C59.9836 86.2292 60.1711 86.0677 60.3091 85.8594C60.4497 85.651 60.52 85.4062 60.52 85.125C60.52 84.7734 60.3976 84.4753 60.1528 84.2305C59.908 83.9831 59.52 83.8594 58.9888 83.8594H57.1606V86.5156ZM64.9868 91.1406C64.6066 91.1406 64.2616 91.069 63.9517 90.9258C63.6418 90.7799 63.3957 90.5703 63.2134 90.2969C63.0311 90.0208 62.9399 89.6875 62.9399 89.2969C62.9399 88.9531 63.0076 88.6745 63.1431 88.4609C63.2785 88.2448 63.4595 88.0755 63.686 87.9531C63.9126 87.8307 64.1626 87.7396 64.436 87.6797C64.7121 87.6172 64.9894 87.5677 65.2681 87.5313C65.6326 87.4844 65.9282 87.4492 66.1548 87.4258C66.384 87.3997 66.5506 87.3568 66.6548 87.2969C66.7616 87.237 66.8149 87.1328 66.8149 86.9844V86.9531C66.8149 86.5677 66.7095 86.2682 66.4985 86.0547C66.2902 85.8411 65.9738 85.7344 65.5493 85.7344C65.1092 85.7344 64.7642 85.8307 64.5142 86.0234C64.2642 86.2161 64.0884 86.4219 63.9868 86.6406L63.1118 86.3281C63.2681 85.9635 63.4764 85.6797 63.7368 85.4766C63.9998 85.2708 64.2863 85.1276 64.5962 85.0469C64.9087 84.9635 65.216 84.9219 65.5181 84.9219C65.7108 84.9219 65.9321 84.9453 66.1821 84.9922C66.4347 85.0365 66.6782 85.1289 66.9126 85.2695C67.1496 85.4102 67.3462 85.6224 67.5024 85.9062C67.6587 86.1901 67.7368 86.5703 67.7368 87.0469V91H66.8149V90.1875H66.7681C66.7056 90.3177 66.6014 90.457 66.4556 90.6055C66.3097 90.7539 66.1157 90.8802 65.8735 90.9844C65.6313 91.0885 65.3358 91.1406 64.9868 91.1406ZM65.1274 90.3125C65.492 90.3125 65.7993 90.2409 66.0493 90.0977C66.3019 89.9544 66.492 89.7695 66.6196 89.543C66.7498 89.3164 66.8149 89.0781 66.8149 88.8281V87.9844C66.7759 88.0312 66.6899 88.0742 66.5571 88.1133C66.4269 88.1497 66.2759 88.1823 66.104 88.2109C65.9347 88.237 65.7694 88.2604 65.6079 88.2812C65.4491 88.2995 65.3201 88.3151 65.2212 88.3281C64.9816 88.3594 64.7576 88.4102 64.5493 88.4805C64.3436 88.5482 64.1769 88.651 64.0493 88.7891C63.9243 88.9245 63.8618 89.1094 63.8618 89.3437C63.8618 89.6641 63.9803 89.9062 64.2173 90.0703C64.4569 90.2318 64.7603 90.3125 65.1274 90.3125ZM69.4194 85H70.3413V91.4375C70.3413 91.8073 70.2775 92.1276 70.1499 92.3984C70.0249 92.6693 69.8348 92.8789 69.5796 93.0273C69.327 93.1758 69.008 93.25 68.6226 93.25C68.5913 93.25 68.5601 93.25 68.5288 93.25C68.4976 93.25 68.4663 93.25 68.4351 93.25V92.3906C68.4663 92.3906 68.495 92.3906 68.521 92.3906C68.547 92.3906 68.5757 92.3906 68.6069 92.3906C68.8882 92.3906 69.0939 92.3073 69.2241 92.1406C69.3543 91.9766 69.4194 91.7422 69.4194 91.4375V85ZM69.8726 84C69.6929 84 69.5379 83.9388 69.4077 83.8164C69.2801 83.694 69.2163 83.5469 69.2163 83.375C69.2163 83.2031 69.2801 83.056 69.4077 82.9336C69.5379 82.8112 69.6929 82.75 69.8726 82.75C70.0522 82.75 70.2059 82.8112 70.3335 82.9336C70.4637 83.056 70.5288 83.2031 70.5288 83.375C70.5288 83.5469 70.4637 83.694 70.3335 83.8164C70.2059 83.9388 70.0522 84 69.8726 84ZM73.7954 91.1406C73.4152 91.1406 73.0701 91.069 72.7603 90.9258C72.4504 90.7799 72.2043 90.5703 72.022 90.2969C71.8397 90.0208 71.7485 89.6875 71.7485 89.2969C71.7485 88.9531 71.8162 88.6745 71.9517 88.4609C72.0871 88.2448 72.2681 88.0755 72.4946 87.9531C72.7212 87.8307 72.9712 87.7396 73.2446 87.6797C73.5207 87.6172 73.798 87.5677 74.0767 87.5313C74.4412 87.4844 74.7368 87.4492 74.9634 87.4258C75.1925 87.3997 75.3592 87.3568 75.4634 87.2969C75.5701 87.237 75.6235 87.1328 75.6235 86.9844V86.9531C75.6235 86.5677 75.5181 86.2682 75.3071 86.0547C75.0988 85.8411 74.7824 85.7344 74.3579 85.7344C73.9178 85.7344 73.5728 85.8307 73.3228 86.0234C73.0728 86.2161 72.897 86.4219 72.7954 86.6406L71.9204 86.3281C72.0767 85.9635 72.285 85.6797 72.5454 85.4766C72.8084 85.2708 73.0949 85.1276 73.4048 85.0469C73.7173 84.9635 74.0246 84.9219 74.3267 84.9219C74.5194 84.9219 74.7407 84.9453 74.9907 84.9922C75.2433 85.0365 75.4868 85.1289 75.7212 85.2695C75.9582 85.4102 76.1548 85.6224 76.311 85.9062C76.4673 86.1901 76.5454 86.5703 76.5454 87.0469V91H75.6235V90.1875H75.5767C75.5142 90.3177 75.41 90.457 75.2642 90.6055C75.1183 90.7539 74.9243 90.8802 74.6821 90.9844C74.4399 91.0885 74.1444 91.1406 73.7954 91.1406ZM73.936 90.3125C74.3006 90.3125 74.6079 90.2409 74.8579 90.0977C75.1105 89.9544 75.3006 89.7695 75.4282 89.543C75.5584 89.3164 75.6235 89.0781 75.6235 88.8281V87.9844C75.5845 88.0312 75.4985 88.0742 75.3657 88.1133C75.2355 88.1497 75.0845 88.1823 74.9126 88.2109C74.7433 88.237 74.578 88.2604 74.4165 88.2812C74.2576 88.2995 74.1287 88.3151 74.0298 88.3281C73.7902 88.3594 73.5662 88.4102 73.3579 88.4805C73.1522 88.5482 72.9855 88.651 72.8579 88.7891C72.7329 88.9245 72.6704 89.1094 72.6704 89.3437C72.6704 89.6641 72.7889 89.9062 73.0259 90.0703C73.2655 90.2318 73.5688 90.3125 73.936 90.3125ZM78.228 85H79.1499V91.4375C79.1499 91.8073 79.0861 92.1276 78.9585 92.3984C78.8335 92.6693 78.6434 92.8789 78.3882 93.0273C78.1356 93.1758 77.8166 93.25 77.4312 93.25C77.3999 93.25 77.3687 93.25 77.3374 93.25C77.3062 93.25 77.2749 93.25 77.2437 93.25V92.3906C77.2749 92.3906 77.3035 92.3906 77.3296 92.3906C77.3556 92.3906 77.3843 92.3906 77.4155 92.3906C77.6968 92.3906 77.9025 92.3073 78.0327 92.1406C78.1629 91.9766 78.228 91.7422 78.228 91.4375V85ZM78.6812 84C78.5015 84 78.3465 83.9388 78.2163 83.8164C78.0887 83.694 78.0249 83.5469 78.0249 83.375C78.0249 83.2031 78.0887 83.056 78.2163 82.9336C78.3465 82.8112 78.5015 82.75 78.6812 82.75C78.8608 82.75 79.0145 82.8112 79.1421 82.9336C79.2723 83.056 79.3374 83.2031 79.3374 83.375C79.3374 83.5469 79.2723 83.694 79.1421 83.8164C79.0145 83.9388 78.8608 84 78.6812 84ZM85.0259 83V91H84.0571V83H85.0259ZM87.7651 87.3906V91H86.8433V85H87.7339V85.9375H87.812C87.9526 85.6328 88.1662 85.388 88.4526 85.2031C88.7391 85.0156 89.1089 84.9219 89.562 84.9219C89.9683 84.9219 90.3237 85.0052 90.6284 85.1719C90.9331 85.3359 91.1701 85.5859 91.3394 85.9219C91.5086 86.2552 91.5933 86.6771 91.5933 87.1875V91H90.6714V87.25C90.6714 86.7786 90.549 86.4115 90.3042 86.1484C90.0594 85.8828 89.7235 85.75 89.2964 85.75C89.0021 85.75 88.7391 85.8138 88.5073 85.9414C88.2782 86.069 88.0972 86.2552 87.9644 86.5C87.8315 86.7448 87.7651 87.0417 87.7651 87.3906ZM97.5278 86.3437L96.6997 86.5781C96.6476 86.4401 96.5708 86.306 96.4692 86.1758C96.3703 86.043 96.2349 85.9336 96.063 85.8477C95.8911 85.7617 95.6711 85.7187 95.4028 85.7187C95.0356 85.7187 94.7297 85.8034 94.4849 85.9727C94.2427 86.1393 94.1216 86.3516 94.1216 86.6094C94.1216 86.8385 94.2049 87.0195 94.3716 87.1523C94.5382 87.2852 94.7987 87.3958 95.1528 87.4844L96.0435 87.7031C96.5799 87.8333 96.9797 88.0326 97.2427 88.3008C97.5057 88.5664 97.6372 88.9089 97.6372 89.3281C97.6372 89.6719 97.5382 89.9792 97.3403 90.25C97.145 90.5208 96.8716 90.7344 96.52 90.8906C96.1685 91.0469 95.7596 91.125 95.2935 91.125C94.6815 91.125 94.175 90.9922 93.7739 90.7266C93.3729 90.4609 93.119 90.0729 93.0122 89.5625L93.8872 89.3437C93.9705 89.6667 94.1281 89.9089 94.3599 90.0703C94.5942 90.2318 94.9002 90.3125 95.2778 90.3125C95.7075 90.3125 96.0487 90.2214 96.3013 90.0391C96.5565 89.8542 96.6841 89.6328 96.6841 89.375C96.6841 89.1667 96.6112 88.9922 96.4653 88.8516C96.3195 88.7083 96.0955 88.6016 95.7935 88.5312L94.7935 88.2969C94.244 88.1667 93.8403 87.9648 93.5825 87.6914C93.3273 87.4154 93.1997 87.0703 93.1997 86.6562C93.1997 86.3177 93.2948 86.0182 93.4849 85.7578C93.6776 85.4974 93.9393 85.293 94.27 85.1445C94.6034 84.9961 94.981 84.9219 95.4028 84.9219C95.9966 84.9219 96.4627 85.0521 96.8013 85.3125C97.1424 85.5729 97.3846 85.9167 97.5278 86.3437ZM101.634 85V85.7812H98.5249V85H101.634ZM99.4312 83.5625H100.353V89.2812C100.353 89.5417 100.391 89.737 100.466 89.8672C100.544 89.9948 100.643 90.0807 100.763 90.125C100.886 90.1667 101.014 90.1875 101.15 90.1875C101.251 90.1875 101.335 90.1823 101.4 90.1719C101.465 90.1589 101.517 90.1484 101.556 90.1406L101.744 90.9687C101.681 90.9922 101.594 91.0156 101.482 91.0391C101.37 91.0651 101.228 91.0781 101.056 91.0781C100.796 91.0781 100.541 91.0221 100.291 90.9102C100.043 90.7982 99.8374 90.6276 99.6733 90.3984C99.5119 90.1693 99.4312 89.8802 99.4312 89.5312V83.5625ZM103.021 91V85H103.943V91H103.021ZM103.49 84C103.31 84 103.155 83.9388 103.025 83.8164C102.897 83.694 102.833 83.5469 102.833 83.375C102.833 83.2031 102.897 83.056 103.025 82.9336C103.155 82.8112 103.31 82.75 103.49 82.75C103.669 82.75 103.823 82.8112 103.951 82.9336C104.081 83.056 104.146 83.2031 104.146 83.375C104.146 83.5469 104.081 83.694 103.951 83.8164C103.823 83.9388 103.669 84 103.49 84ZM108.241 85V85.7812H105.131V85H108.241ZM106.038 83.5625H106.959V89.2812C106.959 89.5417 106.997 89.737 107.073 89.8672C107.151 89.9948 107.25 90.0807 107.37 90.125C107.492 90.1667 107.621 90.1875 107.756 90.1875C107.858 90.1875 107.941 90.1823 108.006 90.1719C108.071 90.1589 108.124 90.1484 108.163 90.1406L108.35 90.9687C108.288 90.9922 108.2 91.0156 108.088 91.0391C107.976 91.0651 107.834 91.0781 107.663 91.0781C107.402 91.0781 107.147 91.0221 106.897 90.9102C106.65 90.7982 106.444 90.6276 106.28 90.3984C106.118 90.1693 106.038 89.8802 106.038 89.5312V83.5625ZM113.409 88.5469V85H114.331V91H113.409V89.9844H113.346C113.206 90.2891 112.987 90.5482 112.69 90.7617C112.393 90.9727 112.018 91.0781 111.565 91.0781C111.19 91.0781 110.857 90.9961 110.565 90.832C110.273 90.6654 110.044 90.4154 109.877 90.082C109.711 89.7461 109.627 89.3229 109.627 88.8125V85H110.549V88.75C110.549 89.1875 110.672 89.5365 110.917 89.7969C111.164 90.0573 111.479 90.1875 111.862 90.1875C112.091 90.1875 112.324 90.1289 112.561 90.0117C112.801 89.8945 113.001 89.7148 113.163 89.4727C113.327 89.2305 113.409 88.9219 113.409 88.5469ZM118.628 85V85.7812H115.519V85H118.628ZM116.425 83.5625H117.347V89.2812C117.347 89.5417 117.385 89.737 117.46 89.8672C117.539 89.9948 117.638 90.0807 117.757 90.125C117.88 90.1667 118.009 90.1875 118.144 90.1875C118.246 90.1875 118.329 90.1823 118.394 90.1719C118.459 90.1589 118.511 90.1484 118.55 90.1406L118.738 90.9687C118.675 90.9922 118.588 91.0156 118.476 91.0391C118.364 91.0651 118.222 91.0781 118.05 91.0781C117.79 91.0781 117.535 91.0221 117.285 90.9102C117.037 90.7982 116.832 90.6276 116.667 90.3984C116.506 90.1693 116.425 89.8802 116.425 89.5312V83.5625ZM122.466 91.125C121.888 91.125 121.389 90.9974 120.97 90.7422C120.554 90.4844 120.232 90.125 120.005 89.6641C119.781 89.2005 119.669 88.6615 119.669 88.0469C119.669 87.4323 119.781 86.8906 120.005 86.4219C120.232 85.9505 120.547 85.5833 120.951 85.3203C121.357 85.0547 121.831 84.9219 122.373 84.9219C122.685 84.9219 122.994 84.974 123.298 85.0781C123.603 85.1823 123.88 85.3516 124.13 85.5859C124.38 85.8177 124.58 86.125 124.728 86.5078C124.876 86.8906 124.951 87.362 124.951 87.9219V88.3125H120.326V87.5156H124.013C124.013 87.1771 123.945 86.875 123.81 86.6094C123.677 86.3437 123.487 86.1341 123.24 85.9805C122.995 85.8268 122.706 85.75 122.373 85.75C122.005 85.75 121.688 85.8411 121.419 86.0234C121.154 86.2031 120.949 86.4375 120.806 86.7266C120.663 87.0156 120.591 87.3255 120.591 87.6562V88.1875C120.591 88.6406 120.669 89.0247 120.826 89.3398C120.985 89.6523 121.205 89.8906 121.486 90.0547C121.767 90.2161 122.094 90.2969 122.466 90.2969C122.708 90.2969 122.927 90.263 123.123 90.1953C123.32 90.125 123.491 90.0208 123.634 89.8828C123.778 89.7422 123.888 89.5677 123.966 89.3594L124.857 89.6094C124.763 89.9115 124.606 90.1771 124.384 90.4062C124.163 90.6328 123.889 90.8099 123.564 90.9375C123.238 91.0625 122.873 91.125 122.466 91.125ZM131.884 91.125C131.343 91.125 130.867 90.9961 130.458 90.7383C130.052 90.4805 129.735 90.1198 129.505 89.6562C129.279 89.1927 129.166 88.651 129.166 88.0312C129.166 87.4062 129.279 86.8607 129.505 86.3945C129.735 85.9284 130.052 85.5664 130.458 85.3086C130.867 85.0508 131.343 84.9219 131.884 84.9219C132.426 84.9219 132.9 85.0508 133.306 85.3086C133.715 85.5664 134.033 85.9284 134.259 86.3945C134.488 86.8607 134.603 87.4062 134.603 88.0312C134.603 88.651 134.488 89.1927 134.259 89.6562C134.033 90.1198 133.715 90.4805 133.306 90.7383C132.9 90.9961 132.426 91.125 131.884 91.125ZM131.884 90.2969C132.296 90.2969 132.634 90.1914 132.9 89.9805C133.166 89.7695 133.362 89.4922 133.49 89.1484C133.617 88.8047 133.681 88.4323 133.681 88.0312C133.681 87.6302 133.617 87.2565 133.49 86.9102C133.362 86.5638 133.166 86.2839 132.9 86.0703C132.634 85.8568 132.296 85.75 131.884 85.75C131.473 85.75 131.134 85.8568 130.869 86.0703C130.603 86.2839 130.406 86.5638 130.279 86.9102C130.151 87.2565 130.087 87.6302 130.087 88.0312C130.087 88.4323 130.151 88.8047 130.279 89.1484C130.406 89.4922 130.603 89.7695 130.869 89.9805C131.134 90.1914 131.473 90.2969 131.884 90.2969ZM138.682 85V85.7812H135.448V85H138.682ZM136.417 91V84.1719C136.417 83.8281 136.497 83.5417 136.659 83.3125C136.82 83.0833 137.03 82.9115 137.288 82.7969C137.545 82.6823 137.818 82.625 138.104 82.625C138.331 82.625 138.515 82.6432 138.659 82.6797C138.802 82.7161 138.909 82.75 138.979 82.7812L138.713 83.5781C138.667 83.5625 138.601 83.543 138.518 83.5195C138.437 83.4961 138.331 83.4844 138.198 83.4844C137.893 83.4844 137.673 83.5612 137.538 83.7148C137.405 83.8685 137.338 84.0937 137.338 84.3906V91H136.417ZM142.755 83.8594V83H148.755V83.8594H146.24V91H145.271V83.8594H142.755ZM151.771 91.125C151.193 91.125 150.694 90.9974 150.275 90.7422C149.858 90.4844 149.537 90.125 149.31 89.6641C149.086 89.2005 148.974 88.6615 148.974 88.0469C148.974 87.4323 149.086 86.8906 149.31 86.4219C149.537 85.9505 149.852 85.5833 150.255 85.3203C150.662 85.0547 151.136 84.9219 151.677 84.9219C151.99 84.9219 152.298 84.974 152.603 85.0781C152.908 85.1823 153.185 85.3516 153.435 85.5859C153.685 85.8177 153.884 86.125 154.033 86.5078C154.181 86.8906 154.255 87.362 154.255 87.9219V88.3125H149.63V87.5156H153.318C153.318 87.1771 153.25 86.875 153.115 86.6094C152.982 86.3437 152.792 86.1341 152.544 85.9805C152.3 85.8268 152.011 85.75 151.677 85.75C151.31 85.75 150.992 85.8411 150.724 86.0234C150.458 86.2031 150.254 86.4375 150.111 86.7266C149.968 87.0156 149.896 87.3255 149.896 87.6562V88.1875C149.896 88.6406 149.974 89.0247 150.13 89.3398C150.289 89.6523 150.509 89.8906 150.791 90.0547C151.072 90.2161 151.399 90.2969 151.771 90.2969C152.013 90.2969 152.232 90.263 152.427 90.1953C152.625 90.125 152.796 90.0208 152.939 89.8828C153.082 89.7422 153.193 89.5677 153.271 89.3594L154.162 89.6094C154.068 89.9115 153.91 90.1771 153.689 90.4062C153.468 90.6328 153.194 90.8099 152.869 90.9375C152.543 91.0625 152.177 91.125 151.771 91.125ZM158.095 91.125C157.533 91.125 157.048 90.9922 156.642 90.7266C156.236 90.4609 155.923 90.0951 155.705 89.6289C155.486 89.1628 155.376 88.6302 155.376 88.0312C155.376 87.4219 155.488 86.8841 155.712 86.418C155.939 85.9492 156.254 85.5833 156.658 85.3203C157.064 85.0547 157.538 84.9219 158.08 84.9219C158.501 84.9219 158.882 85 159.22 85.1562C159.559 85.3125 159.836 85.5312 160.052 85.8125C160.268 86.0937 160.403 86.4219 160.455 86.7969H159.533C159.462 86.5234 159.306 86.2812 159.064 86.0703C158.824 85.8568 158.501 85.75 158.095 85.75C157.736 85.75 157.421 85.8437 157.15 86.0312C156.882 86.2161 156.672 86.4779 156.521 86.8164C156.373 87.1523 156.298 87.5469 156.298 88C156.298 88.4635 156.371 88.8672 156.517 89.2109C156.666 89.5547 156.874 89.8216 157.142 90.0117C157.413 90.2018 157.731 90.2969 158.095 90.2969C158.335 90.2969 158.552 90.2552 158.748 90.1719C158.943 90.0885 159.108 89.9688 159.244 89.8125C159.379 89.6562 159.475 89.4687 159.533 89.25H160.455C160.403 89.6042 160.274 89.9232 160.068 90.207C159.865 90.4883 159.595 90.7122 159.259 90.8789C158.926 91.043 158.538 91.125 158.095 91.125ZM162.724 87.3906V91H161.802V83H162.724V85.9375H162.802C162.943 85.6276 163.154 85.3815 163.435 85.1992C163.719 85.0143 164.097 84.9219 164.568 84.9219C164.977 84.9219 165.335 85.0039 165.642 85.168C165.949 85.3294 166.188 85.5781 166.357 85.9141C166.529 86.2474 166.615 86.6719 166.615 87.1875V91H165.693V87.25C165.693 86.7734 165.569 86.4049 165.322 86.1445C165.077 85.8815 164.737 85.75 164.302 85.75C164 85.75 163.729 85.8138 163.49 85.9414C163.253 86.069 163.065 86.2552 162.927 86.5C162.792 86.7448 162.724 87.0417 162.724 87.3906ZM169.223 87.3906V91H168.301V85H169.192V85.9375H169.27C169.411 85.6328 169.624 85.388 169.911 85.2031C170.197 85.0156 170.567 84.9219 171.02 84.9219C171.426 84.9219 171.782 85.0052 172.086 85.1719C172.391 85.3359 172.628 85.5859 172.797 85.9219C172.967 86.2552 173.051 86.6771 173.051 87.1875V91H172.129V87.25C172.129 86.7786 172.007 86.4115 171.762 86.1484C171.517 85.8828 171.181 85.75 170.754 85.75C170.46 85.75 170.197 85.8138 169.965 85.9414C169.736 86.069 169.555 86.2552 169.422 86.5C169.29 86.7448 169.223 87.0417 169.223 87.3906ZM177.173 91.125C176.632 91.125 176.156 90.9961 175.748 90.7383C175.341 90.4805 175.024 90.1198 174.794 89.6562C174.568 89.1927 174.455 88.651 174.455 88.0312C174.455 87.4062 174.568 86.8607 174.794 86.3945C175.024 85.9284 175.341 85.5664 175.748 85.3086C176.156 85.0508 176.632 84.9219 177.173 84.9219C177.715 84.9219 178.189 85.0508 178.595 85.3086C179.004 85.5664 179.322 85.9284 179.548 86.3945C179.778 86.8607 179.892 87.4062 179.892 88.0312C179.892 88.651 179.778 89.1927 179.548 89.6562C179.322 90.1198 179.004 90.4805 178.595 90.7383C178.189 90.9961 177.715 91.125 177.173 91.125ZM177.173 90.2969C177.585 90.2969 177.923 90.1914 178.189 89.9805C178.455 89.7695 178.651 89.4922 178.779 89.1484C178.906 88.8047 178.97 88.4323 178.97 88.0312C178.97 87.6302 178.906 87.2565 178.779 86.9102C178.651 86.5638 178.455 86.2839 178.189 86.0703C177.923 85.8568 177.585 85.75 177.173 85.75C176.762 85.75 176.423 85.8568 176.158 86.0703C175.892 86.2839 175.695 86.5638 175.568 86.9102C175.44 87.2565 175.376 87.6302 175.376 88.0312C175.376 88.4323 175.44 88.8047 175.568 89.1484C175.695 89.4922 175.892 89.7695 176.158 89.9805C176.423 90.1914 176.762 90.2969 177.173 90.2969ZM182.221 83V91H181.299V83H182.221ZM186.347 91.125C185.806 91.125 185.33 90.9961 184.921 90.7383C184.515 90.4805 184.197 90.1198 183.968 89.6562C183.742 89.1927 183.628 88.651 183.628 88.0312C183.628 87.4062 183.742 86.8607 183.968 86.3945C184.197 85.9284 184.515 85.5664 184.921 85.3086C185.33 85.0508 185.806 84.9219 186.347 84.9219C186.889 84.9219 187.363 85.0508 187.769 85.3086C188.178 85.5664 188.496 85.9284 188.722 86.3945C188.951 86.8607 189.066 87.4062 189.066 88.0312C189.066 88.651 188.951 89.1927 188.722 89.6562C188.496 90.1198 188.178 90.4805 187.769 90.7383C187.363 90.9961 186.889 91.125 186.347 91.125ZM186.347 90.2969C186.759 90.2969 187.097 90.1914 187.363 89.9805C187.628 89.7695 187.825 89.4922 187.953 89.1484C188.08 88.8047 188.144 88.4323 188.144 88.0312C188.144 87.6302 188.08 87.2565 187.953 86.9102C187.825 86.5638 187.628 86.2839 187.363 86.0703C187.097 85.8568 186.759 85.75 186.347 85.75C185.936 85.75 185.597 85.8568 185.332 86.0703C185.066 86.2839 184.869 86.5638 184.742 86.9102C184.614 87.2565 184.55 87.6302 184.55 88.0312C184.55 88.4323 184.614 88.8047 184.742 89.1484C184.869 89.4922 185.066 89.7695 185.332 89.9805C185.597 90.1914 185.936 90.2969 186.347 90.2969ZM192.895 93.375C192.45 93.375 192.067 93.3177 191.747 93.2031C191.426 93.0911 191.159 92.9427 190.946 92.7578C190.735 92.5755 190.567 92.3802 190.442 92.1719L191.176 91.6563C191.26 91.7656 191.365 91.8906 191.493 92.0312C191.62 92.1745 191.795 92.2982 192.016 92.4023C192.24 92.5091 192.533 92.5625 192.895 92.5625C193.379 92.5625 193.779 92.4453 194.094 92.2109C194.409 91.9766 194.567 91.6094 194.567 91.1094V89.8906H194.489C194.421 90 194.325 90.1354 194.2 90.2969C194.077 90.4557 193.9 90.5977 193.668 90.7227C193.439 90.8451 193.129 90.9062 192.739 90.9062C192.254 90.9062 191.819 90.7917 191.434 90.5625C191.051 90.3333 190.748 90 190.524 89.5625C190.303 89.125 190.192 88.5937 190.192 87.9687C190.192 87.3542 190.3 86.819 190.516 86.3633C190.732 85.9049 191.033 85.5508 191.418 85.3008C191.804 85.0482 192.249 84.9219 192.754 84.9219C193.145 84.9219 193.455 84.987 193.684 85.1172C193.916 85.2448 194.093 85.3906 194.215 85.5547C194.34 85.7161 194.437 85.849 194.504 85.9531H194.598V85H195.489V91.1719C195.489 91.6875 195.372 92.1068 195.137 92.4297C194.905 92.7552 194.593 92.9935 194.2 93.1445C193.809 93.2982 193.374 93.375 192.895 93.375ZM192.864 90.0781C193.234 90.0781 193.546 89.9935 193.801 89.8242C194.056 89.6549 194.25 89.4115 194.383 89.0938C194.516 88.776 194.583 88.3958 194.583 87.9531C194.583 87.5208 194.517 87.1393 194.387 86.8086C194.257 86.4779 194.064 86.2187 193.809 86.0312C193.554 85.8437 193.239 85.75 192.864 85.75C192.473 85.75 192.148 85.849 191.887 86.0469C191.629 86.2448 191.435 86.5104 191.305 86.8438C191.178 87.1771 191.114 87.5469 191.114 87.9531C191.114 88.3698 191.179 88.7383 191.309 89.0586C191.442 89.3763 191.637 89.6263 191.895 89.8086C192.155 89.9883 192.478 90.0781 192.864 90.0781ZM197.77 93.25C197.614 93.25 197.474 93.237 197.352 93.2109C197.23 93.1875 197.145 93.1641 197.098 93.1406L197.333 92.3281C197.556 92.3854 197.754 92.4063 197.926 92.3906C198.098 92.375 198.25 92.2982 198.383 92.1602C198.519 92.0247 198.642 91.8047 198.754 91.5L198.926 91.0313L196.708 85H197.708L199.364 89.7812H199.426L201.083 85H202.083L199.536 91.875C199.421 92.1849 199.279 92.4414 199.11 92.6445C198.941 92.8503 198.744 93.0026 198.52 93.1016C198.299 93.2005 198.049 93.25 197.77 93.25ZM204.298 89.9062L204.236 90.3281C204.192 90.625 204.124 90.9427 204.033 91.2813C203.944 91.6198 203.852 91.9388 203.755 92.2383C203.659 92.5378 203.58 92.776 203.517 92.9531H202.814C202.848 92.7865 202.892 92.5664 202.947 92.293C203.001 92.0195 203.056 91.7135 203.111 91.375C203.168 91.0391 203.215 90.6953 203.251 90.3437L203.298 89.9062H204.298ZM210.678 91L208.491 83H209.475L211.147 89.5156H211.225L212.928 83H214.022L215.725 89.5156H215.803L217.475 83H218.459L216.272 91H215.272L213.506 84.625H213.444L211.678 91H210.678ZM220.749 91.1406C220.368 91.1406 220.023 91.069 219.713 90.9258C219.403 90.7799 219.157 90.5703 218.975 90.2969C218.793 90.0208 218.702 89.6875 218.702 89.2969C218.702 88.9531 218.769 88.6745 218.905 88.4609C219.04 88.2448 219.221 88.0755 219.448 87.9531C219.674 87.8307 219.924 87.7396 220.198 87.6797C220.474 87.6172 220.751 87.5677 221.03 87.5313C221.394 87.4844 221.69 87.4492 221.917 87.4258C222.146 87.3997 222.312 87.3568 222.417 87.2969C222.523 87.237 222.577 87.1328 222.577 86.9844V86.9531C222.577 86.5677 222.471 86.2682 222.26 86.0547C222.052 85.8411 221.736 85.7344 221.311 85.7344C220.871 85.7344 220.526 85.8307 220.276 86.0234C220.026 86.2161 219.85 86.4219 219.749 86.6406L218.874 86.3281C219.03 85.9635 219.238 85.6797 219.499 85.4766C219.762 85.2708 220.048 85.1276 220.358 85.0469C220.67 84.9635 220.978 84.9219 221.28 84.9219C221.472 84.9219 221.694 84.9453 221.944 84.9922C222.196 85.0365 222.44 85.1289 222.674 85.2695C222.911 85.4102 223.108 85.6224 223.264 85.9062C223.42 86.1901 223.499 86.5703 223.499 87.0469V91H222.577V90.1875H222.53C222.467 90.3177 222.363 90.457 222.217 90.6055C222.071 90.7539 221.877 90.8802 221.635 90.9844C221.393 91.0885 221.097 91.1406 220.749 91.1406ZM220.889 90.3125C221.254 90.3125 221.561 90.2409 221.811 90.0977C222.064 89.9544 222.254 89.7695 222.381 89.543C222.512 89.3164 222.577 89.0781 222.577 88.8281V87.9844C222.538 88.0312 222.452 88.0742 222.319 88.1133C222.189 88.1497 222.038 88.1823 221.866 88.2109C221.696 88.237 221.531 88.2604 221.37 88.2812C221.211 88.2995 221.082 88.3151 220.983 88.3281C220.743 88.3594 220.519 88.4102 220.311 88.4805C220.105 88.5482 219.939 88.651 219.811 88.7891C219.686 88.9245 219.624 89.1094 219.624 89.3437C219.624 89.6641 219.742 89.9062 219.979 90.0703C220.219 90.2318 220.522 90.3125 220.889 90.3125ZM225.181 91V85H226.072V85.9062H226.134C226.244 85.6094 226.442 85.3685 226.728 85.1836C227.014 84.9987 227.337 84.9062 227.697 84.9062C227.764 84.9062 227.849 84.9076 227.951 84.9102C228.052 84.9128 228.129 84.9167 228.181 84.9219V85.8594C228.15 85.8516 228.078 85.8398 227.966 85.8242C227.857 85.806 227.741 85.7969 227.619 85.7969C227.327 85.7969 227.067 85.8581 226.837 85.9805C226.611 86.1003 226.431 86.2669 226.298 86.4805C226.168 86.6914 226.103 86.9323 226.103 87.2031V91H225.181ZM231.357 91.125C230.857 91.125 230.416 90.9987 230.033 90.7461C229.65 90.4909 229.35 90.1315 229.134 89.668C228.918 89.2018 228.81 88.651 228.81 88.0156C228.81 87.3854 228.918 86.8385 229.134 86.375C229.35 85.9115 229.651 85.5534 230.037 85.3008C230.422 85.0482 230.867 84.9219 231.373 84.9219C231.763 84.9219 232.072 84.987 232.298 85.1172C232.528 85.2448 232.702 85.3906 232.822 85.5547C232.944 85.7161 233.039 85.849 233.107 85.9531H233.185V83H234.107V91H233.216V90.0781H233.107C233.039 90.1875 232.943 90.3255 232.818 90.4922C232.693 90.6562 232.514 90.8034 232.283 90.9336C232.051 91.0612 231.742 91.125 231.357 91.125ZM231.482 90.2969C231.852 90.2969 232.164 90.2005 232.419 90.0078C232.675 89.8125 232.869 89.543 233.001 89.1992C233.134 88.8529 233.201 88.4531 233.201 88C233.201 87.5521 233.136 87.1602 233.005 86.8242C232.875 86.4857 232.682 86.2227 232.427 86.0352C232.172 85.8451 231.857 85.75 231.482 85.75C231.091 85.75 230.766 85.8503 230.505 86.0508C230.248 86.2487 230.054 86.5182 229.923 86.8594C229.796 87.1979 229.732 87.5781 229.732 88C229.732 88.4271 229.797 88.8151 229.927 89.1641C230.06 89.5104 230.255 89.7865 230.513 89.9922C230.774 90.1953 231.097 90.2969 231.482 90.2969ZM236.845 87.3906V91H235.923V83H236.845V85.9375H236.923C237.064 85.6276 237.275 85.3815 237.556 85.1992C237.84 85.0143 238.218 84.9219 238.689 84.9219C239.098 84.9219 239.456 85.0039 239.763 85.168C240.07 85.3294 240.309 85.5781 240.478 85.9141C240.65 86.2474 240.736 86.6719 240.736 87.1875V91H239.814V87.25C239.814 86.7734 239.69 86.4049 239.443 86.1445C239.198 85.8815 238.858 85.75 238.423 85.75C238.121 85.75 237.85 85.8138 237.611 85.9414C237.374 86.069 237.186 86.2552 237.048 86.5C236.913 86.7448 236.845 87.0417 236.845 87.3906ZM244.188 91.1406C243.808 91.1406 243.463 91.069 243.153 90.9258C242.843 90.7799 242.597 90.5703 242.415 90.2969C242.232 90.0208 242.141 89.6875 242.141 89.2969C242.141 88.9531 242.209 88.6745 242.344 88.4609C242.48 88.2448 242.661 88.0755 242.887 87.9531C243.114 87.8307 243.364 87.7396 243.637 87.6797C243.913 87.6172 244.191 87.5677 244.469 87.5313C244.834 87.4844 245.129 87.4492 245.356 87.4258C245.585 87.3997 245.752 87.3568 245.856 87.2969C245.963 87.237 246.016 87.1328 246.016 86.9844V86.9531C246.016 86.5677 245.911 86.2682 245.7 86.0547C245.491 85.8411 245.175 85.7344 244.75 85.7344C244.31 85.7344 243.965 85.8307 243.715 86.0234C243.465 86.2161 243.29 86.4219 243.188 86.6406L242.313 86.3281C242.469 85.9635 242.678 85.6797 242.938 85.4766C243.201 85.2708 243.487 85.1276 243.797 85.0469C244.11 84.9635 244.417 84.9219 244.719 84.9219C244.912 84.9219 245.133 84.9453 245.383 84.9922C245.636 85.0365 245.879 85.1289 246.114 85.2695C246.351 85.4102 246.547 85.6224 246.704 85.9062C246.86 86.1901 246.938 86.5703 246.938 87.0469V91H246.016V90.1875H245.969C245.907 90.3177 245.803 90.457 245.657 90.6055C245.511 90.7539 245.317 90.8802 245.075 90.9844C244.833 91.0885 244.537 91.1406 244.188 91.1406ZM244.329 90.3125C244.693 90.3125 245 90.2409 245.25 90.0977C245.503 89.9544 245.693 89.7695 245.821 89.543C245.951 89.3164 246.016 89.0781 246.016 88.8281V87.9844C245.977 88.0312 245.891 88.0742 245.758 88.1133C245.628 88.1497 245.477 88.1823 245.305 88.2109C245.136 88.237 244.971 88.2604 244.809 88.2812C244.65 88.2995 244.521 88.3151 244.422 88.3281C244.183 88.3594 243.959 88.4102 243.75 88.4805C243.545 88.5482 243.378 88.651 243.25 88.7891C243.125 88.9245 243.063 89.1094 243.063 89.3437C243.063 89.6641 243.181 89.9062 243.418 90.0703C243.658 90.2318 243.961 90.3125 244.329 90.3125Z" fill="white"/>
</svg>
