<svg width="304" height="120" viewBox="0 0 304 120" fill="none" xmlns="http://www.w3.org/2000/svg">
<rect width="304" height="120" rx="6" fill="#313235"/>
<path d="M23.0871 75.1405C21.9783 75.1405 20.9564 74.8742 20.0216 74.3415C19.0867 73.8089 18.342 73.0805 17.7876 72.1565C17.2441 71.2217 16.9723 70.1835 16.9723 69.0421C16.9723 67.9007 17.2441 66.8679 17.7876 65.9439C18.342 65.0091 19.0867 64.2753 20.0216 63.7426C20.9564 63.21 21.9783 62.9436 23.0871 62.9436C23.9676 62.9436 24.7884 63.1012 25.5493 63.4165C26.3102 63.7317 26.9462 64.172 27.4571 64.7373L26.1852 66.0092C25.8048 65.5852 25.3482 65.2591 24.8155 65.0308C24.2937 64.8025 23.7122 64.6884 23.0708 64.6884C22.3207 64.6884 21.6195 64.8677 20.9673 65.2265C20.3151 65.5852 19.7933 66.0961 19.4019 66.7592C19.0106 67.4223 18.8149 68.1833 18.8149 69.0421C18.8149 69.9009 19.0106 70.6618 19.4019 71.3249C19.7933 71.988 20.3151 72.499 20.9673 72.8577C21.6195 73.2164 22.3261 73.3958 23.0871 73.3958C23.7828 73.3958 24.3644 73.2925 24.8318 73.086C25.2993 72.8794 25.7178 72.6022 26.0874 72.2544C26.3266 72.0152 26.5277 71.7163 26.6907 71.3575C26.8647 70.9988 26.9788 70.6075 27.0332 70.1835H23.0708V68.5529H28.7616C28.8159 68.8573 28.8431 69.1725 28.8431 69.4986C28.8431 70.2379 28.729 70.9499 28.5007 71.6347C28.2724 72.3087 27.9082 72.8957 27.4082 73.3958C26.3102 74.559 24.8699 75.1405 23.0871 75.1405ZM34.4753 75.1405C33.6383 75.1405 32.8882 74.9503 32.2251 74.5698C31.562 74.1785 31.0456 73.6458 30.676 72.9718C30.3064 72.2979 30.1216 71.5478 30.1216 70.7216C30.1216 69.8954 30.3064 69.1454 30.676 68.4714C31.0456 67.7974 31.562 67.2702 32.2251 66.8897C32.8882 66.4983 33.6383 66.3027 34.4753 66.3027C35.3124 66.3027 36.0624 66.4983 36.7256 66.8897C37.3887 67.281 37.905 67.8137 38.2746 68.4877C38.6442 69.1617 38.829 69.9063 38.829 70.7216C38.829 71.5478 38.6442 72.2979 38.2746 72.9718C37.905 73.6458 37.3887 74.1785 36.7256 74.5698C36.0624 74.9503 35.3124 75.1405 34.4753 75.1405ZM34.4753 73.4936C34.9319 73.4936 35.3559 73.3849 35.7472 73.1675C36.1385 72.9392 36.4484 72.6185 36.6766 72.2054C36.9158 71.7815 37.0354 71.2869 37.0354 70.7216C37.0354 70.1563 36.9158 69.6671 36.6766 69.2541C36.4484 68.841 36.1385 68.5257 35.7472 68.3083C35.3559 68.08 34.9319 67.9659 34.4753 67.9659C34.0188 67.9659 33.5948 68.08 33.2035 68.3083C32.8121 68.5257 32.4969 68.841 32.2577 69.2541C32.0294 69.6671 31.9153 70.1563 31.9153 70.7216C31.9153 71.2869 32.0294 71.7815 32.2577 72.2054C32.4969 72.6185 32.8121 72.9392 33.2035 73.1675C33.5948 73.3849 34.0188 73.4936 34.4753 73.4936ZM44.38 75.1405C43.5429 75.1405 42.7928 74.9503 42.1297 74.5698C41.4666 74.1785 40.9503 73.6458 40.5807 72.9718C40.2111 72.2979 40.0263 71.5478 40.0263 70.7216C40.0263 69.8954 40.2111 69.1454 40.5807 68.4714C40.9503 67.7974 41.4666 67.2702 42.1297 66.8897C42.7928 66.4983 43.5429 66.3027 44.38 66.3027C45.217 66.3027 45.9671 66.4983 46.6302 66.8897C47.2933 67.281 47.8097 67.8137 48.1793 68.4877C48.5489 69.1617 48.7337 69.9063 48.7337 70.7216C48.7337 71.5478 48.5489 72.2979 48.1793 72.9718C47.8097 73.6458 47.2933 74.1785 46.6302 74.5698C45.9671 74.9503 45.217 75.1405 44.38 75.1405ZM44.38 73.4936C44.8365 73.4936 45.2605 73.3849 45.6518 73.1675C46.0432 72.9392 46.353 72.6185 46.5813 72.2054C46.8204 71.7815 46.94 71.2869 46.94 70.7216C46.94 70.1563 46.8204 69.6671 46.5813 69.2541C46.353 68.841 46.0432 68.5257 45.6518 68.3083C45.2605 68.08 44.8365 67.9659 44.38 67.9659C43.9234 67.9659 43.4994 68.08 43.1081 68.3083C42.7167 68.5257 42.4015 68.841 42.1623 69.2541C41.9341 69.6671 41.8199 70.1563 41.8199 70.7216C41.8199 71.2869 41.9341 71.7815 42.1623 72.2054C42.4015 72.6185 42.7167 72.9392 43.1081 73.1675C43.4994 73.3849 43.9234 73.4936 44.38 73.4936ZM54.1378 78.6626C53.116 78.6626 52.2681 78.4289 51.5941 77.9615C50.931 77.494 50.4853 76.9396 50.257 76.2983L51.9365 75.5971C52.1105 76.0319 52.3877 76.3798 52.7681 76.6407C53.1595 76.9125 53.6161 77.0483 54.1378 77.0483C54.8988 77.0483 55.4912 76.8201 55.9152 76.3635C56.35 75.9178 56.5674 75.2873 56.5674 74.472V73.7056H56.4696C56.1978 74.0969 55.8337 74.4068 55.3771 74.635C54.9314 74.8525 54.4151 74.9612 53.828 74.9612C53.1323 74.9612 52.4855 74.7818 51.8876 74.4231C51.2897 74.0643 50.8114 73.5589 50.4527 72.9066C50.1048 72.2435 49.9309 71.488 49.9309 70.6401C49.9309 69.7922 50.1048 69.0421 50.4527 68.3898C50.8114 67.7267 51.2897 67.2158 51.8876 66.8571C52.4855 66.4875 53.1323 66.3027 53.828 66.3027C54.4042 66.3027 54.9205 66.4168 55.3771 66.6451C55.8337 66.8734 56.1978 67.1832 56.4696 67.5745H56.5674V66.5636H58.2796V74.4231C58.2796 75.3253 58.1057 76.0917 57.7578 76.7222C57.4099 77.3636 56.9207 77.8473 56.2902 78.1735C55.6706 78.4996 54.9532 78.6626 54.1378 78.6626ZM54.1542 73.3306C54.589 73.3306 54.9912 73.2273 55.3608 73.0208C55.7304 72.8033 56.0239 72.4935 56.2413 72.0913C56.4587 71.6782 56.5674 71.1945 56.5674 70.6401C56.5674 69.7922 56.3337 69.1345 55.8663 68.667C55.4097 68.1887 54.839 67.9496 54.1542 67.9496C53.7085 67.9496 53.3008 68.0583 52.9312 68.2757C52.5616 68.4822 52.2681 68.7866 52.0507 69.1888C51.8333 69.591 51.7246 70.0748 51.7246 70.6401C51.7246 71.2053 51.8333 71.6891 52.0507 72.0913C52.2681 72.4935 52.5616 72.8033 52.9312 73.0208C53.3008 73.2273 53.7085 73.3306 54.1542 73.3306ZM60.3876 63.2045H62.1813V74.8796H60.3876V63.2045ZM68.0087 75.1405C67.1934 75.1405 66.4596 74.9503 65.8074 74.5698C65.166 74.1894 64.6605 73.6676 64.2909 73.0044C63.9322 72.3305 63.7528 71.5749 63.7528 70.7379C63.7528 69.9443 63.9267 69.2106 64.2746 68.5366C64.6333 67.8517 65.1279 67.3082 65.7584 66.906C66.3889 66.5038 67.1064 66.3027 67.9108 66.3027C68.7479 66.3027 69.4708 66.4875 70.0795 66.8571C70.6992 67.2267 71.1666 67.7322 71.4819 68.3735C71.808 69.0149 71.971 69.7378 71.971 70.5422C71.971 70.6944 71.9547 70.8847 71.9221 71.1129H65.5465C65.6117 71.8848 65.8835 72.4827 66.3618 72.9066C66.8509 73.3197 67.4162 73.5262 68.0576 73.5262C68.5685 73.5262 69.0088 73.4121 69.3784 73.1838C69.7589 72.9447 70.0632 72.624 70.2915 72.2218L71.808 72.9392C71.4166 73.6241 70.9057 74.1622 70.2752 74.5535C69.6447 74.9449 68.8892 75.1405 68.0087 75.1405ZM70.1448 69.7432C70.123 69.4497 70.0306 69.1617 69.8676 68.879C69.7045 68.5855 69.4545 68.3409 69.1175 68.1452C68.7914 67.9496 68.3892 67.8517 67.9108 67.8517C67.3347 67.8517 66.8455 68.0257 66.4433 68.3735C66.052 68.7105 65.7802 69.1671 65.628 69.7432H70.1448ZM77.7197 63.2045H81.4538C82.6604 63.2045 83.7149 63.4491 84.6171 63.9383C85.5194 64.4275 86.2097 65.1178 86.688 66.0092C87.1772 66.8897 87.4218 67.9007 87.4218 69.0421C87.4218 70.1835 87.1772 71.1999 86.688 72.0913C86.2097 72.9718 85.5194 73.6567 84.6171 74.1459C83.7149 74.635 82.6604 74.8796 81.4538 74.8796H77.7197V63.2045ZM81.4212 73.1349C82.7256 73.1349 83.742 72.7762 84.4704 72.0587C85.2096 71.3304 85.5792 70.3248 85.5792 69.0421C85.5792 67.7702 85.2096 66.7701 84.4704 66.0418C83.742 65.3134 82.7256 64.9493 81.4212 64.9493H79.546V73.1349H81.4212ZM92.7703 75.1405C91.955 75.1405 91.2212 74.9503 90.569 74.5698C89.9276 74.1894 89.4221 73.6676 89.0525 73.0044C88.6938 72.3305 88.5144 71.5749 88.5144 70.7379C88.5144 69.9443 88.6883 69.2106 89.0362 68.5366C89.3949 67.8517 89.8895 67.3082 90.52 66.906C91.1505 66.5038 91.868 66.3027 92.6724 66.3027C93.5095 66.3027 94.2324 66.4875 94.8411 66.8571C95.4608 67.2267 95.9282 67.7322 96.2435 68.3735C96.5696 69.0149 96.7326 69.7378 96.7326 70.5422C96.7326 70.6944 96.7163 70.8847 96.6837 71.1129H90.3081C90.3733 71.8848 90.6451 72.4827 91.1234 72.9066C91.6125 73.3197 92.1778 73.5262 92.8192 73.5262C93.3301 73.5262 93.7704 73.4121 94.14 73.1838C94.5205 72.9447 94.8248 72.624 95.0531 72.2218L96.5696 72.9392C96.1782 73.6241 95.6673 74.1622 95.0368 74.5535C94.4063 74.9449 93.6508 75.1405 92.7703 75.1405ZM94.9064 69.7432C94.8846 69.4497 94.7922 69.1617 94.6292 68.879C94.4661 68.5855 94.2161 68.3409 93.8791 68.1452C93.553 67.9496 93.1507 67.8517 92.6724 67.8517C92.0963 67.8517 91.6071 68.0257 91.2049 68.3735C90.8136 68.7105 90.5418 69.1671 90.3896 69.7432H94.9064ZM97.2774 66.5636H99.283L101.582 72.5642H101.647L103.995 66.5636H105.952L102.495 74.8796H100.702L97.2774 66.5636ZM110.669 75.1405C109.853 75.1405 109.12 74.9503 108.467 74.5698C107.826 74.1894 107.321 73.6676 106.951 73.0044C106.592 72.3305 106.413 71.5749 106.413 70.7379C106.413 69.9443 106.587 69.2106 106.935 68.5366C107.293 67.8517 107.788 67.3082 108.418 66.906C109.049 66.5038 109.766 66.3027 110.571 66.3027C111.408 66.3027 112.131 66.4875 112.74 66.8571C113.359 67.2267 113.827 67.7322 114.142 68.3735C114.468 69.0149 114.631 69.7378 114.631 70.5422C114.631 70.6944 114.615 70.8847 114.582 71.1129H108.206C108.272 71.8848 108.543 72.4827 109.022 72.9066C109.511 73.3197 110.076 73.5262 110.718 73.5262C111.229 73.5262 111.669 73.4121 112.038 73.1838C112.419 72.9447 112.723 72.624 112.952 72.2218L114.468 72.9392C114.077 73.6241 113.566 74.1622 112.935 74.5535C112.305 74.9449 111.549 75.1405 110.669 75.1405ZM112.805 69.7432C112.783 69.4497 112.691 69.1617 112.528 68.879C112.365 68.5855 112.114 68.3409 111.777 68.1452C111.451 67.9496 111.049 67.8517 110.571 67.8517C109.995 67.8517 109.506 68.0257 109.103 68.3735C108.712 68.7105 108.44 69.1671 108.288 69.7432H112.805ZM116.264 63.2045H118.058V74.8796H116.264V63.2045ZM123.983 75.1405C123.146 75.1405 122.396 74.9503 121.733 74.5698C121.07 74.1785 120.554 73.6458 120.184 72.9718C119.814 72.2979 119.63 71.5478 119.63 70.7216C119.63 69.8954 119.814 69.1454 120.184 68.4714C120.554 67.7974 121.07 67.2702 121.733 66.8897C122.396 66.4983 123.146 66.3027 123.983 66.3027C124.82 66.3027 125.57 66.4983 126.234 66.8897C126.897 67.281 127.413 67.8137 127.783 68.4877C128.152 69.1617 128.337 69.9063 128.337 70.7216C128.337 71.5478 128.152 72.2979 127.783 72.9718C127.413 73.6458 126.897 74.1785 126.234 74.5698C125.57 74.9503 124.82 75.1405 123.983 75.1405ZM123.983 73.4936C124.44 73.4936 124.864 73.3849 125.255 73.1675C125.647 72.9392 125.956 72.6185 126.185 72.2054C126.424 71.7815 126.543 71.2869 126.543 70.7216C126.543 70.1563 126.424 69.6671 126.185 69.2541C125.956 68.841 125.647 68.5257 125.255 68.3083C124.864 68.08 124.44 67.9659 123.983 67.9659C123.527 67.9659 123.103 68.08 122.711 68.3083C122.32 68.5257 122.005 68.841 121.766 69.2541C121.537 69.6671 121.423 70.1563 121.423 70.7216C121.423 71.2869 121.537 71.7815 121.766 72.2054C122.005 72.6185 122.32 72.9392 122.711 73.1675C123.103 73.3849 123.527 73.4936 123.983 73.4936ZM129.846 66.5636H131.558V67.6561H131.64C131.879 67.2756 132.232 66.9549 132.7 66.694C133.167 66.4331 133.694 66.3027 134.281 66.3027C135.031 66.3027 135.711 66.4929 136.319 66.8734C136.928 67.2539 137.407 67.7811 137.754 68.4551C138.113 69.1182 138.293 69.8737 138.293 70.7216C138.293 71.5695 138.113 72.3305 137.754 73.0044C137.407 73.6676 136.928 74.1894 136.319 74.5698C135.711 74.9503 135.031 75.1405 134.281 75.1405C133.694 75.1405 133.167 75.0101 132.7 74.7492C132.232 74.4883 131.879 74.173 131.64 73.8034H131.558L131.64 74.9612V78.4017H129.846V66.5636ZM134.02 73.4936C134.455 73.4936 134.863 73.3795 135.243 73.1512C135.624 72.9229 135.928 72.5968 136.156 72.1728C136.385 71.7489 136.499 71.2651 136.499 70.7216C136.499 70.1781 136.385 69.6998 136.156 69.2867C135.928 68.8627 135.624 68.5366 135.243 68.3083C134.863 68.08 134.455 67.9659 134.02 67.9659C133.586 67.9659 133.178 68.08 132.797 68.3083C132.428 68.5366 132.129 68.8627 131.901 69.2867C131.672 69.6998 131.558 70.1781 131.558 70.7216C131.558 71.2651 131.672 71.7489 131.901 72.1728C132.129 72.5968 132.428 72.9229 132.797 73.1512C133.178 73.3795 133.586 73.4936 134.02 73.4936ZM143.727 75.1405C142.911 75.1405 142.178 74.9503 141.525 74.5698C140.884 74.1894 140.378 73.6676 140.009 73.0044C139.65 72.3305 139.471 71.5749 139.471 70.7379C139.471 69.9443 139.645 69.2106 139.993 68.5366C140.351 67.8517 140.846 67.3082 141.476 66.906C142.107 66.5038 142.824 66.3027 143.629 66.3027C144.466 66.3027 145.189 66.4875 145.797 66.8571C146.417 67.2267 146.885 67.7322 147.2 68.3735C147.526 69.0149 147.689 69.7378 147.689 70.5422C147.689 70.6944 147.673 70.8847 147.64 71.1129H141.264C141.33 71.8848 141.601 72.4827 142.08 72.9066C142.569 73.3197 143.134 73.5262 143.776 73.5262C144.286 73.5262 144.727 73.4121 145.096 73.1838C145.477 72.9447 145.781 72.624 146.009 72.2218L147.526 72.9392C147.135 73.6241 146.624 74.1622 145.993 74.5535C145.363 74.9449 144.607 75.1405 143.727 75.1405ZM145.863 69.7432C145.841 69.4497 145.749 69.1617 145.586 68.879C145.422 68.5855 145.172 68.3409 144.835 68.1452C144.509 67.9496 144.107 67.8517 143.629 67.8517C143.053 67.8517 142.563 68.0257 142.161 68.3735C141.77 68.7105 141.498 69.1671 141.346 69.7432H145.863ZM149.322 66.5636H151.035V67.7865H151.116C151.301 67.3626 151.622 67.0147 152.078 66.7429C152.535 66.4603 153.018 66.319 153.529 66.319C153.932 66.319 154.269 66.3733 154.54 66.482V68.3409C154.062 68.167 153.633 68.08 153.252 68.08C152.839 68.08 152.469 68.1887 152.143 68.4061C151.828 68.6236 151.578 68.9171 151.393 69.2867C151.208 69.6454 151.116 70.0422 151.116 70.477V74.8796H149.322V66.5636ZM162.912 75.1405C161.944 75.1405 161.075 74.8579 160.303 74.2926C159.531 73.7273 158.998 72.9338 158.705 71.9119L160.433 71.2108C160.607 71.8522 160.912 72.3794 161.346 72.7925C161.792 73.1947 162.325 73.3958 162.944 73.3958C163.521 73.3958 164.01 73.249 164.412 72.9555C164.814 72.6511 165.015 72.2381 165.015 71.7163C165.015 71.238 164.836 70.8466 164.477 70.5422C164.129 70.227 163.515 69.9117 162.635 69.5965L161.901 69.3356C161.118 69.0638 160.46 68.6725 159.928 68.1616C159.395 67.6506 159.129 66.9766 159.129 66.1396C159.129 65.5635 159.286 65.0308 159.602 64.5416C159.917 64.0524 160.352 63.6665 160.906 63.3839C161.471 63.0904 162.107 62.9436 162.814 62.9436C163.836 62.9436 164.651 63.1936 165.26 63.6937C165.869 64.1829 166.276 64.7373 166.483 65.3569L164.836 66.0581C164.716 65.6885 164.488 65.3624 164.151 65.0797C163.814 64.7971 163.379 64.6558 162.847 64.6558C162.314 64.6558 161.863 64.7916 161.493 65.0634C161.134 65.3352 160.955 65.683 160.955 66.107C160.955 66.5092 161.118 66.8408 161.444 67.1017C161.77 67.3626 162.281 67.6126 162.977 67.8517L163.711 68.0963C164.711 68.4442 165.483 68.9008 166.026 69.466C166.581 70.0204 166.858 70.7651 166.858 71.7C166.858 72.4609 166.662 73.1023 166.271 73.6241C165.88 74.135 165.379 74.5155 164.771 74.7655C164.173 75.0155 163.553 75.1405 162.912 75.1405ZM171.648 75.0101C171.278 75.0101 170.93 74.9503 170.604 74.8307C170.278 74.7111 170.012 74.5535 169.805 74.3578C169.338 73.8904 169.104 73.2545 169.104 72.45V68.1452H167.653V66.5636H169.104V64.2155H170.898V66.5636H172.92V68.1452H170.898V72.0587C170.898 72.5044 170.985 72.8196 171.159 73.0044C171.322 73.2219 171.604 73.3306 172.007 73.3306C172.191 73.3306 172.354 73.3088 172.496 73.2653C172.637 73.211 172.789 73.1295 172.952 73.0208V74.7655C172.594 74.9286 172.159 75.0101 171.648 75.0101ZM177.658 75.1405C176.647 75.1405 175.876 74.8416 175.343 74.2437C174.821 73.6349 174.56 72.7925 174.56 71.7163V66.5636H176.354V71.4717C176.354 72.1457 176.511 72.6511 176.827 72.9881C177.153 73.3251 177.577 73.4936 178.099 73.4936C178.523 73.4936 178.898 73.3849 179.224 73.1675C179.55 72.9392 179.8 72.6403 179.974 72.2707C180.148 71.9011 180.235 71.5043 180.235 71.0803V66.5636H182.028V74.8796H180.333V73.8034H180.235C180.006 74.1948 179.653 74.5155 179.175 74.7655C178.696 75.0155 178.191 75.1405 177.658 75.1405ZM187.591 75.1405C186.841 75.1405 186.162 74.9503 185.553 74.5698C184.944 74.1894 184.46 73.6676 184.102 73.0044C183.754 72.3305 183.58 71.5695 183.58 70.7216C183.58 69.8737 183.754 69.1182 184.102 68.4551C184.46 67.7811 184.944 67.2539 185.553 66.8734C186.162 66.4929 186.841 66.3027 187.591 66.3027C188.178 66.3027 188.705 66.4331 189.173 66.694C189.64 66.9549 189.994 67.2756 190.233 67.6561H190.314L190.233 66.482V63.2045H192.026V74.8796H190.314V73.8034H190.233C189.994 74.173 189.64 74.4883 189.173 74.7492C188.705 75.0101 188.178 75.1405 187.591 75.1405ZM187.852 73.4936C188.287 73.4936 188.689 73.3795 189.059 73.1512C189.439 72.9229 189.744 72.5968 189.972 72.1728C190.2 71.7489 190.314 71.2651 190.314 70.7216C190.314 70.1781 190.2 69.6998 189.972 69.2867C189.744 68.8627 189.439 68.5366 189.059 68.3083C188.689 68.08 188.287 67.9659 187.852 67.9659C187.417 67.9659 187.01 68.08 186.629 68.3083C186.249 68.5366 185.944 68.8627 185.716 69.2867C185.488 69.6998 185.374 70.1781 185.374 70.7216C185.374 71.2651 185.488 71.7489 185.716 72.1728C185.944 72.5968 186.249 72.9229 186.629 73.1512C187.01 73.3795 187.417 73.4936 187.852 73.4936ZM197.836 75.1405C197.021 75.1405 196.287 74.9503 195.635 74.5698C194.993 74.1894 194.488 73.6676 194.118 73.0044C193.759 72.3305 193.58 71.5749 193.58 70.7379C193.58 69.9443 193.754 69.2106 194.102 68.5366C194.461 67.8517 194.955 67.3082 195.586 66.906C196.216 66.5038 196.934 66.3027 197.738 66.3027C198.575 66.3027 199.298 66.4875 199.907 66.8571C200.526 67.2267 200.994 67.7322 201.309 68.3735C201.635 69.0149 201.798 69.7378 201.798 70.5422C201.798 70.6944 201.782 70.8847 201.749 71.1129H195.374C195.439 71.8848 195.711 72.4827 196.189 72.9066C196.678 73.3197 197.243 73.5262 197.885 73.5262C198.396 73.5262 198.836 73.4121 199.206 73.1838C199.586 72.9447 199.89 72.624 200.119 72.2218L201.635 72.9392C201.244 73.6241 200.733 74.1622 200.102 74.5535C199.472 74.9449 198.716 75.1405 197.836 75.1405ZM199.972 69.7432C199.95 69.4497 199.858 69.1617 199.695 68.879C199.532 68.5855 199.282 68.3409 198.945 68.1452C198.619 67.9496 198.216 67.8517 197.738 67.8517C197.162 67.8517 196.673 68.0257 196.271 68.3735C195.879 68.7105 195.607 69.1671 195.455 69.7432H199.972ZM203.432 66.5636H205.144V67.6561H205.225C205.464 67.2647 205.818 66.944 206.285 66.694C206.764 66.4331 207.269 66.3027 207.802 66.3027C208.813 66.3027 209.579 66.6016 210.101 67.1995C210.633 67.7865 210.9 68.5909 210.9 69.6128V74.8796H209.106V69.8574C209.106 69.2051 208.943 68.7268 208.617 68.4225C208.302 68.1181 207.861 67.9659 207.296 67.9659C206.894 67.9659 206.535 68.08 206.22 68.3083C205.905 68.5257 205.66 68.8192 205.486 69.1888C205.312 69.5584 205.225 69.9552 205.225 70.3792V74.8796H203.432V66.5636ZM215.916 75.0101C215.547 75.0101 215.199 74.9503 214.873 74.8307C214.547 74.7111 214.28 74.5535 214.074 74.3578C213.606 73.8904 213.372 73.2545 213.372 72.45V68.1452H211.921V66.5636H213.372V64.2155H215.166V66.5636H217.188V68.1452H215.166V72.0587C215.166 72.5044 215.253 72.8196 215.427 73.0044C215.59 73.2219 215.873 73.3306 216.275 73.3306C216.46 73.3306 216.623 73.3088 216.764 73.2653C216.905 73.211 217.058 73.1295 217.221 73.0208V74.7655C216.862 74.9286 216.427 75.0101 215.916 75.0101ZM228.202 75.1405C227.071 75.1405 226.039 74.8742 225.104 74.3415C224.169 73.8089 223.435 73.0751 222.902 72.1402C222.37 71.2053 222.103 70.1726 222.103 69.0421C222.103 67.9115 222.37 66.8788 222.902 65.9439C223.435 65.0091 224.169 64.2753 225.104 63.7426C226.039 63.21 227.071 62.9436 228.202 62.9436C229.082 62.9436 229.881 63.1067 230.599 63.4328C231.327 63.7589 231.969 64.2318 232.523 64.8514L231.219 66.107C230.816 65.6287 230.371 65.2754 229.881 65.0471C229.392 64.8079 228.832 64.6884 228.202 64.6884C227.419 64.6884 226.702 64.8677 226.05 65.2265C225.408 65.5852 224.897 66.0961 224.517 66.7592C224.136 67.4115 223.946 68.1724 223.946 69.0421C223.946 69.9117 224.136 70.6781 224.517 71.3412C224.897 71.9935 225.408 72.499 226.05 72.8577C226.702 73.2164 227.419 73.3958 228.202 73.3958C229.506 73.3958 230.615 72.8523 231.528 71.7652L232.849 73.0371C232.284 73.7002 231.604 74.2165 230.811 74.5861C230.017 74.9557 229.148 75.1405 228.202 75.1405ZM234.435 63.2045H236.229V74.8796H234.435V63.2045ZM241.37 75.1405C240.359 75.1405 239.587 74.8416 239.054 74.2437C238.532 73.6349 238.272 72.7925 238.272 71.7163V66.5636H240.065V71.4717C240.065 72.1457 240.223 72.6511 240.538 72.9881C240.864 73.3251 241.288 73.4936 241.81 73.4936C242.234 73.4936 242.609 73.3849 242.935 73.1675C243.261 72.9392 243.511 72.6403 243.685 72.2707C243.859 71.9011 243.946 71.5043 243.946 71.0803V66.5636H245.74V74.8796H244.044V73.8034H243.946C243.718 74.1948 243.364 74.5155 242.886 74.7655C242.408 75.0155 241.902 75.1405 241.37 75.1405ZM252.263 75.1405C251.676 75.1405 251.148 75.0101 250.681 74.7492C250.213 74.4883 249.86 74.173 249.621 73.8034H249.54V74.8796H247.827V63.2045H249.621V66.482L249.54 67.6561H249.621C249.86 67.2756 250.213 66.9549 250.681 66.694C251.148 66.4331 251.676 66.3027 252.263 66.3027C253.013 66.3027 253.692 66.4929 254.301 66.8734C254.91 67.2539 255.388 67.7811 255.736 68.4551C256.095 69.1182 256.274 69.8737 256.274 70.7216C256.274 71.5695 256.095 72.3305 255.736 73.0044C255.388 73.6676 254.91 74.1894 254.301 74.5698C253.692 74.9503 253.013 75.1405 252.263 75.1405ZM252.002 73.4936C252.437 73.4936 252.844 73.3795 253.225 73.1512C253.605 72.9229 253.91 72.5968 254.138 72.1728C254.366 71.7489 254.48 71.2651 254.48 70.7216C254.48 70.1781 254.366 69.6998 254.138 69.2867C253.91 68.8627 253.605 68.5366 253.225 68.3083C252.844 68.08 252.437 67.9659 252.002 67.9659C251.567 67.9659 251.159 68.08 250.779 68.3083C250.409 68.5366 250.11 68.8627 249.882 69.2867C249.654 69.6998 249.54 70.1781 249.54 70.7216C249.54 71.2651 249.654 71.7489 249.882 72.1728C250.11 72.5968 250.409 72.9229 250.779 73.1512C251.159 73.3795 251.567 73.4936 252.002 73.4936ZM260.86 75.1405C259.904 75.1405 259.121 74.934 258.512 74.5209C257.904 74.0969 257.474 73.5589 257.224 72.9066L258.822 72.2054C259.018 72.6403 259.29 72.9718 259.638 73.2001C259.996 73.4284 260.404 73.5425 260.86 73.5425C261.306 73.5425 261.681 73.4664 261.986 73.3143C262.29 73.1512 262.442 72.912 262.442 72.5968C262.442 72.2924 262.312 72.0533 262.051 71.8793C261.79 71.7054 261.388 71.5532 260.844 71.4228L259.849 71.1782C259.186 71.0151 258.637 70.727 258.203 70.314C257.768 69.9009 257.55 69.3791 257.55 68.7486C257.55 68.2594 257.692 67.83 257.974 67.4604C258.268 67.0908 258.659 66.8082 259.148 66.6125C259.638 66.4059 260.17 66.3027 260.746 66.3027C261.518 66.3027 262.198 66.4603 262.785 66.7755C263.372 67.0799 263.796 67.5256 264.056 68.1126L262.491 68.7975C262.176 68.1561 261.6 67.8354 260.763 67.8354C260.36 67.8354 260.023 67.917 259.752 68.08C259.48 68.2431 259.344 68.4551 259.344 68.716C259.344 68.966 259.447 69.1725 259.654 69.3356C259.86 69.4878 260.165 69.6182 260.567 69.7269L261.79 70.0367C262.605 70.2433 263.219 70.5585 263.632 70.9825C264.056 71.3956 264.268 71.9065 264.268 72.5153C264.268 73.0371 264.116 73.4991 263.812 73.9013C263.518 74.2926 263.111 74.597 262.589 74.8144C262.067 75.0318 261.491 75.1405 260.86 75.1405Z" fill="white"/>
<rect width="23.3115" height="7.81905" rx="3.90953" transform="matrix(-0.866025 0.5 0.5 0.866025 174.504 27.7881)" fill="#FBBC04"/>
<rect width="23.3115" height="7.81905" rx="3.90953" transform="matrix(0.866025 -0.5 -0.5 -0.866025 131.371 38.4272)" fill="#EA4335"/>
<rect x="131.041" y="27.7871" width="23.3115" height="7.81905" rx="3.90953" transform="rotate(30 131.041 27.7871)" fill="#4285F4"/>
<rect x="174.504" y="38.4272" width="23.3115" height="7.81905" rx="3.64648" transform="rotate(-150 174.504 38.4272)" fill="#0F9D58"/>
<path d="M19.284 90V82.7273H20.1647V86.3352H20.2499L23.517 82.7273H24.6675L21.6135 86.0085L24.6675 90H23.6022L21.0738 86.6193L20.1647 87.642V90H19.284ZM27.2989 90.1278C26.9533 90.1278 26.6396 90.0627 26.3579 89.9325C26.0761 89.8 25.8524 89.6094 25.6867 89.3608C25.521 89.1098 25.4381 88.8068 25.4381 88.4517C25.4381 88.1392 25.4997 87.8859 25.6228 87.6918C25.7459 87.4953 25.9104 87.3414 26.1164 87.2301C26.3224 87.1188 26.5496 87.036 26.7982 86.9815C27.0492 86.9247 27.3013 86.8797 27.5546 86.8466C27.886 86.804 28.1547 86.772 28.3607 86.7507C28.569 86.727 28.7206 86.688 28.8153 86.6335C28.9123 86.5791 28.9608 86.4844 28.9608 86.3494V86.321C28.9608 85.9706 28.865 85.6984 28.6732 85.5043C28.4838 85.3101 28.1962 85.2131 27.8103 85.2131C27.4102 85.2131 27.0965 85.3007 26.8692 85.4759C26.642 85.651 26.4822 85.8381 26.3898 86.0369L25.5944 85.7528C25.7364 85.4214 25.9258 85.1634 26.1626 84.9787C26.4017 84.7917 26.6621 84.6615 26.9438 84.5881C27.2279 84.5123 27.5073 84.4744 27.7819 84.4744C27.9571 84.4744 28.1583 84.4957 28.3856 84.5384C28.6152 84.5786 28.8366 84.6626 29.0496 84.7905C29.2651 84.9183 29.4438 85.1113 29.5858 85.3693C29.7279 85.6274 29.7989 85.973 29.7989 86.4062V90H28.9608V89.2614H28.9182C28.8614 89.3797 28.7667 89.5064 28.6341 89.6413C28.5016 89.7763 28.3252 89.8911 28.105 89.9858C27.8849 90.0805 27.6162 90.1278 27.2989 90.1278ZM27.4268 89.375C27.7582 89.375 28.0376 89.3099 28.2648 89.1797C28.4945 89.0495 28.6673 88.8814 28.7833 88.6754C28.9017 88.4695 28.9608 88.2528 28.9608 88.0256V87.2585C28.9253 87.3011 28.8472 87.3402 28.7265 87.3757C28.6081 87.4089 28.4708 87.4384 28.3145 87.4645C28.1607 87.4882 28.0103 87.5095 27.8635 87.5284C27.7191 87.545 27.6019 87.5592 27.512 87.571C27.2942 87.5994 27.0906 87.6456 26.9012 87.7095C26.7142 87.7711 26.5626 87.8646 26.4466 87.9901C26.333 88.1132 26.2762 88.2812 26.2762 88.4943C26.2762 88.7855 26.3839 89.0057 26.5993 89.1548C26.8171 89.3016 27.093 89.375 27.4268 89.375ZM35.5935 84.5455L33.5764 90H32.7242L30.7071 84.5455H31.6162L33.1219 88.892H33.1787L34.6844 84.5455H35.5935ZM36.6997 90V84.5455H37.5377V90H36.6997ZM37.1258 83.6364C36.9624 83.6364 36.8216 83.5807 36.7032 83.4695C36.5872 83.3582 36.5292 83.2244 36.5292 83.0682C36.5292 82.9119 36.5872 82.7782 36.7032 82.6669C36.8216 82.5556 36.9624 82.5 37.1258 82.5C37.2892 82.5 37.4288 82.5556 37.5448 82.6669C37.6632 82.7782 37.7224 82.9119 37.7224 83.0682C37.7224 83.2244 37.6632 83.3582 37.5448 83.4695C37.4288 83.5807 37.2892 83.6364 37.1258 83.6364ZM39.854 88.0114L39.8398 86.9744H40.0102L42.3966 84.5455H43.4335L40.8909 87.1165H40.8199L39.854 88.0114ZM39.0727 90V82.7273H39.9108V90H39.0727ZM42.5386 90L40.4079 87.3011L41.0045 86.7188L43.604 90H42.5386ZM47.9497 87.7699V84.5455H48.7877V90H47.9497V89.0767H47.8928C47.765 89.3537 47.5661 89.5893 47.2963 89.7834C47.0264 89.9751 46.6855 90.071 46.2735 90.071C45.9326 90.071 45.6296 89.9964 45.3644 89.8473C45.0993 89.6958 44.891 89.4685 44.7394 89.1655C44.5879 88.8601 44.5122 88.4754 44.5122 88.0114V84.5455H45.3502V87.9545C45.3502 88.3523 45.4615 88.6695 45.684 88.9062C45.9089 89.143 46.1954 89.2614 46.5434 89.2614C46.7517 89.2614 46.9636 89.2081 47.1791 89.1016C47.3969 88.995 47.5792 88.8317 47.7259 88.6115C47.8751 88.3913 47.9497 88.1108 47.9497 87.7699ZM51.1608 82.7273V90H50.3227V82.7273H51.1608ZM54.8975 92.1591C54.4926 92.1591 54.1446 92.107 53.8534 92.0028C53.5622 91.901 53.3196 91.7661 53.1254 91.598C52.9337 91.4323 52.781 91.2547 52.6673 91.0653L53.335 90.5966C53.4107 90.696 53.5066 90.8097 53.6226 90.9375C53.7386 91.0677 53.8972 91.1802 54.0985 91.2749C54.3021 91.3719 54.5684 91.4205 54.8975 91.4205C55.3378 91.4205 55.7012 91.3139 55.9877 91.1009C56.2741 90.8878 56.4173 90.554 56.4173 90.0994V88.9915H56.3463C56.2848 89.0909 56.1972 89.214 56.0835 89.3608C55.9723 89.5052 55.8113 89.6342 55.6006 89.7479C55.3923 89.8591 55.1105 89.9148 54.7554 89.9148C54.3151 89.9148 53.9197 89.8106 53.5693 89.6023C53.2213 89.3939 52.9455 89.0909 52.7419 88.6932C52.5407 88.2955 52.4401 87.8125 52.4401 87.2443C52.4401 86.6856 52.5383 86.1991 52.7348 85.7848C52.9313 85.3681 53.2048 85.0462 53.5551 84.8189C53.9055 84.5893 54.3103 84.4744 54.7696 84.4744C55.1247 84.4744 55.4065 84.5336 55.6148 84.652C55.8255 84.768 55.9865 84.9006 56.0977 85.0497C56.2114 85.1965 56.299 85.3172 56.3605 85.4119H56.4458V84.5455H57.2554V90.1562C57.2554 90.625 57.1489 91.0062 56.9358 91.2997C56.7251 91.5956 56.441 91.8123 56.0835 91.9496C55.7284 92.0893 55.3331 92.1591 54.8975 92.1591ZM54.8691 89.1619C55.2052 89.1619 55.4893 89.085 55.7213 88.9311C55.9533 88.7772 56.1297 88.5559 56.2504 88.267C56.3712 87.9782 56.4316 87.6326 56.4316 87.2301C56.4316 86.8371 56.3724 86.4903 56.254 86.1896C56.1356 85.889 55.9604 85.6534 55.7284 85.483C55.4964 85.3125 55.21 85.2273 54.8691 85.2273C54.5139 85.2273 54.218 85.3172 53.9813 85.4972C53.7469 85.6771 53.5705 85.9186 53.4521 86.2216C53.3361 86.5246 53.2781 86.8608 53.2781 87.2301C53.2781 87.6089 53.3373 87.9439 53.4557 88.2351C53.5764 88.5239 53.754 88.7512 53.9884 88.9169C54.2251 89.0803 54.5187 89.1619 54.8691 89.1619ZM62.227 87.7699V84.5455H63.0651V90H62.227V89.0767H62.1702C62.0423 89.3537 61.8435 89.5893 61.5736 89.7834C61.3037 89.9751 60.9628 90.071 60.5509 90.071C60.21 90.071 59.9069 89.9964 59.6418 89.8473C59.3766 89.6958 59.1683 89.4685 59.0168 89.1655C58.8653 88.8601 58.7895 88.4754 58.7895 88.0114V84.5455H59.6276V87.9545C59.6276 88.3523 59.7388 88.6695 59.9614 88.9062C60.1863 89.143 60.4727 89.2614 60.8208 89.2614C61.0291 89.2614 61.241 89.2081 61.4564 89.1016C61.6742 88.995 61.8565 88.8317 62.0033 88.6115C62.1524 88.3913 62.227 88.1108 62.227 87.7699ZM64.6001 90V84.5455H65.4097V85.3693H65.4665C65.566 85.0994 65.7459 84.8804 66.0063 84.7124C66.2667 84.5443 66.5603 84.4602 66.887 84.4602C66.9485 84.4602 67.0255 84.4614 67.1178 84.4638C67.2101 84.4661 67.28 84.4697 67.3273 84.4744V85.3267C67.2989 85.3196 67.2338 85.3089 67.132 85.2947C67.0326 85.2782 66.9272 85.2699 66.816 85.2699C66.5508 85.2699 66.3141 85.3255 66.1057 85.4368C65.8998 85.5457 65.7364 85.6972 65.6157 85.8913C65.4973 86.0831 65.4381 86.3021 65.4381 86.5483V90H64.6001ZM71.7583 87.7699V84.5455H72.5963V90H71.7583V89.0767H71.7014C71.5736 89.3537 71.3747 89.5893 71.1048 89.7834C70.835 89.9751 70.4941 90.071 70.0821 90.071C69.7412 90.071 69.4382 89.9964 69.173 89.8473C68.9079 89.6958 68.6995 89.4685 68.548 89.1655C68.3965 88.8601 68.3208 88.4754 68.3208 88.0114V84.5455H69.1588V87.9545C69.1588 88.3523 69.2701 88.6695 69.4926 88.9062C69.7175 89.143 70.004 89.2614 70.352 89.2614C70.5603 89.2614 70.7722 89.2081 70.9877 89.1016C71.2055 88.995 71.3878 88.8317 71.5345 88.6115C71.6837 88.3913 71.7583 88.1108 71.7583 87.7699ZM77.9381 82.7273V90H77.0574V82.7273H77.9381ZM80.4284 86.7188V90H79.5903V84.5455H80.3999V85.3977H80.471C80.5988 85.1207 80.7929 84.8982 81.0534 84.7301C81.3138 84.5597 81.6499 84.4744 82.0619 84.4744C82.4312 84.4744 82.7544 84.5502 83.0313 84.7017C83.3083 84.8509 83.5238 85.0781 83.6776 85.3835C83.8315 85.6866 83.9085 86.0701 83.9085 86.5341V90H83.0704V86.5909C83.0704 86.1624 82.9591 85.8286 82.7366 85.5895C82.5141 85.348 82.2087 85.2273 81.8204 85.2273C81.5529 85.2273 81.3138 85.2853 81.1031 85.4013C80.8947 85.5173 80.7302 85.6866 80.6095 85.9091C80.4887 86.1316 80.4284 86.4015 80.4284 86.7188ZM89.3035 85.767L88.5507 85.9801C88.5033 85.8546 88.4335 85.7327 88.3412 85.6143C88.2512 85.4936 88.1281 85.3942 87.9719 85.3161C87.8156 85.2379 87.6156 85.1989 87.3717 85.1989C87.0379 85.1989 86.7597 85.2758 86.5372 85.4297C86.317 85.5812 86.2069 85.7741 86.2069 86.0085C86.2069 86.2169 86.2827 86.3814 86.4342 86.5021C86.5857 86.6229 86.8225 86.7235 87.1444 86.804L87.9541 87.0028C88.4418 87.1212 88.8052 87.3023 89.0443 87.5462C89.2834 87.7876 89.403 88.099 89.403 88.4801C89.403 88.7926 89.313 89.072 89.1331 89.3182C88.9555 89.5644 88.7069 89.7585 88.3873 89.9006C88.0677 90.0426 87.6961 90.1136 87.2723 90.1136C86.7159 90.1136 86.2555 89.9929 85.8909 89.7514C85.5263 89.5099 85.2955 89.1572 85.1984 88.6932L85.9939 88.4943C86.0696 88.7879 86.2129 89.008 86.4236 89.1548C86.6366 89.3016 86.9148 89.375 87.2581 89.375C87.6487 89.375 87.9588 89.2921 88.1885 89.1264C88.4205 88.9583 88.5365 88.7571 88.5365 88.5227C88.5365 88.3333 88.4702 88.1747 88.3376 88.0469C88.205 87.9167 88.0015 87.8196 87.7268 87.7557L86.8177 87.5426C86.3182 87.4242 85.9513 87.2408 85.7169 86.9922C85.4849 86.7412 85.3689 86.4276 85.3689 86.0511C85.3689 85.7434 85.4553 85.4711 85.6281 85.2344C85.8033 84.9976 86.0412 84.8118 86.3419 84.6768C86.6449 84.5419 86.9882 84.4744 87.3717 84.4744C87.9115 84.4744 88.3353 84.5928 88.643 84.8295C88.9532 85.0663 89.1733 85.3788 89.3035 85.767ZM93.0367 84.5455V85.2557H90.21V84.5455H93.0367ZM91.0338 83.2386H91.8719V88.4375C91.8719 88.6742 91.9062 88.8518 91.9749 88.9702C92.0459 89.0862 92.1359 89.1643 92.2448 89.2045C92.356 89.2424 92.4732 89.2614 92.5963 89.2614C92.6887 89.2614 92.7644 89.2566 92.8236 89.2472C92.8828 89.2353 92.9301 89.2259 92.9656 89.2188L93.1361 89.9716C93.0793 89.9929 93 90.0142 92.8982 90.0355C92.7964 90.0592 92.6673 90.071 92.5111 90.071C92.2744 90.071 92.0423 90.0201 91.8151 89.9183C91.5902 89.8165 91.4031 89.6615 91.254 89.4531C91.1072 89.2448 91.0338 88.982 91.0338 88.6648V83.2386ZM94.2973 90V84.5455H95.1354V90H94.2973ZM94.7235 83.6364C94.5601 83.6364 94.4192 83.5807 94.3009 83.4695C94.1849 83.3582 94.1269 83.2244 94.1269 83.0682C94.1269 82.9119 94.1849 82.7782 94.3009 82.6669C94.4192 82.5556 94.5601 82.5 94.7235 82.5C94.8868 82.5 95.0265 82.5556 95.1425 82.6669C95.2609 82.7782 95.32 82.9119 95.32 83.0682C95.32 83.2244 95.2609 83.3582 95.1425 83.4695C95.0265 83.5807 94.8868 83.6364 94.7235 83.6364ZM99.0425 84.5455V85.2557H96.2158V84.5455H99.0425ZM97.0397 83.2386H97.8778V88.4375C97.8778 88.6742 97.9121 88.8518 97.9807 88.9702C98.0518 89.0862 98.1417 89.1643 98.2506 89.2045C98.3619 89.2424 98.4791 89.2614 98.6022 89.2614C98.6945 89.2614 98.7703 89.2566 98.8295 89.2472C98.8886 89.2353 98.936 89.2259 98.9715 89.2188L99.142 89.9716C99.0851 89.9929 99.0058 90.0142 98.904 90.0355C98.8022 90.0592 98.6732 90.071 98.517 90.071C98.2802 90.071 98.0482 90.0201 97.8209 89.9183C97.596 89.8165 97.409 89.6615 97.2599 89.4531C97.1131 89.2448 97.0397 88.982 97.0397 88.6648V83.2386ZM103.741 87.7699V84.5455H104.579V90H103.741V89.0767H103.684C103.556 89.3537 103.357 89.5893 103.087 89.7834C102.817 89.9751 102.476 90.071 102.065 90.071C101.724 90.071 101.421 89.9964 101.155 89.8473C100.89 89.6958 100.682 89.4685 100.53 89.1655C100.379 88.8601 100.303 88.4754 100.303 88.0114V84.5455H101.141V87.9545C101.141 88.3523 101.253 88.6695 101.475 88.9062C101.7 89.143 101.986 89.2614 102.334 89.2614C102.543 89.2614 102.755 89.2081 102.97 89.1016C103.188 88.995 103.37 88.8317 103.517 88.6115C103.666 88.3913 103.741 88.1108 103.741 87.7699ZM108.486 84.5455V85.2557H105.659V84.5455H108.486ZM106.483 83.2386H107.321V88.4375C107.321 88.6742 107.355 88.8518 107.424 88.9702C107.495 89.0862 107.585 89.1643 107.694 89.2045C107.805 89.2424 107.922 89.2614 108.046 89.2614C108.138 89.2614 108.214 89.2566 108.273 89.2472C108.332 89.2353 108.379 89.2259 108.415 89.2188L108.585 89.9716C108.528 89.9929 108.449 90.0142 108.347 90.0355C108.246 90.0592 108.117 90.071 107.96 90.071C107.724 90.071 107.492 90.0201 107.264 89.9183C107.039 89.8165 106.852 89.6615 106.703 89.4531C106.556 89.2448 106.483 88.982 106.483 88.6648V83.2386ZM111.975 90.1136C111.449 90.1136 110.996 89.9976 110.615 89.7656C110.236 89.5312 109.944 89.2045 109.738 88.7855C109.534 88.3641 109.432 87.8741 109.432 87.3153C109.432 86.7566 109.534 86.2642 109.738 85.8381C109.944 85.4096 110.23 85.0758 110.597 84.8366C110.966 84.5952 111.397 84.4744 111.89 84.4744C112.174 84.4744 112.454 84.5218 112.731 84.6165C113.008 84.7112 113.26 84.8651 113.488 85.0781C113.715 85.2888 113.896 85.5682 114.031 85.9162C114.166 86.2642 114.233 86.6927 114.233 87.2017V87.5568H110.029V86.8324H113.381C113.381 86.5246 113.32 86.25 113.196 86.0085C113.076 85.767 112.903 85.5765 112.678 85.4368C112.455 85.2971 112.193 85.2273 111.89 85.2273C111.556 85.2273 111.267 85.3101 111.023 85.4759C110.782 85.6392 110.596 85.8523 110.466 86.1151C110.335 86.3778 110.27 86.6596 110.27 86.9602V87.4432C110.27 87.8551 110.341 88.2043 110.483 88.4908C110.628 88.7749 110.828 88.9915 111.084 89.1406C111.339 89.2874 111.636 89.3608 111.975 89.3608C112.195 89.3608 112.394 89.33 112.571 89.2685C112.751 89.2045 112.906 89.1098 113.037 88.9844C113.167 88.8565 113.267 88.6979 113.339 88.5085L114.148 88.7358C114.063 89.0104 113.92 89.2519 113.718 89.4602C113.517 89.6662 113.269 89.8272 112.973 89.9432C112.677 90.0568 112.344 90.1136 111.975 90.1136ZM120.537 90.1136C120.044 90.1136 119.612 89.9964 119.241 89.7621C118.871 89.5277 118.582 89.1998 118.374 88.7784C118.168 88.357 118.065 87.8646 118.065 87.3011C118.065 86.733 118.168 86.237 118.374 85.8132C118.582 85.3894 118.871 85.0604 119.241 84.826C119.612 84.5916 120.044 84.4744 120.537 84.4744C121.029 84.4744 121.46 84.5916 121.829 84.826C122.201 85.0604 122.49 85.3894 122.696 85.8132C122.904 86.237 123.008 86.733 123.008 87.3011C123.008 87.8646 122.904 88.357 122.696 88.7784C122.49 89.1998 122.201 89.5277 121.829 89.7621C121.46 89.9964 121.029 90.1136 120.537 90.1136ZM120.537 89.3608C120.911 89.3608 121.218 89.2649 121.46 89.0732C121.701 88.8814 121.88 88.6293 121.996 88.3168C122.112 88.0043 122.17 87.6657 122.17 87.3011C122.17 86.9366 122.112 86.5968 121.996 86.282C121.88 85.9671 121.701 85.7126 121.46 85.5185C121.218 85.3243 120.911 85.2273 120.537 85.2273C120.163 85.2273 119.855 85.3243 119.613 85.5185C119.372 85.7126 119.193 85.9671 119.077 86.282C118.961 86.5968 118.903 86.9366 118.903 87.3011C118.903 87.6657 118.961 88.0043 119.077 88.3168C119.193 88.6293 119.372 88.8814 119.613 89.0732C119.855 89.2649 120.163 89.3608 120.537 89.3608ZM126.717 84.5455V85.2557H123.776V84.5455H126.717ZM124.657 90V83.7926C124.657 83.4801 124.73 83.2197 124.877 83.0114C125.024 82.803 125.214 82.6468 125.449 82.5426C125.683 82.4384 125.931 82.3864 126.191 82.3864C126.397 82.3864 126.565 82.4029 126.695 82.4361C126.825 82.4692 126.922 82.5 126.986 82.5284L126.745 83.2528C126.702 83.2386 126.643 83.2209 126.567 83.1996C126.494 83.1783 126.397 83.1676 126.276 83.1676C125.999 83.1676 125.799 83.2375 125.676 83.3771C125.555 83.5168 125.495 83.7216 125.495 83.9915V90H124.657ZM130.419 83.5085V82.7273H135.874V83.5085H133.587V90H132.706V83.5085H130.419ZM138.616 90.1136C138.09 90.1136 137.637 89.9976 137.255 89.7656C136.877 89.5312 136.584 89.2045 136.378 88.7855C136.175 88.3641 136.073 87.8741 136.073 87.3153C136.073 86.7566 136.175 86.2642 136.378 85.8381C136.584 85.4096 136.871 85.0758 137.238 84.8366C137.607 84.5952 138.038 84.4744 138.53 84.4744C138.814 84.4744 139.095 84.5218 139.372 84.6165C139.649 84.7112 139.901 84.8651 140.128 85.0781C140.356 85.2888 140.537 85.5682 140.672 85.9162C140.807 86.2642 140.874 86.6927 140.874 87.2017V87.5568H136.669V86.8324H140.022C140.022 86.5246 139.96 86.25 139.837 86.0085C139.716 85.767 139.544 85.5765 139.319 85.4368C139.096 85.2971 138.833 85.2273 138.53 85.2273C138.196 85.2273 137.908 85.3101 137.664 85.4759C137.422 85.6392 137.236 85.8523 137.106 86.1151C136.976 86.3778 136.911 86.6596 136.911 86.9602V87.4432C136.911 87.8551 136.982 88.2043 137.124 88.4908C137.268 88.7749 137.468 88.9915 137.724 89.1406C137.98 89.2874 138.277 89.3608 138.616 89.3608C138.836 89.3608 139.035 89.33 139.212 89.2685C139.392 89.2045 139.547 89.1098 139.677 88.9844C139.807 88.8565 139.908 88.6979 139.979 88.5085L140.789 88.7358C140.704 89.0104 140.56 89.2519 140.359 89.4602C140.158 89.6662 139.909 89.8272 139.613 89.9432C139.317 90.0568 138.985 90.1136 138.616 90.1136ZM144.365 90.1136C143.853 90.1136 143.413 89.9929 143.044 89.7514C142.674 89.5099 142.39 89.1773 142.191 88.7536C141.993 88.3298 141.893 87.8456 141.893 87.3011C141.893 86.7472 141.995 86.2583 142.199 85.8345C142.405 85.4084 142.691 85.0758 143.058 84.8366C143.427 84.5952 143.858 84.4744 144.351 84.4744C144.734 84.4744 145.08 84.5455 145.388 84.6875C145.695 84.8295 145.947 85.0284 146.144 85.2841C146.34 85.5398 146.462 85.8381 146.51 86.179H145.672C145.608 85.9304 145.466 85.7102 145.245 85.5185C145.028 85.3243 144.734 85.2273 144.365 85.2273C144.038 85.2273 143.752 85.3125 143.505 85.483C143.262 85.651 143.071 85.889 142.934 86.1967C142.799 86.5021 142.731 86.8608 142.731 87.2727C142.731 87.6941 142.798 88.0611 142.93 88.3736C143.065 88.6861 143.254 88.9287 143.498 89.1016C143.745 89.2744 144.033 89.3608 144.365 89.3608C144.583 89.3608 144.78 89.3229 144.958 89.2472C145.135 89.1714 145.286 89.0625 145.409 88.9205C145.532 88.7784 145.62 88.608 145.672 88.4091H146.51C146.462 88.7311 146.345 89.0211 146.158 89.2791C145.973 89.5348 145.728 89.7384 145.423 89.8899C145.12 90.0391 144.767 90.1136 144.365 90.1136ZM148.573 86.7188V90H147.735V82.7273H148.573V85.3977H148.644C148.772 85.116 148.964 84.8923 149.219 84.7266C149.477 84.5585 149.821 84.4744 150.249 84.4744C150.621 84.4744 150.946 84.549 151.226 84.6982C151.505 84.8449 151.722 85.071 151.875 85.3764C152.032 85.6795 152.11 86.0653 152.11 86.5341V90H151.272V86.5909C151.272 86.1577 151.159 85.8227 150.934 85.5859C150.712 85.3468 150.403 85.2273 150.008 85.2273C149.733 85.2273 149.487 85.2853 149.269 85.4013C149.053 85.5173 148.883 85.6866 148.758 85.9091C148.634 86.1316 148.573 86.4015 148.573 86.7188ZM154.481 86.7188V90H153.643V84.5455H154.453V85.3977H154.524C154.652 85.1207 154.846 84.8982 155.106 84.7301C155.367 84.5597 155.703 84.4744 156.115 84.4744C156.484 84.4744 156.807 84.5502 157.084 84.7017C157.361 84.8509 157.576 85.0781 157.73 85.3835C157.884 85.6866 157.961 86.0701 157.961 86.5341V90H157.123V86.5909C157.123 86.1624 157.012 85.8286 156.789 85.5895C156.567 85.348 156.261 85.2273 155.873 85.2273C155.606 85.2273 155.367 85.2853 155.156 85.4013C154.947 85.5173 154.783 85.6866 154.662 85.9091C154.541 86.1316 154.481 86.4015 154.481 86.7188ZM161.709 90.1136C161.216 90.1136 160.784 89.9964 160.412 89.7621C160.043 89.5277 159.754 89.1998 159.546 88.7784C159.34 88.357 159.237 87.8646 159.237 87.3011C159.237 86.733 159.34 86.237 159.546 85.8132C159.754 85.3894 160.043 85.0604 160.412 84.826C160.784 84.5916 161.216 84.4744 161.709 84.4744C162.201 84.4744 162.632 84.5916 163.001 84.826C163.373 85.0604 163.662 85.3894 163.868 85.8132C164.076 86.237 164.18 86.733 164.18 87.3011C164.18 87.8646 164.076 88.357 163.868 88.7784C163.662 89.1998 163.373 89.5277 163.001 89.7621C162.632 89.9964 162.201 90.1136 161.709 90.1136ZM161.709 89.3608C162.083 89.3608 162.39 89.2649 162.632 89.0732C162.873 88.8814 163.052 88.6293 163.168 88.3168C163.284 88.0043 163.342 87.6657 163.342 87.3011C163.342 86.9366 163.284 86.5968 163.168 86.282C163.052 85.9671 162.873 85.7126 162.632 85.5185C162.39 85.3243 162.083 85.2273 161.709 85.2273C161.334 85.2273 161.027 85.3243 160.785 85.5185C160.544 85.7126 160.365 85.9671 160.249 86.282C160.133 86.5968 160.075 86.9366 160.075 87.3011C160.075 87.6657 160.133 88.0043 160.249 88.3168C160.365 88.6293 160.544 88.8814 160.785 89.0732C161.027 89.2649 161.334 89.3608 161.709 89.3608ZM166.297 82.7273V90H165.459V82.7273H166.297ZM170.048 90.1136C169.556 90.1136 169.124 89.9964 168.752 89.7621C168.383 89.5277 168.094 89.1998 167.886 88.7784C167.68 88.357 167.577 87.8646 167.577 87.3011C167.577 86.733 167.68 86.237 167.886 85.8132C168.094 85.3894 168.383 85.0604 168.752 84.826C169.124 84.5916 169.556 84.4744 170.048 84.4744C170.541 84.4744 170.972 84.5916 171.341 84.826C171.713 85.0604 172.002 85.3894 172.207 85.8132C172.416 86.237 172.52 86.733 172.52 87.3011C172.52 87.8646 172.416 88.357 172.207 88.7784C172.002 89.1998 171.713 89.5277 171.341 89.7621C170.972 89.9964 170.541 90.1136 170.048 90.1136ZM170.048 89.3608C170.422 89.3608 170.73 89.2649 170.972 89.0732C171.213 88.8814 171.392 88.6293 171.508 88.3168C171.624 88.0043 171.682 87.6657 171.682 87.3011C171.682 86.9366 171.624 86.5968 171.508 86.282C171.392 85.9671 171.213 85.7126 170.972 85.5185C170.73 85.3243 170.422 85.2273 170.048 85.2273C169.674 85.2273 169.367 85.3243 169.125 85.5185C168.884 85.7126 168.705 85.9671 168.589 86.282C168.473 86.5968 168.415 86.9366 168.415 87.3011C168.415 87.6657 168.473 88.0043 168.589 88.3168C168.705 88.6293 168.884 88.8814 169.125 89.0732C169.367 89.2649 169.674 89.3608 170.048 89.3608ZM176.001 92.1591C175.596 92.1591 175.248 92.107 174.957 92.0028C174.666 91.901 174.423 91.7661 174.229 91.598C174.037 91.4323 173.884 91.2547 173.771 91.0653L174.438 90.5966C174.514 90.696 174.61 90.8097 174.726 90.9375C174.842 91.0677 175.001 91.1802 175.202 91.2749C175.406 91.3719 175.672 91.4205 176.001 91.4205C176.441 91.4205 176.805 91.3139 177.091 91.1009C177.378 90.8878 177.521 90.554 177.521 90.0994V88.9915H177.45C177.388 89.0909 177.301 89.214 177.187 89.3608C177.076 89.5052 176.915 89.6342 176.704 89.7479C176.496 89.8591 176.214 89.9148 175.859 89.9148C175.419 89.9148 175.023 89.8106 174.673 89.6023C174.325 89.3939 174.049 89.0909 173.845 88.6932C173.644 88.2955 173.544 87.8125 173.544 87.2443C173.544 86.6856 173.642 86.1991 173.838 85.7848C174.035 85.3681 174.308 85.0462 174.659 84.8189C175.009 84.5893 175.414 84.4744 175.873 84.4744C176.228 84.4744 176.51 84.5336 176.718 84.652C176.929 84.768 177.09 84.9006 177.201 85.0497C177.315 85.1965 177.402 85.3172 177.464 85.4119H177.549V84.5455H178.359V90.1562C178.359 90.625 178.252 91.0062 178.039 91.2997C177.829 91.5956 177.545 91.8123 177.187 91.9496C176.832 92.0893 176.437 92.1591 176.001 92.1591ZM175.973 89.1619C176.309 89.1619 176.593 89.085 176.825 88.9311C177.057 88.7772 177.233 88.5559 177.354 88.267C177.475 87.9782 177.535 87.6326 177.535 87.2301C177.535 86.8371 177.476 86.4903 177.358 86.1896C177.239 85.889 177.064 85.6534 176.832 85.483C176.6 85.3125 176.313 85.2273 175.973 85.2273C175.617 85.2273 175.322 85.3172 175.085 85.4972C174.85 85.6771 174.674 85.9186 174.556 86.2216C174.44 86.5246 174.382 86.8608 174.382 87.2301C174.382 87.6089 174.441 87.9439 174.559 88.2351C174.68 88.5239 174.858 88.7512 175.092 88.9169C175.329 89.0803 175.622 89.1619 175.973 89.1619ZM180.433 92.0455C180.291 92.0455 180.164 92.0336 180.053 92.0099C179.942 91.9886 179.865 91.9673 179.822 91.946L180.035 91.2074C180.239 91.2595 180.419 91.2784 180.575 91.2642C180.731 91.25 180.87 91.1802 180.99 91.0547C181.113 90.9316 181.226 90.7315 181.328 90.4545L181.484 90.0284L179.467 84.5455H180.376L181.882 88.892H181.938L183.444 84.5455H184.353L182.038 90.7955C181.934 91.0772 181.805 91.3104 181.651 91.495C181.497 91.6821 181.318 91.8205 181.115 91.9105C180.913 92.0005 180.686 92.0455 180.433 92.0455ZM189.877 90.1278C189.531 90.1278 189.218 90.0627 188.936 89.9325C188.654 89.8 188.431 89.6094 188.265 89.3608C188.099 89.1098 188.016 88.8068 188.016 88.4517C188.016 88.1392 188.078 87.8859 188.201 87.6918C188.324 87.4953 188.489 87.3414 188.695 87.2301C188.9 87.1188 189.128 87.036 189.376 86.9815C189.627 86.9247 189.879 86.8797 190.133 86.8466C190.464 86.804 190.733 86.772 190.939 86.7507C191.147 86.727 191.299 86.688 191.393 86.6335C191.49 86.5791 191.539 86.4844 191.539 86.3494V86.321C191.539 85.9706 191.443 85.6984 191.251 85.5043C191.062 85.3101 190.774 85.2131 190.388 85.2131C189.988 85.2131 189.675 85.3007 189.447 85.4759C189.22 85.651 189.06 85.8381 188.968 86.0369L188.172 85.7528C188.315 85.4214 188.504 85.1634 188.741 84.9787C188.98 84.7917 189.24 84.6615 189.522 84.5881C189.806 84.5123 190.085 84.4744 190.36 84.4744C190.535 84.4744 190.736 84.4957 190.964 84.5384C191.193 84.5786 191.415 84.6626 191.628 84.7905C191.843 84.9183 192.022 85.1113 192.164 85.3693C192.306 85.6274 192.377 85.973 192.377 86.4062V90H191.539V89.2614H191.496C191.44 89.3797 191.345 89.5064 191.212 89.6413C191.08 89.7763 190.903 89.8911 190.683 89.9858C190.463 90.0805 190.194 90.1278 189.877 90.1278ZM190.005 89.375C190.336 89.375 190.616 89.3099 190.843 89.1797C191.073 89.0495 191.245 88.8814 191.361 88.6754C191.48 88.4695 191.539 88.2528 191.539 88.0256V87.2585C191.503 87.3011 191.425 87.3402 191.305 87.3757C191.186 87.4089 191.049 87.4384 190.893 87.4645C190.739 87.4882 190.588 87.5095 190.442 87.5284C190.297 87.545 190.18 87.5592 190.09 87.571C189.872 87.5994 189.669 87.6456 189.479 87.7095C189.292 87.7711 189.141 87.8646 189.025 87.9901C188.911 88.1132 188.854 88.2812 188.854 88.4943C188.854 88.7855 188.962 89.0057 189.177 89.1548C189.395 89.3016 189.671 89.375 190.005 89.375ZM194.745 86.7188V90H193.907V84.5455H194.716V85.3977H194.787C194.915 85.1207 195.109 84.8982 195.37 84.7301C195.63 84.5597 195.966 84.4744 196.378 84.4744C196.748 84.4744 197.071 84.5502 197.348 84.7017C197.625 84.8509 197.84 85.0781 197.994 85.3835C198.148 85.6866 198.225 86.0701 198.225 86.5341V90H197.387V86.5909C197.387 86.1624 197.276 85.8286 197.053 85.5895C196.83 85.348 196.525 85.2273 196.137 85.2273C195.869 85.2273 195.63 85.2853 195.419 85.4013C195.211 85.5173 195.047 85.6866 194.926 85.9091C194.805 86.1316 194.745 86.4015 194.745 86.7188ZM201.816 90.1136C201.361 90.1136 200.96 89.9988 200.612 89.7692C200.264 89.5372 199.992 89.2105 199.795 88.7891C199.599 88.3653 199.501 87.8646 199.501 87.2869C199.501 86.714 199.599 86.2169 199.795 85.7955C199.992 85.3741 200.265 85.0485 200.616 84.8189C200.966 84.5893 201.371 84.4744 201.83 84.4744C202.185 84.4744 202.466 84.5336 202.672 84.652C202.88 84.768 203.039 84.9006 203.148 85.0497C203.259 85.1965 203.345 85.3172 203.407 85.4119H203.478V82.7273H204.316V90H203.506V89.1619H203.407C203.345 89.2614 203.258 89.3868 203.144 89.5384C203.03 89.6875 202.868 89.8213 202.658 89.9396C202.447 90.0556 202.166 90.1136 201.816 90.1136ZM201.93 89.3608C202.266 89.3608 202.55 89.2732 202.782 89.098C203.014 88.9205 203.19 88.6754 203.311 88.3629C203.432 88.0481 203.492 87.6847 203.492 87.2727C203.492 86.8655 203.433 86.5092 203.315 86.2038C203.196 85.8961 203.021 85.657 202.789 85.4865C202.557 85.3137 202.271 85.2273 201.93 85.2273C201.574 85.2273 201.279 85.3184 201.042 85.5007C200.807 85.6806 200.631 85.9257 200.513 86.2358C200.397 86.5436 200.339 86.8892 200.339 87.2727C200.339 87.661 200.398 88.0137 200.516 88.331C200.637 88.6458 200.815 88.8968 201.049 89.0838C201.286 89.2685 201.579 89.3608 201.93 89.3608ZM212.871 84.5455C212.828 84.1856 212.655 83.9062 212.352 83.7074C212.049 83.5085 211.677 83.4091 211.237 83.4091C210.915 83.4091 210.633 83.4612 210.392 83.5653C210.153 83.6695 209.966 83.8127 209.831 83.995C209.698 84.1773 209.632 84.3845 209.632 84.6165C209.632 84.8106 209.678 84.9775 209.771 85.1172C209.865 85.2545 209.986 85.3693 210.133 85.4616C210.28 85.5516 210.433 85.6262 210.594 85.6854C210.755 85.7422 210.903 85.7884 211.038 85.8239L211.777 86.0227C211.966 86.0724 212.177 86.1411 212.409 86.2287C212.643 86.3163 212.867 86.4358 213.08 86.5874C213.296 86.7365 213.473 86.9283 213.613 87.1626C213.753 87.397 213.822 87.6847 213.822 88.0256C213.822 88.4186 213.719 88.7737 213.513 89.0909C213.31 89.4081 213.012 89.6603 212.619 89.8473C212.228 90.0343 211.753 90.1278 211.195 90.1278C210.674 90.1278 210.223 90.0438 209.842 89.8757C209.463 89.7076 209.164 89.4732 208.947 89.1726C208.731 88.8719 208.609 88.5227 208.581 88.125H209.49C209.514 88.3996 209.606 88.6269 209.767 88.8068C209.93 88.9844 210.136 89.117 210.385 89.2045C210.636 89.2898 210.906 89.3324 211.195 89.3324C211.531 89.3324 211.833 89.2779 212.1 89.169C212.368 89.0578 212.579 88.9039 212.736 88.7074C212.892 88.5085 212.97 88.2765 212.97 88.0114C212.97 87.7699 212.903 87.5734 212.768 87.4219C212.633 87.2704 212.455 87.1473 212.235 87.0526C212.015 86.9579 211.777 86.875 211.521 86.804L210.626 86.5483C210.058 86.3849 209.608 86.1518 209.277 85.8487C208.945 85.5457 208.78 85.1491 208.78 84.6591C208.78 84.2519 208.89 83.8968 209.11 83.5938C209.333 83.2884 209.631 83.0516 210.005 82.8835C210.381 82.7131 210.802 82.6278 211.266 82.6278C211.734 82.6278 212.151 82.7119 212.516 82.88C212.88 83.0457 213.169 83.273 213.382 83.5618C213.597 83.8506 213.711 84.1785 213.723 84.5455H212.871ZM217.373 90.1136C216.861 90.1136 216.421 89.9929 216.052 89.7514C215.682 89.5099 215.398 89.1773 215.199 88.7536C215 88.3298 214.901 87.8456 214.901 87.3011C214.901 86.7472 215.003 86.2583 215.206 85.8345C215.412 85.4084 215.699 85.0758 216.066 84.8366C216.435 84.5952 216.866 84.4744 217.358 84.4744C217.742 84.4744 218.088 84.5455 218.395 84.6875C218.703 84.8295 218.955 85.0284 219.152 85.2841C219.348 85.5398 219.47 85.8381 219.517 86.179H218.679C218.616 85.9304 218.473 85.7102 218.253 85.5185C218.035 85.3243 217.742 85.2273 217.373 85.2273C217.046 85.2273 216.759 85.3125 216.513 85.483C216.269 85.651 216.079 85.889 215.941 86.1967C215.807 86.5021 215.739 86.8608 215.739 87.2727C215.739 87.6941 215.805 88.0611 215.938 88.3736C216.073 88.6861 216.262 88.9287 216.506 89.1016C216.752 89.2744 217.041 89.3608 217.373 89.3608C217.59 89.3608 217.788 89.3229 217.966 89.2472C218.143 89.1714 218.294 89.0625 218.417 88.9205C218.54 88.7784 218.627 88.608 218.679 88.4091H219.517C219.47 88.7311 219.353 89.0211 219.166 89.2791C218.981 89.5348 218.736 89.7384 218.431 89.8899C218.128 90.0391 217.775 90.1136 217.373 90.1136ZM220.743 90V84.5455H221.581V90H220.743ZM221.169 83.6364C221.005 83.6364 220.865 83.5807 220.746 83.4695C220.63 83.3582 220.572 83.2244 220.572 83.0682C220.572 82.9119 220.63 82.7782 220.746 82.6669C220.865 82.5556 221.005 82.5 221.169 82.5C221.332 82.5 221.472 82.5556 221.588 82.6669C221.706 82.7782 221.765 82.9119 221.765 83.0682C221.765 83.2244 221.706 83.3582 221.588 83.4695C221.472 83.5807 221.332 83.6364 221.169 83.6364ZM225.403 90.1136C224.877 90.1136 224.424 89.9976 224.043 89.7656C223.664 89.5312 223.371 89.2045 223.165 88.7855C222.962 88.3641 222.86 87.8741 222.86 87.3153C222.86 86.7566 222.962 86.2642 223.165 85.8381C223.371 85.4096 223.658 85.0758 224.025 84.8366C224.394 84.5952 224.825 84.4744 225.317 84.4744C225.601 84.4744 225.882 84.5218 226.159 84.6165C226.436 84.7112 226.688 84.8651 226.915 85.0781C227.143 85.2888 227.324 85.5682 227.459 85.9162C227.594 86.2642 227.661 86.6927 227.661 87.2017V87.5568H223.457V86.8324H226.809C226.809 86.5246 226.747 86.25 226.624 86.0085C226.503 85.767 226.331 85.5765 226.106 85.4368C225.883 85.2971 225.62 85.2273 225.317 85.2273C224.984 85.2273 224.695 85.3101 224.451 85.4759C224.209 85.6392 224.024 85.8523 223.893 86.1151C223.763 86.3778 223.698 86.6596 223.698 86.9602V87.4432C223.698 87.8551 223.769 88.2043 223.911 88.4908C224.056 88.7749 224.256 88.9915 224.511 89.1406C224.767 89.2874 225.064 89.3608 225.403 89.3608C225.623 89.3608 225.822 89.33 225.999 89.2685C226.179 89.2045 226.334 89.1098 226.464 88.9844C226.595 88.8565 226.695 88.6979 226.766 88.5085L227.576 88.7358C227.491 89.0104 227.347 89.2519 227.146 89.4602C226.945 89.6662 226.696 89.8272 226.4 89.9432C226.105 90.0568 225.772 90.1136 225.403 90.1136ZM229.774 86.7188V90H228.936V84.5455H229.746V85.3977H229.817C229.945 85.1207 230.139 84.8982 230.399 84.7301C230.659 84.5597 230.996 84.4744 231.408 84.4744C231.777 84.4744 232.1 84.5502 232.377 84.7017C232.654 84.8509 232.869 85.0781 233.023 85.3835C233.177 85.6866 233.254 86.0701 233.254 86.5341V90H232.416V86.5909C232.416 86.1624 232.305 85.8286 232.082 85.5895C231.86 85.348 231.554 85.2273 231.166 85.2273C230.899 85.2273 230.659 85.2853 230.449 85.4013C230.24 85.5173 230.076 85.6866 229.955 85.9091C229.834 86.1316 229.774 86.4015 229.774 86.7188ZM237.002 90.1136C236.49 90.1136 236.05 89.9929 235.68 89.7514C235.311 89.5099 235.027 89.1773 234.828 88.7536C234.629 88.3298 234.53 87.8456 234.53 87.3011C234.53 86.7472 234.632 86.2583 234.835 85.8345C235.041 85.4084 235.328 85.0758 235.695 84.8366C236.064 84.5952 236.495 84.4744 236.987 84.4744C237.371 84.4744 237.716 84.5455 238.024 84.6875C238.332 84.8295 238.584 85.0284 238.781 85.2841C238.977 85.5398 239.099 85.8381 239.146 86.179H238.308C238.244 85.9304 238.102 85.7102 237.882 85.5185C237.664 85.3243 237.371 85.2273 237.002 85.2273C236.675 85.2273 236.388 85.3125 236.142 85.483C235.898 85.651 235.708 85.889 235.57 86.1967C235.435 86.5021 235.368 86.8608 235.368 87.2727C235.368 87.6941 235.434 88.0611 235.567 88.3736C235.702 88.6861 235.891 88.9287 236.135 89.1016C236.381 89.2744 236.67 89.3608 237.002 89.3608C237.219 89.3608 237.417 89.3229 237.595 89.2472C237.772 89.1714 237.922 89.0625 238.046 88.9205C238.169 88.7784 238.256 88.608 238.308 88.4091H239.146C239.099 88.7311 238.982 89.0211 238.795 89.2791C238.61 89.5348 238.365 89.7384 238.06 89.8899C237.757 90.0391 237.404 90.1136 237.002 90.1136ZM242.658 90.1136C242.133 90.1136 241.68 89.9976 241.298 89.7656C240.92 89.5312 240.627 89.2045 240.421 88.7855C240.218 88.3641 240.116 87.8741 240.116 87.3153C240.116 86.7566 240.218 86.2642 240.421 85.8381C240.627 85.4096 240.914 85.0758 241.281 84.8366C241.65 84.5952 242.081 84.4744 242.573 84.4744C242.857 84.4744 243.138 84.5218 243.415 84.6165C243.692 84.7112 243.944 84.8651 244.171 85.0781C244.399 85.2888 244.58 85.5682 244.715 85.9162C244.85 86.2642 244.917 86.6927 244.917 87.2017V87.5568H240.712V86.8324H244.065C244.065 86.5246 244.003 86.25 243.88 86.0085C243.759 85.767 243.586 85.5765 243.362 85.4368C243.139 85.2971 242.876 85.2273 242.573 85.2273C242.239 85.2273 241.951 85.3101 241.707 85.4759C241.465 85.6392 241.279 85.8523 241.149 86.1151C241.019 86.3778 240.954 86.6596 240.954 86.9602V87.4432C240.954 87.8551 241.025 88.2043 241.167 88.4908C241.311 88.7749 241.511 88.9915 241.767 89.1406C242.023 89.2874 242.32 89.3608 242.658 89.3608C242.879 89.3608 243.078 89.33 243.255 89.2685C243.435 89.2045 243.59 89.1098 243.72 88.9844C243.85 88.8565 243.951 88.6979 244.022 88.5085L244.832 88.7358C244.747 89.0104 244.603 89.2519 244.402 89.4602C244.201 89.6662 243.952 89.8272 243.656 89.9432C243.36 90.0568 243.028 90.1136 242.658 90.1136ZM247.442 89.0057L247.385 89.3892C247.345 89.6591 247.283 89.9479 247.2 90.2557C247.12 90.5634 247.036 90.8535 246.948 91.1257C246.861 91.398 246.788 91.6146 246.732 91.7756H246.092C246.123 91.6241 246.163 91.424 246.213 91.1754C246.263 90.9268 246.313 90.6487 246.362 90.3409C246.414 90.0355 246.457 89.723 246.49 89.4034L246.533 89.0057H247.442ZM251.921 90V82.7273H254.378C254.946 82.7273 255.413 82.8243 255.777 83.0185C256.142 83.2102 256.412 83.4742 256.587 83.8104C256.762 84.1465 256.85 84.5289 256.85 84.9574C256.85 85.3859 256.762 85.7659 256.587 86.0973C256.412 86.4287 256.143 86.6892 255.781 86.8786C255.419 87.0656 254.956 87.1591 254.392 87.1591H252.404V86.3636H254.364C254.752 86.3636 255.065 86.3068 255.301 86.1932C255.541 86.0795 255.713 85.9186 255.82 85.7102C255.929 85.4995 255.983 85.2486 255.983 84.9574C255.983 84.6662 255.929 84.4117 255.82 84.1939C255.711 83.9761 255.537 83.808 255.298 83.6896C255.059 83.5689 254.743 83.5085 254.35 83.5085H252.801V90H251.921ZM255.344 86.733L257.134 90H256.111L254.35 86.733H255.344ZM259.809 90.1278C259.463 90.1278 259.149 90.0627 258.868 89.9325C258.586 89.8 258.362 89.6094 258.196 89.3608C258.031 89.1098 257.948 88.8068 257.948 88.4517C257.948 88.1392 258.009 87.8859 258.133 87.6918C258.256 87.4953 258.42 87.3414 258.626 87.2301C258.832 87.1188 259.059 87.036 259.308 86.9815C259.559 86.9247 259.811 86.8797 260.064 86.8466C260.396 86.804 260.665 86.772 260.87 86.7507C261.079 86.727 261.23 86.688 261.325 86.6335C261.422 86.5791 261.471 86.4844 261.471 86.3494V86.321C261.471 85.9706 261.375 85.6984 261.183 85.5043C260.994 85.3101 260.706 85.2131 260.32 85.2131C259.92 85.2131 259.606 85.3007 259.379 85.4759C259.152 85.651 258.992 85.8381 258.9 86.0369L258.104 85.7528C258.246 85.4214 258.436 85.1634 258.672 84.9787C258.911 84.7917 259.172 84.6615 259.454 84.5881C259.738 84.5123 260.017 84.4744 260.292 84.4744C260.467 84.4744 260.668 84.4957 260.895 84.5384C261.125 84.5786 261.346 84.6626 261.559 84.7905C261.775 84.9183 261.954 85.1113 262.096 85.3693C262.238 85.6274 262.309 85.973 262.309 86.4062V90H261.471V89.2614H261.428C261.371 89.3797 261.276 89.5064 261.144 89.6413C261.011 89.7763 260.835 89.8911 260.615 89.9858C260.395 90.0805 260.126 90.1278 259.809 90.1278ZM259.937 89.375C260.268 89.375 260.547 89.3099 260.775 89.1797C261.004 89.0495 261.177 88.8814 261.293 88.6754C261.411 88.4695 261.471 88.2528 261.471 88.0256V87.2585C261.435 87.3011 261.357 87.3402 261.236 87.3757C261.118 87.4089 260.981 87.4384 260.824 87.4645C260.67 87.4882 260.52 87.5095 260.373 87.5284C260.229 87.545 260.112 87.5592 260.022 87.571C259.804 87.5994 259.6 87.6456 259.411 87.7095C259.224 87.7711 259.072 87.8646 258.956 87.9901C258.843 88.1132 258.786 88.2812 258.786 88.4943C258.786 88.7855 258.894 89.0057 259.109 89.1548C259.327 89.3016 259.603 89.375 259.937 89.375ZM263.838 90V84.5455H264.648V85.3977H264.719C264.833 85.1065 265.016 84.8804 265.269 84.7195C265.523 84.5561 265.827 84.4744 266.182 84.4744C266.542 84.4744 266.841 84.5561 267.081 84.7195C267.322 84.8804 267.51 85.1065 267.645 85.3977H267.702C267.842 85.116 268.051 84.8923 268.331 84.7266C268.61 84.5585 268.945 84.4744 269.335 84.4744C269.823 84.4744 270.222 84.6271 270.532 84.9325C270.842 85.2356 270.997 85.7079 270.997 86.3494V90H270.159V86.3494C270.159 85.947 270.049 85.6593 269.829 85.4865C269.609 85.3137 269.35 85.2273 269.051 85.2273C268.668 85.2273 268.371 85.3433 268.16 85.5753C267.949 85.8049 267.844 86.0961 267.844 86.4489V90H266.992V86.2642C266.992 85.9541 266.891 85.7043 266.69 85.5149C266.489 85.3232 266.229 85.2273 265.912 85.2273C265.694 85.2273 265.491 85.2853 265.301 85.4013C265.114 85.5173 264.963 85.6783 264.847 85.8842C264.733 86.0878 264.676 86.3234 264.676 86.5909V90H263.838ZM274.902 84.5455V85.2557H272.075V84.5455H274.902ZM272.899 83.2386H273.737V88.4375C273.737 88.6742 273.771 88.8518 273.84 88.9702C273.911 89.0862 274.001 89.1643 274.11 89.2045C274.221 89.2424 274.338 89.2614 274.462 89.2614C274.554 89.2614 274.63 89.2566 274.689 89.2472C274.748 89.2353 274.795 89.2259 274.831 89.2188L275.001 89.9716C274.945 89.9929 274.865 90.0142 274.763 90.0355C274.662 90.0592 274.533 90.071 274.376 90.071C274.14 90.071 273.908 90.0201 273.68 89.9183C273.455 89.8165 273.268 89.6615 273.119 89.4531C272.972 89.2448 272.899 88.982 272.899 88.6648V83.2386ZM278.391 90.1136C277.865 90.1136 277.412 89.9976 277.031 89.7656C276.652 89.5312 276.36 89.2045 276.154 88.7855C275.95 88.3641 275.848 87.8741 275.848 87.3153C275.848 86.7566 275.95 86.2642 276.154 85.8381C276.36 85.4096 276.646 85.0758 277.013 84.8366C277.382 84.5952 277.813 84.4744 278.306 84.4744C278.59 84.4744 278.87 84.5218 279.147 84.6165C279.424 84.7112 279.676 84.8651 279.904 85.0781C280.131 85.2888 280.312 85.5682 280.447 85.9162C280.582 86.2642 280.649 86.6927 280.649 87.2017V87.5568H276.445V86.8324H279.797C279.797 86.5246 279.736 86.25 279.612 86.0085C279.492 85.767 279.319 85.5765 279.094 85.4368C278.871 85.2971 278.609 85.2273 278.306 85.2273C277.972 85.2273 277.683 85.3101 277.439 85.4759C277.198 85.6392 277.012 85.8523 276.882 86.1151C276.751 86.3778 276.686 86.6596 276.686 86.9602V87.4432C276.686 87.8551 276.757 88.2043 276.899 88.4908C277.044 88.7749 277.244 88.9915 277.5 89.1406C277.755 89.2874 278.052 89.3608 278.391 89.3608C278.611 89.3608 278.81 89.33 278.987 89.2685C279.167 89.2045 279.322 89.1098 279.453 88.9844C279.583 88.8565 279.684 88.6979 279.755 88.5085L280.564 88.7358C280.479 89.0104 280.336 89.2519 280.134 89.4602C279.933 89.6662 279.685 89.8272 279.389 89.9432C279.093 90.0568 278.76 90.1136 278.391 90.1136ZM282.706 88.0114L282.691 86.9744H282.862L285.248 84.5455H286.285L283.742 87.1165H283.671L282.706 88.0114ZM281.924 90V82.7273H282.762V90H281.924ZM285.39 90L283.259 87.3011L283.856 86.7188L286.456 90H285.39Z" fill="white"/>
</svg>
