<svg width="304" height="120" viewBox="0 0 304 120" fill="none" xmlns="http://www.w3.org/2000/svg">
<rect width="304" height="120" rx="6" fill="#313235"/>
<path d="M23.0871 75.1405C21.9783 75.1405 20.9564 74.8742 20.0216 74.3415C19.0867 73.8089 18.342 73.0805 17.7876 72.1565C17.2441 71.2217 16.9723 70.1835 16.9723 69.0421C16.9723 67.9007 17.2441 66.8679 17.7876 65.9439C18.342 65.0091 19.0867 64.2753 20.0216 63.7426C20.9564 63.21 21.9783 62.9436 23.0871 62.9436C23.9676 62.9436 24.7884 63.1012 25.5493 63.4165C26.3102 63.7317 26.9462 64.172 27.4571 64.7373L26.1852 66.0092C25.8048 65.5852 25.3482 65.2591 24.8155 65.0308C24.2937 64.8025 23.7122 64.6884 23.0708 64.6884C22.3207 64.6884 21.6195 64.8677 20.9673 65.2265C20.3151 65.5852 19.7933 66.0961 19.4019 66.7592C19.0106 67.4223 18.8149 68.1833 18.8149 69.0421C18.8149 69.9009 19.0106 70.6618 19.4019 71.3249C19.7933 71.988 20.3151 72.499 20.9673 72.8577C21.6195 73.2164 22.3261 73.3958 23.0871 73.3958C23.7828 73.3958 24.3644 73.2925 24.8318 73.086C25.2993 72.8794 25.7178 72.6022 26.0874 72.2544C26.3266 72.0152 26.5277 71.7163 26.6907 71.3575C26.8647 70.9988 26.9788 70.6075 27.0332 70.1835H23.0708V68.5529H28.7616C28.8159 68.8573 28.8431 69.1725 28.8431 69.4986C28.8431 70.2379 28.729 70.9499 28.5007 71.6347C28.2724 72.3087 27.9082 72.8957 27.4082 73.3958C26.3102 74.559 24.8699 75.1405 23.0871 75.1405ZM34.4753 75.1405C33.6383 75.1405 32.8882 74.9503 32.2251 74.5698C31.562 74.1785 31.0456 73.6458 30.676 72.9718C30.3064 72.2979 30.1216 71.5478 30.1216 70.7216C30.1216 69.8954 30.3064 69.1454 30.676 68.4714C31.0456 67.7974 31.562 67.2702 32.2251 66.8897C32.8882 66.4983 33.6383 66.3027 34.4753 66.3027C35.3124 66.3027 36.0624 66.4983 36.7256 66.8897C37.3887 67.281 37.905 67.8137 38.2746 68.4877C38.6442 69.1617 38.829 69.9063 38.829 70.7216C38.829 71.5478 38.6442 72.2979 38.2746 72.9718C37.905 73.6458 37.3887 74.1785 36.7256 74.5698C36.0624 74.9503 35.3124 75.1405 34.4753 75.1405ZM34.4753 73.4936C34.9319 73.4936 35.3559 73.3849 35.7472 73.1675C36.1385 72.9392 36.4484 72.6185 36.6766 72.2054C36.9158 71.7815 37.0354 71.2869 37.0354 70.7216C37.0354 70.1563 36.9158 69.6671 36.6766 69.2541C36.4484 68.841 36.1385 68.5257 35.7472 68.3083C35.3559 68.08 34.9319 67.9659 34.4753 67.9659C34.0188 67.9659 33.5948 68.08 33.2035 68.3083C32.8121 68.5257 32.4969 68.841 32.2577 69.2541C32.0294 69.6671 31.9153 70.1563 31.9153 70.7216C31.9153 71.2869 32.0294 71.7815 32.2577 72.2054C32.4969 72.6185 32.8121 72.9392 33.2035 73.1675C33.5948 73.3849 34.0188 73.4936 34.4753 73.4936ZM44.38 75.1405C43.5429 75.1405 42.7928 74.9503 42.1297 74.5698C41.4666 74.1785 40.9503 73.6458 40.5807 72.9718C40.2111 72.2979 40.0263 71.5478 40.0263 70.7216C40.0263 69.8954 40.2111 69.1454 40.5807 68.4714C40.9503 67.7974 41.4666 67.2702 42.1297 66.8897C42.7928 66.4983 43.5429 66.3027 44.38 66.3027C45.217 66.3027 45.9671 66.4983 46.6302 66.8897C47.2933 67.281 47.8097 67.8137 48.1793 68.4877C48.5489 69.1617 48.7337 69.9063 48.7337 70.7216C48.7337 71.5478 48.5489 72.2979 48.1793 72.9718C47.8097 73.6458 47.2933 74.1785 46.6302 74.5698C45.9671 74.9503 45.217 75.1405 44.38 75.1405ZM44.38 73.4936C44.8365 73.4936 45.2605 73.3849 45.6518 73.1675C46.0432 72.9392 46.353 72.6185 46.5813 72.2054C46.8204 71.7815 46.94 71.2869 46.94 70.7216C46.94 70.1563 46.8204 69.6671 46.5813 69.2541C46.353 68.841 46.0432 68.5257 45.6518 68.3083C45.2605 68.08 44.8365 67.9659 44.38 67.9659C43.9234 67.9659 43.4994 68.08 43.1081 68.3083C42.7167 68.5257 42.4015 68.841 42.1623 69.2541C41.9341 69.6671 41.8199 70.1563 41.8199 70.7216C41.8199 71.2869 41.9341 71.7815 42.1623 72.2054C42.4015 72.6185 42.7167 72.9392 43.1081 73.1675C43.4994 73.3849 43.9234 73.4936 44.38 73.4936ZM54.1378 78.6626C53.116 78.6626 52.2681 78.4289 51.5941 77.9615C50.931 77.494 50.4853 76.9396 50.257 76.2983L51.9365 75.5971C52.1105 76.0319 52.3877 76.3798 52.7681 76.6407C53.1595 76.9125 53.6161 77.0483 54.1378 77.0483C54.8988 77.0483 55.4912 76.8201 55.9152 76.3635C56.35 75.9178 56.5674 75.2873 56.5674 74.472V73.7056H56.4696C56.1978 74.0969 55.8337 74.4068 55.3771 74.635C54.9314 74.8525 54.4151 74.9612 53.828 74.9612C53.1323 74.9612 52.4855 74.7818 51.8876 74.4231C51.2897 74.0643 50.8114 73.5589 50.4527 72.9066C50.1048 72.2435 49.9309 71.488 49.9309 70.6401C49.9309 69.7922 50.1048 69.0421 50.4527 68.3898C50.8114 67.7267 51.2897 67.2158 51.8876 66.8571C52.4855 66.4875 53.1323 66.3027 53.828 66.3027C54.4042 66.3027 54.9205 66.4168 55.3771 66.6451C55.8337 66.8734 56.1978 67.1832 56.4696 67.5745H56.5674V66.5636H58.2796V74.4231C58.2796 75.3253 58.1057 76.0917 57.7578 76.7222C57.4099 77.3636 56.9207 77.8473 56.2902 78.1735C55.6706 78.4996 54.9532 78.6626 54.1378 78.6626ZM54.1542 73.3306C54.589 73.3306 54.9912 73.2273 55.3608 73.0208C55.7304 72.8033 56.0239 72.4935 56.2413 72.0913C56.4587 71.6782 56.5674 71.1945 56.5674 70.6401C56.5674 69.7922 56.3337 69.1345 55.8663 68.667C55.4097 68.1887 54.839 67.9496 54.1542 67.9496C53.7085 67.9496 53.3008 68.0583 52.9312 68.2757C52.5616 68.4822 52.2681 68.7866 52.0507 69.1888C51.8333 69.591 51.7246 70.0748 51.7246 70.6401C51.7246 71.2053 51.8333 71.6891 52.0507 72.0913C52.2681 72.4935 52.5616 72.8033 52.9312 73.0208C53.3008 73.2273 53.7085 73.3306 54.1542 73.3306ZM60.3876 63.2045H62.1813V74.8796H60.3876V63.2045ZM68.0087 75.1405C67.1934 75.1405 66.4596 74.9503 65.8074 74.5698C65.166 74.1894 64.6605 73.6676 64.2909 73.0044C63.9322 72.3305 63.7528 71.5749 63.7528 70.7379C63.7528 69.9443 63.9267 69.2106 64.2746 68.5366C64.6333 67.8517 65.1279 67.3082 65.7584 66.906C66.3889 66.5038 67.1064 66.3027 67.9108 66.3027C68.7479 66.3027 69.4708 66.4875 70.0795 66.8571C70.6992 67.2267 71.1666 67.7322 71.4819 68.3735C71.808 69.0149 71.971 69.7378 71.971 70.5422C71.971 70.6944 71.9547 70.8847 71.9221 71.1129H65.5465C65.6117 71.8848 65.8835 72.4827 66.3618 72.9066C66.8509 73.3197 67.4162 73.5262 68.0576 73.5262C68.5685 73.5262 69.0088 73.4121 69.3784 73.1838C69.7589 72.9447 70.0632 72.624 70.2915 72.2218L71.808 72.9392C71.4166 73.6241 70.9057 74.1622 70.2752 74.5535C69.6447 74.9449 68.8892 75.1405 68.0087 75.1405ZM70.1448 69.7432C70.123 69.4497 70.0306 69.1617 69.8676 68.879C69.7045 68.5855 69.4545 68.3409 69.1175 68.1452C68.7914 67.9496 68.3892 67.8517 67.9108 67.8517C67.3347 67.8517 66.8455 68.0257 66.4433 68.3735C66.052 68.7105 65.7802 69.1671 65.628 69.7432H70.1448ZM77.7197 63.2045H81.4538C82.6604 63.2045 83.7149 63.4491 84.6171 63.9383C85.5194 64.4275 86.2097 65.1178 86.688 66.0092C87.1772 66.8897 87.4218 67.9007 87.4218 69.0421C87.4218 70.1835 87.1772 71.1999 86.688 72.0913C86.2097 72.9718 85.5194 73.6567 84.6171 74.1459C83.7149 74.635 82.6604 74.8796 81.4538 74.8796H77.7197V63.2045ZM81.4212 73.1349C82.7256 73.1349 83.742 72.7762 84.4704 72.0587C85.2096 71.3304 85.5792 70.3248 85.5792 69.0421C85.5792 67.7702 85.2096 66.7701 84.4704 66.0418C83.742 65.3134 82.7256 64.9493 81.4212 64.9493H79.546V73.1349H81.4212ZM92.7703 75.1405C91.955 75.1405 91.2212 74.9503 90.569 74.5698C89.9276 74.1894 89.4221 73.6676 89.0525 73.0044C88.6938 72.3305 88.5144 71.5749 88.5144 70.7379C88.5144 69.9443 88.6883 69.2106 89.0362 68.5366C89.3949 67.8517 89.8895 67.3082 90.52 66.906C91.1505 66.5038 91.868 66.3027 92.6724 66.3027C93.5095 66.3027 94.2324 66.4875 94.8411 66.8571C95.4608 67.2267 95.9282 67.7322 96.2435 68.3735C96.5696 69.0149 96.7326 69.7378 96.7326 70.5422C96.7326 70.6944 96.7163 70.8847 96.6837 71.1129H90.3081C90.3733 71.8848 90.6451 72.4827 91.1234 72.9066C91.6125 73.3197 92.1778 73.5262 92.8192 73.5262C93.3301 73.5262 93.7704 73.4121 94.14 73.1838C94.5205 72.9447 94.8248 72.624 95.0531 72.2218L96.5696 72.9392C96.1782 73.6241 95.6673 74.1622 95.0368 74.5535C94.4063 74.9449 93.6508 75.1405 92.7703 75.1405ZM94.9064 69.7432C94.8846 69.4497 94.7922 69.1617 94.6292 68.879C94.4661 68.5855 94.2161 68.3409 93.8791 68.1452C93.553 67.9496 93.1507 67.8517 92.6724 67.8517C92.0963 67.8517 91.6071 68.0257 91.2049 68.3735C90.8136 68.7105 90.5418 69.1671 90.3896 69.7432H94.9064ZM97.2774 66.5636H99.283L101.582 72.5642H101.647L103.995 66.5636H105.952L102.495 74.8796H100.702L97.2774 66.5636ZM110.669 75.1405C109.853 75.1405 109.12 74.9503 108.467 74.5698C107.826 74.1894 107.321 73.6676 106.951 73.0044C106.592 72.3305 106.413 71.5749 106.413 70.7379C106.413 69.9443 106.587 69.2106 106.935 68.5366C107.293 67.8517 107.788 67.3082 108.418 66.906C109.049 66.5038 109.766 66.3027 110.571 66.3027C111.408 66.3027 112.131 66.4875 112.74 66.8571C113.359 67.2267 113.827 67.7322 114.142 68.3735C114.468 69.0149 114.631 69.7378 114.631 70.5422C114.631 70.6944 114.615 70.8847 114.582 71.1129H108.206C108.272 71.8848 108.543 72.4827 109.022 72.9066C109.511 73.3197 110.076 73.5262 110.718 73.5262C111.229 73.5262 111.669 73.4121 112.038 73.1838C112.419 72.9447 112.723 72.624 112.952 72.2218L114.468 72.9392C114.077 73.6241 113.566 74.1622 112.935 74.5535C112.305 74.9449 111.549 75.1405 110.669 75.1405ZM112.805 69.7432C112.783 69.4497 112.691 69.1617 112.528 68.879C112.365 68.5855 112.114 68.3409 111.777 68.1452C111.451 67.9496 111.049 67.8517 110.571 67.8517C109.995 67.8517 109.506 68.0257 109.103 68.3735C108.712 68.7105 108.44 69.1671 108.288 69.7432H112.805ZM116.264 63.2045H118.058V74.8796H116.264V63.2045ZM123.983 75.1405C123.146 75.1405 122.396 74.9503 121.733 74.5698C121.07 74.1785 120.554 73.6458 120.184 72.9718C119.814 72.2979 119.63 71.5478 119.63 70.7216C119.63 69.8954 119.814 69.1454 120.184 68.4714C120.554 67.7974 121.07 67.2702 121.733 66.8897C122.396 66.4983 123.146 66.3027 123.983 66.3027C124.82 66.3027 125.57 66.4983 126.234 66.8897C126.897 67.281 127.413 67.8137 127.783 68.4877C128.152 69.1617 128.337 69.9063 128.337 70.7216C128.337 71.5478 128.152 72.2979 127.783 72.9718C127.413 73.6458 126.897 74.1785 126.234 74.5698C125.57 74.9503 124.82 75.1405 123.983 75.1405ZM123.983 73.4936C124.44 73.4936 124.864 73.3849 125.255 73.1675C125.647 72.9392 125.956 72.6185 126.185 72.2054C126.424 71.7815 126.543 71.2869 126.543 70.7216C126.543 70.1563 126.424 69.6671 126.185 69.2541C125.956 68.841 125.647 68.5257 125.255 68.3083C124.864 68.08 124.44 67.9659 123.983 67.9659C123.527 67.9659 123.103 68.08 122.711 68.3083C122.32 68.5257 122.005 68.841 121.766 69.2541C121.537 69.6671 121.423 70.1563 121.423 70.7216C121.423 71.2869 121.537 71.7815 121.766 72.2054C122.005 72.6185 122.32 72.9392 122.711 73.1675C123.103 73.3849 123.527 73.4936 123.983 73.4936ZM129.846 66.5636H131.558V67.6561H131.64C131.879 67.2756 132.232 66.9549 132.7 66.694C133.167 66.4331 133.694 66.3027 134.281 66.3027C135.031 66.3027 135.711 66.4929 136.319 66.8734C136.928 67.2539 137.407 67.7811 137.754 68.4551C138.113 69.1182 138.293 69.8737 138.293 70.7216C138.293 71.5695 138.113 72.3305 137.754 73.0044C137.407 73.6676 136.928 74.1894 136.319 74.5698C135.711 74.9503 135.031 75.1405 134.281 75.1405C133.694 75.1405 133.167 75.0101 132.7 74.7492C132.232 74.4883 131.879 74.173 131.64 73.8034H131.558L131.64 74.9612V78.4017H129.846V66.5636ZM134.02 73.4936C134.455 73.4936 134.863 73.3795 135.243 73.1512C135.624 72.9229 135.928 72.5968 136.156 72.1728C136.385 71.7489 136.499 71.2651 136.499 70.7216C136.499 70.1781 136.385 69.6998 136.156 69.2867C135.928 68.8627 135.624 68.5366 135.243 68.3083C134.863 68.08 134.455 67.9659 134.02 67.9659C133.586 67.9659 133.178 68.08 132.797 68.3083C132.428 68.5366 132.129 68.8627 131.901 69.2867C131.672 69.6998 131.558 70.1781 131.558 70.7216C131.558 71.2651 131.672 71.7489 131.901 72.1728C132.129 72.5968 132.428 72.9229 132.797 73.1512C133.178 73.3795 133.586 73.4936 134.02 73.4936ZM143.727 75.1405C142.911 75.1405 142.178 74.9503 141.525 74.5698C140.884 74.1894 140.378 73.6676 140.009 73.0044C139.65 72.3305 139.471 71.5749 139.471 70.7379C139.471 69.9443 139.645 69.2106 139.993 68.5366C140.351 67.8517 140.846 67.3082 141.476 66.906C142.107 66.5038 142.824 66.3027 143.629 66.3027C144.466 66.3027 145.189 66.4875 145.797 66.8571C146.417 67.2267 146.885 67.7322 147.2 68.3735C147.526 69.0149 147.689 69.7378 147.689 70.5422C147.689 70.6944 147.673 70.8847 147.64 71.1129H141.264C141.33 71.8848 141.601 72.4827 142.08 72.9066C142.569 73.3197 143.134 73.5262 143.776 73.5262C144.286 73.5262 144.727 73.4121 145.096 73.1838C145.477 72.9447 145.781 72.624 146.009 72.2218L147.526 72.9392C147.135 73.6241 146.624 74.1622 145.993 74.5535C145.363 74.9449 144.607 75.1405 143.727 75.1405ZM145.863 69.7432C145.841 69.4497 145.749 69.1617 145.586 68.879C145.422 68.5855 145.172 68.3409 144.835 68.1452C144.509 67.9496 144.107 67.8517 143.629 67.8517C143.053 67.8517 142.563 68.0257 142.161 68.3735C141.77 68.7105 141.498 69.1671 141.346 69.7432H145.863ZM149.322 66.5636H151.035V67.7865H151.116C151.301 67.3626 151.622 67.0147 152.078 66.7429C152.535 66.4603 153.018 66.319 153.529 66.319C153.932 66.319 154.269 66.3733 154.54 66.482V68.3409C154.062 68.167 153.633 68.08 153.252 68.08C152.839 68.08 152.469 68.1887 152.143 68.4061C151.828 68.6236 151.578 68.9171 151.393 69.2867C151.208 69.6454 151.116 70.0422 151.116 70.477V74.8796H149.322V66.5636ZM162.912 75.1405C161.944 75.1405 161.075 74.8579 160.303 74.2926C159.531 73.7273 158.998 72.9338 158.705 71.9119L160.433 71.2108C160.607 71.8522 160.912 72.3794 161.346 72.7925C161.792 73.1947 162.325 73.3958 162.944 73.3958C163.521 73.3958 164.01 73.249 164.412 72.9555C164.814 72.6511 165.015 72.2381 165.015 71.7163C165.015 71.238 164.836 70.8466 164.477 70.5422C164.129 70.227 163.515 69.9117 162.635 69.5965L161.901 69.3356C161.118 69.0638 160.46 68.6725 159.928 68.1616C159.395 67.6506 159.129 66.9766 159.129 66.1396C159.129 65.5635 159.286 65.0308 159.602 64.5416C159.917 64.0524 160.352 63.6665 160.906 63.3839C161.471 63.0904 162.107 62.9436 162.814 62.9436C163.836 62.9436 164.651 63.1936 165.26 63.6937C165.869 64.1829 166.276 64.7373 166.483 65.3569L164.836 66.0581C164.716 65.6885 164.488 65.3624 164.151 65.0797C163.814 64.7971 163.379 64.6558 162.847 64.6558C162.314 64.6558 161.863 64.7916 161.493 65.0634C161.134 65.3352 160.955 65.683 160.955 66.107C160.955 66.5092 161.118 66.8408 161.444 67.1017C161.77 67.3626 162.281 67.6126 162.977 67.8517L163.711 68.0963C164.711 68.4442 165.483 68.9008 166.026 69.466C166.581 70.0204 166.858 70.7651 166.858 71.7C166.858 72.4609 166.662 73.1023 166.271 73.6241C165.88 74.135 165.379 74.5155 164.771 74.7655C164.173 75.0155 163.553 75.1405 162.912 75.1405ZM171.648 75.0101C171.278 75.0101 170.93 74.9503 170.604 74.8307C170.278 74.7111 170.012 74.5535 169.805 74.3578C169.338 73.8904 169.104 73.2545 169.104 72.45V68.1452H167.653V66.5636H169.104V64.2155H170.898V66.5636H172.92V68.1452H170.898V72.0587C170.898 72.5044 170.985 72.8196 171.159 73.0044C171.322 73.2219 171.604 73.3306 172.007 73.3306C172.191 73.3306 172.354 73.3088 172.496 73.2653C172.637 73.211 172.789 73.1295 172.952 73.0208V74.7655C172.594 74.9286 172.159 75.0101 171.648 75.0101ZM177.658 75.1405C176.647 75.1405 175.876 74.8416 175.343 74.2437C174.821 73.6349 174.56 72.7925 174.56 71.7163V66.5636H176.354V71.4717C176.354 72.1457 176.511 72.6511 176.827 72.9881C177.153 73.3251 177.577 73.4936 178.099 73.4936C178.523 73.4936 178.898 73.3849 179.224 73.1675C179.55 72.9392 179.8 72.6403 179.974 72.2707C180.148 71.9011 180.235 71.5043 180.235 71.0803V66.5636H182.028V74.8796H180.333V73.8034H180.235C180.006 74.1948 179.653 74.5155 179.175 74.7655C178.696 75.0155 178.191 75.1405 177.658 75.1405ZM187.591 75.1405C186.841 75.1405 186.162 74.9503 185.553 74.5698C184.944 74.1894 184.46 73.6676 184.102 73.0044C183.754 72.3305 183.58 71.5695 183.58 70.7216C183.58 69.8737 183.754 69.1182 184.102 68.4551C184.46 67.7811 184.944 67.2539 185.553 66.8734C186.162 66.4929 186.841 66.3027 187.591 66.3027C188.178 66.3027 188.705 66.4331 189.173 66.694C189.64 66.9549 189.994 67.2756 190.233 67.6561H190.314L190.233 66.482V63.2045H192.026V74.8796H190.314V73.8034H190.233C189.994 74.173 189.64 74.4883 189.173 74.7492C188.705 75.0101 188.178 75.1405 187.591 75.1405ZM187.852 73.4936C188.287 73.4936 188.689 73.3795 189.059 73.1512C189.439 72.9229 189.744 72.5968 189.972 72.1728C190.2 71.7489 190.314 71.2651 190.314 70.7216C190.314 70.1781 190.2 69.6998 189.972 69.2867C189.744 68.8627 189.439 68.5366 189.059 68.3083C188.689 68.08 188.287 67.9659 187.852 67.9659C187.417 67.9659 187.01 68.08 186.629 68.3083C186.249 68.5366 185.944 68.8627 185.716 69.2867C185.488 69.6998 185.374 70.1781 185.374 70.7216C185.374 71.2651 185.488 71.7489 185.716 72.1728C185.944 72.5968 186.249 72.9229 186.629 73.1512C187.01 73.3795 187.417 73.4936 187.852 73.4936ZM197.836 75.1405C197.021 75.1405 196.287 74.9503 195.635 74.5698C194.993 74.1894 194.488 73.6676 194.118 73.0044C193.759 72.3305 193.58 71.5749 193.58 70.7379C193.58 69.9443 193.754 69.2106 194.102 68.5366C194.461 67.8517 194.955 67.3082 195.586 66.906C196.216 66.5038 196.934 66.3027 197.738 66.3027C198.575 66.3027 199.298 66.4875 199.907 66.8571C200.526 67.2267 200.994 67.7322 201.309 68.3735C201.635 69.0149 201.798 69.7378 201.798 70.5422C201.798 70.6944 201.782 70.8847 201.749 71.1129H195.374C195.439 71.8848 195.711 72.4827 196.189 72.9066C196.678 73.3197 197.243 73.5262 197.885 73.5262C198.396 73.5262 198.836 73.4121 199.206 73.1838C199.586 72.9447 199.89 72.624 200.119 72.2218L201.635 72.9392C201.244 73.6241 200.733 74.1622 200.102 74.5535C199.472 74.9449 198.716 75.1405 197.836 75.1405ZM199.972 69.7432C199.95 69.4497 199.858 69.1617 199.695 68.879C199.532 68.5855 199.282 68.3409 198.945 68.1452C198.619 67.9496 198.216 67.8517 197.738 67.8517C197.162 67.8517 196.673 68.0257 196.271 68.3735C195.879 68.7105 195.607 69.1671 195.455 69.7432H199.972ZM203.432 66.5636H205.144V67.6561H205.225C205.464 67.2647 205.818 66.944 206.285 66.694C206.764 66.4331 207.269 66.3027 207.802 66.3027C208.813 66.3027 209.579 66.6016 210.101 67.1995C210.633 67.7865 210.9 68.5909 210.9 69.6128V74.8796H209.106V69.8574C209.106 69.2051 208.943 68.7268 208.617 68.4225C208.302 68.1181 207.861 67.9659 207.296 67.9659C206.894 67.9659 206.535 68.08 206.22 68.3083C205.905 68.5257 205.66 68.8192 205.486 69.1888C205.312 69.5584 205.225 69.9552 205.225 70.3792V74.8796H203.432V66.5636ZM215.916 75.0101C215.547 75.0101 215.199 74.9503 214.873 74.8307C214.547 74.7111 214.28 74.5535 214.074 74.3578C213.606 73.8904 213.372 73.2545 213.372 72.45V68.1452H211.921V66.5636H213.372V64.2155H215.166V66.5636H217.188V68.1452H215.166V72.0587C215.166 72.5044 215.253 72.8196 215.427 73.0044C215.59 73.2219 215.873 73.3306 216.275 73.3306C216.46 73.3306 216.623 73.3088 216.764 73.2653C216.905 73.211 217.058 73.1295 217.221 73.0208V74.7655C216.862 74.9286 216.427 75.0101 215.916 75.0101ZM228.202 75.1405C227.071 75.1405 226.039 74.8742 225.104 74.3415C224.169 73.8089 223.435 73.0751 222.902 72.1402C222.37 71.2053 222.103 70.1726 222.103 69.0421C222.103 67.9115 222.37 66.8788 222.902 65.9439C223.435 65.0091 224.169 64.2753 225.104 63.7426C226.039 63.21 227.071 62.9436 228.202 62.9436C229.082 62.9436 229.881 63.1067 230.599 63.4328C231.327 63.7589 231.969 64.2318 232.523 64.8514L231.219 66.107C230.816 65.6287 230.371 65.2754 229.881 65.0471C229.392 64.8079 228.832 64.6884 228.202 64.6884C227.419 64.6884 226.702 64.8677 226.05 65.2265C225.408 65.5852 224.897 66.0961 224.517 66.7592C224.136 67.4115 223.946 68.1724 223.946 69.0421C223.946 69.9117 224.136 70.6781 224.517 71.3412C224.897 71.9935 225.408 72.499 226.05 72.8577C226.702 73.2164 227.419 73.3958 228.202 73.3958C229.506 73.3958 230.615 72.8523 231.528 71.7652L232.849 73.0371C232.284 73.7002 231.604 74.2165 230.811 74.5861C230.017 74.9557 229.148 75.1405 228.202 75.1405ZM234.435 63.2045H236.229V74.8796H234.435V63.2045ZM241.37 75.1405C240.359 75.1405 239.587 74.8416 239.054 74.2437C238.532 73.6349 238.272 72.7925 238.272 71.7163V66.5636H240.065V71.4717C240.065 72.1457 240.223 72.6511 240.538 72.9881C240.864 73.3251 241.288 73.4936 241.81 73.4936C242.234 73.4936 242.609 73.3849 242.935 73.1675C243.261 72.9392 243.511 72.6403 243.685 72.2707C243.859 71.9011 243.946 71.5043 243.946 71.0803V66.5636H245.74V74.8796H244.044V73.8034H243.946C243.718 74.1948 243.364 74.5155 242.886 74.7655C242.408 75.0155 241.902 75.1405 241.37 75.1405ZM252.263 75.1405C251.676 75.1405 251.148 75.0101 250.681 74.7492C250.213 74.4883 249.86 74.173 249.621 73.8034H249.54V74.8796H247.827V63.2045H249.621V66.482L249.54 67.6561H249.621C249.86 67.2756 250.213 66.9549 250.681 66.694C251.148 66.4331 251.676 66.3027 252.263 66.3027C253.013 66.3027 253.692 66.4929 254.301 66.8734C254.91 67.2539 255.388 67.7811 255.736 68.4551C256.095 69.1182 256.274 69.8737 256.274 70.7216C256.274 71.5695 256.095 72.3305 255.736 73.0044C255.388 73.6676 254.91 74.1894 254.301 74.5698C253.692 74.9503 253.013 75.1405 252.263 75.1405ZM252.002 73.4936C252.437 73.4936 252.844 73.3795 253.225 73.1512C253.605 72.9229 253.91 72.5968 254.138 72.1728C254.366 71.7489 254.48 71.2651 254.48 70.7216C254.48 70.1781 254.366 69.6998 254.138 69.2867C253.91 68.8627 253.605 68.5366 253.225 68.3083C252.844 68.08 252.437 67.9659 252.002 67.9659C251.567 67.9659 251.159 68.08 250.779 68.3083C250.409 68.5366 250.11 68.8627 249.882 69.2867C249.654 69.6998 249.54 70.1781 249.54 70.7216C249.54 71.2651 249.654 71.7489 249.882 72.1728C250.11 72.5968 250.409 72.9229 250.779 73.1512C251.159 73.3795 251.567 73.4936 252.002 73.4936ZM260.86 75.1405C259.904 75.1405 259.121 74.934 258.512 74.5209C257.904 74.0969 257.474 73.5589 257.224 72.9066L258.822 72.2054C259.018 72.6403 259.29 72.9718 259.638 73.2001C259.996 73.4284 260.404 73.5425 260.86 73.5425C261.306 73.5425 261.681 73.4664 261.986 73.3143C262.29 73.1512 262.442 72.912 262.442 72.5968C262.442 72.2924 262.312 72.0533 262.051 71.8793C261.79 71.7054 261.388 71.5532 260.844 71.4228L259.849 71.1782C259.186 71.0151 258.637 70.727 258.203 70.314C257.768 69.9009 257.55 69.3791 257.55 68.7486C257.55 68.2594 257.692 67.83 257.974 67.4604C258.268 67.0908 258.659 66.8082 259.148 66.6125C259.638 66.4059 260.17 66.3027 260.746 66.3027C261.518 66.3027 262.198 66.4603 262.785 66.7755C263.372 67.0799 263.796 67.5256 264.056 68.1126L262.491 68.7975C262.176 68.1561 261.6 67.8354 260.763 67.8354C260.36 67.8354 260.023 67.917 259.752 68.08C259.48 68.2431 259.344 68.4551 259.344 68.716C259.344 68.966 259.447 69.1725 259.654 69.3356C259.86 69.4878 260.165 69.6182 260.567 69.7269L261.79 70.0367C262.605 70.2433 263.219 70.5585 263.632 70.9825C264.056 71.3956 264.268 71.9065 264.268 72.5153C264.268 73.0371 264.116 73.4991 263.812 73.9013C263.518 74.2926 263.111 74.597 262.589 74.8144C262.067 75.0318 261.491 75.1405 260.86 75.1405Z" fill="white"/>
<rect width="23.3115" height="7.81905" rx="3.90953" transform="matrix(-0.866025 0.5 0.5 0.866025 174.504 27.7881)" fill="#FBBC04"/>
<rect width="23.3115" height="7.81905" rx="3.90953" transform="matrix(0.866025 -0.5 -0.5 -0.866025 131.371 38.4272)" fill="#EA4335"/>
<rect x="131.041" y="27.7871" width="23.3115" height="7.81905" rx="3.90953" transform="rotate(30 131.041 27.7871)" fill="#4285F4"/>
<rect x="174.504" y="38.4272" width="23.3115" height="7.81905" rx="3.64648" transform="rotate(-150 174.504 38.4272)" fill="#0F9D58"/>
<path d="M28.1362 85C28.0894 84.6042 27.8993 84.2969 27.5659 84.0781C27.2326 83.8594 26.8237 83.75 26.3394 83.75C25.9852 83.75 25.6753 83.8073 25.4097 83.9219C25.1466 84.0365 24.9409 84.194 24.7925 84.3945C24.6466 84.5951 24.5737 84.8229 24.5737 85.0781C24.5737 85.2917 24.6245 85.4753 24.7261 85.6289C24.8302 85.7799 24.9631 85.9062 25.1245 86.0078C25.286 86.1068 25.4552 86.1888 25.6323 86.2539C25.8094 86.3164 25.9722 86.3672 26.1206 86.4062L26.9331 86.625C27.1414 86.6797 27.3732 86.7552 27.6284 86.8516C27.8862 86.9479 28.1323 87.0794 28.3667 87.2461C28.6037 87.4102 28.799 87.6211 28.9526 87.8789C29.1063 88.1367 29.1831 88.4531 29.1831 88.8281C29.1831 89.2604 29.0698 89.651 28.8433 90C28.6193 90.349 28.2912 90.6263 27.8589 90.832C27.4292 91.0378 26.9071 91.1406 26.2925 91.1406C25.7196 91.1406 25.2235 91.0482 24.8042 90.8633C24.3875 90.6784 24.0594 90.4206 23.8198 90.0898C23.5828 89.7591 23.4487 89.375 23.4175 88.9375H24.4175C24.4435 89.2396 24.5451 89.4896 24.7222 89.6875C24.9019 89.8828 25.1284 90.0286 25.4019 90.125C25.6779 90.2187 25.9748 90.2656 26.2925 90.2656C26.6623 90.2656 26.9943 90.2057 27.2886 90.0859C27.5828 89.9635 27.8159 89.7943 27.9878 89.5781C28.1597 89.3594 28.2456 89.1042 28.2456 88.8125C28.2456 88.5469 28.1714 88.3307 28.0229 88.1641C27.8745 87.9974 27.6792 87.862 27.437 87.7578C27.1948 87.6536 26.9331 87.5625 26.6519 87.4844L25.6675 87.2031C25.0425 87.0234 24.5477 86.7669 24.1831 86.4336C23.8185 86.1003 23.6362 85.6641 23.6362 85.125C23.6362 84.6771 23.7573 84.2865 23.9995 83.9531C24.2443 83.6172 24.5724 83.3568 24.9839 83.1719C25.3979 82.9844 25.8602 82.8906 26.3706 82.8906C26.8862 82.8906 27.3446 82.9831 27.7456 83.168C28.1466 83.3503 28.4644 83.6003 28.6987 83.918C28.9357 84.2357 29.0607 84.5964 29.0737 85H28.1362ZM30.7759 91V83H33.5728C34.13 83 34.5897 83.0964 34.9517 83.2891C35.3136 83.4792 35.5832 83.7357 35.7603 84.0586C35.9373 84.3789 36.0259 84.7344 36.0259 85.125C36.0259 85.4687 35.9647 85.7526 35.8423 85.9766C35.7225 86.2005 35.5636 86.3776 35.3657 86.5078C35.1704 86.638 34.9582 86.7344 34.729 86.7969V86.875C34.9738 86.8906 35.2199 86.9766 35.4673 87.1328C35.7147 87.2891 35.9217 87.513 36.0884 87.8047C36.255 88.0964 36.3384 88.4531 36.3384 88.875C36.3384 89.276 36.2472 89.6367 36.0649 89.957C35.8827 90.2773 35.5949 90.5312 35.2017 90.7187C34.8084 90.9062 34.2967 91 33.6665 91H30.7759ZM31.7446 90.1406H33.6665C34.2993 90.1406 34.7485 90.0182 35.0142 89.7734C35.2824 89.526 35.4165 89.2266 35.4165 88.875C35.4165 88.6042 35.3475 88.3542 35.2095 88.125C35.0715 87.8932 34.8748 87.7083 34.6196 87.5703C34.3644 87.4297 34.0623 87.3594 33.7134 87.3594H31.7446V90.1406ZM31.7446 86.5156H33.5415C33.8332 86.5156 34.0962 86.4583 34.3306 86.3437C34.5675 86.2292 34.755 86.0677 34.8931 85.8594C35.0337 85.651 35.104 85.4062 35.104 85.125C35.104 84.7734 34.9816 84.4753 34.7368 84.2305C34.492 83.9831 34.104 83.8594 33.5728 83.8594H31.7446V86.5156ZM44.0864 83H45.0552V88.7187C45.0552 89.2292 44.9614 89.6628 44.7739 90.0195C44.5864 90.3763 44.3221 90.6471 43.981 90.832C43.6398 91.0169 43.2375 91.1094 42.7739 91.1094C42.3364 91.1094 41.9471 91.0299 41.606 90.8711C41.2648 90.7096 40.9966 90.4805 40.8013 90.1836C40.606 89.8867 40.5083 89.5339 40.5083 89.125H41.4614C41.4614 89.3516 41.5174 89.5495 41.6294 89.7187C41.744 89.8854 41.9002 90.0156 42.0981 90.1094C42.2961 90.2031 42.5213 90.25 42.7739 90.25C43.0526 90.25 43.2896 90.1914 43.4849 90.0742C43.6802 89.957 43.8286 89.7852 43.9302 89.5586C44.0343 89.3294 44.0864 89.0495 44.0864 88.7187V83ZM48.6372 91.1406C48.257 91.1406 47.9119 91.069 47.6021 90.9258C47.2922 90.7799 47.0461 90.5703 46.8638 90.2969C46.6815 90.0208 46.5903 89.6875 46.5903 89.2969C46.5903 88.9531 46.658 88.6745 46.7935 88.4609C46.9289 88.2448 47.1099 88.0755 47.3364 87.9531C47.563 87.8307 47.813 87.7396 48.0864 87.6797C48.3625 87.6172 48.6398 87.5677 48.9185 87.5313C49.283 87.4844 49.5786 87.4492 49.8052 87.4258C50.0343 87.3997 50.201 87.3568 50.3052 87.2969C50.4119 87.237 50.4653 87.1328 50.4653 86.9844V86.9531C50.4653 86.5677 50.3599 86.2682 50.1489 86.0547C49.9406 85.8411 49.6242 85.7344 49.1997 85.7344C48.7596 85.7344 48.4146 85.8307 48.1646 86.0234C47.9146 86.2161 47.7388 86.4219 47.6372 86.6406L46.7622 86.3281C46.9185 85.9635 47.1268 85.6797 47.3872 85.4766C47.6502 85.2708 47.9367 85.1276 48.2466 85.0469C48.5591 84.9635 48.8664 84.9219 49.1685 84.9219C49.3612 84.9219 49.5825 84.9453 49.8325 84.9922C50.0851 85.0365 50.3286 85.1289 50.563 85.2695C50.8 85.4102 50.9966 85.6224 51.1528 85.9062C51.3091 86.1901 51.3872 86.5703 51.3872 87.0469V91H50.4653V90.1875H50.4185C50.356 90.3177 50.2518 90.457 50.106 90.6055C49.9601 90.7539 49.7661 90.8802 49.5239 90.9844C49.2817 91.0885 48.9862 91.1406 48.6372 91.1406ZM48.7778 90.3125C49.1424 90.3125 49.4497 90.2409 49.6997 90.0977C49.9523 89.9544 50.1424 89.7695 50.27 89.543C50.4002 89.3164 50.4653 89.0781 50.4653 88.8281V87.9844C50.4263 88.0312 50.3403 88.0742 50.2075 88.1133C50.0773 88.1497 49.9263 88.1823 49.7544 88.2109C49.5851 88.237 49.4198 88.2604 49.2583 88.2812C49.0994 88.2995 48.9705 88.3151 48.8716 88.3281C48.632 88.3594 48.408 88.4102 48.1997 88.4805C47.994 88.5482 47.8273 88.651 47.6997 88.7891C47.5747 88.9245 47.5122 89.1094 47.5122 89.3437C47.5122 89.6641 47.6307 89.9062 47.8677 90.0703C48.1073 90.2318 48.4106 90.3125 48.7778 90.3125ZM53.0698 91V85H53.9917V91H53.0698ZM53.5386 84C53.3589 84 53.2039 83.9388 53.0737 83.8164C52.9461 83.694 52.8823 83.5469 52.8823 83.375C52.8823 83.2031 52.9461 83.056 53.0737 82.9336C53.2039 82.8112 53.3589 82.75 53.5386 82.75C53.7183 82.75 53.8719 82.8112 53.9995 82.9336C54.1297 83.056 54.1948 83.2031 54.1948 83.375C54.1948 83.5469 54.1297 83.694 53.9995 83.8164C53.8719 83.9388 53.7183 84 53.5386 84ZM56.6021 87.3906V91H55.6802V85H56.5708V85.9375H56.6489C56.7896 85.6328 57.0031 85.388 57.2896 85.2031C57.576 85.0156 57.9458 84.9219 58.3989 84.9219C58.8052 84.9219 59.1606 85.0052 59.4653 85.1719C59.77 85.3359 60.007 85.5859 60.1763 85.9219C60.3455 86.2552 60.4302 86.6771 60.4302 87.1875V91H59.5083V87.25C59.5083 86.7786 59.3859 86.4115 59.1411 86.1484C58.8963 85.8828 58.5604 85.75 58.1333 85.75C57.839 85.75 57.576 85.8138 57.3442 85.9414C57.1151 86.069 56.9341 86.2552 56.8013 86.5C56.6685 86.7448 56.6021 87.0417 56.6021 87.3906ZM66.3022 83V91H65.3335V83H66.3022ZM69.0415 87.3906V91H68.1196V85H69.0103V85.9375H69.0884C69.229 85.6328 69.4425 85.388 69.729 85.2031C70.0155 85.0156 70.3853 84.9219 70.8384 84.9219C71.2446 84.9219 71.6001 85.0052 71.9048 85.1719C72.2095 85.3359 72.4465 85.5859 72.6157 85.9219C72.785 86.2552 72.8696 86.6771 72.8696 87.1875V91H71.9478V87.25C71.9478 86.7786 71.8254 86.4115 71.5806 86.1484C71.3358 85.8828 70.9998 85.75 70.5728 85.75C70.2785 85.75 70.0155 85.8138 69.7837 85.9414C69.5545 86.069 69.3735 86.2552 69.2407 86.5C69.1079 86.7448 69.0415 87.0417 69.0415 87.3906ZM78.8042 86.3437L77.9761 86.5781C77.924 86.4401 77.8472 86.306 77.7456 86.1758C77.6466 86.043 77.5112 85.9336 77.3394 85.8477C77.1675 85.7617 76.9474 85.7187 76.6792 85.7187C76.312 85.7187 76.006 85.8034 75.7612 85.9727C75.519 86.1393 75.3979 86.3516 75.3979 86.6094C75.3979 86.8385 75.4813 87.0195 75.6479 87.1523C75.8146 87.2852 76.075 87.3958 76.4292 87.4844L77.3198 87.7031C77.8563 87.8333 78.256 88.0326 78.519 88.3008C78.7821 88.5664 78.9136 88.9089 78.9136 89.3281C78.9136 89.6719 78.8146 89.9792 78.6167 90.25C78.4214 90.5208 78.1479 90.7344 77.7964 90.8906C77.4448 91.0469 77.036 91.125 76.5698 91.125C75.9578 91.125 75.4513 90.9922 75.0503 90.7266C74.6493 90.4609 74.3953 90.0729 74.2886 89.5625L75.1636 89.3437C75.2469 89.6667 75.4045 89.9089 75.6362 90.0703C75.8706 90.2318 76.1766 90.3125 76.5542 90.3125C76.9839 90.3125 77.325 90.2214 77.5776 90.0391C77.8328 89.8542 77.9604 89.6328 77.9604 89.375C77.9604 89.1667 77.8875 88.9922 77.7417 88.8516C77.5959 88.7083 77.3719 88.6016 77.0698 88.5312L76.0698 88.2969C75.5203 88.1667 75.1167 87.9648 74.8589 87.6914C74.6037 87.4154 74.4761 87.0703 74.4761 86.6562C74.4761 86.3177 74.5711 86.0182 74.7612 85.7578C74.9539 85.4974 75.2157 85.293 75.5464 85.1445C75.8797 84.9961 76.2573 84.9219 76.6792 84.9219C77.2729 84.9219 77.7391 85.0521 78.0776 85.3125C78.4188 85.5729 78.661 85.9167 78.8042 86.3437ZM82.9106 85V85.7812H79.8013V85H82.9106ZM80.7075 83.5625H81.6294V89.2812C81.6294 89.5417 81.6672 89.737 81.7427 89.8672C81.8208 89.9948 81.9198 90.0807 82.0396 90.125C82.1619 90.1667 82.2909 90.1875 82.4263 90.1875C82.5278 90.1875 82.6112 90.1823 82.6763 90.1719C82.7414 90.1589 82.7935 90.1484 82.8325 90.1406L83.02 90.9687C82.9575 90.9922 82.8703 91.0156 82.7583 91.0391C82.6463 91.0651 82.5044 91.0781 82.3325 91.0781C82.0721 91.0781 81.8169 91.0221 81.5669 90.9102C81.3195 90.7982 81.1138 90.6276 80.9497 90.3984C80.7882 90.1693 80.7075 89.8802 80.7075 89.5312V83.5625ZM84.2974 91V85H85.2192V91H84.2974ZM84.7661 84C84.5864 84 84.4315 83.9388 84.3013 83.8164C84.1737 83.694 84.1099 83.5469 84.1099 83.375C84.1099 83.2031 84.1737 83.056 84.3013 82.9336C84.4315 82.8112 84.5864 82.75 84.7661 82.75C84.9458 82.75 85.0994 82.8112 85.2271 82.9336C85.3573 83.056 85.4224 83.2031 85.4224 83.375C85.4224 83.5469 85.3573 83.694 85.2271 83.8164C85.0994 83.9388 84.9458 84 84.7661 84ZM89.5171 85V85.7812H86.4077V85H89.5171ZM87.314 83.5625H88.2358V89.2812C88.2358 89.5417 88.2736 89.737 88.3491 89.8672C88.4272 89.9948 88.5262 90.0807 88.646 90.125C88.7684 90.1667 88.8973 90.1875 89.0327 90.1875C89.1343 90.1875 89.2176 90.1823 89.2827 90.1719C89.3478 90.1589 89.3999 90.1484 89.439 90.1406L89.6265 90.9687C89.564 90.9922 89.4767 91.0156 89.3647 91.0391C89.2528 91.0651 89.1108 91.0781 88.939 91.0781C88.6785 91.0781 88.4233 91.0221 88.1733 90.9102C87.9259 90.7982 87.7202 90.6276 87.5562 90.3984C87.3947 90.1693 87.314 89.8802 87.314 89.5312V83.5625ZM94.6851 88.5469V85H95.6069V91H94.6851V89.9844H94.6226C94.4819 90.2891 94.2632 90.5482 93.9663 90.7617C93.6694 90.9727 93.2944 91.0781 92.8413 91.0781C92.4663 91.0781 92.133 90.9961 91.8413 90.832C91.5496 90.6654 91.3205 90.4154 91.1538 90.082C90.9871 89.7461 90.9038 89.3229 90.9038 88.8125V85H91.8257V88.75C91.8257 89.1875 91.9481 89.5365 92.1929 89.7969C92.4403 90.0573 92.7554 90.1875 93.1382 90.1875C93.3674 90.1875 93.6004 90.1289 93.8374 90.0117C94.077 89.8945 94.2775 89.7148 94.439 89.4727C94.603 89.2305 94.6851 88.9219 94.6851 88.5469ZM99.9048 85V85.7812H96.7954V85H99.9048ZM97.7017 83.5625H98.6235V89.2812C98.6235 89.5417 98.6613 89.737 98.7368 89.8672C98.8149 89.9948 98.9139 90.0807 99.0337 90.125C99.1561 90.1667 99.285 90.1875 99.4204 90.1875C99.522 90.1875 99.6053 90.1823 99.6704 90.1719C99.7355 90.1589 99.7876 90.1484 99.8267 90.1406L100.014 90.9687C99.9517 90.9922 99.8644 91.0156 99.7524 91.0391C99.6405 91.0651 99.4985 91.0781 99.3267 91.0781C99.0662 91.0781 98.811 91.0221 98.561 90.9102C98.3136 90.7982 98.1079 90.6276 97.9438 90.3984C97.7824 90.1693 97.7017 89.8802 97.7017 89.5312V83.5625ZM103.743 91.125C103.165 91.125 102.666 90.9974 102.247 90.7422C101.83 90.4844 101.508 90.125 101.282 89.6641C101.058 89.2005 100.946 88.6615 100.946 88.0469C100.946 87.4323 101.058 86.8906 101.282 86.4219C101.508 85.9505 101.823 85.5833 102.227 85.3203C102.633 85.0547 103.107 84.9219 103.649 84.9219C103.961 84.9219 104.27 84.974 104.575 85.0781C104.879 85.1823 105.157 85.3516 105.407 85.5859C105.657 85.8177 105.856 86.125 106.004 86.5078C106.153 86.8906 106.227 87.362 106.227 87.9219V88.3125H101.602V87.5156H105.29C105.29 87.1771 105.222 86.875 105.086 86.6094C104.954 86.3437 104.764 86.1341 104.516 85.9805C104.271 85.8268 103.982 85.75 103.649 85.75C103.282 85.75 102.964 85.8411 102.696 86.0234C102.43 86.2031 102.226 86.4375 102.083 86.7266C101.939 87.0156 101.868 87.3255 101.868 87.6562V88.1875C101.868 88.6406 101.946 89.0247 102.102 89.3398C102.261 89.6523 102.481 89.8906 102.762 90.0547C103.043 90.2161 103.37 90.2969 103.743 90.2969C103.985 90.2969 104.204 90.263 104.399 90.1953C104.597 90.125 104.767 90.0208 104.911 89.8828C105.054 89.7422 105.165 89.5677 105.243 89.3594L106.133 89.6094C106.04 89.9115 105.882 90.1771 105.661 90.4062C105.439 90.6328 105.166 90.8099 104.84 90.9375C104.515 91.0625 104.149 91.125 103.743 91.125ZM113.161 91.125C112.619 91.125 112.144 90.9961 111.735 90.7383C111.329 90.4805 111.011 90.1198 110.782 89.6562C110.555 89.1927 110.442 88.651 110.442 88.0312C110.442 87.4062 110.555 86.8607 110.782 86.3945C111.011 85.9284 111.329 85.5664 111.735 85.3086C112.144 85.0508 112.619 84.9219 113.161 84.9219C113.702 84.9219 114.176 85.0508 114.583 85.3086C114.991 85.5664 115.309 85.9284 115.536 86.3945C115.765 86.8607 115.879 87.4062 115.879 88.0312C115.879 88.651 115.765 89.1927 115.536 89.6562C115.309 90.1198 114.991 90.4805 114.583 90.7383C114.176 90.9961 113.702 91.125 113.161 91.125ZM113.161 90.2969C113.572 90.2969 113.911 90.1914 114.176 89.9805C114.442 89.7695 114.639 89.4922 114.766 89.1484C114.894 88.8047 114.958 88.4323 114.958 88.0312C114.958 87.6302 114.894 87.2565 114.766 86.9102C114.639 86.5638 114.442 86.2839 114.176 86.0703C113.911 85.8568 113.572 85.75 113.161 85.75C112.749 85.75 112.411 85.8568 112.145 86.0703C111.879 86.2839 111.683 86.5638 111.555 86.9102C111.428 87.2565 111.364 87.6302 111.364 88.0312C111.364 88.4323 111.428 88.8047 111.555 89.1484C111.683 89.4922 111.879 89.7695 112.145 89.9805C112.411 90.1914 112.749 90.2969 113.161 90.2969ZM119.958 85V85.7812H116.724V85H119.958ZM117.693 91V84.1719C117.693 83.8281 117.774 83.5417 117.935 83.3125C118.097 83.0833 118.306 82.9115 118.564 82.7969C118.822 82.6823 119.094 82.625 119.38 82.625C119.607 82.625 119.792 82.6432 119.935 82.6797C120.078 82.7161 120.185 82.75 120.255 82.7812L119.99 83.5781C119.943 83.5625 119.878 83.543 119.794 83.5195C119.714 83.4961 119.607 83.4844 119.474 83.4844C119.169 83.4844 118.949 83.5612 118.814 83.7148C118.681 83.8685 118.615 84.0937 118.615 84.3906V91H117.693ZM124.032 83.8594V83H130.032V83.8594H127.516V91H126.547V83.8594H124.032ZM133.047 91.125C132.469 91.125 131.971 90.9974 131.551 90.7422C131.135 90.4844 130.813 90.125 130.586 89.6641C130.362 89.2005 130.25 88.6615 130.25 88.0469C130.25 87.4323 130.362 86.8906 130.586 86.4219C130.813 85.9505 131.128 85.5833 131.532 85.3203C131.938 85.0547 132.412 84.9219 132.954 84.9219C133.266 84.9219 133.575 84.974 133.879 85.0781C134.184 85.1823 134.461 85.3516 134.711 85.5859C134.961 85.8177 135.161 86.125 135.309 86.5078C135.458 86.8906 135.532 87.362 135.532 87.9219V88.3125H130.907V87.5156H134.594C134.594 87.1771 134.527 86.875 134.391 86.6094C134.258 86.3437 134.068 86.1341 133.821 85.9805C133.576 85.8268 133.287 85.75 132.954 85.75C132.586 85.75 132.269 85.8411 132 86.0234C131.735 86.2031 131.53 86.4375 131.387 86.7266C131.244 87.0156 131.172 87.3255 131.172 87.6562V88.1875C131.172 88.6406 131.25 89.0247 131.407 89.3398C131.566 89.6523 131.786 89.8906 132.067 90.0547C132.348 90.2161 132.675 90.2969 133.047 90.2969C133.29 90.2969 133.508 90.263 133.704 90.1953C133.902 90.125 134.072 90.0208 134.215 89.8828C134.359 89.7422 134.469 89.5677 134.547 89.3594L135.438 89.6094C135.344 89.9115 135.187 90.1771 134.965 90.4062C134.744 90.6328 134.471 90.8099 134.145 90.9375C133.819 91.0625 133.454 91.125 133.047 91.125ZM139.372 91.125C138.809 91.125 138.325 90.9922 137.918 90.7266C137.512 90.4609 137.2 90.0951 136.981 89.6289C136.762 89.1628 136.653 88.6302 136.653 88.0312C136.653 87.4219 136.765 86.8841 136.989 86.418C137.215 85.9492 137.53 85.5833 137.934 85.3203C138.34 85.0547 138.814 84.9219 139.356 84.9219C139.778 84.9219 140.158 85 140.497 85.1562C140.835 85.3125 141.112 85.5312 141.329 85.8125C141.545 86.0937 141.679 86.4219 141.731 86.7969H140.809C140.739 86.5234 140.583 86.2812 140.34 86.0703C140.101 85.8568 139.778 85.75 139.372 85.75C139.012 85.75 138.697 85.8437 138.426 86.0312C138.158 86.2161 137.948 86.4779 137.797 86.8164C137.649 87.1523 137.575 87.5469 137.575 88C137.575 88.4635 137.648 88.8672 137.793 89.2109C137.942 89.5547 138.15 89.8216 138.418 90.0117C138.689 90.2018 139.007 90.2969 139.372 90.2969C139.611 90.2969 139.829 90.2552 140.024 90.1719C140.219 90.0885 140.385 89.9688 140.52 89.8125C140.655 89.6562 140.752 89.4687 140.809 89.25H141.731C141.679 89.6042 141.55 89.9232 141.344 90.207C141.141 90.4883 140.872 90.7122 140.536 90.8789C140.202 91.043 139.814 91.125 139.372 91.125ZM144 87.3906V91H143.079V83H144V85.9375H144.079C144.219 85.6276 144.43 85.3815 144.711 85.1992C144.995 85.0143 145.373 84.9219 145.844 84.9219C146.253 84.9219 146.611 85.0039 146.918 85.168C147.226 85.3294 147.464 85.5781 147.633 85.9141C147.805 86.2474 147.891 86.6719 147.891 87.1875V91H146.969V87.25C146.969 86.7734 146.846 86.4049 146.598 86.1445C146.353 85.8815 146.014 85.75 145.579 85.75C145.277 85.75 145.006 85.8138 144.766 85.9414C144.529 86.069 144.342 86.2552 144.204 86.5C144.068 86.7448 144 87.0417 144 87.3906ZM150.5 87.3906V91H149.578V85H150.468V85.9375H150.546C150.687 85.6328 150.901 85.388 151.187 85.2031C151.473 85.0156 151.843 84.9219 152.296 84.9219C152.703 84.9219 153.058 85.0052 153.363 85.1719C153.667 85.3359 153.904 85.5859 154.074 85.9219C154.243 86.2552 154.328 86.6771 154.328 87.1875V91H153.406V87.25C153.406 86.7786 153.283 86.4115 153.039 86.1484C152.794 85.8828 152.458 85.75 152.031 85.75C151.736 85.75 151.473 85.8138 151.242 85.9414C151.013 86.069 150.832 86.2552 150.699 86.5C150.566 86.7448 150.5 87.0417 150.5 87.3906ZM158.45 91.125C157.908 91.125 157.433 90.9961 157.024 90.7383C156.618 90.4805 156.3 90.1198 156.071 89.6562C155.844 89.1927 155.731 88.651 155.731 88.0312C155.731 87.4062 155.844 86.8607 156.071 86.3945C156.3 85.9284 156.618 85.5664 157.024 85.3086C157.433 85.0508 157.908 84.9219 158.45 84.9219C158.991 84.9219 159.465 85.0508 159.872 85.3086C160.28 85.5664 160.598 85.9284 160.825 86.3945C161.054 86.8607 161.168 87.4062 161.168 88.0312C161.168 88.651 161.054 89.1927 160.825 89.6562C160.598 90.1198 160.28 90.4805 159.872 90.7383C159.465 90.9961 158.991 91.125 158.45 91.125ZM158.45 90.2969C158.861 90.2969 159.2 90.1914 159.465 89.9805C159.731 89.7695 159.928 89.4922 160.055 89.1484C160.183 88.8047 160.247 88.4323 160.247 88.0312C160.247 87.6302 160.183 87.2565 160.055 86.9102C159.928 86.5638 159.731 86.2839 159.465 86.0703C159.2 85.8568 158.861 85.75 158.45 85.75C158.038 85.75 157.7 85.8568 157.434 86.0703C157.168 86.2839 156.972 86.5638 156.844 86.9102C156.717 87.2565 156.653 87.6302 156.653 88.0312C156.653 88.4323 156.717 88.8047 156.844 89.1484C156.972 89.4922 157.168 89.7695 157.434 89.9805C157.7 90.1914 158.038 90.2969 158.45 90.2969ZM163.498 83V91H162.576V83H163.498ZM167.624 91.125C167.082 91.125 166.607 90.9961 166.198 90.7383C165.792 90.4805 165.474 90.1198 165.245 89.6562C165.018 89.1927 164.905 88.651 164.905 88.0312C164.905 87.4062 165.018 86.8607 165.245 86.3945C165.474 85.9284 165.792 85.5664 166.198 85.3086C166.607 85.0508 167.082 84.9219 167.624 84.9219C168.165 84.9219 168.639 85.0508 169.045 85.3086C169.454 85.5664 169.772 85.9284 169.999 86.3945C170.228 86.8607 170.342 87.4062 170.342 88.0312C170.342 88.651 170.228 89.1927 169.999 89.6562C169.772 90.1198 169.454 90.4805 169.045 90.7383C168.639 90.9961 168.165 91.125 167.624 91.125ZM167.624 90.2969C168.035 90.2969 168.374 90.1914 168.639 89.9805C168.905 89.7695 169.101 89.4922 169.229 89.1484C169.357 88.8047 169.42 88.4323 169.42 88.0312C169.42 87.6302 169.357 87.2565 169.229 86.9102C169.101 86.5638 168.905 86.2839 168.639 86.0703C168.374 85.8568 168.035 85.75 167.624 85.75C167.212 85.75 166.874 85.8568 166.608 86.0703C166.342 86.2839 166.146 86.5638 166.018 86.9102C165.89 87.2565 165.827 87.6302 165.827 88.0312C165.827 88.4323 165.89 88.8047 166.018 89.1484C166.146 89.4922 166.342 89.7695 166.608 89.9805C166.874 90.1914 167.212 90.2969 167.624 90.2969ZM174.171 93.375C173.726 93.375 173.343 93.3177 173.023 93.2031C172.703 93.0911 172.436 92.9427 172.222 92.7578C172.011 92.5755 171.843 92.3802 171.718 92.1719L172.453 91.6563C172.536 91.7656 172.641 91.8906 172.769 92.0312C172.897 92.1745 173.071 92.2982 173.292 92.4023C173.516 92.5091 173.809 92.5625 174.171 92.5625C174.656 92.5625 175.056 92.4453 175.371 92.2109C175.686 91.9766 175.843 91.6094 175.843 91.1094V89.8906H175.765C175.697 90 175.601 90.1354 175.476 90.2969C175.354 90.4557 175.177 90.5977 174.945 90.7227C174.716 90.8451 174.406 90.9062 174.015 90.9062C173.531 90.9062 173.096 90.7917 172.71 90.5625C172.328 90.3333 172.024 90 171.8 89.5625C171.579 89.125 171.468 88.5937 171.468 87.9687C171.468 87.3542 171.576 86.819 171.792 86.3633C172.009 85.9049 172.309 85.5508 172.695 85.3008C173.08 85.0482 173.526 84.9219 174.031 84.9219C174.421 84.9219 174.731 84.987 174.96 85.1172C175.192 85.2448 175.369 85.3906 175.492 85.5547C175.617 85.7161 175.713 85.849 175.781 85.9531H175.875V85H176.765V91.1719C176.765 91.6875 176.648 92.1068 176.414 92.4297C176.182 92.7552 175.869 92.9935 175.476 93.1445C175.085 93.2982 174.651 93.375 174.171 93.375ZM174.14 90.0781C174.51 90.0781 174.822 89.9935 175.078 89.8242C175.333 89.6549 175.527 89.4115 175.66 89.0938C175.792 88.776 175.859 88.3958 175.859 87.9531C175.859 87.5208 175.794 87.1393 175.664 86.8086C175.533 86.4779 175.341 86.2187 175.085 86.0312C174.83 85.8437 174.515 85.75 174.14 85.75C173.75 85.75 173.424 85.849 173.164 86.0469C172.906 86.2448 172.712 86.5104 172.582 86.8438C172.454 87.1771 172.39 87.5469 172.39 87.9531C172.39 88.3698 172.455 88.7383 172.585 89.0586C172.718 89.3763 172.914 89.6263 173.171 89.8086C173.432 89.9883 173.755 90.0781 174.14 90.0781ZM179.046 93.25C178.89 93.25 178.751 93.237 178.628 93.2109C178.506 93.1875 178.421 93.1641 178.375 93.1406L178.609 92.3281C178.833 92.3854 179.031 92.4063 179.203 92.3906C179.375 92.375 179.527 92.2982 179.66 92.1602C179.795 92.0247 179.919 91.8047 180.031 91.5L180.203 91.0313L177.984 85H178.984L180.64 89.7812H180.703L182.359 85H183.359L180.812 91.875C180.697 92.1849 180.556 92.4414 180.386 92.6445C180.217 92.8503 180.02 93.0026 179.796 93.1016C179.575 93.2005 179.325 93.25 179.046 93.25ZM185.575 89.9062L185.512 90.3281C185.468 90.625 185.4 90.9427 185.309 91.2813C185.221 91.6198 185.128 91.9388 185.032 92.2383C184.935 92.5378 184.856 92.776 184.793 92.9531H184.09C184.124 92.7865 184.168 92.5664 184.223 92.293C184.278 92.0195 184.333 91.7135 184.387 91.375C184.444 91.0391 184.491 90.6953 184.528 90.3437L184.575 89.9062H185.575ZM190.501 83H191.658L194.376 89.6406H194.47L197.189 83H198.345V91H197.439V84.9219H197.361L194.861 91H193.986L191.486 84.9219H191.408V91H190.501V83ZM201.928 91.1406C201.548 91.1406 201.203 91.069 200.893 90.9258C200.583 90.7799 200.337 90.5703 200.155 90.2969C199.972 90.0208 199.881 89.6875 199.881 89.2969C199.881 88.9531 199.949 88.6745 200.084 88.4609C200.22 88.2448 200.401 88.0755 200.627 87.9531C200.854 87.8307 201.104 87.7396 201.377 87.6797C201.653 87.6172 201.931 87.5677 202.209 87.5313C202.574 87.4844 202.87 87.4492 203.096 87.4258C203.325 87.3997 203.492 87.3568 203.596 87.2969C203.703 87.237 203.756 87.1328 203.756 86.9844V86.9531C203.756 86.5677 203.651 86.2682 203.44 86.0547C203.232 85.8411 202.915 85.7344 202.491 85.7344C202.051 85.7344 201.706 85.8307 201.456 86.0234C201.206 86.2161 201.03 86.4219 200.928 86.6406L200.053 86.3281C200.209 85.9635 200.418 85.6797 200.678 85.4766C200.941 85.2708 201.228 85.1276 201.538 85.0469C201.85 84.9635 202.157 84.9219 202.459 84.9219C202.652 84.9219 202.874 84.9453 203.124 84.9922C203.376 85.0365 203.62 85.1289 203.854 85.2695C204.091 85.4102 204.288 85.6224 204.444 85.9062C204.6 86.1901 204.678 86.5703 204.678 87.0469V91H203.756V90.1875H203.709C203.647 90.3177 203.543 90.457 203.397 90.6055C203.251 90.7539 203.057 90.8802 202.815 90.9844C202.573 91.0885 202.277 91.1406 201.928 91.1406ZM202.069 90.3125C202.433 90.3125 202.741 90.2409 202.991 90.0977C203.243 89.9544 203.433 89.7695 203.561 89.543C203.691 89.3164 203.756 89.0781 203.756 88.8281V87.9844C203.717 88.0312 203.631 88.0742 203.499 88.1133C203.368 88.1497 203.217 88.1823 203.045 88.2109C202.876 88.237 202.711 88.2604 202.549 88.2812C202.39 88.2995 202.262 88.3151 202.163 88.3281C201.923 88.3594 201.699 88.4102 201.491 88.4805C201.285 88.5482 201.118 88.651 200.991 88.7891C200.866 88.9245 200.803 89.1094 200.803 89.3437C200.803 89.6641 200.922 89.9062 201.159 90.0703C201.398 90.2318 201.702 90.3125 202.069 90.3125ZM207.283 87.3906V91H206.361V85H207.251V85.9375H207.33C207.47 85.6328 207.684 85.388 207.97 85.2031C208.257 85.0156 208.626 84.9219 209.08 84.9219C209.486 84.9219 209.841 85.0052 210.146 85.1719C210.451 85.3359 210.688 85.5859 210.857 85.9219C211.026 86.2552 211.111 86.6771 211.111 87.1875V91H210.189V87.25C210.189 86.7786 210.067 86.4115 209.822 86.1484C209.577 85.8828 209.241 85.75 208.814 85.75C208.52 85.75 208.257 85.8138 208.025 85.9414C207.796 86.069 207.615 86.2552 207.482 86.5C207.349 86.7448 207.283 87.0417 207.283 87.3906ZM214.561 91.1406C214.181 91.1406 213.836 91.069 213.526 90.9258C213.216 90.7799 212.97 90.5703 212.788 90.2969C212.605 90.0208 212.514 89.6875 212.514 89.2969C212.514 88.9531 212.582 88.6745 212.717 88.4609C212.853 88.2448 213.034 88.0755 213.26 87.9531C213.487 87.8307 213.737 87.7396 214.01 87.6797C214.286 87.6172 214.564 87.5677 214.842 87.5313C215.207 87.4844 215.502 87.4492 215.729 87.4258C215.958 87.3997 216.125 87.3568 216.229 87.2969C216.336 87.237 216.389 87.1328 216.389 86.9844V86.9531C216.389 86.5677 216.284 86.2682 216.073 86.0547C215.864 85.8411 215.548 85.7344 215.124 85.7344C214.683 85.7344 214.338 85.8307 214.088 86.0234C213.838 86.2161 213.663 86.4219 213.561 86.6406L212.686 86.3281C212.842 85.9635 213.051 85.6797 213.311 85.4766C213.574 85.2708 213.861 85.1276 214.17 85.0469C214.483 84.9635 214.79 84.9219 215.092 84.9219C215.285 84.9219 215.506 84.9453 215.756 84.9922C216.009 85.0365 216.252 85.1289 216.487 85.2695C216.724 85.4102 216.92 85.6224 217.077 85.9062C217.233 86.1901 217.311 86.5703 217.311 87.0469V91H216.389V90.1875H216.342C216.28 90.3177 216.176 90.457 216.03 90.6055C215.884 90.7539 215.69 90.8802 215.448 90.9844C215.206 91.0885 214.91 91.1406 214.561 91.1406ZM214.702 90.3125C215.066 90.3125 215.374 90.2409 215.624 90.0977C215.876 89.9544 216.066 89.7695 216.194 89.543C216.324 89.3164 216.389 89.0781 216.389 88.8281V87.9844C216.35 88.0312 216.264 88.0742 216.131 88.1133C216.001 88.1497 215.85 88.1823 215.678 88.2109C215.509 88.237 215.344 88.2604 215.182 88.2812C215.023 88.2995 214.894 88.3151 214.795 88.3281C214.556 88.3594 214.332 88.4102 214.124 88.4805C213.918 88.5482 213.751 88.651 213.624 88.7891C213.499 88.9245 213.436 89.1094 213.436 89.3437C213.436 89.6641 213.555 89.9062 213.792 90.0703C214.031 90.2318 214.334 90.3125 214.702 90.3125ZM221.416 93.375C220.97 93.375 220.587 93.3177 220.267 93.2031C219.947 93.0911 219.68 92.9427 219.466 92.7578C219.255 92.5755 219.087 92.3802 218.962 92.1719L219.697 91.6563C219.78 91.7656 219.886 91.8906 220.013 92.0312C220.141 92.1745 220.315 92.2982 220.537 92.4023C220.761 92.5091 221.054 92.5625 221.416 92.5625C221.9 92.5625 222.3 92.4453 222.615 92.2109C222.93 91.9766 223.087 91.6094 223.087 91.1094V89.8906H223.009C222.942 90 222.845 90.1354 222.72 90.2969C222.598 90.4557 222.421 90.5977 222.189 90.7227C221.96 90.8451 221.65 90.9062 221.259 90.9062C220.775 90.9062 220.34 90.7917 219.955 90.5625C219.572 90.3333 219.268 90 219.044 89.5625C218.823 89.125 218.712 88.5937 218.712 87.9687C218.712 87.3542 218.82 86.819 219.037 86.3633C219.253 85.9049 219.554 85.5508 219.939 85.3008C220.324 85.0482 220.77 84.9219 221.275 84.9219C221.666 84.9219 221.975 84.987 222.205 85.1172C222.436 85.2448 222.613 85.3906 222.736 85.5547C222.861 85.7161 222.957 85.849 223.025 85.9531H223.119V85H224.009V91.1719C224.009 91.6875 223.892 92.1068 223.658 92.4297C223.426 92.7552 223.113 92.9935 222.72 93.1445C222.33 93.2982 221.895 93.375 221.416 93.375ZM221.384 90.0781C221.754 90.0781 222.067 89.9935 222.322 89.8242C222.577 89.6549 222.771 89.4115 222.904 89.0938C223.037 88.776 223.103 88.3958 223.103 87.9531C223.103 87.5208 223.038 87.1393 222.908 86.8086C222.778 86.4779 222.585 86.2187 222.33 86.0312C222.074 85.8437 221.759 85.75 221.384 85.75C220.994 85.75 220.668 85.849 220.408 86.0469C220.15 86.2448 219.956 86.5104 219.826 86.8438C219.698 87.1771 219.634 87.5469 219.634 87.9531C219.634 88.3698 219.699 88.7383 219.83 89.0586C219.962 89.3763 220.158 89.6263 220.416 89.8086C220.676 89.9883 220.999 90.0781 221.384 90.0781ZM228.212 91.125C227.634 91.125 227.136 90.9974 226.716 90.7422C226.3 90.4844 225.978 90.125 225.751 89.6641C225.528 89.2005 225.416 88.6615 225.416 88.0469C225.416 87.4323 225.528 86.8906 225.751 86.4219C225.978 85.9505 226.293 85.5833 226.697 85.3203C227.103 85.0547 227.577 84.9219 228.119 84.9219C228.431 84.9219 228.74 84.974 229.044 85.0781C229.349 85.1823 229.626 85.3516 229.876 85.5859C230.126 85.8177 230.326 86.125 230.474 86.5078C230.623 86.8906 230.697 87.362 230.697 87.9219V88.3125H226.072V87.5156H229.759C229.759 87.1771 229.692 86.875 229.556 86.6094C229.423 86.3437 229.233 86.1341 228.986 85.9805C228.741 85.8268 228.452 85.75 228.119 85.75C227.751 85.75 227.434 85.8411 227.166 86.0234C226.9 86.2031 226.695 86.4375 226.552 86.7266C226.409 87.0156 226.337 87.3255 226.337 87.6562V88.1875C226.337 88.6406 226.416 89.0247 226.572 89.3398C226.731 89.6523 226.951 89.8906 227.232 90.0547C227.513 90.2161 227.84 90.2969 228.212 90.2969C228.455 90.2969 228.673 90.263 228.869 90.1953C229.067 90.125 229.237 90.0208 229.38 89.8828C229.524 89.7422 229.634 89.5677 229.712 89.3594L230.603 89.6094C230.509 89.9115 230.352 90.1771 230.13 90.4062C229.909 90.6328 229.636 90.8099 229.31 90.9375C228.985 91.0625 228.619 91.125 228.212 91.125ZM232.099 91V85H232.99V85.9375H233.068C233.193 85.6172 233.395 85.3685 233.673 85.1914C233.952 85.0117 234.287 84.9219 234.677 84.9219C235.073 84.9219 235.403 85.0117 235.666 85.1914C235.931 85.3685 236.138 85.6172 236.287 85.9375H236.349C236.503 85.6276 236.733 85.3815 237.041 85.1992C237.348 85.0143 237.716 84.9219 238.146 84.9219C238.682 84.9219 239.121 85.0898 239.462 85.4258C239.804 85.7591 239.974 86.2786 239.974 86.9844V91H239.052V86.9844C239.052 86.5417 238.931 86.2253 238.689 86.0352C238.447 85.8451 238.162 85.75 237.833 85.75C237.412 85.75 237.085 85.8776 236.853 86.1328C236.621 86.3854 236.505 86.7057 236.505 87.0937V91H235.568V86.8906C235.568 86.5495 235.457 86.2747 235.236 86.0664C235.014 85.8555 234.729 85.75 234.38 85.75C234.141 85.75 233.917 85.8138 233.708 85.9414C233.503 86.069 233.336 86.2461 233.208 86.4727C233.083 86.6966 233.021 86.9557 233.021 87.25V91H232.099ZM244.175 91.125C243.597 91.125 243.098 90.9974 242.679 90.7422C242.263 90.4844 241.941 90.125 241.714 89.6641C241.49 89.2005 241.378 88.6615 241.378 88.0469C241.378 87.4323 241.49 86.8906 241.714 86.4219C241.941 85.9505 242.256 85.5833 242.66 85.3203C243.066 85.0547 243.54 84.9219 244.082 84.9219C244.394 84.9219 244.703 84.974 245.007 85.0781C245.312 85.1823 245.589 85.3516 245.839 85.5859C246.089 85.8177 246.289 86.125 246.437 86.5078C246.585 86.8906 246.66 87.362 246.66 87.9219V88.3125H242.035V87.5156H245.722C245.722 87.1771 245.654 86.875 245.519 86.6094C245.386 86.3437 245.196 86.1341 244.949 85.9805C244.704 85.8268 244.415 85.75 244.082 85.75C243.714 85.75 243.397 85.8411 243.128 86.0234C242.863 86.2031 242.658 86.4375 242.515 86.7266C242.372 87.0156 242.3 87.3255 242.3 87.6562V88.1875C242.3 88.6406 242.378 89.0247 242.535 89.3398C242.694 89.6523 242.914 89.8906 243.195 90.0547C243.476 90.2161 243.803 90.2969 244.175 90.2969C244.417 90.2969 244.636 90.263 244.832 90.1953C245.029 90.125 245.2 90.0208 245.343 89.8828C245.486 89.7422 245.597 89.5677 245.675 89.3594L246.566 89.6094C246.472 89.9115 246.315 90.1771 246.093 90.4062C245.872 90.6328 245.598 90.8099 245.273 90.9375C244.947 91.0625 244.582 91.125 244.175 91.125ZM248.984 87.3906V91H248.062V85H248.953V85.9375H249.031C249.171 85.6328 249.385 85.388 249.671 85.2031C249.958 85.0156 250.328 84.9219 250.781 84.9219C251.187 84.9219 251.542 85.0052 251.847 85.1719C252.152 85.3359 252.389 85.5859 252.558 85.9219C252.727 86.2552 252.812 86.6771 252.812 87.1875V91H251.89V87.25C251.89 86.7786 251.768 86.4115 251.523 86.1484C251.278 85.8828 250.942 85.75 250.515 85.75C250.221 85.75 249.958 85.8138 249.726 85.9414C249.497 86.069 249.316 86.2552 249.183 86.5C249.05 86.7448 248.984 87.0417 248.984 87.3906ZM257.106 85V85.7812H253.997V85H257.106ZM254.903 83.5625H255.825V89.2812C255.825 89.5417 255.862 89.737 255.938 89.8672C256.016 89.9948 256.115 90.0807 256.235 90.125C256.357 90.1667 256.486 90.1875 256.622 90.1875C256.723 90.1875 256.806 90.1823 256.872 90.1719C256.937 90.1589 256.989 90.1484 257.028 90.1406L257.215 90.9687C257.153 90.9922 257.066 91.0156 256.954 91.0391C256.842 91.0651 256.7 91.0781 256.528 91.0781C256.267 91.0781 256.012 91.0221 255.762 90.9102C255.515 90.7982 255.309 90.6276 255.145 90.3984C254.984 90.1693 254.903 89.8802 254.903 89.5312V83.5625ZM263.352 91.1406C262.972 91.1406 262.627 91.069 262.317 90.9258C262.007 90.7799 261.761 90.5703 261.579 90.2969C261.396 90.0208 261.305 89.6875 261.305 89.2969C261.305 88.9531 261.373 88.6745 261.508 88.4609C261.644 88.2448 261.825 88.0755 262.051 87.9531C262.278 87.8307 262.528 87.7396 262.801 87.6797C263.077 87.6172 263.355 87.5677 263.633 87.5313C263.998 87.4844 264.293 87.4492 264.52 87.4258C264.749 87.3997 264.916 87.3568 265.02 87.2969C265.127 87.237 265.18 87.1328 265.18 86.9844V86.9531C265.18 86.5677 265.075 86.2682 264.864 86.0547C264.655 85.8411 264.339 85.7344 263.915 85.7344C263.474 85.7344 263.129 85.8307 262.879 86.0234C262.629 86.2161 262.454 86.4219 262.352 86.6406L261.477 86.3281C261.633 85.9635 261.842 85.6797 262.102 85.4766C262.365 85.2708 262.652 85.1276 262.961 85.0469C263.274 84.9635 263.581 84.9219 263.883 84.9219C264.076 84.9219 264.297 84.9453 264.547 84.9922C264.8 85.0365 265.043 85.1289 265.278 85.2695C265.515 85.4102 265.711 85.6224 265.868 85.9062C266.024 86.1901 266.102 86.5703 266.102 87.0469V91H265.18V90.1875H265.133C265.071 90.3177 264.967 90.457 264.821 90.6055C264.675 90.7539 264.481 90.8802 264.239 90.9844C263.997 91.0885 263.701 91.1406 263.352 91.1406ZM263.493 90.3125C263.857 90.3125 264.165 90.2409 264.415 90.0977C264.667 89.9544 264.857 89.7695 264.985 89.543C265.115 89.3164 265.18 89.0781 265.18 88.8281V87.9844C265.141 88.0312 265.055 88.0742 264.922 88.1133C264.792 88.1497 264.641 88.1823 264.469 88.2109C264.3 88.237 264.135 88.2604 263.973 88.2812C263.814 88.2995 263.685 88.3151 263.586 88.3281C263.347 88.3594 263.123 88.4102 262.915 88.4805C262.709 88.5482 262.542 88.651 262.415 88.7891C262.29 88.9245 262.227 89.1094 262.227 89.3437C262.227 89.6641 262.346 89.9062 262.583 90.0703C262.822 90.2318 263.125 90.3125 263.493 90.3125ZM268.707 87.3906V91H267.785V85H268.675V85.9375H268.753C268.894 85.6328 269.108 85.388 269.394 85.2031C269.681 85.0156 270.05 84.9219 270.503 84.9219C270.91 84.9219 271.265 85.0052 271.57 85.1719C271.875 85.3359 272.111 85.5859 272.281 85.9219C272.45 86.2552 272.535 86.6771 272.535 87.1875V91H271.613V87.25C271.613 86.7786 271.49 86.4115 271.246 86.1484C271.001 85.8828 270.665 85.75 270.238 85.75C269.944 85.75 269.681 85.8138 269.449 85.9414C269.22 86.069 269.039 86.2552 268.906 86.5C268.773 86.7448 268.707 87.0417 268.707 87.3906ZM276.485 91.125C275.985 91.125 275.543 90.9987 275.161 90.7461C274.778 90.4909 274.478 90.1315 274.262 89.668C274.046 89.2018 273.938 88.651 273.938 88.0156C273.938 87.3854 274.046 86.8385 274.262 86.375C274.478 85.9115 274.779 85.5534 275.165 85.3008C275.55 85.0482 275.995 84.9219 276.5 84.9219C276.891 84.9219 277.2 84.987 277.426 85.1172C277.655 85.2448 277.83 85.3906 277.95 85.5547C278.072 85.7161 278.167 85.849 278.235 85.9531H278.313V83H279.235V91H278.344V90.0781H278.235C278.167 90.1875 278.071 90.3255 277.946 90.4922C277.821 90.6562 277.642 90.8034 277.411 90.9336C277.179 91.0612 276.87 91.125 276.485 91.125ZM276.61 90.2969C276.98 90.2969 277.292 90.2005 277.547 90.0078C277.803 89.8125 277.997 89.543 278.129 89.1992C278.262 88.8529 278.329 88.4531 278.329 88C278.329 87.5521 278.264 87.1602 278.133 86.8242C278.003 86.4857 277.81 86.2227 277.555 86.0352C277.3 85.8451 276.985 85.75 276.61 85.75C276.219 85.75 275.894 85.8503 275.633 86.0508C275.375 86.2487 275.181 86.5182 275.051 86.8594C274.924 87.1979 274.86 87.5781 274.86 88C274.86 88.4271 274.925 88.8151 275.055 89.1641C275.188 89.5104 275.383 89.7865 275.641 89.9922C275.902 90.1953 276.224 90.2969 276.61 90.2969ZM106.057 104V96H108.76C109.385 96 109.898 96.1068 110.299 96.3203C110.7 96.5312 110.997 96.8216 111.19 97.1914C111.383 97.5612 111.479 97.9818 111.479 98.4531C111.479 98.9245 111.383 99.3424 111.19 99.707C110.997 100.072 110.702 100.358 110.303 100.566C109.905 100.772 109.396 100.875 108.776 100.875H106.588V100H108.745C109.172 100 109.515 99.9375 109.776 99.8125C110.039 99.6875 110.229 99.5104 110.346 99.2812C110.466 99.0495 110.526 98.7734 110.526 98.4531C110.526 98.1328 110.466 97.8529 110.346 97.6133C110.226 97.3737 110.035 97.1888 109.772 97.0586C109.509 96.9258 109.161 96.8594 108.729 96.8594H107.026V104H106.057ZM109.823 100.406L111.792 104H110.667L108.729 100.406H109.823ZM115.419 104.125C114.841 104.125 114.343 103.997 113.923 103.742C113.507 103.484 113.185 103.125 112.958 102.664C112.735 102.201 112.623 101.661 112.623 101.047C112.623 100.432 112.735 99.8906 112.958 99.4219C113.185 98.9505 113.5 98.5833 113.904 98.3203C114.31 98.0547 114.784 97.9219 115.326 97.9219C115.638 97.9219 115.947 97.974 116.251 98.0781C116.556 98.1823 116.833 98.3516 117.083 98.5859C117.333 98.8177 117.533 99.125 117.681 99.5078C117.83 99.8906 117.904 100.362 117.904 100.922V101.312H113.279V100.516H116.966C116.966 100.177 116.899 99.875 116.763 99.6094C116.63 99.3437 116.44 99.1341 116.193 98.9805C115.948 98.8268 115.659 98.75 115.326 98.75C114.958 98.75 114.641 98.8411 114.373 99.0234C114.107 99.2031 113.903 99.4375 113.759 99.7266C113.616 100.016 113.544 100.326 113.544 100.656V101.188C113.544 101.641 113.623 102.025 113.779 102.34C113.938 102.652 114.158 102.891 114.439 103.055C114.72 103.216 115.047 103.297 115.419 103.297C115.662 103.297 115.88 103.263 116.076 103.195C116.274 103.125 116.444 103.021 116.587 102.883C116.731 102.742 116.841 102.568 116.919 102.359L117.81 102.609C117.716 102.911 117.559 103.177 117.337 103.406C117.116 103.633 116.843 103.81 116.517 103.937C116.192 104.063 115.826 104.125 115.419 104.125ZM123.556 99.3437L122.728 99.5781C122.676 99.4401 122.599 99.306 122.498 99.1758C122.399 99.043 122.263 98.9336 122.091 98.8477C121.919 98.7617 121.699 98.7187 121.431 98.7187C121.064 98.7187 120.758 98.8034 120.513 98.9727C120.271 99.1393 120.15 99.3516 120.15 99.6094C120.15 99.8385 120.233 100.02 120.4 100.152C120.567 100.285 120.827 100.396 121.181 100.484L122.072 100.703C122.608 100.833 123.008 101.033 123.271 101.301C123.534 101.566 123.666 101.909 123.666 102.328C123.666 102.672 123.567 102.979 123.369 103.25C123.173 103.521 122.9 103.734 122.548 103.891C122.197 104.047 121.788 104.125 121.322 104.125C120.71 104.125 120.203 103.992 119.802 103.727C119.401 103.461 119.147 103.073 119.041 102.562L119.916 102.344C119.999 102.667 120.156 102.909 120.388 103.07C120.623 103.232 120.929 103.312 121.306 103.312C121.736 103.312 122.077 103.221 122.33 103.039C122.585 102.854 122.712 102.633 122.712 102.375C122.712 102.167 122.639 101.992 122.494 101.852C122.348 101.708 122.124 101.602 121.822 101.531L120.822 101.297C120.272 101.167 119.869 100.965 119.611 100.691C119.356 100.415 119.228 100.07 119.228 99.6562C119.228 99.3177 119.323 99.0182 119.513 98.7578C119.706 98.4974 119.968 98.293 120.298 98.1445C120.632 97.9961 121.009 97.9219 121.431 97.9219C122.025 97.9219 122.491 98.0521 122.83 98.3125C123.171 98.5729 123.413 98.9167 123.556 99.3437ZM127.569 104.125C126.991 104.125 126.492 103.997 126.073 103.742C125.656 103.484 125.334 103.125 125.108 102.664C124.884 102.201 124.772 101.661 124.772 101.047C124.772 100.432 124.884 99.8906 125.108 99.4219C125.334 98.9505 125.65 98.5833 126.053 98.3203C126.459 98.0547 126.933 97.9219 127.475 97.9219C127.788 97.9219 128.096 97.974 128.401 98.0781C128.706 98.1823 128.983 98.3516 129.233 98.5859C129.483 98.8177 129.682 99.125 129.831 99.5078C129.979 99.8906 130.053 100.362 130.053 100.922V101.312H125.428V100.516H129.116C129.116 100.177 129.048 99.875 128.913 99.6094C128.78 99.3437 128.59 99.1341 128.342 98.9805C128.097 98.8268 127.808 98.75 127.475 98.75C127.108 98.75 126.79 98.8411 126.522 99.0234C126.256 99.2031 126.052 99.4375 125.909 99.7266C125.765 100.016 125.694 100.326 125.694 100.656V101.188C125.694 101.641 125.772 102.025 125.928 102.34C126.087 102.652 126.307 102.891 126.588 103.055C126.87 103.216 127.196 103.297 127.569 103.297C127.811 103.297 128.03 103.263 128.225 103.195C128.423 103.125 128.594 103.021 128.737 102.883C128.88 102.742 128.991 102.568 129.069 102.359L129.959 102.609C129.866 102.911 129.708 103.177 129.487 103.406C129.265 103.633 128.992 103.81 128.667 103.937C128.341 104.063 127.975 104.125 127.569 104.125ZM133.221 104.141C132.841 104.141 132.496 104.069 132.186 103.926C131.876 103.78 131.63 103.57 131.448 103.297C131.265 103.021 131.174 102.687 131.174 102.297C131.174 101.953 131.242 101.674 131.377 101.461C131.513 101.245 131.694 101.076 131.92 100.953C132.147 100.831 132.397 100.74 132.67 100.68C132.946 100.617 133.224 100.568 133.502 100.531C133.867 100.484 134.163 100.449 134.389 100.426C134.618 100.4 134.785 100.357 134.889 100.297C134.996 100.237 135.049 100.133 135.049 99.9844V99.9531C135.049 99.5677 134.944 99.2682 134.733 99.0547C134.525 98.8411 134.208 98.7344 133.784 98.7344C133.344 98.7344 132.999 98.8307 132.749 99.0234C132.499 99.2161 132.323 99.4219 132.221 99.6406L131.346 99.3281C131.502 98.9635 131.711 98.6797 131.971 98.4766C132.234 98.2708 132.521 98.1276 132.831 98.0469C133.143 97.9635 133.45 97.9219 133.752 97.9219C133.945 97.9219 134.167 97.9453 134.417 97.9922C134.669 98.0365 134.913 98.1289 135.147 98.2695C135.384 98.4102 135.581 98.6224 135.737 98.9062C135.893 99.1901 135.971 99.5703 135.971 100.047V104H135.049V103.187H135.002C134.94 103.318 134.836 103.457 134.69 103.605C134.544 103.754 134.35 103.88 134.108 103.984C133.866 104.089 133.57 104.141 133.221 104.141ZM133.362 103.312C133.726 103.312 134.034 103.241 134.284 103.098C134.536 102.954 134.726 102.77 134.854 102.543C134.984 102.316 135.049 102.078 135.049 101.828V100.984C135.01 101.031 134.924 101.074 134.792 101.113C134.661 101.15 134.51 101.182 134.338 101.211C134.169 101.237 134.004 101.26 133.842 101.281C133.683 101.299 133.555 101.315 133.456 101.328C133.216 101.359 132.992 101.41 132.784 101.48C132.578 101.548 132.411 101.651 132.284 101.789C132.159 101.924 132.096 102.109 132.096 102.344C132.096 102.664 132.215 102.906 132.452 103.07C132.691 103.232 132.995 103.312 133.362 103.312ZM137.654 104V98H138.544V98.9062H138.607C138.716 98.6094 138.914 98.3685 139.201 98.1836C139.487 97.9987 139.81 97.9062 140.169 97.9062C140.237 97.9062 140.322 97.9076 140.423 97.9102C140.525 97.9128 140.602 97.9167 140.654 97.9219V98.8594C140.623 98.8516 140.551 98.8398 140.439 98.8242C140.33 98.806 140.214 98.7969 140.091 98.7969C139.8 98.7969 139.539 98.8581 139.31 98.9805C139.083 99.1003 138.904 99.2669 138.771 99.4805C138.641 99.6914 138.576 99.9323 138.576 100.203V104H137.654ZM144.001 104.125C143.439 104.125 142.955 103.992 142.548 103.727C142.142 103.461 141.83 103.095 141.611 102.629C141.392 102.163 141.283 101.63 141.283 101.031C141.283 100.422 141.395 99.8841 141.619 99.418C141.845 98.9492 142.16 98.5833 142.564 98.3203C142.97 98.0547 143.444 97.9219 143.986 97.9219C144.408 97.9219 144.788 98 145.126 98.1562C145.465 98.3125 145.742 98.5312 145.958 98.8125C146.175 99.0937 146.309 99.4219 146.361 99.7969H145.439C145.369 99.5234 145.212 99.2812 144.97 99.0703C144.731 98.8568 144.408 98.75 144.001 98.75C143.642 98.75 143.327 98.8437 143.056 99.0312C142.788 99.2161 142.578 99.4779 142.427 99.8164C142.279 100.152 142.205 100.547 142.205 101C142.205 101.464 142.278 101.867 142.423 102.211C142.572 102.555 142.78 102.822 143.048 103.012C143.319 103.202 143.637 103.297 144.001 103.297C144.241 103.297 144.458 103.255 144.654 103.172C144.849 103.089 145.014 102.969 145.15 102.812C145.285 102.656 145.382 102.469 145.439 102.25H146.361C146.309 102.604 146.18 102.923 145.974 103.207C145.771 103.488 145.501 103.712 145.166 103.879C144.832 104.043 144.444 104.125 144.001 104.125ZM148.63 100.391V104H147.708V96H148.63V98.9375H148.708C148.849 98.6276 149.06 98.3815 149.341 98.1992C149.625 98.0143 150.003 97.9219 150.474 97.9219C150.883 97.9219 151.241 98.0039 151.548 98.168C151.856 98.3294 152.094 98.5781 152.263 98.9141C152.435 99.2474 152.521 99.6719 152.521 100.188V104H151.599V100.25C151.599 99.7734 151.475 99.4049 151.228 99.1445C150.983 98.8815 150.643 98.75 150.208 98.75C149.906 98.75 149.636 98.8138 149.396 98.9414C149.159 99.069 148.972 99.2552 148.833 99.5C148.698 99.7448 148.63 100.042 148.63 100.391ZM155.583 102.906L155.52 103.328C155.476 103.625 155.408 103.943 155.317 104.281C155.228 104.62 155.136 104.939 155.04 105.238C154.943 105.538 154.864 105.776 154.801 105.953H154.098C154.132 105.786 154.176 105.566 154.231 105.293C154.286 105.02 154.34 104.714 154.395 104.375C154.452 104.039 154.499 103.695 154.536 103.344L154.583 102.906H155.583ZM166.853 96V104H165.916L161.556 97.7187H161.478V104H160.509V96H161.447L165.822 102.297H165.9V96H166.853ZM170.432 104.141C170.052 104.141 169.707 104.069 169.397 103.926C169.087 103.78 168.841 103.57 168.659 103.297C168.476 103.021 168.385 102.687 168.385 102.297C168.385 101.953 168.453 101.674 168.588 101.461C168.724 101.245 168.905 101.076 169.131 100.953C169.358 100.831 169.608 100.74 169.881 100.68C170.157 100.617 170.435 100.568 170.713 100.531C171.078 100.484 171.374 100.449 171.6 100.426C171.829 100.4 171.996 100.357 172.1 100.297C172.207 100.237 172.26 100.133 172.26 99.9844V99.9531C172.26 99.5677 172.155 99.2682 171.944 99.0547C171.736 98.8411 171.419 98.7344 170.995 98.7344C170.555 98.7344 170.209 98.8307 169.959 99.0234C169.709 99.2161 169.534 99.4219 169.432 99.6406L168.557 99.3281C168.713 98.9635 168.922 98.6797 169.182 98.4766C169.445 98.2708 169.732 98.1276 170.042 98.0469C170.354 97.9635 170.661 97.9219 170.963 97.9219C171.156 97.9219 171.377 97.9453 171.627 97.9922C171.88 98.0365 172.124 98.1289 172.358 98.2695C172.595 98.4102 172.792 98.6224 172.948 98.9062C173.104 99.1901 173.182 99.5703 173.182 100.047V104H172.26V103.187H172.213C172.151 103.318 172.047 103.457 171.901 103.605C171.755 103.754 171.561 103.88 171.319 103.984C171.077 104.089 170.781 104.141 170.432 104.141ZM170.573 103.312C170.937 103.312 171.245 103.241 171.495 103.098C171.747 102.954 171.937 102.77 172.065 102.543C172.195 102.316 172.26 102.078 172.26 101.828V100.984C172.221 101.031 172.135 101.074 172.002 101.113C171.872 101.15 171.721 101.182 171.549 101.211C171.38 101.237 171.215 101.26 171.053 101.281C170.894 101.299 170.765 101.315 170.667 101.328C170.427 101.359 170.203 101.41 169.995 101.48C169.789 101.548 169.622 101.651 169.495 101.789C169.37 101.924 169.307 102.109 169.307 102.344C169.307 102.664 169.426 102.906 169.663 103.07C169.902 103.232 170.206 103.312 170.573 103.312ZM177.287 106.375C176.841 106.375 176.458 106.318 176.138 106.203C175.818 106.091 175.551 105.943 175.337 105.758C175.126 105.576 174.958 105.38 174.833 105.172L175.568 104.656C175.651 104.766 175.757 104.891 175.884 105.031C176.012 105.174 176.186 105.298 176.408 105.402C176.632 105.509 176.925 105.562 177.287 105.562C177.771 105.562 178.171 105.445 178.486 105.211C178.801 104.977 178.958 104.609 178.958 104.109V102.891H178.88C178.813 103 178.716 103.135 178.591 103.297C178.469 103.456 178.292 103.598 178.06 103.723C177.831 103.845 177.521 103.906 177.13 103.906C176.646 103.906 176.211 103.792 175.826 103.563C175.443 103.333 175.139 103 174.916 102.562C174.694 102.125 174.583 101.594 174.583 100.969C174.583 100.354 174.692 99.819 174.908 99.3633C175.124 98.9049 175.425 98.5508 175.81 98.3008C176.195 98.0482 176.641 97.9219 177.146 97.9219C177.537 97.9219 177.847 97.987 178.076 98.1172C178.307 98.2448 178.485 98.3906 178.607 98.5547C178.732 98.7161 178.828 98.849 178.896 98.9531H178.99V98H179.88V104.172C179.88 104.688 179.763 105.107 179.529 105.43C179.297 105.755 178.985 105.993 178.591 106.145C178.201 106.298 177.766 106.375 177.287 106.375ZM177.255 103.078C177.625 103.078 177.938 102.993 178.193 102.824C178.448 102.655 178.642 102.411 178.775 102.094C178.908 101.776 178.974 101.396 178.974 100.953C178.974 100.521 178.909 100.139 178.779 99.8086C178.649 99.4779 178.456 99.2187 178.201 99.0312C177.945 98.8437 177.63 98.75 177.255 98.75C176.865 98.75 176.539 98.849 176.279 99.0469C176.021 99.2448 175.827 99.5104 175.697 99.8438C175.569 100.177 175.505 100.547 175.505 100.953C175.505 101.37 175.57 101.738 175.701 102.059C175.833 102.376 176.029 102.626 176.287 102.809C176.547 102.988 176.87 103.078 177.255 103.078ZM181.568 106.25V98H182.458V98.9531H182.568C182.636 98.849 182.729 98.7161 182.849 98.5547C182.972 98.3906 183.146 98.2448 183.373 98.1172C183.602 97.987 183.912 97.9219 184.302 97.9219C184.807 97.9219 185.253 98.0482 185.638 98.3008C186.024 98.5534 186.324 98.9115 186.541 99.375C186.757 99.8385 186.865 100.385 186.865 101.016C186.865 101.651 186.757 102.202 186.541 102.668C186.324 103.132 186.025 103.491 185.642 103.746C185.259 103.999 184.818 104.125 184.318 104.125C183.932 104.125 183.624 104.061 183.392 103.934C183.16 103.803 182.982 103.656 182.857 103.492C182.732 103.326 182.636 103.187 182.568 103.078H182.49V106.25H181.568ZM182.474 101C182.474 101.453 182.541 101.853 182.673 102.199C182.806 102.543 183 102.812 183.255 103.008C183.511 103.201 183.823 103.297 184.193 103.297C184.578 103.297 184.9 103.195 185.158 102.992C185.418 102.786 185.613 102.51 185.744 102.164C185.876 101.815 185.943 101.427 185.943 101C185.943 100.578 185.878 100.198 185.748 99.8594C185.62 99.5182 185.426 99.2487 185.166 99.0508C184.908 98.8503 184.583 98.75 184.193 98.75C183.818 98.75 183.503 98.8451 183.248 99.0352C182.992 99.2227 182.8 99.4857 182.669 99.8242C182.539 100.16 182.474 100.552 182.474 101ZM192.052 101.547V98H192.974V104H192.052V102.984H191.99C191.849 103.289 191.63 103.548 191.333 103.762C191.037 103.973 190.662 104.078 190.208 104.078C189.833 104.078 189.5 103.996 189.208 103.832C188.917 103.665 188.688 103.415 188.521 103.082C188.354 102.746 188.271 102.323 188.271 101.812V98H189.193V101.75C189.193 102.187 189.315 102.536 189.56 102.797C189.807 103.057 190.123 103.187 190.505 103.187C190.735 103.187 190.968 103.129 191.205 103.012C191.444 102.895 191.645 102.715 191.806 102.473C191.97 102.23 192.052 101.922 192.052 101.547ZM194.663 104V98H195.553V98.9062H195.616C195.725 98.6094 195.923 98.3685 196.209 98.1836C196.496 97.9987 196.819 97.9062 197.178 97.9062C197.246 97.9062 197.331 97.9076 197.432 97.9102C197.534 97.9128 197.611 97.9167 197.663 97.9219V98.8594C197.631 98.8516 197.56 98.8398 197.448 98.8242C197.338 98.806 197.222 98.7969 197.1 98.7969C196.808 98.7969 196.548 98.8581 196.319 98.9805C196.092 99.1003 195.913 99.2669 195.78 99.4805C195.65 99.6914 195.584 99.9323 195.584 100.203V104H194.663Z" fill="white"/>
</svg>
