<svg width="304" height="120" viewBox="0 0 304 120" fill="none" xmlns="http://www.w3.org/2000/svg">
<rect width="304" height="120" rx="6" fill="#313235"/>
<path d="M23.0871 75.1405C21.9783 75.1405 20.9564 74.8742 20.0216 74.3415C19.0867 73.8089 18.342 73.0805 17.7876 72.1565C17.2441 71.2217 16.9723 70.1835 16.9723 69.0421C16.9723 67.9007 17.2441 66.8679 17.7876 65.9439C18.342 65.0091 19.0867 64.2753 20.0216 63.7426C20.9564 63.21 21.9783 62.9436 23.0871 62.9436C23.9676 62.9436 24.7884 63.1012 25.5493 63.4165C26.3102 63.7317 26.9462 64.172 27.4571 64.7373L26.1852 66.0092C25.8048 65.5852 25.3482 65.2591 24.8155 65.0308C24.2937 64.8025 23.7122 64.6884 23.0708 64.6884C22.3207 64.6884 21.6195 64.8677 20.9673 65.2265C20.3151 65.5852 19.7933 66.0961 19.4019 66.7592C19.0106 67.4223 18.8149 68.1833 18.8149 69.0421C18.8149 69.9009 19.0106 70.6618 19.4019 71.3249C19.7933 71.988 20.3151 72.499 20.9673 72.8577C21.6195 73.2164 22.3261 73.3958 23.0871 73.3958C23.7828 73.3958 24.3644 73.2925 24.8318 73.086C25.2993 72.8794 25.7178 72.6022 26.0874 72.2544C26.3266 72.0152 26.5277 71.7163 26.6907 71.3575C26.8647 70.9988 26.9788 70.6075 27.0332 70.1835H23.0708V68.5529H28.7616C28.8159 68.8573 28.8431 69.1725 28.8431 69.4986C28.8431 70.2379 28.729 70.9499 28.5007 71.6347C28.2724 72.3087 27.9082 72.8957 27.4082 73.3958C26.3102 74.559 24.8699 75.1405 23.0871 75.1405ZM34.4753 75.1405C33.6383 75.1405 32.8882 74.9503 32.2251 74.5698C31.562 74.1785 31.0456 73.6458 30.676 72.9718C30.3064 72.2979 30.1216 71.5478 30.1216 70.7216C30.1216 69.8954 30.3064 69.1454 30.676 68.4714C31.0456 67.7974 31.562 67.2702 32.2251 66.8897C32.8882 66.4983 33.6383 66.3027 34.4753 66.3027C35.3124 66.3027 36.0624 66.4983 36.7256 66.8897C37.3887 67.281 37.905 67.8137 38.2746 68.4877C38.6442 69.1617 38.829 69.9063 38.829 70.7216C38.829 71.5478 38.6442 72.2979 38.2746 72.9718C37.905 73.6458 37.3887 74.1785 36.7256 74.5698C36.0624 74.9503 35.3124 75.1405 34.4753 75.1405ZM34.4753 73.4936C34.9319 73.4936 35.3559 73.3849 35.7472 73.1675C36.1385 72.9392 36.4484 72.6185 36.6766 72.2054C36.9158 71.7815 37.0354 71.2869 37.0354 70.7216C37.0354 70.1563 36.9158 69.6671 36.6766 69.2541C36.4484 68.841 36.1385 68.5257 35.7472 68.3083C35.3559 68.08 34.9319 67.9659 34.4753 67.9659C34.0188 67.9659 33.5948 68.08 33.2035 68.3083C32.8121 68.5257 32.4969 68.841 32.2577 69.2541C32.0294 69.6671 31.9153 70.1563 31.9153 70.7216C31.9153 71.2869 32.0294 71.7815 32.2577 72.2054C32.4969 72.6185 32.8121 72.9392 33.2035 73.1675C33.5948 73.3849 34.0188 73.4936 34.4753 73.4936ZM44.38 75.1405C43.5429 75.1405 42.7928 74.9503 42.1297 74.5698C41.4666 74.1785 40.9503 73.6458 40.5807 72.9718C40.2111 72.2979 40.0263 71.5478 40.0263 70.7216C40.0263 69.8954 40.2111 69.1454 40.5807 68.4714C40.9503 67.7974 41.4666 67.2702 42.1297 66.8897C42.7928 66.4983 43.5429 66.3027 44.38 66.3027C45.217 66.3027 45.9671 66.4983 46.6302 66.8897C47.2933 67.281 47.8097 67.8137 48.1793 68.4877C48.5489 69.1617 48.7337 69.9063 48.7337 70.7216C48.7337 71.5478 48.5489 72.2979 48.1793 72.9718C47.8097 73.6458 47.2933 74.1785 46.6302 74.5698C45.9671 74.9503 45.217 75.1405 44.38 75.1405ZM44.38 73.4936C44.8365 73.4936 45.2605 73.3849 45.6518 73.1675C46.0432 72.9392 46.353 72.6185 46.5813 72.2054C46.8204 71.7815 46.94 71.2869 46.94 70.7216C46.94 70.1563 46.8204 69.6671 46.5813 69.2541C46.353 68.841 46.0432 68.5257 45.6518 68.3083C45.2605 68.08 44.8365 67.9659 44.38 67.9659C43.9234 67.9659 43.4994 68.08 43.1081 68.3083C42.7167 68.5257 42.4015 68.841 42.1623 69.2541C41.9341 69.6671 41.8199 70.1563 41.8199 70.7216C41.8199 71.2869 41.9341 71.7815 42.1623 72.2054C42.4015 72.6185 42.7167 72.9392 43.1081 73.1675C43.4994 73.3849 43.9234 73.4936 44.38 73.4936ZM54.1378 78.6626C53.116 78.6626 52.2681 78.4289 51.5941 77.9615C50.931 77.494 50.4853 76.9396 50.257 76.2983L51.9365 75.5971C52.1105 76.0319 52.3877 76.3798 52.7681 76.6407C53.1595 76.9125 53.6161 77.0483 54.1378 77.0483C54.8988 77.0483 55.4912 76.8201 55.9152 76.3635C56.35 75.9178 56.5674 75.2873 56.5674 74.472V73.7056H56.4696C56.1978 74.0969 55.8337 74.4068 55.3771 74.635C54.9314 74.8525 54.4151 74.9612 53.828 74.9612C53.1323 74.9612 52.4855 74.7818 51.8876 74.4231C51.2897 74.0643 50.8114 73.5589 50.4527 72.9066C50.1048 72.2435 49.9309 71.488 49.9309 70.6401C49.9309 69.7922 50.1048 69.0421 50.4527 68.3898C50.8114 67.7267 51.2897 67.2158 51.8876 66.8571C52.4855 66.4875 53.1323 66.3027 53.828 66.3027C54.4042 66.3027 54.9205 66.4168 55.3771 66.6451C55.8337 66.8734 56.1978 67.1832 56.4696 67.5745H56.5674V66.5636H58.2796V74.4231C58.2796 75.3253 58.1057 76.0917 57.7578 76.7222C57.4099 77.3636 56.9207 77.8473 56.2902 78.1735C55.6706 78.4996 54.9532 78.6626 54.1378 78.6626ZM54.1542 73.3306C54.589 73.3306 54.9912 73.2273 55.3608 73.0208C55.7304 72.8033 56.0239 72.4935 56.2413 72.0913C56.4587 71.6782 56.5674 71.1945 56.5674 70.6401C56.5674 69.7922 56.3337 69.1345 55.8663 68.667C55.4097 68.1887 54.839 67.9496 54.1542 67.9496C53.7085 67.9496 53.3008 68.0583 52.9312 68.2757C52.5616 68.4822 52.2681 68.7866 52.0507 69.1888C51.8333 69.591 51.7246 70.0748 51.7246 70.6401C51.7246 71.2053 51.8333 71.6891 52.0507 72.0913C52.2681 72.4935 52.5616 72.8033 52.9312 73.0208C53.3008 73.2273 53.7085 73.3306 54.1542 73.3306ZM60.3876 63.2045H62.1813V74.8796H60.3876V63.2045ZM68.0087 75.1405C67.1934 75.1405 66.4596 74.9503 65.8074 74.5698C65.166 74.1894 64.6605 73.6676 64.2909 73.0044C63.9322 72.3305 63.7528 71.5749 63.7528 70.7379C63.7528 69.9443 63.9267 69.2106 64.2746 68.5366C64.6333 67.8517 65.1279 67.3082 65.7584 66.906C66.3889 66.5038 67.1064 66.3027 67.9108 66.3027C68.7479 66.3027 69.4708 66.4875 70.0795 66.8571C70.6992 67.2267 71.1666 67.7322 71.4819 68.3735C71.808 69.0149 71.971 69.7378 71.971 70.5422C71.971 70.6944 71.9547 70.8847 71.9221 71.1129H65.5465C65.6117 71.8848 65.8835 72.4827 66.3618 72.9066C66.8509 73.3197 67.4162 73.5262 68.0576 73.5262C68.5685 73.5262 69.0088 73.4121 69.3784 73.1838C69.7589 72.9447 70.0632 72.624 70.2915 72.2218L71.808 72.9392C71.4166 73.6241 70.9057 74.1622 70.2752 74.5535C69.6447 74.9449 68.8892 75.1405 68.0087 75.1405ZM70.1448 69.7432C70.123 69.4497 70.0306 69.1617 69.8676 68.879C69.7045 68.5855 69.4545 68.3409 69.1175 68.1452C68.7914 67.9496 68.3892 67.8517 67.9108 67.8517C67.3347 67.8517 66.8455 68.0257 66.4433 68.3735C66.052 68.7105 65.7802 69.1671 65.628 69.7432H70.1448ZM77.7197 63.2045H81.4538C82.6604 63.2045 83.7149 63.4491 84.6171 63.9383C85.5194 64.4275 86.2097 65.1178 86.688 66.0092C87.1772 66.8897 87.4218 67.9007 87.4218 69.0421C87.4218 70.1835 87.1772 71.1999 86.688 72.0913C86.2097 72.9718 85.5194 73.6567 84.6171 74.1459C83.7149 74.635 82.6604 74.8796 81.4538 74.8796H77.7197V63.2045ZM81.4212 73.1349C82.7256 73.1349 83.742 72.7762 84.4704 72.0587C85.2096 71.3304 85.5792 70.3248 85.5792 69.0421C85.5792 67.7702 85.2096 66.7701 84.4704 66.0418C83.742 65.3134 82.7256 64.9493 81.4212 64.9493H79.546V73.1349H81.4212ZM92.7703 75.1405C91.955 75.1405 91.2212 74.9503 90.569 74.5698C89.9276 74.1894 89.4221 73.6676 89.0525 73.0044C88.6938 72.3305 88.5144 71.5749 88.5144 70.7379C88.5144 69.9443 88.6883 69.2106 89.0362 68.5366C89.3949 67.8517 89.8895 67.3082 90.52 66.906C91.1505 66.5038 91.868 66.3027 92.6724 66.3027C93.5095 66.3027 94.2324 66.4875 94.8411 66.8571C95.4608 67.2267 95.9282 67.7322 96.2435 68.3735C96.5696 69.0149 96.7326 69.7378 96.7326 70.5422C96.7326 70.6944 96.7163 70.8847 96.6837 71.1129H90.3081C90.3733 71.8848 90.6451 72.4827 91.1234 72.9066C91.6125 73.3197 92.1778 73.5262 92.8192 73.5262C93.3301 73.5262 93.7704 73.4121 94.14 73.1838C94.5205 72.9447 94.8248 72.624 95.0531 72.2218L96.5696 72.9392C96.1782 73.6241 95.6673 74.1622 95.0368 74.5535C94.4063 74.9449 93.6508 75.1405 92.7703 75.1405ZM94.9064 69.7432C94.8846 69.4497 94.7922 69.1617 94.6292 68.879C94.4661 68.5855 94.2161 68.3409 93.8791 68.1452C93.553 67.9496 93.1507 67.8517 92.6724 67.8517C92.0963 67.8517 91.6071 68.0257 91.2049 68.3735C90.8136 68.7105 90.5418 69.1671 90.3896 69.7432H94.9064ZM97.2774 66.5636H99.283L101.582 72.5642H101.647L103.995 66.5636H105.952L102.495 74.8796H100.702L97.2774 66.5636ZM110.669 75.1405C109.853 75.1405 109.12 74.9503 108.467 74.5698C107.826 74.1894 107.321 73.6676 106.951 73.0044C106.592 72.3305 106.413 71.5749 106.413 70.7379C106.413 69.9443 106.587 69.2106 106.935 68.5366C107.293 67.8517 107.788 67.3082 108.418 66.906C109.049 66.5038 109.766 66.3027 110.571 66.3027C111.408 66.3027 112.131 66.4875 112.74 66.8571C113.359 67.2267 113.827 67.7322 114.142 68.3735C114.468 69.0149 114.631 69.7378 114.631 70.5422C114.631 70.6944 114.615 70.8847 114.582 71.1129H108.206C108.272 71.8848 108.543 72.4827 109.022 72.9066C109.511 73.3197 110.076 73.5262 110.718 73.5262C111.229 73.5262 111.669 73.4121 112.038 73.1838C112.419 72.9447 112.723 72.624 112.952 72.2218L114.468 72.9392C114.077 73.6241 113.566 74.1622 112.935 74.5535C112.305 74.9449 111.549 75.1405 110.669 75.1405ZM112.805 69.7432C112.783 69.4497 112.691 69.1617 112.528 68.879C112.365 68.5855 112.114 68.3409 111.777 68.1452C111.451 67.9496 111.049 67.8517 110.571 67.8517C109.995 67.8517 109.506 68.0257 109.103 68.3735C108.712 68.7105 108.44 69.1671 108.288 69.7432H112.805ZM116.264 63.2045H118.058V74.8796H116.264V63.2045ZM123.983 75.1405C123.146 75.1405 122.396 74.9503 121.733 74.5698C121.07 74.1785 120.554 73.6458 120.184 72.9718C119.814 72.2979 119.63 71.5478 119.63 70.7216C119.63 69.8954 119.814 69.1454 120.184 68.4714C120.554 67.7974 121.07 67.2702 121.733 66.8897C122.396 66.4983 123.146 66.3027 123.983 66.3027C124.82 66.3027 125.57 66.4983 126.234 66.8897C126.897 67.281 127.413 67.8137 127.783 68.4877C128.152 69.1617 128.337 69.9063 128.337 70.7216C128.337 71.5478 128.152 72.2979 127.783 72.9718C127.413 73.6458 126.897 74.1785 126.234 74.5698C125.57 74.9503 124.82 75.1405 123.983 75.1405ZM123.983 73.4936C124.44 73.4936 124.864 73.3849 125.255 73.1675C125.647 72.9392 125.956 72.6185 126.185 72.2054C126.424 71.7815 126.543 71.2869 126.543 70.7216C126.543 70.1563 126.424 69.6671 126.185 69.2541C125.956 68.841 125.647 68.5257 125.255 68.3083C124.864 68.08 124.44 67.9659 123.983 67.9659C123.527 67.9659 123.103 68.08 122.711 68.3083C122.32 68.5257 122.005 68.841 121.766 69.2541C121.537 69.6671 121.423 70.1563 121.423 70.7216C121.423 71.2869 121.537 71.7815 121.766 72.2054C122.005 72.6185 122.32 72.9392 122.711 73.1675C123.103 73.3849 123.527 73.4936 123.983 73.4936ZM129.846 66.5636H131.558V67.6561H131.64C131.879 67.2756 132.232 66.9549 132.7 66.694C133.167 66.4331 133.694 66.3027 134.281 66.3027C135.031 66.3027 135.711 66.4929 136.319 66.8734C136.928 67.2539 137.407 67.7811 137.754 68.4551C138.113 69.1182 138.293 69.8737 138.293 70.7216C138.293 71.5695 138.113 72.3305 137.754 73.0044C137.407 73.6676 136.928 74.1894 136.319 74.5698C135.711 74.9503 135.031 75.1405 134.281 75.1405C133.694 75.1405 133.167 75.0101 132.7 74.7492C132.232 74.4883 131.879 74.173 131.64 73.8034H131.558L131.64 74.9612V78.4017H129.846V66.5636ZM134.02 73.4936C134.455 73.4936 134.863 73.3795 135.243 73.1512C135.624 72.9229 135.928 72.5968 136.156 72.1728C136.385 71.7489 136.499 71.2651 136.499 70.7216C136.499 70.1781 136.385 69.6998 136.156 69.2867C135.928 68.8627 135.624 68.5366 135.243 68.3083C134.863 68.08 134.455 67.9659 134.02 67.9659C133.586 67.9659 133.178 68.08 132.797 68.3083C132.428 68.5366 132.129 68.8627 131.901 69.2867C131.672 69.6998 131.558 70.1781 131.558 70.7216C131.558 71.2651 131.672 71.7489 131.901 72.1728C132.129 72.5968 132.428 72.9229 132.797 73.1512C133.178 73.3795 133.586 73.4936 134.02 73.4936ZM143.727 75.1405C142.911 75.1405 142.178 74.9503 141.525 74.5698C140.884 74.1894 140.378 73.6676 140.009 73.0044C139.65 72.3305 139.471 71.5749 139.471 70.7379C139.471 69.9443 139.645 69.2106 139.993 68.5366C140.351 67.8517 140.846 67.3082 141.476 66.906C142.107 66.5038 142.824 66.3027 143.629 66.3027C144.466 66.3027 145.189 66.4875 145.797 66.8571C146.417 67.2267 146.885 67.7322 147.2 68.3735C147.526 69.0149 147.689 69.7378 147.689 70.5422C147.689 70.6944 147.673 70.8847 147.64 71.1129H141.264C141.33 71.8848 141.601 72.4827 142.08 72.9066C142.569 73.3197 143.134 73.5262 143.776 73.5262C144.286 73.5262 144.727 73.4121 145.096 73.1838C145.477 72.9447 145.781 72.624 146.009 72.2218L147.526 72.9392C147.135 73.6241 146.624 74.1622 145.993 74.5535C145.363 74.9449 144.607 75.1405 143.727 75.1405ZM145.863 69.7432C145.841 69.4497 145.749 69.1617 145.586 68.879C145.422 68.5855 145.172 68.3409 144.835 68.1452C144.509 67.9496 144.107 67.8517 143.629 67.8517C143.053 67.8517 142.563 68.0257 142.161 68.3735C141.77 68.7105 141.498 69.1671 141.346 69.7432H145.863ZM149.322 66.5636H151.035V67.7865H151.116C151.301 67.3626 151.622 67.0147 152.078 66.7429C152.535 66.4603 153.018 66.319 153.529 66.319C153.932 66.319 154.269 66.3733 154.54 66.482V68.3409C154.062 68.167 153.633 68.08 153.252 68.08C152.839 68.08 152.469 68.1887 152.143 68.4061C151.828 68.6236 151.578 68.9171 151.393 69.2867C151.208 69.6454 151.116 70.0422 151.116 70.477V74.8796H149.322V66.5636ZM162.912 75.1405C161.944 75.1405 161.075 74.8579 160.303 74.2926C159.531 73.7273 158.998 72.9338 158.705 71.9119L160.433 71.2108C160.607 71.8522 160.912 72.3794 161.346 72.7925C161.792 73.1947 162.325 73.3958 162.944 73.3958C163.521 73.3958 164.01 73.249 164.412 72.9555C164.814 72.6511 165.015 72.2381 165.015 71.7163C165.015 71.238 164.836 70.8466 164.477 70.5422C164.129 70.227 163.515 69.9117 162.635 69.5965L161.901 69.3356C161.118 69.0638 160.46 68.6725 159.928 68.1616C159.395 67.6506 159.129 66.9766 159.129 66.1396C159.129 65.5635 159.286 65.0308 159.602 64.5416C159.917 64.0524 160.352 63.6665 160.906 63.3839C161.471 63.0904 162.107 62.9436 162.814 62.9436C163.836 62.9436 164.651 63.1936 165.26 63.6937C165.869 64.1829 166.276 64.7373 166.483 65.3569L164.836 66.0581C164.716 65.6885 164.488 65.3624 164.151 65.0797C163.814 64.7971 163.379 64.6558 162.847 64.6558C162.314 64.6558 161.863 64.7916 161.493 65.0634C161.134 65.3352 160.955 65.683 160.955 66.107C160.955 66.5092 161.118 66.8408 161.444 67.1017C161.77 67.3626 162.281 67.6126 162.977 67.8517L163.711 68.0963C164.711 68.4442 165.483 68.9008 166.026 69.466C166.581 70.0204 166.858 70.7651 166.858 71.7C166.858 72.4609 166.662 73.1023 166.271 73.6241C165.88 74.135 165.379 74.5155 164.771 74.7655C164.173 75.0155 163.553 75.1405 162.912 75.1405ZM171.648 75.0101C171.278 75.0101 170.93 74.9503 170.604 74.8307C170.278 74.7111 170.012 74.5535 169.805 74.3578C169.338 73.8904 169.104 73.2545 169.104 72.45V68.1452H167.653V66.5636H169.104V64.2155H170.898V66.5636H172.92V68.1452H170.898V72.0587C170.898 72.5044 170.985 72.8196 171.159 73.0044C171.322 73.2219 171.604 73.3306 172.007 73.3306C172.191 73.3306 172.354 73.3088 172.496 73.2653C172.637 73.211 172.789 73.1295 172.952 73.0208V74.7655C172.594 74.9286 172.159 75.0101 171.648 75.0101ZM177.658 75.1405C176.647 75.1405 175.876 74.8416 175.343 74.2437C174.821 73.6349 174.56 72.7925 174.56 71.7163V66.5636H176.354V71.4717C176.354 72.1457 176.511 72.6511 176.827 72.9881C177.153 73.3251 177.577 73.4936 178.099 73.4936C178.523 73.4936 178.898 73.3849 179.224 73.1675C179.55 72.9392 179.8 72.6403 179.974 72.2707C180.148 71.9011 180.235 71.5043 180.235 71.0803V66.5636H182.028V74.8796H180.333V73.8034H180.235C180.006 74.1948 179.653 74.5155 179.175 74.7655C178.696 75.0155 178.191 75.1405 177.658 75.1405ZM187.591 75.1405C186.841 75.1405 186.162 74.9503 185.553 74.5698C184.944 74.1894 184.46 73.6676 184.102 73.0044C183.754 72.3305 183.58 71.5695 183.58 70.7216C183.58 69.8737 183.754 69.1182 184.102 68.4551C184.46 67.7811 184.944 67.2539 185.553 66.8734C186.162 66.4929 186.841 66.3027 187.591 66.3027C188.178 66.3027 188.705 66.4331 189.173 66.694C189.64 66.9549 189.994 67.2756 190.233 67.6561H190.314L190.233 66.482V63.2045H192.026V74.8796H190.314V73.8034H190.233C189.994 74.173 189.64 74.4883 189.173 74.7492C188.705 75.0101 188.178 75.1405 187.591 75.1405ZM187.852 73.4936C188.287 73.4936 188.689 73.3795 189.059 73.1512C189.439 72.9229 189.744 72.5968 189.972 72.1728C190.2 71.7489 190.314 71.2651 190.314 70.7216C190.314 70.1781 190.2 69.6998 189.972 69.2867C189.744 68.8627 189.439 68.5366 189.059 68.3083C188.689 68.08 188.287 67.9659 187.852 67.9659C187.417 67.9659 187.01 68.08 186.629 68.3083C186.249 68.5366 185.944 68.8627 185.716 69.2867C185.488 69.6998 185.374 70.1781 185.374 70.7216C185.374 71.2651 185.488 71.7489 185.716 72.1728C185.944 72.5968 186.249 72.9229 186.629 73.1512C187.01 73.3795 187.417 73.4936 187.852 73.4936ZM197.836 75.1405C197.021 75.1405 196.287 74.9503 195.635 74.5698C194.993 74.1894 194.488 73.6676 194.118 73.0044C193.759 72.3305 193.58 71.5749 193.58 70.7379C193.58 69.9443 193.754 69.2106 194.102 68.5366C194.461 67.8517 194.955 67.3082 195.586 66.906C196.216 66.5038 196.934 66.3027 197.738 66.3027C198.575 66.3027 199.298 66.4875 199.907 66.8571C200.526 67.2267 200.994 67.7322 201.309 68.3735C201.635 69.0149 201.798 69.7378 201.798 70.5422C201.798 70.6944 201.782 70.8847 201.749 71.1129H195.374C195.439 71.8848 195.711 72.4827 196.189 72.9066C196.678 73.3197 197.243 73.5262 197.885 73.5262C198.396 73.5262 198.836 73.4121 199.206 73.1838C199.586 72.9447 199.89 72.624 200.119 72.2218L201.635 72.9392C201.244 73.6241 200.733 74.1622 200.102 74.5535C199.472 74.9449 198.716 75.1405 197.836 75.1405ZM199.972 69.7432C199.95 69.4497 199.858 69.1617 199.695 68.879C199.532 68.5855 199.282 68.3409 198.945 68.1452C198.619 67.9496 198.216 67.8517 197.738 67.8517C197.162 67.8517 196.673 68.0257 196.271 68.3735C195.879 68.7105 195.607 69.1671 195.455 69.7432H199.972ZM203.432 66.5636H205.144V67.6561H205.225C205.464 67.2647 205.818 66.944 206.285 66.694C206.764 66.4331 207.269 66.3027 207.802 66.3027C208.813 66.3027 209.579 66.6016 210.101 67.1995C210.633 67.7865 210.9 68.5909 210.9 69.6128V74.8796H209.106V69.8574C209.106 69.2051 208.943 68.7268 208.617 68.4225C208.302 68.1181 207.861 67.9659 207.296 67.9659C206.894 67.9659 206.535 68.08 206.22 68.3083C205.905 68.5257 205.66 68.8192 205.486 69.1888C205.312 69.5584 205.225 69.9552 205.225 70.3792V74.8796H203.432V66.5636ZM215.916 75.0101C215.547 75.0101 215.199 74.9503 214.873 74.8307C214.547 74.7111 214.28 74.5535 214.074 74.3578C213.606 73.8904 213.372 73.2545 213.372 72.45V68.1452H211.921V66.5636H213.372V64.2155H215.166V66.5636H217.188V68.1452H215.166V72.0587C215.166 72.5044 215.253 72.8196 215.427 73.0044C215.59 73.2219 215.873 73.3306 216.275 73.3306C216.46 73.3306 216.623 73.3088 216.764 73.2653C216.905 73.211 217.058 73.1295 217.221 73.0208V74.7655C216.862 74.9286 216.427 75.0101 215.916 75.0101ZM228.202 75.1405C227.071 75.1405 226.039 74.8742 225.104 74.3415C224.169 73.8089 223.435 73.0751 222.902 72.1402C222.37 71.2053 222.103 70.1726 222.103 69.0421C222.103 67.9115 222.37 66.8788 222.902 65.9439C223.435 65.0091 224.169 64.2753 225.104 63.7426C226.039 63.21 227.071 62.9436 228.202 62.9436C229.082 62.9436 229.881 63.1067 230.599 63.4328C231.327 63.7589 231.969 64.2318 232.523 64.8514L231.219 66.107C230.816 65.6287 230.371 65.2754 229.881 65.0471C229.392 64.8079 228.832 64.6884 228.202 64.6884C227.419 64.6884 226.702 64.8677 226.05 65.2265C225.408 65.5852 224.897 66.0961 224.517 66.7592C224.136 67.4115 223.946 68.1724 223.946 69.0421C223.946 69.9117 224.136 70.6781 224.517 71.3412C224.897 71.9935 225.408 72.499 226.05 72.8577C226.702 73.2164 227.419 73.3958 228.202 73.3958C229.506 73.3958 230.615 72.8523 231.528 71.7652L232.849 73.0371C232.284 73.7002 231.604 74.2165 230.811 74.5861C230.017 74.9557 229.148 75.1405 228.202 75.1405ZM234.435 63.2045H236.229V74.8796H234.435V63.2045ZM241.37 75.1405C240.359 75.1405 239.587 74.8416 239.054 74.2437C238.532 73.6349 238.272 72.7925 238.272 71.7163V66.5636H240.065V71.4717C240.065 72.1457 240.223 72.6511 240.538 72.9881C240.864 73.3251 241.288 73.4936 241.81 73.4936C242.234 73.4936 242.609 73.3849 242.935 73.1675C243.261 72.9392 243.511 72.6403 243.685 72.2707C243.859 71.9011 243.946 71.5043 243.946 71.0803V66.5636H245.74V74.8796H244.044V73.8034H243.946C243.718 74.1948 243.364 74.5155 242.886 74.7655C242.408 75.0155 241.902 75.1405 241.37 75.1405ZM252.263 75.1405C251.676 75.1405 251.148 75.0101 250.681 74.7492C250.213 74.4883 249.86 74.173 249.621 73.8034H249.54V74.8796H247.827V63.2045H249.621V66.482L249.54 67.6561H249.621C249.86 67.2756 250.213 66.9549 250.681 66.694C251.148 66.4331 251.676 66.3027 252.263 66.3027C253.013 66.3027 253.692 66.4929 254.301 66.8734C254.91 67.2539 255.388 67.7811 255.736 68.4551C256.095 69.1182 256.274 69.8737 256.274 70.7216C256.274 71.5695 256.095 72.3305 255.736 73.0044C255.388 73.6676 254.91 74.1894 254.301 74.5698C253.692 74.9503 253.013 75.1405 252.263 75.1405ZM252.002 73.4936C252.437 73.4936 252.844 73.3795 253.225 73.1512C253.605 72.9229 253.91 72.5968 254.138 72.1728C254.366 71.7489 254.48 71.2651 254.48 70.7216C254.48 70.1781 254.366 69.6998 254.138 69.2867C253.91 68.8627 253.605 68.5366 253.225 68.3083C252.844 68.08 252.437 67.9659 252.002 67.9659C251.567 67.9659 251.159 68.08 250.779 68.3083C250.409 68.5366 250.11 68.8627 249.882 69.2867C249.654 69.6998 249.54 70.1781 249.54 70.7216C249.54 71.2651 249.654 71.7489 249.882 72.1728C250.11 72.5968 250.409 72.9229 250.779 73.1512C251.159 73.3795 251.567 73.4936 252.002 73.4936ZM260.86 75.1405C259.904 75.1405 259.121 74.934 258.512 74.5209C257.904 74.0969 257.474 73.5589 257.224 72.9066L258.822 72.2054C259.018 72.6403 259.29 72.9718 259.638 73.2001C259.996 73.4284 260.404 73.5425 260.86 73.5425C261.306 73.5425 261.681 73.4664 261.986 73.3143C262.29 73.1512 262.442 72.912 262.442 72.5968C262.442 72.2924 262.312 72.0533 262.051 71.8793C261.79 71.7054 261.388 71.5532 260.844 71.4228L259.849 71.1782C259.186 71.0151 258.637 70.727 258.203 70.314C257.768 69.9009 257.55 69.3791 257.55 68.7486C257.55 68.2594 257.692 67.83 257.974 67.4604C258.268 67.0908 258.659 66.8082 259.148 66.6125C259.638 66.4059 260.17 66.3027 260.746 66.3027C261.518 66.3027 262.198 66.4603 262.785 66.7755C263.372 67.0799 263.796 67.5256 264.056 68.1126L262.491 68.7975C262.176 68.1561 261.6 67.8354 260.763 67.8354C260.36 67.8354 260.023 67.917 259.752 68.08C259.48 68.2431 259.344 68.4551 259.344 68.716C259.344 68.966 259.447 69.1725 259.654 69.3356C259.86 69.4878 260.165 69.6182 260.567 69.7269L261.79 70.0367C262.605 70.2433 263.219 70.5585 263.632 70.9825C264.056 71.3956 264.268 71.9065 264.268 72.5153C264.268 73.0371 264.116 73.4991 263.812 73.9013C263.518 74.2926 263.111 74.597 262.589 74.8144C262.067 75.0318 261.491 75.1405 260.86 75.1405Z" fill="white"/>
<rect width="23.3115" height="7.81905" rx="3.90953" transform="matrix(-0.866025 0.5 0.5 0.866025 174.504 27.7881)" fill="#FBBC04"/>
<rect width="23.3115" height="7.81905" rx="3.90953" transform="matrix(0.866025 -0.5 -0.5 -0.866025 131.371 38.4272)" fill="#EA4335"/>
<rect x="131.041" y="27.7871" width="23.3115" height="7.81905" rx="3.90953" transform="rotate(30 131.041 27.7871)" fill="#4285F4"/>
<rect x="174.504" y="38.4272" width="23.3115" height="7.81905" rx="3.64648" transform="rotate(-150 174.504 38.4272)" fill="#0F9D58"/>
<path d="M17.7715 88.0184H18.8995L21.0235 94.2464L21.3115 95.0984H21.3595L21.6595 94.2464L23.8795 88.0184H25.0075L21.8635 96.6104H20.8075L17.7715 88.0184ZM26.2837 89.3624C26.0837 89.3624 25.9117 89.2904 25.7677 89.1464C25.6237 89.0024 25.5517 88.8304 25.5517 88.6304C25.5517 88.4304 25.6237 88.2624 25.7677 88.1264C25.9117 87.9824 26.0837 87.9104 26.2837 87.9104C26.4837 87.9104 26.6557 87.9824 26.7997 88.1264C26.9437 88.2624 27.0157 88.4304 27.0157 88.6304C27.0157 88.8304 26.9437 89.0024 26.7997 89.1464C26.6637 89.2904 26.4917 89.3624 26.2837 89.3624ZM25.7797 90.4904H26.7877V96.6104H25.7797V90.4904ZM30.5268 96.8024C29.8708 96.8024 29.3228 96.6504 28.8828 96.3464C28.4428 96.0344 28.1308 95.6384 27.9468 95.1584L28.8588 94.7504C29.0108 95.1184 29.2348 95.4024 29.5308 95.6024C29.8348 95.8024 30.1668 95.9024 30.5268 95.9024C30.9108 95.9024 31.2388 95.8264 31.5108 95.6744C31.7828 95.5144 31.9188 95.2904 31.9188 95.0024C31.9188 94.7464 31.8108 94.5424 31.5948 94.3904C31.3788 94.2304 31.0388 94.0944 30.5748 93.9824L29.8308 93.7904C29.3428 93.6704 28.9428 93.4664 28.6308 93.1784C28.3188 92.8904 28.1628 92.5184 28.1628 92.0624C28.1628 91.7104 28.2668 91.4024 28.4748 91.1384C28.6908 90.8664 28.9748 90.6584 29.3268 90.5144C29.6788 90.3704 30.0588 90.2984 30.4668 90.2984C31.0028 90.2984 31.4788 90.4144 31.8948 90.6464C32.3188 90.8784 32.6188 91.2024 32.7948 91.6184L31.9068 92.0264C31.6348 91.4824 31.1508 91.2104 30.4548 91.2104C30.1188 91.2104 29.8228 91.2904 29.5668 91.4504C29.3188 91.6024 29.1948 91.7984 29.1948 92.0384C29.1948 92.2624 29.2828 92.4464 29.4588 92.5904C29.6348 92.7264 29.8988 92.8384 30.2508 92.9264L31.1388 93.1544C31.7388 93.3064 32.1908 93.5344 32.4948 93.8384C32.7988 94.1344 32.9508 94.4984 32.9508 94.9304C32.9508 95.3064 32.8428 95.6384 32.6268 95.9264C32.4108 96.2064 32.1188 96.4224 31.7508 96.5744C31.3828 96.7264 30.9748 96.8024 30.5268 96.8024ZM33.3906 90.4904H34.4826L36.3786 95.4104H36.4026L38.3226 90.4904H39.3906L36.8946 96.6104H35.8626L33.3906 90.4904ZM42.7749 96.8024C42.1909 96.8024 41.6669 96.6624 41.2029 96.3824C40.7389 96.1024 40.3749 95.7184 40.1109 95.2304C39.8549 94.7344 39.7269 94.1784 39.7269 93.5624C39.7269 92.9704 39.8469 92.4264 40.0869 91.9304C40.3349 91.4344 40.6829 91.0384 41.1309 90.7424C41.5789 90.4464 42.0989 90.2984 42.6909 90.2984C43.2909 90.2984 43.8109 90.4344 44.2509 90.7064C44.6909 90.9704 45.0269 91.3384 45.2589 91.8104C45.4989 92.2824 45.6189 92.8224 45.6189 93.4304C45.6189 93.5504 45.6069 93.6544 45.5829 93.7424H40.7469C40.7709 94.2064 40.8829 94.5984 41.0829 94.9184C41.2829 95.2384 41.5349 95.4784 41.8389 95.6384C42.1509 95.7984 42.4749 95.8784 42.8109 95.8784C43.5949 95.8784 44.1989 95.5104 44.6229 94.7744L45.4869 95.1944C45.2229 95.6904 44.8629 96.0824 44.4069 96.3704C43.9589 96.6584 43.4149 96.8024 42.7749 96.8024ZM44.5389 92.9024C44.5229 92.6464 44.4509 92.3904 44.3229 92.1344C44.1949 91.8784 43.9909 91.6624 43.7109 91.4864C43.4389 91.3104 43.0949 91.2224 42.6789 91.2224C42.1989 91.2224 41.7909 91.3784 41.4549 91.6904C41.1269 91.9944 40.9109 92.3984 40.8069 92.9024H44.5389ZM49.0072 96.8024C48.3512 96.8024 47.8032 96.6504 47.3632 96.3464C46.9232 96.0344 46.6112 95.6384 46.4272 95.1584L47.3392 94.7504C47.4912 95.1184 47.7152 95.4024 48.0112 95.6024C48.3152 95.8024 48.6472 95.9024 49.0072 95.9024C49.3912 95.9024 49.7192 95.8264 49.9912 95.6744C50.2632 95.5144 50.3992 95.2904 50.3992 95.0024C50.3992 94.7464 50.2912 94.5424 50.0752 94.3904C49.8592 94.2304 49.5192 94.0944 49.0552 93.9824L48.3112 93.7904C47.8232 93.6704 47.4232 93.4664 47.1112 93.1784C46.7992 92.8904 46.6432 92.5184 46.6432 92.0624C46.6432 91.7104 46.7472 91.4024 46.9552 91.1384C47.1712 90.8664 47.4552 90.6584 47.8072 90.5144C48.1592 90.3704 48.5392 90.2984 48.9472 90.2984C49.4832 90.2984 49.9592 90.4144 50.3752 90.6464C50.7992 90.8784 51.0992 91.2024 51.2752 91.6184L50.3872 92.0264C50.1152 91.4824 49.6312 91.2104 48.9352 91.2104C48.5992 91.2104 48.3032 91.2904 48.0472 91.4504C47.7992 91.6024 47.6752 91.7984 47.6752 92.0384C47.6752 92.2624 47.7632 92.4464 47.9392 92.5904C48.1152 92.7264 48.3792 92.8384 48.7312 92.9264L49.6192 93.1544C50.2192 93.3064 50.6712 93.5344 50.9752 93.8384C51.2792 94.1344 51.4312 94.4984 51.4312 94.9304C51.4312 95.3064 51.3232 95.6384 51.1072 95.9264C50.8912 96.2064 50.5992 96.4224 50.2312 96.5744C49.8632 96.7264 49.4552 96.8024 49.0072 96.8024ZM51.8711 90.4904H52.9631L54.8591 95.4104H54.8831L56.8031 90.4904H57.8711L55.3751 96.6104H54.3431L51.8711 90.4904ZM60.546 96.8024C60.098 96.8024 59.698 96.7144 59.346 96.5384C58.994 96.3624 58.722 96.1224 58.53 95.8184C58.338 95.5064 58.242 95.1544 58.242 94.7624C58.242 94.1144 58.486 93.6104 58.974 93.2504C59.462 92.8824 60.078 92.6984 60.822 92.6984C61.19 92.6984 61.53 92.7384 61.842 92.8184C62.162 92.8984 62.406 92.9904 62.574 93.0944V92.7224C62.574 92.2664 62.414 91.9024 62.094 91.6304C61.774 91.3504 61.37 91.2104 60.882 91.2104C60.538 91.2104 60.222 91.2864 59.934 91.4384C59.646 91.5824 59.418 91.7864 59.25 92.0504L58.482 91.4744C58.722 91.1064 59.05 90.8184 59.466 90.6104C59.89 90.4024 60.358 90.2984 60.87 90.2984C61.702 90.2984 62.354 90.5184 62.826 90.9584C63.306 91.3904 63.546 91.9824 63.546 92.7344V96.6104H62.574V95.7344H62.526C62.35 96.0304 62.086 96.2824 61.734 96.4904C61.382 96.6984 60.986 96.8024 60.546 96.8024ZM60.642 95.9024C60.986 95.9024 61.306 95.8144 61.602 95.6384C61.898 95.4624 62.134 95.2264 62.31 94.9304C62.486 94.6344 62.574 94.3104 62.574 93.9584C62.382 93.8304 62.146 93.7264 61.866 93.6464C61.586 93.5664 61.29 93.5264 60.978 93.5264C60.418 93.5264 59.994 93.6424 59.706 93.8744C59.426 94.1064 59.286 94.4064 59.286 94.7744C59.286 95.1104 59.414 95.3824 59.67 95.5904C59.926 95.7984 60.25 95.9024 60.642 95.9024ZM64.965 90.4904H65.937V91.4744H65.985C66.105 91.1384 66.337 90.8624 66.681 90.6464C67.025 90.4224 67.385 90.3104 67.761 90.3104C68.041 90.3104 68.281 90.3504 68.481 90.4304V91.5344C68.225 91.4064 67.937 91.3424 67.617 91.3424C67.321 91.3424 67.049 91.4264 66.801 91.5944C66.553 91.7624 66.353 91.9904 66.201 92.2784C66.057 92.5584 65.985 92.8624 65.985 93.1904V96.6104H64.965V90.4904ZM71.1866 96.8024C70.7386 96.8024 70.3386 96.7144 69.9866 96.5384C69.6346 96.3624 69.3626 96.1224 69.1706 95.8184C68.9786 95.5064 68.8826 95.1544 68.8826 94.7624C68.8826 94.1144 69.1266 93.6104 69.6146 93.2504C70.1026 92.8824 70.7186 92.6984 71.4626 92.6984C71.8306 92.6984 72.1706 92.7384 72.4826 92.8184C72.8026 92.8984 73.0466 92.9904 73.2146 93.0944V92.7224C73.2146 92.2664 73.0546 91.9024 72.7346 91.6304C72.4146 91.3504 72.0106 91.2104 71.5226 91.2104C71.1786 91.2104 70.8626 91.2864 70.5746 91.4384C70.2866 91.5824 70.0586 91.7864 69.8906 92.0504L69.1226 91.4744C69.3626 91.1064 69.6906 90.8184 70.1066 90.6104C70.5306 90.4024 70.9986 90.2984 71.5106 90.2984C72.3426 90.2984 72.9946 90.5184 73.4666 90.9584C73.9466 91.3904 74.1866 91.9824 74.1866 92.7344V96.6104H73.2146V95.7344H73.1666C72.9906 96.0304 72.7266 96.2824 72.3746 96.4904C72.0226 96.6984 71.6266 96.8024 71.1866 96.8024ZM71.2826 95.9024C71.6266 95.9024 71.9466 95.8144 72.2426 95.6384C72.5386 95.4624 72.7746 95.2264 72.9506 94.9304C73.1266 94.6344 73.2146 94.3104 73.2146 93.9584C73.0226 93.8304 72.7866 93.7264 72.5066 93.6464C72.2266 93.5664 71.9306 93.5264 71.6186 93.5264C71.0586 93.5264 70.6346 93.6424 70.3466 93.8744C70.0666 94.1064 69.9266 94.4064 69.9266 94.7744C69.9266 95.1104 70.0546 95.3824 70.3106 95.5904C70.5666 95.7984 70.8906 95.9024 71.2826 95.9024ZM77.3604 96.2264L74.8284 90.4904H75.9324L77.8524 95.0384H77.8764L79.7244 90.4904H80.8284L77.0484 99.2024H75.9924L77.3604 96.2264ZM83.3272 96.8024C82.8792 96.8024 82.4792 96.7144 82.1272 96.5384C81.7752 96.3624 81.5032 96.1224 81.3112 95.8184C81.1192 95.5064 81.0232 95.1544 81.0232 94.7624C81.0232 94.1144 81.2672 93.6104 81.7552 93.2504C82.2432 92.8824 82.8592 92.6984 83.6032 92.6984C83.9712 92.6984 84.3112 92.7384 84.6232 92.8184C84.9432 92.8984 85.1872 92.9904 85.3552 93.0944V92.7224C85.3552 92.2664 85.1952 91.9024 84.8752 91.6304C84.5552 91.3504 84.1512 91.2104 83.6632 91.2104C83.3192 91.2104 83.0032 91.2864 82.7152 91.4384C82.4272 91.5824 82.1992 91.7864 82.0312 92.0504L81.2632 91.4744C81.5032 91.1064 81.8312 90.8184 82.2472 90.6104C82.6712 90.4024 83.1392 90.2984 83.6512 90.2984C84.4832 90.2984 85.1352 90.5184 85.6072 90.9584C86.0872 91.3904 86.3272 91.9824 86.3272 92.7344V96.6104H85.3552V95.7344H85.3072C85.1312 96.0304 84.8672 96.2824 84.5152 96.4904C84.1632 96.6984 83.7672 96.8024 83.3272 96.8024ZM83.4232 95.9024C83.7672 95.9024 84.0872 95.8144 84.3832 95.6384C84.6792 95.4624 84.9152 95.2264 85.0912 94.9304C85.2672 94.6344 85.3552 94.3104 85.3552 93.9584C85.1632 93.8304 84.9272 93.7264 84.6472 93.6464C84.3672 93.5664 84.0712 93.5264 83.7592 93.5264C83.1992 93.5264 82.7752 93.6424 82.4872 93.8744C82.2072 94.1064 82.0672 94.4064 82.0672 94.7744C82.0672 95.1104 82.1952 95.3824 82.4512 95.5904C82.7072 95.7984 83.0312 95.9024 83.4232 95.9024ZM90.7393 88.0184H91.9873L96.2953 94.8584H96.3433L96.2953 93.2024V88.0184H97.3153V96.6104H96.2593L91.7473 89.4464H91.6993L91.7473 91.1024V96.6104H90.7393V88.0184ZM100.812 96.8024C100.364 96.8024 99.9636 96.7144 99.6116 96.5384C99.2596 96.3624 98.9876 96.1224 98.7956 95.8184C98.6036 95.5064 98.5076 95.1544 98.5076 94.7624C98.5076 94.1144 98.7516 93.6104 99.2396 93.2504C99.7276 92.8824 100.344 92.6984 101.088 92.6984C101.456 92.6984 101.796 92.7384 102.108 92.8184C102.428 92.8984 102.672 92.9904 102.84 93.0944V92.7224C102.84 92.2664 102.68 91.9024 102.36 91.6304C102.04 91.3504 101.636 91.2104 101.148 91.2104C100.804 91.2104 100.488 91.2864 100.2 91.4384C99.9116 91.5824 99.6836 91.7864 99.5156 92.0504L98.7476 91.4744C98.9876 91.1064 99.3156 90.8184 99.7316 90.6104C100.156 90.4024 100.624 90.2984 101.136 90.2984C101.968 90.2984 102.62 90.5184 103.092 90.9584C103.572 91.3904 103.812 91.9824 103.812 92.7344V96.6104H102.84V95.7344H102.792C102.616 96.0304 102.352 96.2824 102 96.4904C101.648 96.6984 101.252 96.8024 100.812 96.8024ZM100.908 95.9024C101.252 95.9024 101.572 95.8144 101.868 95.6384C102.164 95.4624 102.4 95.2264 102.576 94.9304C102.752 94.6344 102.84 94.3104 102.84 93.9584C102.648 93.8304 102.412 93.7264 102.132 93.6464C101.852 93.5664 101.556 93.5264 101.244 93.5264C100.684 93.5264 100.26 93.6424 99.9716 93.8744C99.6916 94.1064 99.5516 94.4064 99.5516 94.7744C99.5516 95.1104 99.6796 95.3824 99.9356 95.5904C100.192 95.7984 100.516 95.9024 100.908 95.9024ZM107.465 96.7064C107.217 96.7064 106.985 96.6664 106.769 96.5864C106.561 96.5064 106.385 96.3984 106.241 96.2624C106.081 96.1104 105.961 95.9344 105.881 95.7344C105.801 95.5344 105.761 95.2904 105.761 95.0024V91.4144H104.693V90.4904H105.761V88.7624H106.781V90.4904H108.269V91.4144H106.781V94.7504C106.781 95.0864 106.845 95.3344 106.973 95.4944C107.125 95.6704 107.345 95.7584 107.633 95.7584C107.865 95.7584 108.089 95.6904 108.305 95.5544V96.5504C108.185 96.6064 108.061 96.6464 107.933 96.6704C107.813 96.6944 107.657 96.7064 107.465 96.7064ZM110.167 89.3624C109.967 89.3624 109.795 89.2904 109.651 89.1464C109.507 89.0024 109.435 88.8304 109.435 88.6304C109.435 88.4304 109.507 88.2624 109.651 88.1264C109.795 87.9824 109.967 87.9104 110.167 87.9104C110.367 87.9104 110.539 87.9824 110.683 88.1264C110.827 88.2624 110.899 88.4304 110.899 88.6304C110.899 88.8304 110.827 89.0024 110.683 89.1464C110.547 89.2904 110.375 89.3624 110.167 89.3624ZM109.663 90.4904H110.671V96.6104H109.663V90.4904ZM115.035 96.8024C114.435 96.8024 113.895 96.6584 113.415 96.3704C112.935 96.0824 112.559 95.6904 112.287 95.1944C112.023 94.6984 111.891 94.1504 111.891 93.5504C111.891 92.9504 112.023 92.4024 112.287 91.9064C112.559 91.4104 112.935 91.0184 113.415 90.7304C113.895 90.4424 114.435 90.2984 115.035 90.2984C115.635 90.2984 116.175 90.4424 116.655 90.7304C117.135 91.0184 117.507 91.4104 117.771 91.9064C118.043 92.4024 118.179 92.9504 118.179 93.5504C118.179 94.1504 118.043 94.6984 117.771 95.1944C117.507 95.6904 117.135 96.0824 116.655 96.3704C116.175 96.6584 115.635 96.8024 115.035 96.8024ZM115.035 95.8784C115.411 95.8784 115.759 95.7864 116.079 95.6024C116.407 95.4104 116.667 95.1384 116.859 94.7864C117.059 94.4344 117.159 94.0224 117.159 93.5504C117.159 93.0784 117.059 92.6664 116.859 92.3144C116.667 91.9624 116.407 91.6944 116.079 91.5104C115.759 91.3184 115.411 91.2224 115.035 91.2224C114.659 91.2224 114.307 91.3184 113.979 91.5104C113.651 91.6944 113.387 91.9624 113.187 92.3144C112.995 92.6664 112.899 93.0784 112.899 93.5504C112.899 94.0224 112.995 94.4344 113.187 94.7864C113.387 95.1384 113.651 95.4104 113.979 95.6024C114.307 95.7864 114.659 95.8784 115.035 95.8784ZM119.246 90.4904H120.218V91.3904H120.266C120.434 91.0864 120.702 90.8304 121.07 90.6224C121.438 90.4064 121.83 90.2984 122.246 90.2984C122.982 90.2984 123.542 90.5144 123.926 90.9464C124.318 91.3704 124.514 91.9504 124.514 92.6864V96.6104H123.494V92.8424C123.494 92.2744 123.358 91.8624 123.086 91.6064C122.814 91.3504 122.442 91.2224 121.97 91.2224C121.642 91.2224 121.346 91.3144 121.082 91.4984C120.826 91.6824 120.626 91.9264 120.482 92.2304C120.338 92.5264 120.266 92.8384 120.266 93.1664V96.6104H119.246V90.4904ZM127.87 96.8024C127.422 96.8024 127.022 96.7144 126.67 96.5384C126.318 96.3624 126.046 96.1224 125.854 95.8184C125.662 95.5064 125.566 95.1544 125.566 94.7624C125.566 94.1144 125.81 93.6104 126.298 93.2504C126.786 92.8824 127.402 92.6984 128.146 92.6984C128.514 92.6984 128.854 92.7384 129.166 92.8184C129.486 92.8984 129.73 92.9904 129.898 93.0944V92.7224C129.898 92.2664 129.738 91.9024 129.418 91.6304C129.098 91.3504 128.694 91.2104 128.206 91.2104C127.862 91.2104 127.546 91.2864 127.258 91.4384C126.97 91.5824 126.742 91.7864 126.574 92.0504L125.806 91.4744C126.046 91.1064 126.374 90.8184 126.79 90.6104C127.214 90.4024 127.682 90.2984 128.194 90.2984C129.026 90.2984 129.678 90.5184 130.15 90.9584C130.63 91.3904 130.87 91.9824 130.87 92.7344V96.6104H129.898V95.7344H129.85C129.674 96.0304 129.41 96.2824 129.058 96.4904C128.706 96.6984 128.31 96.8024 127.87 96.8024ZM127.966 95.9024C128.31 95.9024 128.63 95.8144 128.926 95.6384C129.222 95.4624 129.458 95.2264 129.634 94.9304C129.81 94.6344 129.898 94.3104 129.898 93.9584C129.706 93.8304 129.47 93.7264 129.19 93.6464C128.91 93.5664 128.614 93.5264 128.302 93.5264C127.742 93.5264 127.318 93.6424 127.03 93.8744C126.75 94.1064 126.61 94.4064 126.61 94.7744C126.61 95.1104 126.738 95.3824 126.994 95.5904C127.25 95.7984 127.574 95.9024 127.966 95.9024ZM132.289 88.0184H133.309V96.6104H132.289V88.0184ZM137.814 88.0184H138.822V96.6104H137.814V88.0184ZM140.539 90.4904H141.511V91.3904H141.559C141.727 91.0864 141.995 90.8304 142.363 90.6224C142.731 90.4064 143.123 90.2984 143.539 90.2984C144.275 90.2984 144.835 90.5144 145.219 90.9464C145.611 91.3704 145.807 91.9504 145.807 92.6864V96.6104H144.787V92.8424C144.787 92.2744 144.651 91.8624 144.379 91.6064C144.107 91.3504 143.735 91.2224 143.263 91.2224C142.935 91.2224 142.639 91.3144 142.375 91.4984C142.119 91.6824 141.919 91.9264 141.775 92.2304C141.631 92.5264 141.559 92.8384 141.559 93.1664V96.6104H140.539V90.4904ZM149.343 96.8024C148.687 96.8024 148.139 96.6504 147.699 96.3464C147.259 96.0344 146.947 95.6384 146.763 95.1584L147.675 94.7504C147.827 95.1184 148.051 95.4024 148.347 95.6024C148.651 95.8024 148.983 95.9024 149.343 95.9024C149.727 95.9024 150.055 95.8264 150.327 95.6744C150.599 95.5144 150.735 95.2904 150.735 95.0024C150.735 94.7464 150.627 94.5424 150.411 94.3904C150.195 94.2304 149.855 94.0944 149.391 93.9824L148.647 93.7904C148.159 93.6704 147.759 93.4664 147.447 93.1784C147.135 92.8904 146.979 92.5184 146.979 92.0624C146.979 91.7104 147.083 91.4024 147.291 91.1384C147.507 90.8664 147.791 90.6584 148.143 90.5144C148.495 90.3704 148.875 90.2984 149.283 90.2984C149.819 90.2984 150.295 90.4144 150.711 90.6464C151.135 90.8784 151.435 91.2024 151.611 91.6184L150.723 92.0264C150.451 91.4824 149.967 91.2104 149.271 91.2104C148.935 91.2104 148.639 91.2904 148.383 91.4504C148.135 91.6024 148.011 91.7984 148.011 92.0384C148.011 92.2624 148.099 92.4464 148.275 92.5904C148.451 92.7264 148.715 92.8384 149.067 92.9264L149.955 93.1544C150.555 93.3064 151.007 93.5344 151.311 93.8384C151.615 94.1344 151.767 94.4984 151.767 94.9304C151.767 95.3064 151.659 95.6384 151.443 95.9264C151.227 96.2064 150.935 96.4224 150.567 96.5744C150.199 96.7264 149.791 96.8024 149.343 96.8024ZM155.172 96.7064C154.924 96.7064 154.692 96.6664 154.476 96.5864C154.268 96.5064 154.092 96.3984 153.948 96.2624C153.788 96.1104 153.668 95.9344 153.588 95.7344C153.508 95.5344 153.468 95.2904 153.468 95.0024V91.4144H152.4V90.4904H153.468V88.7624H154.488V90.4904H155.976V91.4144H154.488V94.7504C154.488 95.0864 154.552 95.3344 154.68 95.4944C154.832 95.6704 155.052 95.7584 155.34 95.7584C155.572 95.7584 155.796 95.6904 156.012 95.5544V96.5504C155.892 96.6064 155.768 96.6464 155.64 96.6704C155.52 96.6944 155.364 96.7064 155.172 96.7064ZM157.874 89.3624C157.674 89.3624 157.502 89.2904 157.358 89.1464C157.214 89.0024 157.142 88.8304 157.142 88.6304C157.142 88.4304 157.214 88.2624 157.358 88.1264C157.502 87.9824 157.674 87.9104 157.874 87.9104C158.074 87.9104 158.246 87.9824 158.39 88.1264C158.534 88.2624 158.606 88.4304 158.606 88.6304C158.606 88.8304 158.534 89.0024 158.39 89.1464C158.254 89.2904 158.082 89.3624 157.874 89.3624ZM157.37 90.4904H158.378V96.6104H157.37V90.4904ZM162.274 96.7064C162.026 96.7064 161.794 96.6664 161.578 96.5864C161.37 96.5064 161.194 96.3984 161.05 96.2624C160.89 96.1104 160.77 95.9344 160.69 95.7344C160.61 95.5344 160.57 95.2904 160.57 95.0024V91.4144H159.502V90.4904H160.57V88.7624H161.59V90.4904H163.078V91.4144H161.59V94.7504C161.59 95.0864 161.654 95.3344 161.782 95.4944C161.934 95.6704 162.154 95.7584 162.442 95.7584C162.674 95.7584 162.898 95.6904 163.114 95.5544V96.5504C162.994 96.6064 162.87 96.6464 162.742 96.6704C162.622 96.6944 162.466 96.7064 162.274 96.7064ZM166.537 96.8024C165.801 96.8024 165.237 96.5864 164.845 96.1544C164.461 95.7224 164.269 95.1184 164.269 94.3424V90.4904H165.289V94.1864C165.289 94.7704 165.421 95.1984 165.685 95.4704C165.949 95.7424 166.305 95.8784 166.753 95.8784C167.097 95.8784 167.401 95.7864 167.665 95.6024C167.937 95.4184 168.145 95.1784 168.289 94.8824C168.441 94.5864 168.517 94.2744 168.517 93.9464V90.4904H169.537V96.6104H168.565V95.7224H168.517C168.349 96.0264 168.081 96.2824 167.713 96.4904C167.345 96.6984 166.953 96.8024 166.537 96.8024ZM173.454 96.7064C173.206 96.7064 172.974 96.6664 172.758 96.5864C172.55 96.5064 172.374 96.3984 172.23 96.2624C172.07 96.1104 171.95 95.9344 171.87 95.7344C171.79 95.5344 171.75 95.2904 171.75 95.0024V91.4144H170.682V90.4904H171.75V88.7624H172.77V90.4904H174.258V91.4144H172.77V94.7504C172.77 95.0864 172.834 95.3344 172.962 95.4944C173.114 95.6704 173.334 95.7584 173.622 95.7584C173.854 95.7584 174.078 95.6904 174.294 95.5544V96.5504C174.174 96.6064 174.05 96.6464 173.922 96.6704C173.802 96.6944 173.646 96.7064 173.454 96.7064ZM177.951 96.8024C177.367 96.8024 176.843 96.6624 176.379 96.3824C175.915 96.1024 175.551 95.7184 175.287 95.2304C175.031 94.7344 174.903 94.1784 174.903 93.5624C174.903 92.9704 175.023 92.4264 175.263 91.9304C175.511 91.4344 175.859 91.0384 176.307 90.7424C176.755 90.4464 177.275 90.2984 177.867 90.2984C178.467 90.2984 178.987 90.4344 179.427 90.7064C179.867 90.9704 180.203 91.3384 180.435 91.8104C180.675 92.2824 180.795 92.8224 180.795 93.4304C180.795 93.5504 180.783 93.6544 180.759 93.7424H175.923C175.947 94.2064 176.059 94.5984 176.259 94.9184C176.459 95.2384 176.711 95.4784 177.015 95.6384C177.327 95.7984 177.651 95.8784 177.987 95.8784C178.771 95.8784 179.375 95.5104 179.799 94.7744L180.663 95.1944C180.399 95.6904 180.039 96.0824 179.583 96.3704C179.135 96.6584 178.591 96.8024 177.951 96.8024ZM179.715 92.9024C179.699 92.6464 179.627 92.3904 179.499 92.1344C179.371 91.8784 179.167 91.6624 178.887 91.4864C178.615 91.3104 178.271 91.2224 177.855 91.2224C177.375 91.2224 176.967 91.3784 176.631 91.6904C176.303 91.9944 176.087 92.3984 175.983 92.9024H179.715ZM188.731 96.8024C187.907 96.8024 187.159 96.6024 186.487 96.2024C185.815 95.8024 185.287 95.2624 184.903 94.5824C184.519 93.8944 184.327 93.1384 184.327 92.3144C184.327 91.4984 184.519 90.7464 184.903 90.0584C185.287 89.3704 185.815 88.8264 186.487 88.4264C187.159 88.0264 187.907 87.8264 188.731 87.8264C189.555 87.8264 190.303 88.0264 190.975 88.4264C191.647 88.8264 192.175 89.3704 192.559 90.0584C192.951 90.7464 193.147 91.4984 193.147 92.3144C193.147 93.1384 192.955 93.8944 192.571 94.5824C192.187 95.2624 191.655 95.8024 190.975 96.2024C190.303 96.6024 189.555 96.8024 188.731 96.8024ZM188.731 95.8304C189.347 95.8304 189.911 95.6824 190.423 95.3864C190.943 95.0824 191.351 94.6664 191.647 94.1384C191.951 93.6024 192.103 92.9944 192.103 92.3144C192.103 91.6344 191.951 91.0304 191.647 90.5024C191.351 89.9664 190.943 89.5504 190.423 89.2544C189.911 88.9504 189.347 88.7984 188.731 88.7984C188.115 88.7984 187.551 88.9504 187.039 89.2544C186.527 89.5504 186.119 89.9664 185.815 90.5024C185.511 91.0384 185.359 91.6424 185.359 92.3144C185.359 92.9864 185.511 93.5904 185.815 94.1264C186.119 94.6624 186.527 95.0824 187.039 95.3864C187.551 95.6824 188.115 95.8304 188.731 95.8304ZM195.153 91.4144H194.025V90.4904H195.153V89.8304C195.153 89.4464 195.241 89.1104 195.417 88.8224C195.593 88.5344 195.829 88.3144 196.125 88.1624C196.421 88.0024 196.749 87.9224 197.109 87.9224C197.453 87.9224 197.753 87.9704 198.009 88.0664V89.0624C197.865 89.0064 197.729 88.9624 197.601 88.9304C197.473 88.8904 197.321 88.8704 197.145 88.8704C196.881 88.8704 196.653 88.9664 196.461 89.1584C196.269 89.3424 196.173 89.6024 196.173 89.9384V90.4904H197.745V91.4144H196.173V96.6104H195.153V91.4144ZM203.269 88.9904H200.857V88.0184H206.689V88.9904H204.289V96.6104H203.269V88.9904ZM209.533 96.8024C208.949 96.8024 208.425 96.6624 207.961 96.3824C207.497 96.1024 207.133 95.7184 206.869 95.2304C206.613 94.7344 206.485 94.1784 206.485 93.5624C206.485 92.9704 206.605 92.4264 206.845 91.9304C207.093 91.4344 207.441 91.0384 207.889 90.7424C208.337 90.4464 208.857 90.2984 209.449 90.2984C210.049 90.2984 210.569 90.4344 211.009 90.7064C211.449 90.9704 211.785 91.3384 212.017 91.8104C212.257 92.2824 212.377 92.8224 212.377 93.4304C212.377 93.5504 212.365 93.6544 212.341 93.7424H207.505C207.529 94.2064 207.641 94.5984 207.841 94.9184C208.041 95.2384 208.293 95.4784 208.597 95.6384C208.909 95.7984 209.233 95.8784 209.569 95.8784C210.353 95.8784 210.957 95.5104 211.381 94.7744L212.245 95.1944C211.981 95.6904 211.621 96.0824 211.165 96.3704C210.717 96.6584 210.173 96.8024 209.533 96.8024ZM211.297 92.9024C211.281 92.6464 211.209 92.3904 211.081 92.1344C210.953 91.8784 210.749 91.6624 210.469 91.4864C210.197 91.3104 209.853 91.2224 209.437 91.2224C208.957 91.2224 208.549 91.3784 208.213 91.6904C207.885 91.9944 207.669 92.3984 207.565 92.9024H211.297ZM216.401 96.8024C215.809 96.8024 215.277 96.6624 214.805 96.3824C214.333 96.0944 213.965 95.7064 213.701 95.2184C213.437 94.7224 213.305 94.1664 213.305 93.5504C213.305 92.9344 213.437 92.3784 213.701 91.8824C213.965 91.3864 214.333 90.9984 214.805 90.7184C215.277 90.4384 215.809 90.2984 216.401 90.2984C217.065 90.2984 217.621 90.4544 218.069 90.7664C218.525 91.0704 218.849 91.4784 219.041 91.9904L218.117 92.3744C217.965 91.9984 217.737 91.7144 217.433 91.5224C217.137 91.3224 216.777 91.2224 216.353 91.2224C215.993 91.2224 215.657 91.3224 215.345 91.5224C215.033 91.7144 214.781 91.9864 214.589 92.3384C214.405 92.6904 214.313 93.0944 214.313 93.5504C214.313 94.0064 214.405 94.4104 214.589 94.7624C214.781 95.1144 215.033 95.3904 215.345 95.5904C215.657 95.7824 215.993 95.8784 216.353 95.8784C216.785 95.8784 217.157 95.7784 217.469 95.5784C217.781 95.3784 218.013 95.0944 218.165 94.7264L219.077 95.1104C218.869 95.6144 218.533 96.0224 218.069 96.3344C217.613 96.6464 217.057 96.8024 216.401 96.8024ZM220.18 88.0184H221.2V90.5504L221.152 91.3904H221.2C221.368 91.0784 221.632 90.8184 221.992 90.6104C222.36 90.4024 222.76 90.2984 223.192 90.2984C223.936 90.2984 224.504 90.5184 224.896 90.9584C225.288 91.3904 225.484 91.9664 225.484 92.6864V96.6104H224.464V92.8424C224.464 92.2904 224.324 91.8824 224.044 91.6184C223.764 91.3544 223.4 91.2224 222.952 91.2224C222.632 91.2224 222.336 91.3184 222.064 91.5104C221.8 91.7024 221.588 91.9504 221.428 92.2544C221.276 92.5584 221.2 92.8744 221.2 93.2024V96.6104H220.18V88.0184ZM226.953 90.4904H227.925V91.3904H227.973C228.141 91.0864 228.409 90.8304 228.777 90.6224C229.145 90.4064 229.537 90.2984 229.953 90.2984C230.689 90.2984 231.249 90.5144 231.633 90.9464C232.025 91.3704 232.221 91.9504 232.221 92.6864V96.6104H231.201V92.8424C231.201 92.2744 231.065 91.8624 230.793 91.6064C230.521 91.3504 230.149 91.2224 229.677 91.2224C229.349 91.2224 229.053 91.3144 228.789 91.4984C228.533 91.6824 228.333 91.9264 228.189 92.2304C228.045 92.5264 227.973 92.8384 227.973 93.1664V96.6104H226.953V90.4904ZM236.5 96.8024C235.9 96.8024 235.36 96.6584 234.88 96.3704C234.4 96.0824 234.024 95.6904 233.752 95.1944C233.488 94.6984 233.356 94.1504 233.356 93.5504C233.356 92.9504 233.488 92.4024 233.752 91.9064C234.024 91.4104 234.4 91.0184 234.88 90.7304C235.36 90.4424 235.9 90.2984 236.5 90.2984C237.1 90.2984 237.64 90.4424 238.12 90.7304C238.6 91.0184 238.972 91.4104 239.236 91.9064C239.508 92.4024 239.644 92.9504 239.644 93.5504C239.644 94.1504 239.508 94.6984 239.236 95.1944C238.972 95.6904 238.6 96.0824 238.12 96.3704C237.64 96.6584 237.1 96.8024 236.5 96.8024ZM236.5 95.8784C236.876 95.8784 237.224 95.7864 237.544 95.6024C237.872 95.4104 238.132 95.1384 238.324 94.7864C238.524 94.4344 238.624 94.0224 238.624 93.5504C238.624 93.0784 238.524 92.6664 238.324 92.3144C238.132 91.9624 237.872 91.6944 237.544 91.5104C237.224 91.3184 236.876 91.2224 236.5 91.2224C236.124 91.2224 235.772 91.3184 235.444 91.5104C235.116 91.6944 234.852 91.9624 234.652 92.3144C234.46 92.6664 234.364 93.0784 234.364 93.5504C234.364 94.0224 234.46 94.4344 234.652 94.7864C234.852 95.1384 235.116 95.4104 235.444 95.6024C235.772 95.7864 236.124 95.8784 236.5 95.8784ZM240.77 88.0184H241.79V96.6104H240.77V88.0184ZM246.062 96.8024C245.462 96.8024 244.922 96.6584 244.442 96.3704C243.962 96.0824 243.586 95.6904 243.314 95.1944C243.05 94.6984 242.918 94.1504 242.918 93.5504C242.918 92.9504 243.05 92.4024 243.314 91.9064C243.586 91.4104 243.962 91.0184 244.442 90.7304C244.922 90.4424 245.462 90.2984 246.062 90.2984C246.662 90.2984 247.202 90.4424 247.682 90.7304C248.162 91.0184 248.534 91.4104 248.798 91.9064C249.07 92.4024 249.206 92.9504 249.206 93.5504C249.206 94.1504 249.07 94.6984 248.798 95.1944C248.534 95.6904 248.162 96.0824 247.682 96.3704C247.202 96.6584 246.662 96.8024 246.062 96.8024ZM246.062 95.8784C246.438 95.8784 246.786 95.7864 247.106 95.6024C247.434 95.4104 247.694 95.1384 247.886 94.7864C248.086 94.4344 248.186 94.0224 248.186 93.5504C248.186 93.0784 248.086 92.6664 247.886 92.3144C247.694 91.9624 247.434 91.6944 247.106 91.5104C246.786 91.3184 246.438 91.2224 246.062 91.2224C245.686 91.2224 245.334 91.3184 245.006 91.5104C244.678 91.6944 244.414 91.9624 244.214 92.3144C244.022 92.6664 243.926 93.0784 243.926 93.5504C243.926 94.0224 244.022 94.4344 244.214 94.7864C244.414 95.1384 244.678 95.4104 245.006 95.6024C245.334 95.7864 245.686 95.8784 246.062 95.8784ZM253.079 99.3944C252.359 99.3944 251.763 99.2264 251.291 98.8904C250.827 98.5544 250.515 98.1504 250.355 97.6784L251.279 97.2824C251.415 97.6344 251.639 97.9184 251.951 98.1344C252.271 98.3584 252.647 98.4704 253.079 98.4704C253.711 98.4704 254.199 98.2864 254.543 97.9184C254.895 97.5504 255.071 97.0304 255.071 96.3584V95.6744H255.023C254.823 95.9864 254.539 96.2424 254.171 96.4424C253.811 96.6344 253.399 96.7304 252.935 96.7304C252.407 96.7304 251.923 96.5944 251.483 96.3224C251.051 96.0504 250.707 95.6704 250.451 95.1824C250.195 94.6944 250.067 94.1384 250.067 93.5144C250.067 92.8984 250.195 92.3464 250.451 91.8584C250.707 91.3624 251.051 90.9784 251.483 90.7064C251.923 90.4344 252.407 90.2984 252.935 90.2984C253.399 90.2984 253.811 90.3984 254.171 90.5984C254.539 90.7904 254.823 91.0464 255.023 91.3664H255.071V90.4904H256.043V96.3704C256.043 97.3544 255.771 98.1024 255.227 98.6144C254.683 99.1344 253.967 99.3944 253.079 99.3944ZM253.079 95.8064C253.447 95.8064 253.779 95.7144 254.075 95.5304C254.379 95.3464 254.619 95.0824 254.795 94.7384C254.979 94.3944 255.071 93.9864 255.071 93.5144C255.071 93.0344 254.979 92.6224 254.795 92.2784C254.619 91.9344 254.379 91.6744 254.075 91.4984C253.779 91.3144 253.447 91.2224 253.079 91.2224C252.711 91.2224 252.375 91.3144 252.071 91.4984C251.767 91.6824 251.523 91.9464 251.339 92.2904C251.163 92.6344 251.075 93.0424 251.075 93.5144C251.075 93.9864 251.163 94.3984 251.339 94.7504C251.523 95.0944 251.767 95.3584 252.071 95.5424C252.375 95.7184 252.711 95.8064 253.079 95.8064ZM259.423 96.2264L256.891 90.4904H257.995L259.915 95.0384H259.939L261.787 90.4904H262.891L259.111 99.2024H258.055L259.423 96.2264Z" fill="white"/>
</svg>
