<svg width="304" height="120" viewBox="0 0 304 120" fill="none" xmlns="http://www.w3.org/2000/svg">
<rect width="304" height="120" rx="6" fill="#313235"/>
<path d="M23.0871 75.1405C21.9783 75.1405 20.9564 74.8742 20.0216 74.3415C19.0867 73.8089 18.342 73.0805 17.7876 72.1565C17.2441 71.2217 16.9723 70.1835 16.9723 69.0421C16.9723 67.9007 17.2441 66.8679 17.7876 65.9439C18.342 65.0091 19.0867 64.2753 20.0216 63.7426C20.9564 63.21 21.9783 62.9436 23.0871 62.9436C23.9676 62.9436 24.7884 63.1012 25.5493 63.4165C26.3102 63.7317 26.9462 64.172 27.4571 64.7373L26.1852 66.0092C25.8048 65.5852 25.3482 65.2591 24.8155 65.0308C24.2937 64.8025 23.7122 64.6884 23.0708 64.6884C22.3207 64.6884 21.6195 64.8677 20.9673 65.2265C20.3151 65.5852 19.7933 66.0961 19.4019 66.7592C19.0106 67.4223 18.8149 68.1833 18.8149 69.0421C18.8149 69.9009 19.0106 70.6618 19.4019 71.3249C19.7933 71.988 20.3151 72.499 20.9673 72.8577C21.6195 73.2164 22.3261 73.3958 23.0871 73.3958C23.7828 73.3958 24.3644 73.2925 24.8318 73.086C25.2993 72.8794 25.7178 72.6022 26.0874 72.2544C26.3266 72.0152 26.5277 71.7163 26.6907 71.3575C26.8647 70.9988 26.9788 70.6075 27.0332 70.1835H23.0708V68.5529H28.7616C28.8159 68.8573 28.8431 69.1725 28.8431 69.4986C28.8431 70.2379 28.729 70.9499 28.5007 71.6347C28.2724 72.3087 27.9082 72.8957 27.4082 73.3958C26.3102 74.559 24.8699 75.1405 23.0871 75.1405ZM34.4753 75.1405C33.6383 75.1405 32.8882 74.9503 32.2251 74.5698C31.562 74.1785 31.0456 73.6458 30.676 72.9718C30.3064 72.2979 30.1216 71.5478 30.1216 70.7216C30.1216 69.8954 30.3064 69.1454 30.676 68.4714C31.0456 67.7974 31.562 67.2702 32.2251 66.8897C32.8882 66.4983 33.6383 66.3027 34.4753 66.3027C35.3124 66.3027 36.0624 66.4983 36.7256 66.8897C37.3887 67.281 37.905 67.8137 38.2746 68.4877C38.6442 69.1617 38.829 69.9063 38.829 70.7216C38.829 71.5478 38.6442 72.2979 38.2746 72.9718C37.905 73.6458 37.3887 74.1785 36.7256 74.5698C36.0624 74.9503 35.3124 75.1405 34.4753 75.1405ZM34.4753 73.4936C34.9319 73.4936 35.3559 73.3849 35.7472 73.1675C36.1385 72.9392 36.4484 72.6185 36.6766 72.2054C36.9158 71.7815 37.0354 71.2869 37.0354 70.7216C37.0354 70.1563 36.9158 69.6671 36.6766 69.2541C36.4484 68.841 36.1385 68.5257 35.7472 68.3083C35.3559 68.08 34.9319 67.9659 34.4753 67.9659C34.0188 67.9659 33.5948 68.08 33.2035 68.3083C32.8121 68.5257 32.4969 68.841 32.2577 69.2541C32.0294 69.6671 31.9153 70.1563 31.9153 70.7216C31.9153 71.2869 32.0294 71.7815 32.2577 72.2054C32.4969 72.6185 32.8121 72.9392 33.2035 73.1675C33.5948 73.3849 34.0188 73.4936 34.4753 73.4936ZM44.38 75.1405C43.5429 75.1405 42.7928 74.9503 42.1297 74.5698C41.4666 74.1785 40.9503 73.6458 40.5807 72.9718C40.2111 72.2979 40.0263 71.5478 40.0263 70.7216C40.0263 69.8954 40.2111 69.1454 40.5807 68.4714C40.9503 67.7974 41.4666 67.2702 42.1297 66.8897C42.7928 66.4983 43.5429 66.3027 44.38 66.3027C45.217 66.3027 45.9671 66.4983 46.6302 66.8897C47.2933 67.281 47.8097 67.8137 48.1793 68.4877C48.5489 69.1617 48.7337 69.9063 48.7337 70.7216C48.7337 71.5478 48.5489 72.2979 48.1793 72.9718C47.8097 73.6458 47.2933 74.1785 46.6302 74.5698C45.9671 74.9503 45.217 75.1405 44.38 75.1405ZM44.38 73.4936C44.8365 73.4936 45.2605 73.3849 45.6518 73.1675C46.0432 72.9392 46.353 72.6185 46.5813 72.2054C46.8204 71.7815 46.94 71.2869 46.94 70.7216C46.94 70.1563 46.8204 69.6671 46.5813 69.2541C46.353 68.841 46.0432 68.5257 45.6518 68.3083C45.2605 68.08 44.8365 67.9659 44.38 67.9659C43.9234 67.9659 43.4994 68.08 43.1081 68.3083C42.7167 68.5257 42.4015 68.841 42.1623 69.2541C41.9341 69.6671 41.8199 70.1563 41.8199 70.7216C41.8199 71.2869 41.9341 71.7815 42.1623 72.2054C42.4015 72.6185 42.7167 72.9392 43.1081 73.1675C43.4994 73.3849 43.9234 73.4936 44.38 73.4936ZM54.1378 78.6626C53.116 78.6626 52.2681 78.4289 51.5941 77.9615C50.931 77.494 50.4853 76.9396 50.257 76.2983L51.9365 75.5971C52.1105 76.0319 52.3877 76.3798 52.7681 76.6407C53.1595 76.9125 53.6161 77.0483 54.1378 77.0483C54.8988 77.0483 55.4912 76.8201 55.9152 76.3635C56.35 75.9178 56.5674 75.2873 56.5674 74.472V73.7056H56.4696C56.1978 74.0969 55.8337 74.4068 55.3771 74.635C54.9314 74.8525 54.4151 74.9612 53.828 74.9612C53.1323 74.9612 52.4855 74.7818 51.8876 74.4231C51.2897 74.0643 50.8114 73.5589 50.4527 72.9066C50.1048 72.2435 49.9309 71.488 49.9309 70.6401C49.9309 69.7922 50.1048 69.0421 50.4527 68.3898C50.8114 67.7267 51.2897 67.2158 51.8876 66.8571C52.4855 66.4875 53.1323 66.3027 53.828 66.3027C54.4042 66.3027 54.9205 66.4168 55.3771 66.6451C55.8337 66.8734 56.1978 67.1832 56.4696 67.5745H56.5674V66.5636H58.2796V74.4231C58.2796 75.3253 58.1057 76.0917 57.7578 76.7222C57.4099 77.3636 56.9207 77.8473 56.2902 78.1735C55.6706 78.4996 54.9532 78.6626 54.1378 78.6626ZM54.1542 73.3306C54.589 73.3306 54.9912 73.2273 55.3608 73.0208C55.7304 72.8033 56.0239 72.4935 56.2413 72.0913C56.4587 71.6782 56.5674 71.1945 56.5674 70.6401C56.5674 69.7922 56.3337 69.1345 55.8663 68.667C55.4097 68.1887 54.839 67.9496 54.1542 67.9496C53.7085 67.9496 53.3008 68.0583 52.9312 68.2757C52.5616 68.4822 52.2681 68.7866 52.0507 69.1888C51.8333 69.591 51.7246 70.0748 51.7246 70.6401C51.7246 71.2053 51.8333 71.6891 52.0507 72.0913C52.2681 72.4935 52.5616 72.8033 52.9312 73.0208C53.3008 73.2273 53.7085 73.3306 54.1542 73.3306ZM60.3876 63.2045H62.1813V74.8796H60.3876V63.2045ZM68.0087 75.1405C67.1934 75.1405 66.4596 74.9503 65.8074 74.5698C65.166 74.1894 64.6605 73.6676 64.2909 73.0044C63.9322 72.3305 63.7528 71.5749 63.7528 70.7379C63.7528 69.9443 63.9267 69.2106 64.2746 68.5366C64.6333 67.8517 65.1279 67.3082 65.7584 66.906C66.3889 66.5038 67.1064 66.3027 67.9108 66.3027C68.7479 66.3027 69.4708 66.4875 70.0795 66.8571C70.6992 67.2267 71.1666 67.7322 71.4819 68.3735C71.808 69.0149 71.971 69.7378 71.971 70.5422C71.971 70.6944 71.9547 70.8847 71.9221 71.1129H65.5465C65.6117 71.8848 65.8835 72.4827 66.3618 72.9066C66.8509 73.3197 67.4162 73.5262 68.0576 73.5262C68.5685 73.5262 69.0088 73.4121 69.3784 73.1838C69.7589 72.9447 70.0632 72.624 70.2915 72.2218L71.808 72.9392C71.4166 73.6241 70.9057 74.1622 70.2752 74.5535C69.6447 74.9449 68.8892 75.1405 68.0087 75.1405ZM70.1448 69.7432C70.123 69.4497 70.0306 69.1617 69.8676 68.879C69.7045 68.5855 69.4545 68.3409 69.1175 68.1452C68.7914 67.9496 68.3892 67.8517 67.9108 67.8517C67.3347 67.8517 66.8455 68.0257 66.4433 68.3735C66.052 68.7105 65.7802 69.1671 65.628 69.7432H70.1448ZM77.7197 63.2045H81.4538C82.6604 63.2045 83.7149 63.4491 84.6171 63.9383C85.5194 64.4275 86.2097 65.1178 86.688 66.0092C87.1772 66.8897 87.4218 67.9007 87.4218 69.0421C87.4218 70.1835 87.1772 71.1999 86.688 72.0913C86.2097 72.9718 85.5194 73.6567 84.6171 74.1459C83.7149 74.635 82.6604 74.8796 81.4538 74.8796H77.7197V63.2045ZM81.4212 73.1349C82.7256 73.1349 83.742 72.7762 84.4704 72.0587C85.2096 71.3304 85.5792 70.3248 85.5792 69.0421C85.5792 67.7702 85.2096 66.7701 84.4704 66.0418C83.742 65.3134 82.7256 64.9493 81.4212 64.9493H79.546V73.1349H81.4212ZM92.7703 75.1405C91.955 75.1405 91.2212 74.9503 90.569 74.5698C89.9276 74.1894 89.4221 73.6676 89.0525 73.0044C88.6938 72.3305 88.5144 71.5749 88.5144 70.7379C88.5144 69.9443 88.6883 69.2106 89.0362 68.5366C89.3949 67.8517 89.8895 67.3082 90.52 66.906C91.1505 66.5038 91.868 66.3027 92.6724 66.3027C93.5095 66.3027 94.2324 66.4875 94.8411 66.8571C95.4608 67.2267 95.9282 67.7322 96.2435 68.3735C96.5696 69.0149 96.7326 69.7378 96.7326 70.5422C96.7326 70.6944 96.7163 70.8847 96.6837 71.1129H90.3081C90.3733 71.8848 90.6451 72.4827 91.1234 72.9066C91.6125 73.3197 92.1778 73.5262 92.8192 73.5262C93.3301 73.5262 93.7704 73.4121 94.14 73.1838C94.5205 72.9447 94.8248 72.624 95.0531 72.2218L96.5696 72.9392C96.1782 73.6241 95.6673 74.1622 95.0368 74.5535C94.4063 74.9449 93.6508 75.1405 92.7703 75.1405ZM94.9064 69.7432C94.8846 69.4497 94.7922 69.1617 94.6292 68.879C94.4661 68.5855 94.2161 68.3409 93.8791 68.1452C93.553 67.9496 93.1507 67.8517 92.6724 67.8517C92.0963 67.8517 91.6071 68.0257 91.2049 68.3735C90.8136 68.7105 90.5418 69.1671 90.3896 69.7432H94.9064ZM97.2774 66.5636H99.283L101.582 72.5642H101.647L103.995 66.5636H105.952L102.495 74.8796H100.702L97.2774 66.5636ZM110.669 75.1405C109.853 75.1405 109.12 74.9503 108.467 74.5698C107.826 74.1894 107.321 73.6676 106.951 73.0044C106.592 72.3305 106.413 71.5749 106.413 70.7379C106.413 69.9443 106.587 69.2106 106.935 68.5366C107.293 67.8517 107.788 67.3082 108.418 66.906C109.049 66.5038 109.766 66.3027 110.571 66.3027C111.408 66.3027 112.131 66.4875 112.74 66.8571C113.359 67.2267 113.827 67.7322 114.142 68.3735C114.468 69.0149 114.631 69.7378 114.631 70.5422C114.631 70.6944 114.615 70.8847 114.582 71.1129H108.206C108.272 71.8848 108.543 72.4827 109.022 72.9066C109.511 73.3197 110.076 73.5262 110.718 73.5262C111.229 73.5262 111.669 73.4121 112.038 73.1838C112.419 72.9447 112.723 72.624 112.952 72.2218L114.468 72.9392C114.077 73.6241 113.566 74.1622 112.935 74.5535C112.305 74.9449 111.549 75.1405 110.669 75.1405ZM112.805 69.7432C112.783 69.4497 112.691 69.1617 112.528 68.879C112.365 68.5855 112.114 68.3409 111.777 68.1452C111.451 67.9496 111.049 67.8517 110.571 67.8517C109.995 67.8517 109.506 68.0257 109.103 68.3735C108.712 68.7105 108.44 69.1671 108.288 69.7432H112.805ZM116.264 63.2045H118.058V74.8796H116.264V63.2045ZM123.983 75.1405C123.146 75.1405 122.396 74.9503 121.733 74.5698C121.07 74.1785 120.554 73.6458 120.184 72.9718C119.814 72.2979 119.63 71.5478 119.63 70.7216C119.63 69.8954 119.814 69.1454 120.184 68.4714C120.554 67.7974 121.07 67.2702 121.733 66.8897C122.396 66.4983 123.146 66.3027 123.983 66.3027C124.82 66.3027 125.57 66.4983 126.234 66.8897C126.897 67.281 127.413 67.8137 127.783 68.4877C128.152 69.1617 128.337 69.9063 128.337 70.7216C128.337 71.5478 128.152 72.2979 127.783 72.9718C127.413 73.6458 126.897 74.1785 126.234 74.5698C125.57 74.9503 124.82 75.1405 123.983 75.1405ZM123.983 73.4936C124.44 73.4936 124.864 73.3849 125.255 73.1675C125.647 72.9392 125.956 72.6185 126.185 72.2054C126.424 71.7815 126.543 71.2869 126.543 70.7216C126.543 70.1563 126.424 69.6671 126.185 69.2541C125.956 68.841 125.647 68.5257 125.255 68.3083C124.864 68.08 124.44 67.9659 123.983 67.9659C123.527 67.9659 123.103 68.08 122.711 68.3083C122.32 68.5257 122.005 68.841 121.766 69.2541C121.537 69.6671 121.423 70.1563 121.423 70.7216C121.423 71.2869 121.537 71.7815 121.766 72.2054C122.005 72.6185 122.32 72.9392 122.711 73.1675C123.103 73.3849 123.527 73.4936 123.983 73.4936ZM129.846 66.5636H131.558V67.6561H131.64C131.879 67.2756 132.232 66.9549 132.7 66.694C133.167 66.4331 133.694 66.3027 134.281 66.3027C135.031 66.3027 135.711 66.4929 136.319 66.8734C136.928 67.2539 137.407 67.7811 137.754 68.4551C138.113 69.1182 138.293 69.8737 138.293 70.7216C138.293 71.5695 138.113 72.3305 137.754 73.0044C137.407 73.6676 136.928 74.1894 136.319 74.5698C135.711 74.9503 135.031 75.1405 134.281 75.1405C133.694 75.1405 133.167 75.0101 132.7 74.7492C132.232 74.4883 131.879 74.173 131.64 73.8034H131.558L131.64 74.9612V78.4017H129.846V66.5636ZM134.02 73.4936C134.455 73.4936 134.863 73.3795 135.243 73.1512C135.624 72.9229 135.928 72.5968 136.156 72.1728C136.385 71.7489 136.499 71.2651 136.499 70.7216C136.499 70.1781 136.385 69.6998 136.156 69.2867C135.928 68.8627 135.624 68.5366 135.243 68.3083C134.863 68.08 134.455 67.9659 134.02 67.9659C133.586 67.9659 133.178 68.08 132.797 68.3083C132.428 68.5366 132.129 68.8627 131.901 69.2867C131.672 69.6998 131.558 70.1781 131.558 70.7216C131.558 71.2651 131.672 71.7489 131.901 72.1728C132.129 72.5968 132.428 72.9229 132.797 73.1512C133.178 73.3795 133.586 73.4936 134.02 73.4936ZM143.727 75.1405C142.911 75.1405 142.178 74.9503 141.525 74.5698C140.884 74.1894 140.378 73.6676 140.009 73.0044C139.65 72.3305 139.471 71.5749 139.471 70.7379C139.471 69.9443 139.645 69.2106 139.993 68.5366C140.351 67.8517 140.846 67.3082 141.476 66.906C142.107 66.5038 142.824 66.3027 143.629 66.3027C144.466 66.3027 145.189 66.4875 145.797 66.8571C146.417 67.2267 146.885 67.7322 147.2 68.3735C147.526 69.0149 147.689 69.7378 147.689 70.5422C147.689 70.6944 147.673 70.8847 147.64 71.1129H141.264C141.33 71.8848 141.601 72.4827 142.08 72.9066C142.569 73.3197 143.134 73.5262 143.776 73.5262C144.286 73.5262 144.727 73.4121 145.096 73.1838C145.477 72.9447 145.781 72.624 146.009 72.2218L147.526 72.9392C147.135 73.6241 146.624 74.1622 145.993 74.5535C145.363 74.9449 144.607 75.1405 143.727 75.1405ZM145.863 69.7432C145.841 69.4497 145.749 69.1617 145.586 68.879C145.422 68.5855 145.172 68.3409 144.835 68.1452C144.509 67.9496 144.107 67.8517 143.629 67.8517C143.053 67.8517 142.563 68.0257 142.161 68.3735C141.77 68.7105 141.498 69.1671 141.346 69.7432H145.863ZM149.322 66.5636H151.035V67.7865H151.116C151.301 67.3626 151.622 67.0147 152.078 66.7429C152.535 66.4603 153.018 66.319 153.529 66.319C153.932 66.319 154.269 66.3733 154.54 66.482V68.3409C154.062 68.167 153.633 68.08 153.252 68.08C152.839 68.08 152.469 68.1887 152.143 68.4061C151.828 68.6236 151.578 68.9171 151.393 69.2867C151.208 69.6454 151.116 70.0422 151.116 70.477V74.8796H149.322V66.5636ZM162.912 75.1405C161.944 75.1405 161.075 74.8579 160.303 74.2926C159.531 73.7273 158.998 72.9338 158.705 71.9119L160.433 71.2108C160.607 71.8522 160.912 72.3794 161.346 72.7925C161.792 73.1947 162.325 73.3958 162.944 73.3958C163.521 73.3958 164.01 73.249 164.412 72.9555C164.814 72.6511 165.015 72.2381 165.015 71.7163C165.015 71.238 164.836 70.8466 164.477 70.5422C164.129 70.227 163.515 69.9117 162.635 69.5965L161.901 69.3356C161.118 69.0638 160.46 68.6725 159.928 68.1616C159.395 67.6506 159.129 66.9766 159.129 66.1396C159.129 65.5635 159.286 65.0308 159.602 64.5416C159.917 64.0524 160.352 63.6665 160.906 63.3839C161.471 63.0904 162.107 62.9436 162.814 62.9436C163.836 62.9436 164.651 63.1936 165.26 63.6937C165.869 64.1829 166.276 64.7373 166.483 65.3569L164.836 66.0581C164.716 65.6885 164.488 65.3624 164.151 65.0797C163.814 64.7971 163.379 64.6558 162.847 64.6558C162.314 64.6558 161.863 64.7916 161.493 65.0634C161.134 65.3352 160.955 65.683 160.955 66.107C160.955 66.5092 161.118 66.8408 161.444 67.1017C161.77 67.3626 162.281 67.6126 162.977 67.8517L163.711 68.0963C164.711 68.4442 165.483 68.9008 166.026 69.466C166.581 70.0204 166.858 70.7651 166.858 71.7C166.858 72.4609 166.662 73.1023 166.271 73.6241C165.88 74.135 165.379 74.5155 164.771 74.7655C164.173 75.0155 163.553 75.1405 162.912 75.1405ZM171.648 75.0101C171.278 75.0101 170.93 74.9503 170.604 74.8307C170.278 74.7111 170.012 74.5535 169.805 74.3578C169.338 73.8904 169.104 73.2545 169.104 72.45V68.1452H167.653V66.5636H169.104V64.2155H170.898V66.5636H172.92V68.1452H170.898V72.0587C170.898 72.5044 170.985 72.8196 171.159 73.0044C171.322 73.2219 171.604 73.3306 172.007 73.3306C172.191 73.3306 172.354 73.3088 172.496 73.2653C172.637 73.211 172.789 73.1295 172.952 73.0208V74.7655C172.594 74.9286 172.159 75.0101 171.648 75.0101ZM177.658 75.1405C176.647 75.1405 175.876 74.8416 175.343 74.2437C174.821 73.6349 174.56 72.7925 174.56 71.7163V66.5636H176.354V71.4717C176.354 72.1457 176.511 72.6511 176.827 72.9881C177.153 73.3251 177.577 73.4936 178.099 73.4936C178.523 73.4936 178.898 73.3849 179.224 73.1675C179.55 72.9392 179.8 72.6403 179.974 72.2707C180.148 71.9011 180.235 71.5043 180.235 71.0803V66.5636H182.028V74.8796H180.333V73.8034H180.235C180.006 74.1948 179.653 74.5155 179.175 74.7655C178.696 75.0155 178.191 75.1405 177.658 75.1405ZM187.591 75.1405C186.841 75.1405 186.162 74.9503 185.553 74.5698C184.944 74.1894 184.46 73.6676 184.102 73.0044C183.754 72.3305 183.58 71.5695 183.58 70.7216C183.58 69.8737 183.754 69.1182 184.102 68.4551C184.46 67.7811 184.944 67.2539 185.553 66.8734C186.162 66.4929 186.841 66.3027 187.591 66.3027C188.178 66.3027 188.705 66.4331 189.173 66.694C189.64 66.9549 189.994 67.2756 190.233 67.6561H190.314L190.233 66.482V63.2045H192.026V74.8796H190.314V73.8034H190.233C189.994 74.173 189.64 74.4883 189.173 74.7492C188.705 75.0101 188.178 75.1405 187.591 75.1405ZM187.852 73.4936C188.287 73.4936 188.689 73.3795 189.059 73.1512C189.439 72.9229 189.744 72.5968 189.972 72.1728C190.2 71.7489 190.314 71.2651 190.314 70.7216C190.314 70.1781 190.2 69.6998 189.972 69.2867C189.744 68.8627 189.439 68.5366 189.059 68.3083C188.689 68.08 188.287 67.9659 187.852 67.9659C187.417 67.9659 187.01 68.08 186.629 68.3083C186.249 68.5366 185.944 68.8627 185.716 69.2867C185.488 69.6998 185.374 70.1781 185.374 70.7216C185.374 71.2651 185.488 71.7489 185.716 72.1728C185.944 72.5968 186.249 72.9229 186.629 73.1512C187.01 73.3795 187.417 73.4936 187.852 73.4936ZM197.836 75.1405C197.021 75.1405 196.287 74.9503 195.635 74.5698C194.993 74.1894 194.488 73.6676 194.118 73.0044C193.759 72.3305 193.58 71.5749 193.58 70.7379C193.58 69.9443 193.754 69.2106 194.102 68.5366C194.461 67.8517 194.955 67.3082 195.586 66.906C196.216 66.5038 196.934 66.3027 197.738 66.3027C198.575 66.3027 199.298 66.4875 199.907 66.8571C200.526 67.2267 200.994 67.7322 201.309 68.3735C201.635 69.0149 201.798 69.7378 201.798 70.5422C201.798 70.6944 201.782 70.8847 201.749 71.1129H195.374C195.439 71.8848 195.711 72.4827 196.189 72.9066C196.678 73.3197 197.243 73.5262 197.885 73.5262C198.396 73.5262 198.836 73.4121 199.206 73.1838C199.586 72.9447 199.89 72.624 200.119 72.2218L201.635 72.9392C201.244 73.6241 200.733 74.1622 200.102 74.5535C199.472 74.9449 198.716 75.1405 197.836 75.1405ZM199.972 69.7432C199.95 69.4497 199.858 69.1617 199.695 68.879C199.532 68.5855 199.282 68.3409 198.945 68.1452C198.619 67.9496 198.216 67.8517 197.738 67.8517C197.162 67.8517 196.673 68.0257 196.271 68.3735C195.879 68.7105 195.607 69.1671 195.455 69.7432H199.972ZM203.432 66.5636H205.144V67.6561H205.225C205.464 67.2647 205.818 66.944 206.285 66.694C206.764 66.4331 207.269 66.3027 207.802 66.3027C208.813 66.3027 209.579 66.6016 210.101 67.1995C210.633 67.7865 210.9 68.5909 210.9 69.6128V74.8796H209.106V69.8574C209.106 69.2051 208.943 68.7268 208.617 68.4225C208.302 68.1181 207.861 67.9659 207.296 67.9659C206.894 67.9659 206.535 68.08 206.22 68.3083C205.905 68.5257 205.66 68.8192 205.486 69.1888C205.312 69.5584 205.225 69.9552 205.225 70.3792V74.8796H203.432V66.5636ZM215.916 75.0101C215.547 75.0101 215.199 74.9503 214.873 74.8307C214.547 74.7111 214.28 74.5535 214.074 74.3578C213.606 73.8904 213.372 73.2545 213.372 72.45V68.1452H211.921V66.5636H213.372V64.2155H215.166V66.5636H217.188V68.1452H215.166V72.0587C215.166 72.5044 215.253 72.8196 215.427 73.0044C215.59 73.2219 215.873 73.3306 216.275 73.3306C216.46 73.3306 216.623 73.3088 216.764 73.2653C216.905 73.211 217.058 73.1295 217.221 73.0208V74.7655C216.862 74.9286 216.427 75.0101 215.916 75.0101ZM228.202 75.1405C227.071 75.1405 226.039 74.8742 225.104 74.3415C224.169 73.8089 223.435 73.0751 222.902 72.1402C222.37 71.2053 222.103 70.1726 222.103 69.0421C222.103 67.9115 222.37 66.8788 222.902 65.9439C223.435 65.0091 224.169 64.2753 225.104 63.7426C226.039 63.21 227.071 62.9436 228.202 62.9436C229.082 62.9436 229.881 63.1067 230.599 63.4328C231.327 63.7589 231.969 64.2318 232.523 64.8514L231.219 66.107C230.816 65.6287 230.371 65.2754 229.881 65.0471C229.392 64.8079 228.832 64.6884 228.202 64.6884C227.419 64.6884 226.702 64.8677 226.05 65.2265C225.408 65.5852 224.897 66.0961 224.517 66.7592C224.136 67.4115 223.946 68.1724 223.946 69.0421C223.946 69.9117 224.136 70.6781 224.517 71.3412C224.897 71.9935 225.408 72.499 226.05 72.8577C226.702 73.2164 227.419 73.3958 228.202 73.3958C229.506 73.3958 230.615 72.8523 231.528 71.7652L232.849 73.0371C232.284 73.7002 231.604 74.2165 230.811 74.5861C230.017 74.9557 229.148 75.1405 228.202 75.1405ZM234.435 63.2045H236.229V74.8796H234.435V63.2045ZM241.37 75.1405C240.359 75.1405 239.587 74.8416 239.054 74.2437C238.532 73.6349 238.272 72.7925 238.272 71.7163V66.5636H240.065V71.4717C240.065 72.1457 240.223 72.6511 240.538 72.9881C240.864 73.3251 241.288 73.4936 241.81 73.4936C242.234 73.4936 242.609 73.3849 242.935 73.1675C243.261 72.9392 243.511 72.6403 243.685 72.2707C243.859 71.9011 243.946 71.5043 243.946 71.0803V66.5636H245.74V74.8796H244.044V73.8034H243.946C243.718 74.1948 243.364 74.5155 242.886 74.7655C242.408 75.0155 241.902 75.1405 241.37 75.1405ZM252.263 75.1405C251.676 75.1405 251.148 75.0101 250.681 74.7492C250.213 74.4883 249.86 74.173 249.621 73.8034H249.54V74.8796H247.827V63.2045H249.621V66.482L249.54 67.6561H249.621C249.86 67.2756 250.213 66.9549 250.681 66.694C251.148 66.4331 251.676 66.3027 252.263 66.3027C253.013 66.3027 253.692 66.4929 254.301 66.8734C254.91 67.2539 255.388 67.7811 255.736 68.4551C256.095 69.1182 256.274 69.8737 256.274 70.7216C256.274 71.5695 256.095 72.3305 255.736 73.0044C255.388 73.6676 254.91 74.1894 254.301 74.5698C253.692 74.9503 253.013 75.1405 252.263 75.1405ZM252.002 73.4936C252.437 73.4936 252.844 73.3795 253.225 73.1512C253.605 72.9229 253.91 72.5968 254.138 72.1728C254.366 71.7489 254.48 71.2651 254.48 70.7216C254.48 70.1781 254.366 69.6998 254.138 69.2867C253.91 68.8627 253.605 68.5366 253.225 68.3083C252.844 68.08 252.437 67.9659 252.002 67.9659C251.567 67.9659 251.159 68.08 250.779 68.3083C250.409 68.5366 250.11 68.8627 249.882 69.2867C249.654 69.6998 249.54 70.1781 249.54 70.7216C249.54 71.2651 249.654 71.7489 249.882 72.1728C250.11 72.5968 250.409 72.9229 250.779 73.1512C251.159 73.3795 251.567 73.4936 252.002 73.4936ZM260.86 75.1405C259.904 75.1405 259.121 74.934 258.512 74.5209C257.904 74.0969 257.474 73.5589 257.224 72.9066L258.822 72.2054C259.018 72.6403 259.29 72.9718 259.638 73.2001C259.996 73.4284 260.404 73.5425 260.86 73.5425C261.306 73.5425 261.681 73.4664 261.986 73.3143C262.29 73.1512 262.442 72.912 262.442 72.5968C262.442 72.2924 262.312 72.0533 262.051 71.8793C261.79 71.7054 261.388 71.5532 260.844 71.4228L259.849 71.1782C259.186 71.0151 258.637 70.727 258.203 70.314C257.768 69.9009 257.55 69.3791 257.55 68.7486C257.55 68.2594 257.692 67.83 257.974 67.4604C258.268 67.0908 258.659 66.8082 259.148 66.6125C259.638 66.4059 260.17 66.3027 260.746 66.3027C261.518 66.3027 262.198 66.4603 262.785 66.7755C263.372 67.0799 263.796 67.5256 264.056 68.1126L262.491 68.7975C262.176 68.1561 261.6 67.8354 260.763 67.8354C260.36 67.8354 260.023 67.917 259.752 68.08C259.48 68.2431 259.344 68.4551 259.344 68.716C259.344 68.966 259.447 69.1725 259.654 69.3356C259.86 69.4878 260.165 69.6182 260.567 69.7269L261.79 70.0367C262.605 70.2433 263.219 70.5585 263.632 70.9825C264.056 71.3956 264.268 71.9065 264.268 72.5153C264.268 73.0371 264.116 73.4991 263.812 73.9013C263.518 74.2926 263.111 74.597 262.589 74.8144C262.067 75.0318 261.491 75.1405 260.86 75.1405Z" fill="white"/>
<rect width="23.3115" height="7.81905" rx="3.90953" transform="matrix(-0.866025 0.5 0.5 0.866025 174.504 27.7881)" fill="#FBBC04"/>
<rect width="23.3115" height="7.81905" rx="3.90953" transform="matrix(0.866025 -0.5 -0.5 -0.866025 131.371 38.4272)" fill="#EA4335"/>
<rect x="131.041" y="27.7871" width="23.3115" height="7.81905" rx="3.90953" transform="rotate(30 131.041 27.7871)" fill="#4285F4"/>
<rect x="174.504" y="38.4272" width="23.3115" height="7.81905" rx="3.64648" transform="rotate(-150 174.504 38.4272)" fill="#0F9D58"/>
<path d="M23.8086 92.6384L20.9046 88.0184H22.0926L24.2886 91.6184H24.3366L26.4966 88.0184H27.6846L24.8286 92.6384V96.6104H23.8086V92.6384ZM30.146 96.8024C29.562 96.8024 29.038 96.6624 28.574 96.3824C28.11 96.1024 27.746 95.7184 27.482 95.2304C27.226 94.7344 27.098 94.1784 27.098 93.5624C27.098 92.9704 27.218 92.4264 27.458 91.9304C27.706 91.4344 28.054 91.0384 28.502 90.7424C28.95 90.4464 29.47 90.2984 30.062 90.2984C30.662 90.2984 31.182 90.4344 31.622 90.7064C32.062 90.9704 32.398 91.3384 32.63 91.8104C32.87 92.2824 32.99 92.8224 32.99 93.4304C32.99 93.5504 32.978 93.6544 32.954 93.7424H28.118C28.142 94.2064 28.254 94.5984 28.454 94.9184C28.654 95.2384 28.906 95.4784 29.21 95.6384C29.522 95.7984 29.846 95.8784 30.182 95.8784C30.966 95.8784 31.57 95.5104 31.994 94.7744L32.858 95.1944C32.594 95.6904 32.234 96.0824 31.778 96.3704C31.33 96.6584 30.786 96.8024 30.146 96.8024ZM31.91 92.9024C31.894 92.6464 31.822 92.3904 31.694 92.1344C31.566 91.8784 31.362 91.6624 31.082 91.4864C30.81 91.3104 30.466 91.2224 30.05 91.2224C29.57 91.2224 29.162 91.3784 28.826 91.6904C28.498 91.9944 28.282 92.3984 28.178 92.9024H31.91ZM36.3783 96.8024C35.7223 96.8024 35.1743 96.6504 34.7343 96.3464C34.2943 96.0344 33.9823 95.6384 33.7983 95.1584L34.7103 94.7504C34.8623 95.1184 35.0863 95.4024 35.3823 95.6024C35.6863 95.8024 36.0183 95.9024 36.3783 95.9024C36.7623 95.9024 37.0903 95.8264 37.3623 95.6744C37.6343 95.5144 37.7703 95.2904 37.7703 95.0024C37.7703 94.7464 37.6623 94.5424 37.4463 94.3904C37.2303 94.2304 36.8903 94.0944 36.4263 93.9824L35.6823 93.7904C35.1943 93.6704 34.7943 93.4664 34.4823 93.1784C34.1703 92.8904 34.0143 92.5184 34.0143 92.0624C34.0143 91.7104 34.1183 91.4024 34.3263 91.1384C34.5423 90.8664 34.8263 90.6584 35.1783 90.5144C35.5303 90.3704 35.9103 90.2984 36.3183 90.2984C36.8543 90.2984 37.3303 90.4144 37.7463 90.6464C38.1703 90.8784 38.4703 91.2024 38.6463 91.6184L37.7583 92.0264C37.4863 91.4824 37.0023 91.2104 36.3063 91.2104C35.9703 91.2104 35.6743 91.2904 35.4183 91.4504C35.1703 91.6024 35.0463 91.7984 35.0463 92.0384C35.0463 92.2624 35.1343 92.4464 35.3103 92.5904C35.4863 92.7264 35.7503 92.8384 36.1023 92.9264L36.9903 93.1544C37.5903 93.3064 38.0423 93.5344 38.3463 93.8384C38.6503 94.1344 38.8023 94.4984 38.8023 94.9304C38.8023 95.3064 38.6943 95.6384 38.4783 95.9264C38.2623 96.2064 37.9703 96.4224 37.6023 96.5744C37.2343 96.7264 36.8263 96.8024 36.3783 96.8024ZM39.9142 88.0184H40.9342V90.5504L40.8862 91.3904H40.9342C41.1022 91.0784 41.3662 90.8184 41.7262 90.6104C42.0942 90.4024 42.4942 90.2984 42.9262 90.2984C43.6702 90.2984 44.2382 90.5184 44.6302 90.9584C45.0222 91.3904 45.2182 91.9664 45.2182 92.6864V96.6104H44.1982V92.8424C44.1982 92.2904 44.0582 91.8824 43.7782 91.6184C43.4982 91.3544 43.1342 91.2224 42.6862 91.2224C42.3662 91.2224 42.0702 91.3184 41.7982 91.5104C41.5342 91.7024 41.3222 91.9504 41.1622 92.2544C41.0102 92.5584 40.9342 92.8744 40.9342 93.2024V96.6104H39.9142V88.0184ZM45.8985 90.4904H46.9425L48.4065 95.3264H48.4185L49.9545 90.4904H51.0105L52.5585 95.3144H52.5705L54.0225 90.4904H55.0545L53.0745 96.6104H52.0425L50.4585 91.7264L48.8865 96.6104H47.8665L45.8985 90.4904ZM57.7374 96.8024C57.2894 96.8024 56.8894 96.7144 56.5374 96.5384C56.1854 96.3624 55.9134 96.1224 55.7214 95.8184C55.5294 95.5064 55.4334 95.1544 55.4334 94.7624C55.4334 94.1144 55.6774 93.6104 56.1654 93.2504C56.6534 92.8824 57.2694 92.6984 58.0134 92.6984C58.3814 92.6984 58.7214 92.7384 59.0334 92.8184C59.3534 92.8984 59.5974 92.9904 59.7654 93.0944V92.7224C59.7654 92.2664 59.6054 91.9024 59.2854 91.6304C58.9654 91.3504 58.5614 91.2104 58.0734 91.2104C57.7294 91.2104 57.4134 91.2864 57.1254 91.4384C56.8374 91.5824 56.6094 91.7864 56.4414 92.0504L55.6734 91.4744C55.9134 91.1064 56.2414 90.8184 56.6574 90.6104C57.0814 90.4024 57.5494 90.2984 58.0614 90.2984C58.8934 90.2984 59.5454 90.5184 60.0174 90.9584C60.4974 91.3904 60.7374 91.9824 60.7374 92.7344V96.6104H59.7654V95.7344H59.7174C59.5414 96.0304 59.2774 96.2824 58.9254 96.4904C58.5734 96.6984 58.1774 96.8024 57.7374 96.8024ZM57.8334 95.9024C58.1774 95.9024 58.4974 95.8144 58.7934 95.6384C59.0894 95.4624 59.3254 95.2264 59.5014 94.9304C59.6774 94.6344 59.7654 94.3104 59.7654 93.9584C59.5734 93.8304 59.3374 93.7264 59.0574 93.6464C58.7774 93.5664 58.4814 93.5264 58.1694 93.5264C57.6094 93.5264 57.1854 93.6424 56.8974 93.8744C56.6174 94.1064 56.4774 94.4064 56.4774 94.7744C56.4774 95.1104 56.6054 95.3824 56.8614 95.5904C57.1174 95.7984 57.4414 95.9024 57.8334 95.9024ZM62.1564 90.4904H63.1284V91.3904H63.1764C63.3444 91.0864 63.6124 90.8304 63.9804 90.6224C64.3484 90.4064 64.7404 90.2984 65.1564 90.2984C65.8924 90.2984 66.4524 90.5144 66.8364 90.9464C67.2284 91.3704 67.4244 91.9504 67.4244 92.6864V96.6104H66.4044V92.8424C66.4044 92.2744 66.2684 91.8624 65.9964 91.6064C65.7244 91.3504 65.3524 91.2224 64.8804 91.2224C64.5524 91.2224 64.2564 91.3144 63.9924 91.4984C63.7364 91.6824 63.5364 91.9264 63.3924 92.2304C63.2484 92.5264 63.1764 92.8384 63.1764 93.1664V96.6104H62.1564V90.4904ZM70.9303 96.7064C70.6823 96.7064 70.4503 96.6664 70.2343 96.5864C70.0263 96.5064 69.8503 96.3984 69.7063 96.2624C69.5463 96.1104 69.4263 95.9344 69.3463 95.7344C69.2663 95.5344 69.2263 95.2904 69.2263 95.0024V91.4144H68.1583V90.4904H69.2263V88.7624H70.2463V90.4904H71.7343V91.4144H70.2463V94.7504C70.2463 95.0864 70.3103 95.3344 70.4383 95.4944C70.5903 95.6704 70.8103 95.7584 71.0983 95.7584C71.3303 95.7584 71.5543 95.6904 71.7703 95.5544V96.5504C71.6503 96.6064 71.5263 96.6464 71.3983 96.6704C71.2783 96.6944 71.1223 96.7064 70.9303 96.7064ZM72.9728 90.4904H73.9448V91.4744H73.9928C74.1128 91.1384 74.3448 90.8624 74.6888 90.6464C75.0328 90.4224 75.3928 90.3104 75.7688 90.3104C76.0488 90.3104 76.2888 90.3504 76.4888 90.4304V91.5344C76.2328 91.4064 75.9448 91.3424 75.6248 91.3424C75.3288 91.3424 75.0568 91.4264 74.8088 91.5944C74.5608 91.7624 74.3608 91.9904 74.2088 92.2784C74.0648 92.5584 73.9928 92.8624 73.9928 93.1904V96.6104H72.9728V90.4904ZM79.1944 96.8024C78.7464 96.8024 78.3464 96.7144 77.9944 96.5384C77.6424 96.3624 77.3704 96.1224 77.1784 95.8184C76.9864 95.5064 76.8904 95.1544 76.8904 94.7624C76.8904 94.1144 77.1344 93.6104 77.6224 93.2504C78.1104 92.8824 78.7264 92.6984 79.4704 92.6984C79.8384 92.6984 80.1784 92.7384 80.4904 92.8184C80.8104 92.8984 81.0544 92.9904 81.2224 93.0944V92.7224C81.2224 92.2664 81.0624 91.9024 80.7424 91.6304C80.4224 91.3504 80.0184 91.2104 79.5304 91.2104C79.1864 91.2104 78.8704 91.2864 78.5824 91.4384C78.2944 91.5824 78.0664 91.7864 77.8984 92.0504L77.1304 91.4744C77.3704 91.1064 77.6984 90.8184 78.1144 90.6104C78.5384 90.4024 79.0064 90.2984 79.5184 90.2984C80.3504 90.2984 81.0024 90.5184 81.4744 90.9584C81.9544 91.3904 82.1944 91.9824 82.1944 92.7344V96.6104H81.2224V95.7344H81.1744C80.9984 96.0304 80.7344 96.2824 80.3824 96.4904C80.0304 96.6984 79.6344 96.8024 79.1944 96.8024ZM79.2904 95.9024C79.6344 95.9024 79.9544 95.8144 80.2504 95.6384C80.5464 95.4624 80.7824 95.2264 80.9584 94.9304C81.1344 94.6344 81.2224 94.3104 81.2224 93.9584C81.0304 93.8304 80.7944 93.7264 80.5144 93.6464C80.2344 93.5664 79.9384 93.5264 79.6264 93.5264C79.0664 93.5264 78.6424 93.6424 78.3544 93.8744C78.0744 94.1064 77.9344 94.4064 77.9344 94.7744C77.9344 95.1104 78.0624 95.3824 78.3184 95.5904C78.5744 95.7984 78.8984 95.9024 79.2904 95.9024ZM86.3748 96.8024C85.7748 96.8024 85.2348 96.6584 84.7548 96.3704C84.2748 96.0824 83.8988 95.6904 83.6268 95.1944C83.3628 94.6984 83.2308 94.1504 83.2308 93.5504C83.2308 92.9504 83.3628 92.4024 83.6268 91.9064C83.8988 91.4104 84.2748 91.0184 84.7548 90.7304C85.2348 90.4424 85.7748 90.2984 86.3748 90.2984C86.9748 90.2984 87.5148 90.4424 87.9948 90.7304C88.4748 91.0184 88.8468 91.4104 89.1108 91.9064C89.3828 92.4024 89.5188 92.9504 89.5188 93.5504C89.5188 94.1504 89.3828 94.6984 89.1108 95.1944C88.8468 95.6904 88.4748 96.0824 87.9948 96.3704C87.5148 96.6584 86.9748 96.8024 86.3748 96.8024ZM86.3748 95.8784C86.7508 95.8784 87.0988 95.7864 87.4188 95.6024C87.7468 95.4104 88.0068 95.1384 88.1988 94.7864C88.3988 94.4344 88.4988 94.0224 88.4988 93.5504C88.4988 93.0784 88.3988 92.6664 88.1988 92.3144C88.0068 91.9624 87.7468 91.6944 87.4188 91.5104C87.0988 91.3184 86.7508 91.2224 86.3748 91.2224C85.9988 91.2224 85.6468 91.3184 85.3188 91.5104C84.9908 91.6944 84.7268 91.9624 84.5268 92.3144C84.3348 92.6664 84.2388 93.0784 84.2388 93.5504C84.2388 94.0224 84.3348 94.4344 84.5268 94.7864C84.7268 95.1384 84.9908 95.4104 85.3188 95.6024C85.6468 95.7864 85.9988 95.8784 86.3748 95.8784ZM97.494 96.8024C96.662 96.8024 95.906 96.6064 95.226 96.2144C94.546 95.8224 94.01 95.2864 93.618 94.6064C93.234 93.9184 93.042 93.1544 93.042 92.3144C93.042 91.4744 93.234 90.7144 93.618 90.0344C94.01 89.3464 94.546 88.8064 95.226 88.4144C95.906 88.0224 96.662 87.8264 97.494 87.8264C98.134 87.8264 98.718 87.9504 99.246 88.1984C99.782 88.4384 100.246 88.7824 100.638 89.2304L99.906 89.9384C99.578 89.5464 99.218 89.2584 98.826 89.0744C98.442 88.8904 97.998 88.7984 97.494 88.7984C96.87 88.7984 96.298 88.9464 95.778 89.2424C95.258 89.5304 94.842 89.9424 94.53 90.4784C94.226 91.0064 94.074 91.6184 94.074 92.3144C94.074 93.0104 94.226 93.6264 94.53 94.1624C94.842 94.6904 95.258 95.1024 95.778 95.3984C96.298 95.6864 96.87 95.8304 97.494 95.8304C98.534 95.8304 99.418 95.4024 100.146 94.5464L100.89 95.2664C100.49 95.7384 99.998 96.1144 99.414 96.3944C98.83 96.6664 98.19 96.8024 97.494 96.8024ZM102.035 88.0184H103.055V90.5504L103.007 91.3904H103.055C103.223 91.0784 103.487 90.8184 103.847 90.6104C104.215 90.4024 104.615 90.2984 105.047 90.2984C105.791 90.2984 106.359 90.5184 106.751 90.9584C107.143 91.3904 107.339 91.9664 107.339 92.6864V96.6104H106.319V92.8424C106.319 92.2904 106.179 91.8824 105.899 91.6184C105.619 91.3544 105.255 91.2224 104.807 91.2224C104.487 91.2224 104.191 91.3184 103.919 91.5104C103.655 91.7024 103.443 91.9504 103.283 92.2544C103.131 92.5584 103.055 92.8744 103.055 93.2024V96.6104H102.035V88.0184ZM110.706 96.8024C110.258 96.8024 109.858 96.7144 109.506 96.5384C109.154 96.3624 108.882 96.1224 108.69 95.8184C108.498 95.5064 108.402 95.1544 108.402 94.7624C108.402 94.1144 108.646 93.6104 109.134 93.2504C109.622 92.8824 110.238 92.6984 110.982 92.6984C111.35 92.6984 111.69 92.7384 112.002 92.8184C112.322 92.8984 112.566 92.9904 112.734 93.0944V92.7224C112.734 92.2664 112.574 91.9024 112.254 91.6304C111.934 91.3504 111.53 91.2104 111.042 91.2104C110.698 91.2104 110.382 91.2864 110.094 91.4384C109.806 91.5824 109.578 91.7864 109.41 92.0504L108.642 91.4744C108.882 91.1064 109.21 90.8184 109.626 90.6104C110.05 90.4024 110.518 90.2984 111.03 90.2984C111.862 90.2984 112.514 90.5184 112.986 90.9584C113.466 91.3904 113.706 91.9824 113.706 92.7344V96.6104H112.734V95.7344H112.686C112.51 96.0304 112.246 96.2824 111.894 96.4904C111.542 96.6984 111.146 96.8024 110.706 96.8024ZM110.802 95.9024C111.146 95.9024 111.466 95.8144 111.762 95.6384C112.058 95.4624 112.294 95.2264 112.47 94.9304C112.646 94.6344 112.734 94.3104 112.734 93.9584C112.542 93.8304 112.306 93.7264 112.026 93.6464C111.746 93.5664 111.45 93.5264 111.138 93.5264C110.578 93.5264 110.154 93.6424 109.866 93.8744C109.586 94.1064 109.446 94.4064 109.446 94.7744C109.446 95.1104 109.574 95.3824 109.83 95.5904C110.086 95.7984 110.41 95.9024 110.802 95.9024ZM114.336 90.4904H115.428L117.324 95.4104H117.348L119.268 90.4904H120.336L117.84 96.6104H116.808L114.336 90.4904ZM123.011 96.8024C122.563 96.8024 122.163 96.7144 121.811 96.5384C121.459 96.3624 121.187 96.1224 120.995 95.8184C120.803 95.5064 120.707 95.1544 120.707 94.7624C120.707 94.1144 120.951 93.6104 121.439 93.2504C121.927 92.8824 122.543 92.6984 123.287 92.6984C123.655 92.6984 123.995 92.7384 124.307 92.8184C124.627 92.8984 124.871 92.9904 125.039 93.0944V92.7224C125.039 92.2664 124.879 91.9024 124.559 91.6304C124.239 91.3504 123.835 91.2104 123.347 91.2104C123.003 91.2104 122.687 91.2864 122.399 91.4384C122.111 91.5824 121.883 91.7864 121.715 92.0504L120.947 91.4744C121.187 91.1064 121.515 90.8184 121.931 90.6104C122.355 90.4024 122.823 90.2984 123.335 90.2984C124.167 90.2984 124.819 90.5184 125.291 90.9584C125.771 91.3904 126.011 91.9824 126.011 92.7344V96.6104H125.039V95.7344H124.991C124.815 96.0304 124.551 96.2824 124.199 96.4904C123.847 96.6984 123.451 96.8024 123.011 96.8024ZM123.107 95.9024C123.451 95.9024 123.771 95.8144 124.067 95.6384C124.363 95.4624 124.599 95.2264 124.775 94.9304C124.951 94.6344 125.039 94.3104 125.039 93.9584C124.847 93.8304 124.611 93.7264 124.331 93.6464C124.051 93.5664 123.755 93.5264 123.443 93.5264C122.883 93.5264 122.459 93.6424 122.171 93.8744C121.891 94.1064 121.751 94.4064 121.751 94.7744C121.751 95.1104 121.879 95.3824 122.135 95.5904C122.391 95.7984 122.715 95.9024 123.107 95.9024ZM127.43 90.4904H128.402V91.3904H128.45C128.618 91.0864 128.886 90.8304 129.254 90.6224C129.622 90.4064 130.014 90.2984 130.43 90.2984C131.166 90.2984 131.726 90.5144 132.11 90.9464C132.502 91.3704 132.698 91.9504 132.698 92.6864V96.6104H131.678V92.8424C131.678 92.2744 131.542 91.8624 131.27 91.6064C130.998 91.3504 130.626 91.2224 130.154 91.2224C129.826 91.2224 129.53 91.3144 129.266 91.4984C129.01 91.6824 128.81 91.9264 128.666 92.2304C128.522 92.5264 128.45 92.8384 128.45 93.1664V96.6104H127.43V90.4904ZM140.947 96.8024C140.115 96.8024 139.359 96.6064 138.679 96.2144C137.999 95.8224 137.463 95.2864 137.071 94.6064C136.687 93.9184 136.495 93.1544 136.495 92.3144C136.495 91.4744 136.687 90.7144 137.071 90.0344C137.463 89.3464 137.999 88.8064 138.679 88.4144C139.359 88.0224 140.115 87.8264 140.947 87.8264C141.587 87.8264 142.171 87.9504 142.699 88.1984C143.235 88.4384 143.699 88.7824 144.091 89.2304L143.359 89.9384C143.031 89.5464 142.671 89.2584 142.279 89.0744C141.895 88.8904 141.451 88.7984 140.947 88.7984C140.323 88.7984 139.751 88.9464 139.231 89.2424C138.711 89.5304 138.295 89.9424 137.983 90.4784C137.679 91.0064 137.527 91.6184 137.527 92.3144C137.527 93.0104 137.679 93.6264 137.983 94.1624C138.295 94.6904 138.711 95.1024 139.231 95.3984C139.751 95.6864 140.323 95.8304 140.947 95.8304C141.987 95.8304 142.871 95.4024 143.599 94.5464L144.343 95.2664C143.943 95.7384 143.451 96.1144 142.867 96.3944C142.283 96.6664 141.643 96.8024 140.947 96.8024ZM148.191 96.8024C147.591 96.8024 147.051 96.6584 146.571 96.3704C146.091 96.0824 145.715 95.6904 145.443 95.1944C145.179 94.6984 145.047 94.1504 145.047 93.5504C145.047 92.9504 145.179 92.4024 145.443 91.9064C145.715 91.4104 146.091 91.0184 146.571 90.7304C147.051 90.4424 147.591 90.2984 148.191 90.2984C148.791 90.2984 149.331 90.4424 149.811 90.7304C150.291 91.0184 150.663 91.4104 150.927 91.9064C151.199 92.4024 151.335 92.9504 151.335 93.5504C151.335 94.1504 151.199 94.6984 150.927 95.1944C150.663 95.6904 150.291 96.0824 149.811 96.3704C149.331 96.6584 148.791 96.8024 148.191 96.8024ZM148.191 95.8784C148.567 95.8784 148.915 95.7864 149.235 95.6024C149.563 95.4104 149.823 95.1384 150.015 94.7864C150.215 94.4344 150.315 94.0224 150.315 93.5504C150.315 93.0784 150.215 92.6664 150.015 92.3144C149.823 91.9624 149.563 91.6944 149.235 91.5104C148.915 91.3184 148.567 91.2224 148.191 91.2224C147.815 91.2224 147.463 91.3184 147.135 91.5104C146.807 91.6944 146.543 91.9624 146.343 92.3144C146.151 92.6664 146.055 93.0784 146.055 93.5504C146.055 94.0224 146.151 94.4344 146.343 94.7864C146.543 95.1384 146.807 95.4104 147.135 95.6024C147.463 95.7864 147.815 95.8784 148.191 95.8784ZM152.461 88.0184H153.481V96.6104H152.461V88.0184ZM154.992 88.0184H156.012V96.6104H154.992V88.0184ZM160.189 96.8024C159.605 96.8024 159.081 96.6624 158.617 96.3824C158.153 96.1024 157.789 95.7184 157.525 95.2304C157.269 94.7344 157.141 94.1784 157.141 93.5624C157.141 92.9704 157.261 92.4264 157.501 91.9304C157.749 91.4344 158.097 91.0384 158.545 90.7424C158.993 90.4464 159.513 90.2984 160.105 90.2984C160.705 90.2984 161.225 90.4344 161.665 90.7064C162.105 90.9704 162.441 91.3384 162.673 91.8104C162.913 92.2824 163.033 92.8224 163.033 93.4304C163.033 93.5504 163.021 93.6544 162.997 93.7424H158.161C158.185 94.2064 158.297 94.5984 158.497 94.9184C158.697 95.2384 158.949 95.4784 159.253 95.6384C159.565 95.7984 159.889 95.8784 160.225 95.8784C161.009 95.8784 161.613 95.5104 162.037 94.7744L162.901 95.1944C162.637 95.6904 162.277 96.0824 161.821 96.3704C161.373 96.6584 160.829 96.8024 160.189 96.8024ZM161.953 92.9024C161.937 92.6464 161.865 92.3904 161.737 92.1344C161.609 91.8784 161.405 91.6624 161.125 91.4864C160.853 91.3104 160.509 91.2224 160.093 91.2224C159.613 91.2224 159.205 91.3784 158.869 91.6904C158.541 91.9944 158.325 92.3984 158.221 92.9024H161.953ZM166.973 99.3944C166.253 99.3944 165.657 99.2264 165.185 98.8904C164.721 98.5544 164.409 98.1504 164.249 97.6784L165.173 97.2824C165.309 97.6344 165.533 97.9184 165.845 98.1344C166.165 98.3584 166.541 98.4704 166.973 98.4704C167.605 98.4704 168.093 98.2864 168.437 97.9184C168.789 97.5504 168.965 97.0304 168.965 96.3584V95.6744H168.917C168.717 95.9864 168.433 96.2424 168.065 96.4424C167.705 96.6344 167.293 96.7304 166.829 96.7304C166.301 96.7304 165.817 96.5944 165.377 96.3224C164.945 96.0504 164.601 95.6704 164.345 95.1824C164.089 94.6944 163.961 94.1384 163.961 93.5144C163.961 92.8984 164.089 92.3464 164.345 91.8584C164.601 91.3624 164.945 90.9784 165.377 90.7064C165.817 90.4344 166.301 90.2984 166.829 90.2984C167.293 90.2984 167.705 90.3984 168.065 90.5984C168.433 90.7904 168.717 91.0464 168.917 91.3664H168.965V90.4904H169.937V96.3704C169.937 97.3544 169.665 98.1024 169.121 98.6144C168.577 99.1344 167.861 99.3944 166.973 99.3944ZM166.973 95.8064C167.341 95.8064 167.673 95.7144 167.969 95.5304C168.273 95.3464 168.513 95.0824 168.689 94.7384C168.873 94.3944 168.965 93.9864 168.965 93.5144C168.965 93.0344 168.873 92.6224 168.689 92.2784C168.513 91.9344 168.273 91.6744 167.969 91.4984C167.673 91.3144 167.341 91.2224 166.973 91.2224C166.605 91.2224 166.269 91.3144 165.965 91.4984C165.661 91.6824 165.417 91.9464 165.233 92.2904C165.057 92.6344 164.969 93.0424 164.969 93.5144C164.969 93.9864 165.057 94.3984 165.233 94.7504C165.417 95.0944 165.661 95.3584 165.965 95.5424C166.269 95.7184 166.605 95.8064 166.973 95.8064ZM174.111 96.8024C173.527 96.8024 173.003 96.6624 172.539 96.3824C172.075 96.1024 171.711 95.7184 171.447 95.2304C171.191 94.7344 171.063 94.1784 171.063 93.5624C171.063 92.9704 171.183 92.4264 171.423 91.9304C171.671 91.4344 172.019 91.0384 172.467 90.7424C172.915 90.4464 173.435 90.2984 174.027 90.2984C174.627 90.2984 175.147 90.4344 175.587 90.7064C176.027 90.9704 176.363 91.3384 176.595 91.8104C176.835 92.2824 176.955 92.8224 176.955 93.4304C176.955 93.5504 176.943 93.6544 176.919 93.7424H172.083C172.107 94.2064 172.219 94.5984 172.419 94.9184C172.619 95.2384 172.871 95.4784 173.175 95.6384C173.487 95.7984 173.811 95.8784 174.147 95.8784C174.931 95.8784 175.535 95.5104 175.959 94.7744L176.823 95.1944C176.559 95.6904 176.199 96.0824 175.743 96.3704C175.295 96.6584 174.751 96.8024 174.111 96.8024ZM175.875 92.9024C175.859 92.6464 175.787 92.3904 175.659 92.1344C175.531 91.8784 175.327 91.6624 175.047 91.4864C174.775 91.3104 174.431 91.2224 174.015 91.2224C173.535 91.2224 173.127 91.3784 172.791 91.6904C172.463 91.9944 172.247 92.3984 172.143 92.9024H175.875ZM183.758 96.8024C183.158 96.8024 182.618 96.6584 182.138 96.3704C181.658 96.0824 181.282 95.6904 181.01 95.1944C180.746 94.6984 180.614 94.1504 180.614 93.5504C180.614 92.9504 180.746 92.4024 181.01 91.9064C181.282 91.4104 181.658 91.0184 182.138 90.7304C182.618 90.4424 183.158 90.2984 183.758 90.2984C184.358 90.2984 184.898 90.4424 185.378 90.7304C185.858 91.0184 186.23 91.4104 186.494 91.9064C186.766 92.4024 186.902 92.9504 186.902 93.5504C186.902 94.1504 186.766 94.6984 186.494 95.1944C186.23 95.6904 185.858 96.0824 185.378 96.3704C184.898 96.6584 184.358 96.8024 183.758 96.8024ZM183.758 95.8784C184.134 95.8784 184.482 95.7864 184.802 95.6024C185.13 95.4104 185.39 95.1384 185.582 94.7864C185.782 94.4344 185.882 94.0224 185.882 93.5504C185.882 93.0784 185.782 92.6664 185.582 92.3144C185.39 91.9624 185.13 91.6944 184.802 91.5104C184.482 91.3184 184.134 91.2224 183.758 91.2224C183.382 91.2224 183.03 91.3184 182.702 91.5104C182.374 91.6944 182.11 91.9624 181.91 92.3144C181.718 92.6664 181.622 93.0784 181.622 93.5504C181.622 94.0224 181.718 94.4344 181.91 94.7864C182.11 95.1384 182.374 95.4104 182.702 95.6024C183.03 95.7864 183.382 95.8784 183.758 95.8784ZM188.618 91.4144H187.49V90.4904H188.618V89.8304C188.618 89.4464 188.706 89.1104 188.882 88.8224C189.058 88.5344 189.294 88.3144 189.59 88.1624C189.886 88.0024 190.214 87.9224 190.574 87.9224C190.918 87.9224 191.218 87.9704 191.474 88.0664V89.0624C191.33 89.0064 191.194 88.9624 191.066 88.9304C190.938 88.8904 190.786 88.8704 190.61 88.8704C190.346 88.8704 190.118 88.9664 189.926 89.1584C189.734 89.3424 189.638 89.6024 189.638 89.9384V90.4904H191.21V91.4144H189.638V96.6104H188.618V91.4144ZM195.45 88.0184H200.418V88.9904H196.458V91.8344H200.034V92.7944H196.458V95.6384H200.418V96.6104H195.45V88.0184ZM201.738 90.4904H202.71V91.3904H202.758C202.926 91.0864 203.194 90.8304 203.562 90.6224C203.93 90.4064 204.322 90.2984 204.738 90.2984C205.474 90.2984 206.034 90.5144 206.418 90.9464C206.81 91.3704 207.006 91.9504 207.006 92.6864V96.6104H205.986V92.8424C205.986 92.2744 205.85 91.8624 205.578 91.6064C205.306 91.3504 204.934 91.2224 204.462 91.2224C204.134 91.2224 203.838 91.3144 203.574 91.4984C203.318 91.6824 203.118 91.9264 202.974 92.2304C202.83 92.5264 202.758 92.8384 202.758 93.1664V96.6104H201.738V90.4904ZM211.094 99.3944C210.374 99.3944 209.778 99.2264 209.306 98.8904C208.842 98.5544 208.53 98.1504 208.37 97.6784L209.294 97.2824C209.43 97.6344 209.654 97.9184 209.966 98.1344C210.286 98.3584 210.662 98.4704 211.094 98.4704C211.726 98.4704 212.214 98.2864 212.558 97.9184C212.91 97.5504 213.086 97.0304 213.086 96.3584V95.6744H213.038C212.838 95.9864 212.554 96.2424 212.186 96.4424C211.826 96.6344 211.414 96.7304 210.95 96.7304C210.422 96.7304 209.938 96.5944 209.498 96.3224C209.066 96.0504 208.722 95.6704 208.466 95.1824C208.21 94.6944 208.082 94.1384 208.082 93.5144C208.082 92.8984 208.21 92.3464 208.466 91.8584C208.722 91.3624 209.066 90.9784 209.498 90.7064C209.938 90.4344 210.422 90.2984 210.95 90.2984C211.414 90.2984 211.826 90.3984 212.186 90.5984C212.554 90.7904 212.838 91.0464 213.038 91.3664H213.086V90.4904H214.058V96.3704C214.058 97.3544 213.786 98.1024 213.242 98.6144C212.698 99.1344 211.982 99.3944 211.094 99.3944ZM211.094 95.8064C211.462 95.8064 211.794 95.7144 212.09 95.5304C212.394 95.3464 212.634 95.0824 212.81 94.7384C212.994 94.3944 213.086 93.9864 213.086 93.5144C213.086 93.0344 212.994 92.6224 212.81 92.2784C212.634 91.9344 212.394 91.6744 212.09 91.4984C211.794 91.3144 211.462 91.2224 211.094 91.2224C210.726 91.2224 210.39 91.3144 210.086 91.4984C209.782 91.6824 209.538 91.9464 209.354 92.2904C209.178 92.6344 209.09 93.0424 209.09 93.5144C209.09 93.9864 209.178 94.3984 209.354 94.7504C209.538 95.0944 209.782 95.3584 210.086 95.5424C210.39 95.7184 210.726 95.8064 211.094 95.8064ZM216.167 89.3624C215.967 89.3624 215.795 89.2904 215.651 89.1464C215.507 89.0024 215.435 88.8304 215.435 88.6304C215.435 88.4304 215.507 88.2624 215.651 88.1264C215.795 87.9824 215.967 87.9104 216.167 87.9104C216.367 87.9104 216.539 87.9824 216.683 88.1264C216.827 88.2624 216.899 88.4304 216.899 88.6304C216.899 88.8304 216.827 89.0024 216.683 89.1464C216.547 89.2904 216.375 89.3624 216.167 89.3624ZM215.663 90.4904H216.671V96.6104H215.663V90.4904ZM218.274 90.4904H219.246V91.3904H219.294C219.462 91.0864 219.73 90.8304 220.098 90.6224C220.466 90.4064 220.858 90.2984 221.274 90.2984C222.01 90.2984 222.57 90.5144 222.954 90.9464C223.346 91.3704 223.542 91.9504 223.542 92.6864V96.6104H222.522V92.8424C222.522 92.2744 222.386 91.8624 222.114 91.6064C221.842 91.3504 221.47 91.2224 220.998 91.2224C220.67 91.2224 220.374 91.3144 220.11 91.4984C219.854 91.6824 219.654 91.9264 219.51 92.2304C219.366 92.5264 219.294 92.8384 219.294 93.1664V96.6104H218.274V90.4904ZM227.724 96.8024C227.14 96.8024 226.616 96.6624 226.152 96.3824C225.688 96.1024 225.324 95.7184 225.06 95.2304C224.804 94.7344 224.676 94.1784 224.676 93.5624C224.676 92.9704 224.796 92.4264 225.036 91.9304C225.284 91.4344 225.632 91.0384 226.08 90.7424C226.528 90.4464 227.048 90.2984 227.64 90.2984C228.24 90.2984 228.76 90.4344 229.2 90.7064C229.64 90.9704 229.976 91.3384 230.208 91.8104C230.448 92.2824 230.568 92.8224 230.568 93.4304C230.568 93.5504 230.556 93.6544 230.532 93.7424H225.696C225.72 94.2064 225.832 94.5984 226.032 94.9184C226.232 95.2384 226.484 95.4784 226.788 95.6384C227.1 95.7984 227.424 95.8784 227.76 95.8784C228.544 95.8784 229.148 95.5104 229.572 94.7744L230.436 95.1944C230.172 95.6904 229.812 96.0824 229.356 96.3704C228.908 96.6584 228.364 96.8024 227.724 96.8024ZM229.488 92.9024C229.472 92.6464 229.4 92.3904 229.272 92.1344C229.144 91.8784 228.94 91.6624 228.66 91.4864C228.388 91.3104 228.044 91.2224 227.628 91.2224C227.148 91.2224 226.74 91.3784 226.404 91.6904C226.076 91.9944 225.86 92.3984 225.756 92.9024H229.488ZM234.544 96.8024C233.96 96.8024 233.436 96.6624 232.972 96.3824C232.508 96.1024 232.144 95.7184 231.88 95.2304C231.624 94.7344 231.496 94.1784 231.496 93.5624C231.496 92.9704 231.616 92.4264 231.856 91.9304C232.104 91.4344 232.452 91.0384 232.9 90.7424C233.348 90.4464 233.868 90.2984 234.46 90.2984C235.06 90.2984 235.58 90.4344 236.02 90.7064C236.46 90.9704 236.796 91.3384 237.028 91.8104C237.268 92.2824 237.388 92.8224 237.388 93.4304C237.388 93.5504 237.376 93.6544 237.352 93.7424H232.516C232.54 94.2064 232.652 94.5984 232.852 94.9184C233.052 95.2384 233.304 95.4784 233.608 95.6384C233.92 95.7984 234.244 95.8784 234.58 95.8784C235.364 95.8784 235.968 95.5104 236.392 94.7744L237.256 95.1944C236.992 95.6904 236.632 96.0824 236.176 96.3704C235.728 96.6584 235.184 96.8024 234.544 96.8024ZM236.308 92.9024C236.292 92.6464 236.22 92.3904 236.092 92.1344C235.964 91.8784 235.76 91.6624 235.48 91.4864C235.208 91.3104 234.864 91.2224 234.448 91.2224C233.968 91.2224 233.56 91.3784 233.224 91.6904C232.896 91.9944 232.68 92.3984 232.576 92.9024H236.308ZM238.582 90.4904H239.554V91.4744H239.602C239.722 91.1384 239.954 90.8624 240.298 90.6464C240.642 90.4224 241.002 90.3104 241.378 90.3104C241.658 90.3104 241.898 90.3504 242.098 90.4304V91.5344C241.842 91.4064 241.554 91.3424 241.234 91.3424C240.938 91.3424 240.666 91.4264 240.418 91.5944C240.17 91.7624 239.97 91.9904 239.818 92.2784C239.674 92.5584 239.602 92.8624 239.602 93.1904V96.6104H238.582V90.4904ZM243.682 89.3624C243.482 89.3624 243.31 89.2904 243.166 89.1464C243.022 89.0024 242.95 88.8304 242.95 88.6304C242.95 88.4304 243.022 88.2624 243.166 88.1264C243.31 87.9824 243.482 87.9104 243.682 87.9104C243.882 87.9104 244.054 87.9824 244.198 88.1264C244.342 88.2624 244.414 88.4304 244.414 88.6304C244.414 88.8304 244.342 89.0024 244.198 89.1464C244.062 89.2904 243.89 89.3624 243.682 89.3624ZM243.178 90.4904H244.186V96.6104H243.178V90.4904ZM245.789 90.4904H246.761V91.3904H246.809C246.977 91.0864 247.245 90.8304 247.613 90.6224C247.981 90.4064 248.373 90.2984 248.789 90.2984C249.525 90.2984 250.085 90.5144 250.469 90.9464C250.861 91.3704 251.057 91.9504 251.057 92.6864V96.6104H250.037V92.8424C250.037 92.2744 249.901 91.8624 249.629 91.6064C249.357 91.3504 248.985 91.2224 248.513 91.2224C248.185 91.2224 247.889 91.3144 247.625 91.4984C247.369 91.6824 247.169 91.9264 247.025 92.2304C246.881 92.5264 246.809 92.8384 246.809 93.1664V96.6104H245.789V90.4904ZM255.145 99.3944C254.425 99.3944 253.829 99.2264 253.357 98.8904C252.893 98.5544 252.581 98.1504 252.421 97.6784L253.345 97.2824C253.481 97.6344 253.705 97.9184 254.017 98.1344C254.337 98.3584 254.713 98.4704 255.145 98.4704C255.777 98.4704 256.265 98.2864 256.609 97.9184C256.961 97.5504 257.137 97.0304 257.137 96.3584V95.6744H257.089C256.889 95.9864 256.605 96.2424 256.237 96.4424C255.877 96.6344 255.465 96.7304 255.001 96.7304C254.473 96.7304 253.989 96.5944 253.549 96.3224C253.117 96.0504 252.773 95.6704 252.517 95.1824C252.261 94.6944 252.133 94.1384 252.133 93.5144C252.133 92.8984 252.261 92.3464 252.517 91.8584C252.773 91.3624 253.117 90.9784 253.549 90.7064C253.989 90.4344 254.473 90.2984 255.001 90.2984C255.465 90.2984 255.877 90.3984 256.237 90.5984C256.605 90.7904 256.889 91.0464 257.089 91.3664H257.137V90.4904H258.109V96.3704C258.109 97.3544 257.837 98.1024 257.293 98.6144C256.749 99.1344 256.033 99.3944 255.145 99.3944ZM255.145 95.8064C255.513 95.8064 255.845 95.7144 256.141 95.5304C256.445 95.3464 256.685 95.0824 256.861 94.7384C257.045 94.3944 257.137 93.9864 257.137 93.5144C257.137 93.0344 257.045 92.6224 256.861 92.2784C256.685 91.9344 256.445 91.6744 256.141 91.4984C255.845 91.3144 255.513 91.2224 255.145 91.2224C254.777 91.2224 254.441 91.3144 254.137 91.4984C253.833 91.6824 253.589 91.9464 253.405 92.2904C253.229 92.6344 253.141 93.0424 253.141 93.5144C253.141 93.9864 253.229 94.3984 253.405 94.7504C253.589 95.0944 253.833 95.3584 254.137 95.5424C254.441 95.7184 254.777 95.8064 255.145 95.8064Z" fill="white"/>
</svg>
