<svg width="304" height="120" viewBox="0 0 304 120" fill="none" xmlns="http://www.w3.org/2000/svg">
<rect width="304" height="120" rx="6" fill="#313235"/>
<path d="M23.0871 75.1405C21.9783 75.1405 20.9564 74.8742 20.0216 74.3415C19.0867 73.8089 18.342 73.0805 17.7876 72.1565C17.2441 71.2217 16.9723 70.1835 16.9723 69.0421C16.9723 67.9007 17.2441 66.8679 17.7876 65.9439C18.342 65.0091 19.0867 64.2753 20.0216 63.7426C20.9564 63.21 21.9783 62.9436 23.0871 62.9436C23.9676 62.9436 24.7884 63.1012 25.5493 63.4165C26.3102 63.7317 26.9462 64.172 27.4571 64.7373L26.1852 66.0092C25.8048 65.5852 25.3482 65.2591 24.8155 65.0308C24.2937 64.8025 23.7122 64.6884 23.0708 64.6884C22.3207 64.6884 21.6195 64.8677 20.9673 65.2265C20.3151 65.5852 19.7933 66.0961 19.4019 66.7592C19.0106 67.4223 18.8149 68.1833 18.8149 69.0421C18.8149 69.9009 19.0106 70.6618 19.4019 71.3249C19.7933 71.988 20.3151 72.499 20.9673 72.8577C21.6195 73.2164 22.3261 73.3958 23.0871 73.3958C23.7828 73.3958 24.3644 73.2925 24.8318 73.086C25.2993 72.8794 25.7178 72.6022 26.0874 72.2544C26.3266 72.0152 26.5277 71.7163 26.6907 71.3575C26.8647 70.9988 26.9788 70.6075 27.0332 70.1835H23.0708V68.5529H28.7616C28.8159 68.8573 28.8431 69.1725 28.8431 69.4986C28.8431 70.2379 28.729 70.9499 28.5007 71.6347C28.2724 72.3087 27.9082 72.8957 27.4082 73.3958C26.3102 74.559 24.8699 75.1405 23.0871 75.1405ZM34.4753 75.1405C33.6383 75.1405 32.8882 74.9503 32.2251 74.5698C31.562 74.1785 31.0456 73.6458 30.676 72.9718C30.3064 72.2979 30.1216 71.5478 30.1216 70.7216C30.1216 69.8954 30.3064 69.1454 30.676 68.4714C31.0456 67.7974 31.562 67.2702 32.2251 66.8897C32.8882 66.4983 33.6383 66.3027 34.4753 66.3027C35.3124 66.3027 36.0624 66.4983 36.7256 66.8897C37.3887 67.281 37.905 67.8137 38.2746 68.4877C38.6442 69.1617 38.829 69.9063 38.829 70.7216C38.829 71.5478 38.6442 72.2979 38.2746 72.9718C37.905 73.6458 37.3887 74.1785 36.7256 74.5698C36.0624 74.9503 35.3124 75.1405 34.4753 75.1405ZM34.4753 73.4936C34.9319 73.4936 35.3559 73.3849 35.7472 73.1675C36.1385 72.9392 36.4484 72.6185 36.6766 72.2054C36.9158 71.7815 37.0354 71.2869 37.0354 70.7216C37.0354 70.1563 36.9158 69.6671 36.6766 69.2541C36.4484 68.841 36.1385 68.5257 35.7472 68.3083C35.3559 68.08 34.9319 67.9659 34.4753 67.9659C34.0188 67.9659 33.5948 68.08 33.2035 68.3083C32.8121 68.5257 32.4969 68.841 32.2577 69.2541C32.0294 69.6671 31.9153 70.1563 31.9153 70.7216C31.9153 71.2869 32.0294 71.7815 32.2577 72.2054C32.4969 72.6185 32.8121 72.9392 33.2035 73.1675C33.5948 73.3849 34.0188 73.4936 34.4753 73.4936ZM44.38 75.1405C43.5429 75.1405 42.7928 74.9503 42.1297 74.5698C41.4666 74.1785 40.9503 73.6458 40.5807 72.9718C40.2111 72.2979 40.0263 71.5478 40.0263 70.7216C40.0263 69.8954 40.2111 69.1454 40.5807 68.4714C40.9503 67.7974 41.4666 67.2702 42.1297 66.8897C42.7928 66.4983 43.5429 66.3027 44.38 66.3027C45.217 66.3027 45.9671 66.4983 46.6302 66.8897C47.2933 67.281 47.8097 67.8137 48.1793 68.4877C48.5489 69.1617 48.7337 69.9063 48.7337 70.7216C48.7337 71.5478 48.5489 72.2979 48.1793 72.9718C47.8097 73.6458 47.2933 74.1785 46.6302 74.5698C45.9671 74.9503 45.217 75.1405 44.38 75.1405ZM44.38 73.4936C44.8365 73.4936 45.2605 73.3849 45.6518 73.1675C46.0432 72.9392 46.353 72.6185 46.5813 72.2054C46.8204 71.7815 46.94 71.2869 46.94 70.7216C46.94 70.1563 46.8204 69.6671 46.5813 69.2541C46.353 68.841 46.0432 68.5257 45.6518 68.3083C45.2605 68.08 44.8365 67.9659 44.38 67.9659C43.9234 67.9659 43.4994 68.08 43.1081 68.3083C42.7167 68.5257 42.4015 68.841 42.1623 69.2541C41.9341 69.6671 41.8199 70.1563 41.8199 70.7216C41.8199 71.2869 41.9341 71.7815 42.1623 72.2054C42.4015 72.6185 42.7167 72.9392 43.1081 73.1675C43.4994 73.3849 43.9234 73.4936 44.38 73.4936ZM54.1378 78.6626C53.116 78.6626 52.2681 78.4289 51.5941 77.9615C50.931 77.494 50.4853 76.9396 50.257 76.2983L51.9365 75.5971C52.1105 76.0319 52.3877 76.3798 52.7681 76.6407C53.1595 76.9125 53.6161 77.0483 54.1378 77.0483C54.8988 77.0483 55.4912 76.8201 55.9152 76.3635C56.35 75.9178 56.5674 75.2873 56.5674 74.472V73.7056H56.4696C56.1978 74.0969 55.8337 74.4068 55.3771 74.635C54.9314 74.8525 54.4151 74.9612 53.828 74.9612C53.1323 74.9612 52.4855 74.7818 51.8876 74.4231C51.2897 74.0643 50.8114 73.5589 50.4527 72.9066C50.1048 72.2435 49.9309 71.488 49.9309 70.6401C49.9309 69.7922 50.1048 69.0421 50.4527 68.3898C50.8114 67.7267 51.2897 67.2158 51.8876 66.8571C52.4855 66.4875 53.1323 66.3027 53.828 66.3027C54.4042 66.3027 54.9205 66.4168 55.3771 66.6451C55.8337 66.8734 56.1978 67.1832 56.4696 67.5745H56.5674V66.5636H58.2796V74.4231C58.2796 75.3253 58.1057 76.0917 57.7578 76.7222C57.4099 77.3636 56.9207 77.8473 56.2902 78.1735C55.6706 78.4996 54.9532 78.6626 54.1378 78.6626ZM54.1542 73.3306C54.589 73.3306 54.9912 73.2273 55.3608 73.0208C55.7304 72.8033 56.0239 72.4935 56.2413 72.0913C56.4587 71.6782 56.5674 71.1945 56.5674 70.6401C56.5674 69.7922 56.3337 69.1345 55.8663 68.667C55.4097 68.1887 54.839 67.9496 54.1542 67.9496C53.7085 67.9496 53.3008 68.0583 52.9312 68.2757C52.5616 68.4822 52.2681 68.7866 52.0507 69.1888C51.8333 69.591 51.7246 70.0748 51.7246 70.6401C51.7246 71.2053 51.8333 71.6891 52.0507 72.0913C52.2681 72.4935 52.5616 72.8033 52.9312 73.0208C53.3008 73.2273 53.7085 73.3306 54.1542 73.3306ZM60.3876 63.2045H62.1813V74.8796H60.3876V63.2045ZM68.0087 75.1405C67.1934 75.1405 66.4596 74.9503 65.8074 74.5698C65.166 74.1894 64.6605 73.6676 64.2909 73.0044C63.9322 72.3305 63.7528 71.5749 63.7528 70.7379C63.7528 69.9443 63.9267 69.2106 64.2746 68.5366C64.6333 67.8517 65.1279 67.3082 65.7584 66.906C66.3889 66.5038 67.1064 66.3027 67.9108 66.3027C68.7479 66.3027 69.4708 66.4875 70.0795 66.8571C70.6992 67.2267 71.1666 67.7322 71.4819 68.3735C71.808 69.0149 71.971 69.7378 71.971 70.5422C71.971 70.6944 71.9547 70.8847 71.9221 71.1129H65.5465C65.6117 71.8848 65.8835 72.4827 66.3618 72.9066C66.8509 73.3197 67.4162 73.5262 68.0576 73.5262C68.5685 73.5262 69.0088 73.4121 69.3784 73.1838C69.7589 72.9447 70.0632 72.624 70.2915 72.2218L71.808 72.9392C71.4166 73.6241 70.9057 74.1622 70.2752 74.5535C69.6447 74.9449 68.8892 75.1405 68.0087 75.1405ZM70.1448 69.7432C70.123 69.4497 70.0306 69.1617 69.8676 68.879C69.7045 68.5855 69.4545 68.3409 69.1175 68.1452C68.7914 67.9496 68.3892 67.8517 67.9108 67.8517C67.3347 67.8517 66.8455 68.0257 66.4433 68.3735C66.052 68.7105 65.7802 69.1671 65.628 69.7432H70.1448ZM77.7197 63.2045H81.4538C82.6604 63.2045 83.7149 63.4491 84.6171 63.9383C85.5194 64.4275 86.2097 65.1178 86.688 66.0092C87.1772 66.8897 87.4218 67.9007 87.4218 69.0421C87.4218 70.1835 87.1772 71.1999 86.688 72.0913C86.2097 72.9718 85.5194 73.6567 84.6171 74.1459C83.7149 74.635 82.6604 74.8796 81.4538 74.8796H77.7197V63.2045ZM81.4212 73.1349C82.7256 73.1349 83.742 72.7762 84.4704 72.0587C85.2096 71.3304 85.5792 70.3248 85.5792 69.0421C85.5792 67.7702 85.2096 66.7701 84.4704 66.0418C83.742 65.3134 82.7256 64.9493 81.4212 64.9493H79.546V73.1349H81.4212ZM92.7703 75.1405C91.955 75.1405 91.2212 74.9503 90.569 74.5698C89.9276 74.1894 89.4221 73.6676 89.0525 73.0044C88.6938 72.3305 88.5144 71.5749 88.5144 70.7379C88.5144 69.9443 88.6883 69.2106 89.0362 68.5366C89.3949 67.8517 89.8895 67.3082 90.52 66.906C91.1505 66.5038 91.868 66.3027 92.6724 66.3027C93.5095 66.3027 94.2324 66.4875 94.8411 66.8571C95.4608 67.2267 95.9282 67.7322 96.2435 68.3735C96.5696 69.0149 96.7326 69.7378 96.7326 70.5422C96.7326 70.6944 96.7163 70.8847 96.6837 71.1129H90.3081C90.3733 71.8848 90.6451 72.4827 91.1234 72.9066C91.6125 73.3197 92.1778 73.5262 92.8192 73.5262C93.3301 73.5262 93.7704 73.4121 94.14 73.1838C94.5205 72.9447 94.8248 72.624 95.0531 72.2218L96.5696 72.9392C96.1782 73.6241 95.6673 74.1622 95.0368 74.5535C94.4063 74.9449 93.6508 75.1405 92.7703 75.1405ZM94.9064 69.7432C94.8846 69.4497 94.7922 69.1617 94.6292 68.879C94.4661 68.5855 94.2161 68.3409 93.8791 68.1452C93.553 67.9496 93.1507 67.8517 92.6724 67.8517C92.0963 67.8517 91.6071 68.0257 91.2049 68.3735C90.8136 68.7105 90.5418 69.1671 90.3896 69.7432H94.9064ZM97.2774 66.5636H99.283L101.582 72.5642H101.647L103.995 66.5636H105.952L102.495 74.8796H100.702L97.2774 66.5636ZM110.669 75.1405C109.853 75.1405 109.12 74.9503 108.467 74.5698C107.826 74.1894 107.321 73.6676 106.951 73.0044C106.592 72.3305 106.413 71.5749 106.413 70.7379C106.413 69.9443 106.587 69.2106 106.935 68.5366C107.293 67.8517 107.788 67.3082 108.418 66.906C109.049 66.5038 109.766 66.3027 110.571 66.3027C111.408 66.3027 112.131 66.4875 112.74 66.8571C113.359 67.2267 113.827 67.7322 114.142 68.3735C114.468 69.0149 114.631 69.7378 114.631 70.5422C114.631 70.6944 114.615 70.8847 114.582 71.1129H108.206C108.272 71.8848 108.543 72.4827 109.022 72.9066C109.511 73.3197 110.076 73.5262 110.718 73.5262C111.229 73.5262 111.669 73.4121 112.038 73.1838C112.419 72.9447 112.723 72.624 112.952 72.2218L114.468 72.9392C114.077 73.6241 113.566 74.1622 112.935 74.5535C112.305 74.9449 111.549 75.1405 110.669 75.1405ZM112.805 69.7432C112.783 69.4497 112.691 69.1617 112.528 68.879C112.365 68.5855 112.114 68.3409 111.777 68.1452C111.451 67.9496 111.049 67.8517 110.571 67.8517C109.995 67.8517 109.506 68.0257 109.103 68.3735C108.712 68.7105 108.44 69.1671 108.288 69.7432H112.805ZM116.264 63.2045H118.058V74.8796H116.264V63.2045ZM123.983 75.1405C123.146 75.1405 122.396 74.9503 121.733 74.5698C121.07 74.1785 120.554 73.6458 120.184 72.9718C119.814 72.2979 119.63 71.5478 119.63 70.7216C119.63 69.8954 119.814 69.1454 120.184 68.4714C120.554 67.7974 121.07 67.2702 121.733 66.8897C122.396 66.4983 123.146 66.3027 123.983 66.3027C124.82 66.3027 125.57 66.4983 126.234 66.8897C126.897 67.281 127.413 67.8137 127.783 68.4877C128.152 69.1617 128.337 69.9063 128.337 70.7216C128.337 71.5478 128.152 72.2979 127.783 72.9718C127.413 73.6458 126.897 74.1785 126.234 74.5698C125.57 74.9503 124.82 75.1405 123.983 75.1405ZM123.983 73.4936C124.44 73.4936 124.864 73.3849 125.255 73.1675C125.647 72.9392 125.956 72.6185 126.185 72.2054C126.424 71.7815 126.543 71.2869 126.543 70.7216C126.543 70.1563 126.424 69.6671 126.185 69.2541C125.956 68.841 125.647 68.5257 125.255 68.3083C124.864 68.08 124.44 67.9659 123.983 67.9659C123.527 67.9659 123.103 68.08 122.711 68.3083C122.32 68.5257 122.005 68.841 121.766 69.2541C121.537 69.6671 121.423 70.1563 121.423 70.7216C121.423 71.2869 121.537 71.7815 121.766 72.2054C122.005 72.6185 122.32 72.9392 122.711 73.1675C123.103 73.3849 123.527 73.4936 123.983 73.4936ZM129.846 66.5636H131.558V67.6561H131.64C131.879 67.2756 132.232 66.9549 132.7 66.694C133.167 66.4331 133.694 66.3027 134.281 66.3027C135.031 66.3027 135.711 66.4929 136.319 66.8734C136.928 67.2539 137.407 67.7811 137.754 68.4551C138.113 69.1182 138.293 69.8737 138.293 70.7216C138.293 71.5695 138.113 72.3305 137.754 73.0044C137.407 73.6676 136.928 74.1894 136.319 74.5698C135.711 74.9503 135.031 75.1405 134.281 75.1405C133.694 75.1405 133.167 75.0101 132.7 74.7492C132.232 74.4883 131.879 74.173 131.64 73.8034H131.558L131.64 74.9612V78.4017H129.846V66.5636ZM134.02 73.4936C134.455 73.4936 134.863 73.3795 135.243 73.1512C135.624 72.9229 135.928 72.5968 136.156 72.1728C136.385 71.7489 136.499 71.2651 136.499 70.7216C136.499 70.1781 136.385 69.6998 136.156 69.2867C135.928 68.8627 135.624 68.5366 135.243 68.3083C134.863 68.08 134.455 67.9659 134.02 67.9659C133.586 67.9659 133.178 68.08 132.797 68.3083C132.428 68.5366 132.129 68.8627 131.901 69.2867C131.672 69.6998 131.558 70.1781 131.558 70.7216C131.558 71.2651 131.672 71.7489 131.901 72.1728C132.129 72.5968 132.428 72.9229 132.797 73.1512C133.178 73.3795 133.586 73.4936 134.02 73.4936ZM143.727 75.1405C142.911 75.1405 142.178 74.9503 141.525 74.5698C140.884 74.1894 140.378 73.6676 140.009 73.0044C139.65 72.3305 139.471 71.5749 139.471 70.7379C139.471 69.9443 139.645 69.2106 139.993 68.5366C140.351 67.8517 140.846 67.3082 141.476 66.906C142.107 66.5038 142.824 66.3027 143.629 66.3027C144.466 66.3027 145.189 66.4875 145.797 66.8571C146.417 67.2267 146.885 67.7322 147.2 68.3735C147.526 69.0149 147.689 69.7378 147.689 70.5422C147.689 70.6944 147.673 70.8847 147.64 71.1129H141.264C141.33 71.8848 141.601 72.4827 142.08 72.9066C142.569 73.3197 143.134 73.5262 143.776 73.5262C144.286 73.5262 144.727 73.4121 145.096 73.1838C145.477 72.9447 145.781 72.624 146.009 72.2218L147.526 72.9392C147.135 73.6241 146.624 74.1622 145.993 74.5535C145.363 74.9449 144.607 75.1405 143.727 75.1405ZM145.863 69.7432C145.841 69.4497 145.749 69.1617 145.586 68.879C145.422 68.5855 145.172 68.3409 144.835 68.1452C144.509 67.9496 144.107 67.8517 143.629 67.8517C143.053 67.8517 142.563 68.0257 142.161 68.3735C141.77 68.7105 141.498 69.1671 141.346 69.7432H145.863ZM149.322 66.5636H151.035V67.7865H151.116C151.301 67.3626 151.622 67.0147 152.078 66.7429C152.535 66.4603 153.018 66.319 153.529 66.319C153.932 66.319 154.269 66.3733 154.54 66.482V68.3409C154.062 68.167 153.633 68.08 153.252 68.08C152.839 68.08 152.469 68.1887 152.143 68.4061C151.828 68.6236 151.578 68.9171 151.393 69.2867C151.208 69.6454 151.116 70.0422 151.116 70.477V74.8796H149.322V66.5636ZM162.912 75.1405C161.944 75.1405 161.075 74.8579 160.303 74.2926C159.531 73.7273 158.998 72.9338 158.705 71.9119L160.433 71.2108C160.607 71.8522 160.912 72.3794 161.346 72.7925C161.792 73.1947 162.325 73.3958 162.944 73.3958C163.521 73.3958 164.01 73.249 164.412 72.9555C164.814 72.6511 165.015 72.2381 165.015 71.7163C165.015 71.238 164.836 70.8466 164.477 70.5422C164.129 70.227 163.515 69.9117 162.635 69.5965L161.901 69.3356C161.118 69.0638 160.46 68.6725 159.928 68.1616C159.395 67.6506 159.129 66.9766 159.129 66.1396C159.129 65.5635 159.286 65.0308 159.602 64.5416C159.917 64.0524 160.352 63.6665 160.906 63.3839C161.471 63.0904 162.107 62.9436 162.814 62.9436C163.836 62.9436 164.651 63.1936 165.26 63.6937C165.869 64.1829 166.276 64.7373 166.483 65.3569L164.836 66.0581C164.716 65.6885 164.488 65.3624 164.151 65.0797C163.814 64.7971 163.379 64.6558 162.847 64.6558C162.314 64.6558 161.863 64.7916 161.493 65.0634C161.134 65.3352 160.955 65.683 160.955 66.107C160.955 66.5092 161.118 66.8408 161.444 67.1017C161.77 67.3626 162.281 67.6126 162.977 67.8517L163.711 68.0963C164.711 68.4442 165.483 68.9008 166.026 69.466C166.581 70.0204 166.858 70.7651 166.858 71.7C166.858 72.4609 166.662 73.1023 166.271 73.6241C165.88 74.135 165.379 74.5155 164.771 74.7655C164.173 75.0155 163.553 75.1405 162.912 75.1405ZM171.648 75.0101C171.278 75.0101 170.93 74.9503 170.604 74.8307C170.278 74.7111 170.012 74.5535 169.805 74.3578C169.338 73.8904 169.104 73.2545 169.104 72.45V68.1452H167.653V66.5636H169.104V64.2155H170.898V66.5636H172.92V68.1452H170.898V72.0587C170.898 72.5044 170.985 72.8196 171.159 73.0044C171.322 73.2219 171.604 73.3306 172.007 73.3306C172.191 73.3306 172.354 73.3088 172.496 73.2653C172.637 73.211 172.789 73.1295 172.952 73.0208V74.7655C172.594 74.9286 172.159 75.0101 171.648 75.0101ZM177.658 75.1405C176.647 75.1405 175.876 74.8416 175.343 74.2437C174.821 73.6349 174.56 72.7925 174.56 71.7163V66.5636H176.354V71.4717C176.354 72.1457 176.511 72.6511 176.827 72.9881C177.153 73.3251 177.577 73.4936 178.099 73.4936C178.523 73.4936 178.898 73.3849 179.224 73.1675C179.55 72.9392 179.8 72.6403 179.974 72.2707C180.148 71.9011 180.235 71.5043 180.235 71.0803V66.5636H182.028V74.8796H180.333V73.8034H180.235C180.006 74.1948 179.653 74.5155 179.175 74.7655C178.696 75.0155 178.191 75.1405 177.658 75.1405ZM187.591 75.1405C186.841 75.1405 186.162 74.9503 185.553 74.5698C184.944 74.1894 184.46 73.6676 184.102 73.0044C183.754 72.3305 183.58 71.5695 183.58 70.7216C183.58 69.8737 183.754 69.1182 184.102 68.4551C184.46 67.7811 184.944 67.2539 185.553 66.8734C186.162 66.4929 186.841 66.3027 187.591 66.3027C188.178 66.3027 188.705 66.4331 189.173 66.694C189.64 66.9549 189.994 67.2756 190.233 67.6561H190.314L190.233 66.482V63.2045H192.026V74.8796H190.314V73.8034H190.233C189.994 74.173 189.64 74.4883 189.173 74.7492C188.705 75.0101 188.178 75.1405 187.591 75.1405ZM187.852 73.4936C188.287 73.4936 188.689 73.3795 189.059 73.1512C189.439 72.9229 189.744 72.5968 189.972 72.1728C190.2 71.7489 190.314 71.2651 190.314 70.7216C190.314 70.1781 190.2 69.6998 189.972 69.2867C189.744 68.8627 189.439 68.5366 189.059 68.3083C188.689 68.08 188.287 67.9659 187.852 67.9659C187.417 67.9659 187.01 68.08 186.629 68.3083C186.249 68.5366 185.944 68.8627 185.716 69.2867C185.488 69.6998 185.374 70.1781 185.374 70.7216C185.374 71.2651 185.488 71.7489 185.716 72.1728C185.944 72.5968 186.249 72.9229 186.629 73.1512C187.01 73.3795 187.417 73.4936 187.852 73.4936ZM197.836 75.1405C197.021 75.1405 196.287 74.9503 195.635 74.5698C194.993 74.1894 194.488 73.6676 194.118 73.0044C193.759 72.3305 193.58 71.5749 193.58 70.7379C193.58 69.9443 193.754 69.2106 194.102 68.5366C194.461 67.8517 194.955 67.3082 195.586 66.906C196.216 66.5038 196.934 66.3027 197.738 66.3027C198.575 66.3027 199.298 66.4875 199.907 66.8571C200.526 67.2267 200.994 67.7322 201.309 68.3735C201.635 69.0149 201.798 69.7378 201.798 70.5422C201.798 70.6944 201.782 70.8847 201.749 71.1129H195.374C195.439 71.8848 195.711 72.4827 196.189 72.9066C196.678 73.3197 197.243 73.5262 197.885 73.5262C198.396 73.5262 198.836 73.4121 199.206 73.1838C199.586 72.9447 199.89 72.624 200.119 72.2218L201.635 72.9392C201.244 73.6241 200.733 74.1622 200.102 74.5535C199.472 74.9449 198.716 75.1405 197.836 75.1405ZM199.972 69.7432C199.95 69.4497 199.858 69.1617 199.695 68.879C199.532 68.5855 199.282 68.3409 198.945 68.1452C198.619 67.9496 198.216 67.8517 197.738 67.8517C197.162 67.8517 196.673 68.0257 196.271 68.3735C195.879 68.7105 195.607 69.1671 195.455 69.7432H199.972ZM203.432 66.5636H205.144V67.6561H205.225C205.464 67.2647 205.818 66.944 206.285 66.694C206.764 66.4331 207.269 66.3027 207.802 66.3027C208.813 66.3027 209.579 66.6016 210.101 67.1995C210.633 67.7865 210.9 68.5909 210.9 69.6128V74.8796H209.106V69.8574C209.106 69.2051 208.943 68.7268 208.617 68.4225C208.302 68.1181 207.861 67.9659 207.296 67.9659C206.894 67.9659 206.535 68.08 206.22 68.3083C205.905 68.5257 205.66 68.8192 205.486 69.1888C205.312 69.5584 205.225 69.9552 205.225 70.3792V74.8796H203.432V66.5636ZM215.916 75.0101C215.547 75.0101 215.199 74.9503 214.873 74.8307C214.547 74.7111 214.28 74.5535 214.074 74.3578C213.606 73.8904 213.372 73.2545 213.372 72.45V68.1452H211.921V66.5636H213.372V64.2155H215.166V66.5636H217.188V68.1452H215.166V72.0587C215.166 72.5044 215.253 72.8196 215.427 73.0044C215.59 73.2219 215.873 73.3306 216.275 73.3306C216.46 73.3306 216.623 73.3088 216.764 73.2653C216.905 73.211 217.058 73.1295 217.221 73.0208V74.7655C216.862 74.9286 216.427 75.0101 215.916 75.0101ZM228.202 75.1405C227.071 75.1405 226.039 74.8742 225.104 74.3415C224.169 73.8089 223.435 73.0751 222.902 72.1402C222.37 71.2053 222.103 70.1726 222.103 69.0421C222.103 67.9115 222.37 66.8788 222.902 65.9439C223.435 65.0091 224.169 64.2753 225.104 63.7426C226.039 63.21 227.071 62.9436 228.202 62.9436C229.082 62.9436 229.881 63.1067 230.599 63.4328C231.327 63.7589 231.969 64.2318 232.523 64.8514L231.219 66.107C230.816 65.6287 230.371 65.2754 229.881 65.0471C229.392 64.8079 228.832 64.6884 228.202 64.6884C227.419 64.6884 226.702 64.8677 226.05 65.2265C225.408 65.5852 224.897 66.0961 224.517 66.7592C224.136 67.4115 223.946 68.1724 223.946 69.0421C223.946 69.9117 224.136 70.6781 224.517 71.3412C224.897 71.9935 225.408 72.499 226.05 72.8577C226.702 73.2164 227.419 73.3958 228.202 73.3958C229.506 73.3958 230.615 72.8523 231.528 71.7652L232.849 73.0371C232.284 73.7002 231.604 74.2165 230.811 74.5861C230.017 74.9557 229.148 75.1405 228.202 75.1405ZM234.435 63.2045H236.229V74.8796H234.435V63.2045ZM241.37 75.1405C240.359 75.1405 239.587 74.8416 239.054 74.2437C238.532 73.6349 238.272 72.7925 238.272 71.7163V66.5636H240.065V71.4717C240.065 72.1457 240.223 72.6511 240.538 72.9881C240.864 73.3251 241.288 73.4936 241.81 73.4936C242.234 73.4936 242.609 73.3849 242.935 73.1675C243.261 72.9392 243.511 72.6403 243.685 72.2707C243.859 71.9011 243.946 71.5043 243.946 71.0803V66.5636H245.74V74.8796H244.044V73.8034H243.946C243.718 74.1948 243.364 74.5155 242.886 74.7655C242.408 75.0155 241.902 75.1405 241.37 75.1405ZM252.263 75.1405C251.676 75.1405 251.148 75.0101 250.681 74.7492C250.213 74.4883 249.86 74.173 249.621 73.8034H249.54V74.8796H247.827V63.2045H249.621V66.482L249.54 67.6561H249.621C249.86 67.2756 250.213 66.9549 250.681 66.694C251.148 66.4331 251.676 66.3027 252.263 66.3027C253.013 66.3027 253.692 66.4929 254.301 66.8734C254.91 67.2539 255.388 67.7811 255.736 68.4551C256.095 69.1182 256.274 69.8737 256.274 70.7216C256.274 71.5695 256.095 72.3305 255.736 73.0044C255.388 73.6676 254.91 74.1894 254.301 74.5698C253.692 74.9503 253.013 75.1405 252.263 75.1405ZM252.002 73.4936C252.437 73.4936 252.844 73.3795 253.225 73.1512C253.605 72.9229 253.91 72.5968 254.138 72.1728C254.366 71.7489 254.48 71.2651 254.48 70.7216C254.48 70.1781 254.366 69.6998 254.138 69.2867C253.91 68.8627 253.605 68.5366 253.225 68.3083C252.844 68.08 252.437 67.9659 252.002 67.9659C251.567 67.9659 251.159 68.08 250.779 68.3083C250.409 68.5366 250.11 68.8627 249.882 69.2867C249.654 69.6998 249.54 70.1781 249.54 70.7216C249.54 71.2651 249.654 71.7489 249.882 72.1728C250.11 72.5968 250.409 72.9229 250.779 73.1512C251.159 73.3795 251.567 73.4936 252.002 73.4936ZM260.86 75.1405C259.904 75.1405 259.121 74.934 258.512 74.5209C257.904 74.0969 257.474 73.5589 257.224 72.9066L258.822 72.2054C259.018 72.6403 259.29 72.9718 259.638 73.2001C259.996 73.4284 260.404 73.5425 260.86 73.5425C261.306 73.5425 261.681 73.4664 261.986 73.3143C262.29 73.1512 262.442 72.912 262.442 72.5968C262.442 72.2924 262.312 72.0533 262.051 71.8793C261.79 71.7054 261.388 71.5532 260.844 71.4228L259.849 71.1782C259.186 71.0151 258.637 70.727 258.203 70.314C257.768 69.9009 257.55 69.3791 257.55 68.7486C257.55 68.2594 257.692 67.83 257.974 67.4604C258.268 67.0908 258.659 66.8082 259.148 66.6125C259.638 66.4059 260.17 66.3027 260.746 66.3027C261.518 66.3027 262.198 66.4603 262.785 66.7755C263.372 67.0799 263.796 67.5256 264.056 68.1126L262.491 68.7975C262.176 68.1561 261.6 67.8354 260.763 67.8354C260.36 67.8354 260.023 67.917 259.752 68.08C259.48 68.2431 259.344 68.4551 259.344 68.716C259.344 68.966 259.447 69.1725 259.654 69.3356C259.86 69.4878 260.165 69.6182 260.567 69.7269L261.79 70.0367C262.605 70.2433 263.219 70.5585 263.632 70.9825C264.056 71.3956 264.268 71.9065 264.268 72.5153C264.268 73.0371 264.116 73.4991 263.812 73.9013C263.518 74.2926 263.111 74.597 262.589 74.8144C262.067 75.0318 261.491 75.1405 260.86 75.1405Z" fill="white"/>
<rect width="23.3115" height="7.81905" rx="3.90953" transform="matrix(-0.866025 0.5 0.5 0.866025 174.504 27.7881)" fill="#FBBC04"/>
<rect width="23.3115" height="7.81905" rx="3.90953" transform="matrix(0.866025 -0.5 -0.5 -0.866025 131.371 38.4272)" fill="#EA4335"/>
<rect x="131.041" y="27.7871" width="23.3115" height="7.81905" rx="3.90953" transform="rotate(30 131.041 27.7871)" fill="#4285F4"/>
<rect x="174.504" y="38.4272" width="23.3115" height="7.81905" rx="3.64648" transform="rotate(-150 174.504 38.4272)" fill="#0F9D58"/>
<path d="M131.431 88.0184H134.335C134.807 88.0184 135.247 88.1264 135.655 88.3424C136.063 88.5584 136.387 88.8624 136.627 89.2544C136.875 89.6384 136.999 90.0744 136.999 90.5624C136.999 90.9624 136.907 91.3344 136.723 91.6784C136.547 92.0224 136.299 92.3104 135.979 92.5424C135.667 92.7744 135.319 92.9304 134.935 93.0104L134.911 93.0464L137.335 96.5624V96.6104H136.135L133.795 93.1064H132.439V96.6104H131.431V88.0184ZM134.275 92.1584C134.571 92.1584 134.847 92.0904 135.103 91.9544C135.367 91.8184 135.575 91.6304 135.727 91.3904C135.887 91.1424 135.967 90.8664 135.967 90.5624C135.967 90.2984 135.899 90.0464 135.763 89.8064C135.627 89.5664 135.435 89.3704 135.187 89.2184C134.947 89.0664 134.667 88.9904 134.347 88.9904H132.439V92.1584H134.275ZM142.494 96.8024C141.662 96.8024 140.906 96.6064 140.226 96.2144C139.546 95.8224 139.01 95.2864 138.618 94.6064C138.234 93.9184 138.042 93.1544 138.042 92.3144C138.042 91.4744 138.234 90.7144 138.618 90.0344C139.01 89.3464 139.546 88.8064 140.226 88.4144C140.906 88.0224 141.662 87.8264 142.494 87.8264C143.134 87.8264 143.718 87.9504 144.246 88.1984C144.782 88.4384 145.246 88.7824 145.638 89.2304L144.906 89.9384C144.578 89.5464 144.218 89.2584 143.826 89.0744C143.442 88.8904 142.998 88.7984 142.494 88.7984C141.87 88.7984 141.298 88.9464 140.778 89.2424C140.258 89.5304 139.842 89.9424 139.53 90.4784C139.226 91.0064 139.074 91.6184 139.074 92.3144C139.074 93.0104 139.226 93.6264 139.53 94.1624C139.842 94.6904 140.258 95.1024 140.778 95.3984C141.298 95.6864 141.87 95.8304 142.494 95.8304C143.534 95.8304 144.418 95.4024 145.146 94.5464L145.89 95.2664C145.49 95.7384 144.998 96.1144 144.414 96.3944C143.83 96.6664 143.19 96.8024 142.494 96.8024ZM151.153 96.8024C150.329 96.8024 149.581 96.6024 148.909 96.2024C148.237 95.8024 147.709 95.2624 147.325 94.5824C146.941 93.8944 146.749 93.1384 146.749 92.3144C146.749 91.4984 146.941 90.7464 147.325 90.0584C147.709 89.3704 148.237 88.8264 148.909 88.4264C149.581 88.0264 150.329 87.8264 151.153 87.8264C151.977 87.8264 152.725 88.0264 153.397 88.4264C154.069 88.8264 154.597 89.3704 154.981 90.0584C155.373 90.7464 155.569 91.4984 155.569 92.3144C155.569 93.1384 155.377 93.8944 154.993 94.5824C154.609 95.2624 154.077 95.8024 153.397 96.2024C152.725 96.6024 151.977 96.8024 151.153 96.8024ZM151.153 95.8304C151.769 95.8304 152.333 95.6824 152.845 95.3864C153.365 95.0824 153.773 94.6664 154.069 94.1384C154.373 93.6024 154.525 92.9944 154.525 92.3144C154.525 91.6344 154.373 91.0304 154.069 90.5024C153.773 89.9664 153.365 89.5504 152.845 89.2544C152.333 88.9504 151.769 88.7984 151.153 88.7984C150.537 88.7984 149.973 88.9504 149.461 89.2544C148.949 89.5504 148.541 89.9664 148.237 90.5024C147.933 91.0384 147.781 91.6424 147.781 92.3144C147.781 92.9864 147.933 93.5904 148.237 94.1264C148.541 94.6624 148.949 95.0824 149.461 95.3864C149.973 95.6824 150.537 95.8304 151.153 95.8304ZM157.071 88.0184H162.039V88.9904H158.079V91.8344H161.655V92.7944H158.079V95.6384H162.039V96.6104H157.071V88.0184ZM163.681 88.0184H165.157L167.893 95.0624H167.941L170.677 88.0184H172.153V96.6104H171.145V91.1504L171.193 89.5184H171.145L168.337 96.6104H167.497L164.689 89.5184H164.641L164.689 91.1504V96.6104H163.681V88.0184Z" fill="white"/>
</svg>
