<svg width="825" height="103" viewBox="0 0 825 103" fill="none" xmlns="http://www.w3.org/2000/svg">
<path d="M391.31 75.4009C391.31 84.3431 391.198 93.2605 391.198 102.206" stroke="#FFF0C6" stroke-width="0.932639" stroke-linecap="round"/>
<path d="M385.029 75.063H397.815" stroke="#FFF0C6" stroke-width="0.932639" stroke-linecap="round"/>
<path d="M384.469 74.9518C384.469 73.8296 384.491 72.7498 385.366 71.9236C385.987 71.3371 387.013 71.0264 387.858 71.0264C388.86 71.0264 389.675 71.073 390.413 71.8115C390.938 72.336 391.759 73.3162 391.759 74.0546" stroke="#FFF0C6" stroke-width="0.932639" stroke-linecap="round"/>
<path d="M391.535 74.6148C391.535 74.3183 391.486 74.0054 391.648 73.7425C391.74 73.5932 391.691 73.2845 391.785 73.1817C392.083 72.8531 392.43 72.5487 392.744 72.2346C393.286 71.6925 394.602 71.3623 395.349 71.3623C397.195 71.3623 398.489 72.7905 398.489 74.6148" stroke="#FFF0C6" stroke-width="0.932639" stroke-linecap="round"/>
<path d="M816.842 75.561C816.842 84.5032 816.729 93.4207 816.729 102.366" stroke="#FFF0C6" stroke-width="0.932639" stroke-linecap="round"/>
<path d="M810.561 75.2231H823.346" stroke="#FFF0C6" stroke-width="0.932639" stroke-linecap="round"/>
<path d="M810 75.112C810 73.9898 810.022 72.9099 810.897 72.0838C811.518 71.4972 812.544 71.1865 813.39 71.1865C814.392 71.1865 815.206 71.2331 815.944 71.9716C816.469 72.4962 817.29 73.4764 817.29 74.2147" stroke="#FFF0C6" stroke-width="0.932639" stroke-linecap="round"/>
<path d="M817.067 74.775C817.067 74.4785 817.017 74.1656 817.179 73.9027C817.271 73.7534 817.223 73.4447 817.316 73.3419C817.615 73.0133 817.961 72.7088 818.276 72.3948C818.818 71.8527 820.134 71.5225 820.88 71.5225C822.727 71.5225 824.02 72.9507 824.02 74.775" stroke="#FFF0C6" stroke-width="0.932639" stroke-linecap="round"/>
<path d="M102.108 90.3804C102.108 94.2903 102.021 98.1894 102.021 102.101" stroke="#FFF0C6" stroke-width="0.723475" stroke-linecap="round"/>
<path d="M97.2383 90.1182H107.157" stroke="#FFF0C6" stroke-width="0.723475" stroke-linecap="round"/>
<path d="M96.8037 90.0314C96.8037 89.1609 96.8211 88.3232 97.4997 87.6823C97.9815 87.2273 98.7772 86.9863 99.4331 86.9863C100.21 86.9863 100.842 87.0225 101.415 87.5953C101.822 88.0023 102.459 88.7626 102.459 89.3354" stroke="#FFF0C6" stroke-width="0.723475" stroke-linecap="round"/>
<path d="M102.286 89.7706C102.286 89.5406 102.247 89.2979 102.373 89.0939C102.444 88.9781 102.407 88.7387 102.479 88.6589C102.711 88.404 102.98 88.1679 103.224 87.9242C103.644 87.5037 104.665 87.2476 105.244 87.2476C106.676 87.2476 107.68 88.3555 107.68 89.7706" stroke="#FFF0C6" stroke-width="0.723475" stroke-linecap="round"/>
<path d="M7.84165 81.9922C7.84165 88.7668 7.72949 95.5227 7.72949 102.3" stroke="#FFF0C6" stroke-width="0.932639" stroke-linecap="round"/>
<path d="M1.56055 81.6543H14.3463" stroke="#FFF0C6" stroke-width="0.932639" stroke-linecap="round"/>
<path d="M1 81.5431C1 80.4209 1.02247 79.3411 1.89725 78.5149C2.5183 77.9284 3.5441 77.6177 4.38959 77.6177C5.39156 77.6177 6.20576 77.6643 6.94425 78.4028C7.46883 78.9274 8.29012 79.9075 8.29012 80.6459" stroke="#FFF0C6" stroke-width="0.932639" stroke-linecap="round"/>
<path d="M8.06675 81.2061C8.06675 80.9096 8.01711 80.5967 8.1789 80.3338C8.27078 80.1845 8.22252 79.8758 8.31598 79.773C8.61472 79.4444 8.96147 79.14 9.27554 78.8259C9.81765 78.2838 11.1337 77.9536 11.88 77.9536C13.7266 77.9536 15.0204 79.3819 15.0204 81.2061" stroke="#FFF0C6" stroke-width="0.932639" stroke-linecap="round"/>
<path d="M638.691 83.7026V100.814" stroke="#FFF0C6" stroke-width="0.747003" stroke-linecap="round"/>
<path d="M636.07 74.7974C636.07 75.5706 636.472 76.4876 636.681 77.2418C636.871 77.9227 637.048 78.7966 637.331 79.4341C637.771 80.4238 638.515 81.7287 638.515 82.8292" stroke="#FFF0C6" stroke-width="0.747003" stroke-linecap="round"/>
<path d="M619.834 73.9253C626.255 73.9253 632.759 74.0999 639.215 74.0999" stroke="#FFF0C6" stroke-width="0.747003" stroke-linecap="round"/>
<path d="M618.782 84.0522H639.036" stroke="#FFF0C6" stroke-width="0.747003" stroke-linecap="round"/>
<path d="M618.609 70.6079V93.4812" stroke="#FFF0C6" stroke-width="0.747003" stroke-linecap="round"/>
<path d="M618.782 93.6558C618.852 94.2835 619.591 94.8782 619.869 95.4018C620.019 95.6849 620.437 95.822 620.519 96.1875C620.599 96.5508 620.771 96.9252 620.974 97.2449C621.761 98.481 622.181 99.7546 622.798 100.989" stroke="#FFF0C6" stroke-width="0.747003" stroke-linecap="round"/>
<path d="M578.449 70.9556H618.783" stroke="#FFF0C6" stroke-width="0.747003" stroke-linecap="round"/>
<path d="M577.752 76.5439H618.435" stroke="#FFF0C6" stroke-width="0.747003" stroke-linecap="round"/>
<path d="M578.103 83.7026H617.913" stroke="#FFF0C6" stroke-width="0.747003" stroke-linecap="round"/>
<path d="M578.276 93.8296H620.88" stroke="#FFF0C6" stroke-width="0.747003" stroke-linecap="round"/>
<path d="M616.863 76.5439H620.355" stroke="#FFF0C6" stroke-width="0.747003" stroke-linecap="round"/>
<path d="M627.516 89.814V97.4966" stroke="#FFF0C6" stroke-width="0.747003" stroke-linecap="round"/>
<path d="M627.516 97.3213H632.928" stroke="#FFF0C6" stroke-width="0.747003" stroke-linecap="round"/>
<path d="M627.516 89.814H632.754" stroke="#FFF0C6" stroke-width="0.747003" stroke-linecap="round"/>
<path d="M632.754 90.1631V96.7981" stroke="#FFF0C6" stroke-width="0.747003" stroke-linecap="round"/>
<path d="M624.896 61.8774V67.814" stroke="#FFF0C6" stroke-width="0.747003" stroke-linecap="round"/>
<path d="M625.247 67.29H630.66" stroke="#FFF0C6" stroke-width="0.747003" stroke-linecap="round"/>
<path d="M629.963 61.8774V66.5918" stroke="#FFF0C6" stroke-width="0.747003" stroke-linecap="round"/>
<path d="M625.247 61.8774H629.961" stroke="#FFF0C6" stroke-width="0.747003" stroke-linecap="round"/>
<path d="M612.498 61.5273V67.8131" stroke="#FFF0C6" stroke-width="0.747003" stroke-linecap="round"/>
<path d="M612.847 67.29H618.085" stroke="#FFF0C6" stroke-width="0.747003" stroke-linecap="round"/>
<path d="M617.914 61.5273V67.1147" stroke="#FFF0C6" stroke-width="0.747003" stroke-linecap="round"/>
<path d="M612.674 61.8774H617.563" stroke="#FFF0C6" stroke-width="0.747003" stroke-linecap="round"/>
<path d="M578.403 64.7461V101.706" stroke="#FFF0C6" stroke-width="0.747003" stroke-linecap="round"/>
<path d="M598.389 88.6519V93.0549" stroke="#FFF0C6" stroke-width="0.747003" stroke-linecap="round"/>
<path d="M601.833 88.7021V93.4088" stroke="#FFF0C6" stroke-width="0.747003" stroke-linecap="round"/>
<path d="M598.339 88.5507C598.339 87.9031 599.226 87.2349 599.835 87.2349C600.167 87.2349 600.404 87.4053 600.718 87.4401C600.867 87.4567 601.152 87.6447 601.246 87.7663C601.462 88.0436 601.515 88.3634 601.628 88.7025" stroke="#FFF0C6" stroke-width="0.747003" stroke-linecap="round"/>
<path d="M476.879 88.6519V93.0549" stroke="#FFF0C6" stroke-width="0.747003" stroke-linecap="round"/>
<path d="M480.322 88.7021V93.4088" stroke="#FFF0C6" stroke-width="0.747003" stroke-linecap="round"/>
<path d="M476.828 88.5507C476.828 87.9031 477.715 87.2349 478.324 87.2349C478.656 87.2349 478.893 87.4053 479.207 87.4401C479.356 87.4567 479.641 87.6447 479.735 87.7663C479.951 88.0436 480.005 88.3634 480.118 88.7025" stroke="#FFF0C6" stroke-width="0.747003" stroke-linecap="round"/>
<path d="M605.196 88.7246V93.1276" stroke="#FFF0C6" stroke-width="0.747003" stroke-linecap="round"/>
<path d="M608.641 88.7749V93.4816" stroke="#FFF0C6" stroke-width="0.747003" stroke-linecap="round"/>
<path d="M605.146 88.624C605.146 87.9763 606.032 87.3081 606.641 87.3081C606.973 87.3081 607.211 87.4785 607.524 87.5134C607.674 87.53 607.958 87.718 608.053 87.8395C608.268 88.1168 608.322 88.4366 608.435 88.7758" stroke="#FFF0C6" stroke-width="0.747003" stroke-linecap="round"/>
<path d="M483.687 88.7251V93.1281" stroke="#FFF0C6" stroke-width="0.747003" stroke-linecap="round"/>
<path d="M487.131 88.7754V93.4821" stroke="#FFF0C6" stroke-width="0.747003" stroke-linecap="round"/>
<path d="M483.637 88.6244C483.637 87.9768 484.524 87.3086 485.133 87.3086C485.464 87.3086 485.702 87.479 486.015 87.5138C486.165 87.5305 486.449 87.7184 486.544 87.84C486.76 88.1173 486.813 88.4371 486.926 88.7763" stroke="#FFF0C6" stroke-width="0.747003" stroke-linecap="round"/>
<path d="M612.285 88.7246V93.1276" stroke="#FFF0C6" stroke-width="0.747003" stroke-linecap="round"/>
<path d="M615.729 88.7749V93.4816" stroke="#FFF0C6" stroke-width="0.747003" stroke-linecap="round"/>
<path d="M612.234 88.624C612.234 87.9763 613.121 87.3081 613.73 87.3081C614.062 87.3081 614.3 87.4785 614.613 87.5134C614.763 87.53 615.047 87.718 615.142 87.8395C615.357 88.1168 615.411 88.4366 615.524 88.7758" stroke="#FFF0C6" stroke-width="0.747003" stroke-linecap="round"/>
<path d="M490.769 88.7241V93.1271" stroke="#FFF0C6" stroke-width="0.747003" stroke-linecap="round"/>
<path d="M494.214 88.7744V93.4811" stroke="#FFF0C6" stroke-width="0.747003" stroke-linecap="round"/>
<path d="M490.719 88.6235C490.719 87.9759 491.606 87.3076 492.215 87.3076C492.546 87.3076 492.784 87.478 493.097 87.5129C493.247 87.5295 493.531 87.7175 493.626 87.839C493.842 88.1163 493.895 88.4361 494.008 88.7753" stroke="#FFF0C6" stroke-width="0.747003" stroke-linecap="round"/>
<path d="M582.712 96.7095V98.7592" stroke="#FFF0C6" stroke-width="0.747003" stroke-linecap="round"/>
<path d="M586.65 96.7095V98.7592" stroke="#FFF0C6" stroke-width="0.747003" stroke-linecap="round"/>
<path d="M590.584 96.7095V98.7592" stroke="#FFF0C6" stroke-width="0.747003" stroke-linecap="round"/>
<path d="M594.519 96.7095V98.7592" stroke="#FFF0C6" stroke-width="0.747003" stroke-linecap="round"/>
<path d="M598.457 96.7095V98.7592" stroke="#FFF0C6" stroke-width="0.747003" stroke-linecap="round"/>
<path d="M602.393 96.7095V98.7592" stroke="#FFF0C6" stroke-width="0.747003" stroke-linecap="round"/>
<path d="M606.33 96.7095V98.7592" stroke="#FFF0C6" stroke-width="0.747003" stroke-linecap="round"/>
<path d="M610.267 96.7095V98.7592" stroke="#FFF0C6" stroke-width="0.747003" stroke-linecap="round"/>
<path d="M614.2 96.7095V98.7592" stroke="#FFF0C6" stroke-width="0.747003" stroke-linecap="round"/>
<path d="M478.401 96.7095V98.7592" stroke="#FFF0C6" stroke-width="0.747003" stroke-linecap="round"/>
<path d="M482.34 96.7095V98.7592" stroke="#FFF0C6" stroke-width="0.747003" stroke-linecap="round"/>
<path d="M486.274 96.7095V98.7592" stroke="#FFF0C6" stroke-width="0.747003" stroke-linecap="round"/>
<path d="M490.208 96.7095V98.7592" stroke="#FFF0C6" stroke-width="0.747003" stroke-linecap="round"/>
<path d="M494.146 96.7095V98.7592" stroke="#FFF0C6" stroke-width="0.747003" stroke-linecap="round"/>
<path d="M498.082 96.7095V98.7592" stroke="#FFF0C6" stroke-width="0.747003" stroke-linecap="round"/>
<path d="M502.02 96.7095V98.7592" stroke="#FFF0C6" stroke-width="0.747003" stroke-linecap="round"/>
<path d="M505.956 96.7095V98.7592" stroke="#FFF0C6" stroke-width="0.747003" stroke-linecap="round"/>
<path d="M509.889 96.7095V98.7592" stroke="#FFF0C6" stroke-width="0.747003" stroke-linecap="round"/>
<path d="M583.107 73.1357V73.923" stroke="#FFF0C6" stroke-width="0.747003" stroke-linecap="round"/>
<path d="M587.045 73.1357V73.923" stroke="#FFF0C6" stroke-width="0.747003" stroke-linecap="round"/>
<path d="M590.98 73.1357V73.923" stroke="#FFF0C6" stroke-width="0.747003" stroke-linecap="round"/>
<path d="M594.914 73.1357V73.923" stroke="#FFF0C6" stroke-width="0.747003" stroke-linecap="round"/>
<path d="M598.853 73.1357V73.923" stroke="#FFF0C6" stroke-width="0.747003" stroke-linecap="round"/>
<path d="M602.787 73.1357V73.923" stroke="#FFF0C6" stroke-width="0.747003" stroke-linecap="round"/>
<path d="M606.726 73.1357V73.923" stroke="#FFF0C6" stroke-width="0.747003" stroke-linecap="round"/>
<path d="M610.662 73.1357V73.923" stroke="#FFF0C6" stroke-width="0.747003" stroke-linecap="round"/>
<path d="M614.595 73.1357V73.923" stroke="#FFF0C6" stroke-width="0.747003" stroke-linecap="round"/>
<path d="M478.401 73.1367V73.924" stroke="#FFF0C6" stroke-width="0.747003" stroke-linecap="round"/>
<path d="M482.34 73.1367V73.924" stroke="#FFF0C6" stroke-width="0.747003" stroke-linecap="round"/>
<path d="M486.274 73.1367V73.924" stroke="#FFF0C6" stroke-width="0.747003" stroke-linecap="round"/>
<path d="M490.208 73.1367V73.924" stroke="#FFF0C6" stroke-width="0.747003" stroke-linecap="round"/>
<path d="M494.146 73.1367V73.924" stroke="#FFF0C6" stroke-width="0.747003" stroke-linecap="round"/>
<path d="M498.082 73.1367V73.924" stroke="#FFF0C6" stroke-width="0.747003" stroke-linecap="round"/>
<path d="M502.02 73.1367V73.924" stroke="#FFF0C6" stroke-width="0.747003" stroke-linecap="round"/>
<path d="M505.956 73.1367V73.924" stroke="#FFF0C6" stroke-width="0.747003" stroke-linecap="round"/>
<path d="M509.889 73.1367V73.924" stroke="#FFF0C6" stroke-width="0.747003" stroke-linecap="round"/>
<path d="M587.007 83.2011L591.058 79.1504" stroke="#FFF0C6" stroke-width="0.747003" stroke-linecap="round"/>
<path d="M590.515 79.3062L594.098 82.8895" stroke="#FFF0C6" stroke-width="0.747003" stroke-linecap="round"/>
<path d="M498.081 83.2011L502.132 79.1504" stroke="#FFF0C6" stroke-width="0.747003" stroke-linecap="round"/>
<path d="M501.589 79.3062L505.172 82.8895" stroke="#FFF0C6" stroke-width="0.747003" stroke-linecap="round"/>
<path d="M513.826 98.3281H577.563" stroke="#FFF0C6" stroke-width="0.747003" stroke-linecap="round"/>
<path d="M513.826 94.7866H577.563" stroke="#FFF0C6" stroke-width="0.747003" stroke-linecap="round"/>
<path d="M513.826 91.2437H577.563" stroke="#FFF0C6" stroke-width="0.747003" stroke-linecap="round"/>
<path d="M513.826 87.7007H577.563" stroke="#FFF0C6" stroke-width="0.747003" stroke-linecap="round"/>
<path d="M513.826 84.1587H577.563" stroke="#FFF0C6" stroke-width="0.747003" stroke-linecap="round"/>
<path d="M513.826 80.6152H577.563" stroke="#FFF0C6" stroke-width="0.747003" stroke-linecap="round"/>
<path d="M513.826 77.0728H577.563" stroke="#FFF0C6" stroke-width="0.747003" stroke-linecap="round"/>
<path d="M513.841 63.792V102.102" stroke="#FFF0C6" stroke-width="0.747003" stroke-linecap="round"/>
<path d="M473.478 70.2954V93.1419" stroke="#FFF0C6" stroke-width="0.747003" stroke-linecap="round"/>
<path d="M471.099 93.8086H513.745" stroke="#FFF0C6" stroke-width="0.747003" stroke-linecap="round"/>
<path d="M473.289 70.2007H513.175" stroke="#FFF0C6" stroke-width="0.747003" stroke-linecap="round"/>
<path d="M471.099 76.6738H512.984" stroke="#FFF0C6" stroke-width="0.747003" stroke-linecap="round"/>
<path d="M453.287 83.9839H513.132" stroke="#FFF0C6" stroke-width="0.747003" stroke-linecap="round"/>
<path d="M453.116 84.1597V101.008" stroke="#FFF0C6" stroke-width="0.747003" stroke-linecap="round"/>
<path d="M455.924 74.1562C455.924 76.1015 455.159 77.9333 454.559 79.7332C454.13 81.0209 453.116 82.2059 453.116 83.6332" stroke="#FFF0C6" stroke-width="0.747003" stroke-linecap="round"/>
<path d="M453.813 73.9805H473.294" stroke="#FFF0C6" stroke-width="0.747003" stroke-linecap="round"/>
<path d="M459.558 89.7324V96.5309" stroke="#FFF0C6" stroke-width="0.747003" stroke-linecap="round"/>
<path d="M459.729 89.5557H464.373" stroke="#FFF0C6" stroke-width="0.747003" stroke-linecap="round"/>
<path d="M464.745 89.6304V96.2658" stroke="#FFF0C6" stroke-width="0.747003" stroke-linecap="round"/>
<path d="M459.729 96.6338H464.668" stroke="#FFF0C6" stroke-width="0.747003" stroke-linecap="round"/>
<path d="M462.533 61.688V66.8489" stroke="#FFF0C6" stroke-width="0.747003" stroke-linecap="round"/>
<path d="M462.533 66.8467H467.399" stroke="#FFF0C6" stroke-width="0.747003" stroke-linecap="round"/>
<path d="M467.47 62.1294V66.8479" stroke="#FFF0C6" stroke-width="0.747003" stroke-linecap="round"/>
<path d="M462.751 61.2446H467.396" stroke="#FFF0C6" stroke-width="0.747003" stroke-linecap="round"/>
<path d="M474.55 61.3926V67.0696" stroke="#FFF0C6" stroke-width="0.747003" stroke-linecap="round"/>
<path d="M475.211 66.8467H480.003" stroke="#FFF0C6" stroke-width="0.747003" stroke-linecap="round"/>
<path d="M479.565 61.3179V66.6262" stroke="#FFF0C6" stroke-width="0.747003" stroke-linecap="round"/>
<path d="M475.062 61.688H479.411" stroke="#FFF0C6" stroke-width="0.747003" stroke-linecap="round"/>
<path d="M469.503 101.71C470.153 100.916 470.324 99.7766 470.94 98.9614C471.238 98.5669 471.395 98.1034 471.682 97.7068C471.905 97.3971 472.043 96.9119 472.32 96.6745C472.723 96.329 472.971 95.5417 473.256 95.0947C473.456 94.7794 473.779 94.3893 473.917 94.1138" stroke="#FFF0C6" stroke-width="0.747003" stroke-linecap="round"/>
<path d="M486.747 56.3364V69.5791" stroke="#FFF0C6" stroke-width="0.747003" stroke-linecap="round"/>
<path d="M456.159 50.2793V73.3771" stroke="#FFF0C6" stroke-width="0.747003" stroke-linecap="round"/>
<path d="M453 56.689H639.812" stroke="#FFF0C6" stroke-width="0.747003" stroke-linecap="round"/>
<path d="M456.249 53.2388C457.298 53.294 458.33 53.593 459.385 53.6336C461.984 53.7335 464.602 53.6449 467.203 53.6449C473.907 53.6449 480.612 53.6449 487.317 53.6449C503.245 53.6449 519.174 53.6449 535.103 53.6449C551.678 53.6449 568.253 53.6449 584.829 53.6449C601.464 53.6449 651.371 53.6449 634.735 53.6449" stroke="#FFF0C6" stroke-width="0.747003" stroke-linecap="round"/>
<path d="M456.249 49.9888H636.36" stroke="#FFF0C6" stroke-width="0.747003" stroke-linecap="round"/>
<path d="M636.358 50.5977V73.34" stroke="#FFF0C6" stroke-width="0.747003" stroke-linecap="round"/>
<path d="M606.104 56.4868V69.4824" stroke="#FFF0C6" stroke-width="0.747003" stroke-linecap="round"/>
<path d="M596.357 63.7964V69.482" stroke="#FFF0C6" stroke-width="0.747003" stroke-linecap="round"/>
<path d="M560.415 63.7969V75.9802" stroke="#FFF0C6" stroke-width="0.747003" stroke-linecap="round"/>
<path d="M551.074 62.9834V76.5882" stroke="#FFF0C6" stroke-width="0.747003" stroke-linecap="round"/>
<path d="M541.735 62.9834V76.1821" stroke="#FFF0C6" stroke-width="0.747003" stroke-linecap="round"/>
<path d="M531.987 63.1885V75.981" stroke="#FFF0C6" stroke-width="0.747003" stroke-linecap="round"/>
<path d="M495.846 63.7964V69.2789" stroke="#FFF0C6" stroke-width="0.747003" stroke-linecap="round"/>
<path d="M486.832 62.0663C487.109 62.0663 487.619 61.4076 487.786 61.1923C488.092 60.7993 488.783 60.4155 489.268 60.3184C490.134 60.1452 491.234 59.4268 492.076 59.9216C492.435 60.1332 492.858 60.63 493.258 60.7026C493.366 60.7224 493.788 60.9894 493.84 61.0784C493.976 61.3085 494.233 61.3248 494.398 61.5343C494.557 61.7373 494.841 61.8274 494.997 62.0283C495.157 62.2345 495.31 62.4791 495.495 62.6742C495.714 62.9055 496.027 63.5656 496.027 63.8901" stroke="#FFF0C6" stroke-width="0.747003" stroke-linecap="round"/>
<path d="M496.029 63.3595C496.127 63.3472 496.485 63.0039 496.544 62.9035C496.618 62.7784 496.855 62.5788 496.979 62.5236C497.503 62.2908 497.956 61.7776 498.537 61.6116C498.904 61.5067 499.313 61.2504 499.635 61.0459C499.858 60.9039 500.276 60.964 500.53 60.9108C501.573 60.6925 502.611 60.6997 503.688 60.6997C504.92 60.6997 506.153 60.6997 507.386 60.6997C508.383 60.6997 509.527 60.7055 510.468 61.0417C511.178 61.2954 511.919 61.6188 512.444 62.1436C512.66 62.3602 512.925 62.5982 513.166 62.7853C513.337 62.9185 513.589 63.1463 513.66 63.3595" stroke="#FFF0C6" stroke-width="0.747003" stroke-linecap="round"/>
<path d="M514.495 63.7386C514.495 63.1698 515.106 62.5836 515.521 62.261C516.034 61.8622 516.868 61.4783 517.501 61.29C517.852 61.1858 518.272 61.0097 518.599 60.8509C518.999 60.6567 519.476 60.5985 519.891 60.4372C520.362 60.2539 521.057 60.3376 521.562 60.2598C522.067 60.1823 522.605 60.167 523.116 60.167C524.214 60.167 525.463 59.8721 526.544 60.1501C526.846 60.2276 527.211 60.33 527.49 60.454C527.85 60.6139 528.216 60.8647 528.596 61.0029C529.115 61.1915 529.568 61.4538 530.015 61.7628C530.495 62.0957 530.941 62.4721 531.433 62.7887C531.648 62.9272 531.791 63.1307 532.049 63.1307" stroke="#FFF0C6" stroke-width="0.747003" stroke-linecap="round"/>
<path d="M532.276 63.2065C532.51 63.1547 532.877 62.606 533.053 62.4297C533.253 62.2299 533.586 62.0074 533.648 61.7247C533.692 61.5302 533.894 61.4956 533.948 61.3067C534.024 61.0405 534.342 60.9779 534.539 60.8508C534.95 60.5867 535.39 60.3891 535.806 60.1246C536.065 59.9597 536.594 59.7869 536.916 59.7869C537.504 59.7869 538.251 59.5421 538.829 59.7278C539.09 59.8119 539.37 59.9617 539.614 60.0908C539.763 60.1696 540.039 60.2627 540.142 60.399C540.391 60.7316 540.419 61.5288 540.788 61.7458C541.171 61.9713 541.513 62.4533 541.699 62.8266" stroke="#FFF0C6" stroke-width="0.747003" stroke-linecap="round"/>
<path d="M541.781 62.903C541.97 62.8557 542.174 62.3955 542.313 62.2528C542.557 62.0016 542.839 61.7445 543.107 61.5182C543.475 61.2076 543.86 60.7443 544.306 60.5472C545.409 60.06 546.384 59.8633 547.599 59.8633C548.11 59.8633 548.558 60.1109 548.996 60.3572C549.397 60.5825 549.583 60.9091 549.874 61.2649C550.048 61.4771 550.252 62.0089 550.487 62.1431C550.628 62.2238 550.918 62.7103 550.976 62.827" stroke="#FFF0C6" stroke-width="0.747003" stroke-linecap="round"/>
<path d="M550.974 63.0553C551.333 62.9835 551.428 62.2963 551.772 62.1434C551.869 62.1002 552.116 61.8536 552.173 61.7634C552.286 61.5812 552.604 61.5349 552.764 61.3834C553.294 60.8807 553.855 60.5203 554.55 60.2773C555.388 59.9839 556.387 60.0916 557.264 60.0916C557.718 60.0916 558.063 60.4809 558.387 60.7459C559.015 61.26 560.093 62.1381 560.093 63.0553" stroke="#FFF0C6" stroke-width="0.747003" stroke-linecap="round"/>
<path d="M560.495 63.8083C560.526 63.8045 560.8 63.3342 560.851 63.2546C561.097 62.8719 561.421 62.5734 561.752 62.2658C562.016 62.0204 562.229 61.7746 562.556 61.5495C562.953 61.2767 563.542 61.032 564.024 60.9607C564.625 60.8716 565.287 60.5956 565.874 60.4069C566.557 60.1874 567.246 60.0957 567.948 59.9939C569.175 59.8158 570.403 59.8532 571.649 59.8532C572.262 59.8532 572.93 59.7879 573.503 60.0554C573.914 60.2472 574.354 60.4304 574.729 60.6882C575.13 60.964 575.616 61.137 575.999 61.4353C576.139 61.5439 576.368 61.5577 576.474 61.6902C576.606 61.8551 576.759 61.9491 576.931 62.0681C577.197 62.2521 577.401 62.5208 577.625 62.7448C578.059 63.1783 578.503 63.7527 578.768 64.2829" stroke="#FFF0C6" stroke-width="0.747003" stroke-linecap="round"/>
<path d="M578.772 63.7288C579.123 63.0974 579.651 62.6134 580.157 62.1072C580.469 61.7948 580.866 61.1668 581.313 61.0393C581.773 60.9078 582.188 60.6019 582.653 60.4856C583.025 60.3926 583.412 60.303 583.773 60.1868C584.638 59.9089 585.719 60.011 586.621 60.011C587.613 60.011 588.63 60.0557 589.609 60.2087C590.576 60.3598 591.659 60.4099 592.576 60.7625C592.793 60.846 593.415 60.9928 593.56 61.1624C593.688 61.3111 594.183 61.571 594.373 61.6545C594.787 61.8365 594.917 62.491 595.305 62.74C595.565 62.907 595.726 63.0674 595.859 63.3333" stroke="#FFF0C6" stroke-width="0.747003" stroke-linecap="round"/>
<path d="M596.331 63.4921C597.031 63.4921 597.235 61.6857 597.772 61.2772C598.63 60.6252 599.427 60.0907 600.541 60.0907C601.14 60.0907 601.831 59.9946 602.422 60.1083C602.729 60.1672 603.05 60.3378 603.354 60.4247C603.579 60.4892 603.721 60.6189 603.925 60.7235C604.39 60.9625 604.754 61.3311 605.173 61.6376C605.397 61.8012 605.782 62.064 605.902 62.3055" stroke="#FFF0C6" stroke-width="0.747003" stroke-linecap="round"/>
<path d="M459.059 49.8883C459.059 47.8068 458.963 45.6569 458.963 43.5283C458.963 42.7219 458.8 41.7285 458.984 40.9439C459.129 40.3274 459.346 39.6829 459.346 39.0508C459.346 38.6349 459.633 38.2538 459.633 37.8278C459.633 36.8865 459.757 35.8316 459.926 34.903C460.151 33.662 460.368 32.3751 460.83 31.1753C461.25 30.0824 461.417 28.8364 461.665 27.7242C461.827 26.9923 462.139 26.3477 462.388 25.6503C462.471 25.4179 462.777 24.722 462.983 24.6187" stroke="#FFF0C6" stroke-width="0.747003" stroke-linecap="round"/>
<path d="M462.624 24.564H470.26" stroke="#FFF0C6" stroke-width="0.747003" stroke-linecap="round"/>
<path d="M470.259 24.8735C471.037 25.6515 471.565 26.7239 471.91 27.7569C472.187 28.5899 472.472 29.3586 472.758 30.2161C473.509 32.4688 473.561 34.9022 473.561 37.307C473.561 38.4743 473.722 39.6868 473.767 40.8439C473.789 41.4166 473.927 41.9639 474.054 42.5178C474.177 43.0596 474.077 43.7207 474.077 44.2776C474.077 45.2121 474.386 46.1344 474.386 47.0578C474.386 47.9933 474.283 48.8139 474.283 49.7405" stroke="#FFF0C6" stroke-width="0.747003" stroke-linecap="round"/>
<path d="M462.334 49.568C462.334 49.0738 462.26 48.5107 462.401 48.0365C462.479 47.7726 462.456 47.4195 462.501 47.1511C462.55 46.8573 462.678 46.5593 462.678 46.2562C462.678 45.0481 462.592 43.8845 462.592 42.6763C462.592 41.3825 462.901 40.1203 463.176 38.8667C463.28 38.3913 463.331 37.8847 463.497 37.4214C463.572 37.2093 463.812 36.2946 463.97 36.2153" stroke="#FFF0C6" stroke-width="0.747003" stroke-linecap="round"/>
<path d="M464.06 35.6123H468.884" stroke="#FFF0C6" stroke-width="0.747003" stroke-linecap="round"/>
<path d="M468.883 36.1299C469.121 37.4147 469.413 38.6545 469.763 39.882C469.934 40.4782 470.031 41.1037 470.094 41.7342C470.162 42.4162 470.35 43.0851 470.429 43.7538C470.567 44.9325 470.778 46.072 470.778 47.2811C470.778 48.1649 470.864 49.0535 470.864 49.9133" stroke="#FFF0C6" stroke-width="0.747003" stroke-linecap="round"/>
<path d="M464.835 45.5186V49.1367" stroke="#FFF0C6" stroke-width="0.747003" stroke-linecap="round"/>
<path d="M465.003 45.4336H467.76" stroke="#FFF0C6" stroke-width="0.747003" stroke-linecap="round"/>
<path d="M467.851 46.0352V48.9641" stroke="#FFF0C6" stroke-width="0.747003" stroke-linecap="round"/>
<path d="M463.502 21.603H468.912" stroke="#FFF0C6" stroke-width="0.747003" stroke-linecap="round"/>
<path d="M464.274 18.7041H467.623" stroke="#FFF0C6" stroke-width="0.747003" stroke-linecap="round"/>
<path d="M618.697 49.8883C618.697 47.8068 618.601 45.6569 618.601 43.5283C618.601 42.7219 618.438 41.7285 618.622 40.9439C618.767 40.3274 618.984 39.6829 618.984 39.0508C618.984 38.6349 619.271 38.2538 619.271 37.8278C619.271 36.8865 619.395 35.8316 619.563 34.903C619.789 33.662 620.006 32.3751 620.467 31.1753C620.888 30.0824 621.055 28.8364 621.302 27.7242C621.465 26.9923 621.776 26.3477 622.025 25.6503C622.108 25.4179 622.414 24.722 622.621 24.6187" stroke="#FFF0C6" stroke-width="0.747003" stroke-linecap="round"/>
<path d="M622.262 24.564H629.897" stroke="#FFF0C6" stroke-width="0.747003" stroke-linecap="round"/>
<path d="M629.896 24.8735C630.674 25.6515 631.203 26.7239 631.547 27.7569C631.825 28.5899 632.11 29.3586 632.396 30.2161C633.147 32.4688 633.198 34.9022 633.198 37.307C633.198 38.4743 633.36 39.6868 633.405 40.8439C633.427 41.4166 633.565 41.9639 633.691 42.5178C633.815 43.0596 633.714 43.7207 633.714 44.2776C633.714 45.2121 634.024 46.1344 634.024 47.0578C634.024 47.9933 633.921 48.8139 633.921 49.7405" stroke="#FFF0C6" stroke-width="0.747003" stroke-linecap="round"/>
<path d="M621.971 49.568C621.971 49.0738 621.898 48.5107 622.038 48.0365C622.117 47.7726 622.094 47.4195 622.139 47.1511C622.188 46.8573 622.316 46.5593 622.316 46.2562C622.316 45.0481 622.23 43.8845 622.23 42.6763C622.23 41.3825 622.539 40.1203 622.814 38.8667C622.918 38.3913 622.969 37.8847 623.134 37.4214C623.21 37.2093 623.45 36.2946 623.608 36.2153" stroke="#FFF0C6" stroke-width="0.747003" stroke-linecap="round"/>
<path d="M623.697 35.6123H628.521" stroke="#FFF0C6" stroke-width="0.747003" stroke-linecap="round"/>
<path d="M628.521 36.1299C628.758 37.4147 629.05 38.6545 629.401 39.882C629.571 40.4782 629.668 41.1037 629.731 41.7342C629.8 42.4162 629.988 43.0851 630.066 43.7538C630.205 44.9325 630.416 46.072 630.416 47.2811C630.416 48.1649 630.502 49.0535 630.502 49.9133" stroke="#FFF0C6" stroke-width="0.747003" stroke-linecap="round"/>
<path d="M624.475 45.5186V49.1367" stroke="#FFF0C6" stroke-width="0.747003" stroke-linecap="round"/>
<path d="M624.643 45.4336H627.399" stroke="#FFF0C6" stroke-width="0.747003" stroke-linecap="round"/>
<path d="M627.488 46.0352V48.9641" stroke="#FFF0C6" stroke-width="0.747003" stroke-linecap="round"/>
<path d="M623.14 21.603H628.549" stroke="#FFF0C6" stroke-width="0.747003" stroke-linecap="round"/>
<path d="M623.912 18.7041H627.261" stroke="#FFF0C6" stroke-width="0.747003" stroke-linecap="round"/>
<path d="M487.876 49.9284C487.819 49.6444 487.525 49.4285 487.42 49.1823C487.347 49.014 487.233 48.5956 487.072 48.5063C486.711 48.3059 486.728 47.7874 486.728 47.4317C486.728 46.9519 487.056 46.4774 487.244 46.0543C487.359 45.7958 487.621 45.5953 487.691 45.3241C487.765 45.035 488.001 44.715 488.162 44.4632C488.499 43.9399 488.831 43.4251 489.208 42.9263C489.45 42.6066 489.785 42.2712 489.935 41.8964C490.049 41.612 490.29 41.3789 490.398 41.0929C490.577 40.6143 491.09 40.0912 491.09 39.5688C491.09 39.4965 491.147 39.2801 491.147 39.3105C491.147 39.5907 491.272 39.9417 491.332 40.2161C491.452 40.7663 491.703 41.317 491.906 41.8231C491.992 42.0391 492.168 42.2112 492.237 42.4385C492.306 42.6597 492.465 42.946 492.611 43.124C492.843 43.4082 493.232 43.6831 493.529 43.902C493.764 44.0752 493.985 44.247 494.189 44.4505C494.304 44.5658 494.469 44.7614 494.591 44.8331C494.904 45.0173 495.01 45.4461 495.279 45.6366C495.379 45.707 495.528 46.0274 495.566 46.1436C495.645 46.3798 495.701 46.6045 495.767 46.8578C495.974 47.6446 496.095 48.803 495.222 49.2396" stroke="#FFF0C6" stroke-width="0.747003" stroke-linecap="round"/>
<path d="M597.639 49.9284C597.582 49.6444 597.289 49.4285 597.183 49.1823C597.111 49.014 596.996 48.5956 596.836 48.5063C596.475 48.3059 596.491 47.7874 596.491 47.4317C596.491 46.9519 596.82 46.4774 597.008 46.0543C597.123 45.7958 597.385 45.5953 597.454 45.3241C597.528 45.035 597.764 44.715 597.926 44.4632C598.263 43.9399 598.595 43.4251 598.972 42.9263C599.214 42.6066 599.549 42.2712 599.699 41.8964C599.813 41.612 600.054 41.3789 600.161 41.0929C600.341 40.6143 600.853 40.0912 600.853 39.5688C600.853 39.4965 600.911 39.2801 600.911 39.3105C600.911 39.5907 601.036 39.9417 601.096 40.2161C601.215 40.7663 601.467 41.317 601.67 41.8231C601.756 42.0391 601.931 42.2112 602.001 42.4385C602.069 42.6597 602.228 42.946 602.374 43.124C602.607 43.4082 602.995 43.6831 603.292 43.902C603.527 44.0752 603.749 44.247 603.953 44.4505C604.068 44.5658 604.232 44.7614 604.354 44.8331C604.667 45.0173 604.773 45.4461 605.043 45.6366C605.143 45.707 605.291 46.0274 605.33 46.1436C605.409 46.3798 605.464 46.6045 605.531 46.8578C605.738 47.6446 605.859 48.803 604.986 49.2396" stroke="#FFF0C6" stroke-width="0.747003" stroke-linecap="round"/>
<path d="M509.078 49.4444C509.078 48.0118 509.078 46.5792 509.078 45.1466C509.078 44.4876 509.185 43.8114 509.377 43.1887C509.559 42.5952 509.4 41.687 509.4 41.0696C509.4 39.6464 509.496 37.9319 509.914 36.5748C510.29 35.3512 510.153 33.9063 510.153 32.6292C510.153 31.9849 510.26 31.3062 510.26 30.6951C510.26 30.0156 510.494 29.4825 510.576 28.8208C510.648 28.2474 510.731 27.667 510.803 27.0897C510.908 26.2538 511.269 25.4242 511.334 24.6006C511.512 22.3851 512.408 20.2217 513.376 18.2852" stroke="#FFF0C6" stroke-width="0.747003" stroke-linecap="round"/>
<path d="M513.483 18.1782H521.219" stroke="#FFF0C6" stroke-width="0.747003" stroke-linecap="round"/>
<path d="M521.436 18.5005C521.468 18.8242 521.804 19.0099 521.859 19.3123C521.944 19.7765 522.242 20.2674 522.289 20.7151C522.347 21.262 522.64 22.1905 522.988 22.6372C523.141 22.8343 523.125 23.2075 523.179 23.443C523.251 23.7607 523.455 24.1249 523.477 24.4339C523.536 25.2608 523.956 26.035 524.014 26.8574C524.072 27.6603 524.337 28.4109 524.337 29.2451C524.337 29.9625 524.444 30.6375 524.444 31.3403C524.444 32.0129 524.537 32.7773 524.683 33.4355C524.837 34.1282 524.766 34.8736 524.766 35.5844C524.766 36.9709 524.685 38.4108 524.88 39.7748C524.978 40.4609 524.981 41.1347 524.981 41.8401C524.981 42.4522 525.172 43.0093 525.196 43.6189C525.234 44.5714 525.304 45.6016 525.304 46.5976C525.304 47.0603 525.171 47.7751 525.411 48.1794C525.608 48.5119 525.786 48.7977 525.948 49.1225" stroke="#FFF0C6" stroke-width="0.747003" stroke-linecap="round"/>
<path d="M513.699 49.3367C512.901 49.248 512.732 47.4749 512.732 46.9192C512.732 45.6422 513.023 45.0039 513.723 44.0122C513.998 43.6234 514.718 43.4462 515.06 43.1287C515.276 42.9293 515.578 42.9109 515.801 42.7288C516.058 42.5181 516.283 42.2948 516.541 42.0841C517.187 41.5551 517.997 40.2289 517.997 39.3442" stroke="#FFF0C6" stroke-width="0.747003" stroke-linecap="round"/>
<path d="M517.674 39.4521C517.796 40.7939 518.691 41.9916 519.309 43.1053C519.507 43.4606 520.03 43.8205 520.336 44.0962C520.658 44.3859 521.163 44.5049 521.458 44.8006C521.768 45.1099 521.978 45.2693 522.163 45.684C522.354 46.1139 522.294 46.6148 522.294 47.0808C522.294 47.6422 522.275 48.0082 521.972 48.5015C521.737 48.8824 521.67 49.6167 521.22 49.7669" stroke="#FFF0C6" stroke-width="0.747003" stroke-linecap="round"/>
<path d="M513.268 43.8583C513.268 40.8545 513.82 37.9668 514.133 34.994C514.234 34.0327 514.61 33.1216 514.664 32.1467C514.72 31.1444 515.416 30.0963 515.416 29.1382" stroke="#FFF0C6" stroke-width="0.747003" stroke-linecap="round"/>
<path d="M515.201 29.6738H519.284" stroke="#FFF0C6" stroke-width="0.747003" stroke-linecap="round"/>
<path d="M519.392 29.5669C519.898 30.9857 520.704 32.2269 521.111 33.6498C521.471 34.9112 521.733 36.1958 521.964 37.4701C522.198 38.7558 522.078 40.158 522.078 41.4695C522.078 42.5519 522.078 43.6343 522.078 44.7168" stroke="#FFF0C6" stroke-width="0.747003" stroke-linecap="round"/>
<path d="M514.45 15.3843H520.145" stroke="#FFF0C6" stroke-width="0.747003" stroke-linecap="round"/>
<path d="M515.311 12.1606H518.964" stroke="#FFF0C6" stroke-width="0.747003" stroke-linecap="round"/>
<path d="M525.624 44.7161C526.31 44.1062 526.903 43.3616 527.504 42.6268C528.218 41.754 529.161 41.0286 529.379 39.8332C529.453 39.4222 529.492 39.0673 529.492 38.6454C529.492 37.7823 529.882 39.0417 529.946 39.296C530.05 39.7125 530.287 40.0856 530.459 40.4719C530.588 40.7627 530.835 41.3488 531.104 41.5166C531.399 41.7013 531.662 42.0985 531.916 42.3522C532.197 42.6335 532.604 42.7903 532.871 43.0566C533.375 43.5607 534.211 43.7459 534.441 44.5489C534.677 45.3768 535.079 45.9834 535.079 46.8888C535.079 47.5077 535.01 47.8707 534.703 48.4229C534.486 48.8135 534.112 49.0665 534.112 49.5511" stroke="#FFF0C6" stroke-width="0.747003" stroke-linecap="round"/>
<path d="M583.915 49.0152C583.915 47.5826 583.915 46.15 583.915 44.7174C583.915 44.0584 583.808 43.3822 583.617 42.7595C583.434 42.166 583.593 41.2578 583.593 40.6404C583.593 39.2172 583.497 37.5027 583.079 36.1456C582.703 34.922 582.841 33.4771 582.841 32.2C582.841 31.5557 582.733 30.877 582.733 30.266C582.733 29.5864 582.499 29.0533 582.417 28.3916C582.345 27.8182 582.262 27.2378 582.19 26.6605C582.085 25.8246 581.725 24.995 581.659 24.1714C581.481 21.9559 580.585 19.7925 579.617 17.856" stroke="#FFF0C6" stroke-width="0.747003" stroke-linecap="round"/>
<path d="M579.512 17.7476H571.776" stroke="#FFF0C6" stroke-width="0.747003" stroke-linecap="round"/>
<path d="M571.558 18.0698C571.525 18.3936 571.189 18.5793 571.134 18.8816C571.049 19.3458 570.751 19.8368 570.704 20.2844C570.646 20.8313 570.353 21.7598 570.006 22.2065C569.852 22.4037 569.868 22.7768 569.815 23.0123C569.742 23.33 569.538 23.6942 569.516 24.0032C569.457 24.8301 569.038 25.6043 568.979 26.4267C568.922 27.2297 568.657 27.9802 568.657 28.8144C568.657 29.5318 568.549 30.2068 568.549 30.9096C568.549 31.5822 568.457 32.3466 568.31 33.0048C568.156 33.6975 568.227 34.443 568.227 35.1537C568.227 36.5403 568.308 37.9801 568.113 39.3441C568.015 40.0302 568.012 40.704 568.012 41.4094C568.012 42.0216 567.821 42.5787 567.797 43.1883C567.759 44.1408 567.69 45.171 567.69 46.1669C567.69 46.6297 567.822 47.3445 567.582 47.7487C567.385 48.0813 567.207 48.3671 567.045 48.6919" stroke="#FFF0C6" stroke-width="0.747003" stroke-linecap="round"/>
<path d="M579.294 48.9075C580.092 48.8188 580.261 47.0457 580.261 46.49C580.261 45.213 579.97 44.5747 579.27 43.583C578.995 43.1942 578.276 43.017 577.933 42.6995C577.717 42.5001 577.415 42.4817 577.193 42.2996C576.935 42.0889 576.71 41.8656 576.452 41.6549C575.806 41.1259 574.996 39.7997 574.996 38.915" stroke="#FFF0C6" stroke-width="0.747003" stroke-linecap="round"/>
<path d="M575.318 39.0225C575.196 40.3642 574.302 41.5619 573.683 42.6756C573.485 43.0309 572.962 43.3908 572.656 43.6665C572.334 43.9563 571.83 44.0752 571.534 44.3709C571.225 44.6802 571.014 44.8397 570.83 45.2543C570.638 45.6842 570.698 46.1851 570.698 46.6511C570.698 47.2125 570.717 47.5785 571.021 48.0718C571.255 48.4528 571.322 49.187 571.773 49.3373" stroke="#FFF0C6" stroke-width="0.747003" stroke-linecap="round"/>
<path d="M579.726 43.4286C579.726 40.4248 579.173 37.5371 578.86 34.5643C578.759 33.603 578.383 32.6919 578.329 31.717C578.273 30.7147 577.577 29.6666 577.577 28.7085" stroke="#FFF0C6" stroke-width="0.747003" stroke-linecap="round"/>
<path d="M577.794 29.2441H573.711" stroke="#FFF0C6" stroke-width="0.747003" stroke-linecap="round"/>
<path d="M573.601 29.1377C573.094 30.5565 572.288 31.7977 571.881 33.2206C571.521 34.482 571.26 35.7666 571.028 37.0409C570.794 38.3266 570.914 39.7288 570.914 41.0403C570.914 42.1227 570.914 43.2051 570.914 44.2876" stroke="#FFF0C6" stroke-width="0.747003" stroke-linecap="round"/>
<path d="M578.543 14.9536H572.848" stroke="#FFF0C6" stroke-width="0.747003" stroke-linecap="round"/>
<path d="M577.683 11.731H574.029" stroke="#FFF0C6" stroke-width="0.747003" stroke-linecap="round"/>
<path d="M567.368 44.2864C566.682 43.6765 566.089 42.9319 565.488 42.1971C564.774 41.3243 563.831 40.5989 563.614 39.4035C563.539 38.9925 563.5 38.6376 563.5 38.2157C563.5 37.3527 563.11 38.612 563.046 38.8663C562.942 39.2828 562.705 39.656 562.533 40.0423C562.404 40.333 562.157 40.9191 561.888 41.0869C561.593 41.2716 561.33 41.6688 561.077 41.9226C560.795 42.2038 560.388 42.3606 560.122 42.6269C559.617 43.131 558.781 43.3163 558.552 44.1192C558.315 44.9471 557.913 45.5537 557.913 46.4592C557.913 47.078 557.982 47.441 558.289 47.9932C558.506 48.3838 558.88 48.6369 558.88 49.1214" stroke="#FFF0C6" stroke-width="0.747003" stroke-linecap="round"/>
<path d="M537.377 49.4139C537.377 48.3119 537.392 47.2502 537.225 46.1641C537.142 45.6209 536.946 45.2521 536.946 44.6789C536.946 44.1516 537.032 43.5437 536.938 43.0261C536.494 40.5869 536.802 37.8374 536.802 35.3368C536.802 33.1303 536.802 30.9239 536.802 28.7174C536.802 27.7864 536.926 26.8724 536.946 25.9547C536.959 25.3716 537.036 24.7868 537.201 24.23C537.306 23.8785 537.124 23.448 537.265 23.1121C537.479 22.6057 537.188 21.9288 537.449 21.4592C537.804 20.8198 537.806 19.9971 537.96 19.3034C538.275 17.8874 538.784 16.5285 539.094 15.1353C539.285 14.2742 539.677 13.2397 539.677 12.3646C539.677 11.6015 540.194 10.9628 540.252 10.2087C540.287 9.75396 540.782 9.4698 540.827 9.02696C540.848 8.81101 540.927 8.57495 541.082 8.42011C541.368 8.13461 541.801 7.65326 541.976 7.30225" stroke="#FFF0C6" stroke-width="0.747003" stroke-linecap="round"/>
<path d="M542.12 7.01465H550.6" stroke="#FFF0C6" stroke-width="0.747003" stroke-linecap="round"/>
<path d="M550.598 7.30225C550.882 7.37341 551.183 8.42231 551.316 8.65966C551.625 9.21045 551.768 9.79393 552.107 10.3205C552.513 10.9526 552.883 11.8068 553.153 12.5083C553.499 13.4093 553.935 14.3823 554.055 15.3429C554.156 16.1488 554.622 16.8045 554.622 17.6505C554.622 19.548 555.197 21.4158 555.197 23.3197C555.197 25.1562 555.197 26.9927 555.197 28.8292C555.197 30.7308 556.059 32.5523 556.059 34.4664C556.059 36.2124 556.059 37.9584 556.059 39.7044C556.059 42.893 556.059 46.0816 556.059 49.2702" stroke="#FFF0C6" stroke-width="0.747003" stroke-linecap="round"/>
<path d="M541.256 49.1263C540.508 49.1263 539.971 46.9056 539.787 46.2837C539.552 45.4933 539.754 44.9668 539.962 44.2396C540.122 43.6806 540.727 42.5702 541.256 42.2594C541.961 41.8445 542.604 41.1882 543.276 40.7263C543.856 40.3277 545.105 39.6315 545.392 38.9537C545.869 37.827 546.43 37.0503 546.43 35.7598" stroke="#FFF0C6" stroke-width="0.747003" stroke-linecap="round"/>
<path d="M546.575 36.0479C546.575 37.3505 547.725 38.5274 548.444 39.4254C548.857 39.9427 549.275 40.5832 549.809 40.9984C550.163 41.2734 551.122 41.9261 551.174 42.3718C551.237 42.9072 551.877 43.762 552.181 44.2083C552.567 44.7759 552.468 45.5197 552.468 46.1805C552.468 47.6316 551.8 48.7388 551.174 49.9893" stroke="#FFF0C6" stroke-width="0.747003" stroke-linecap="round"/>
<path d="M544.851 18.5122H548.3" stroke="#FFF0C6" stroke-width="0.747003" stroke-linecap="round"/>
<path d="M548.301 18.6562C549.048 19.4779 549.261 20.9395 549.658 21.9619C550.005 22.8532 550.062 23.7884 550.385 24.6927C550.754 25.7276 550.6 27.0706 550.6 28.1581C550.6 29.4197 550.6 30.6813 550.6 31.9429C550.6 34.9414 551.175 37.8197 551.175 40.79" stroke="#FFF0C6" stroke-width="0.747003" stroke-linecap="round"/>
<path d="M544.851 27.998V33.6034" stroke="#FFF0C6" stroke-width="0.747003" stroke-linecap="round"/>
<path d="M545.713 33.1733H547.725" stroke="#FFF0C6" stroke-width="0.747003" stroke-linecap="round"/>
<path d="M547.438 28.2861V33.7477" stroke="#FFF0C6" stroke-width="0.747003" stroke-linecap="round"/>
<path d="M544.851 28.4292H546.719" stroke="#FFF0C6" stroke-width="0.747003" stroke-linecap="round"/>
<path d="M542 41.4062C542 39.5821 542 37.758 542 35.9338C542 34.9663 542.345 34.0106 542.345 33.0516C542.345 32.2701 542.143 31.1874 542.364 30.4423C542.983 28.3512 542.377 26.1039 542.905 23.9931C543.2 22.8136 543.405 21.6168 543.767 20.4598C543.834 20.245 543.933 20.0551 544.001 19.8421C544.06 19.6593 544.013 19.4252 544.087 19.258C544.167 19.0792 544.379 18.5423 544.499 18.4824" stroke="#FFF0C6" stroke-width="0.747003" stroke-linecap="round"/>
<path d="M543.481 4.14795H549.223" stroke="#FFF0C6" stroke-width="0.747003" stroke-linecap="round"/>
<path d="M544.648 1.18652H547.968" stroke="#FFF0C6" stroke-width="0.747003" stroke-linecap="round"/>
<path d="M254.763 89.896C254.763 92.5155 253.588 94.8538 253.588 97.4436C253.588 98.0005 253.545 98.508 253.477 99.0563C253.423 99.4819 253.235 99.8437 253.235 100.264C253.235 100.81 253 102.429 253 101.883" stroke="#FFF0C6" stroke-width="0.747003" stroke-linecap="round"/>
<path d="M280.502 89.4258C280.502 90.0183 280.711 90.572 280.737 91.1625C280.77 91.9198 280.884 92.6853 281.063 93.4216C281.333 94.5303 281.608 95.6958 281.971 96.7841C282.332 97.8667 282.617 99.0975 282.617 100.231C282.617 100.659 282.642 101.97 283.087 102.118" stroke="#FFF0C6" stroke-width="0.747003" stroke-linecap="round"/>
<path d="M255.115 89.6597H281.206" stroke="#FFF0C6" stroke-width="0.747003" stroke-linecap="round"/>
<path d="M256.88 86.7222H278.974" stroke="#FFF0C6" stroke-width="0.747003" stroke-linecap="round"/>
<path d="M259.936 84.2544H275.801" stroke="#FFF0C6" stroke-width="0.747003" stroke-linecap="round"/>
<path d="M260.287 84.2544V85.6647" stroke="#FFF0C6" stroke-width="0.747003" stroke-linecap="round"/>
<path d="M257.232 87.4277V88.7205" stroke="#FFF0C6" stroke-width="0.747003" stroke-linecap="round"/>
<path d="M275.682 84.7251V86.1354" stroke="#FFF0C6" stroke-width="0.747003" stroke-linecap="round"/>
<path d="M278.739 86.9575V88.4853" stroke="#FFF0C6" stroke-width="0.747003" stroke-linecap="round"/>
<path d="M261.343 90.8354C261.852 90.9487 261.578 93.4467 261.578 93.9564C261.578 95.1258 261.813 96.2468 261.813 97.4168C261.813 98.8293 261.578 103.06 261.578 101.648" stroke="#FFF0C6" stroke-width="0.747003" stroke-linecap="round"/>
<path d="M273.92 91.188C273.92 92.4929 274.205 93.6011 274.508 94.8769C274.769 95.978 274.599 97.1473 274.978 98.2133C275.394 99.3834 274.809 100.958 275.33 102" stroke="#FFF0C6" stroke-width="0.747003" stroke-linecap="round"/>
<path d="M264.52 95.772V101.648" stroke="#FFF0C6" stroke-width="0.747003" stroke-linecap="round"/>
<path d="M268.161 95.3018V101.648" stroke="#FFF0C6" stroke-width="0.747003" stroke-linecap="round"/>
<path d="M272.038 99.5317C271.695 100.003 271.92 101.045 271.92 101.647C271.92 101.827 271.92 102.739 271.92 102.117" stroke="#FFF0C6" stroke-width="0.747003" stroke-linecap="round"/>
<path d="M271.922 94.3613V96.9469" stroke="#FFF0C6" stroke-width="0.747003" stroke-linecap="round"/>
<path d="M267.926 91.5405C267.926 91.692 267.903 92.7632 268.044 92.4807" stroke="#FFF0C6" stroke-width="0.747003" stroke-linecap="round"/>
<path d="M264.402 92.3633V94.0086" stroke="#FFF0C6" stroke-width="0.747003" stroke-linecap="round"/>
<path d="M263.479 3.55713H272.564" stroke="#FFF0C6" stroke-width="0.747003" stroke-linecap="round"/>
<path d="M263.628 3.99805C263.628 5.69665 263.628 7.39525 263.628 9.09385C263.628 10.6983 263.963 12.6301 263.555 14.1815C263.395 14.7874 263.335 15.7541 263.335 16.3875C263.335 17.1114 263.189 17.8314 263.189 18.5691C263.189 19.4492 263.042 20.2811 263.042 21.1414" stroke="#FFF0C6" stroke-width="0.747003" stroke-linecap="round"/>
<path d="M263.188 21.1401V40.3349" stroke="#FFF0C6" stroke-width="0.747003" stroke-linecap="round"/>
<path d="M263.095 38.833C263.095 42.0087 263.089 45.1711 263.003 48.3441C262.944 50.5325 262.729 52.6804 262.729 54.883C262.729 55.1419 262.66 55.4377 262.632 55.701C262.608 55.9316 262.617 56.3694 262.526 56.5748C262.347 56.9772 262.455 57.5513 262.455 57.9974C262.455 58.8843 262.363 59.714 262.363 60.5988C262.363 61.0255 262.363 61.4523 262.363 61.8791C262.363 62.4824 262.2 62.9799 262.094 63.5659C262.01 64.0255 262.11 64.4384 261.926 64.897C261.769 65.2906 261.906 66.0237 261.906 66.4517" stroke="#FFF0C6" stroke-width="0.747003" stroke-linecap="round"/>
<path d="M261.996 65.8105C261.996 69.4077 261.996 73.0048 261.996 76.602C261.996 77.2801 261.905 77.9492 261.905 78.619C261.905 79.3789 261.722 80.101 261.722 80.8494C261.722 81.4666 261.539 82.0332 261.539 82.6379C261.539 82.8341 261.539 84.0508 261.539 83.278" stroke="#FFF0C6" stroke-width="0.747003" stroke-linecap="round"/>
<path d="M272.166 3.18652C272.166 9.01575 272.166 14.845 272.166 20.6742C272.166 23.6456 272.166 26.617 272.166 29.5884C272.166 31.6548 272.046 33.9106 272.469 35.9286C273.178 39.3162 273.018 42.9061 273.018 46.3663C273.018 49.6626 273.018 52.9589 273.018 56.2552C273.018 58.7813 273.699 61.1353 273.699 63.6458C273.699 64.9433 273.376 66.7636 273.784 67.9893C274.26 69.4173 274.21 71.0567 274.21 72.5505C274.21 73.4986 274.16 74.4613 274.21 75.4083C274.265 76.4485 274.721 77.3829 274.721 78.4744C274.721 79.4127 274.562 80.5207 274.73 81.4457C274.843 82.0633 274.891 84.4493 274.891 82.5624" stroke="#FFF0C6" stroke-width="0.747003" stroke-linecap="round"/>
<path d="M266.263 4.43945C266.263 9.94904 266.61 15.4355 266.61 20.9447C266.61 24.03 266.61 27.1154 266.61 30.2008C266.61 31.8003 266.592 33.3594 266.353 34.9413C266.1 36.6136 266.147 38.4601 266.147 40.1515C266.147 41.9483 266.147 43.745 266.147 45.5418C266.147 47.75 266.031 49.9365 266.031 52.1413" stroke="#FFF0C6" stroke-width="0.747003" stroke-linecap="round"/>
<path d="M266.033 51.9097C266.033 53.5325 266.264 55.1211 266.264 56.7339C266.264 58.2279 266.393 59.74 266.49 61.23C266.579 62.6096 266.54 64.0507 266.329 65.411C266.089 66.9552 266.264 68.668 266.264 70.2288C266.264 73.3427 265.686 76.4043 265.686 79.5235C265.686 80.4304 265.686 81.3374 265.686 82.2443C265.686 82.5724 265.686 82.9004 265.686 83.2285C265.686 83.5376 265.686 83.8756 265.686 83.2864" stroke="#FFF0C6" stroke-width="0.747003" stroke-linecap="round"/>
<path d="M269.624 4.09277V39.2902" stroke="#FFF0C6" stroke-width="0.747003" stroke-linecap="round"/>
<path d="M269.624 39.4058C269.624 48.0293 269.624 56.6529 269.624 65.2764C269.624 67.8729 269.508 70.4551 269.508 73.0466C269.508 74.7285 269.429 76.5723 269.765 78.2182C269.944 79.0914 270.087 79.9764 270.087 80.8811C270.087 81.4262 270.014 82.0099 270.203 82.5278C270.344 82.9149 270.319 83.2804 270.319 83.692C270.319 83.8464 270.319 84.0008 270.319 84.1552C270.319 84.4695 270.319 83.5287 270.319 83.4026" stroke="#FFF0C6" stroke-width="0.747003" stroke-linecap="round"/>
<path d="M16.1406 80.063H119.558" stroke="#FFF0C6" stroke-width="0.747003" stroke-linecap="round"/>
<path d="M119.708 80.3638V101.5" stroke="#FFF0C6" stroke-width="0.747003" stroke-linecap="round"/>
<path d="M15.6885 80.063V101.954" stroke="#FFF0C6" stroke-width="0.747003" stroke-linecap="round"/>
<path d="M16.29 87.7632H119.103" stroke="#FFF0C6" stroke-width="0.747003" stroke-linecap="round"/>
<path d="M15.9883 94.5552H57.0531" stroke="#FFF0C6" stroke-width="0.747003" stroke-linecap="round"/>
<path d="M79.249 94.8579H119.257" stroke="#FFF0C6" stroke-width="0.747003" stroke-linecap="round"/>
<path d="M56.6016 65.8701V101.5" stroke="#FFF0C6" stroke-width="0.747003" stroke-linecap="round"/>
<path d="M78.9443 65.7197V101.35" stroke="#FFF0C6" stroke-width="0.747003" stroke-linecap="round"/>
<path d="M38.1807 46.9995H97.5133" stroke="#FFF0C6" stroke-width="0.747003" stroke-linecap="round"/>
<path d="M45.4277 41.4141H90.2669" stroke="#FFF0C6" stroke-width="0.747003" stroke-linecap="round"/>
<path d="M53.8828 28.4287H82.2659" stroke="#FFF0C6" stroke-width="0.747003" stroke-linecap="round"/>
<path d="M53.2793 32.355H82.1153" stroke="#FFF0C6" stroke-width="0.747003" stroke-linecap="round"/>
<path d="M81.9619 29.0342V32.0537" stroke="#FFF0C6" stroke-width="0.747003" stroke-linecap="round"/>
<path d="M53.2793 27.9761V31.5994" stroke="#FFF0C6" stroke-width="0.747003" stroke-linecap="round"/>
<path d="M56.752 32.6562V36.5816" stroke="#FFF0C6" stroke-width="0.747003" stroke-linecap="round"/>
<path d="M79.1006 32.6562V37.3364" stroke="#FFF0C6" stroke-width="0.747003" stroke-linecap="round"/>
<path d="M65.3047 25.0957H71.1342" stroke="#FFF0C6" stroke-width="0.747003" stroke-linecap="round"/>
<path d="M65.8613 21.9004H69.934" stroke="#FFF0C6" stroke-width="0.747003" stroke-linecap="round"/>
<path d="M66.9863 19.1865H68.3439" stroke="#FFF0C6" stroke-width="0.747003" stroke-linecap="round"/>
<path d="M64.4111 94.0771V101.484" stroke="#FFF0C6" stroke-width="0.747003" stroke-linecap="round"/>
<path d="M71.2402 93.9619V101.832" stroke="#FFF0C6" stroke-width="0.747003" stroke-linecap="round"/>
<path d="M64.457 93.7851C64.5666 93.5783 64.6704 93.3923 64.7712 93.1908C64.8785 92.9761 65.084 92.8492 65.2212 92.6686C65.6574 92.0947 66.5107 92.0743 67.1296 91.8577C67.3321 91.7868 67.5894 91.7585 67.8004 91.7218C67.9692 91.6924 68.1257 91.6836 68.2971 91.6836C68.6777 91.6836 68.9121 91.7804 69.2332 91.9702C69.8139 92.3133 70.8775 92.6057 71.0673 93.3648" stroke="#FFF0C6" stroke-width="0.747003" stroke-linecap="round"/>
<path d="M20.7188 97.4331V99.6386" stroke="#FFF0C6" stroke-width="0.747003" stroke-linecap="round"/>
<path d="M26.0713 97.4331V99.6386" stroke="#FFF0C6" stroke-width="0.747003" stroke-linecap="round"/>
<path d="M31.4238 97.4331V99.6386" stroke="#FFF0C6" stroke-width="0.747003" stroke-linecap="round"/>
<path d="M36.7812 97.4331V99.6386" stroke="#FFF0C6" stroke-width="0.747003" stroke-linecap="round"/>
<path d="M42.1338 97.4331V99.6386" stroke="#FFF0C6" stroke-width="0.747003" stroke-linecap="round"/>
<path d="M47.4941 97.4331V99.6386" stroke="#FFF0C6" stroke-width="0.747003" stroke-linecap="round"/>
<path d="M52.8477 97.4331V99.6386" stroke="#FFF0C6" stroke-width="0.747003" stroke-linecap="round"/>
<path d="M83.6123 97.4341V99.6396" stroke="#FFF0C6" stroke-width="0.747003" stroke-linecap="round"/>
<path d="M88.9648 97.4341V99.6396" stroke="#FFF0C6" stroke-width="0.747003" stroke-linecap="round"/>
<path d="M94.3174 97.4341V99.6396" stroke="#FFF0C6" stroke-width="0.747003" stroke-linecap="round"/>
<path d="M99.6748 97.4341V99.6396" stroke="#FFF0C6" stroke-width="0.747003" stroke-linecap="round"/>
<path d="M105.027 97.4341V99.6396" stroke="#FFF0C6" stroke-width="0.747003" stroke-linecap="round"/>
<path d="M110.388 97.4341V99.6396" stroke="#FFF0C6" stroke-width="0.747003" stroke-linecap="round"/>
<path d="M115.741 97.4341V99.6396" stroke="#FFF0C6" stroke-width="0.747003" stroke-linecap="round"/>
<path d="M20.7188 83.1113V85.3168" stroke="#FFF0C6" stroke-width="0.747003" stroke-linecap="round"/>
<path d="M26.0713 83.1113V85.3168" stroke="#FFF0C6" stroke-width="0.747003" stroke-linecap="round"/>
<path d="M31.4238 83.1113V85.3168" stroke="#FFF0C6" stroke-width="0.747003" stroke-linecap="round"/>
<path d="M36.7812 83.1113V85.3168" stroke="#FFF0C6" stroke-width="0.747003" stroke-linecap="round"/>
<path d="M42.1338 83.1113V85.3168" stroke="#FFF0C6" stroke-width="0.747003" stroke-linecap="round"/>
<path d="M47.4941 83.1113V85.3168" stroke="#FFF0C6" stroke-width="0.747003" stroke-linecap="round"/>
<path d="M52.8477 83.1113V85.3168" stroke="#FFF0C6" stroke-width="0.747003" stroke-linecap="round"/>
<path d="M83.6123 83.1118V85.3173" stroke="#FFF0C6" stroke-width="0.747003" stroke-linecap="round"/>
<path d="M88.9648 83.1118V85.3173" stroke="#FFF0C6" stroke-width="0.747003" stroke-linecap="round"/>
<path d="M94.3174 83.1118V85.3173" stroke="#FFF0C6" stroke-width="0.747003" stroke-linecap="round"/>
<path d="M99.6748 83.1118V85.3173" stroke="#FFF0C6" stroke-width="0.747003" stroke-linecap="round"/>
<path d="M105.027 83.1118V85.3173" stroke="#FFF0C6" stroke-width="0.747003" stroke-linecap="round"/>
<path d="M110.388 83.1118V85.3173" stroke="#FFF0C6" stroke-width="0.747003" stroke-linecap="round"/>
<path d="M115.741 83.1118V85.3173" stroke="#FFF0C6" stroke-width="0.747003" stroke-linecap="round"/>
<path d="M53.5762 71.7998H56.2133" stroke="#FFF0C6" stroke-width="0.747003" stroke-linecap="round"/>
<path d="M53.3711 75.9629H56.4615" stroke="#FFF0C6" stroke-width="0.747003" stroke-linecap="round"/>
<path d="M79.4941 71.7998H82.1725" stroke="#FFF0C6" stroke-width="0.747003" stroke-linecap="round"/>
<path d="M79.6162 75.5503H82.0885" stroke="#FFF0C6" stroke-width="0.747003" stroke-linecap="round"/>
<path d="M57.6123 71.6777C57.7073 71.6672 57.8431 71.5132 57.9191 71.4511C58.093 71.3088 58.3525 71.2036 58.56 71.1215C59.1069 70.905 59.6792 70.7831 60.2288 70.5881C60.7117 70.4168 61.2761 70.3757 61.7351 70.1692C62.2064 69.9571 62.7512 69.8428 63.2597 69.7411C63.7223 69.6486 64.1796 69.5287 64.6355 69.4115C64.93 69.3357 65.2327 69.2622 65.5329 69.2146C65.7922 69.1734 66.0787 69.0875 66.3387 69.0818C66.8366 69.071 67.3335 68.9763 67.8312 68.9582C68.3267 68.9402 68.8167 68.917 69.3146 68.917C69.5275 68.917 69.7404 68.917 69.9533 68.917C70.1438 68.917 70.3027 69.0104 70.4913 69.0406C70.9799 69.1188 71.4361 69.3883 71.9128 69.5145C72.4473 69.6559 72.9572 69.8577 73.513 69.9082C73.935 69.9466 74.3542 70.1409 74.772 70.1966C75.2257 70.2571 75.6927 70.5373 76.1272 70.6705C76.5345 70.7953 76.938 70.9193 77.3497 71.0276C77.7088 71.1221 78.0674 71.2691 78.421 71.3893C78.6677 71.4732 79.0362 71.5385 79.2451 71.6777" stroke="#FFF0C6" stroke-width="0.747003" stroke-linecap="round"/>
<path d="M57.6123 75.3413C57.7073 75.3308 57.8431 75.1768 57.9191 75.1147C58.093 74.9723 58.3525 74.8672 58.56 74.7851C59.1069 74.5686 59.6792 74.4467 60.2288 74.2517C60.7117 74.0803 61.2761 74.0393 61.7351 73.8328C62.2064 73.6207 62.7512 73.5064 63.2597 73.4047C63.7223 73.3122 64.1796 73.1923 64.6355 73.075C64.93 72.9993 65.2327 72.9258 65.5329 72.8782C65.7922 72.837 66.0787 72.751 66.3387 72.7454C66.8366 72.7346 67.3335 72.6399 67.8312 72.6218C68.3267 72.6038 68.8167 72.5806 69.3146 72.5806C69.5275 72.5806 69.7404 72.5806 69.9533 72.5806C70.1438 72.5806 70.3027 72.674 70.4913 72.7042C70.9799 72.7824 71.4361 73.0518 71.9128 73.178C72.4473 73.3195 72.9572 73.5213 73.513 73.5718C73.935 73.6102 74.3542 73.8045 74.772 73.8602C75.2257 73.9207 75.6927 74.2009 76.1272 74.3341C76.5345 74.4589 76.938 74.5829 77.3497 74.6912C77.7088 74.7857 78.0674 74.9327 78.421 75.0529C78.6677 75.1368 79.0362 75.2021 79.2451 75.3413" stroke="#FFF0C6" stroke-width="0.747003" stroke-linecap="round"/>
<circle cx="67.8123" cy="62.9276" r="2.25914" stroke="#FFF0C6" stroke-width="0.747003"/>
<path d="M112.567 79.6009C112.567 54.8835 92.5293 35.7236 67.8119 35.7236C43.0944 35.7236 23.9346 54.8835 23.9346 79.6009" stroke="#FFF0C6" stroke-width="0.747003" stroke-linecap="round"/>
</svg>
